<?xml version="1.0" encoding="utf-8"?>
<!-- Generator: Adobe Illustrator 16.0.0, SVG Export Plug-In . SVG Version: 6.00 Build 0)  -->
<!DOCTYPE svg PUBLIC "-//W3C//DTD SVG 1.1//EN" "http://www.w3.org/Graphics/SVG/1.1/DTD/svg11.dtd">
<svg version="1.1"
	 id="Layer_1" xmlns:inkscape="http://www.inkscape.org/namespaces/inkscape" xmlns:sodipodi="http://sodipodi.sourceforge.net/DTD/sodipodi-0.dtd" xmlns:rdf="http://www.w3.org/1999/02/22-rdf-syntax-ns#" xmlns:dc="http://purl.org/dc/elements/1.1/" xmlns:cc="http://creativecommons.org/ns#"
	 xmlns="http://www.w3.org/2000/svg" xmlns:xlink="http://www.w3.org/1999/xlink" x="0px" y="0px" width="3200px" height="800px"
	 viewBox="0 0 3200 800" enable-background="new 0 0 3200 800" xml:space="preserve">
<sodipodi:namedview  showborder="true" showgrid="false" inkscape:showpageshadow="false"></sodipodi:namedview>
<g transform="translate(1212, 923) scale(1, -1)">
	<path fill="none" stroke="#000000" d="M200,1033l7-1h6h5h5h5h5l5,1v-6l4-3h6l-3,8h5h5l-1-7l1-7l5-1l6,1h6h6l4-3h7l2-5l2-4l2-5h5h5
		l2-5l-1-6l7,3l4-1l7-2l-1,8l5-1l6-1l5-2l2,7l-4,3l-4,2h-5l-2,3h-6l-4,2l3-9l-4-1l-4,3l-3,5l-5,1l-3,1l-3,5l7,2l6-1l5,1h6l5-2l6,1
		l3-4l5,5l1-6l4-3l3-4l-1-7l6,2l1,7l5-4v-5h5l3,7l5-2l7,1l6,6l-6,1h-5h-7l-6-1l1,7l6,1h6h6h6l5-1l1-6l5-1l1,7l6,1h6l-6-7h6h5l1,7h6
		v-6l4-2l2-5l5,2l2,7l-2,4l-4,1l-1,6h-6h-6h-6h-6l-6-1l-5,1h-6h-6h-6h-6l-7-1l-4-1l-5,1l2-10l-4,1l-4,3l-1,6h-7l-7-1l-4,2h-6h-6
		l-6-1h-7l-6-1l-4,1l-5-1l-4,2h-6h-6h-6h-6l1,7h6h6h6h6h6h5h5h5h5h5h6h6h6h5h5h5h5h5h5h5h6h6h6h6h6h5h6h6h6h6h6l1-6l5-1l1,7h6l-1-7
		l2-5l5-3h5l6,1h6h6l6-1l4-2l4-1l5-3l4-2h5l5,2l-2-8l7,4l3-5l8,1l-2,5l-2,4l-5,2l-1,6l-1,6l-7-2l2-6l-6-2l-6,2l-6,2l-3,5h-5h-6h-6
		h-6l-7-1l-4,2l-1,6h7h5h6h6h6h6h6l1-6l6-1v7h6h5h7l1-6l1-6l5-2l2-6l3-3l1-6l6,4l4-3l4-4l5-1l2-5l5,11l-6,1l-3,3l-5,3l-7,1l-4,5
		l-1,7l-5,1l-1,6h7h6l-1-7l2-5l5-2l6-2l6,2l1-6h6v6l-1,6h-7l-5,1l-5,1l-1,6h7h6h5h5h5h5h5h6l5-1l6-1h5l6,1h5l-4-8h-5l-6-1l-4-1l-4,3
		l-4-1l-5,2l-7-1h-7l1-6l3-2l6,2l4-3h6l1-6l6,4l6,1l6,2l-5-8l-6-2l2-8l-3,1l-5,4h-7l-2,5l-6,2v-7h-5l-2,5l-6-2l1-6l8-14l4-1l4-1l4-2
		l3-2l5-1l3-3l1-4v-5l-6,1l-1,4l-2,2l-5,1l-4,2l-3,2l-2-7l4-1l4-2l1-4l-6-1l1-5l3-2h5v6h5l2-3l5,2v-5l2-4l-5-2l-3,3l-5-1l-5-2h-4
		l3-6l-1-5l5,2l3,6l3-3l3-2l5,4l2-3l1-5l3-2l6,2l-2,4l-3,3l6,4l3-2v-6l3-3l3-2l6,3l-2,4l-4,1l-1,4v5l-3,2l5,6l6,4h4l3-2h4v-6l5,4
		l2-3l4,1v-5l-6-2l-2-6l-4,1l1,5h-5l-1,4l-4,2h-4l1-6l2-3l3-3l2-3l3-3l-6-3v-5l-5-1l-3,1l-1-8l-4,2l-1,5l-4,2l-5-2l2-4l3-2l2-5l1-3
		l-5,1l-4,2l-3,3l-1,5l-2,3h-5l2,6l-4-1l-4,1l-4-1v-6l4-1l3-4h4"/>
	<path fill="none" stroke="#000000" d="M597,926l1-4l3-4l3-3l2-3h4l3-3l-4-6l-3,3h-5l2-6v-5l6,3l-1-6l-4-1v-6l1-3l-5,3l-3,2l-5-2
		l-3,3l-2,4h-5l2-6h-4l-3,4l1,6l3,6l3-3l3-1l5-2l3-3l2-1l1,7l-2,4h-4l-4,2l-4,2l-2,4l1,6l4-3l3-3l4-2l5,1l-2,5l-4,2l-3,3l-3,4l-3,1
		l-3,7l-24-4l-14,5l-2,4l5,2l-5,3h-4l-2,3v5h-4l-4-1v-6l3-2v-5h4l2-4l-7-2l3-3l5,1l2-4l2-2l3-4l-2-5h4l3-3l2-4l2-4l3-3l2-5l3-3l-8,2
		l-3,3l-3,4l-2,5l-4,2l-4-2l-5-2l-3,3l-3,1l-2,4l-5-1l3-5l3-5l3-3l2-1l5,2l5,2l2-2l3-4l-5-2l-5,1l-10-18l-4,3l-5,1l-2,5l-3,4l-8,7v5
		h-4l-4-1l-5-2l-5-1l-1,5l-5-4l-3,3l5,4l-3,3v5l-1,6l5,1l-1,4l-3,4l5,2l4-2l2-4l3-1l3-3l2-4l1-4l-5-2l-2,4l-3,3h-4v-6l3-3l2-5l5,2
		l5,2h5v5v5l-1,4l-3,3l-3,3l-3,4l-2,2l-2,3h-5l-5-2l-2,4l1,6l4-3h5l-1,5l-4,3l-5,4h4l1,5l5-2l1-4l4-1l4-4l-4-1l1-6l4-2l2-4l3-2l2-3
		l3-2l2-4l3-3l2-5l5,2h4l5-2l4-2l3-2l2,6l-4,3l-3,2l-4,1l-4,1l-5-2l-2,4l-3,3l-2,5l-3,2l-2,4l-3,2l-3,3l5,4l-3,3l-3,2v6l-4-2l-2,4
		h-4l-3,3l-5-3l-1,4v8l3-2l4-2l5-2h5l3-2l4,1h4v-5l-4-2l4-3l2-4l-1-6l2-4l4-2l1-4l2-4l3-3l4,1l-1,5l-2,4l-1,4l-1,4h-4l-2,5l5,1h5
		l6,2l-3,3l3,5l4-2l2-4h4v6l-1,4l-4,1h-5l-6-2l3,6h-4h-4h-4h-4h-5l-4,1h-5h-4l-4,2l-4,3l-3,2v7h4l2-3l3-3l4-1h4h4l4-1h4h4h4h4h4h4
		l2-5l5,1l3-2l4-2l1-5l-1-5l2-1l1-4l-7-4l1-4l5,2v-5l4,1l2,5v4l1,5l-1,4l-1,4l-2,4l-3,5l-4,3l-3,2l-4-1l-1,4h-5h-5h-5h-5h-5l-4,1h-5
		l-4,1l-4,1l-1,15l-4,3h-6l-3,2l-4,3h-5h-6l-6-1l-6-2l-4,1l-3,4l-4,5l-1-7v-7l5-4l2-6l6-6v7l-1,6l7,2l5,1l1-6l-6-4l3-5l-1-7l-10-13
		l-3,3l-3,3l-3,3l-4,3l-2,4l-3,3l-3,2l-6,1l1-4l2-4l4-2l2-4l4-2l1-4l3-2l4-2l3-4l5,1l1-4l1-4l-1-5l2-1l1-5v-7l-4,1l-2,4l-3,3l-5,5h5
		l1,6h-4l-3,3l-2,2l-4,1l-3,2l-1,5l-3,2l-3,4l-4,3l-3,2v5v6l-3,2l-2-7l-3,4l-1,4h-5h-5l-5-1l2-5h4h4l2-4l2-3l4-1l1-5l3-2l4-1l3-3
		l1-5l3-2l2-5l5-2l3-3l-1-5l3-3l3-1l1-5l3-2l2-4l1-3l5,2v-5l-3-6l-3,3h-4l-2,4l-1,4l-4,1l-6-3"/>
	<path fill="none" stroke="#000000" d="M432,930l3-3l3-3l1-4l5-2l3-2l2-3l-6-5l-2,3l-3,3l-4,3l-2,4l-3,3h-5l-2,2l5,4l2,6h4l5,2l-4,4
		l-4,1l2,6l-2,4l-4,4l-6,6l-2,4l-5,1l-3,1l-1,5l-3,2l-3-7l-4,2v6l4,1l-2,5l-5-1l-4-1l-1,4l-1,4l-1,4l-7-2l2-3v-5l2-3l1-5h5l1-3v-5
		l-6-2l-1,4l-4,1l-1,5l-1,6l-2,4l-3,2l-5-5l3-2l2-4v-5l1-4l3-3l-6-4l3-3l4-2l1,6l5-1l9-11l6,1l5-1l4-3l3-4l-1-7l-5-1l-3,4l-7-4l2,7
		h-5l-14-2l1-5l1-4l3-3l1-4l4-1l3-3l3,1l4-2l4-1v-5l3-3l3-1l1-4l1-4l5,2v6l-1,4l-5,2l-2,4l6,3l2-3h4h5l2-4l4-3l3-3l3-4l-5-3l-3,3
		l-3,4l-5,4v-5l2-5l3-4l-5-2l-3,3l-2-7l-4,3l-3-5l-3,4l-1,4l-2,4l-3,4l-3,5l-4,2l-5-1l-2,4h-4l-3,1v5l-3,3l-2-6l-4,2l-6,1v-5l3-2
		l3-2l3-1l3-2l4-1l3-2l1-4l6,4l3-2l2-1l2-4l2-4v-5h-6l-1,4l-3,2l-3,3l-4-5l-3,4l-2,4l-5,1h-4l-2,3l-4,3l-4,4l2,7h-5l4,5l-3,2l-4,4
		l-1,5l6-1l3-3l4-2l2-3l4-2l5,4l-2,4l-2,1l-4,2l-3,2l-3,3l-5-1l-3,3l-2,4l2,9l2-4l3-2l1-3h5l3-3l4-2l3-2l4,3l1,6l-5-1l-3,2l-3,3
		l-3,1l-3,3l-3,2l-3,3l1,6l4,3l1-4l2-4l4-3l2,6l-2,4l-1,4l-3,3l-8,12l-4,1h-5v-9l-14-4l-7-1l2-3l5-1l2-3l-1-5l3-1l1-5l-6-1l-3,6
		l-1,4h-4l-3,4l-2,3l-6-1v-5l3-2l3-2l2-4l3-2l3-2l-1-5h-5l-4,1l-1,4l-3,3l-3,2l-2,4h-4l4,6h-5l-5-2v-5l1-4l4-2l3-3l4-2v-5l3-2l1-4
		l3-3l2,6l3-4l2-4l-6-3l5-2l2-1l1-4l1-4l1-4l1-4l1-4l2-4l2-4h-7l2-4l5-1l3-2l11,1l3-5l3-4l5-3h5l3-3l-1-7l-4-1l-4,3l-5,3l-1-9l4-3
		l1-6l6,4l3-4l4-2l4-4l6,2h5l1-7h5l3-4l4-3l6,3l-3,6l-3,5l-2,5l-4-1l-3,4l-7-1l-6-1l-2,5l-4,2l2,8l5-1l4-3l3-2h5h6l4-2h5l1-7l3-5
		l2-5l1-7l7-2v7l-1,6l-1,6l-4,4l-2,5l7,3l3-4l5-2v8l5,1l2-6l6,1h5l3-4l3-4l7,2l4-2l6,1v-6l-7-3l-5,1l-4,2h-8l-3,4l-3,1h-5l-7-3l1-7
		l7-1l6-2h6l4-2h5l7,1l5,2l3-1l6-1l4-2l5-1l4-2l7-1v6l-4,3l-5,2l-4,2h-6l-3,4l8,3l-2,4l-5,1l-7,1l-3,4l-6-1h-5l-1,5l-5,2h-9l4,1l6,6
		l7,5l-1-7l5-4l5-1l7-1l4-1h5l3-1l6,3l5-1l6-1l5-2l4-3l2-5h6v-7h-6l-5-1l-2,5l-3,3l-4,2l-4,2h-6v-7l4-2l4-2l4-3l3-6h5l4,1l-5-10"/>
	<path fill="none" stroke="#000000" d="M506,846h-5l-1-8l-5,2h-5l-4,1l-6,1l-6,1l-4,3l-6-1h-7h-5l-6-1l-5,2h-5l-4,2l-6,2l-1-8l3-4
		l6-1h5l3-4l6,3l6,1h6l7-1l5-1h6l4-3h5h6l3-3l-6-10l-2,5l-3,1l-6-1l-4-1l-2,4h-5h-5l-3,3l-6-1l-8-2l1-6l2-3l6,2l5-1h5l4-3l4-2l6,2
		l5-1l-2-8h-8l1-5l1-6l-6-6l-2,5l-2,4l-4,4l6,4l-5,3l-5,1l-5,1l-6-2h-5l-1,7l-2,5l-3,3l-4,2l-5,2l-5,1l-4,2l1,7l-7,1h-5l-5-1l-6-4
		l6-4l4-2l5,4v-6l3-4l5-2l6-1l3-2l4-2l2-4l2-4l3-6l7,1l6,1l4-1l-1-7l5-1l1-6l2-3l4-4l-5-9l-2,5l-6-2l1,7l-2,5l-4,5l-3,3h-6l-6-2
		l-2,6l-4,3l-2,5l-5,1l-2,5h-5l-5,3l-4,3l-5,2l-4,6h-6l-4,1l-2,5l8,4l-5,4h-5l-2,6l-5,1l-6-1l-3,5l-4,3l-3,1l-6-3l-1,7l-4,2l-1,6h-5
		l-6-2l-6-2l-5-2l1-7l2-5l2-4l2-4l8,1l-2,4l-2,6l-3,5l7,2l3-5l3-3l1-6l5-2l6,1l3-2l3-5l1-5l7,6l4-3l1-7h-8l-1-7l4-2l5,2l3-4h6l6,2
		l2-4l5-3l3-3l5-1v-6l6,2l-1-7l6,3l3-2l3-5l4-3v-7l6,2l6,2l3-4l3-1l2-4l-1-7l-6-1l-3,3l-2,5l-6-2l2-9l2-10l6-1l-1,6l6,2l7,3l3-1
		l-1-7l-7-1v-6l-1-6l-5,4l-6-2l3-6l1-5l-4-7l-6-6l-1-6l-4,6l1,8l6,1l1,7l-3,4l-12,2l-6-2v6l-5,3l-2,8l2-3l6-2l6-2l1,6l-1,5l-6-2
		l-2,5l1,6l6-4v6l-2,5l-3,3l-3,2l-6,8l-3-1l-1,5l-3,2l-4,1v7l-6,2h-6h-6l-4,1l-5,1l-4,4v7l-4,3l-1,6l-5,2l-1-11l-4,3l-3,3l1,7l-7-4
		l-3,2l-7-2l-3,5l-2,5l-3,3l-6-2v6l7,3l-2,6l-6-2l-4-1h-5l-4,3l-6-7l4-3l4-2h5l1-6l3-5l6,1l1-6l3-4l2-4l6,2l6-1l3-3l5-3l6-2l5,1l2-5
		l3-3l5-4l5-2l6,1h6l5-1l1-4l2-3l2-2l3,1l-3-8l-3,1l-2,3l-3,1v4l-3,2l-5-1l-4-2l-4-2l1-4l-5-1l1-3l4-1l1-3h4l1-4l-5-1h-4l-1,4l-4,1
		v-5v-5h4l4,1l-1-5l-5-4h5h4l4-3l2-3l4-2l4-1l4-3l1-4l6,1l-1,4l-2,4l-4,1l-3,3l-4,1l-3,2l-4,1l1,4h-4v4l4,1l4-1h4h4l-4,5h-4l-1,3
		l-2,3l-3,3l-2,2l1,4l5,1v-4l3-2l2-2l2-3h4v-4l3,1l2-3l1-3v-4l-2-5l5-6l3-3v-5l4-2l2-3l2-6l2-2l-7,2l-5-1l1,5l-5-2l-2,1h-4l-3,4
		l-3,3l-4-1l-2,3l-4,1l-2,3l-3,3l-5-1l3-4l-4-1v-5l6,3v-4v-4l1-4v-6l5,2l1-3l3-3l5-4h4l3-2l3,1l2-4h5l-2,5v4h-5l-3,2h-4l-4,1l-2,3
		l-1,4"/>
	<path fill="none" stroke="#000000" d="M378,739h-5l-1,5v4l4-4h4l3-3l2-4l3-1h5l4-2h5l3-3l2-6l5-2v-7l-8-2l-5-1l-6-1l-5,4h-5l-9-6
		l6-4l6,2l4-3h5l6,1l6,4l3-4l3-6l2-6l-8-4l-1,7l-5,2l-7-3l-3,1l-6-1l-3,2l-7-3l4-10l6,1l7,1l6,3l2-5l2-5l8,5l2-3l1-6h-4h-4l1-5l3-1
		h4l2-4l1-4l1-4l2-3v-4l4-2l4-2l6-1l2-5l4,1l5-3l3-4l4-2l5-1l5-2l4-2l3-4l4-3l-1-9l4-5v-8l3-2l3-2l3-2l3-1l4-2l4-1l3-1l6,2v-6h4l2-4
		l-5-1v-4h4l4,1v-4l2-3l2-3l2-3l1-4l8,6l5,7l-9,1l-4,4l1,8l-3,5l-4,4l-5,5l-8-1l-4,2l-2,5l-4,4l-3,6l-7,7l-1,11l7,2l-2,6l7,8l1-6
		l3-3l8,5l-3,4l-2,6l-10,12l7,2l3-4l8,1l2-5l2-8l2-6l5-7l3-6l3-4l4-4l5-2l-5-8l-7,2v-6l3-5l-11,1l4-6l5-3l4-3l1-6l1-7l3-4l5,2l1,7
		l-3,4l10,5l-4,3l-7-1l-2,6v6l7-3h6l8,4l-2,10l-3,9l-2,5h-5l-6,1l-4,3l-3,3l-2,5l-7,2l1,7l-4,4v7l-2,5l8,2l-3,6l4,1l5-4l2-5l-7-4
		l2-5l7-9l3-5l3-4l3-4l3,12l2-4l2-5l4-2l3-5l2,10l2,8l-5-3l-2,4l-2,5l-2,4l-6,5l-2,4l-4,2l-1,6l-4,3l-4,3l5,7l4-3l4-3l2-4l3-4l7-7
		l3-5l2-5l5-1l1,7l-2,6l-3,3h8l2,8l-5-1l-6,1l-6,1l-3,4l-2,4l-4,3l-4,2l5,6l5-1l4-2l4,1h5l-6-8l6,1l3-5l6,2l-4,6l6,2l-4,5l-3,5l-4,2
		l-4-1l-5,1l-3,1l7,8l4-1l7,1l3-3l2-5l3-4l3,10v7l-3,1l-7,2h-5l6,8l5-4l7,1v6l-6,1l4,8l6-1l1,8l58,87l7,1l4-2l3-3l3,5l-4,3l-3,3
		l-3,1l-4-2l-3,3l-3,1l2,7l3-2l4-3l1,5l-3,4l5,3l3-2v-6l1-3l3-3l2-3l4-3l1,5l-1,5l-3,2l-1,4l-3,3l12,8l-3,4l6,2l2-4v-5l4-2l2,5l-1,4
		l6,1l-1,4l-3,3l-4-4l-1,5l-5,2v-5h-5l-3-1l-5,1l5,4l-2,4l7-1l-1,4l-1,4l4,6l2-3l2-2v-4l2-3h4h4l2-3l2-4l5,2l-1,4l-2,4l-1,4l-3,4
		l-2-6l-4,1l1,5l-3,2l-2,3l-3,2l4,5l4-2l2-3l3-1h4l2-4l3-3v-5l3-2l3,6l-1,4l-2,3l-3,3l-3,4l-2,2h-4l-4,2l-4,2l5,5l3-2l3-2l5-1l3-4
		l3-3h4l1-4l1-4l4,7v4l-3,4l-3-1l-3,2l-2,3l-4,2l-3,2l-4,2l-3,2l5,5l3-2l3-1l3-2l3-2l3-2l3-2l4-2l2-3l3-2l48-29l-2-7l4-2l-9-6l5-2
		l2-4l1-6h-7l-3,4l-5-8l3-3h6h5v-6l1-6l-8,3l-4,2h-6l-4-8h5l5-2l5,2l1-6l5,2l1-6l-6-4h-5l-3,4l-5,2h-5l-5-8h5l5-1l2-5h5"/>
	<path fill="none" stroke="#000000" d="M755,825l4-2l6,6l2-4l-1-7l1-6v-8l-5,3l-3,4v6l-6-1l-6,1l-4,3l-2,3h-5l-5-8l4-1l4-2l4-3l4,1
		l5-1l2-5l5-4l5-3l4-2l-10-2l3-5l5-2v-6l1-6v-8l-5,3l-3,4v7l-4-1l-1,6l-3,5l2,7l-5,2l-4,2l-5-1l-4,4l-4-1l-3,3l-4-10l7-1l4-3h5h5
		l-1-7l4-3l-7-4l-4,6l-6-1l-3,4l-4,3l-6-5l3-4l3-3l4-3l6,2v-6h5l4-3l4,7l3-4l2-3l4-3l4-4l6-2v-6v-6v-6l-1-6l2-3l-1-7l-6-1l-3,3l-4,3
		l-5-1l-1,6l-2,5l-4,3l-2,5l-1,5l7-1l3-4l4-4l1-6l6-3v6v6v7l-4-1l-3,4l-4,3l-4,2l-6-2l-3,3h-5l-3,5l-5-3l-2,5l-4,4l-6-6l3-2l2-5l2-5
		l6,2l4-3l4-2v-6l2-5l2-5l4-3l2-5v-6l5-2h5l4-4h6l6,2l-1-7l1-6l1-7h-5l-3,5l-1,5l-4,1h-5l-4,3l-5,1l-5,1l-2,5v6l-3,4h-5l1,6l-3,3
		l1,7l-5,4l-2-7l-4,5l-4,3l-1,6l-6-8l2-5l4-3l2-3l7-1l1-7h-6l-4,1h-6l-2,5l-3,2l-3-11l3-4l4,1l4-2l6,1h5l5-1h5l-1-7l3-3l2-5h5l6-1
		l2-5l4,1l4-2l4-4l3-5l2-4l5,3l1-6l-1-7v-6l-5,7l-4,1l-4,3l-1,5l-2,5h-5h-5l-3,4l-2,4l-5-1l-5,1l-2,5l-4,2l1,7l-7-4v5h-6l-6-1h-5
		l-6,3v-6l3-5h6l6,2l2-5h5l4-4l3-4l3-4h6l4-3l2-5l4,1h6l2-5l3-5l4-3l7-1l-1-7l-6,2l-5-2l-4,2l-1,6l-3,6l-7-2l1-6l2-3l2-5l3-5l4-2
		l7,4v-6l-8-5l-5-4l-2,5l-3,5l-3,5l-6-2l2-6l3-5l2-6l1-6l-6-2l-2,6l-3,4l-1,6l-1,8l-6,1l-3,4l-5,1l-1,6l-4,3l-4,2l1,7l-4,3l-4-1v7
		l6,2l5-2l4-2l-1-7l4-2l3-3l6,1l3-3l-8-5l6-2l3-3l7,2l-2,5l1,7l-1,5l-3,3l-6-2l-2,4l-3,1l-1,5l-4,3l-5,1l-4,3l-6-4l-2,4l-4,5l-3-7
		v-6l2-4l-8,1v-7l4-2l2-3l2-5l5,2l1-6l4-4l5-3l-1-7h6l3-4l5-1l2-5v-7l4-3l1-5l3-6l-6-2l-5,3l-1,5l-2,6l-1,6l-5,2l-4,4l-5,1l-4,2
		l-4,3l7,4l-5,4l-4-1l-2,4l-5,2l-1,5l-4,3l-3-8l1-5l5-2l2-5l3-4l2-6l5-2v-6l6,3h4v-7l5,3l1-6l1-5l-7-1l-3,1h-5v6l-7-3l-1,8l-4-1
		l-2,6l-2,5l-3,3l-1,5l-6,2v-7l-5-8h5l4-3l2-6l3-6l4-3l5-3l5-4l-1-8l7-1v7l7,3l7,1l4-2l2-4l-9-4l-4,2l3-9l-7-1l-2-8l-4,6l-3,2l-5-1
		l-2,7l-1,6l-5,2l-6,4l-3,6l-3,5l-4,3l-6-4l3-6l4-3l4-4l5-4l4-7l-6-1l-6,3l-5,4l-4,1l-2,6l-5-10l1-6l8,1l5-3l4-4h5l7,3v-7l4-2h8v-6
		h-7l-2-7l-5,4"/>
	<path fill="none" stroke="#000000" d="M671,578l-4,3l-3,4l-8-2l-2,6l-5,3l-3,2l-8-2l1-6l4-3l4-1l3-6l7,1l3-3l4-3l4-2l2-4l-8-8l-2,5
		l-5,3l-4,3l-5-1l-3,5l-3,1l-4,3l-4,4l-3-10l2-5l6-3l4-4h6l6-2l1-5l-6-7l-2,6l-5-3l-4,2l-4,4l-3,5l-6,1l-1-8l3-4l3-4l3-4h8l1-5l-9-1
		l1-5h-8l-2,5l-2,5l-4,5l-2-8v-7l-7-4l3-5l7,4l7-2l-7-5l2-4l-8-6l-1,6h-7v-7l1-5l-7-4l2-5l-7-6l-43-38l-4,5l-4,5l-3,3l-2,1l-5,1h-4
		h-5l-3,2l-5,2h-5l5-5l5-5l4-3l5,1v-7h5l4-2l3-4l-8-3l3-4l7,1h6l1-8l2-7l-10,3l-5,2l-5,1l-3,5l-2,4h-7l7,5l-4,2l-2,3l-4,3l-2-6l-3,4
		l1,6h-4l-1,5l-4,2l-1,5l-8-7l-2,4l-5,1l-3,4l-6-2l-2,2l-7-1l2-4l2-5l1-4l3-4l-5-2l4-3l4-2l5-2l3-2l2-3l1-5l2-6l4-2l3,1l2-4l3-3l4-2
		l6,2l-2,3l-4,2l-3,3l-1,5h-6l-3,1l2,6l-3,3l-2,5l-3,3l-5-1l-2,4l-2,4l-2,6l2-1l6-2l2-4h5l3-3l2-4l2-4l2-4l2-4l6-1l2-5l4-2l4-3v-5
		l5,1l3-3l5-1l3-4l4,7l2-3l1-4h5l7-1l7,4l2-9l6,4l7,4l6,6l6,4l6,5l5,4l5,5l6,4l5,5l7,6l6,4l3-4h4l-2,8l5,4l5,4l5-3l4-2l3-2l10,1l3-1
		v-6v-6l3-4l4-2l4-1h5h4l2-1l5,7l-1,5h-7h-4l-2,3l-4,1l4,4l4-1l3-1l5,1l-6,7l-5,2l-7,1l-5-2l-15,12l-6,3l-6-2l4,8l-3,5l17,16l1-9
		l4-5l9-5l-2,7l-4,6l7,2l-2,6l14,1l10-3l3,9l-5-3l-3,4l-4,3l6,6l2,8l5,9l5,13l17-14l5,7l5,8l7,8l11,16l-6-9l-5-13l-7-9l-1-7l7-3l3-2
		l-2-8l-5-1l-2,5l-5-9v-6l-5-2l-1-8h-5l-4-9l-7-6l-14,3l-4-10l11-4l19-21l9,5l7,4l5-7l6-2l-13-23l-4,2l-5-1h-5l4-9l2-4l-9,1l-21,3
		l3-4l3-5l2-6l-1-7l4-1l-4-17l-6,17l-11,2l-1,6l-1,6l-8,2l-2,3l-5,1l-3,2l-3,5l-5-4l-5,8l6-1l-1,4l-3,4v5l-9-6l-2-7l-5,1l-5-6l2-6
		l6,2l5,1l3-2l-1-6h-5h-4l-6-1l2-5l5-1h5l6-5l3,6l4,6l3-3l10-2l2-4l-3-7l6-3l-5-1l-3-7l-5-2l-7-3l-7-5l-7-4l-6-4l-6-4l-6-3l-8-5l2-3
		l2-8l-11,7l-6-4l-5-4l6-2l4-2l2-3l2-2l4-1l5,1l3-2l-4-9l-3,3l-4,1h-5l-3,3l-2,4l-5,1v-5l3-3l-1-6l4,1l5-2l-5-4l6-1l6-1l6,4l1-6l3-4
		l5-3l5,1l-2-7l2-4l6,1v6l1,9l6-2l5,1l-4,6l7,4l4-3l1-6l3-1h6l1-8l2-5l2-5v-7l7,4l1,7l-3,5l-1,6l-3,5l2,8l-7-2l-4,3l-4,5l7,3l6-3v8
		l7,4v-6l2-5l4-2l6,2l2-6l5-2l10-1l-3,4l-3,6"/>
	<path fill="none" stroke="#000000" d="M710,340l-3,3l-2,6l-6-2l-4,2l-1,6l6,4l4-3l4,8l3-5l2-6l3-3l1-7l4-4l2-4l1-5l6,3l4-2l1-6l4,1
		l4-3l5-1l3-3l1-6l2-3l6,2l1,7l-4,3l-3,6l-6,2l-3,3l-4,2l-3,4l-1,5l-6-4l-2,4l-5,3l-1,6l-1,6l-4,4l-3,4l8,4l2-4l3-5l2-5l1-5h5h5l4-3
		v-6l5-1l3-2l2-5l6,4l-1,6l-4,4l-4,2l-3,6l-5,2h-6l-2,5l-3,4l-2,6l6,3l3-4l3-4l3-3l6-2l3-5l6,2l-2,5l-2,6h-5l-5,5l-3,4l7,4l2-6l8,1
		l-2,3l-2,5l7,4l3-3l1-6l-4-8l3-1v-7v-7l-6-6l5-1l1-5l-1-7l1-5l-7-6l5-1l2-3v-7v-7l-6-6l5-1l1-5v-7v-7l-4-1l-3,5l1,7l-5,2l-3,4h-7
		l-2,4v6l-4,2l-5,2l-6-4l-2,4l1,7l-5-1l-5,1l-6-2l-4,2l-6-3l-4,4l-5,4l-6-1l4-7l2-6l3-4l5,2l5,1l2-5l5-1l1,8l5-1l2-5l2-5l3-1l5-2
		l2,7l5-3l-1-7l3-3l6,1l3-3l4-3v-6l3-3l-1-7l6,1l6,2l2-9l-4,2l-6-3h-5l-7,1l2,7l-3,4v6l-5,3l-6-1l-4,3l-2,4l-5,1l-6-2l-2,4l-1,5
		l-6-2h-6l-4,2l-8-1l2-5l4-3h6l4-1l3-3v-6h-7l-5,2l-6,1l-4,3l-4,2l-6-3l-6,3l-1,6l-2,6l-1,6l-2,3l-7-5l-1,6l-6-2l-1-8l3-5l5,2l3-4
		l2-5v-7l6-1l7-3l7,1l4-3l4,1l5-2l5-1h6l6,1l3-5l3-5l6-2l1-6l7,3l-1,5v7l-6-2l-3,4l-4,4l-4,5l6,2l5-4l5-3l7,1v-6l2-5v-6l6-2l4-3h5
		l6,2l4-2l1-6l-7-1h-5l7-6h5v-7v-6l-6,4l-4,2l-3,5l-5,1l-1,6l-5,3l-4,3l-6-2l-6-2h-6l-2,6l-6-1l-1,6l-2,5h-7l1-6l2-5l1-7l6-1l1-6
		l5,1h5l6,2l6,2l5-2l2-5v-7l6,2l2-4l4-3l5-1l5-3l2-3l-1-7v-6l1-5l-1-7v-6v-6l1-5l-1-7l-6,1l-1,5v6v6l1,7l-1,5v6l-6,1l-2,5h8l-1,6h-7
		l-4,3l-5,3l-5,3l-1,6l-2,4l-6-2l-6-2l-7-2l-5-1l-3,3l-1,6l-6-2l-6,2l6,3v6l-2,5l-1,6l-1,6h-5l-3,1h-6l-4,3l-6-2l-3,5l-6-1l-3,1
		l-4,3v6l-2,4l-6-2l-1,7l-3,5h-7l-4,1l-2,4l-1,5l-2,4l-5,1h-7l-3,3l-3,3l-4,2h-6l-3,6l-3,4l-2,5l-7,1l-5,3v5l-5,1l-2,4l5,5l3-4l5-6
		l4,1l5-1v6l-5,4l-5,4l6,4l6,4l5,3l7,1l-2,4l7,3l6,6l6,2l7,5l7,5l5,2l4,6l-7,4l-5,2l-5,2l-1,4l-3,1l4,7l-5-2l-6-4v-5l2-3l3-3l5-1
		l5-2l-6-4h-4l-6-4v5l-2,4l-4,2l1,6l-5-4l-6-4l4-3l4-2l3-3v-7h-4l-3,3l-3,2l-3,4l-5,1l-6-6l4-1l4-1l1-4l4-2l-4-6l-4,2l-3-7l-3,3
		l-2,4l5,4l-6,1l-3,3l-5,6"/>
	<path fill="none" stroke="#000000" d="M579,398l-2,3h-6l-2-7l-4,2l-4,3l-7,1l-7,1v-6l-7-2l1,7l-3,2l-7-1l-1,7l-4,2l-4,1l-7-3l-5-1
		l-5-2l-3,2l-2,4l-4,3h-5l-2,3v6l-3,3l-2,1l-2,4l-4,3l-4-1v5l-3,2l-4,3l-4,1l-5,1h-4l2-6l4-1l5-2l3-3l1-4l1-4l3-3l3,6l3-3l-1-6l4-1
		l1-5l-1-6h5h5l3-2v-6l5-1l4-1l-2-6h4l3-5v-5l2-4l4-5l5-1l2-6l2-5l6,1l3-4l4,1l-1,4l-1,5l6-1l-2,3v5l-5-2l-6,3l-2,6l-6-1l-4,4l5,3h5
		l-7,6l-4-2l-4,2l-2,5l6,2h4h5l1-5h5l3-1l1-5l4-2l2-7l8,1l2-5l5,2l-2,6l-3,5l5,4l4-2v-6l5,1l2-9l4-2l5,3l-3,4l6,4l3-2l1-4l2-4l1-4
		l-6-2l-3,3l-3-6l-4,2l-5,1l-4,2l-6-4l3-3l6-1l4-2l3-3l-7-4l-3,2l-3,3l-5-3l-2,4l-3,2l-5-2l1-5l3-2l4-3l1-4l-6,2l-5,1l-3,3l-5-4l3-2
		l4-2l3-2l4,1l5-2l4-1l3-1l2-6l-3,1l-5-1l-2,2l-3,2h-4l-4-1l4-5l2-3l-6-1l-3,3l-3,3l2,5l-3,2l-4,1l-2,4v4l-2,3l-5,1v-5l1-4l1-4l3-3
		l4-2l-1-5l-4,1l-4,3l-2,4l-3,2v4l-2,3l-5,1l-4,1l-4-3l-3,3l-2,5l-3,3l-6,2l-3,2l-5-2l1-5l3-2h4l4-3l2-4l3-3l2-3v-5l2-4l4,2l4,1
		l-4,4v5l5,1l2-4l2-6l3-3l4-2l4-3l4-1l5,4l1-4l3-1l4-1l1-3l3-4l4-1h4v-6l6,1l2-5l4-3l4-1l4-2h5l-2,6l-2,4h-5l-4,3l-1,5h-5l-1,5h-5
		h-4l-1,4l5,2h4h4l3-3l3-1l4-2v-6h5v6l6,2l-3,5h-5l-5,2l-3,2l2,5l-3,2v5l5,3v-5l4-1v-5l5-2l6-2l3-1l1-5l4-2v-6l4-3l5-1l5,1l3-3l4-3
		l4-1l-9-2l3-4h5l4-2l-2-7l-4,3h-4l-4,1l-3,3l-2,5h-5l-2,2l-6-2l2,6l-4,3l-1,5l-5-2v-6l1-5l2-1l-1-7l2-3l5,4l4-1h4l1-5l3-3l-1-6l3-1
		l3-4h4l-2,6l-2,5h5l3-3l3-2l4-6l3-3l5-3l2-4l1-5l2-4l5-1l6,1v7l-5,2l-2,5l-2,7l-5,1l-5,3l6,5l5,2l4-2l1-7l4-5l4-2l2-7l3-4h5l6,2
		l3-5l6,1l6-1l4-2h5l3-4l1-7l-7,1l-4,2l-5,1l-6,1h-5l-5,3l-6-1l-8,1l2-5l5-3h5l4-3l6,1l2-5l5,3l4-2l6,1l3-4l2-6l2-3l6,3l3-4l1-6
		l-8,1l1-5l4-4l3-3l6-1l3-1l5-4h5h5l3-2l2-4l2-4l3-5l5,2l-1,6l-2,5l-2,5l-2,5l-3,1l-7-2h-6v7l-5-1h-5l-1,6l7,2l6,1l6,3l4-2l-6-7l4-1
		l6,1l6-2l3-4l1-6l2-5l6-3l-5-3l5-5l-6-3l5-4v-6v-6v-6l5-2l4-2l6,3v-7l-7-3l3-5l4,1"/>
	<path fill="none" stroke="#000000" d="M767,156l1-7l-5-2l-6-1l-1,6l-3,3v6l-4,2l-3,5l-1,6v6v6h-5l-5-1l-5,4l-3,3l-3,5l-4,2l-4,1
		l-6-2v6l-6-2l-2,4l-4,1l-4,3l-3,3l-2,5l-1,6l-3,5l-2,5l-3,3l-6-1l-7-1l-3,5l-5-1l-4,3l-6,1l-4,3l-6,3l-3,3l-5,2l-4,4l2-11l3-4l6-1
		l4-4l6-2l3-2l5-3h5l6-2h6l4-2l2-5l3-4v-6l2-4l3-4l3-3l5-3l3-4h5l6-3h6l5-2l2-5l6-2l-1-7l5,2h5l1-5l1-6l3-6l2-5l2-3l2-6l2-4v-6l6,2
		l5,1l6,1l-1-7l1-5l-7,4l-6-3h-5l-5,5l-2,6l-2,5l-3,5l-2,3v6l-3,5l-2,4l-5-1l-7-5l5-3l5-3l1-6l-6-3l-2,5l-5,2l-5,1l1,7l-4,3l-4,3h-5
		l-2,5h-5l-5-2l-4,2l-4,2l-1,6l-5,2l-4,3l-3,6l6,2l4-3l5-2l3-4l3-4l5-2l7,1l5-3l4-1l4-3l3-3h5l1,7l-5,4l-4,3h-6l-5,3l-7-1l-3,4l-3,4
		l-6,2l-3,4l-3,4l-5-3l-6-2l-2,6h-6l-2,6l6,2l5-1l3-6l7,6l-3,3l-2,5l-4,2l-6-2l-2,3h-5l-5,3h-5l-3,5l-5,1l-5,3h-5l3-8l7-3l2-5l4-1h5
		l5-3l-7-5l3-4l3-4l1-6l6,2l1-6l1-6l3-3l1-6l5-1l3-2l1-6l4-2l3-2l5-1l7,1l2-5l6,1l4-3v-6l3-4l3-1h5l2-5l5-1l7,3l4-1l3-5l1-6l5-4l1-6
		l5-1l4-6l8-1l-2,4l-4,5l6,2l6-3l1-5l-1-7l-5-2l5-4l1-5l-2-7l2-3l-7,4l-1,6l-4-1v7l-3,3l-5,4l-4,2l-5,1l-3,3l-5-2v7l6,2l-6,4l-1,6
		h-5l-6-2l4-6l2-5v-7l-6-2l-1,6l-2,5l-2,6l-2,4l-2,5h-7l-3,6l-4,1l2,7h-5l-5,2l-2,3l-6-2l-4,1l-6-2v-7h7l4-1h5l3-3l1-6l1-5h-8l-1,5
		l-5,1l-4-1l-3,4l-7-2l1,8l-4,2l-3,4l-5,4l-5,1l-3,6l-3,6l-1,6l7,3l1-6l3-5l4-2l4-5l6-2l5,1l-3,6l-5,3l-3,6l-4,3v7l-3,4l-5-2l-1,6
		l-2,4l-2,5l-4,1l2,7h-6l-2,5l-3,5l-6,4l-2,3l-7-6l2-6h5l4-4l1-7l4-3l1-6l5-2l2-5l2-5l-8-3l-3,6l-5,6l-3,3l-2,7l-2,4h-5l-3,6l-7-4
		h-6l-2,4h-4v-6v-5l4,1l3-3l3-2l3-2l2-4l3-1l3-3l2-3l3-3l4-2l2-5l1-4l-5,1l-4,2l-3,2l-3,3l-3,4l-3,2l-3,4l-2-6l-4,3l-3,3l6,3l-3,3
		l-4,1l-4,2v5l-1,3l1,5l-3,2l-4-1l-2,3l-3,3l-2,3h-4l-1,4l-2,1l-3,2l-3,3l-4,1l-2,4l4,2l-3,3l-5-2l-2,1l-2,3l-3,1l-3,3l5,2l-2,4
		l-5-2v4v5l-3,2l-3,2l-3,3l-1,5l4,1l3-3l3-1l3-2l3,5l3-2l3-1l5-3l3-2l-1-5l-4,1l-3,3l-2,1h-5v-5l4-2l2-3l3-1l-2-5l2-3l4,5l2-4l3-2
		l4-1l2-4l-5-2l3-3l3-2l4-1l2-3"/>
	<path fill="none" stroke="#000000" d="M571,227l2-1l3-3l2-3l3-3h5l4,2h4l-1,7l6,2v5l-2,4l-2,4l-3,3l-6-1l-3,3l-2,2l-2,4l-3,1l-4,1
		l-3,3l-2-5l4-3l4-3l1-5l4-2l2-3l2-4l3,6l3-3l2-4l-5-2l1-6h-4l-3,3l-2,3l-3,3l-2,3h-5l1,5l-1,3l-2,4h-5v5l-4-1l-4,3l5,2l5,1l4,5h-5
		l-3,1l-1,4l-3,3h-4l-2,4l-2,2l-2,2l-2,1l-2,3l-5,1l1-5v-5l-4,1l-1,5l-4-2l-3,2l-2,3l-2,4l-2,3l-3,3l-2,3v5l5-1l2-4l3-3l2-4l2-3l3-2
		l2,6h4l3-1l4-1l3-2l3-3l3-2l2-3l2-1l3-2l2-3l2-3l4-1v5l5,1l4-1l5-1l4-1l4-2l3-4l6,2l3-2l3-4l5,1v-5l1-5l2-4l-5-2l-3,4l-2,4l-3,4
		l-6-1h-4l-3,4l-3,4l-3-1l-3,3l-5,1v-5l3-3l6-2l3-4l3-4l5,1l4-2l3-3l2-4l2-3v-5l1-3h4l1,6l-1,4l6-1v5l5,2l-2,5l-1,4l-1,4l-1,5l7,3
		l-7,2l-2,4l-3-6l-4,3l-3,3h-4l-2,4l-5,1l-4,1l5,8l-4,3h-5h-4h-4l-2,3l-4,1l-3-1l-3,3h-4l-3,3l-4,1l-3,3l-6,4h-5l-3,2l-1,4l-3,3
		l-5,1l-3,2h-6l-3,3l-4,2l-4,4l-5-1l4-5l1-5l3-1l3-3h4l4-1l5-1l4-3l1-6l2-3l4,1l5,1l3-1l3-3l3-3h4l4-3l2-1l3-3h5l2-3h4l4-1l5-1l-2-6
		l-4,2h-5h-4l-4-1v5l-3-1l-3,2l-3,2l-3,3l-2,1l-5,3l-3,2l-3,1h-4l-5-3l-2,3l-3,3l-1,3l-2,4l-4,1h-5h-5l-3,3h-4l-1,4v5l-2,3l-3,3h-4
		l1-7l2-4l-2-6l3-2l3-4h5l4-2l1-4v-5l3-3l3-3l3-4l1-4l2-3l-6-3l3-3l2-3l2-4l2-3l3-2l2-1v-5l2-4l2-4v-4h4l1-4l2-1h5l2-4l4-2l3-2l3-3
		l1-4l3-2v-4l5,3l2-3l3-2l1-4h4v-4l2-3l-1-5v-6l5,3v-6l2-5h5v-5l6-2v5l5-1l2-4l-4-3l5-2l3,1l4-2l5-2l3-2l4-1l2,6l4-4l7-3l3-5l2-6
		l1-6l6,5l2-5l4-3l1-6l8-2l3-4l7,1l2-4l4-2l5,3l4-2l1-6l4-2l1-6l6-1l1,7l-1,5l-4,3l-1,5l1,7l6-4l3-3l2-7l1-5l2-3l2-5l6-4l5,1l5,1
		l4-2l4,1l4-2l5-1l2-5l2-4l3-6l5-4l4-3h6v-7h-7l1-6l4-1l2-3v-7v-7l-6,1l-1,6l-4,2l-2,5v6l-1,6l-2,5l-5,4l-4,3l-2,6l-3,2h-5l-5-1
		l-3,3l-6-2l-4,1l-3,5l-6,4l-1-7l-5,3l-6,1l-1-7l5-2l4-3l6,3l1-6h5l6,1l5-2h5l6-1l3-5l3-4l4-1l2-6v-6l-6,4l-6-6l5-2l5-3l4-1l3-5l2-3
		l1-6l6,2l5-1l1-5l-8-2l2-5h5l1-5l-1-7l-5,1l-4,3l-3,5l-6-2l-2,4l7,5l-5,3l-2,4l-1,6h-5"/>
	<path fill="none" stroke="#000000" d="M740,48l-2,4l-4,2l-5-1v7l-3,1l-4,2l-6-1l-3,1l-5,1l-7,2l2-5l2-6l4-2l8,1l4-3l3-5l5-1l4-2
		l5-3l2-5l1-5l-7-1l-2,5l-4,2l-6,2l-4,5l-4,2l-3,4l-9-3l4-4l2-5l4-1l4-2l4-3l4-3l3-2l3-5h6l4-1l3-2l7,2l2-5l4-2l4-2l6,2l1-5V2l-7,2
		h-6l-6-2v5l-3,5l-4-8l-3,3l-4,2l-4,3l-3,1l-4,4l-4,2l-3,4l-4,3l-5,1l-4,2l-3,4l-1,5l-3,5l-5-2l-2,6l-5,4l-3,3l-5-3l-2,4l-4,2l-3,3
		l-6-3l-2,5l-2,4l-4,6l-2,5l-1,6l-3,6l-6-2l-5-2l-2,7l-3,4l-3,2l-6,3l-2,5l-3,4l-7,4l-3,3l-1,5l-4,3l-3,4l-4,3l-2,5l-4,5l5,1l5-2
		l2-4h4v-6l4-2l2-5l4-3l9-5l3-5l3-5l6-1l3-5l3-5l6,2l5-5l5-3v-7l2-6l4-2l3-5l4,1l3-4l4-3h5l4-2l2-7l6-3l4,1l-3,6l-2,5l-2,4l-6,3
		l-5,1l-3,4l-2,5l-4-1l-5,4l-2,5l7-2l6,2l5-3l2-5l4-2l4-4l6,2l2-4l7,2l3-2l5-1h6l4,1l5-3l4,1l-2,7l-4,3l-6-1h-6l-4,2l-7-1l-4,5l-5-2
		l-4,3l-3,3l-5,3l-5,4l-6-2l-3,3l-5,1h-5l-6,2l-3,6l-5-1l-3,4l-7,4l-3,4l-3,4v6l8-1l4-2v-8l7,2l3-5l6,3l1-7l4-2h6l4-2l5,3l1-6l6-3
		l2,7l-3,4l-3,6l-5-1l-5,1l-3,2l-3,3l-8,1l-3,5l-6-1l-2,7l-4,3l-6-2l-3,6l-8,2l-3,4l-4,3l7,3l-2,4l-6-2l-5,2l-3,4h-5l-3-1l-3,4l-5,2
		l-4,3h-6l-3,3l-3,3l-2,4l-3,1l-2,5h-5l1,7l6,1v5l-3,2l-3,3l-1,4l-4,1l-5,1l-1,3l-2,3l-1,4l-3,2l-3,2l-3,3l-3,2l-4-2l-3,2l-1,4l-4,2
		v5l-2,1l-4-4l-3,2l-2,3l-5-2l1-4l3-2l2-3l3-3l2,5l4-3l1-4l2-3l3-2l2-3l4,5l1-4l4-1l3-2l2-4l1-4l3-3l1-3l5,2l3-3l1-5l-5-1l-3,3l-5-4
		l2-5l2-4l5,3v-6l4-3l2-3l3-4l4-3l3-4l3-3l6,2l3-2l5-2l3-2l4-4l6,2l2-4h5l1-6l4-2l1-4l1-6l-5-1l-2,4l-3,3l-1,6h-5l-4,3l-6,2h-5l-3,3
		l-5,1h-5l-6-1l-1,7l-4,4l-3,3l-4,4l-2,3l-2,4l-4-2l-1,5l-2,4l-2,4l-5-4l-2,4l-3,2l-3,3l-1,4l-3,3l-3,2l-3,2l-5-1h-4l-3,2l-1,4v5
		l-4-1l-3,3l-5,1h-4v5l-1,3v5h-4l-3,3l-3,3l-3,5l-2,4l-5-1h-4v-6h5l3-3l1-4l3-2l2-3l3-2l1-4l2-4l4-5l5,1l3-3l3-3l1-4l1-4h4l4-1l4,2
		l3-1l3-2l3-2l1-4l2-3v-4l4,1l2-3l5-2l3-2l2-4l4-4l3-3l5-2l2-5l-5-2l-3,3l-5-2v5l-3,3l-3,3l-3,3l-3,4l-5,2v-4l3-3l2-4l3-4l3-3v-5
		l1-4l5,2l3-2h5l6,2l3-4v-6h4l2-5l2-5l-5-1"/>
	<path fill="none" stroke="#000000" d="M566,132l-4,3h-4l-5,4l5,2l-1,5l-5-2l-3,1l-5,1l-5-1l-4,2l-2,3l-5-2l-4,2l-3,2l-3,1v5l-3,3
		l-1,5l-4,1l-3,2l-2,3l-5,3l-4,2l-1,4l-4,1l-4,2l-4,2l2,6h-4h-4l-2,3l-2,5l-4,3v5l-5-2v5l-4-2l-3,3l6,4l-2,3l-5-1l-1,4l-3,4l-1,5h-4
		l-4,3l-2,1l-3,3l-5-2v-5l3-2l4-2l3-2l4-1l2-4l1-4v-5l3-2l1-5l4-2l1-4l5,2l3-4l1-5l2-4l5-3l3-4l3-2l4-1l4-2l2-4h4l5-1l1-5l3-3l4-1
		l1-3l3-4v-4l-5,1l-3,2l-3,3l-3,2l-2,6h-5l-4-1l-2,3l-1,5l-5,1h-4l-2,5l-3,4l-6,2l-2,5l-3,3h-6l-2,5l-2,6l-3,3l-3,2l1,5l-1,5l-3,2
		l-4,2l-3,2l-4,2l-2,4v5l-3,1l-1,4l-3,3l-3,4l-5-1l-1,5l-2,1l-3,3l-1,3l-3,2l-3,3l-3,1l-2,5l-1,6l6,1l2-4l4-1l2-4l3-2l1-5l1-3l4-4h4
		l3-3l3-2l2-3l2-4l5,2l-1,5l-2,3l-4,3l-3,2l-4,2h-4v6h4l5-2l3-2h4v-4l4-1l2-3l1-4l2-3l3,6l3-3l2-4l-5-2l4-4l4,2l3-2l1-5l1-4l3-3h4
		l3-4l1-4l2-3l4-2l-1-6h5l5-2l-6-3l4-3l5,1l3-2l4-2l-5-5l4-1l3-2l5-2l1-4l3-2l4-1l3-3l3-2l3-1l2-3l-1-5l4-1v-4l2-1l2-3l3-2l5,2l-2,4
		l-3,2l-1,4l-2,3l-3,1v5l-1,3l-4,1l5,4l-1,4l-2,4l-4,2l-6-1l3-3l3-2l2-3l-4-2l-5,2l-3,3l-2,5h-4l-2,4l-1,5l-2,3l-3,2h-4l-2,5l-4,2
		l-3,1v5l-4,1l-1,4l-3,3l-2,3l-1,4l-5-2l-1,5l-1,4l-1,3l-4,2l-3,2v5l-3,1l-3,3l-3-1l-3,2l-3,2v5l-5,1l-2,4l-5-2l-6,2h-5l-4,3l-1,5
		l-5,1l-5,3l-1,5l-1,6v6l-3,3l-3,3l-2,3l-3,2h-6l1-4l3-5l3-3l3-3l1-4l1-5l1-5l-6-2l-2,3v5l-2,4l-2,2l-3,1l1,6l-5-1l1,6l-2,3v6l-6,1
		l-3,5l-2,6l-2,5l-3,3l-4,3l-3-1l-1,5l-3,4l-3,1l-1,4l-4,1l-4,2l-1,3h-4l1,5v5l5-1v-4l4-4l4-1l4-1l2-4l3-3l3,1l1-5l4-2l6,2l-2,6
		l-3,3l-5,2l-4,2l-3,4l-4,1h-5v4v4h-4l3,5l-4,1l-3,3l-5-1v-7l-6,2l-1,5l-1,5l-5-3l-2,4l-2,4l-5,1l-7-1l2-4l3-1l2-4l3-4l6-2l-6-4l5-2
		h4l4-1l2-5l-11-2l4-1l3-5l5-2h4l2-3l3-1l3-2l2-4l2-3l4,1v-5l2-5h5l2-4l2-4l3-4l3-5l2-4h5l-3-6l3-2v-5l3-3l2-4l2-4l4-1v-5l3-4l3-3
		l2-5v-6l2-3h4l4-2l2-3l2-3l3-4l2-4l2-3l5,3l2-4l-5-4l5-1l-1-5l5,2v-5l2-1l3-3l3-2l4-2l4-2l1-4l-1-5l-4,1l-5-2l-4,2l7,4l-4,2h-4
		l-2,3l-4,2l-2,4h-4"/>
	<path fill="none" stroke="#000000" d="M411,220v6l-4,2l-1,3l-2,3l-1,4l-2,4l-3,3l-3,3l-1,3h-4l-4,1l-2,1v4l-1,5l-3,3l-2,5h-4l1,6
		l-4,2l-1,5l-3,3l-1,7l-4,3l-2-6v-5l2-3l3-4l1-5l4-3l-6-4l3-4h5l3-3l4-3l-4-1l2-4l-1-7h-6v7v5h-4v-5l-4,1l-1,3v4l-3,3l-2,1l-6,2
		l-3,4l-2,4l-2,4l-3,2l-3,5l-3,3v6l4,1l3-4l1-5l6,2v-5l2-5l2-5l4-3l5,2l-2,4l-3,3l-2,5v5l2,6h-5l-4-1l-2,4l-3,3l-4,1h-5l-2-6l-4,3
		l-1,4l-3,1l-3,4l-4,1l-4,3l-5-3l2-5l3-1l5-1l-7-5l4-1h4l3-2l4-2l2-4l1-4l3-3l3-3l2-5l3-2l1-5l4-3v-5l4,2l2-1l2-3l4,1v-6l-2,1l-6-1
		l-2,2l-5-1l-3,2l1,5l-3-1l-3,2v5l-3,4l-1,5l-4,3l-3,1l-1,4l-1,5l-3-1l-3,3h-5l-4,1l-1,5l-1,4l-2,3l-1,5l-3,1l-3,2l-2,4l2,7l-3,1
		l-4,3l-2,3l-5,4l5,2l-1,6l-2,5l-2,4l-2,4l-3,2l-4,1l-4,1l-1,3l-2,3l-1,4h-5l-2,4l-2,4l-5,1l-2,2v4l-2,3l-3-1l-1,6l3,1l-2,4l-4,1
		l2,5h4l3-2l1-4v-5l3-2l1-4l2-4l5,2l2-4l3,3l2-4l-4-3l3-2l3-2l1-3l2-3l1-3l5,3v-4l3-2l4-2l3-3l1-6l2-5l1-5l2-5l2-3l5-2l5-4l-5-1
		l-1-6h5l6-1l2,5l4-2v-4l4,1l4-1l2-4l4,2l2-4l4,2l3-1l-3,6l-1,4l-5-2v4l-5-1l-4,1l-5,1l-1,4l3,5l2-3l3-2h4l4,3l3-3l4-1l3-3l1-4l2-3
		v-5l3-2l3-1l1-5h5h4l-2,6l-3,3l-4,3l-1,5l-2,4l-4,5l-3,3l-3,1l-3,2v5l-4,2l-2,2l-3,3l-2-5l2-4l4-2l-4-4l-3,2l-3,3l-1,5l-3,3l-2,5
		l-5,1l-1,6l-1,5l-3,1v5l1,6l-3,2h-5l-2,3l-1,5l-5,1l-2,5l-5,4l-2,3l-7-2l-6-1l6-4l3-3l5,1l2-5v-6l5,1l1-6l4-3l5-1v-6l2-6l2-2l1-5
		v-5l4-1l4-2l1-7l-4-1l-5,1l-2,3l-4,3l-1,6l-2,5l-1,5l-2,5l-3,4l-5,1l-2,4h-4l-2,1l-3,3l-1,3l6-1l-1,4l-5,1l-2,3l-3,3l-4,1h-4l-1,5
		l4,1l-3,4l-4-1l-1,5l-3,4l-4,2l-2,4l-2,4l-3,4l5,2l-4,3l2,6l-2,5l-3,2l-5,1l-2,4l-5-2l1-4l2-3h4l3-3l1-3l-8,1l3-2v-5h4l-2-5l1-4
		l3,1l1-4l3-3l-5-2l-13-5l2-4l2-4l2-5h-4l-3,3l-2,3l-2,3l-6-6l3-3l3-2l-4-5l3-3l3,1l1,5l4-2l4,1l3-3l-1-5l-6,2l1-4l2-4l-3-6l-3,3
		l-1,4l-1,4l-5-3l-4,2l1-7h4v-4l3-1l3-3l2-1v-5l1-4l1-4l3-3l3-3l3-2l4-3l5,2l-2,5l-2,5h5l2-3l3-1v-4l1-5l2-6h5v-5l2-5l4-1l3-3h5v-6
		h4l3-3l-5-3l2-4l3-2l1-5h5"/>
	<path fill="none" stroke="#000000" d="M285,286v-5l4-1v-5l4-1l-1-5l5,1l3-3l4-3l4-2l1-4l4-1l4-1l-4-4h5l4-3l3-1l-2,6l-1,4l-3,4
		l-4,1l-2,4l-3,3l-3,1l-4,2l-4,3l-2,4l-3,2l-3,4l-1,4l-5,1l-1,4l-1,4l1,7l-3,2l-4,2l-2,6l-4,1l-3,3l-4,1l2,6l-4,3l-5,1l-2,4l1,4
		l-2,3l-1,4l-3-1l-4,2h-4h-4v4l-2,3v9l2-4l3-3l2-3l3-1l4-2l6,1l-2,3l-3,2l-3,2l-1,5l-2,7l5,1l1-4l1-3l2-3l3-2l3-2l1-3l2-3l4-1h4l2-2
		l2-2l1-4l2-6h-5l-3,4l-2,1l-1,4l-4,1l-5,2l1-4l3-3l-1-4l2-1l5-2l4-5l2-4l4-2l3-5l3-2l3-4l2-5l1-6l1-4l4,1l1-5l1-4l2-3l4-3l2-4l5,3
		v-5l5,1l1-4l3-4l4-1l2-4l2-5l1-4l2-2l2-2l2-4l4-4l4-2h6l8,1l6-1l2-6l5-1l4-1l7,4l-2-9l2-6l9,3l5,4l-2,3l-2,3v8l3-2l3-3l2-3l1-4l1-4
		l2-4l4-2v-4h-5l-3,2l-2,4l-3,1l-1-6l1-4l3-1l4-1l4-1l5,2l3-2l3-2l3-4l-2-5l4-1l3-2l3-2l5,2l6,1l4,1l2-5l2-5l1-6v-6l4-3l3,9l4-3l1-5
		l6,1l3-4l2-3l1-5l6,1h4l1-5l1-4h4l3-4l2,5l3-3l-1-6l4,1l3-3l4-2l1-4l-2-5l3-3l3-2l4,1v-5l2-5l3-2l3-3l1-3l3-3l3-1l2-3h4v5l5-1v-4
		l3-1l4-1l5-1l2-3h4h5l3-3l4-1l3-1h4h4l3-2l2-3l2-3l2-3l1-4l2-4l3,1l1-4l1-4l-4-3l-3,3l-3,4l-3,1l1,5l-3,1v4l-3,2l-2,3h-5h-4l-4,1
		l-3,2l-2,3l-6-1l-4,1l-3,1v4l-5-1h-4l-2,2l-5-1l1-4l2-3l5,1l3-1l3-3v-4l1-3l2-3l3-2l2-1l3-2l2-2h4h4l2-3l-3-5l-4-1v4l-5-1l-4,1
		l-2,3h-4l-1,4l-3-1l-1,4l-1,4v5l-3,1h-4l-4,1l-3,1l-5-1l-5-2v5l-5-2l-2,4l-3,2l-1,5l5,2l3-3l2-3l5,2l2-4h5v5l-1,4l-5,1l-2,2l-3,1v5
		l-4,2l-1,5l-3,3l-4,2l-3,3l-1,6l-1,5l-4-1l-1,4l-4,4l-4,1l-2,3l-4,1l-5-2l1-4h4l3-3l3-2l2-1l1-4l4-3l1-4l1-4l4-3l2-3l4-1l2-4l4-4
		l-5-2l-5,1l-1,4l-5,1l-1,4l-5-2v5l-1,5l-1,4h-4l-1,3l-2,3l-2,3l-3,2l-5,2l1-4l2-5l2-3l1-4l1-3h4l3-3l-6-3l-5-1l3-4l6,1l2-4h5l1-4
		l5,2v-5l5,1v-5l1-5l2-4l2-2l3-3l3-1l1-5l2-3l3-4h5l3-3l-1-7h-5l-1,4h-4l-3,4l-4,5l-2,4l-4,3l-5-2l3-4l3-3l3-4l1-4l3-2l2-4l3-2l5-1
		h4l1-5l-1-5l6,1l4-1l2-4l2-3l1-3l3-4l3-3l1-4l4-3l3-3l2-3l3-4l1-4l5,2v6l-2,3l-3,3"/>
	<path fill="none" stroke="#000000" d="M557,22l-3,3l-3,3l-3,1l2,5l-1,4l-4-4l-2,3l-1,4l-2,3l-3,3l-2,4l-2,3l-4-1l-2,5l5,1l4,5h-4
		l-3,1v5v4l-1,4h-4h-5l-3,5l4,1h5h4l4-1v-4l3-2l-2-5l2-2l4-1l1-4v-4l-4-2l3-3v-4l5,2l-2-5l3-2l1-4h4l1,5l-2,3v4l-1,4l-4,1l1,6l4-2
		l4-1l1-4l2-1l5,2l5,2l2-3l3-2l4-1l3-3l2-5l5-2h4l1-5l2-4l4-3l8-2l-2,2l-1,5l-1,5l-3-1l-2,4v5l-3,1h-5l-3,2l-1,4l-3,2l-5,2l-3,3
		l-3,3l4,2l-1,4l-3,2l-2,3h-4h-4l-3,2l-4,2l-2,3l-2,3l6,2l2-4l4-2l4-1h5h4l1-4l3-2l1-5v-5l3-2l3,1l3-4l3-3l2-3l5,2l-1,4l7-1l-2,4v5
		v6l-2,4l-2,4l-3-1l-1,4l-3,3l-2,4l-3,3l-2,3h-5h-5l-5,1l-3,3h-5l-4,1l-2,3l-1,3l-4-2h-4l-2,3l-5,1l-2,4l-4,1l-1-5l-4,1v4l-2,2l-3,2
		l-3,3l-2,3l6,2l2-3l3-2l3-2h5l4,1l1-5l4-2l4-2l4,2l-2,4l-4,2l-2,3l-4,4h-4l-3-1l-3,2l-3,2l-2,3l-5-2l-2,2l-2,2l-4-1h-4v5l5,2h4l4-1
		l2-3l5,2l2-3l3-2h4l4,1l3-2l2-4l4-1l2-4h5l-1-5l1-5l2-5l4-2l6,1l-4,5l-3,3l-1,5l5,1l3-3l1-5l5,1l2-5l-5-4l4-3h6l6-1l2-4l2-4l2-5
		l5-2l1,6l-3,3l-1,5l-3,4l-4,3l-4,3l-3,2l-1,4l-1,5l-5-1l-2,4l3,6l-3,3l-2,6l5,1l4-2l2-4l-2-7l4,2l2-4l1-4l2-3l4-3l4-2l2-3l2-5l2-4
		l2-4v-6l2-4l2-5l-7,1l2-4l1-5l1-4l1-4v-4l1-4l2-4l4-3h5l2-5h4l5,1l1,6l-4,1l-3,1l-4,3l-4-1l-3,3v5v5l-1,3l-2,4l6,2l3-4l4-3l-5-3
		l1-5l5,2l2-4h4l3-2l3-4l1-5l2-4l-5-2l1-5l6,2l1-4l1-5l2-4l15,3l-2,4l3,8l5-2l2-5l6,1l5-1l3-4l-9-3l4-3h6h5l4-2l2-7l5-4l5-1l4-2l2-5
		l4-3l4-2l6-4l-18-1l-4,4l-2,4l-4,2l-4,5l-4,3l-2,4h-5h-5h-5l-3,4l-2,7l-6-6l2-6l2-7l5-2h5h5l5-4l5-2l2-6h-11l-5,3l-6-1l-7,2l-4,1
		l-1,7l-7-3V2h-9v8l-2,4l-3,2h-5l-1,4l-3,4l-3,1l-4,3l-2,4l-1,6l5,1l2-4l2-4h5l2-4l3-2l2-3h5v6l-4,4l-2,4l-1,5l-5-4l-2,4l-1,5l-5-1
		h-5l-3,3l-1,4l-5-1l-1,4l-5,2h-4l1-6l3-1l2-5h5l2-5l-6-1l3-4l3-2l1-4l1-4v-4l4,1l1-4h4l2-4l-5-2l2-3h4h4l3-1l3-3l-6-5l-4,2l-3,1h-4
		l-2,3l-1,6l-2,3l-4,1l-1,4l-1,4l-1,4l-5-2l-5-1l-2,4h-5l-3,2l-3,4l-2,4l-4,3l-5,4l-4,4l-5,2l-4,3l-6-3"/>
	<path fill="none" stroke="#000000" d="M556,52l3-3l2-4l4,1l4-2l5-4l2-5l4-2l3-5l3-4l5-1l3-3l5-1l5,1l2-4v-5l3-2l3,1l3-3l-1-5l-5-2
		v4h-6l-3,2l1,6l-3,1l-4,1l-5-2l-1,4l-4,2l-4,2l-3,4l-3,1l-3,3l-3,5l-2,4l-4,2l-6,4l-1-6l2-4l3-1l2-4l3-2l2-6l1-5l4,2l4-3l5-2l3-3
		l6-2l4-1l1-5l-6-1l-2,1l-3,3h-5l-3,4l-2-6l-4,3v5l-5-4l1-6h-5l-1,4l-5-4l-1,3l-2,4l-1,4l-4,2l-1,4l-3,3l-4,2l-1,4l-2,5l-4,1l-2,4
		l-3,4l-5,1v-5l3-3l1-5l3-3h5v-6l5-2v-4l3-1V7l4,1l1-4l2-3l-6-1l-3,2l-2,5l-4,2l-2,4l-3,5l-5-2v5l-3,3l-1,5l-3,3l-1,5l-5-2l-4,1
		l-3-1l-2,4l-2,5l-7-1l1-4l3-2l1-5l-1-5l-4,1l-1,4l-4,1v5l-5-2l-3,4l-3,1l-1,4l-2,4l-2,4l-4,3l-1,5l7-1l3-3l3-5l3-2l1-4l3-3l4,5
		l-2,4l-1,5l-5,1v5l-3,3l-4,1h-4l-2,4l-1,4l-1,4l-2,3l-6,1l1-4l2-5l2-8l-2,3h-5l-1,4l-2,4l-3,3l-2,3l-5-2l-5-1l-3-1l-3,3h-5l-5,2
		l-5-2l-4,2l1,6l-4-1l-2,4l-2,4l-5,1l-2,3l1,5v5v4l5-4l1-4v-5l5-1l2-4l4,1l2-4v-5l4,1l5-1l3,1l3-2l4-2l5,1l4,1l-4,4l-4,1l-4,2h-6
		l-4,1l-3,4l-5,3l-1,5l-4-1l-1,4v5h-5l2,5l-4,1l-3-1l-1,4l-3,2l-3,3l-2,4l-3,2l-2-7l2-3l3-2l3-3l1-5l-4-1l-3,3l-4-7l3-1l2-2l5,2
		l-1-5v-4l-6,1v-5l3-2l4,1l2-4h4l2-4l2-4l2-3l2-4l3,1v-6v-5l4-2l-4-6l-3,2l-2,5l-1,4l-3,2l-1,4h-4l-4-1l1,6l5,1l-3,4l-5-1v5l-4-1
		l-1-8l3-2l-2-7l1-5l5,2l3-1l4-3l2-5l-4-1l-4,3l-6-1l-1-6l5,1v-5l5,2l3-4l3,6l3-2h4l4,1l2-4l-4-5l-3,2l-5-1l1-5l3-2l3-1h4l2,7l3,1
		l3-2l3-4l7-2l-1,4l-2,5l-3,3l-1,3h-4l-2,4l-3,4l4,2l4-3h4h4v-5l3-2l2-4l3-1l3-4l2-6l5-3l5-3l2-4l1-6l5-2l5,2l-1-6l5,2l2-3l5-1l2-2
		h4l2-3l5-1h4l-4,5l-1,4h-4l-4,2l-4,2l-4,2l-2,4l-5,1l-4-1l-1,4l-2,5l-3,4l-2,4l-3,4l-2,5l-3,2h-5l-2,4l-3,3l-2,5h-4l-5-1l-4,4l-3-1
		l-4,2l-1,5l5,3l2-3h5l2-4l5,1l5,2h4l4-3l-7-3l4-2h4l1-5h5l3-4l2-5l3-4l2-4l2-3v-5l4-3l4-1l4-3l3-3l3-2l4-3h5l3-3l3-1l-2-5l4-1V7
		l3-1l5,1v5l-3,2l-2,4l-1,5l-5,1v5l5-1l5,2v-5l3-1v-5l3-2l1-5l5-1l2-1l2-4l3-4l-5-2l-5,3l-3,3l-5-4l-5-2l-7,1l-3,2l-4-2l-2,4l-6,1
		l1-4l-5-2l-1,4l-1,3l-3,3"/>
	<path fill="none" stroke="#000000" d="M477,10l-5,1l-1-5l4-2l-5-4l-4,4l-2,3l2,6l-4,2l-5,4l-3,5l-4-9l5-4l3-4l-1-6l-5,1h-5l1,6
		l-6,5l-6-2l6-4l-1-6l-5,3l-3-1l-3,3l-2,3l-3,3l-3,3l-3,2l-2,4h-5l-1,4l6,1l6,2v-5l4-1l3-5h5l-2,8l-3,4l-1,5l-6,4v-5l-5-1l-5-1h-4
		l-3,2l-3,2l-1,4l-1,4l-3,4l-5-2l-4,3l-12-4l-1,7v8l-2,6l-6,1v8h8v8h-8l-2,6l10,2l-2,6l-8-1l-5,5l-5,3l-7-2l-5,8l6,2l7,2l6,2l3-6
		l4-5l8,3l-1,7l-1,6l-4,1l-7,3l-7-2l-2,8l-4,2l-3,2l-3,3l-3,3l5,4l-5,2l-3,4l-3,2l-4,5l5,2l4-1l3-4l3-3l3-1l2-5l-1-5h4l5-2l3-5l6,3
		l3-6h7v8l-3,6l-7,1l-5,3l-4,1l-5,1v5l-4,2l-3,2l-2,4l-3,2l-4,1l-5-1l-5,3l-8-2l-7,3l-5,2h-5l-3,4l-4,1h-4v-7l5-1v-6l5,2l3-3l4-3
		l3-6h6l5-2l5-2l3-3l4-2l1-5l1-5l3-2l3-3l2-4l4-4l-8-4l-3,4v4l-4,2l-3,3l-1,5l-1,4h-5l-2,3l-5,1h-6l-5,2l-2,6l-4,3l-3,3l-4,3l-2,4
		l-4,2l-1-7l1-4l4-2l-5-4l2-2l6,2l4-1l3-4l-1-6h4l2-3h5l3-3l3-1l5-1l4-2l2-6l4-2v-5l2-4l-7,3l-3,2l-2,5h-5l-3,1l-5,1l-3,5l-5,1l-3,2
		l-3,5v5l-4,2l-5-2l4-4l-6-3l3-4h5l1-5l2-4l5,2l4-1l-2-7h5l4-2l5,1l3-3l3-3l4-2l7-2l5-4v-6l5-2l6,2l6-2l1-7l-8-2h-8l1-7l4-3l6,2l7,2
		v-8l-7-3l7-5l5-4l3-4v-8l1-7l7-1l4-6l-7-3l-6,1l-6,2l-1,7l-1,7l-3,6l-4,6l-7-2v8l-7-2l-2,5l-1,8l-5,2l-5,2l-5,3l-1,5l-2,5h8l3-5
		l8-1l-1,7l-2,5l-7,1l-5,1l-3,4l-2,5l-5-1l-4-1l-4,2h-5l-1,5h-5l-5-1l1,5l-3,2l-4,1l-3,3l-1,5l-3,2v5l-2,4l-1,5l-3,2l1,5l-3,3h-4
		l-3,2h-4l-5-1l-1,3l1,5l5-3v4l-1,4l-3,2v5h5l2-3l1-3l2-3l-2-4l3-1l3-2l5-2v5l-3,3v4l6-1l-1,4l-3,3l-3,2l-2-6l-2,4l-1,3l-2,3l-4-1
		l-3,2l5,4l-3,4l3,1l-1,5v5l-1,3l3,5l4-1l3,1l2-3l4-2l4,2l3-3l3-4l-5-2l-3,2l-3-1h-4v4l-5,1v-4v-4l5-2l-4-2l3-3l-4-2l3-3h4l3-2l3-3
		l4,3l-1,4l-4,1l-3,2v4h6l4-1l3-2l1,8l5,1l3-1l-2,7h-5l-1,5l-3,1l-4,1l-5-2l-2,3l-3,2l-5-1l-3,2l-1,4l1,7l3-1l2-3v-4h4h5l2-3l6,1
		l-2,4l-2,3h-4h-4l-2,5l-4,3v5l2,5l3-4v-4h4l-1-5h4h5l4-1l1-4l1-5l3-2l1-4l4-1l2-5l3-3l5-1l4,1h5l6,3l3-1l1-5l2-3l4-1l1-4l4-3h4l3-3
		"/>
	<path fill="none" stroke="#000000" d="M341,185l3,1l4-1l2-3l-3-5l-4,2h-5l-4,3l-5,2l-4,2l-2,3l-4,2h-5l-4-6l-3,2l-7-4l3-2l4-3h5
		l2,7l4-1l1-4h5l5-2l3-2l5-3h4l4-2l4,2l2-4l1-4l5,1l-1-5h5l3-4l7,4l2-6l6-1l9,1l3-4l1-5v-5l4-1l3-3l2-3l2-3l4-2l3-2l-2,7l-3,4l-3,4
		l-2,3l-3,2v5l-1,3l-2,3l-1,4l-3,3l-3,6l5,1l3-3l3-2l1-4l2-3l2-2l-1-5l2-3l3-3l2-4l2-3l3-3v-5l5,2l1-5l2-4l-7,2l1-5l2-4l2-4l3-4l2-4
		l5-3l3-1l4-1l4,1l3-3l4-1l3-3l3-2l1-4l2-4l4,6l4-1l3-2l4-2l2-4l3-2l-2-6h4h4l2-4l4-2v-5l4,1l1-6l3-3v-5h5l4-4l2-2l3-3l5,1l1,6l-2,1
		l-3,2l-4,1l-4,3l-2,3l-3,4l-1,4l-3,4l-3,4l-3,2l-4,3l-3,2l1,5l-4,1l-2,4l-4,2l-3,2l-5,2l-5-1l-2,4l-3,2l-3,2l-5,1l-4,3l-5-1l-3,3
		l-5-2l-1,5l-3,3l-2,5l5,2l4-3l2-4l6-2l6,2l3-3l3-1l4-2l4-3l3-4l4,2l2-5l6,1l2-3l3-4l4-2l4-2v-5l3-2l4,3l-1,5l-1,5l-3,1l-3,3h-4
		l-2,4l-5,3h-4l-5,4l-3,2l-3,2l-4,2l-3,3l-2,3l-1,5l-6-2l1-5l-6-1l-2,5l-4,2l-5,2l-3,2l-1,6l-2,7h-5l-4,2l-4,3l-1,4l-2,3l1,5l-3,3
		l-2,4l-2,3l-4,3l-2,4h-4l-1,5l-1,6l4,1l3-3v-4l4-3l2-4l5-4l3-3l2-3l1-6l4-4l3-3l6,4l3-3l4-5v-9l3-5l8-2l1,9h6l-1-7l6,1l1-4l1-5l2-4
		l4-2l4-2l1,6l-3,3l-1,4l-2,3l-1,5l-5,2l-1,7l-3,5l7,2l2-5l2-4l4,1l1,6l5,1l1,5h-5l-5-2l-2,6l-5-2l2,8l-6-1l-7-2l-6,2l-7-4l-4,3
		l-5-5h-5l-2,5l7,3l-3,5h-5l-4-1l-1,4l-5-1l-1,4l-4,3v4l-3,3l-1,4l-2,1l-5-2l-2,4l4,3h4h5l2-3v-5l4-2l-1-5l5-2h4l4-2l7,1l2-4l4-3
		l5-3l1,7l-2,5l-3,4l-6,2l-6-2l-4,2l-4-1l-1,4l-4,3l2,6l-3,1l-3,3l-5-1l-4,1h-4l-3-1l-3,5l-9,1l-6-2l5-6l1-7l-5-1l-5,4l-1,8h-6h-5
		h-5l-2,5l-2,4l-5,1l-5,4l-2,4l7-1l6,1l4-2l3-4l2-4l4,1l5-2l7,3l-2,6h-6l-4,3l-3,4l-2,4h-5l-4-1h-5l-6-1l-5,3l-4,3l2-10l-5,1l-3,4
		l-2,4l-4,3l-2,3l-5,1l-1,5l-2,4l-3,3h-4l-2,3l-4,2l-4,1l-5-1l-3,3l6,3l-3,3l-1,3l-2,5l-3-1l-3,2v5l-4,1v5l-4-1l-3,2l-1,4h6l-1,5
		l-3,1l-5,2v-5l-4-1l-2,3l1,6l-2,3l-1,5l-4,2l-1,5l-4,2l-6-2l-3,4l-4,1l-3,4l-3,3l-3,3v5l-1,4l-2,3l-2,3l-4,3l-1-6l3-3l2-5h-4l-6-4
		l5-1h4l2-3l2-3l3-2l4-2l1-5l4-2l-2-6l-5,2l-1,5"/>
	<path fill="none" stroke="#000000" d="M222,321l-3,2l-3,2l-3,2l-2,3l-2,1l-2-7l2-3l4-1l2-2l2-3l1-4l4-1l4-3l3-3l2-3l3-2l1-4v-4l4-2
		l3-1l-2,6h4l-1,5h-4l-1,4l-2,4l-2,5v5l6,1l1-5l4-3l-1-6l4-2v-4l2-3l3-2l4,1l1-4l3-3l4-2l3-4l1-4l1-4l1-3l5,2l-1-5v-5l3-4l4-1h5l5-1
		l-4-3l1-3l5-2l1,5h5l1-5l2-5l3-5l4-3l4-3l2-5l3-4l4-1l6,2v-6l5-3l3-4l4-1l3-4v-6h5h5l6,1l1-6l4-3v-8l7,3l8,4l-1-9l-6-3l5-6l2-6
		l-10,1l-5,2l-2,5l-6-3l-2,3l-2,4l5,3l-3,4l-3,5h-5l-3,2l-4,1h-5l3,6l-3,2h-4l-2,3l-2,6l-6,3l-6-3l-4,2l1,7l-3,4l-1,4l-5,3l-2-6l1-5
		l4-4l-2-8l-3,5l-4,4l-2,5v5l-4-2l-2,5l-5,2h-5l-2,2l-3,3l-2,3l-2,3l-4,2l4,5l3-2l3-2l2-3l2-4l4-1h4l4-2l3-3l5,2l-2,6l-4,2l-5,1h-5
		l-1,4v5l-4-2l-3,2l-3,3l-3-1l-1,4l-4,2l4,3l-4,2l-1,4l-1,4l-1,3l-1,4l-4,2l-3,2l-2,3l-5,2v-4l2-4l2-3l5-1l-4-3l4-2l1-3l2-4l1-4l1-5
		l4-2v-5h-5l-3,3l-1,4l-3,2l-2-6l-3,3l-4,2l-4,1l-1-5l-4,1l-3,2l-6-2l-3,2h-4l1,6h5h4l1-3l6,1v5l5-2h4l4-2l5,2l-3,3l-2,3l-4-1l-4,1
		l-4,1l-6-2h-5l1,5h4h4l1,4l4-2l6-2l-1,3l-1,4l-3,2h-4l-3,3l-3-1l1-5l-4-1l-3,3l-1,7l5-1l1,4l-1,4h-4v4l-5,3l1-4l-4-2l-3,2v4l-3,3
		l1,5l-3,2l-2,3h-4l1-7l2-4l3-5h-4l-6,3l-4,1h-4l-3,2l-3,1l-2,4l-3,3h-5l-2,3l1,9h4l2-4l2-2l4-3l3-4l3-1l-1,6l1,6l-4-1l-1,4l-4,1
		l-3,4l-1,4l-6,2l-2,5l4,1l4,5l1-4l2-3l3-3v-5l4-1l4-3l1,6l-4,3l5,2l2,6l-5-2h-4l-2,3l-2,4l-5,4l5,1v4l-1,4l2,5l-2,3l5,3l-4,3l4,5
		l3-2l3-3l1-4l-4-2l3-4l-5-2l1-5l-1-5l1-4l3-2l4,1l1,6l-3,1v5l5,1v5l-1,3l2,5l1,6l-3-1l-3,2l-4,4l4,1l2,5l3-3l2-3l3,7l-2,3l-2,9
		l-3,3l-3,4l-4,3l-4,5l-6-1l-2,4l-6-2l-4,2l7,6l-3,3l1,7l6,2l2-5l1-5l4-3l4,1l-1,7l-2,5l-1,6l-3,4v7l-2,6h-5l-4,3l-5,1l-5,4l-4,4
		l-1,7l-3,3l-1,7l7,2l4-2v-7l2-5l2-6l7,1l5,2v-6l5,1l2-6l2-6l1-6l3-5l1-6l2-4v-6l3-4l-6-6l5-2l4-2l1-7l3-6l2-5l4-2l6,1v5l-4,3l-2,5
		l-2,5l-1,7l-3,4v7l-3,4l-1,7l-3,5l-2,5l-2,5l-2,6l-2,6l-3,5l-1,6l-6-1l-6-2l-2,3l-2,5l-1,6l-3,5l-4,3l-2,6l-1,6v7l-4,2l-4,3l-3,5
		l-2,5l-5,2l-2,5"/>
	<path fill="none" stroke="#000000" d="M142,549l-7-3h-5l-1,6l8,2l-2,6l-4,1l-1,6l-2,6l-1,6h-5l-2,5l-1,6l-6-2l1-10l3-6l4-1l1-6l3-5
		l-8-1l3-4l3-3l-2-8l2-5l6-2l6,2l3-4l4-1l3-5l3-4l4-4l3-3l1-7l3-6l-7-3l-3,4l-2,5l-3,5l-4,3l-2,6l-6,1l-4,3l-6,3l-1-7l4-5l5-2l4-3
		l3-6l3-4l1-5l2-4l4-3l2-5l1-8l3-4l3-6l5-4l6-3l4-2l5-2l2-3l2-5l-7-3l-4,5l-4,1l-5,4l-5-3l-1,7l-5,1l-2,5l-3,4v8l-4,5l-4,3l-3,5
		l-1,6l-2,6l-4,3l-3,4l1-13l1-5l1-6l2-4l2-5l4-2l3-1l1-7l-7-3l-5,4l3-11l8,2l3-1l3-5l4-2l1-6l3-5l6,6l3-4l6,1l3-5l-2-8l-6,4h-7l1-7
		h7l-1-8l3-4l3-4l6,3l4-3l7,2l2-5l4-3l2-5l-7-4l-4,3l-3,5h-8l-6-2l-4,2l-3,4l-3,5l-1,6l-5,5v7l-3,6l-4,5l-3,2l-3,4l-5,3v-9l1-6l3-3
		l4-1l3-5l-9-4l3-3l5-1l5-3l3-5l-7-4l-4,3l-3,1v-11h7l7,3l3-3l3-5l4-3l6,2l7,4l4-3l2-6h-9l1-6l2-3l-1-8h-8l1-6l5-2l-1-8h-6l-3,1
		l-3,5v7l-1,6l8,5l-2,5l-6-2l-5,2l-2,6l-5,2h-5l1-8l4-3l-1-7l5,1v-6l2-5l-9,1l1-6l5-3l4-2l2-6l7-2l5,1l3-12v-5l-3-9l-4,1l-4,2l-2,5
		v7l-3,5l-6,4l-4,3l3-11l3-6l-2-7l3-3l-3-9l6,3l4-3l7,1l-4-8l-5-1l-5,1l3-10l-4-1l2-12l4,2l1,7l5,8l12-6l2-4l5-4l6,1l5,4l-5,1h-4
		l-1,4l-2,2l-3,3l-2,4l6,1l3-3l3-5l4-2h5l4-2l-5-5l3-2v-6h-5l-2,3l-5-2l-5-3l7-2l5-1l2-2l-1-5l1-4l-6-3l-1,3v5l-8-3l2-4l1-5l-5-2
		l3-5l3-2l1-4l-7-1l3-4h5l2-3l-4-6l4,1l5,1v-5l-1-6l3-4l2-2l2,7l-2,3l3,5l-3,3l5,4l-4,2l-5-2v5l-3,2l1,5l-2,3l-3,3l6,3l3-2l1-4l1-4
		l1-4l5-1l4,2l-3,3l-2,3l-1,5l6-1l2-2l2-3l4,5l3-2v-4l-4-1v-8v-8l-2-10l-3-12l-3-11l4-3l-7-5l-7-6l-3,7v10l-2,5l-5,4l-3,7h-7l-1,7
		l-4,2l-4-1l-1,6l-4,2l-3-9l3-8l5-1l3-4l6-1l6-1l1-8l2-3l-9-2l-2,5l-5,2l-7,3l1-7l3-5l3-4l-4-9l14-2l4-3l5-2l-1-7l-5,1l-6,1l-4,2
		l-2-9l6,1l5-3l3-2v-7l-5-2l-4,3l-1,5l-5-2l-1-8l3-3l3-4l-6-7l6-5l2,7l8,8v-7l2-4v-5l3-1l3-4l-8-11l-3-13l-4-16l40,35h4l5,5l-4,1
		l-4,3l-6-1l-4,5l6,2v6l-6-2l-4,5l7,3h4l5-4v-6l4-2l3-3l4,1v6l-1,6l-4-1l1,6h-5l-3,4h-6l-5-1l-4-1v7l-3,2l6,10l2-4l2-5l3-1h5v7l-4,2
		l-1,5l-5,5l4,1l6,6h6l7,1l3-3l1-6"/>
	<path fill="none" stroke="#000000" d="M232,180l2-5l-1-8l-6-1v6l-1,6l-3,4h-7l1-4l3-4l1-5l-1-6l2-4l4-1l7,1v-5l-1-8l14-3l2-4l4,1
		l2-3l2-5l2-3l1-4l1-5l2-4l1-6l-3,1l-2,4l-3,2v4l-1,4l-2,3l-1,3l-1,4l-5-1l-1-5l2-1l2-4l-5-2l3-3l4,2v-4l-1-4l-4,1l-4,1l-1-6l-1-6
		l4,2l2,4l2-4l3-2v5l3,4l2-3l-1-4h4l3-1l4,2h4l1-4l-5-2v-5l-4,1l-2,3l-4,1l-4-1l2-4l3-2l-2-5l-3,2l-4-1l-2,4l3,1l-2,4l-2,2l-5-2l2-4
		l-4-3l1-4l4,1l1-4l5,1l3-2h4l2-3h4l3-4l3-3l2-4v-4l3-2h5l2-3l4-2h5v6l-4,1l-3,4h-5l-1,4l-4,2l-2,4l-3,2v4h-4l-3,2v4l5-1l5,1v6l3-1
		l4-1l1,5l-2,4l-1,4l-4,3l-2,3l-1,3l-1,4l-2,3l-1,4l-1,4l-1,4l-3,1l1,5l-2,1l-2,3l-4-1l-3,4l4,1h4l4-2l4-1l-1-5l3-3l1-4l1-4l1-4l2-5
		l2-4l2-3l3-2l3-2l-1-5h4l4-1l4,1l2-5l3-2l4,1l1-4l6,3l5,1v-6l-6-2l-5-2l-5-2l-2,3l-3,2l-3,3l-2,3l-5,1l-1-5l2-3l2-3l3-2l4-3l4-2
		l5,2l5,2l5,2l-1-7l2-3l-7,2l-5-2l-5-2l-4,2l-4-1v5l-5-2l-1,4l-3,3l-2,3l-5-2l1-4l2-3l3-2l4-5l5-3h5l3-2v-5l3-4l-5-5l3-7l3-3l4-3
		l3-4l5-3v-6l5-1l6-3l8,2l4,1l-2,5l-3,3h-5l-6,2l-1,6l-4-1l-4,2l1,6l-5-2l-3,3l-1,5l7,1l2-2h6l-1-5l3-1l4-5l3-3h5l5-1v5l-5,1l-3,3
		l-4,1v5l-1,3l-3,3h-4l-2,3l-5-1h-4l-3,3l-1,5l5,2l3-3l5,1h5l3-4l4-3l4-2v-5l2-2l3-3l4-1l2-4l2-3l6,1l4-5l1-7h-5h-4l2,6h-4l-5-2l1-5
		l2-4l4-2l4,1h5l-1-5l2-3h5l5-2l7-1l5,2l5,1l8,1l6-2l2-4l4-1l1,5l-2,3l-5,2l-1,4l-3,5l1,6l5,1l-1-5l3-2l1-4l3-2l3-2l1-5l-1-5h4h4v-5
		h4l3-2l3-3l2-4h-7l-4,2l-4,1l-3,4l-6,1l1-3l2-4l-7-1l-1,5l-2,3l-4,1l-11-6l-2,5l-7-3l-6-3l-3,5l-7-4l-1,6l-2,4l-4,2l-1,6l-5-2l-4,2
		l-3,1l1-7v-5l6,4l1-4l3-2l3-2V2l-5-1l-3,3l-4,3l-3-6l-3,3l-1,4v6l-2,4l-8-2l-5,2l-5,3h-5l-2-7h6l2-5l6-1h5l3-3l-6-5l-3,1l-6,2l-4,1
		l-2,4l-6-1l1-5l-6,2l-4,1l-4-2l-3,6l4,1l-2,7l-3,3l8-2l3-2v-5l5,1l2,6l-3,5l-5,1l-4,1l-3,4l6,4l3-2l4-2l3-5l6,4l-3,3l-3,4l-3,3
		l-4,2l-3,1l-4,2l-7-1l-6,7l-3,3l6,3l-4,2l-4,2l-1-5l-4,2v-5v-4l4-1l2-4l-4-3l-2,3h-4l-1,4l-3,1l-1,4l5,1l-1,4l-2,2l-2,4l-1,4"/>
	<path fill="none" stroke="#000000" d="M252,66l-5,1v-4l1-3l2-3v-4l-4-2l-1,4l-3,2v5v4l2,5l4,1l4-1l4-1l2-3v-4l3-2l3,1v5l-2,3l-1,5
		h-4l-4,1l-2,2l-5,2v-4l-3,1l-3,2l-2,3l-4-3l2-4l3-3l-3-1l2-4l-6-2l1-4l4,1l1-4l-5-2l2-3l5-1l2-3l2-4l4,2v-4l3-1l2-2l2-3h4l4-3l-1-6
		l-3,3l-4,1l-5,1l-2,3l-4,2l-2,2l-3,3l-2,3l-2,3h-4v-5l2-3l1-4l3,1l2-4l3-1l2-2l1-3l5,1l4-2l4-2l1-4l2-3l-1-6l-4,2l-2,4l-1,4l-4,2
		l-5-1l-3,2l-3,2l-2,2l-2,3l-5,5v-5v-4l2-2l3-3l3-2l3-2h4h4l1-3l3-3l2-4l3-2l4-1l1-4l2-2l-9,2l-4,2l-2,3l-2,3l-2,1l-2,3h-4l-4,2
		l-3,2l-3,2l-3,1l-2-8l4,1l4-2l4-2l4-1l1-4l3-2l3-3h-8l-3,4l-2,1l-2,3l-5,1l1-4l1-4l-5-1l-1,5l-19-3l-3,3h-5l-5,2l-3,4l-5,1l1-8
		l-5,2l-4,5l-2,5v6l-2,2l-4,2l3,8l4-3l4-1l1-6l1-5l3-1h6l5-1l3-4h5h5v7h-6l-5,4h-6l-4,2l-2,4l8,1h5l6-3l5-1l1,7l-6,1l6,6l-2,5v6
		l-3,3l-1,6l-5,3h-5h-5l-6-2l-4-1l2-9l1-4l3-5h5l5,1l-2,6h-5l-1,7h5h5l2-5l2-6l1-6l-6-2l-6-2h-6l-5,2l-2,3l-2,5l-5-7l-10,13l-1,6
		l-5-1h-4l-7-5l4-3h5l-2-6l3-3l-8,2l-5,2l-1-7l5-2l3-1l3-3l2-4l-9-1l-4,1l7-5l5-1l3-1l4-13l-16-2l-4,3l-5,1l-4,3l2-12l-6,2l-3,6
		l-1,7l-2,6l9-2l-2,6l-3,5l1,7l-7-4l-2-9l-4,5l-7-3l3-6l3-5l4-3l1-7l-7-4l-2,5l-4,4l-2,4l-2,5l-4,2l-8-4l3-5l4-3l5-9l-3,2l-7-2l-4,3
		l-3,5l-3,5l-9-4l3-4l3-4H62l-3,4l-7-4L31,7l-6,1l-6,1l-4,3l2-11h-6L9,7l-3,5l-1,7l-1,8l5,3l3-6l1-6l7,6l2-4l4-3h6l4-1l7,3l-3,6
		l-6,1l-4,1l-4,4l-7,1l-2,3l-7,4l5,2l2,8l6-6l4-4l6,1l2-5l6-2l1,8l5-5l1-7l3-1l4-3l5,8l-3,5l-3,2l-5,4l-4,5l-6-1l-7-1l-2,5l-6-1v7
		l7,9v-6l6-1l3-2h5h5l4-5l4-2l3-3l3-6l3-5l6,4l-1,6l-3,4l-3,6l-4,4l-5,1l-3,6l-3,1v7l7,2l4-3l1-6l7,4v-7l3-5l5,1v-7l2-7l9,2l-2,6
		l-2,4l9-1l-1,7l7,2l2-5l6,3l8,5l-2,6l-5-2l-4,3l-5-1l-2,6v7l-6-2l-5,7l5,1l7,2l6-3l6-1l-6-7h6l4-2l6,4l1-7l2-4l8,6l-3,4l10,1l-3,5
		l-1,6l-2,5v7l-3,5l-6,1l-4,3l10,3l-2,6l-7-1l-4,5l-5-1l-3,5l-1,7l7,1l3-4l6-3l4-2l-2,10l-3,4l-6,4l6,3l-1,7l-1,7l-2,6l-1,6l-7-10
		l3-5l2-6l-6-2l-4,5l-7-6l4-2l7-5l-7-3l-2-8"/>
	<path fill="none" stroke="#000000" d="M101,142l-5,4l-2,4l-7-7l2-5l5-1l2-6l6,4l2-6l4-5h6l-1-8l2-5l6-1l5-2v-7l1-7l-8,1l-1,6l-5,2
		h-6l-1,6v7l-5,5l-5,3l-6-3l-2,6l-4,2l-3,5l-5-8l-7-6l4-3l6,3l4-2l6-5l5,1l5-2v-7l-7-1h-5l-5,6l-6-2l-4,1l-7,1l-6-5l6-3l3-5l4,1l7,3
		l1-6l-6-4l5-4l4-2l3-4l5-2l2-6l-6-4l-4,3l-5-1l-1,6l-5,4l-4,2l-3,4h-5v7l-4,3l-7-3l2-6l2-4l-9-1v-7l1-8h-6l-2,8l-27,9v-5l-6-3l-1,9
		l1,12l5-3l4-1h6l3,8l-4,2h-6l-4,3l-4,10l4-3l8-2l7,1l5,1l2-4l5,11l-6,2l-6-2l-7-2l-3,4l-4,4H4l-2,7l1,10l6-4l2-4l6,1l1-5l4-4l7,2
		l-4,6l7,3l5-2l-1-8l6-1l3,8l-2,5l-3,5l-6,1l-2,6l-4,4v7h-5l-2,5l-4,6l-5-2l2-8l2-7l5-4l3-6l3-4l-9,1l-4,4l-4,2l-3,4l1,8l-4,4l3,9
		l-3,7l6,3l5-3l4,1l4-6h6l1-6l5-4l1-6l4-4l3-2l4-3l2-5l3-4l4,11l5,1l2,8h-6l-5-1l-5,2l-4,3v8l-4,2l-3,4l-3,7l-5-2l-3,5h-7l-4,3l-7-2
		l-4,3l10,5l-4,3l-3,5l-3,7l7,3l3-4l3-3l4-2l1-8l4-4l8-2l6-6l6-2l3-2l2-7l1-5l5-3l2,9l5-2l1-7l7-1l1,8l-2,4l-5,4l-5,3h-5l-2,7l-5,1
		l-4,3l-3,1l-2,6l-6-4l-4,4l-3,5l-3,7l-3,5l-4,3l-8-2l-3,4l2,10l4-2l4-4l8-1l5-3l1-7l4-5l3-4l6,5l4-2l1-7l5-3l5-1l2-7h6l4-3l4-3l4-2
		l3-5l6,6l-1,6l-5,2l-5,3l-10,5l5,1h5h8h5l3-4l6,8l-4,4l-5,2l-5-1h-5l-5,1l-6-2l-5-1h-5l-4,3l-1,7l-5,2h-5l-6-1l-1,7l-4,4l-7,2l-4,3
		l-3,3l-5,3l-6-2l3,9l-4,3l1,12l-1,5l5-8l4-3l2-5l3-4l4-2l4-4l4-4l6,1l3-5l2-6l6,1h6l4-2l1-6l3-4l6-1l3,9l-4,2l-1,5l-4,4l-5,2l-4,2
		l-5-2l-3,5l-5,4l-5,1l-4,3l-4,4l-4,3l-2,7l-2,4h-5l-2,6l-6,2l-3,4l1,9l6-3l4-3h5l1-6l5-1l5-1l-3-9l6,2v-7l4-4l4-3l7-1l3-1l2-6l7,3
		l3-3l4-3l4-4l8,2l5,1l6-3h5l2-5l3-5l-8-4l-3,5l-4-1l-3,5l-8-2l3-6v-7h5l4-1l7,1l5,1l2-4l3-5l5,9l-1,6l-1,5v7l-2,4v7l-6-1l-6-1l-5,3
		l-3,6l-6,1l1-9l-4,1l-5,3l2,8l-6-2l-7-2v6l8,4l-3,5l-4,2v7l-4,2l-5,4l-4,6l-2,6l-7,1l1,8l-4,3h-5l-3,3l-6-1l-7,3v-7l3-5h5l4-3h5
		l1-8h6l3-5l4-4l2-6l3-4l3-3l1-7l-6-2l-4,4l-4,2v7l-4,4l-3,6h-6l-2,7l-6,1l-4,2l-6,1l-1,6l-3,4l-3,5l7,5l-3,6v7l5-4h5l4-4h7l-1,7
		l-3,5l-4,2"/>
	<path fill="none" stroke="#000000" d="M19,342h-5l-5,3l-4,3l-1,9h6l4-2l3-4l5,3l3-4l5-3l2-6l1-6l1-7l5-1l4-4l2-7l5-1l2-6l2-6l5-2
		l3-3l5-3l1-6l5,1l-1-8l2-6l5-4l8,1l5,1v-7l3-4l8,1l-2,6l-1,6l-2,5v7l-2,5l-1,6v7l-2,6l-1,6l-4,1l3,8l-4,2l-6-2l-6-1l-2,5l-3,5l-4,4
		l-2,5l-3,4l-6,2l-2,4l-3,5l-1,6l-1,6l-5-1l-3,6v7l-3,4h-8l1-6l2-5l1-6l3-4l4-5l3-4v-7l4-3v-7l6,2l3-4l3-5l4-4l3-4l1-6l4-3l3-4l6,6
		v-6l3-4l3-3l2-5l-1-7l2-5l2-7l-6-2l-4,3l-2,5l2,9l-5,2l-2,5h-5l-4,5l-4,2l-2,5l-1,5l-3,5l-4-1l-1,6l-4,2l-6,2v7l-3,8l-4,5l-3,4
		l-4,4h-6l-5,3l-6-1l-7,3l7,4l-2,6l2,8l5-5l2-7l6-1l4-2l-3,9l-2,5l-4,4l-1,6h-5l-6-4l-3,5l7,5l-1,6l-2,6l-4,3l2,9l6-3l3-5l3-5v-7
		l5,1l3-4v-7l5,1l7-1l1,8l-6,1l-2,6l-5,4l7,4l6-1l1-5l5-1l2,8l5-3l1-6l7,3l5,1l3-5l2-6l-10,1l3-4l6-5l2-6l2-5v-7l2-7l-5-1l-4,5v6
		l-3,5l-1,7l-5-1l-3,5l-1,7l-7,2l-1-7l2-5l2-6v-7l6,2l3-5l1-5v-7h5v-8l6,3l6,2l3-5l-7-4l3-6l4-1l1-6l3-6l7,2l-2,6l-1,6l-1,6l-2,5v7
		l-2,5l-1,6l-1,6v7l-2,6l-2,5l1,8l-3,5l-1,6l-1,6v7l-2,6l-1,7l-5-3l-5,2l-7-3l-6-1h-8v-5l5-3l8,2l5,1l6-2l3-4l1-7l-7-3l-2,5l-4,2
		l-7-1l-6-1l-5,3l-7,1l1-6l-6-2l-3,5l-5,5l-4,3l-5,2l-1,10h6l4-2l4-3l2-6l5,2l5,1l-4,6l7,3l6,2l6-1l7,2l-3,6v6l-2,5l-1,6l-3,5l-4,1
		l-3,5l-3,5l1,7l7-3l3-4h5l2-5l2-5l1-7l2-6v-7l2-7h8l-1,6l-2,5v7l-2,6l-1,6l-1,7l-2,5l-1,5l-6-1l-2,5l-6-2l-4,4l-1,7l-2,7l-5,2l-4,3
		l-4,3l-6-2l2-6l3-4v-6l6,3l4-2v-8l-6-1l-5,1l-7,1l1-6l3-4l2-4l6,4l2-5l1-8l3-5l1-6h5l3-5l1-7l-6-2l-3,5l-7-1l2-7l-4-1l-5,2h-7l-2,5
		l-3,4v8l-2,6h9v-7l3-3l2-6l7,6l-2,5l-2,6l-1,6l-8-1l-3,4l-2,5v8l-1,7l8,4l-3,5H4l5,8l-6,3l4,8l4-3l5,2l5,1l-5,5l-4,2l-8-1l6,6l-4,4
		l-2,3l5,7l-5,3v13l3-5l5-2h5l6-2l7,2l5-2l-2-8l4-4v-7l-7,1l-4,3l1,8l-6-1l-6,2l-2-7l4-3l2-4l4-5l6-1v-6l3-4l4-3l5-5l3-3v-6l2-4l9-4
		l-2,6l-1,7l-1,7l-2,6l-6-1l-2,6l-4,3h11l-3,6l-1,5v7l-3,5l1,8l-3,5l-1,5v7l-2,6l-7-4l2-6v-7l-6-1l-3,4l-5-1h-5l-3,4l-4,3l-1,6l-1,6
		l1,7l6-3l1-7"/>
	<path fill="none" stroke="#000000" d="M11,595l3-4l4-4l8,4l-3,5l-2,4l-4,3l-1,7l-5,2l-4,2l-4,6l1,13l4-5l3-4l4-2l4-3l4-5l3-2l2-6
		l3-5l5,1l-1,8l-2,6l-1,7h-5l-4,5l8,3l-2,6l-8-4h-5l-4,4l-3,4l-7,3l7,3l8-1l3-4l6-1l1,8l-3,4l-6,2l-4,2l-6-2l-4,2l4,8l-2,6v8l6,1
		l2-7v-9l10-4l-2,6l-1,5l-1,6l-1,6l-1,6h-6l-7-3l-3,4l8,5l-3,5l-2,6l2,8l-3,6v9l-2,41l2-8l2-7v-7l1-6l2-5l2-6v-7l3-5l-1-8l2-3l1-6
		l2-6l46,5l4,2l3-1l2-3v-5l-5,2l-4-1l3-4l3-2v-4h4v-4v-4l2-3l5,3l-2,3l1,5l4-3l2-3v-4l1-3l-5,1l-2-6l4-1l5,3v-4l2-1l3-3l4-3l3-3l5,1
		l2-3l4,5l3-3l3-3l5,1l-1,4v5l-4-1l1,5l-4-2l-1,4l-2,2l-4,1l-3,2h-4v-5l3-2h4l3-3l-5-3l-3,1l-4,2l-3,3v4l-2,2l-2,3l-1,4l-1,5l-1,3
		h-4l-2,3l-4-1l-4,1l5,4l-2,2l-1,4l-1,5l-2,3h-4l-5-1l2,6h4h5l4,2v-4l1-3v-4l1-4l3-3l2-1l1-4l5-2v4l-1,4l-4,3l-2,3v5h4l2-4l3-2l2-4
		l1-4l2-2l1-4l3-2l5,1v4l-3,1l-2,3l-2,5l-2,3l-1,3l-2,3l-3,1v4l-2,3l-3-4l-4-1l1,4l-3,3h-4l-4-3l-5,2l4,2l-1,4l4,6l1-4l3-2h4l3-3h4
		l-1,5l-2,3h-4l-3,2l1,5l4-2l1,6l3-2l1-4l3-2v-5l2-3v-4l2-2l1-4l2-3l2-4l2-3v-4l3-2l3-1l2-3v-4h4l3-2l1-3l1-4l4-1l3-3l3-2l4-2l3-2
		v-4l2-3l3,5l2-3l3-1l6,1l-2,3l-3,2l-1,3h-4l-2,3l-2,1l2,5l-2,2l-3,1l-1-7l-3,2l-2,2l-4,2l-2,2v4l-3,2l-5,2l-1,4l-2,3h-4l-1,4l-2,3
		l-1,3l-2,3l-2,3v4l-2,3v3l-3,3l5,2l-2,3l-4,1l-2,3l-2,4v8l6,5l-7,2l-1,7l-2,5l-1,9l-2,7l-1,6l6,7l2-6l1-6l5,1l4-2l4-3h5l4-5l4-2
		l4-3l1-6l-5-2l-4,3l-4,1l-2,6l-5-1l-6,2l-4,2l2-9l3-3h5l1-7l4-5l4-1l5,1l3-3l3,1v5l5,2h5l4,1l1-4l2-3l1-5l4-2l1-4l4-1l1-4l4-2l5-1
		l-1,4l-4,2l-1,4l-4,2l-1,4l-4,2v5l-2,4l6,2l4-1l6,2h5h5l1-5l-5-1h-5h-5l-5-2l4-3l5-1l-4-3l4-2l1-4l4-1v-4h4v-4l4-1l3-2v-5l2-3l3-2
		l3,1v5l-3,2l-1,4l-2,3l-4,2v4l-4,1l-1,4h-4v5l5,1l3-3l2-3l4-1v-4l3-2l2,5l3-3l2-3l-5-2l2-3l2-2v-5l3,1l2-2l1-4l2-3h5l2-1l-2,5l-2,3
		l-1,3l-3,3l-1,3l-2,2l6,1l2-4l3-2l2-3l1-4l2-2v-4l2-1v-4v-5h-4l-2,3l-2,1l-4-2l-2,3"/>
	<path fill="none" stroke="#000000" d="M198,716l-4,1l-2,3l-2,3l-4-5l2-3l2-3h4v-4h4l1-4l4-1v5l4-2l-1-5l-4-5l-2,2h-4l-1,3l-3,2
		l-3,3l-3,3l-3,2l-1,4l-2,2l-3,2l-1,4l-3,3v4l-3,1l-3,4l-2-5l1-4l2-2l2-3l2-3l-4-3l4-2l3,1l3-3v-4l3-2l3-1l2-3v-4l4,1l1-4l4-1l1-3
		l-4-3l-3,2l-3,3l-4-1l2-4l2-3l-4-4l-2,5l-3,2l-3,2h-4l-3,2l-2,2l-2,3l-3,3l-1,4v4l4-1l1-4h4v-4h4v-4h4l4-1l1,5l-3,1l-2,3l-3,2v4
		l-4-1l-2,3l-4,2l2,5l-2,2l-2,3l-1,3l1,5l-2,2l-4-1l-2,3l-4,2l-1,3l-3,4l-3,2l-2,4l-3,3l-2,3l-4,1l-2-5l3-2l3-3l2-3l2-3l4-2v-4l2-3
		h4l1-4l5-1v-4l2-4l2-3v-4l-5-3l-1,3v4l-2,3l-1,4l-4,1l-2,3l-4,1l-1,4l-1,4l-4,2l-2,3l-2,4l-4,2l-4,1l-3,2l-3,2l-6-1l2-3l-4-2l-3,3
		l-1,3l-5-3l1-4l3-2l4-2l2-3l5,1l-1,5l3,1l3-3l3,1l4-1v-4l3-2l4-3l1-4l2-3l1-4h4l1-4l4,1l2-5h-4l-5-1l-3,4l-3,3l-3,2l-3,4l3,1l-2,4
		l-4,2l-3,4l-4-1l2-4v-4h4l-1-5l2-3l4-3l2-3l3-2l2-2l3-2l2-3l-5-2l-3,2l-3,2l-2,2l-2,2l-1,5h-4l-2,3l-2,3l-1,4l-1,4l-2,3l-3,1l-2-5
		l2-3l1-3l1-4l2-3l2-3v-4l5,2v-4l3-3l1-4l3,1l3-2l2-3v-4l3-2l4,2l-2,3v5l4-1l2-4l2-3l3-2l1-4v-4l3-1l3-4l3-2l2-3l3-1l2,5l3-2l3,3
		l-3,4l-5-2l-2,2l-3,1v5l-3-1l-2,3l-1,4l-2,3l-2,3l-2,2l-2,3v5h4l2-4l3-1l1-3l2-3l1-4l2-2l3-3l2-3l3-1h5l2-3l3-1l1-4l-5-2l4-7l3-1
		l2-3h4l1-4v-4l-1-4l3-2l4-1l-4-3l3-2l2-1l2-3l1-3l3-2l-1-5l-4,1l-3,2l-2,1v4l-4,2l-2,3l-4-1l-4,2l-4,2l-2,3h-4l2,5l-1,4h5l1-4l3-2
		v-3l4-2h4l-3,4l1,4v4l-5-2v4l-5,1l-3,2l-5-2h-5l-6-2l5-4h4v-4v-4l2-4l3-1l4-2l4-2l5-2l2-3l3,1l-1-5l4-2l3-2l3-1h4l2-3v-5l-3-1l-2,3
		l-3,1h-4l-2,3l-3,2l-4,1l-2,2v4l-2,3h-4l-3,2l-4,1l-4,1l-1,4l-2,3v5h-4l-1,3h-4l-2,3l-1,5l-6-4l-2,5l-2,2v4l-2,2l-3,1l-3,2l-2,3h-4
		l-2,3l-2,3l-3-1l2,5h-4l-2-5l-3,2h-4l-4,1l-3,4l-2-4l2-4l2-3l3,1h4l4-2h4l3-2l3-3h4l1-4l3-1l2-2v-4l1-4l3-2l5-3h4l4-3l2-3h5v-5h-4
		l-10-3l11-2l5,2l1-4l4-1h4l3-2l4-1l1-3l1-4l2-3l4,1l3-2v-4h4h4l2-3l3-2l2-1l6,2l7-2v5l7-1"/>
	<path fill="none" stroke="#000000" d="M217,612l11,3l-4,2l-6,2l-4,3l-6-4l-1,5l-3,5l8,2l6-1l5-2l3-1l-1,8l-7,1l-7,1l-3,3l6,6l4-3
		l6,1l4-1l3-6l2-5l4-3l2-11h5h5l4-1l2-5l3-4l2-4l3-4l5-1l2-5l4-2l6,3l-2,5l-4,3l-4,4l-3,3l-3,4l-3,4l-2,5l-3,6l-3,1l-7,1l-3,4l-3,4
		l-2,4l-3,3l-2,5l-4,2l-6-3v7l-4-1l-6,8l-2,3h-4l-4,2l-3,2l-6-2l2-3l3-1l3-1l3-2l3-1v-4l-5-1v-4l3-3l-6-2l-2,2v4l2,5l-3,2l-2-5l-3,1
		v4l-1,4l-1,5h-4l-1,5l6,1l4-1l3,1v7l4-2l1-3l2-3l3-2h4l4-1v5l4,6l-3,2h-4l1-5l-3-1l-3,2v4l-3,3l6,2l-1,7l5-3v-4h4l2,5l-2,3l-2,6
		l4-1h4l7-7l4-4l2-4l4-3l6,2l3-3h6l2-6h5l5-1l2-5h5l1-5l4-3l2-5l5,3l8-4l2-5l5-2l5-4l1-6l2-5l-9,7l-4,1l-4,1l-3,3l-5,5l-8-2l-2,6
		l-4,2l-2,5l-5,2l-3,4h-6l-4,7l-8-9l-1,6l-3,3l-5,3l-5,4l-1-9l4-3l3-4l-9-2l3-4l5-1l4-4l3-4l3-3l2-5l3-4l3-4l7,1l3-5l3,8l-6,5l-3,4
		l-3,5l9,3l2-4l2-5l4,1l2-6l7,2l3-3l3-3l6-4l4-2l6,2l2-4l4-3l7-2l4-3l4-1v7l9,4l3-2l4-4l-8-5l-2-7l2-3l4,1l-1,5l4,1l2-2l1-4v-6l4-1
		l4-3h4h4l1,5h-4l-5-1l-2,5l-1,4l-2,3l5,3l3-1v-4l3-2l2,5l3-3h4h4h4l2-4l3-3l1-4v-4l4,2l4-1l4-1l1-3l3-3l1,5l4-1l2-1l2-3l3-1l2-3
		l5,1v-5v-6l2-4l-5-1l-2,4l-2,2l-4,2l-1,6l-3,3l-4-5l-3,3l-3,2l-2,3l-3,2l-5-1l1-3l4-2l1-6l-5,2l-3,2l-3,4v4v4l-1,4l-3-1l-2,3h-5v-4
		l2-3l3-2l2-2l-1-5l2-3l-6-1v5l-2,3l-3,3l-1-5l-4,2l-3,1h-4l-3,2l-3,2l-4,1l-1,4l-5-1v-4v-4l3,1l2-3l3,1l3-2l3-2h4h4l2-3l4,1v-5v-6
		l2-3v-4l2-2l3-1l4,1h4h4l3-2v-4l-3-1l-3,2h-4h-4l-5-1l-3-1l-2,3l-1,3v4l-1,4l-2,4l-3,4l-3,2h-4h-4l-4,1l-6,4l-1-4l-4,1v4l-4-2l-3,2
		l-1,3l-2,4l-2,1l2,5l5,1v-4l1-3l2-4l5,2l-2,3v4l-1,4l-5,2v4l-5,1l-1-6h-6v-7l-8-5l7-1l4-2l2-3l3-4l4-2l2-2h4l2-2l-1-6v-4l2-4h4v-4
		h4l1,5l4-1v-4v-4l2-3l4-3l2-3l4,2l-1,4l-4,2l-2,3v4v4l-1,3l-3,1h-4l-3-1h-4l1,5l5,2h5l4-2l4-2l1-4v-4v-4l2-3l3-3l1-4l1-4h4h4l5-1
		l3-2l4,4l-2,3h-4l-2,1h-4h-4l-1,4l4,1h4h4l4-2l4-2l1-4"/>
	<path fill="none" stroke="#000000" d="M382,552v-5l6,1l-2,4v5l-3,4l3,1l4,1l3-1l4,2l2-3l4,1v4l-1,4l-3-1l-2,3l-1,3l-3,2l-4-1l2-4
		l3-4l-4-1h-4v4l-2,3v3l-4-2h-4h-4l-5-1l-1,3l-1,4l5,1l2-3l4,1h4l5,1h5h4l4-1l4-1v-4h4l1-4l4,1h4l2-2v-4h4h4h4l2-3l2-3h4v-6l-3,1h-4
		l-2,3l-3,3h-4h-4l-4,1l-1,4l-4,1v-4v-4l-5-1l-5-2l-4,2l-4-1l1-4l3-1l1-4l7-1l-2,6l2-1l4,2l2-3l1-5l3-5l3-2l4,1l4-2l3-1l2-3l1-3l4-1
		v-4h-4l-4,3l-2,3l-4,2l-3,1l-4-2l-2,3l-4-3l-2,2l2,4l-4,1l-3-5l-2,3l-2,2h-6l1-3l3-3l2-3h4l3-2h4l2-1l5,1h4l2-1l2-3l3-1l2-3h4l3-1
		l1-4l2-3h4l-1,5l-1,3l-1,3l4,4l-3,1v4l-3,2l-2,2l-2,3l-4,3l-4,5l-3,2l-2,1h-4l-2,3l-1,3l5-1h4l4,1l1-4l3-3h4l4-1l2-1l1-6l2-4l2-2
		l1-4l2-4l2-3l-5-1l1-4h6l2-4l5,2h4l1-4l4-2v4v5l-2,2h-4h-4l-2,3l-2,2v4l-2,1l-2,3l6,2l3-3v-4l2-3h4h4l3-2l4-1l4,1l-3,3l-3,2l-1,4
		l-4-2h-4l-1,4l-1,6l-2,3l-2,2l-1,4l-3-1l-1-7l-4-1l-2,5l2,6l-1,5l-2,5l-5,2l-4-1l-2,3l5,3l-2,3l-3-1l-4-2h-4h-4l-1,4l-2,2l-2,4l5,1
		l4-1l-1-4l3-1h4l-1,5l4,1l2-3l4-1l2-3v-4l3-2l4-2l2-2l1-4l1-5h5l2-3l2-3l2-3l2-3l2-3l5,2l-2,3l-2,3l-2,3l-1,4l-2,1l-2,3l-3,2l-3-1
		v5v3l-2,3h-4l-2,2l-1,3l-2,3l-3,4v6l-2,5l-1,4l-3,2l-4,1v-5l-1-5l2-3l-6-1v5v4l1,5l-2,1v4v5l-1,5l-2,2l-5,1l-2,2h-4l1,7l5,1l4-2
		l1-5h5l3-2l4-1l-4-3v-5v-5l4-1h4l3-2l3-4l2-3l1-5l1-4h4l5,1l4,1h4l4-1l3-2l3-2l2-2l1-3l-6-1l-2,3l-3,2l-3,1h-4l-5-1l-4-1l1-6h4l4,2
		l4-3l-5-2l2-3l-1-4l3-2l3-3l3-4l2,5l3-2l1-4l-4-2l2-3l2-3l1-3l4,2l2-2h4l2-3v-4l3-2l1-4l3-1l2-8l4-1l3-2h4l3-2l3-2l3-2l3-2l-2-5
		l-3,2l-3,2l-3,2l-3,2h-4l-4-3v4l-2,2l-3,2v4h-4l-3,2l-1,5l-2,5v4h-4h-4l1-7l3-4l2-3l-1-4v-4l3-2l1,5l4-2l-2-5l4,1l2-2l2-3l1-4l1-3
		l3-2l2-3l1-4l2-1l2-3l5,1l-2,4l-1,4l-2,2l-2,2l-3,3v4l4-1l3-2l3-2l2-2v-4l1-4l2-3l-2-5h4l2-3l1-4l-6,1l-2,1l-3,3l-2,2l-5-4l-2,4
		l-3,3l-1,4l-2,3l-3,2l-2,3v4l-2,3h-4l-3,2"/>
	<path fill="none" stroke="#000000" d="M483,512l-3,2l-3,2v4l-2,1h-5l1-4v-4l3-2l3-2l2-2l4-1l4-1l-2-4l2-1l2-2l2-3l2-1l2-3l1-7l-5-1
		l-4,3l-1,6l-3,3l-3,3v4h-4l-2,1l-2,3l-3,2l-4-1l-3,2h-4l-1,4l-5-5l-5,2l-7-2h-4l-4,1l-2,3l-1,4h-4l-4,2l-3,1l-2,3l-3,2h-4l-5-2
		l-3,2l-4,2h-4l-3,2l-1,4h-4v4l-2,3h-4h-5v-4l3-2l3,1v-4l2-3h4l2-4l3-2h4l2-1l3-2l2-3l1-5l-5,1l-2,3l-3-1l-2,3l-3-1l-2,3l-3,4h-4
		l-3,3l-2,2l-2,3l-2,4h-4l-1,4l5,1l-5,5l-4,1h-5l-3,3l-5-2l-3,1l-2,3l-1,3l-5-1l1-7l2-1l-8-2l-1,7l-6,2l-1-4l-1-4l2-3l-6,1l-3,2
		l-3,2l-1,4l4,1l3-4l2,5l-2,4l3,1h4l1,6l-2,1l-2,3l-1,3l-2,3v6l-3,2l-3,4l-3,2l-2,1l-2,3l-2,2l-4-1l-4-2l1-4l4,1l2-3l-5-2l-4-2l-2,3
		l-1,4l-5-3l2-3l1-4l-5,1l-3,2l-2-5l-3-1l3-3l3-2l2,5l3-2l4,2l4,2l4,2l2-4l4,2l-2,4l4,2l3-2l1-3l2-6l2-3l2-3l3-3l-5-2l-1-4l-4-2
		l-2,2v4l4,2l-1,4l-3,2l-5-2l3-3l-4-2h-4l-1,3l-6-2l2-3l2-3h4l4,1v-4l2-3l1-3l2-3l2-3l2-3l4-2l-5-4l3-2l2-1l2-3l2-2l3,1h4l3-3l4,2
		l-2,3l-3,3h-4l-4,1l-1,4h5h4l4-3l1,4l3-3v-4l2-3v-4l-3-4l3-1l1-4l-4-1l2-4h5l4,1h5l2-3v-4h-4l-2,3l-4-1l-1-5l-4,2l-1,3h-4l-5,2l1,8
		l-6,5l-2,1l-5-1l-4-3l-2,2l2,4l-2,2l-2,3l-3,2l-1,4v5l-2,3l-2,3l-1,4l-2,3h-4l2-5h-4l-2,3l-1,3v4l-2,3l-3-1l-6-4l2-2l4,1v-4l2-4
		l2-3l4-1h4l2-2l2-3l-6-3l-2,3l-4,1l-3-4l-1,5l-2,3l-1,3l-2,3l-4,2l-3,1l-5-4l3-1l4-1l3-2l1-5l2-3l-1-4l-4,1l-1,5l-2,3l-4,1l-4,1
		l-4-1l1-4h5l2-2l3-2l1-5l-4-4l-2,1l1,4l-3,2l-3,2l-4,2l-1-5l3-2l3-2l-1-6l-3,2l-2-6l-2,3l1,5l-3,1h-5l-6,1l-4,3l-3,3l-1,6l-4,3
		l-2,5l-2,5l-3,4l-2,5l-3,3l-5-1l2,6l-5-1l-1-5l-6-1l-3,3l-4,1l-4-2l2,5l-4-1l-3,3l5,2l-2,3h-6l4,2v4l-4,1l-1,3l-2,4l4,3l2-3l2-3h5
		l1-4l2-5l2-4l4-2l4-2l2,5l-3,3l-2,3l-3,4l2,5l4-2l4,1l3-4l2-4l1-4l4-5l5-2l2-5l2-5l4-2v-6l3-3l3-4l1-6l4-3l4-3l2,8l-4,4v7l-4,2
		l-2,5l-2,6l-4,3l-2,5l-4,4l-6,2l6,5l6,1l2-4l3-4l3-4l4-2v-6l2-5l4-4l1-6l5,2l2,7l-2,4l-2,3l-3,3l1,7l-5,2l-3,4l-3,4l-3,5l-4,3v7
		l6,2l2-4l3-5l3-4l4-3l3-2l2-6l2-5l4-4l4-6"/>
	<path fill="none" stroke="#000000" d="M270,561h4l5,4l-4,1l-3,2l-4,7l-1,6l6,3l-8,1l-2,5l-4,2l-4,3l-3,4l-2,5l-3,4l-6-2l-7-3l-6-1
		h-8l2-4l5-3l3-1l1-6l-7-4l-3,3l-3,4l-5,2l1,7l-6-4l-4,1l-2,5l-5,1v-5l3-3v-6l-6,1l-3,4h-6l-4-1v4l5,3l5,1l-1,5l-4-1v4h-5v-4v-4
		l-5-1l1,5l-4,4l4,1v4h-4l-3,3l-3,3l-1,5l-4,1l-2,1l-4,1l-10-11l-2,4h-5h-5l-5,1l-4,2l-4,2l-6,2h-5l4-7l3-3l3-2l-9-6l4-3l2-5v-6l6,2
		h5l-2-7l2-4l5,1l1,7l5-3l2-5l7-1l2-5l2-4l3-4l1-6v-6l-6,2l-2,5l-3,4l-2,5l-2,4l-7,1v-6l2-5l3-4l3-5l2-5l5-2l2-5l6,5v-6l1-6l3-4l4-2
		l4-4v-8l1-6l1-5l4-4l3-4l1-6l2-5h7l-1,6l-2,5l-1,6l-2,5l-4,2l1,7l-3,3l-1,6l-2,5l-1,6h-5l-2,6l-1,6l-1,6v8l-2,5l-2,5l-1,5l-3,3
		l-5,3l-4,2l-2,5l-3,3l-6-1l-5,3h-6l-2,6l5,3l5-1h5l3-3l6,1l3-3l2-5l4-3l4-2l4-3l2-7l2-5l2-5v-6l1-5l2-4v-6l2-3l14,1l4-3l2,5l3-2
		l1-4l4,2l2-3l1-6l-5-2l-2,3l-4,2l-2-5l3-2l-3-5l6,2l5,1h5v-6l-4-1l-3,2h-4l1-5l2-3l-2-6l4,1l2,5l4,1v-5l2-1l1-4l5-1l2-4l-7-1h-4
		l-2,3l-2,3l-2-7l2-4l1-5l2-5l1-3h4l5,2l-2,4l-2,1l-3,2l-1,4l5,1l4-1l3-4l2-4l-2-6l5,1l1-5l2-4v-7l4-1v-5l5,2v-4l3-2l-2-5l3-1l2-3
		l2-1l1-4l-1-5l-4,3h-4l-2,3l-3,3v6l-5,1l-1,4l-3,2v5l-1,4l-2,3l-1,4h-4l-1,4l-4-2v-6l3-1l2-3l2-3l1-4l-5-1l4-3l3-2l1-4l-4-3h6l4,1
		v-5l-5-1v-4v-4h4l2,5l3-3l4-3h5l4-2l3,1v-5v-4l1-4l1-3l2-3l7,4l5-1l2,10l7,10l11-3l5-2l4-2l4,2l5,1l-7,3l-5,1l-1,5l6-1h7l8,1l3-4
		l4-4l4,1l-2,5l7,2l2-5l3-5h5l4,1l4-5l2-4l3-1v-5l4-2v-7l-3,1l-4,2l-3,2l-1,4l-2,4l-3,3l-4-1l-4,1l-4,3l-4,2l-2-5l3-3l3-3l5-2h5l2-4
		l1-5l4-2l2-1l4-2v-5h-5h-4l-4,3l-2,5l-2,5l-4-1l-3,3l-5,1l-3,3l-3,1l2,6l-1,4l-4,1l-5-1l4-6l-6-1l2-5l3-4l5-2l5-3l3-3l6-1l2-5l1-4
		l4,1l3-3h4l4,1h4l1-5l2-4l4-2l3-1l4-4l2-5l-6-3l-3,4h-5l-2,4l-4,4l-2,4l-6-2l-4,1l-3,3h-5l-1,6l-1,4l-4,1v-6h-5l-1,4v5l-3,3l-5,2
		l-5,2l-1,6l-2,4l-1,5l-6,1l-3,3l-4,1l-5-5l4-1l2-1l3-3l4,2l1-5l-5-3l-5,1l-2,1h-4l-5-4l-1,4l-6-2v-4l-5-1l-1,3l-5-1l-4-1"/>
	<path fill="none" stroke="#000000" d="M248,417l3-4l2-2l2-3l2-3l1-4h5l3-2l4,2l3-1h5l6,3h4v-7l4-2l2-5l5,4l-1,6l-1,5h-4v7l5-1l5-2
		l2-3l2-1l-1-7l1-4l6,1h5l2-5h5l3-4l3-1l6,2l3-3l4-2l2-6h5l1-4l-5-1l1-4h5l3-4l4-2h5l5-2l3-6l3-5l8,5l2-6l5-3l2-7l4-4l6-2l2-5l6,2
		v-6l2-3l4-2h5l3-2l3-3l3-3l4-1v-6h-5l-4,2l-3,3l-4,1l-3,2l-5-3l-2,3l-4,3l-2,5l-5,6l-8,2l-5,2l-1,7l-4,3l-5,2l-7-3l3-6l3-4l3-4l5-6
		l8,1l6-3l2-6l4-2l3-3v-6l1-5l2-5l4-3l6,1v-6l2-3l5,1l2-4l5,3h5l2-5l5,1l1-5l1-4l3-2l4-3h4l2-3v-4l4-2h4l-3,5l5,1l3-2l1-3h5v4l-4,4
		l-4,2l-4-1l-3,2l-4,3l-4,1l-3,3l-2,6l-2,6l-4-1v6l-5-2h-5l-3,3l-5-3l-2,4l-4,4l-5,1l-3,4v5l6-1l3-3l5-3l5,1l3-1l3-4h5l1,6l-3,2v6v6
		l5-1l1-4l2-1l1-5l-1-6l2-4l3-3h5l4-3h4l-1,6l-4,3l-4,1l-3,3v5v5l-2,5l-2,5h-5l-4,2l-5-5l-2,4l-3,2l-4,2l-3,3l-4-1l-3,3v5l-4,3l-3,1
		l-2,4l-5-1l-3,7l5,2l4-2l6,3v-5l3-1l1-5l5-1l-1-6l5,2l2-4l4-3l5-2l1,6l-4,2l-1,4l-3,3l-2,3l-5,1l-1,5l-3,3l-3,4l-6-2l-6,1h-6l-5,1
		l-4,4h-9l-5,3l-3,5l-4,2h-4l-4-1l-4,1l-2,4l5,1h4l3,1l4-1l3-2l4-1l4-2l5-2l3,6l-2,1l-4,1l-3,2l-4,2l-5,4l-3,3l-1,7l-3,3l-4,3l-5,1
		l-2,4l-3,4l1,6l3-4l4-2l3-2l4,1l2-3l5,3v-4l2-6l2-4l2-6l7,1l5-2l2-5l8,5l3-3l2-5l4,1l1-5l3,1h4l3-2l3-4h-4h-4h-4h-5l-2,3h-4l-2,3
		l-3,1l-3-6l3-1l3-3l3-3l4-1h5l3-2l5,2h4l2-4l2-1l1-5l2-4h5l2-4l3-4l2-4l2-6l1-5h4l4-1l2-5l1-5l3-4l1-3l-1-6l4-2l4-3l2-4l2-4l4,1
		l1-5v-5l-6,2l1-5l-5-2l-2,4l-5-1l-5,4l1-5l4-5l5-3h5l5,4v-5l3-3l1-4l4-2v-5v-5l1-4l3-3l3-3l5-1l-1,4l-2,5l-3,3l-1,5l-1,4l-1,5l-1,4
		l-3,4l-1,4l1,6l5-3l2-4l4,1l-1-6v-5l4,1h4l3-3l3-3l1-4l4,2l2-3v-5l-5-2l-1,3h-4l-1,4l-2,3l-3,2l-5-1l1-4l3-2l1-4l3-4l1-4l2-5l-5-1
		v-5h5l-4-5h5l4-2l3-1l3-3l1-4v-4h4l1,6l3-2l1-3l3-2l3-2l3-3l3,1v-5l1-4h4l3-2l4,2v5l-2,3l-4-2l-1,4l5,3l-4,2l-2,2l-4-3l-3,2l-3,2
		l-2,3l-3,3l-1,4l-5-4l-2,3l-2,3l-3,3l-3-1v5l-1,4l-1,5"/>
	<path fill="none" stroke="#000000" d="M507,241l5,2l4,2l4,1l3-3l4,1l-2,5l-3,3l-4-1v4l-1,4l-3,3l-3,1l-1,4h-4l-3,3h-4l-1,4l5,4l3-2
		l3-3h5v5l-3,2l-3,3l-3,2v5l-1,5l-4,1l-6,2v-4v-5l5,1l1-4v-5l-5-1l-2,3h-5v6l-4-2l-2,4l-5,3l-2,4l-2,4l-3,1l-4,2l7,4l-2,4l-4-2v6h-4
		l-1,5l-2,4l-3,4h-5l-3,4l-1,5l-1,5l-4,2l-1,5l-4,3l-3,1l-1,5l6,2l5,1l4-3l-5-2l4-3l1-4l3,1l1-5l1-4l1-5l3-2l4-4l4-3l2-4l3-1l2-5
		l5-2l1-5l1-6l1-5l2-4l6-2l-1,4v6l-1,6v6l-2,4l-5,3l-3,3l-1,5h-4l-4,3l-4,3l-3,4l-2,3v5l-1,4l-3,4l1,5l-3,3l-2,3l-1,5l-2,3l-4,2
		l-2,4l1,6l-5-2l-3,3l-3,4l-3,3l-3,3l-2,5l4,2l3-2l3-3l3-3l3-4h4l-1,6l-2,4l-4,2l-3,3l-5,2l-5-2l-1,4h-4l-2,2l-3-1l-2,3v4l-3,2l-1,4
		l6-1l3-2v-4l4-1h4l3-3l4,2l-2,4l-4,2l-4,1l-3,4l-2,3l-4-2l-1,4h-4l-3,3l-1,4l-2,1l-2,3l-2,4l-4-1l-2,4l-3,3l-6,2l1-5l-6-2l-1,5
		l-1,5l-3,2l-4,3l-2,4l-3-1l-2,4l-3,3l-5-4l3-3v-5l4-3l4-2l4-2l3-4v-5l3-3l5,2l2-1l5,2l2-3l5-1l2-3v-6l2-4l3-5l-6-1l-3,4l-2,5l-2,3
		l-5,1l-1-6l-4,3l-3,2l-6-1v-5l4-1l4-1l4-3l5,2l1-5l3-3l5-1l5-1l3-4l5-2l4-2v-5l4,3l2-2l1-4l-6-3l6-3l3-4l4-3l3-3l3-4l4-2l1-5l4-2
		l4-5l-4,1l-5,1l-1-4l-5-1v4l2,5l-4-1l-1,4l-3,3l-4,2l-3,3l-4,2l-3,4l-5,3l-6-1l-5,4l-8-3v7l-3,2l-3,2v4l6-1l4-2l3-3l7-1h7l-1,4
		l-3,2h-4l-3,1l-2,4l-5,1l-5,2l-2,5l-6,2l-5,1v-5l4-2l4-2l-5-4l-4,1l-3,2l-3-1l-2,4l-2,5l6-2v5l-2,4l-1,4l-5,3l-4-1v5l-5-1l-1,5
		l-4-1v5l-3,2l-3-1l-3,3v5h-4l-6,1h-5l-5-1l-5,1l-5,2l-6,1v-5l-5,1l-3,4l-1,7l-4,7h-4h-4v-5l-5,2v-4l1-4l-4-4l-3-5l1,9l-1,5l-5-2
		l-5-2l-5-3l-1,10l-1,4l-7-3l-2,5l-3,1l-4,2l-1,4l6,1l-4,4l-3,1v4l-3,3v4l-2,3l-4,3l5,2l-2,4l-1,4l-2,1v5l-6-3l-1,5l-2,4v5v6l-3,4
		l-1,4v6h4l2-3l1-4l2-3l1-4l1-3l3-3l-4-2l3-4l5,2l1-6l3-5l3-3h5l5-2l4-2l-1-7h-6l-4,3h-5l2-8l6-2l1-5l6-5l2-5l1-3l3-1l2-3l6,3l-2,1
		l-2,3l-3,2l-2,3v4v4l4,4l1-4l-1-5l3-2l2-2l2-3l2-5l2,5l3-2h4l-1,5h4l4-1l-2,6l3-1l4-1l1-5h5v4l-3,2l-2,4l-2,2h-4l-2,2l-4,1v-4v-4
		l-5,1v-4h-4l-2,3l-3,2"/>
	<path fill="none" stroke="#000000" d="M262,495v4l5-1h4v4l-4,1l-4,1l-2,1l6,4l2-1l4-1l1,4l-2,3l5,2l2-3v-4l-3-4l5,1l3-2l4-1l3,1
		l-2,4l-3,1l-2,3v4l-2,3l4,2l3-2v-4l2-2l3-2l1-3l4,2l3,4v4l-4-2l-2,1l-2,3l-2,3l5,2l2-3l3,4l2-3l3-2v-4l-1-4l3-1l3-2l4-1l1,4l4-1
		l2-3l-4-2l2-4l-2-5l-3,2l-1,3l-3,2l-4,1l-4,2l-3-1l2-4l3-2l4-1l2-4l2-4l5,1l3-3l-5-2l-4-1h-4v4l-1,4l-3,2l-4,1l-3,3l-2,3l-4-4l2-3
		l2-1l2-3l1-3l4,2l1-4l-1-4l-4-1l-5-3l4-3l5,2l4,1l4-1l-1-5l5,2l4-4l-6-4l5-3l7,2l3-1l3-4l5,5l1-4l5-1l-2-6h4l3-2l2-4h4v-5l5,4l1-3
		l1-4l8,1l-3,2l1,5l-2,2l-5,2l-4,1l-3,2l-2,5l-2,3l-4,5l5,1v4l-2,5l-4-6h-4l-5-2l-4,2h-4l-2,3l-4,1l-2,5l4,1l4-1l4,1l1-4l4-3l2,7
		l-2,3l-1,5l-5-2l-2,1l-2,4l4,1h5l5-2l5-4l7,1l3-7l3-4l8,1l1-4l4-1l3-3l3-3h5l1-5l5,2l3-2h5l4,1l-3,5l-3,3l-5-1l-3,3h-5l-3,3l-2,7
		l-4,6h-6l-3,5l-2,5v5l-2,3l-2,4l-3-1h-4l-4-1v5l-1,4h4l1-4l5,1l-1,4v4l5,1l-1,4h-4h-4v-5h-4l-1,4l-1,3l-2,3l6,3l1-4l4,1h4h4l1-4
		l2-3h4v-4l2-1l2-3l4-1l2-3h4l1-3l2-3l3-2l-2-5l-3,2l-3,3l-2,3l-4,1l-2,3l-3-1l-2,3l-3,2l-1,4l-4-1l1-4l2-4l2-3l5-2l-4-2l1-4l5-2v5
		l3,1l2-3l2-2l2-5l5-1l2-5l2-6l4-5h5l3-4l3-3l3-2l-1-7l5-4l6-3l4-2l3-2l3-3l2-1l1-5l4,2l1-4v-5l-5-2l-2,3l-4,3l-2,3l-3,3l-3,2l-3,1
		l-2,4l-7,2l-6-1l7-4l2-4l3-4l2-3l4-1l2-3l5-1l2-4l3-2l5,2v-4l3-3l3-1l1-4l-5-4l5-1l3,1v-5l4-2l2,6l4-3l5,1l4-2h5l2-4l3-3l-5-3l-3,3
		l-3,1l-4,1h-4l-5-1l2-5h4l4-2l3-3l4-2l1-5l1-5l2-4l5-1l1-5l-5-2l-3,2l-4,3l-2,5l-1,5l-3,3l-3,3l-4,1l-1-7l3-3l4-3l1-6l3-4l3-4l5-2
		l-6-4l4-2v-5l1-5l2-4l3-3l4-2l4-1l3-4l2-4l3-3l5,3l-2,6l-3,3l-3,3l-2,4h-4l-4,2l-2,4l-1,4l1,6l1,5l6-1v4l1,5l-1,4l-1,4l-2,3h-4
		l-1,5l-2,6l4,1l3-4l2-3h5h4l3-5l-5-2l4-3l4-1l4-3l1-3l-2-5l-5,5l-5,1l-1-6h5l1-5l5-1l2-5l3-3l5,1l4-1l5-2l1,6l-3,4l-5,1l-4-1l-3,2
		l-1,4l7,1l-3,4v5l-1,5l-4-1l-3,3v5l-3,2l-3,5l-5,2h-6l-3,3v4l-2,4l-2,5l-5,2l-3,2h-4l-5-2l-2,4l-4,3l-1-5"/>
	<path fill="none" stroke="#000000" d="M448,420l-4,2v5l-3,3l-3,1l-1,4l5,1l4-2l3-4l6-2l4-3l6,2l-3,3l-2,3h-5l-4,2l-1,4l-3,3l-3,6
		h-4l-2,4l-4,1l-1,4h-5l-2,5l-5,4l-3,5h-5l-1,4l-3,3l-3,4l1,9l-8,1l-4,4l-4,6l-1,5l3,1l4-1v-3l5,2l1-5l4-4l7-2l2-4l5,1l2-7l-7-3l2-6
		l5,2l2-4l5,3l1-5l3-7l6,1v-7l4-4l4-1l-1,9l4-1l3-3l-2-8l6,2l3-2l4-1l4-1v6l-4,2l-3,6l-4,3l7,5l-3,7l-4,1l-4,1h-4l-1,4l-2,5l-5-2
		l2-4v-5l-5-1l-3,2l-1,5l-6-2l1,8l-1,7l-2,5l-5-1l1,5h-3l-4-3l-2,2l2,4h-4l-2-5l-4,2l2,4l-2,4v5h4l2-2v-3h4h4l2-3h4l2-4l4-3l3-1h4
		l-2-6l4,1l3-4l4,7l3-5l1-7l3-3l4-1h4h4l5,1l-2,6h-6h-5l-2,6l-2,5l5,1l2-3l2-3l2,5l3-2v-4h5l3-3l2-5l2-6l-6-3l8-3l4-2h5l4,1l6,1l5-1
		v-5l5,3l4-1l6-1l4-3l6,2l-2,6l-2,3v4l-2,3l-1,4l-3,2v4l-2,3v4l5-2l2-3l1-3l1-4l2-3l2-3v-4l2-4l4-1v5l-1,3v4l-2,3l-1,3l-2,2l-1,3
		l-2,4l-2,4l-3-1v4l6,7l-4,2l-4,2l-3,2l-4,3l4,1v4l-1,3l-2,2l-3,2l-3,2l-2,3l-1,3l-2,3l-2,2l-2,2l-1,3l-3,2l-4,1l-5,1l-1-4l3-1l4-1
		l2-3l2-4l2-3l2-2l2-3l2-3l3-2l3-2l1-3l-5-2l-2,3h-4v4l-3,2l-2,2l-2,3l-1,3l-2,3l-2,3h-4l-3,2l-4,1l4,4l-2,2l-2,3l-2,3l-4,2l-3-1
		l-3,2v4h5h4l3-2l3-2l2-2l1-3l4,2l4-1l4-1l4-1l3-2l2-3l2-2l2-3l2-5l2-3l3-2l3-1l2-4l2-3v-4v-4l3-2l4-2v5l-2,3v4l-1,4l-2,3l-1,3l-2,3
		l-2,2l-3-1l-2,3l-3,2l1,7l-3,3l-2,3l-2,3h-4l-4,1v4v4v5l-3-1l-4,1l-4,1v-4l4-2l3-2l-1-5l-4,2l-3,2l-4,2v4l2,5l-3,1l-4,2l-3,2l-3,2
		l-3,1h-4l-5-1l-2,1l-4-2l-2,3v4l-2,3l-3,2l-1,4l-3,3h-5l-1,5l3,1l4-1h4l3-2l2-4l1-6l3-2v-4l4,1l4-1h4l-3,5l-4,2l2,8l-4,2l-3,3l-4,3
		l-6,2l-5,1l-4,3l-2,4l-6-1l-3,6l-4,2l-6,1l-4-1l-6-1l-3,3l1,8l-4,1l-1,3l-4-2l-4,1h-5h-4h-4h-4l-5-2l1,5l-3,2l3,4h4v-4h4h4l5,1
		l-4,4h-4l-1,4l-2,1l-1,4l4,1l4-1v-4l5-1l5-2l2-5l5,1h4v-4l2-2l3-3l3-5v6l-1,4l-2,3v4l-2,2h-4l-3,2l-2,4l-5,2l-2,5l-4,1l-6-1l-6-2
		h-4v-5l-4,2l-1-5l5-2l-3-1l-5-2l1-4l-4-3l2-2l3-2l-5-4l4-8l9,3l4-5l-5-2l-5-5l5-1l6,2l3-4l1-6l5,1l-1-4"/>
	<path fill="none" stroke="#000000" d="M388,619l1-4l3-4h5l3-1l4-1l4,1l-2,5l-3,3l-1,4l-4,1v-5l-4,1v4l1,6l-6,1l-3,6v6l5-3l2-3l5,4
		l2-4l3-5l3-3l1-5l2-2l3-4l5-2l3-3l2-4v-4l-4,2l-3,2l-3,2l-1-5l3-3l4-1l3-1l2-3v-4l-1-4l-4,1v4l-4,2l-3,1l-2,3l-3,1v4l-5-1l-3,1
		l-4,1h-4l-3,2h-4l-1,3v6l-3,2l-2,2l-3,1l-4-1h-4h-4l-3,4l-4,10l-13-1l-4,4l-8,3l-5-2l-6,1l-3,3l-1,5l-1,6l-5-1l-3,4l6,6l4-1h5v-8
		l3-3l1-5l6,2l6,1l4-3l4-4l3,8l-1,6l-4,1l-6-1l-6-1l-2,5l-2,3l1,7h-5l-5,1l-5,1l-10,2l-6,5l-1,6l7,2l2-5h5v8l-1,6l-6-2l-6-2l-6-2
		l-4,7h-5l-4,3l-4,2l-6-2l2-6l5-2l4-3h5v-6h6v-7l-2-9l-4,3l-1,6l-5,2l-3,3l-4,3l-3,2l-4-1l-1,6l-6-2l-1,7l6,1v6h-6l-2,5l-4,4v7l-2,5
		h-5l-3-9l3-1l2-5l3-5l1-6l2-5l-6-2l-3,5l-1,5l-4,3h-5l-5,4l-3-1l-3,5l7,1l1,5l-1,3l-6,1l8,5l-2,6l-6-2l-7-2l-4,4l-1,7l-4,2l-2,6
		l-7-4l-3,3l-2,5l-5,1l-4,2l-4,3l-2,6l6,1l4-2h5l3-1l4-3l2-5l6,5l5-3l3-2l4-2l8,1l-8-9l4-2l4-3h10l5-4l5,1l3-4l5-2l1-6l1-6l3-3l2-5
		l6,2l2-5l6,4l4-3l5-3l5-1l3-6l6,1l-1,6l-2,5l-4,3h-5l-3,4l-3,3l-6-3l-1,5l-2,5l-5-9l-2,6l-2,3l-2,5l-4,5l-3,4l-4,3l-4,3v6l-6,2
		l-3,5l-4,4l-2,4l-6,1l-7-1l-6,4h-5l-3,4l-3,4l-6-4l-1,6l-2,5h-5v-9l-5,1l-3,4l-5,3l-1-7l-6,3l-6-3l-5,2l-3,3l7,6l4-3l6,3l-3,5l6,3
		l4-4l4-3l5,2l-1,6l-5,2l-1,5l-3,3l-1,6l-2,5l-4,3l6,6l-4,3h-6l6,7l-5,3l-3,4l-3,4l-3,8l12,7l3-3l1,6l-3,4l-4,2l5,3l-4,3l-2,3l-4-2
		l-2,4l6,3l-2,4l-5-2l-2,4l6,3l-3,3l-2,4l-4-6l-2,4l-4,1l-3,4l4,5l3-3l3-1v7l4-1l2-4l3-3l2-4l2-4l2-4l2-3v-5l2-4h4l2-4l-4-5l3-4v-5
		h5l3-2l4-3l2-4l1-4l3-3l3-3l2-4l6,3l-2,4l-3,3l-3,3l-1,4l-2,4l-3,3l-3,3l-2,4l-4-2l-2,4l6,4l-4,2l-1,5l-2,4h-4v5l-3,4l-2,4l-1,4
		l-3,3l-2,4l-2,3l-3,3l6,3l3-2l2-4l2-3l3-3l1-5l1-4l3-3l2-3l3-3l1-5l3-3l1-5l2-4l2-4l3-3l3-4l2-5l3-3l2-5l3-4v-5l3-2l-1-5l-4-1l-3,3
		l-3,1l-1-7l-5-5l-1,4l1,5l-3,4l-3,3l-3,3l-2,4l-1,5l-3,2l-4,2h-4l2-6l4-3v-5l3-2l2-4l4-2l2-4l-1-5l-12-3l2-5l2-5l3-3l1-6l4-6l2-6
		l6-3l2-4h6l3-4l4-3l6-3h5l5,2l4-3l4-3l2-5l4-3"/>
	<path fill="none" stroke="#000000" d="M244,765l2-5l6-1l1-7l4-3l4-4l3-5l4-3l2-4l5,3l3-5l4-2l4-1l4-3l2-5l6,2l3-4l2-4l1-6l2-5l5,1
		h5l6,2h5l3-5l2-5l4-3l1-6l-5-2l-4,2l-2,6l-3,5l-7-1v-6l3-1l3-5l-3-7h6l5-1l4-5l2-6l3-2l6,1h5l4-2l3,9l-5,1l-5,1h-5l-4,6l7,3l-1,7
		l-1,7l-3,4l-3,3l-3,5l-3,5l7,2l4-3l3-1l2-4l2-5l2-4v-7v-7l3-3l5-2l2,7l-2,4l-1,5l-1,6v7l-3,3l-2,5l8,2l-2,5l-2,5l-4,2l-3,4l-3,4
		l-2,5l-2,5l-2,4h-6h-5l-3,5l-5-1l-2,5l-3,2l-7-1l-4,5l-2,4l8-2l6,2l5-2l4-4h5l2-5l5,2l3-3l2,12l-4-1l-4,3h-5l-3,4l-4,2l-4,1l-6-3
		l-3,1l-4,2l-5,1l-3,4l-3,3l-4,2l-2,5l-3,3l-7,1l-4,1l-5,1l-3,1l-7-1l-2,6l-5,4l-6-3l3-6l3-4l-1-7l7,2l6-2l5-1h6l4,1l3-5l3-4l4-2
		l3-4l6-3l-6-3l1-6l4-2l4-3l6-3l4-2l4-5l5-1l3-4l4-2l5,3l3-4l2-5l-8-1l2-5h6l4,1l3-5l5-5l-5-1l-7,2l-5-1l-4,1l-4,3l-1,6l-2,4l-5,4
		l-3,1l-2,8l-6-1l-5,5l-6,1l-5,3l-4,4l-5,1l-4,4l10,4l-4,3l-4,4l-3,5h-6l-5-1l-4,2l-4,3l-6-1l2-7l4-3l3-4l5,2h5l3-4l-8-4l3-4l4-2
		l3-4l4-2l3-1l4-3l2-3h5l6-1l1-6h5l2-5l6-3l3-4l1-6l4-3l5-4l-6-2h-6l-3,2l-1,5l-2,5l-3,3l-5,3l-3,1l-4,3l-1,5l-5-2l-5,2l-4,4l-5,2
		l-4,2l-2,5l-4,2l-4,3l-1,6l-5,3l-3,4l-4,3v6l-4,2l-5,2l-7,2l-4,2l-5-2l-2,5l-3,1l-4,4h-5l-6,3l-3,4l-3,5l-2,4l8,5l2-5l3-4l4-4l6,2
		l2-6h6l3-4l5,3l3-4l3-4l7-2v7l-3,5l-2,6h-6l-4,3l-6-2l-1,7l-6-1l-6-1l-3,7l5,3l4-2l2,7l4-5h6l1-6l7,3l3-4l5,1l6,2l-2,6l-4,1l-3,4
		l-6-4l-2,5l-6-1l-3,3l7,6h5l4-4l8-1h5l2-4l1-6l3-4l3-3l3-6l6,2l5-3h7l4-2l6-3l2-5l4-3l4-3l3-4l5,1l3-3l6,1h6l4-2l4-3l4-1l4-3l5,7
		l-3,4l-3,2h-5l-4,3l-5,1h-5h-5l-1,6l-6-5l-2,4l-4,2l-4,3l-3,5l-4,3l-4,4l-6-1h-5l-4,4l-5-2l-3,5l-3,4l-2,5l7,4l2-5l3-5l6,3l2-5h5
		l1,8l5,1v-7l4-2l3-5h6v-7l4-2l4-2h6l4-5h5l5-1h5l3-4l6-1l4-4l6,1v6l-4,2l-5,3l-3,3l-5,2l-5,1l-4,2l-6-2v6l-6-2l-5,2l-3,4l-1,9l-5-2
		l-3,5l-3,1l-1,5l-6,1l-3,4l-3,5l-6-2l2-6l2-5l-8-2l-1,6l-3,4l-7-3l-4-1l-5,1h-5l-4-1l-4,2l-4,3h-5l-5,3l-4,2l-4,5l1,15l4,2l4-1l2-4
		l1-5l5,5l3-3v-5l5,4l4-1"/>
	<path fill="none" stroke="#000000" d="M251,863l3-4l3,1l5,2l4-3l6,1l6,3l-3,3l-3,2l-4-3l-2,4l-5,3v-5l-5-1l-2,4h-4l-4,1l-3,3l-5-1
		l-2,4l-3,2l-1,5l-3,1l-2,4l-3,3l-2,3l-4,1l-4-1v-6l3-1l3-2l3-3l4-5h-4l-4-1l-3,3l-4,1l-3,7l-2,2l2,5l-4,3l5,3l-5,3l-1,4v8l4-2l3-2
		v-5l4,1l4-1l-4-6l5,1h4l3-3l3-3l2-4l4-2l2-4l3-2l1-4h4l2,5l4-3l-2-5l4-1l5-1l-1,6h5l3-1l1-5l4,1l3-2l4-2l3-3l4-2l3,5l-2,4l-3,1
		l-4,2l6,4l-3,3l-1,5l-3,2l-5-3l3-4v-5l-5,1l-2,5l-3,2l-4-2h-4l-4,1l-5,2h-4l-3,2l-4,3l-2,4l-3,3l-2,4l-1,3l-5-1v5h-5l-3,2l-3,3
		l-2,4l-3-1l-2,4l3,6l3-2l4-2l2-4l3-2l3-3l6-4v5l-1,4l-3,3l-1,4h-4l-4,3l-5,4l4,1v5l5-1l1-5l4-1l5-2l1-4l3-3l1-4l6,6l-4,4l-1,4l-5,2
		l-1,4h-4l-1,4l-5,1l5,4l5,3l1-4l3-1l3-2v-5l4,1l2-4l-1-5h4l6,1l-3,5l-1,4l-2,4l-3,2l-4,3l-3,3l7,2l3-2l4,3l1-4l1-4l2-4v-5l3-3v-5
		l8-8l4-2l-6-7l-5,4l-1-6l-6,3l-1-7l-1-6l7,3l2-4l4-5l3,7l-1,5l6,6l2-5v-6l4-1l6,2l-1,6l-3,3v6l-3,3l5,14v6l-4-1l-2,4l-1,5l6,1l-1,4
		l6,1l2-4l-5-4l5-1l-1-5l3-3l3,6l4-1l1-4v-7l4,3l2-4l3-3l-6-2l4-4l4-1l4-2l3-4v-5l-5,3l-4,2l-4,1l2-7l5-2l1-4l-3-5l3-5l2-2h4l3-3v-5
		l-8,1l2-1l1-5l3-2l4-3l5,2l-4,4l5,2l4-2h7l-1,4l-1,3l-4,1l-3,2l-4-3l-1,5l-2,4l-2,3h-4l-3,2l3,6l4-2h5l-2,5l-2,4v5l-3,3l-2,4l-4,2
		l-1,3l-2,4l-2,4l-3,3l-1,3l-2,4l-4,2h-4v5l-2,3l2,6l-5-2l-5-1l-4-1l-5-5l-2,3l-7,13l-4,2l-5,3l-2-7l-5,1l-7-3l-6,2l-4,2l-4,1h-5v6
		l-5,3l-8,1l2-3l4-6l-4-1l4-6l5-2l6-1l-7-6l-4,1l-5,2l-4,2l-2,5l-1,5l-7-8l2-5l3-4l2-5l5,3v-6l-7-6l-3-8l-3,5v6v6l-4,3l-3,5l-7-3
		l3-6l4-4v-6l-7,2l-1-7l5-2l5-1l-1-7l5,1l-1-8l-3-10l-3,1l-1,7l-3,8l-4,2l-5,7l1,7l1,7l-1,7l-6-2l-5-1l-3,4l-5,1h-5l5-10l-6-3l6-4
		l6,3l7,2l-2-8l-6-2l-1-7l-6-1l-1,5l-5,4l-6,3l-6-3l4-5l5-3l1-5l-8-4l-2,3l-4,3l-3,1l1,8l-8-5l-1,5l-4,3l-6,3l-3,4l-2,5l-2,5l-4,3
		l-3,1l-7-3l6-8l3-4l2-6l3-4h6l3-5l2-6h7l6-7l-6-5l-2,4h-6l-5,2l-3,5l-2,4l-7,1l-3,5l-6-2l2-7l6-3l3-5l3-5l4-3h6l12-7l5,2l-1-5l2-1
		l1-5l2-5v-5l3-2l1-4l1-4l2-3v-5l1-3l2-4"/>
	<path fill="none" stroke="#000000" d="M145,858l1-4l1-4l1-5l1-4l1-4l1-4l2-3l2-4l1-5l-5-1l-2,4l-3,4l-2,4v5l-3,2l2,6l-5-2h-4l-6-2
		l2-4l5-1l3-4v-5l3-2l2-4l2-3l2-4v-6l5,1v5l5,2l2-4l2-6l-3,1l-5-1v-6l-4-1l-3,3l-4,2l-3,1l-3,3l6,3l-3,3l-2,4l-2,2l-2,5v5l-4,2l-5,2
		l-2,1v5l-5-1l-4,1l2-7l1-4l1-3l6,2l4-2v-5l3-3l2-6h-5l-3,3l-3,3v4l-5-2l-5,1l-1-5l5-2l3-3l3-3l5-2l5,1l1-5l3-3l4-2l4-1v-5l3-12l3-4
		l-10-1l-4,1l-4,3l-2,5l-4,3l-4,3l-3,3l-6,1l-4,4l-4,2l-3,3l-3,4l-4,4l-5-3v7l-3,2l4,16l-2,6h5l3-3l1-4l3-2l4-1l-1-5h5l2,5v6h-4
		l-4,2l6,4l-4,2l-5-1l1,5l-5,2l-1-5l-5,1l-5-2l-2,3l-4,2l-4,1l-2,4l-5-1l-4,5l-3,3l5,4l4-1l-1-5l5,1l4-2l2-3h5l2-3h5l1,5l-3,3l-4,1
		l-3,2l-4,2l-3,2l-3,3l6,3l4-2l3-2l4-3l5-2l3-3l1-4l3-1l3-2l3-3l3-1l3-2l5-1h5l5,1l-4,5l-4,2l-2,8l5-2l4-2l2-4l4,1l1-5l4,2l3-1l-2,6
		l-3,4l-3,1l3,5l-2,4l-1,5l-3,3v6l-1,4l-3,3l-2,4l-3,3l-4-1l1-6l2-3l3-3l2-4l-6-2l2-4h4l2-4l2-3v-5l-6,1l-2,5l-4-2l-2,5l-2,3l3,7
		l-3,2l-4,3l5,4l-3,3l-8,7l-4,2l-3,4l-2,6l-4,3h-5v7l-3,5l-7-5l2-5l1-6l3-6h5l3-4l3-5l3-4l1-6l3-4l-2-8l-7,8l-2,5l-3,4l-5-6l-5,1v8
		l6,1l-6,7l-4,5l-2,7l-16,11l-5-1l-5-4l-4,1l4,5l5,3l6,4l2-2l3-3l4,6l-3,3l6,3l3-3l2,7l3-3l5,2l-2,4h7l-2,4l-11,6l-2,8l7,2l2-5l6,1
		l1,8l-3,4l-5,1l-7-4v7l-2,3l9,1l-1,7h-5l-4,3l-2,8l-2,3l-2,9l6,2l3-2l3-2l-2-8l4-4l6,1l4-1l5-3l4-9l1-4v-7l5-3l2,6l-3,1l2,6l-1,4
		l5-3l3-3v-5l7-4l4-1l3-2l-1-5l5,2l3-3l1-5l-7,1l2-4l5-2l4,1l1-5l7,4l-3,3l-3,4l-2,4l-2,5l-3,3l-3,3l-3,3h-4h-4l-2,4l-2,5l5,1l3-3h4
		l4,2l5,1l-2,4l-2,4l-2,4l-5-2l3-7l-3,2l-5,1l-5-2l-5-2l-4,12l-3,3l-6-4l-3,4h-6h-5v6l7,1h6h6l6,2l4-5h6l6,1l-2,7h-6l-3,4l-8-2h-6
		h-6h-6l-6-2l-4,2h-6h-5l-2,8h5h5h5h5h4h5h5h5h5h5l7,1h4h4h5l-4-10h5h5l-1,10h5h5h4l5-10l1-4l3-2l1-4l10-9l5,1l2-5l-8-4l3-15h-5
		l-2,1h-4l-2,3l-3,3l-1,4l-2,4v5l-2,3l4,6l-3,3l-2,5l-3-6l1-5l-5-2l2-5l2-3v-5l2-3l1-4l3-3l1-4l6-3h6"/>
	<path fill="none" stroke="#000000" d="M164,974l5,1l4-1l2-4l6,4l-2,3l-3,3l6,3l4-1v-5l6,3l-1,4l-3,4l9-1l-2,3l-2,3l-3,3l2,6l-2,4
		l-2,3l-2,5l-3,4l-6,1h-4l-5,1h-5l-2,4l-2,1l7,1l5,1l3-2l4,1h4l3-2l3-4l3-4l3-3l2-4l2-3l-1-5l2-1l1-5l10-2l5,5l4-3l3-1l4-4l5-4l4-1
		l4-3l4-4l7,3l6,6l-3,3l-6-4l-2,4l-3,4h-5l-4,1l1,7l-5-3l-2,5l-5-1l-1,5l-6-3l-1,5l-4,4l8,4l5-1l4-2l3-4l5-2l6-1v-6h6l4-3l4,1l4-4
		l4-3v-6l4-1l4-3l3-4l5,1l-1,7l-4,4l-4,3l-3,7l5,1l5-3l3-4l4-4l1-6l6,1l4-3l5,7l-3,3h-6l-3,5l-3,4l-1,6l-5-1l-5,3h-6l-5-5l-3,4l-6-1
		l-6,2v7l-6-1l-5,1l-4,3l-3,4h-6h-7l-4-1l-5,1h-5l-3,4l-5,4l5,1"/>
</g>
</svg>
