<?xml version="1.0" encoding="UTF-8" standalone="no"?>
<!-- Created with the Eggbot TSP art toolkit (http://egg-bot.com) -->

<svg
   xmlns:dc="http://purl.org/dc/elements/1.1/"
   xmlns:cc="http://creativecommons.org/ns#"
   xmlns:rdf="http://www.w3.org/1999/02/22-rdf-syntax-ns#"
   xmlns:svg="http://www.w3.org/2000/svg"
   xmlns="http://www.w3.org/2000/svg"
   xmlns:sodipodi="http://sodipodi.sourceforge.net/DTD/sodipodi-0.dtd"
   xmlns:inkscape="http://www.inkscape.org/namespaces/inkscape"
   height="281.34375"
   width="240.09375"
   id="svg2"
   version="1.1"
   inkscape:version="0.48.0 r9654"
   sodipodi:docname="MadMen.svg">
  <defs
     id="defs16" />
  <sodipodi:namedview
     showgrid="false"
     showborder="true"
     inkscape:showpageshadow="false"
     id="namedview4"
     fit-margin-top="0"
     fit-margin-left="0"
     fit-margin-right="0"
     fit-margin-bottom="0"
     inkscape:zoom="0.091875"
     inkscape:cx="103.5"
     inkscape:cy="194.84375"
     inkscape:window-width="458"
     inkscape:window-height="426"
     inkscape:window-x="88"
     inkscape:window-y="88"
     inkscape:window-maximized="0"
     inkscape:current-layer="svg2" />
  <metadata
     id="metadata6">
    <rdf:RDF>
      <cc:Work
         rdf:about="">
        <dc:format>image/svg+xml</dc:format>
        <dc:type
           rdf:resource="http://purl.org/dc/dcmitype/StillImage" />
        <dc:subject>
          <rdf:Bag>
            <rdf:li>Egg-Bot</rdf:li>
            <rdf:li>Eggbot</rdf:li>
            <rdf:li>TSP</rdf:li>
            <rdf:li>TSP art</rdf:li>
          </rdf:Bag>
        </dc:subject>
        <dc:description>TSP art created with the Eggbot TSP art toolkit (http://egg-bot.com)</dc:description>
      </cc:Work>
    </rdf:RDF>
  </metadata>
  <g
     transform="matrix(1,0,0,-1,-105.5,394.5)"
     id="g8">
    <path
       style="fill:none;stroke:#000000;stroke-width:1"
       d="m 148,394 2,-2 1,-3 1,-3 -4,-1 3,-3 1,-3 -5,1 1,-4 3,-1 2,-1 2,-3 -5,-1 1,-3 0,-4 2,-2 2,6 2,-2 1,-3 1,-4 1,-3 -1,-4 4,2 1,-3 2,-2 2,-3 -2,-4 3,-1 1,-3 2,-2 1,-3 1,-3 2,-2 1,-3 2,-2 2,-2 2,-2 3,-2 1,-3 3,1 2,-4 -3,-1 1,-4 4,2 1,-3 2,-2 1,-3 2,-1 2,-2 2,-2 2,-2 4,-2 -3,-1 1,-4 2,-2 -1,-4 0,-4 3,0 -1,-4 3,1 2,-3 3,1 0,4 -2,2 -2,4 -2,1 2,4 -2,3 2,4 4,1 -1,3 -2,3 -1,4 1,4 2,-3 4,2 -1,3 -3,3 -3,-1 1,4 -3,2 4,2 -1,3 -4,-1 2,4 -4,1 -1,2 -4,0 -2,2 -4,-2 1,-3 4,-1 2,-2 -6,-2 -2,1 -3,2 -1,3 -2,1 0,4 4,0 3,1 0,4 -4,-1 -3,3 4,1 -1,3 -3,1 -2,3 0,4 4,1 -1,3 4,-2 2,-3 -4,-2 4,-2 2,-2 0,-3 2,-4 2,4 3,0 1,-4 -4,-2 3,-2 4,2 1,-3 2,-2 3,1 1,-3 1,-3 1,-4 0,-4 1,-3 4,0 0,-3 1,-3 2,-2 3,1 1,-3 2,-3 1,-4 -4,-1 -1,3 -2,2 -3,0 -2,3 -4,-2 2,-3 2,-3 3,-1 1,-3 4,0 2,-2 3,3 2,-2 1,-3 2,-2 4,0 2,-2 3,-1 4,2 -2,3 0,4 -4,1 0,-4 -4,1 -1,3 -3,2 1,4 -2,1 -1,3 -1,3 -1,3 -3,2 -3,1 -1,3 -3,3 -2,2 0,4 -1,3 0,4 0,3 -3,1 -3,1 -2,2 -3,2 -1,3 4,2 2,-3 4,-2 3,-2 5,2 -3,2 -2,2 -4,0 -1,4 3,1 3,0 3,0 2,-2 1,-3 2,-2 1,-3 1,-3 1,-3 1,-4 1,-3 1,-5 -2,1 -3,3 -2,3 0,4 -2,3 -2,1 -1,-5 1,-3 0,-4 2,-1 1,-3 2,-2 2,-2 2,-2 3,3 0,-4 1,-3 1,-3 1,-3 2,-3 0,-4 4,0 4,-1 3,1 -3,3 -2,3 4,4 1,-3 2,-2 2,-2 3,-2 1,-3 2,-2 2,-2 1,-3 2,-2 2,-3 2,-3 -2,-4 4,0 0,-4 2,-2 0,-4 2,-2 0,-4 -4,1 -3,1 1,4 -2,2 0,4 -4,1 -2,3 3,2 -1,3 -4,-2 -2,3 3,2 -2,3 -2,1 -1,3 -2,4 -3,-3 1,-3 1,-4 1,-3 -5,-1 1,-3 4,0 2,-2 2,-2 1,-3 1,-3 4,1 0,-4 1,-3 -4,2 -4,0 -1,-4 5,-1 4,-1 3,-1 4,0 1,-3 4,3 1,-3 2,-2 -5,-2 2,-3 1,-3 2,-3 -5,-1 2,-3 4,1 2,-1 4,-1 0,4 -1,3 -2,1 -2,3 0,3 4,-1 3,0 1,-4 1,-4 0,-4 1,-3 2,-1 4,0 1,4 -3,1 -1,3 -1,4 -1,4 4,0 4,0 1,-3 -4,-1 2,-3 3,-1 4,-1 0,4 -1,3 0,4 4,-1 0,4 4,0 2,-2 -1,-5 -3,1 -1,-4 0,-3 4,-1 1,4 4,0 1,4 -2,2 2,4 -1,3 -3,1 -4,0 2,4 1,4 3,-3 2,-2 3,4 -3,2 -1,3 -2,2 2,4 3,1 -3,3 2,5 2,-2 2,-2 4,2 0,4 -3,0 -3,2 -1,10 3,-1 1,-3 4,-1 3,1 -2,3 -2,2 -1,4 4,0 3,-1 1,-3 2,-1 -1,-4 -2,-4 -2,-6 1,-3 -4,-2 3,-2 0,-3 -1,-5 -3,2 -1,3 -2,2 -3,-4 1,-3 3,-2 3,-3 -4,-1 -2,-4 3,0 1,-4 -4,0 0,-4 0,-3 0,-4 -1,-4 -4,0 1,-4"
       id="path10"
       inkscape:connector-curvature="0" />
    <path
       style="fill:none;stroke:#000000;stroke-width:1"
       d="m 327,236 -4,0 1,-4 0,-4 -3,3 -2,3 -2,2 -4,-1 -4,1 -1,-4 4,-1 0,-3 4,2 1,-3 2,-1 -2,-4 -4,-1 -1,3 -4,1 -1,3 -4,0 -4,0 0,-4 4,0 1,-3 4,0 0,-3 -1,-4 -4,-1 0,4 -3,3 -4,0 -2,1 -2,2 3,3 -1,3 -2,2 -3,1 -5,0 2,-3 4,-3 -4,-1 1,-3 2,-3 3,-3 2,-2 4,2 1,-3 0,-4 -4,1 -4,0 -3,1 0,4 -4,0 -2,2 -2,3 -3,-1 1,4 -4,-1 -3,-1 -1,3 -4,1 -1,-4 2,-2 5,-2 1,-3 4,1 -2,-4 1,-3 0,-4 0,-4 4,0 1,-3 2,-3 2,4 -1,4 -4,2 0,4 0,4 4,-1 0,-4 3,-1 1,-4 1,-4 -2,-4 1,-3 3,-1 4,0 0,4 -3,1 1,4 -1,3 -1,4 4,0 2,-3 0,-4 2,-2 0,-4 1,-3 -3,-3 0,-4 -4,0 -1,3 -4,0 -4,1 -1,3 -4,-2 0,4 -2,4 -2,-4 0,-4 1,-4 4,0 3,-1 2,-2 3,1 2,-3 -5,-2 -4,1 -3,2 -4,0 -2,4 -1,4 0,4 2,4 -1,4 0,4 -1,3 -1,3 -2,4 -2,1 -4,2 -2,2 -2,3 4,2 1,4 -4,-1 1,4 -2,3 -1,3 -4,0 3,4 -2,2 -1,3 -4,-2 -2,4 4,1 -1,3 -1,4 -3,-3 -2,4 3,2 -1,3 -3,2 4,2 -2,3 -3,0 1,4 4,1 2,-3 3,-1 1,-3 2,-1 3,-3 3,3 -1,3 -2,2 -2,2 -4,2 -1,3 -4,0 -2,1 -3,2 -1,-4 -2,-4 -1,-4 -4,0 1,4 -4,0 -3,2 -1,3 -1,4 4,0 2,-2 1,-3 4,0 1,4 -2,2 -2,2 -4,1 -3,1 -3,2 -2,2 -4,-2 1,-3 4,-2 -4,-2 2,-2 2,-2 0,-4 1,-3 3,-1 3,-1 -2,-4 -4,1 -3,1 0,-5 -4,1 -2,2 -4,2 0,-4 2,-3 3,-1 0,-3 1,-3 2,-2 2,-2 2,-3 3,-2 -2,-4 4,-5 -1,3 2,4 3,-2 2,-2 -2,-4 3,-2 2,4 3,-2 3,-2 1,-3 2,-2 -1,-4 3,1 1,-4 1,-3 2,-2 5,0 3,-2 2,-2 4,-1 1,-4 0,-4 1,-3 1,-3 -2,-4 0,-4 -4,-1 -1,3 2,4 0,4 -4,-1 -1,-4 -1,-4 -3,1 0,4 1,4 -3,-1 -2,2 -2,2 -4,1 -2,2 -4,0 -2,2 -3,2 -1,-4 2,-3 4,-1 2,-2 4,0 1,-3 2,-1 2,-2 1,-3 1,-4 -4,0 -2,3 -3,-1 0,4 -2,3 -4,-1 -1,3 -4,1 -2,3 -1,4 1,4 -2,2 -3,-3 0,-4 0,-4 2,-2 1,-3 3,-1 2,-2 3,-2 3,0 -1,-4 4,-2 2,-2 -5,-2 -2,2 -3,3 -3,2 -2,1 -2,2 -3,2 -2,2 -1,3 -4,-2 1,-4 2,-2 3,-2 1,-3 3,-1 3,-1 2,-2 2,-2 4,-2 -4,-5 -1,3 -4,0 -1,3 -4,2 0,-4 -3,1 -2,2 1,4 -2,2 -2,2 -2,-4 1,-3 0,-4 1,-3 0,-3 4,2 1,-3 2,-1 2,5 3,-2 2,-2 -1,-4 -3,1 -3,-5 -2,2 -3,0 -1,3 -4,0 0,-4 1,-3 4,-1 -4,-3 -4,0 -1,3 -4,-2 1,-4 2,-2 -5,-2 -1,4 -2,3 -1,3 -3,2 -5,0 1,-3 2,-1 1,-3 2,-2 2,-3 -1,-4 -3,2 -2,2 -3,2 -1,2 -2,2 -2,-5 -2,-4 4,0 3,-1 1,-3 -5,0 -2,-4 -2,4 -2,-4 -2,4 -2,-4 -4,0 0,-4 -4,1 0,4 -1,4 -2,1 -1,3 -4,0 1,-4 -4,0 -2,2 -4,-1 -1,-4 4,-1 -3,-3 2,-2 5,1 0,4"
       id="path12"
       inkscape:connector-curvature="0" />
    <path
       style="fill:none;stroke:#000000;stroke-width:1"
       d="m 158,136 4,0 2,-2 0,-4 -4,0 -2,-4 -3,2 -3,-1 -2,-5 -3,2 -4,6 -1,3 -2,-4 -3,2 -1,3 -4,0 1,-4 2,-3 3,-3 -3,-1 -4,0 -1,3 -1,4 -3,1 -1,3 -2,3 -5,-1 1,-3 2,-1 1,-4 4,-1 0,-4 -1,-4 0,-3 -4,-2 1,10 -4,1 -1,3 -3,4 -4,-1 3,-4 1,-4 -6,0 -2,6 0,6 5,2 4,0 2,9 4,-2 2,-2 4,0 1,-3 1,-3 3,4 3,-1 3,-1 3,-2 2,11 3,0 2,-3 4,1 -1,4 3,0 3,-3 2,5 3,0 0,-3 4,0 1,5 3,0 4,2 2,-2 2,-2 -1,-4 -3,1 -3,2 -2,-4 2,-2 0,-4 3,-1 1,4 4,0 2,4 2,4 -1,3 -2,3 3,1 4,-2 0,4 4,2 4,0 0,3 4,-1 1,-3 3,-2 2,-1 4,2 0,4 -4,-1 -1,3 -2,2 -4,1 4,3 0,4 4,-1 0,-4 2,-3 4,0 -1,4 -1,3 0,4 -4,0 1,4 4,0 -1,4 4,1 -1,3 0,4 4,3 0,4 4,-2 0,4 -2,3 4,3 -2,2 1,4 -1,3 1,4 -4,0 -3,3 -2,4 -2,3 -4,2 4,2 -1,3 -4,0 -1,2 -1,4 -2,3 -2,2 -4,0 2,4 -1,3 -3,1 -1,-4 -3,4 -4,2 4,2 -1,3 -2,2 -3,-4 -1,4 -3,1 -2,2 0,4 4,-1 3,-2 1,4 4,0 -1,-4 3,-2 2,-3 0,-4 4,0 3,-1 1,-3 0,-4 3,-1 1,-3 2,-3 1,-3 3,-1 3,-3 0,-4 1,-3 2,-2 1,-3 2,-2 4,-1 3,-2 -3,-3 2,-2 -1,-4 2,-1 4,-2 0,4 -1,3 1,4 4,1 0,-4 0,-4 1,-3 2,-1 2,-2 2,-2 4,-1 2,-2 4,-1 3,-1 3,-1 3,-1 1,4 -2,2 -4,0 -1,3 -3,-1 -2,2 -4,0 -1,3 -2,1 1,4 -4,-2 -1,3 1,4 -1,2 -1,4 -3,-1 -4,-2 -2,2 -2,2 -3,0 -2,2 -1,3 -2,2 0,3 -1,3 -3,1 -1,3 -3,2 0,3 -2,2 -1,3 -3,1 1,4 -2,2 2,4 -2,2 0,4 0,4 -1,3 -1,3 -1,3 -2,2 -2,2 -2,1 -4,-2 0,-4 0,-3 4,2 2,-2 1,-3 1,-3 1,-3 0,-4 1,-4 -4,0 -1,4 -1,3 -2,1 1,4 -2,2 -4,-1 -4,0 -3,-1 -2,2 -1,3 -4,2 4,2 4,0 1,-3 3,-1 1,4 -1,3 -4,1 -3,1 -4,-3 -4,0 1,4 4,1 -1,3 -2,3 0,4 -1,3 -4,0 0,-4 1,-3 1,-4 -4,2 -2,5 -2,1 -1,3 5,2 -3,3 -4,1 4,3 -3,2 -3,3 4,2 3,-1 2,-1 1,-4 -1,-4 4,0 2,-2 4,0 1,-3 3,-3 -3,-1 2,-3 1,-2 1,-3 4,1 1,-3 4,0 3,1 -2,3 -2,2 -4,1 -1,3 0,4 -3,2 -1,3 -4,2 -2,2 -2,1 -1,3 -1,2 -1,4 -4,-1 -1,4 3,1 -2,4 -4,2 1,-3 -2,-4 0,-4 -4,1 1,5 -1,3 -3,1 2,4 3,-1 4,3 -2,2 -2,2 -4,1 0,-4 -4,0 1,5 1,4 3,1 -1,4 -4,-2 -2,2 -2,2 0,4 -3,1 2,4 -1,3 -1,4 -3,2 -2,2 5,2 -2,2 -3,2 1,4 4,-1 2,-1 -2,5 4,1"
       id="path14"
       inkscape:connector-curvature="0" />
  </g>
</svg>
