<?xml version="1.0" encoding="UTF-8" standalone="no"?>
<!-- Created with the Eggbot TSP art toolkit (http://egg-bot.com) -->

<svg
   xmlns:dc="http://purl.org/dc/elements/1.1/"
   xmlns:cc="http://creativecommons.org/ns#"
   xmlns:rdf="http://www.w3.org/1999/02/22-rdf-syntax-ns#"
   xmlns:svg="http://www.w3.org/2000/svg"
   xmlns="http://www.w3.org/2000/svg"
   xmlns:sodipodi="http://sodipodi.sourceforge.net/DTD/sodipodi-0.dtd"
   xmlns:inkscape="http://www.inkscape.org/namespaces/inkscape"
   height="1038"
   width="386"
   id="svg2"
   version="1.1"
   inkscape:version="0.48.0 r9654"
   sodipodi:docname="MadMen4.svg">
  <defs
     id="defs92" />
  <sodipodi:namedview
     showgrid="false"
     showborder="true"
     inkscape:showpageshadow="false"
     id="namedview4"
     fit-margin-top="0"
     fit-margin-left="0"
     fit-margin-right="0"
     fit-margin-bottom="0"
     inkscape:zoom="0.5"
     inkscape:cx="194.5"
     inkscape:cy="528.5"
     inkscape:window-width="1366"
     inkscape:window-height="721"
     inkscape:window-x="-4"
     inkscape:window-y="-4"
     inkscape:window-maximized="1"
     inkscape:current-layer="svg2" />
  <metadata
     id="metadata6">
    <rdf:RDF>
      <cc:Work
         rdf:about="">
        <dc:format>image/svg+xml</dc:format>
        <dc:type
           rdf:resource="http://purl.org/dc/dcmitype/StillImage" />
        <dc:subject>
          <rdf:Bag>
            <rdf:li>Egg-Bot</rdf:li>
            <rdf:li>Eggbot</rdf:li>
            <rdf:li>TSP</rdf:li>
            <rdf:li>TSP art</rdf:li>
          </rdf:Bag>
        </dc:subject>
        <dc:description>TSP art created with the Eggbot TSP art toolkit (http://egg-bot.com)</dc:description>
      </cc:Work>
    </rdf:RDF>
  </metadata>
  <g
     transform="matrix(1,0,0,-1,-0.5,1037.5)"
     id="g8">
    <path
       style="fill:none;stroke:#000000;stroke-width:1"
       d="m 5,1037 5,0 5,0 5,0 5,0 5,0 5,0 5,0 5,0 5,0 5,0 5,0 5,0 5,0 5,0 5,0 5,0 5,0 5,0 5,0 5,0 5,0 5,0 5,0 5,0 5,0 5,0 5,0 5,0 5,0 5,0 5,0 5,0 5,0 5,0 5,0 5,0 5,0 5,0 5,0 5,0 5,0 5,0 5,0 5,0 5,0 5,0 5,0 5,0 5,0 5,0 5,0 5,0 5,0 5,0 5,0 5,0 5,0 5,0 5,0 5,0 5,0 5,0 5,0 5,0 5,0 5,0 5,0 5,0 5,0 5,0 5,0 5,0 5,0 5,-1 4,-5 -2,-11 -5,1 -3,5 -6,-1 -6,0 -7,0 -7,0 -7,0 -7,0 -7,0 -7,0 -2,-9 7,0 0,-9 7,0 0,9 7,0 0,-8 7,-1 6,0 -5,9 7,0 7,-2 6,1 3,-5 5,0 8,2 -8,-10 6,1 2,-5 -1,-9 0,-7 -7,3 -2,6 -5,0 -2,7 -4,2 -3,4 -7,-5 1,-8 4,-4 3,-4 4,-4 4,-3 5,-1 2,-5 8,4 -2,-9 2,-6 0,-9 -2,-9 1,-6 0,-7 1,-8 -6,-1 -5,2 -7,-2 -8,-4 -6,-2 -3,6 -8,2 -5,2 -5,3 -2,7 -4,3 0,7 -4,4 -3,5 -4,1 -7,-1 -6,0 -6,-1 0,8 -6,-2 -5,3 -4,5 -1,7 8,5 2,-6 5,-2 4,1 5,-6 5,-1 6,0 6,1 5,-2 3,-6 4,-5 2,-7 3,-5 2,-6 6,-2 6,-3 7,3 0,-8 8,4 8,2 0,8 -8,-2 -6,5 -7,-2 -7,2 9,7 -6,3 -6,0 -3,5 -3,6 -4,5 -3,6 -3,4 -6,-1 -6,-1 -4,2 -5,0 -4,6 -5,-1 -2,6 -6,0 -8,-5 -5,-1 -2,6 -6,0 -5,5 -1,6 9,0 5,-1 7,1 1,-6 8,6 5,-1 7,1 1,-6 5,-5 6,0 5,-1 5,0 7,3 3,-3 2,-6 2,-7 4,-4 3,-6 4,-4 6,-3 5,-4 5,-1 1,-7 8,2 0,7 -1,8 -7,0 -4,4 -5,3 -3,4 -4,3 -3,5 -3,5 -1,7 -2,5 -6,2 -7,-2 -5,1 -7,-1 -5,1 6,9 -7,0 -7,0 -7,0 -7,0 -7,0 -7,0 -7,0 -7,0 -7,0 -1,-10 -5,1 -1,9 -7,0 -7,0 -7,0 -7,0 -7,0 -7,0 -7,0 -7,0 -7,0 -7,0 -7,0 -7,0 -7,0 -7,0 -7,0 -7,0 -7,0 -7,0 -7,0 -7,0 -7,0 1,-9 5,-1 7,1 1,-6 8,6 5,-1 7,1 1,-6 8,6 5,-1 7,1 1,-6 8,6 5,-1 7,1 1,-6 8,6 5,-1 7,1 1,-6 8,6 5,-1 7,1 1,-6 8,6 5,-1 7,1 1,-6 5,-5 6,0 2,-6 5,1 6,-5 2,-6 3,-3 2,-7 2,-7 4,-4 3,-5 4,1 5,-5 5,0 2,-6 6,-1 1,8 7,-2 5,-4 -8,-6 7,-3 4,-3 3,-4 3,-4 5,-3 10,1 3,-6 3,-6 7,2 4,-5 5,1 -1,9 7,1 3,-5 6,4 6,2 -1,-9 1,-8 -9,3 3,-6 6,-6 -1,-9 2,-7 -8,4 -1,8 -6,-2 0,8 -3,7 -8,-5 3,-5 0,-8 -6,-3 -4,4 -1,7 -1,6 -3,3 -7,-4 -1,7 -3,6 -3,5 -7,-4 -5,3 -5,0 -2,5 -3,5 -4,6 -7,2 -5,0 -6,4 -3,1 -3,5 -7,-1 -3,7 -4,3 -3,5 -1,6 -3,5 -3,6 -1,7 -11,-1 3,-3 2,-7 1,-8 4,-5 0,-8 4,-4 4,-5 3,-3 2,-7 6,3 2,-7 9,1 5,-5 7,1 5,-2 1,-8 2,-6 3,-4 6,1 6,-2 6,1"
       id="path10"
       inkscape:connector-curvature="0" />
    <path
       style="fill:none;stroke:#000000;stroke-width:1"
       d="m 322,894 3,-4 2,-7 7,-3 3,-5 2,-7 3,-5 7,0 5,-6 2,-7 8,2 -2,8 -5,8 6,1 6,-6 4,-4 4,-1 1,-8 -10,-3 3,-5 6,-1 0,-7 1,-8 -9,0 -2,6 -5,4 -2,6 -5,-1 -6,6 -3,7 -6,0 -6,3 -2,8 -4,5 -3,4 -6,4 -3,4 -5,0 -4,3 -10,-1 3,-5 2,-7 6,-2 8,-2 3,-6 4,-3 4,-5 4,-7 5,-4 5,1 4,-7 2,-5 4,-3 7,-3 3,-5 9,-1 6,-3 1,-6 0,-7 1,-8 -7,-2 -9,-3 2,-6 7,0 6,2 0,-8 1,-6 1,-6 1,-7 -7,-2 6,-6 -6,-1 -7,-2 -1,6 -6,-2 -3,4 -7,0 -7,3 -4,4 1,7 -6,-4 -2,6 -6,2 -2,7 -2,6 10,-2 4,-3 5,-4 8,-2 -2,-8 4,-4 6,1 5,0 4,-4 7,3 -2,6 -3,4 -5,1 -7,-2 1,8 -3,7 -5,-2 -5,3 -2,6 -5,1 -7,-3 -1,8 -4,3 -3,6 -7,3 0,9 -5,3 -3,5 -4,6 -5,4 -7,-3 4,-7 5,-4 1,-9 4,-3 3,-3 6,-6 4,-5 2,-8 -6,-2 -5,5 -4,6 -3,-9 4,-7 6,-6 3,-4 3,-4 1,-7 6,1 2,-6 4,-3 5,-3 6,-1 4,-4 5,0 3,-5 5,0 3,-5 6,3 6,1 6,2 1,-7 -6,-3 5,-5 0,-7 1,-5 0,-6 1,-6 -1,-7 -5,2 -2,5 0,6 -7,-2 0,-6 2,-6 2,-5 4,-1 6,1 1,-5 -1,-7 -6,3 -5,0 -6,2 0,7 -3,4 -1,6 1,7 -3,5 -5,1 -5,-1 -6,0 -1,7 -5,0 -6,-2 -3,4 -6,-3 0,7 -5,0 -4,3 -3,5 -5,-1 0,-9 3,-4 4,-3 2,-3 6,-3 6,-1 2,-5 6,6 2,-4 4,-2 5,0 -1,-5 2,-1 -1,-2 1,-1 1,-2 -1,-2 -2,0 0,2 -2,0 -1,2 -1,2 -1,1 -2,0 -6,-1 -3,1 -6,0 -2,5 -5,-3 -2,5 -5,-1 -4,4 -3,4 -3,5 -1,5 -6,2 -6,1 -2,6 -3,4 -2,6 -4,1 -5,2 -5,1 -5,0 -6,-2 1,7 -6,1 -6,4 -3,6 -3,4 -7,-3 -3,5 -7,-2 -5,6 -9,-1 1,-7 7,-1 7,-6 3,-5 7,2 4,-3 8,-2 3,-6 1,-6 3,-3 6,2 5,0 5,0 4,-3 5,-2 3,-7 1,-6 5,0 6,-1 2,-6 3,-4 4,-5 3,-2 5,-3 2,-4 6,1 4,-3 5,-1 3,-3 7,2 -1,2 2,0 1,-2 1,-1 -1,-2 2,-1 1,-2 3,1 -1,1 0,2 -2,0 1,2 0,4 2,-1 1,-2 0,-2 1,-2 1,2 1,2 2,-1 0,-1 -1,-2 -2,-2 1,-2 1,2 2,0 0,-2 0,-2 2,0 1,2 1,2 -2,0 0,2 -1,1 1,2 0,2 -2,0 1,2 1,2 1,1 -2,1 2,2 -1,6 5,0 0,-7 1,-4 -1,-2 -2,1 0,-2 -1,-2 1,-1 0,-2 5,0 1,-6 4,-3 5,-3 6,1 3,-4 5,2 0,-6 1,-5 0,-6 2,-5 -7,-1 -5,-2 4,-4 5,0 2,-4 0,-8 -3,1 -4,4 -6,2 -3,3 -1,6 -6,1 -3,5 -3,1 -5,-2 -6,1 1,2 0,2 1,2 1,2 -1,1 1,2 1,1 4,-3 3,-1 6,1 3,-5 3,-2 5,-1 5,2 -2,5 -4,2 -3,3 -6,3 -5,1 -4,3 -3,-1 -1,2 -1,-2 0,-2 2,-1 -2,-2 -1,1 -2,0 -1,-2 1,-1 -1,-2 -1,-2 1,-2 -2,0 0,-2 1,-2 -1,-1 0,-2 1,-2 0,-2 -2,-2 0,-2 -2,2 1,2 1,2 -2,1 -2,1 2,1 -1,2 2,0 -1,2 -1,2"
       id="path12"
       inkscape:connector-curvature="0" />
    <path
       style="fill:none;stroke:#000000;stroke-width:1"
       d="m 336,662 2,0 0,2 0,2 2,0 -1,2 1,2 0,1 -2,1 -1,-2 -2,0 1,-2 0,-2 -1,-2 -1,2 -2,-1 0,-2 1,-1 -1,-2 2,0 0,-2 -1,-2 -1,1 -2,0 0,2 0,2 -2,0 -2,0 1,-2 -1,-2 2,0 1,-2 1,-2 2,1 2,-1 2,-1 -1,-2 -1,-2 2,-1 -1,-2 2,0 2,-1 -2,-1 1,-2 -1,-2 0,-2 -1,-2 1,-1 -2,-2 -2,0 0,-2 -1,-2 -1,2 -1,2 -1,2 2,0 2,0 1,2 0,1 -2,0 1,2 2,1 0,1 -1,2 -1,-2 -2,1 1,2 1,2 -2,0 -1,1 1,2 2,1 -1,1 -2,0 -2,0 0,2 -2,1 -1,1 -1,-2 1,-2 0,-1 2,-1 1,-1 -1,-2 -2,1 0,-3 -2,1 0,-2 0,-2 -2,0 0,-2 2,-1 -2,-1 -2,0 0,-2 2,-1 -1,-1 0,-2 2,1 1,2 0,2 2,0 1,2 1,2 -2,0 1,2 1,2 2,0 0,-2 1,-2 -1,-1 1,-1 -1,-2 -2,0 -1,-2 -1,-2 2,0 0,-2 2,0 0,-2 0,-2 -2,0 -1,2 -2,0 0,2 -2,0 -1,-2 -2,0 -1,1 -2,0 1,2 0,2 -2,0 1,2 1,2 1,2 1,2 1,2 1,2 0,2 2,1 -1,1 0,2 -3,3 0,7 -4,2 -3,4 -4,2 -5,3 -6,-2 -3,1 -5,3 -3,3 -2,4 -5,1 0,-2 1,-2 -2,0 -1,-1 1,-2 0,-2 2,-1 0,2 1,2 1,-2 1,-2 -1,-1 2,-1 2,-2 -2,0 -2,-1 0,-2 2,1 2,-1 1,-1 1,-2 2,-2 -3,0 0,-2 0,-2 2,0 3,-2 -3,0 0,-2 1,-2 1,-2 4,0 -1,-3 -1,-2 0,-1 0,-2 2,0 2,-1 1,2 -2,1 0,2 3,1 0,-2 2,0 1,-1 2,0 0,-2 -2,-2 -1,2 -2,-1 0,-2 2,-1 -1,-2 -2,1 -1,-2 -2,1 1,2 0,1 -2,1 -1,-1 -2,1 -1,2 0,2 1,2 1,2 -2,0 -1,2 -2,0 0,2 0,2 -2,0 1,2 -1,2 -1,2 1,2 0,2 -2,1 0,-3 -1,1 -2,1 0,1 -1,2 -1,-2 -2,1 -1,-2 -1,-1 -2,1 -1,1 2,1 0,2 -1,1 -2,1 -2,-1 0,-2 2,0 -1,-2 -1,-2 0,-2 0,-2 0,-2 -2,0 0,-2 -3,0 1,2 -2,1 1,2 2,-1 1,2 -2,1 -1,1 -2,1 -1,-2 1,-2 -2,-1 -1,2 0,2 -2,1 -2,-1 1,-2 -3,-1 -1,2 1,2 -1,1 2,1 2,0 0,2 -1,1 -1,2 1,1 2,0 1,-2 2,0 -1,-2 -1,-2 2,-1 1,2 1,2 1,2 -2,1 -1,1 -2,1 -1,1 1,2 1,1 0,2 -1,1 -2,0 1,2 -2,1 -1,-2 -2,1 -2,1 -2,0 -1,1 0,2 -1,2 -1,-2 -2,1 1,2 -2,1 -1,-2 -1,-2 2,-1 2,-1 1,-2 1,-1 0,-2 1,-2 -1,-2 -2,0 1,-2 0,-2 -2,0 0,-2 2,-1 1,1 2,0 0,2 0,2 0,1 1,2 1,2 -2,1 1,2 2,-1 2,-1 2,-1 1,-1 -1,-2 -1,-2 -1,2 -1,2 -1,-2 0,-2 1,-2 -2,0 1,-2 2,-1 -1,-2 -2,1 -2,0 1,-2 -1,-1 1,-1 1,-2 -1,-1 -2,1 -1,-2 2,-1 2,0 0,-1 0,-2 -3,0 2,-2 -1,-1 1,-2 2,1 2,0 -1,2 0,2 1,2 1,-2 1,-2 0,-2 0,-2 2,0 -1,-2 -1,-2 -2,0 0,2 -1,2 -2,-1 0,-2 1,-2 1,-2 2,1 1,-2 -2,-1 1,-2 1,-1 0,-4 3,0 0,2 -1,1 1,1 -1,2 0,2"
       id="path14"
       inkscape:connector-curvature="0" />
    <path
       style="fill:none;stroke:#000000;stroke-width:1"
       d="m 256,640 0,2 0,2 3,0 -1,-4 1,-2 1,-2 0,-2 -1,-2 -1,-2 1,-2 1,2 2,2 2,-2 -2,-1 -1,-2 -1,-2 2,0 2,-1 0,2 6,2 1,-5 2,-4 1,-2 2,-1 -1,-2 -1,-2 2,0 0,-2 1,-2 -1,-1 2,-1 -2,-1 1,-2 2,1 2,0 0,2 -1,2 0,1 -2,1 1,2 2,-1 2,-1 0,-2 0,-2 2,0 -1,-2 -1,-2 -2,0 -2,-1 -2,0 1,-2 1,-1 2,0 1,2 2,-1 -1,-2 1,-2 0,-2 0,-2 0,-1 2,-1 1,2 0,2 2,0 -1,2 -2,0 0,2 0,2 -1,2 1,2 1,2 1,-2 0,-2 1,-1 -1,-2 2,-1 1,-2 2,0 -1,-2 1,-2 -2,0 -2,0 0,-2 1,-1 -2,-1 1,-2 -1,-2 -1,-2 2,0 0,-2 2,1 1,2 -1,1 0,2 2,1 -1,2 2,0 2,-1 1,-1 2,-1 1,1 -1,2 -2,1 -2,1 0,1 0,2 0,2 1,2 -2,1 -2,-1 -1,2 1,1 0,2 -1,1 -1,2 2,0 1,2 1,-2 2,0 1,-1 1,2 -2,1 -1,2 -2,0 -2,1 -2,-1 1,-2 -2,0 -2,1 1,2 -2,0 0,2 0,2 -2,0 -1,-1 1,3 -2,0 -1,-2 -2,0 0,2 1,5 -1,5 -1,5 1,7 -5,-3 -3,2 -4,2 -1,6 1,6 2,-1 3,0 -1,-2 2,-1 1,2 2,0 0,-2 1,-1 1,2 2,-1 1,-2 2,1 0,2 -2,0 -1,2 -1,1 1,2 0,2 -2,0 0,2 -2,0 -1,-2 0,-1 2,-1 0,-1 -2,-1 -2,1 -2,0 -1,1 1,2 2,0 0,2 -2,1 1,2 2,-1 2,0 2,1 2,0 0,-2 2,0 0,-2 2,0 0,-2 -2,-1 1,-1 0,-2 2,0 1,-2 -1,-2 0,-2 1,-2 1,2 1,2 1,-2 0,-2 -1,-2 -2,0 -1,-2 1,-2 2,0 0,2 2,0 1,-2 2,-1 0,-1 0,-2 2,0 2,-1 -1,-2 -2,1 -1,-1 -2,1 -1,2 0,2 -2,0 -2,-1 0,-2 1,-2 1,2 1,-2 1,-1 2,-1 0,-1 -2,-1 -2,1 -1,-1 2,-2 2,0 1,-3 -1,1 -2,0 0,-3 2,0 0,-2 0,-3 2,-1 2,-1 1,2 -2,1 -1,1 1,2 2,-1 0,2 -2,1 1,1 0,2 -1,1 2,1 -2,1 1,2 2,-1 1,2 1,2 1,2 2,-1 0,-1 -1,-2 -1,-1 -1,-2 0,-1 -1,-2 -1,-2 2,-1 0,-2 -1,-2 0,-1 1,-2 -1,-1 0,-2 2,-1 1,2 1,2 2,-1 0,-1 2,-1 2,-1 2,-1 1,2 -2,1 -2,1 1,2 -2,1 -1,-1 -2,1 -2,0 0,2 1,2 -1,2 -1,1 1,2 1,2 1,2 1,-2 0,-2 0,-1 -1,-2 2,-1 -1,-2 1,-1 2,0 1,2 0,1 0,2 -2,0 1,2 2,1 2,-1 0,-2 0,-2 2,-1 2,-1 1,1 1,-2 0,-2 -2,-1 -2,0 1,2 -2,1 -2,1 -1,-2 2,-1 -1,-2 2,-1 1,-2 0,-2 2,1 0,3 2,0 2,1 0,2 1,2 -1,2 0,1 -2,1 -2,0 0,2 -2,-1 0,2 -1,2 -2,1 0,1 -2,0 -1,-2 -1,2 0,2 -2,0 1,2 0,2 -2,0 1,2 1,2 1,1 1,2 1,2 0,3 -2,4 -3,4 -4,3 -1,7 5,1 4,-4 4,-3 3,-4 0,-6 5,-2 0,-1 -1,-2 -1,-2 -1,-2 -1,2 0,2 -2,-1 -2,1 -1,-1 -1,-2 -1,-2 -1,-2 0,-2 2,-1 -1,-1 1,-2 2,1 0,2 0,2 -1,1 0,2 2,2 1,-1 0,-2 2,0 -1,-2 -1,-2"
       id="path16"
       inkscape:connector-curvature="0" />
    <path
       style="fill:none;stroke:#000000;stroke-width:1"
       d="m 312,632 2,-1 0,-1 -2,-1 0,-2 2,0 0,-2 2,1 0,-2 1,-2 2,-1 2,-1 0,-2 0,-2 0,-2 2,2 1,2 2,-1 2,1 -1,1 -2,1 -2,0 0,2 -1,1 -2,0 -2,1 1,2 2,-1 1,1 2,0 1,-2 2,0 -1,-2 2,-1 1,1 1,2 1,2 3,-3 3,-3 3,-3 -9,-3 3,-4 5,0 4,0 4,-2 2,-5 6,2 -1,5 -2,4 -5,2 -2,4 -2,5 -3,4 2,8 4,-2 2,-3 2,-6 3,-5 5,-4 4,-2 -1,-6 3,-1 5,-1 1,6 -2,4 -3,5 -6,1 -3,5 0,6 -2,2 -3,5 -4,3 -2,3 8,1 5,-3 2,-3 2,-6 0,-6 5,-1 1,6 5,-3 -2,-7 4,1 5,1 2,-4 -6,-4 0,-6 6,3 -1,-6 1,-6 -7,2 1,-5 3,-4 3,-1 0,-6 0,-6 1,-5 -6,2 -1,5 -2,3 -2,4 -2,5 -2,3 -5,-1 -5,0 -6,-4 -3,1 -6,1 -2,4 -5,0 -4,0 -3,2 -3,3 -3,2 -5,-4 0,-6 5,0 3,-5 5,0 5,0 4,-3 3,-1 6,-1 1,-5 3,-3 3,-3 4,-3 2,-3 6,1 -1,6 -5,2 -2,4 -4,3 1,5 6,-1 3,-2 2,-5 3,-5 3,-5 4,-1 4,-2 1,-5 -5,-1 -5,2 -5,-1 -4,0 -6,-1 -4,4 -3,3 -3,4 -4,3 -1,4 -7,-1 -3,4 -5,0 -6,0 -2,5 -6,-1 -2,5 -2,3 -2,5 0,1 -2,1 -1,-2 0,-2 -2,-2 -1,-1 -1,2 0,2 2,0 0,2 1,2 -2,1 -1,-1 -1,-2 -1,-2 -1,-2 -2,1 -2,0 1,-2 2,-1 2,0 0,-2 2,-1 -2,-1 -2,0 1,-2 0,-2 2,-1 1,2 0,2 2,0 1,-2 -1,-1 2,-1 -3,-1 1,-1 -1,-2 2,-1 1,2 3,1 5,-3 3,-1 5,-3 4,-1 5,0 3,-4 5,2 1,-5 4,-1 3,-4 4,-3 3,-3 5,-2 4,0 5,0 5,2 3,-3 2,-3 5,4 0,-5 0,-5 1,-5 0,-6 -1,-6 -4,5 -1,5 -1,5 -3,2 -3,5 -7,-1 1,-4 3,-2 1,-5 4,-2 0,-6 2,-4 2,-1 2,-4 5,2 0,-5 -1,-5 1,-4 0,-5 -6,1 0,-5 4,-2 2,-1 0,-6 1,-5 -6,-1 0,5 -3,3 -4,1 1,6 -3,2 -3,3 -5,-2 0,-5 3,-1 3,-3 2,-6 3,-2 1,-5 5,-1 5,-1 -5,-4 5,-2 0,-5 -5,1 -4,1 -2,4 -3,2 -2,4 -3,3 -1,5 -3,3 -4,0 -5,-2 -3,-1 -3,4 -4,2 -4,2 -3,4 -4,2 -4,0 0,5 -3,3 -4,2 -3,3 -5,-2 0,-5 4,-1 3,-2 3,-2 -1,-6 2,-2 2,-5 4,-2 -1,8 4,-2 2,-4 3,-1 4,-2 2,-2 1,-4 0,-5 2,-1 1,-5 1,-5 6,0 3,-3 0,-5 5,0 5,-1 1,-4 5,2 0,5 -6,2 -5,2 -1,5 -3,3 -5,-1 0,5 -1,3 -2,4 6,3 3,-2 0,-5 3,-1 3,-3 2,-5 2,-2 4,-3 5,-1 5,0 1,-4 -6,-2 4,-3 3,-1 -1,-6 0,-5 1,-4 0,-6 -4,1 -2,4 -5,0 0,-5 2,-3 4,-2 4,-1 1,-5 -5,0 -5,2 -1,-5 4,-2 3,-2 3,1 0,-5 1,-4 -4,-2 3,-4 1,-4 0,-5 -5,-3 4,-2 0,-4 0,-4 0,-4 1,-3 -1,-5 1,-4 0,-5 -4,-1 -2,3 1,5 -1,4 -5,0 -3,3 -2,3 -2,3 -4,4 -4,0 -2,1 -2,4 -3,3 -1,3 -4,1 -4,0 -1,4 -2,1 -3,2 0,5 -4,-1 -3,2 -3,3 1,5 -3,2 -3,3 -1,4 -2,1 1,5"
       id="path18"
       inkscape:connector-curvature="0" />
    <path
       style="fill:none;stroke:#000000;stroke-width:1"
       d="m 319,434 -3,4 -2,-6 -3,1 0,5 -3,2 -4,4 -2,4 5,2 3,-3 3,1 1,-4 4,0 3,-4 3,-3 1,-4 1,-4 2,-3 4,-2 0,-4 1,-4 4,0 4,-3 1,-4 4,-1 1,-4 4,-1 4,1 1,-4 1,-4 2,-3 4,-1 4,-1 0,-4 4,-1 2,-3 2,-4 3,-1 0,6 -1,4 -3,3 -2,3 -4,2 -4,1 -2,3 -1,4 -2,5 -3,3 -4,-4 -2,4 -3,3 -3,3 -2,3 -4,1 0,5 -3,3 -2,2 -1,3 -2,3 1,5 -4,0 -3,3 -2,4 -3,1 -4,3 -3,1 -3,2 0,5 -3,2 -4,3 -4,1 -6,0 -2,3 -3,3 -3,3 -5,0 -4,2 -4,1 -4,0 -3,5 -3,3 1,5 -3,2 -5,-2 1,-5 -1,-5 4,-1 3,-3 0,-5 4,0 4,-1 5,0 4,-2 4,-1 3,-3 2,-5 5,1 3,-2 4,0 4,-3 0,-5 -5,2 -4,0 -5,1 -5,-2 -1,5 -3,2 -2,4 -5,1 -4,1 -4,0 -4,0 -4,1 -2,3 0,5 -4,0 -2,5 0,5 -1,4 -4,1 -4,0 -6,1 -3,3 -4,1 -4,0 -4,0 -4,0 -5,2 -2,4 -3,5 6,2 3,-2 1,-4 4,-1 5,0 5,0 4,-1 4,-2 3,-2 4,0 6,-1 -1,4 -4,3 -4,2 -3,2 -4,1 -4,1 -5,-1 -4,1 -2,4 -3,3 2,7 4,-1 2,-4 3,-3 4,1 4,-2 5,-1 5,0 1,-4 5,3 0,-5 4,1 0,-5 1,-4 5,2 0,5 1,5 -3,3 -2,3 -3,2 -4,1 -5,0 -3,1 -4,0 -4,2 -4,0 -2,4 -4,2 -5,0 -2,5 -3,1 -5,-2 1,-6 3,-1 -2,-6 0,-5 -5,-2 -1,5 -1,4 -1,5 -4,0 -5,-4 3,-4 1,-4 2,-4 -1,-6 -4,1 -2,5 -2,5 -4,-1 1,6 -6,-3 -4,-1 -2,5 -3,0 1,2 -2,0 0,2 -2,0 -1,-1 1,-2 0,-2 -3,-2 0,2 -2,0 0,2 2,0 -1,2 -2,1 1,2 2,-1 2,1 0,1 -2,1 1,2 2,-1 2,-1 0,-2 2,0 1,-2 2,-1 2,0 2,0 2,1 2,0 1,2 2,0 2,0 0,2 -1,1 1,2 -2,1 -2,0 1,-2 -1,-2 -2,0 -1,-2 -2,0 0,2 -1,2 2,0 2,0 0,2 -1,1 1,2 1,2 1,-2 2,0 1,-1 2,-1 1,-2 1,-1 0,-2 2,0 1,2 -1,2 -1,1 0,2 -2,0 1,2 1,2 1,2 1,1 -1,2 -2,1 -1,2 1,2 -2,0 -2,0 0,-2 1,-2 -2,0 -2,1 0,1 0,2 -2,0 -1,-2 -2,1 -3,1 -1,-3 0,-2 2,0 1,2 2,-1 1,-1 2,0 2,-1 0,-1 2,-1 1,2 2,0 1,-1 -1,-2 -1,-2 -1,-2 -2,1 1,2 -2,0 -2,0 0,2 -2,1 -2,1 0,-2 1,-2 -2,0 0,-2 2,0 0,-1 -1,-2 -1,-2 -1,2 -2,1 0,2 -2,0 1,2 2,1 0,2 -2,-1 -1,2 -1,2 -1,-2 0,-2 0,-2 0,-1 -1,-2 2,-1 0,-1 2,-1 1,-1 1,-2 0,-2 1,-2 -1,-1 -2,1 -1,2 1,2 -2,0 -1,1 -1,2 -1,-2 -2,1 1,2 0,2 -2,1 1,2 2,0 -1,2 1,2 0,2 -2,-2 -2,0 -1,-2 1,-1 -1,-2 -2,-1 1,-1 2,-1 0,-1 0,-2 -2,0 0,-2 0,-2 -2,0 -1,-1 -2,1 -2,0 -1,1 1,2 1,2 1,-2 2,-1 0,1 0,2 1,1 -2,1 -2,1 0,1 -2,0 -2,1 1,2 2,-1 1,2 2,0 0,-2 1,-2 1,2 1,2 0,2 -3,2 -5,0 -4,2"
       id="path20"
       inkscape:connector-curvature="0" />
    <path
       style="fill:none;stroke:#000000;stroke-width:1"
       d="m 152,549 -4,2 -3,2 -1,4 -6,-2 -1,5 -6,-2 1,-6 6,-3 3,-3 5,-2 -5,-4 3,-1 1,-2 1,2 2,1 1,-2 1,2 1,2 2,-1 -1,-2 -1,-2 0,-2 2,1 1,2 2,-1 1,-1 -1,-2 -2,0 -1,-1 2,-1 -1,-2 0,-2 2,0 0,-2 -3,-1 2,-1 1,-2 -2,-1 1,-1 1,-2 2,0 1,2 -1,1 1,1 1,2 -2,0 0,2 1,2 2,-1 1,-1 1,-2 -1,-1 0,-2 1,-2 -2,0 -1,-2 2,-5 -5,-1 -1,5 -3,1 0,-1 0,-2 -3,1 -5,-1 -3,3 2,1 -2,1 -2,0 -1,-2 0,-2 -2,0 -2,0 0,2 2,1 -2,1 1,2 2,-1 1,2 2,-1 1,1 0,2 -2,0 1,2 1,2 2,0 0,-2 1,-2 -1,-2 1,-2 1,2 2,-1 1,1 -1,2 0,2 -2,0 1,2 -1,2 -2,0 -1,1 -2,1 -1,-1 0,-2 -1,-2 -1,-2 -1,-2 -2,1 -1,-1 -1,-2 0,-2 -2,0 1,-2 -1,-2 2,0 0,-2 -1,-2 5,-2 2,-1 4,-1 4,0 4,0 5,-2 4,0 2,-4 3,-1 5,2 -3,5 0,6 5,1 1,-5 6,2 3,-2 5,-1 2,-4 2,-4 5,-1 5,2 2,-3 2,-4 5,-1 2,-4 4,0 4,0 4,0 -1,-5 3,-3 3,1 0,6 5,-1 1,-4 4,1 4,0 1,-5 1,-5 0,-5 4,1 1,-5 3,-3 5,-1 -4,-5 4,-1 1,-4 2,-3 4,0 3,-3 3,-2 3,-2 3,-3 4,-1 4,-3 -5,-2 -4,-5 -1,5 -3,1 -2,3 -3,2 -4,1 -2,3 -6,2 -2,4 -3,1 0,6 -2,4 -4,3 -4,2 -1,5 0,5 -2,3 -5,0 -5,-2 3,-4 3,-1 0,-5 2,-3 3,-4 4,-2 2,-4 -1,-5 2,-3 3,-2 2,-4 5,2 2,-4 3,-3 4,-1 3,-3 4,-3 -2,-5 4,0 4,0 3,-2 -1,-5 5,2 3,-3 1,-4 3,-2 1,-4 4,-1 2,-2 0,-5 -5,-1 1,-5 1,-4 3,-3 -1,-6 -3,1 -2,3 -2,4 -1,5 -3,2 -2,3 -1,3 7,0 -3,4 -3,3 -3,1 1,5 -5,-2 -3,3 -1,4 -5,0 1,-5 0,-5 3,-1 3,-2 4,-3 -5,-2 2,-4 2,-3 2,-3 3,-2 3,-2 1,-5 1,-4 2,-3 5,0 3,-2 4,1 0,4 5,-2 3,-3 4,-2 3,-1 0,-5 2,-1 1,-4 5,2 2,-3 1,-4 3,-2 4,2 1,-4 0,-4 3,-3 1,-4 1,-4 3,-2 3,-3 1,-4 4,1 4,0 4,0 4,-1 1,-5 -4,0 -4,0 -4,0 -4,0 2,-5 5,-1 5,1 4,0 1,-4 5,2 0,4 -1,4 -1,4 1,5 -3,1 -4,0 -5,0 -5,0 -3,3 -4,3 -1,4 -1,4 -3,3 1,5 -2,3 -5,1 -3,2 -1,4 -2,3 -4,-1 0,5 -3,-1 -1,4 -3,2 -4,0 -2,3 -3,2 -3,2 -4,-1 1,5 -1,4 -2,2 2,6 5,2 -3,3 -1,4 -3,3 -2,1 -3,3 -2,3 -3,4 -3,3 -2,2 -4,3 4,2 5,-1 3,-3 1,-5 5,-2 2,-3 4,0 1,-4 3,-3 2,-2 1,-4 2,-2 2,-4 3,-3 3,-2 3,-2 3,-2 4,-2 4,-2 3,-2 3,-2 4,2 -1,4 -3,2 -5,1 -4,2 -3,3 -4,2 -1,4 -4,0 -1,4 -3,3 -1,5 -3,2 -2,3 -2,4 -4,1 -3,3 -3,1 -1,4 -3,2 1,5 -5,-2 -1,3 1,5 -4,3 -1,-5 -5,2 -3,4 -4,3 -3,3 -2,3 -4,0 -2,5 5,1 5,-1 3,-4 3,-4 4,-4 5,2 5,-1 4,0 -1,-5 2,-3"
       id="path22"
       inkscape:connector-curvature="0" />
    <path
       style="fill:none;stroke:#000000;stroke-width:1"
       d="m 298,441 4,-2 0,-4 3,-1 0,-4 3,-3 4,-1 2,-4 3,-3 3,-3 1,-4 2,-4 3,-3 4,-2 1,-4 3,-2 3,-3 4,-2 4,0 4,-3 2,-4 -1,-5 5,0 5,1 1,-3 3,-3 2,-4 0,-4 4,1 4,0 -2,-5 0,-4 2,-1 2,-3 4,0 4,2 -1,-5 1,-4 -2,-5 3,-2 -1,-7 -3,2 -3,2 -1,4 2,5 -3,2 -4,0 -2,3 -3,5 0,5 -4,-1 -3,2 1,5 -1,5 -5,1 -2,1 -4,0 -5,0 2,-5 4,-2 5,1 1,-4 -1,-5 3,-3 3,-2 1,-4 3,1 0,-5 2,-3 5,0 0,-4 -5,-1 -4,1 -4,-1 -4,1 5,4 -4,1 1,5 -3,2 -2,3 -1,5 -1,3 -4,1 -4,2 -2,3 -1,4 -3,3 -3,2 -3,2 -3,2 -5,1 -3,2 -3,2 -2,3 -3,4 -5,-1 2,-4 1,-3 2,-3 4,-2 3,-3 5,1 2,-4 3,-2 3,-2 2,-1 2,-3 1,-4 3,-2 3,-1 3,-2 2,-4 -1,-5 3,-1 2,-2 -1,-5 1,-4 4,-3 5,0 4,0 5,1 4,0 2,-3 4,-2 4,-1 1,-4 -5,-1 -4,3 -1,-5 3,-3 2,-1 5,2 -2,-5 3,-2 -1,-7 -3,1 -2,3 -3,2 -4,-5 4,-2 3,-4 5,0 0,-5 -5,0 -4,0 -2,4 -3,2 -3,3 -5,-1 -2,3 -4,0 -4,2 -4,-2 2,-4 5,-1 2,-2 4,-1 4,0 2,-3 3,-2 0,-4 5,1 4,0 5,0 0,-5 -4,0 -3,-1 -4,0 -4,0 0,-5 4,-1 0,-5 2,-4 4,0 -1,5 -1,4 5,2 2,-1 -1,-5 1,-3 -2,-5 3,-1 -1,-5 0,-5 0,-4 -4,2 -1,4 0,4 -5,-2 2,5 -4,0 -2,3 -2,3 0,4 -4,1 0,4 -4,-3 -2,3 -4,2 -1,-5 1,-3 4,-2 4,-1 1,-3 2,-3 2,-3 2,-3 0,-4 4,0 3,-2 0,-5 4,0 4,-1 0,-4 1,-4 -3,-5 2,-2 -1,-5 2,-3 0,-6 -3,1 -2,3 -1,5 -2,3 -2,1 -3,2 -3,2 -4,0 -2,3 -4,-1 -2,3 -2,2 -4,0 -1,-5 -4,2 -3,2 -3,2 -2,3 -3,2 -2,-5 2,-3 2,-3 4,-1 4,-2 2,-3 4,-1 2,5 3,-3 4,0 3,-2 4,0 2,-3 3,-2 3,-2 1,-4 0,-4 -4,0 -1,4 -3,2 -3,2 -3,2 -4,1 -4,1 0,-5 4,-1 3,-2 3,-2 3,-2 0,-4 4,-1 0,-4 1,-4 1,-4 5,1 -1,4 -1,4 0,4 4,3 4,-1 1,-4 -5,0 1,-4 3,-1 0,-4 1,-4 -5,0 2,-4 3,-2 0,-5 -4,1 -3,2 -1,3 -2,3 -3,-1 -4,0 0,4 -4,-3 -3,-4 3,-2 4,0 4,0 2,-4 4,-2 2,-2 4,0 1,-4 1,-7 -3,2 -4,0 1,4 -4,0 -2,3 -3,1 -1,4 -4,0 -4,0 -3,2 -3,2 1,4 2,4 -3,2 -2,3 -1,4 -2,3 -5,0 -2,3 -3,4 -4,-1 2,-4 1,-3 2,-3 4,0 3,-2 0,-4 3,-2 0,-4 -1,-4 -4,1 0,4 -3,2 0,4 -4,0 -4,0 0,3 -2,2 0,4 -1,4 -2,3 -4,-1 -2,3 -1,4 -1,4 -1,4 -3,2 -3,2 -2,2 0,4 0,4 -4,-1 -2,3 -2,2 1,5 4,-2 3,-2 5,0 2,-1 -2,-5 0,-4 3,-2 3,-1 2,-3 1,-4 1,-4 1,-4 3,1 3,-3 2,5 2,-3 4,0 2,-3 2,-2 2,-3 5,0 2,-3 1,-4 2,-3 3,-2 4,2 0,5 -3,-1 -2,3 0,4 -3,2 -4,1 -2,2 -3,3 -1,4 -2,2 -3,-1 -3,2 0,4 -4,1"
       id="path24"
       inkscape:connector-curvature="0" />
    <path
       style="fill:none;stroke:#000000;stroke-width:1"
       d="m 337,232 -1,-6 -2,1 -2,3 0,4 -2,3 -2,3 -4,0 2,5 4,1 0,4 -4,0 -3,3 4,2 -2,3 -1,4 -2,4 -3,-1 -1,4 -1,4 -5,-2 1,-4 0,-4 1,-3 5,0 1,-4 -2,-5 -3,3 -2,1 -4,1 -1,4 -2,1 -5,-2 2,-4 0,-4 -5,2 -2,3 -5,-1 0,-4 3,-2 5,0 1,-4 2,-3 3,-3 3,-3 1,-4 -5,1 -3,-5 4,0 0,-4 4,-1 1,5 4,-2 3,-2 2,-3 1,-4 1,-4 0,-4 3,-1 4,0 2,-3 -1,-5 -4,2 -2,1 -4,1 -4,-1 1,-4 3,-1 4,-1 2,-1 3,-3 3,4 2,-4 4,0 2,-1 2,-3 1,-3 2,-3 2,-2 0,-4 0,-4 2,-2 0,-4 4,0 4,0 3,1 1,-4 4,0 0,-4 4,-1 3,-3 -5,-2 2,-3 1,-5 -4,0 -3,1 0,4 0,4 -2,4 -4,0 -2,3 -4,0 -4,0 -3,1 -4,0 -2,3 6,1 -2,3 0,4 0,4 -2,4 -4,0 1,4 -3,2 -6,1 2,-2 1,-4 -1,-4 2,-1 4,-1 2,-2 -1,-5 -4,-2 -1,4 -2,1 -5,0 -1,-4 3,-2 2,-3 4,0 2,-3 3,-3 4,0 4,-1 4,0 2,-1 2,-2 4,0 0,-4 0,-4 0,-4 4,0 4,-1 4,1 2,-3 3,-2 1,-3 5,1 0,4 -3,2 -2,3 -1,3 -2,4 3,1 0,4 2,5 -4,0 -2,3 -2,1 -1,4 -4,0 -2,4 -5,-1 -4,0 0,4 -2,2 -1,5 4,-1 3,-2 2,-3 3,1 4,0 0,-4 4,0 2,-3 3,-2 2,-3 4,0 2,-3 2,-3 -5,-1 0,-4 4,0 2,-6 -3,2 -4,-1 1,-4 3,-2 2,-3 -1,-5 0,-4 1,-4 0,-6 -3,1 -1,4 -2,3 -4,0 -4,0 -2,4 -3,2 -4,0 -3,1 -4,0 -2,-5 -4,0 -3,2 -3,2 -1,3 -2,3 -1,5 4,1 2,-3 2,-2 1,-4 3,-2 2,5 -2,3 1,4 -4,1 -4,2 -4,0 -2,1 -4,0 -2,3 -3,3 -4,0 -2,3 -2,2 -3,4 1,4 -3,1 -2,3 -2,2 1,5 -5,0 -2,3 -2,2 -2,1 -3,4 3,1 -1,4 5,1 0,-5 3,-3 3,-2 2,-1 4,0 -1,-5 1,-3 2,-3 4,0 1,5 -2,2 -1,3 0,4 -4,2 -4,1 -3,2 -1,3 1,5 -4,0 -2,1 -4,-2 -2,3 -2,1 1,4 -4,1 -3,1 0,4 -3,2 -2,3 -4,-1 -2,3 -2,2 2,5 3,-2 3,-2 4,-1 2,-4 4,-4 3,-2 4,-3 1,-4 4,1 4,-1 4,-1 0,4 -1,4 -2,4 -1,-5 -4,0 0,4 -4,-1 -3,3 -3,2 -2,3 -1,3 -4,2 -3,2 -3,2 -5,0 -2,3 0,4 -4,-1 -1,4 -2,2 -2,3 -1,5 4,1 2,-3 3,-2 1,-4 4,-1 1,-4 2,-3 5,0 3,-2 2,-3 5,-1 0,4 -3,3 -2,4 -4,0 -3,1 -1,4 -2,3 -3,1 -3,3 -2,3 -3,2 -2,4 4,1 4,-2 3,-2 1,-4 4,-1 0,6 3,-1 4,-1 3,1 -3,4 -4,2 -4,0 -2,1 -4,1 -3,2 -5,-2 -4,-1 -4,-2 -4,0 -2,3 -1,4 -4,-1 -3,2 1,5 -2,2 -4,0 -3,2 -5,-1 2,-4 2,-3 4,0 2,-6 2,-3 4,0 1,-4 4,-1 4,-1 4,2 1,-4 -5,-3 -4,0 -3,-1 -2,3 -4,2 -2,1 2,-6 1,-4 3,-2 1,-3 4,0 1,5 4,0 0,-4 2,-3 3,-3 0,-5 4,0 2,-4 -4,-1 2,-4 0,-4 1,-3 3,-2 2,-3 4,1 2,-3 1,-3 2,-2 4,-1 0,-4 4,-2"
       id="path26"
       inkscape:connector-curvature="0" />
    <path
       style="fill:none;stroke:#000000;stroke-width:1"
       d="m 296,201 0,-4 -1,-4 -4,5 0,-4 -4,0 -3,-1 -4,0 -4,0 -2,3 -4,1 -1,-5 2,-2 3,-2 4,0 4,0 1,-4 2,-3 2,-3 4,0 0,-4 2,-4 4,0 2,-2 2,-3 0,-4 3,-2 2,-3 2,-3 1,-5 4,-1 2,-1 2,-3 2,-2 3,-2 2,-1 2,-3 0,-4 2,-3 2,-2 0,-4 2,-4 2,-3 4,0 3,-1 4,-2 0,-4 4,0 4,0 -2,-5 4,2 3,-2 2,5 -1,3 -2,3 -3,-1 -4,0 0,4 4,1 -2,4 -4,0 -2,-5 -3,2 1,4 -4,1 -2,-5 -2,3 -1,3 0,4 -2,3 -2,2 0,4 -1,3 -2,2 -4,1 0,4 -2,1 -3,1 -4,2 -3,1 0,4 -2,3 -2,3 -2,2 0,4 -2,2 -2,3 -2,2 -4,-1 0,4 -2,4 -4,0 -2,3 -1,3 5,-1 4,0 2,-3 2,-3 3,-2 4,-1 0,-3 3,-4 2,-3 1,-3 2,-3 2,-2 0,-4 3,-1 3,-2 4,0 2,-3 0,-4 5,1 0,-4 2,-3 0,-4 2,-3 2,-3 2,-2 3,-1 4,-1 4,0 4,0 0,5 4,-1 2,-2 3,1 1,-4 4,-1 4,0 2,-3 3,-4 4,-1 1,-4 -4,0 -4,1 -2,4 -3,2 -4,1 -4,1 -3,2 -4,-1 2,-4 3,-2 2,-2 4,1 3,-2 1,-3 3,-2 0,-3 5,2 4,0 1,-4 -4,-1 -4,0 1,-5 5,1 2,-3 -5,-2 2,-3 3,-1 0,-5 -4,1 -4,0 -1,3 0,4 -3,2 0,4 -2,3 -2,3 -1,4 -3,2 -2,-5 2,-3 0,-4 2,-1 2,-3 2,-5 -4,0 -3,2 -4,1 -1,3 1,4 -5,-2 -4,1 -1,-4 3,-2 2,-2 1,-4 2,-3 2,5 3,-3 4,-1 4,1 2,-4 3,-1 4,0 4,-1 1,-4 0,-5 -4,1 -1,4 -4,0 -4,0 -4,1 0,4 -4,-1 -4,1 -1,-4 3,-2 3,-2 4,-1 3,-1 4,0 1,-3 4,-1 3,-1 0,-4 1,-4 1,-7 -3,2 -3,2 0,4 -2,3 -4,1 -2,3 -4,0 -3,2 -3,-1 -2,3 -3,2 -3,1 1,5 -2,2 -1,3 -1,4 -3,2 -2,3 -3,1 -4,0 -2,3 1,4 4,-2 4,0 1,5 -4,0 -3,2 0,4 -4,1 -4,0 -3,2 -1,4 -2,2 -1,4 -2,3 -2,3 0,4 -3,1 -2,3 -2,1 -2,3 -3,1 -2,2 -2,5 -2,3 -2,3 -2,2 -3,3 0,4 -3,2 -4,1 -1,4 -3,-1 0,4 -3,2 -2,3 -2,1 0,4 -4,0 -4,2 0,-5 3,-2 1,-4 3,-2 3,-2 0,-4 2,-3 4,-1 4,-1 1,-3 0,-4 4,0 1,-4 2,-2 2,-3 3,-2 0,-5 4,-2 2,-2 2,-3 3,-2 3,-2 1,-5 2,-3 1,-3 2,-4 2,-3 3,-3 4,-1 4,0 -2,-5 -4,0 -4,1 -2,3 -4,0 -1,3 0,4 -3,2 -1,4 -1,4 -2,3 -3,2 -3,2 -2,2 -2,3 -2,4 -2,3 -3,2 -2,3 -2,4 -4,1 -1,4 -1,3 -3,2 -5,2 -2,3 -1,3 -3,2 -2,3 -1,3 -2,5 -2,1 1,4 0,4 -4,0 -2,2 -4,0 -3,2 -1,4 -2,3 -4,1 -2,3 -2,2 -1,4 -3,-5 -3,2 2,5 -2,1 -3,2 5,3 -1,5 4,1 2,-3 0,-4 2,-1 2,-3 1,-3 2,-4 4,-1 2,-3 2,-3 1,-3 4,0 4,-2 0,4 -3,3 -2,3 -2,3 -2,3 -4,0 -1,3 -1,4 -2,3 -2,3 -2,4 -2,3 -1,4 -1,4 -3,1 0,4 -2,3 -5,0 -4,1 -4,0 -1,-5 4,0 5,0 2,-3 1,-4 4,-2 0,-5 -4,0"
       id="path28"
       inkscape:connector-curvature="0" />
    <path
       style="fill:none;stroke:#000000;stroke-width:1"
       d="m 233,228 -3,1 -1,4 -2,3 -3,1 -4,0 -4,2 0,4 -5,-1 -2,4 -3,-1 -3,2 -2,3 -2,4 -3,2 -2,3 -4,2 -3,2 -2,3 -1,4 -4,0 -3,2 -2,2 -2,2 -5,-2 -3,4 -2,3 -4,0 -4,0 -4,0 -1,4 -1,4 -4,-2 -2,3 -4,1 0,4 -2,3 -4,-3 -3,3 -1,3 -3,2 -4,1 -1,-5 3,-3 3,-3 0,-4 4,0 3,1 3,-4 2,-2 5,-2 2,-3 1,-4 -1,-5 2,-4 2,-4 2,-2 5,1 1,-4 4,1 4,5 -4,1 -4,2 0,4 -4,-3 -2,3 -1,5 4,0 4,0 4,-2 1,-4 4,0 3,-2 3,-1 2,-3 4,1 1,-4 3,-2 0,-4 5,2 -1,-5 3,1 3,-2 2,-2 2,-4 2,-3 -4,-2 -3,3 -2,2 -4,1 -3,2 -3,2 -2,4 -3,2 -2,3 -4,2 -3,-1 2,-5 2,-3 3,-2 3,-2 1,-4 3,-2 5,-1 2,-3 3,-1 5,-2 2,-3 1,-4 -1,-4 1,-3 2,-2 2,-3 4,-2 3,-2 1,-3 2,-2 2,-3 3,-1 1,-4 2,-3 1,-3 4,-2 2,5 -2,2 -2,3 -1,4 -2,4 -2,1 -3,2 0,4 -4,1 -4,2 -1,3 -3,2 0,4 2,5 -3,1 -2,4 4,3 2,-2 4,-1 0,-4 -2,-5 2,-3 2,-3 3,-2 5,2 -1,4 -3,1 -2,3 0,4 5,-2 4,-1 1,-4 1,-4 4,0 1,-4 -5,-1 -5,0 1,-4 4,-1 0,-4 3,-1 0,-4 2,-2 2,-3 4,1 3,-2 2,-3 3,1 2,-3 0,-4 3,-1 2,-2 4,0 4,-2 -1,-4 -4,1 -4,0 -4,1 -3,1 -2,3 0,4 -5,2 -2,3 -4,-2 0,-4 3,-2 3,1 0,-4 2,-3 -1,-4 5,1 4,-1 3,-1 4,0 1,-4 4,-1 0,5 4,-1 0,-4 2,-3 2,-3 3,-2 -3,-4 4,0 0,-4 4,2 2,-1 3,-2 2,-4 2,-4 4,-1 0,-4 3,-2 3,-3 -4,-3 -3,2 -3,2 -1,4 -3,3 -2,3 -2,3 -4,0 -4,0 -2,4 -4,0 -1,-5 4,0 3,-4 4,0 3,-2 0,-4 4,0 1,-4 0,-4 4,0 0,-4 4,1 0,-4 2,-3 3,-2 1,-3 3,-2 2,-3 3,-1 4,-2 1,5 -3,2 -2,2 -3,2 -1,4 -3,2 -2,2 0,4 4,1 2,-4 3,-4 3,-2 3,-2 2,-3 1,-4 0,-4 3,-1 0,-4 -1,-4 4,0 4,-1 2,-3 4,0 3,-1 2,-1 2,-3 0,-4 4,1 4,0 2,-3 3,-2 0,-4 1,-3 2,-2 -6,-1 -2,3 0,4 -3,3 -4,0 2,-5 1,-4 1,-4 2,-3 4,2 0,-4 0,-4 2,-3 2,-4 0,-4 -3,-1 3,-3 2,-3 4,0 5,1 4,0 0,5 4,0 3,1 -1,4 -5,-1 -2,3 -5,0 2,-4 -1,-4 -4,0 -1,3 0,4 -1,4 -2,2 -1,4 0,4 4,-2 3,-2 0,-4 4,0 3,1 4,-1 0,-3 5,1 2,-3 0,-4 3,-2 3,-2 2,-3 2,-3 0,-6 -3,2 -3,3 -2,3 -3,2 -4,-1 2,-4 0,-4 3,1 2,-2 2,-3 3,-2 3,-1 -1,-5 -2,-4 3,-1 -1,-5 0,-4 0,-4 1,-6 -2,2 -5,0 1,4 0,4 -3,2 4,3 -4,1 -4,1 -1,4 1,5 3,-3 2,-3 3,5 -3,3 -4,2 -4,0 -2,3 0,4 -1,3 -4,-2 -4,0 -4,0 0,-5 4,0 4,0 1,-4 2,-3 2,-1 -2,-5 2,-2 0,-4 3,-2 1,-3 3,-2 0,-4 -3,-4 -2,4 -2,2 -2,4 -3,2 0,4 -3,1 1,4 0,4 -2,3 -2,1 -4,0 0,-5 3,-2"
       id="path30"
       inkscape:connector-curvature="0" />
    <path
       style="fill:none;stroke:#000000;stroke-width:1"
       d="m 355,22 0,-4 -4,-2 3,-3 3,-2 -1,-4 4,0 3,-2 2,-5 -4,0 -3,2 -4,0 -4,-2 1,5 0,4 -3,2 -2,3 -2,1 -4,0 -4,1 -2,2 -2,2 -3,3 -4,1 -3,1 0,4 -4,1 -5,2 1,-3 1,-4 2,-1 3,-4 4,-1 3,-1 2,-4 2,-3 4,0 5,-1 3,-2 3,-2 0,-4 -5,0 -2,2 -3,2 -2,1 0,-7 -4,2 -4,-1 3,5 -3,2 -1,4 -2,2 -4,0 -2,2 -3,3 -4,1 0,4 -1,4 -4,-1 -2,3 -4,0 -2,2 -2,2 -4,-1 -4,0 -4,1 -2,1 0,4 -4,1 -2,3 -2,2 -2,3 0,4 -3,2 -3,2 -3,2 -3,3 -2,-4 1,-3 3,-2 3,-2 2,-2 1,-4 2,-3 3,-3 2,-3 2,-1 2,-5 -4,0 -4,0 -1,4 -2,3 -3,2 -2,1 0,4 -2,3 -3,2 -3,2 -4,-1 2,5 -2,1 -4,0 -2,3 -3,2 -3,-4 2,-3 1,-3 4,0 0,-4 2,-3 4,2 3,-2 3,-2 0,-5 -2,1 -4,-2 0,4 -4,0 -1,-5 1,-4 4,0 4,1 0,-4 4,0 1,6 3,-1 2,-3 -2,-4 2,-1 4,0 4,0 4,1 0,-4 3,-2 1,-3 4,2 2,-3 2,-2 3,1 1,-4 4,0 1,-4 5,2 0,3 -2,3 -3,1 -2,3 -2,2 -4,0 -2,3 -3,1 -3,1 1,4 5,-1 4,0 2,-3 4,0 2,-1 1,-4 4,2 0,-4 2,-3 4,0 2,-3 2,-3 4,0 2,-3 2,-3 -5,-2 -2,3 -4,0 -2,3 -2,3 -3,-5 2,-3 -5,-2 -2,3 -6,-1 -1,3 -4,1 -2,1 0,-6 -4,1 -3,1 0,4 4,2 -2,3 -4,-1 -2,3 -2,3 -3,2 -4,0 -4,0 -4,1 -2,3 -5,-1 -2,1 -2,2 -4,1 -2,4 -3,1 -4,0 -2,3 -1,3 -4,1 -2,2 2,5 3,-2 3,-1 3,-2 1,-4 4,0 0,4 -1,4 -3,2 -4,1 1,4 -1,4 1,4 -4,0 -4,1 -4,1 -2,3 -4,-2 1,-4 5,-1 3,-2 3,-1 1,-4 -4,-2 -3,1 -2,3 -3,2 -4,1 -2,2 0,4 -4,0 -4,1 -2,4 -2,4 -1,5 -1,4 -2,3 0,4 -3,-1 -4,1 -4,3 0,5 -3,-1 -2,3 0,4 0,4 -3,3 5,2 1,4 4,-1 2,5 3,-2 -1,-4 3,-2 2,-3 4,2 2,-3 3,1 -1,-5 3,-2 3,-2 3,-3 -4,-1 -4,1 -3,2 -3,3 -2,3 -3,-1 -3,3 -2,2 -4,1 0,-4 0,-4 4,0 4,-3 -4,-2 2,-3 3,-1 3,4 2,-3 2,-2 4,0 1,-3 -5,-2 2,-3 0,-4 1,-3 1,-4 3,-3 2,-1 4,0 4,1 1,4 -4,0 -5,0 -1,4 4,1 4,-1 5,1 2,-3 0,-4 2,-3 4,0 2,-2 4,0 4,0 0,5 -4,0 -4,1 -4,1 2,4 -2,3 -2,2 -5,0 -4,0 -4,1 -4,-2 -1,4 4,2 -1,4 4,1 2,-4 3,-1 4,0 3,1 3,-2 3,-2 2,-2 0,-4 2,-2 4,0 3,-2 0,-4 1,-4 3,-2 2,-2 4,0 1,4 -3,2 -3,2 0,4 0,4 -3,2 -2,2 -4,-1 0,4 -2,3 -3,1 -3,2 -3,2 -5,-1 -4,0 -1,4 -1,3 -2,2 -2,3 -3,1 -2,3 4,2 2,4 4,-1 2,-3 -4,-2 3,-3 4,0 3,-3 -4,-1 1,-4 4,0 3,3 2,-3 3,-2 3,-1 3,-2 2,-3 3,-1 2,-2 2,-3 3,-2 4,2 3,-2 1,-5 -4,0 -4,1 0,-4 3,-2 4,0 -1,-4 5,1 0,-4 4,-1 2,-1 2,-3 3,-2 0,-4 2,-1"
       id="path32"
       inkscape:connector-curvature="0" />
    <path
       style="fill:none;stroke:#000000;stroke-width:1"
       d="m 278,50 2,-3 1,-3 4,-1 1,-3 2,-3 5,1 0,4 -2,2 -1,3 -4,1 -1,3 -2,2 6,1 2,-3 4,-3 4,0 -1,-4 0,-4 2,-2 2,-3 4,0 2,-3 3,4 -2,4 -4,0 0,4 -2,1 1,4 -1,4 -4,0 -3,1 -2,3 -2,3 -3,-1 -2,3 -3,-4 -3,-1 -2,3 -3,2 0,4 -4,0 -2,1 0,4 -4,0 1,4 -2,4 3,1 4,-4 2,-3 3,-2 3,1 2,-3 -1,-4 3,-1 3,4 4,-1 2,-1 3,-2 2,-3 2,-3 4,0 3,-4 2,5 3,-2 1,-5 -4,-1 1,-4 1,-3 3,-4 2,-4 4,-1 3,-1 3,-4 3,-2 4,-2 3,-2 3,-2 2,-2 4,0 4,-1 -1,5 -4,1 -3,2 -3,2 0,4 -2,3 -2,-5 -3,2 -3,2 -1,4 -4,0 -4,1 -1,4 -3,2 2,5 3,-2 3,-1 0,-4 4,0 1,4 -2,4 -4,2 -4,2 -2,2 -1,4 -3,2 -4,3 0,-4 -4,0 -2,2 -2,3 -3,2 -4,2 -3,1 -4,0 -2,3 -4,0 -3,2 -4,2 0,4 -2,2 -4,-1 -4,-1 -4,2 -3,-1 -2,2 -2,3 -4,1 -2,3 -3,2 -3,2 -2,2 -2,2 -2,2 -4,0 -1,4 -4,0 0,4 -2,4 -4,0 -4,1 -2,3 -1,3 -5,-1 1,-4 2,-3 0,-4 -4,0 -2,3 -1,4 -2,-5 -4,0 1,4 -2,2 -3,2 -3,2 -2,3 -2,2 -1,4 -1,3 5,-1 2,-2 2,-3 2,-2 3,-3 4,-2 1,4 0,5 -4,-2 1,4 -4,1 -2,3 -3,2 -4,1 -3,2 -4,3 -2,3 -2,1 -2,3 -2,2 -4,2 -4,1 1,4 -4,1 -2,3 -1,4 -2,3 0,4 -4,-3 0,4 -1,4 -2,3 -1,3 -2,3 -4,-1 -3,3 -4,2 -1,3 -2,3 -5,1 0,5 -3,-1 -2,3 -2,3 -3,2 -3,2 -2,3 -4,0 -1,3 -4,-2 -3,2 0,4 -1,4 -4,-5 -1,4 -2,5 4,2 2,-1 4,0 2,-3 3,-1 -2,-5 5,2 2,-1 2,-3 3,-2 3,-1 1,-4 5,-4 4,-1 2,-4 2,-1 3,-3 3,1 2,-2 3,-3 -5,-2 4,-3 5,2 2,-2 2,-3 1,-4 1,-4 4,-2 2,-3 0,-4 1,-4 2,-3 3,-1 4,-1 -1,-4 3,-2 4,-2 2,-3 4,0 0,-4 2,-3 3,1 2,-3 3,-1 3,-2 4,-1 0,-4 5,-1 4,0 2,-3 -4,-2 1,-4 4,2 2,-1 3,-4 2,-3 4,-1 5,1 3,-3 -3,-1 2,-4 4,0 4,-1 -4,-3 4,-1 3,-2 2,-2 2,-3 3,-2 3,-2 1,-3 4,2 1,-4 4,3 0,-4 3,-2 4,0 -2,5 4,2 1,-3 3,-3 4,-1 0,-4 2,-1 2,-3 4,0 3,-3 4,-1 4,0 2,-2 3,-2 3,-2 3,1 4,0 2,-3 3,-1 2,-4 2,-2 2,-3 4,-2 4,0 3,1 2,-4 -5,-2 2,-3 -1,-4 -1,-4 2,-3 3,4 4,-2 2,-3 1,-4 2,-2 3,-2 2,5 -1,4 -2,1 -2,3 -4,2 -3,3 0,4 4,-2 2,4 -2,3 -2,2 0,4 -3,1 -2,3 -1,4 -1,4 -1,3 -1,4 -2,3 0,4 -4,-3 0,4 -2,2 -4,1 -2,3 -4,0 1,-5 2,-3 4,-1 0,-4 1,-4 4,2 2,-3 0,-4 2,-3 1,-4 2,-4 -5,-1 -1,4 -2,3 -2,2 0,4 -4,-1 -2,3 -1,3 0,4 -5,-2 1,-4 -4,0 -4,1 3,4 -4,1 -4,-1 -4,0 -3,1 -2,3 -4,0 -2,4 -1,3 -4,1 -2,2 -2,4 1,4 4,-2 2,-2 2,-3 4,-3 1,-3 4,0 2,-3 4,-1"
       id="path34"
       inkscape:connector-curvature="0" />
    <path
       style="fill:none;stroke:#000000;stroke-width:1"
       d="m 298,87 4,2 2,-1 4,-1 3,-1 -2,5 -2,3 -1,5 4,0 -1,5 -4,-1 -3,2 -4,0 -3,2 -2,3 -3,3 -2,3 -3,3 -2,3 -3,3 -3,2 -3,2 1,5 -3,-1 -2,3 0,4 -4,0 -2,1 -2,3 -4,-1 -2,3 2,5 -4,0 -4,1 -2,3 -2,3 -1,3 -4,0 -3,2 -4,0 -3,1 -4,0 -4,-1 0,-4 4,0 5,-1 4,0 2,-3 3,1 2,-4 2,-2 2,-3 4,0 -1,-4 2,-1 2,-3 5,0 1,-4 -1,-4 -4,1 -1,3 -5,1 0,-4 -4,2 0,4 0,4 -3,2 -2,3 -2,3 -4,0 -2,3 -3,1 -3,1 -4,-2 0,-4 4,0 3,-1 2,-3 4,0 0,-4 3,-1 2,-2 0,-4 1,-4 4,-1 -2,-5 -4,-2 4,-2 4,-2 2,-2 2,-3 2,-1 1,-4 3,-2 4,2 -2,3 -2,3 -3,4 1,4 -4,0 -3,1 0,4 4,1 4,-1 4,0 0,-4 -1,-4 3,-2 3,1 0,4 0,4 -1,5 1,4 3,-4 2,-4 0,-4 4,0 4,-3 2,-3 -1,-4 5,1 1,-4 4,-2 1,-4 3,-2 3,-2 4,0 2,-3 0,-4 -4,-1 -2,3 -4,1 -3,3 -3,3 -2,3 -3,2 -2,2 -4,0 -2,2 1,4 0,4 -5,-1 0,-4 -4,-1 1,-4 2,-1 2,-3 0,-4 -4,-2 -1,4 -4,1 0,-5 -4,2 -4,1 -3,2 -2,3 -2,3 -3,1 0,4 -4,2 -4,1 -1,5 4,2 -2,3 -1,3 0,4 -4,0 0,5 -3,-1 -2,3 -3,2 -4,-1 0,-4 3,-1 0,-4 4,0 0,-4 4,0 1,-4 -4,-1 -4,0 -2,3 -2,2 -3,3 -1,4 -2,3 -4,1 -4,0 0,4 -4,1 -3,1 -4,2 -2,3 -4,1 0,4 -2,2 -4,0 -2,3 -4,0 0,4 -2,4 -2,1 -4,0 -2,3 0,4 0,4 -2,2 -5,1 -1,4 0,4 -2,4 -3,3 -4,1 -2,3 -1,4 -3,2 -3,-1 -3,3 -2,1 -3,3 -2,2 -4,-1 0,4 -1,4 -4,0 -3,3 -1,3 -5,1 -3,3 -2,3 -3,2 -3,1 -4,0 -1,4 -1,4 -3,2 -2,3 -4,-3 -4,2 -2,-5 5,-2 4,0 2,-3 2,-4 -4,-2 -3,3 -4,0 -2,3 -4,1 -4,-1 2,5 -4,0 -4,0 -1,4 -2,2 -5,-2 -1,4 -1,3 -3,3 -4,-3 1,-4 1,-3 2,-3 4,-2 4,-1 5,-3 0,-4 1,-3 5,2 4,0 3,-3 1,-4 2,-3 2,6 3,-3 0,-4 2,-1 1,-4 2,-3 4,0 1,-4 0,-5 -3,1 -3,3 -4,2 -2,4 -3,2 -2,1 -3,2 -2,3 -1,4 -3,1 -5,-2 1,-4 3,-1 2,-4 2,-3 2,-3 4,0 2,-2 2,-3 3,-1 2,-2 2,-3 4,0 4,-1 3,-2 1,-4 0,-4 -4,1 -2,3 -2,2 -4,0 0,-5 2,-3 4,-2 4,-1 1,-4 2,-3 2,-3 3,1 2,-3 3,-2 4,0 2,-3 2,-3 3,-1 2,-4 4,-1 3,1 0,4 -4,0 -1,4 -4,2 0,4 -4,0 -4,2 -3,2 -4,3 -3,2 -1,4 2,5 2,-3 3,-2 2,-4 4,2 1,-3 2,-3 4,-1 4,-2 0,-4 4,-3 4,0 1,-4 4,2 -1,4 -2,3 -5,-1 0,4 -2,3 -4,2 -4,2 -1,4 -3,3 -4,-2 -1,4 -3,2 -1,4 -4,-2 -1,4 -3,3 -2,2 0,4 5,-1 3,-2 1,-3 4,0 2,-3 2,-3 2,-3 5,-2 3,-2 1,-4 4,-2 4,-2 2,-4 3,1 2,-4 2,-3 0,-4 1,-4 3,-1 2,-2 2,-3 1,-4 -4,-2 -2,3 -2,2 -4,1 -1,3 -5,-2 2,-3"
       id="path36"
       inkscape:connector-curvature="0" />
    <path
       style="fill:none;stroke:#000000;stroke-width:1"
       d="m 140,161 4,-3 2,-3 2,-3 3,-3 2,4 2,-4 4,0 -1,4 1,4 4,-4 3,-2 2,-2 3,-3 2,-3 3,-2 3,-1 2,-3 -4,-2 -4,0 -2,3 -3,3 -1,4 -5,2 0,-4 1,-3 3,-4 2,-3 0,-4 1,-3 0,-4 2,-2 4,-1 1,5 -2,2 -1,4 5,1 2,-1 1,-4 -1,-4 4,0 2,-3 -4,-2 -4,0 0,-5 -3,-1 -2,3 -3,1 -4,1 -2,2 -4,-1 -5,1 -2,1 0,4 -3,2 -5,-1 -4,0 -4,0 -4,-1 0,-4 4,0 4,0 4,0 3,1 -1,-5 2,-2 4,0 4,-1 4,0 4,-1 3,-2 2,-2 3,-2 2,-3 0,-4 0,-4 2,-3 2,-3 2,-3 4,0 1,-4 3,-1 3,-2 2,-3 1,-4 0,-4 3,-2 0,-4 3,-2 3,-3 4,0 1,-6 -2,1 -4,0 -3,3 -4,2 -3,2 0,4 -3,1 0,4 0,4 -2,3 -4,2 -3,4 -3,-1 -2,3 -2,3 -1,4 -3,2 0,4 0,4 -2,3 -3,1 -2,3 -4,1 -4,0 -3,2 -4,-1 -3,-1 -2,-5 5,1 4,0 3,-2 4,2 0,-4 4,-1 2,-2 0,-4 0,-4 -4,0 -2,3 0,4 -5,1 -4,2 -4,0 -3,-1 2,-4 1,-4 4,0 -1,4 5,-1 0,-4 2,-2 2,-3 4,0 3,-2 3,5 2,-3 1,-4 2,-3 2,-3 5,2 1,-4 4,0 1,-4 -1,-5 3,-4 1,-4 4,-2 4,-1 -1,-4 4,0 3,-2 4,-1 2,-3 0,-4 0,-4 2,-1 4,-1 1,4 -3,3 4,2 -3,3 -2,3 1,4 4,-2 2,-3 3,-2 -1,-4 0,-4 2,-1 4,-1 2,-3 2,-3 3,-1 4,0 2,-3 3,-2 0,-4 3,1 4,-2 4,2 2,-3 1,-3 4,2 4,0 4,0 2,-2 2,-3 2,-3 0,-4 -5,-2 0,4 -3,3 -3,2 -4,0 1,-4 4,-2 -5,-3 -3,3 -4,-2 2,5 -2,3 -2,3 -4,-2 -2,3 -5,-1 -2,4 -1,3 -3,2 -4,0 2,-5 -4,0 -3,2 -3,3 5,2 -2,3 -2,3 -5,0 2,-5 -3,1 -4,1 -3,1 -2,-5 4,-1 2,-2 4,0 1,-4 2,-1 3,-2 3,-1 4,0 3,1 2,-3 2,-3 4,2 2,-3 4,1 2,-3 -4,-2 -5,-1 -2,2 -5,-2 -1,3 -2,3 -5,0 2,-4 -6,-1 0,4 -2,3 -3,-1 -2,3 -1,4 -4,0 -2,3 -4,2 -1,-5 2,-3 3,-2 2,-1 2,-3 4,-3 -4,-2 -4,1 -3,2 -5,-3 -1,4 4,2 -3,3 -2,3 1,4 0,4 -4,0 -4,0 -3,1 -2,3 -2,4 -4,1 -2,3 -2,1 7,1 0,4 -3,1 -4,-1 -3,-1 -2,3 -2,1 -4,1 -2,1 0,5 -3,-1 -2,3 -3,1 -4,0 -2,3 -2,4 -4,1 -2,3 -1,3 0,4 0,4 -1,3 -4,2 -3,1 2,-5 1,-4 0,-4 0,-4 2,-4 2,-3 0,-4 4,3 2,-3 1,-3 3,-2 4,0 2,-2 2,-3 2,-3 0,-4 0,-4 0,-4 -4,2 -1,4 0,4 -2,3 -3,2 -4,1 -4,3 -2,2 2,-6 0,-4 4,0 3,-2 1,-3 1,-4 2,-4 3,-2 4,0 1,-4 4,2 3,-2 5,-2 2,-3 2,-3 2,-3 3,-1 4,0 0,5 -4,1 -2,3 -2,3 -2,4 -3,-1 -3,2 -2,3 -3,-1 0,4 0,4 0,4 4,-3 2,-3 2,-3 3,-2 5,-1 1,-3 2,-3 2,-3 4,-1 4,0 1,-3 -5,-2 2,-3 4,0 0,-4 -5,-1 -3,1 -5,-3 -2,1 -3,1 -4,-2 -4,3 4,2 -2,3 -2,3 -2,3 -4,0 -4,-1 0,-4 4,0 3,-3 -3,-1"
       id="path38"
       inkscape:connector-curvature="0" />
    <path
       style="fill:none;stroke:#000000;stroke-width:1"
       d="m 163,5 1,-5 -4,0 -2,4 -4,0 0,4 -4,0 -3,1 2,-6 -4,0 -3,2 0,4 -2,3 -2,3 0,4 -2,3 -4,0 -2,3 -1,4 1,4 3,-3 2,-3 4,0 2,-2 2,-3 0,-4 2,-3 2,-1 4,-1 4,0 0,4 -4,1 -3,2 -1,4 -2,4 -2,4 -4,0 -3,2 0,4 0,4 -2,4 0,4 0,4 -2,3 -2,3 -2,2 3,4 -1,4 -1,4 -2,2 -4,0 -2,4 0,4 -3,1 -4,0 -3,2 -5,-1 3,-4 -3,-1 -4,1 -3,1 3,4 1,4 -2,3 -1,3 -2,3 -3,2 0,4 -4,-3 -2,2 1,4 -2,3 -3,-4 -2,4 -1,3 -1,4 4,1 2,-3 4,0 2,-3 2,-3 4,2 -1,4 -2,3 -4,2 -2,1 -2,3 -4,-1 -3,2 -2,-5 -4,0 2,5 -3,2 0,4 4,-1 4,0 4,-2 4,1 3,-3 4,0 0,-4 4,-2 1,-4 2,-3 0,-4 -4,-2 0,-4 3,-2 2,-5 2,-3 1,-4 3,1 4,0 2,-2 4,0 4,-1 1,-4 0,-4 4,1 1,5 -2,3 -2,4 -3,1 -4,0 -3,2 -4,0 -2,2 -2,3 -3,2 0,4 4,3 1,-4 3,-1 2,-2 2,-2 4,0 2,-2 4,-1 4,0 0,-4 2,-3 1,-4 0,-4 4,-2 3,-2 4,-1 -1,-4 5,0 3,-2 2,-1 2,-3 3,-2 3,1 3,-3 4,-1 3,-2 2,-3 2,-3 2,-4 -3,-1 -4,0 0,4 -3,2 -2,3 -4,0 -2,2 -4,-1 -2,3 -4,3 -3,3 -4,1 1,-5 2,-3 4,0 1,-4 2,-3 4,0 4,-1 2,-1 3,-2 0,-4 3,-2 4,0 2,-3 4,0 0,5 4,-1 1,-4 3,-2 0,-4 -1,-4 2,-2 1,-3 2,-3 4,0 4,0 4,-2 1,4 -2,3 1,4 0,4 -1,3 -5,1 0,-4 1,-4 0,-4 -4,0 -1,4 -1,3 0,4 -1,4 -2,2 -2,3 -4,2 0,4 -2,2 -2,3 -2,4 3,1 -5,2 -2,1 -4,1 -2,1 0,4 -3,2 -2,-5 -3,2 0,4 -4,0 -3,2 -2,1 -2,3 -4,0 -4,2 -1,3 -1,3 0,5 -3,1 3,4 -4,2 -3,1 -4,-1 -4,2 -3,2 -2,2 -3,2 -2,2 -4,1 -2,3 -1,3 -2,3 -3,3 0,4 -3,2 -2,4 -2,-4 -4,2 -4,0 -3,2 -4,0 -4,1 -3,1 -1,4 0,4 -2,3 -1,4 -3,2 0,4 -1,3 -2,3 -3,4 0,4 -4,0 -1,3 -4,1 5,4 -3,2 -3,-1 -4,0 -3,2 -4,1 -3,2 -5,-2 0,4 -4,1 -2,3 -4,-1 1,-5 4,-2 0,-4 4,-1 4,2 4,-2 3,-2 4,-1 2,-4 3,-2 2,-3 3,-1 2,-3 2,-2 0,-4 2,-2 0,-4 3,-2 1,-3 2,-3 1,-4 1,-4 1,-4 -4,-2 3,-3 3,-4 -4,-1 -3,2 -3,2 -2,3 -2,4 6,0 -1,3 0,4 -2,3 -2,4 -3,2 0,4 -3,1 -2,4 3,1 -3,3 -3,2 -2,3 -3,3 -2,3 -5,2 0,-4 2,-3 3,-3 2,-3 3,-3 0,-4 2,-3 3,-3 1,-4 3,-2 2,-3 1,-3 -5,1 -3,2 -2,4 -2,3 -3,2 -5,-2 2,-3 3,-2 2,-3 3,-4 2,-3 3,1 1,-4 2,-2 1,-4 3,-2 3,-2 2,-3 4,2 3,-2 4,0 1,-3 0,-4 2,-3 2,-2 3,-2 1,-3 2,-2 4,0 3,-2 2,-3 1,-4 -1,-4 -5,0 1,4 -2,3 -4,1 -4,1 -2,2 -1,4 -4,-2 0,-4 -4,1 -2,3 -4,2 -3,1 -2,3 -4,-2 -3,3 -3,2 -2,3 -3,5 -3,2 -2,3 -3,2 -1,3"
       id="path40"
       inkscape:connector-curvature="0" />
    <path
       style="fill:none;stroke:#000000;stroke-width:1"
       d="m 36,125 -3,2 -2,3 -1,4 -3,-1 -2,3 -1,3 -2,3 0,4 -3,2 -3,2 0,4 -4,-2 -3,1 -2,-6 4,0 4,-2 2,-3 1,-4 2,-3 0,-4 -2,-5 3,-2 2,5 3,-2 0,-4 3,1 2,-3 1,-3 4,-2 2,-3 3,-2 3,-2 0,-4 4,-3 -1,-4 0,-4 -4,1 -2,2 2,4 -4,1 0,4 -3,2 -3,3 -2,3 -5,1 -1,3 -4,2 -4,0 -3,2 -1,3 -4,0 0,-5 2,-3 3,-2 4,0 3,-1 4,-3 2,-1 2,-3 2,-1 2,-3 1,-3 2,-3 -1,-4 2,-1 2,-2 4,0 2,-3 -2,-5 4,-1 1,4 1,6 3,-3 2,-3 3,-2 2,-2 2,-3 5,1 4,0 4,1 4,-3 2,-3 2,-2 4,-1 3,-1 2,-3 2,-3 2,-3 2,-2 3,-2 4,-2 3,-1 3,-2 3,-1 3,-2 2,-3 2,-3 4,1 0,4 -3,2 -3,4 -4,2 -3,2 -3,2 -4,0 -2,3 -3,2 -2,3 -2,3 -2,3 -3,2 -4,0 -3,2 -4,3 -1,4 -5,-1 -4,0 -4,-1 -2,3 -1,4 -3,-1 -2,2 -3,2 -2,3 0,4 5,-2 3,-2 4,-1 2,-3 2,-3 3,1 4,-1 3,1 4,-1 1,-3 4,2 -2,-5 3,-2 4,0 3,-2 3,-2 1,-3 4,2 5,0 4,-1 0,5 4,0 1,-4 2,-3 3,-2 2,-2 2,-3 -5,-2 -3,2 -2,3 -3,2 -4,0 -4,1 -3,-1 3,-4 3,-2 3,1 2,-3 3,-2 3,-2 4,2 0,-4 2,-1 2,-2 2,-2 0,-4 0,-4 2,-3 0,-4 -4,0 -2,3 -5,-2 2,-3 3,-3 -1,-4 1,-4 2,-4 2,-3 4,0 -1,-4 3,-2 0,-4 2,-1 3,-6 -3,2 -5,-1 -2,3 0,4 -3,3 -2,2 -2,3 -1,3 -2,3 -1,3 1,5 -2,1 -2,3 -1,3 0,4 -2,3 -2,2 -3,-1 -2,3 -4,2 -3,2 -4,2 -3,2 -3,-1 2,-5 -3,-1 -4,0 0,4 -3,2 -2,-5 -4,1 1,4 -3,2 -2,-5 -4,1 1,4 -2,3 -4,0 -4,2 -4,0 1,-5 -4,0 -2,3 0,3 0,4 -5,-1 -3,-1 -3,2 -2,-5 2,-3 5,2 1,-3 2,-3 3,-3 4,0 4,0 2,5 3,-2 -1,-4 -2,-5 0,-4 4,-2 3,-2 3,-2 4,0 4,-1 3,-1 0,-4 0,-4 5,2 3,-2 2,-3 2,-3 2,-3 4,-1 5,1 -1,4 -4,1 -2,2 0,4 -3,1 -3,2 -2,3 -3,-1 0,4 -3,2 -4,1 -3,1 -4,0 -3,2 -4,2 0,4 4,-1 4,-1 3,-1 4,0 3,-2 4,0 2,-3 3,-3 3,-2 2,-3 4,-1 1,-4 2,-2 3,-3 3,1 -1,4 -2,3 -2,3 -4,3 -2,3 -3,2 -3,2 2,5 3,-2 3,-2 3,-1 1,-4 3,-1 3,-1 0,-4 2,-4 2,-3 0,-4 -1,-4 3,-1 2,-3 1,-4 0,-4 3,1 3,-2 0,-4 -5,0 -4,-2 -2,3 0,4 0,4 -2,3 -4,5 -1,-4 0,-3 2,-3 0,-4 -1,-4 -4,1 0,4 -2,2 0,4 -4,0 -4,1 0,-5 4,-1 0,-5 -4,1 -4,1 -1,3 0,4 0,4 -2,3 -2,3 -3,2 -4,-2 0,-4 4,0 0,-4 2,-1 0,-4 0,-4 3,-4 -4,0 -4,2 0,4 -2,2 0,4 -4,0 0,4 -4,-2 -1,3 -4,0 1,4 -3,2 -4,-2 -2,3 -4,0 -4,1 -4,1 -4,0 -2,1 -3,2 -2,3 -3,1 -3,-4 3,-2 2,-3 2,-3 5,0 4,0 -2,-4 1,-3 3,-3 -1,-4 4,-1 4,0 4,-1 1,4 -2,3 -4,-1 -2,3 -3,2 2,4 4,-1"
       id="path42"
       inkscape:connector-curvature="0" />
    <path
       style="fill:none;stroke:#000000;stroke-width:1"
       d="m 52,19 2,-3 4,1 2,-3 4,-2 2,-3 3,-1 4,-1 0,-5 -5,1 -4,1 -3,4 -2,-5 1,-3 -6,0 -3,1 -4,0 -3,2 -5,-1 0,4 0,3 -2,3 -1,4 -2,1 -4,2 -3,2 -2,3 -3,2 -2,4 4,1 1,4 -3,1 -4,0 -2,3 -1,4 -2,3 -4,0 2,-5 -4,0 0,-5 4,0 2,-3 3,-2 0,-4 0,-4 2,-1 3,-2 2,-3 3,-2 3,-2 3,-3 2,-3 0,-5 -3,-1 -2,3 -1,4 -3,1 -3,2 -3,2 -2,3 -3,-4 -2,3 0,4 L 8,19 7,14 9,10 11,7 13,6 17,8 20,6 23,4 25,1 19,0 16,2 11,1 6,1 1,4 6,5 5,9 l -3,2 2,6 -2,3 -1,8 3,-3 3,-2 4,1 0,4 -3,2 -2,1 -3,3 -1,4 2,5 1,5 -2,1 1,5 -2,2 -1,6 4,0 2,-2 2,-3 0,-4 2,-2 4,0 3,-2 1,-4 2,-4 4,-1 4,0 2,-3 6,-1 2,-3 3,-1 4,-1 3,-2 4,-1 3,4 2,-4 4,-1 4,-1 4,0 0,-4 4,-1 1,4 0,4 -3,2 -4,0 -4,1 -2,1 -2,3 -3,1 -3,2 -2,-5 -3,2 -2,1 -4,0 -2,3 -5,0 -2,2 -3,3 -4,0 -4,1 0,4 -1,3 -3,2 -4,1 -1,3 -2,3 -2,3 -4,2 -3,2 -2,7 3,-2 4,-2 2,-3 5,-1 1,-4 3,-4 4,-1 3,-1 2,-3 0,-4 2,-1 4,0 2,-3 3,-2 3,-1 4,-2 4,0 4,1 1,4 -4,0 -4,0 -2,3 -4,0 -1,3 -2,2 -4,0 -2,3 -1,3 -3,2 -4,1 -3,1 -1,4 -2,4 -4,0 -2,3 -3,2 -3,1 -4,3 5,1 0,4 -4,0 0,6 3,1 2,-2 4,-1 4,-1 0,-4 -4,1 0,-5 4,-1 1,-3 4,0 1,-4 2,-3 3,-1 2,-2 4,-2 2,5 3,1 4,-1 4,0 4,1 3,-2 2,-3 4,2 2,-1 2,-3 4,0 -1,5 4,0 2,-3 -1,-4 2,-1 4,0 3,-1 2,-1 4,-2 4,2 -3,3 -2,3 -4,0 -3,1 -2,3 -2,4 -3,1 -5,-1 -4,0 -4,-1 -2,3 -2,2 -3,3 -1,-5 -4,0 -4,0 -2,2 -2,3 1,4 -4,0 -3,2 -2,3 1,5 -2,3 -2,3 -3,3 -3,1 -1,4 -4,1 -3,-1 -3,2 -2,-5 3,-2 5,1 -1,-4 4,-1 4,-1 1,-4 2,-3 -1,-4 2,-3 3,-3 3,-2 2,-4 -3,-3 -3,2 -2,2 -2,3 -3,3 -2,3 1,4 -2,4 -3,2 -4,0 -2,3 -3,1 -3,-1 -1,4 2,5 -3,2 5,3 -2,3 -2,1 1,4 -2,4 4,2 -1,4 -4,1 3,6 2,-2 3,-3 2,-3 4,0 0,4 -2,4 -2,1 -1,3 -4,0 -4,2 2,5 -2,3 4,3 -2,3 -2,4 6,1 -2,3 -4,2 -1,4 3,6 2,-3 1,-4 4,-2 1,-4 3,-3 -5,-2 2,-3 5,2 3,-3 2,-2 2,-3 3,-2 3,-3 -3,-1 2,-4 2,-2 3,-3 2,-3 2,-2 2,-3 2,-3 3,-2 2,-3 2,-3 2,-1 2,-3 2,-2 2,-3 4,1 4,-2 2,-1 3,-3 4,-2 0,4 -2,3 0,4 -4,0 -2,1 -5,0 -2,3 -3,2 -3,3 -2,3 -2,3 -3,2 -2,3 -1,3 -3,2 -2,3 -3,2 0,5 -2,3 -2,3 -3,2 -2,3 -3,2 -2,3 -2,3 -2,3 -2,3 -4,2 -1,4 -2,4 -4,1 -2,3 5,3 -3,3 -1,3 6,-1 2,-3 0,-4 2,-3 2,-3 1,-4 4,-2 2,-4 3,-2 1,-3 2,-3 3,-2 2,-3 3,-2 2,-3 4,1"
       id="path44"
       inkscape:connector-curvature="0" />
    <path
       style="fill:none;stroke:#000000;stroke-width:1"
       d="m 42,154 -1,4 -3,3 -2,3 -3,2 -2,3 0,4 0,4 -4,-2 -3,2 -3,3 -1,3 -2,4 -2,3 1,5 -3,2 -3,2 -4,0 -3,2 0,5 4,-1 4,0 4,-1 2,-3 3,-3 5,1 4,2 1,-4 2,-1 3,-3 4,-1 3,-2 5,-2 0,4 -3,3 -3,2 -4,1 -2,4 -1,3 -3,2 0,4 -3,2 -3,-5 2,-3 -4,-2 -3,3 -5,2 -4,2 -4,0 -4,1 -3,3 2,7 3,-2 1,-3 4,-1 4,0 3,-2 3,-2 4,2 0,4 -4,1 -1,4 -3,-1 -5,-1 -2,3 -3,3 -4,1 -1,5 2,6 3,-3 1,-4 4,-3 4,-3 5,3 -4,2 -3,3 -2,3 -3,4 -2,4 -4,0 0,5 5,0 4,-1 1,-4 2,-3 3,-2 2,-3 2,-3 4,-1 -1,-5 0,-4 3,-1 2,-4 4,-2 3,-3 1,-5 3,-4 2,-2 5,-2 0,4 -1,4 -3,1 -2,3 0,4 -3,2 -3,3 -3,2 -3,5 4,0 4,-1 4,1 0,-4 2,-2 3,6 2,-4 2,-3 -4,-2 1,-4 2,-1 2,-4 1,-4 5,-2 -5,-2 2,-3 -4,-2 2,-4 0,-4 4,-1 4,-1 -1,-4 1,-4 4,0 0,5 4,0 2,-3 4,0 2,-1 1,-4 0,-4 2,-3 2,-3 2,-3 3,1 0,5 -3,2 -1,4 4,1 -4,3 -1,4 5,0 3,-2 2,-4 3,-3 -5,-2 2,-3 0,-3 2,-3 6,-1 -2,2 -1,4 5,1 2,-2 2,-2 4,0 2,-1 5,-1 2,-4 1,-4 -4,-2 -2,3 -1,3 -4,0 -4,1 -3,-1 3,-4 3,-1 2,-3 1,-3 1,-4 3,-4 2,-3 2,-4 3,-2 0,-4 0,-4 -5,1 0,4 -3,2 -1,3 -2,3 -1,3 -3,2 0,4 -2,3 -2,2 -4,0 0,3 -2,3 -2,2 -4,-1 -2,3 -4,-2 1,-4 2,-2 4,0 2,-2 -1,-5 -4,1 -3,1 -4,0 0,4 -1,4 -2,2 0,4 -3,2 -1,4 -2,3 0,4 -3,2 -5,-1 0,-4 3,-1 1,-4 2,-3 0,-4 3,-1 0,-4 2,-3 1,-3 0,-4 3,-2 4,0 4,-1 3,-1 4,0 2,5 3,-1 2,-2 0,-4 3,-2 2,-3 0,-4 3,-2 2,-3 1,-4 4,0 2,-2 2,-3 3,-1 2,-3 3,-2 4,0 4,0 3,-2 3,3 -1,4 -4,0 -4,0 -4,0 -2,4 -4,2 4,2 -1,4 -1,5 4,0 2,-4 4,2 4,0 4,0 4,0 3,1 -2,4 -4,0 -4,0 -4,0 -3,-1 -2,3 -4,0 -4,0 -4,2 0,5 -3,2 -1,4 4,1 3,-3 1,-4 2,-2 4,0 4,0 3,-2 4,0 4,0 4,0 4,0 1,-4 2,-2 0,-4 2,-1 0,-4 2,-3 5,2 -2,3 0,4 -1,4 -2,2 -3,4 0,4 -4,0 -4,0 -4,0 0,3 -2,3 -2,2 -1,4 -4,0 -2,3 -5,-2 2,-3 2,-3 4,0 1,-5 2,-2 -6,2 -4,0 -2,3 -2,3 -2,2 2,5 -3,2 -2,3 -4,3 -2,3 -4,0 -2,2 -3,2 -4,0 -3,-1 1,5 -3,1 0,5 -3,-1 -1,4 -4,1 -4,0 -4,0 -3,-1 -4,0 -2,3 -4,-1 -3,2 -4,1 -3,2 1,5 4,-1 3,-2 5,-2 0,4 -3,3 -3,3 -2,1 -1,4 -4,0 -1,4 -2,3 0,5 3,1 2,-4 2,-3 3,1 1,-6 4,-2 2,-2 2,-2 2,-3 4,0 1,-4 -5,-1 1,-4 5,1 5,0 -1,4 0,4 -2,3 -4,2 -2,3 -3,2 -4,2 -2,3 -1,5 -4,1 -2,4 -4,2 -3,-1 -3,2 -1,4 -4,1 -4,-1 -4,0 -4,0 -4,1 -2,4 -3,1"
       id="path46"
       inkscape:connector-curvature="0" />
    <path
       style="fill:none;stroke:#000000;stroke-width:1"
       d="m 26,239 -2,3 -3,3 -3,2 0,4 -3,2 5,5 -4,0 -4,1 -2,-5 -3,2 -4,-1 0,6 5,0 -1,4 -2,3 -4,0 5,5 4,-1 2,-3 1,-4 4,2 1,-3 4,0 3,-3 4,0 3,-3 3,-4 4,-2 2,-3 1,-5 -4,0 -3,4 -4,1 -1,4 -3,3 -4,-1 1,-5 2,-3 4,-3 4,-1 1,-5 5,1 4,0 4,2 3,-3 4,-2 3,-3 4,-1 -1,6 -1,3 -4,1 -4,2 -5,1 -1,4 -1,5 -2,3 -4,1 -2,3 -2,3 -3,3 -5,-1 -3,3 -3,3 -4,0 -2,4 -3,2 -5,0 -4,-1 0,6 0,6 4,-2 1,-4 4,1 4,-1 3,-1 2,-3 2,-1 3,-3 3,-2 3,-1 4,-2 4,-3 3,-5 5,1 -1,4 -3,2 -3,3 -3,3 -4,2 -2,3 -3,1 -3,3 -3,2 -5,2 -4,1 -3,2 -3,2 -3,2 -3,3 0,6 5,-2 2,-3 4,-2 4,-3 4,-1 3,-2 4,-1 3,-3 3,-2 4,-2 2,-3 4,-2 2,-3 3,-2 3,-3 2,-2 4,-2 2,-3 4,1 -1,-5 4,0 4,0 -1,-5 4,0 4,-1 1,5 -3,2 1,5 -4,0 -4,0 -1,4 5,2 4,0 1,5 -4,0 2,5 -3,2 -3,2 -4,0 -4,1 -3,-1 2,-5 5,0 3,-2 0,-4 -5,0 -1,-5 -4,2 0,4 -4,0 0,4 -4,0 -1,4 5,2 -2,4 -1,4 -3,2 -2,4 4,2 4,-2 2,-4 1,-4 4,1 4,-1 4,0 4,0 3,-2 2,-1 3,-2 5,2 -2,4 -3,2 -4,1 -3,3 -3,-1 -5,-1 -4,1 -3,3 5,2 -3,3 -5,-1 0,4 -5,-2 0,4 -4,0 -5,-2 4,-4 -4,-1 -4,1 -1,5 -3,3 -3,1 1,-6 1,-4 1,-4 3,-2 4,1 0,-5 3,-2 3,-3 -2,-5 -3,3 -4,2 -3,3 -3,2 -3,3 -3,1 -5,1 -4,1 -3,3 -2,3 -2,3 -4,-1 -2,3 5,3 -3,3 -4,-1 -1,6 4,0 5,-1 3,-3 1,-5 3,-3 2,-4 3,1 3,-3 3,-1 -1,6 -2,4 -4,0 -2,3 -1,4 -3,3 -4,3 -3,2 -4,0 -2,4 4,3 3,-2 5,-1 2,-4 4,-2 3,-2 1,-4 3,-2 4,1 -2,5 -1,4 -2,3 -4,0 -4,3 -3,3 -3,2 -3,2 -5,-2 -2,2 4,4 -3,3 -1,4 6,2 2,-3 1,-4 3,-3 4,-2 3,-3 2,-3 5,0 4,-2 1,-4 1,-4 2,-1 2,6 3,-4 2,-4 -3,-1 -4,-2 3,-4 3,-2 3,5 2,-3 5,2 2,-1 3,-3 4,-3 4,0 3,-3 1,-4 2,-1 2,7 3,-2 1,-4 3,-2 3,1 2,-3 3,-2 2,-4 0,-5 4,0 4,0 3,-3 1,-4 3,-3 1,-5 -4,0 -3,2 -2,3 -1,4 -4,0 -4,0 -4,0 -4,-1 2,-5 4,0 5,1 1,-4 0,-4 4,1 5,-2 5,0 2,-4 1,-4 2,-3 0,-5 -4,0 -2,5 -3,2 0,4 -4,0 -3,2 -5,-2 -3,2 0,5 -2,1 -5,0 0,-5 2,-3 1,-4 3,-2 5,2 4,-1 2,-2 2,-3 3,-1 -2,-5 4,0 3,-1 2,-3 3,-2 1,-4 3,-2 5,-1 1,-4 4,0 3,-4 2,-2 3,-2 2,-4 3,5 2,-4 0,-4 4,0 3,-1 2,-3 1,-4 3,-2 3,-3 2,-3 3,-2 0,-4 0,-4 4,1 2,-2 2,-3 3,-3 -3,-1 0,-5 4,0 5,1 -1,-4 1,-3 1,-4 4,-2 4,0 4,1 1,4 -4,0 -4,0 -2,3 5,2 4,0 4,1 2,-4 0,-4 2,-3 4,-2 2,-3 5,0 -2,-5 -3,1 -4,0 -2,3"
       id="path48"
       inkscape:connector-curvature="0" />
    <path
       style="fill:none;stroke:#000000;stroke-width:1"
       d="m 201,158 -3,1 -2,3 -4,-2 1,-4 4,-2 2,-3 5,-1 4,-1 2,-3 4,-1 3,1 0,4 -4,0 2,5 4,0 -1,5 -2,1 -3,3 -2,1 -2,3 -3,-1 -2,3 0,4 -3,2 -3,3 -4,0 -5,-1 -4,-1 0,4 -4,1 -3,-1 0,4 -2,3 -2,3 -2,3 -3,1 0,4 -2,3 -3,2 -3,3 -3,3 -2,3 -2,4 -2,3 -4,0 -1,4 -2,1 -3,3 -4,-1 -2,3 -2,2 -2,1 1,4 -5,-2 -2,3 -1,4 -4,-3 -2,3 -2,3 -3,4 4,2 4,0 1,-4 4,1 3,-3 1,-4 4,2 4,2 -3,3 -3,2 -5,3 4,2 -1,4 -1,4 5,1 2,-3 -1,-5 3,-3 3,-3 4,0 3,-2 3,-3 1,-4 1,-5 -4,-1 -1,4 -2,3 -3,2 -4,-3 3,-3 -5,-2 3,-3 4,1 2,-4 5,1 0,-4 2,-1 3,-3 5,2 -3,3 -2,4 2,5 -1,4 -1,5 4,0 2,-4 3,-2 -4,-5 1,-3 2,-3 2,-4 2,-1 2,-3 3,-2 0,-4 4,-1 4,-4 1,-4 3,-4 2,-4 0,-4 -4,2 -2,4 -3,2 -2,3 0,4 -4,1 -3,3 -2,3 -2,2 -4,2 -4,-1 2,-4 3,-3 2,-3 4,-2 3,-3 2,-4 3,-3 2,-3 2,-3 3,-1 0,-4 4,0 3,-3 3,1 4,0 4,0 2,-3 2,-2 4,3 4,0 0,-4 -5,-1 0,-4 4,0 1,-3 3,-4 4,0 5,3 -3,3 -3,-1 -2,3 1,5 0,4 3,-3 2,-3 3,1 1,-4 2,-3 2,-1 3,-2 4,0 4,-1 3,-1 4,-1 1,-4 2,-1 1,-4 4,0 0,4 5,-1 0,4 -3,3 -3,-1 -3,2 -3,3 -3,1 -4,1 -3,1 -4,0 -4,3 0,3 -2,3 -3,2 -2,1 -3,2 -4,1 -3,-1 -4,0 -5,-1 0,4 -4,2 -1,-4 -4,1 -5,-1 -3,3 4,2 4,0 -1,5 -4,-1 0,4 -2,3 -3,3 -1,4 4,1 3,-3 3,-3 2,-3 3,-2 0,-4 4,-1 4,-2 2,-3 4,1 -1,5 -4,2 -3,2 -2,3 -2,3 -2,3 -4,1 -2,3 -3,3 0,4 0,4 0,4 -2,3 -4,-4 -2,3 -2,3 -2,3 -5,1 -1,-4 3,-2 3,-3 2,-5 5,0 0,-4 -1,-5 -4,0 0,4 -4,0 -1,4 -2,3 -2,2 -4,2 0,4 -2,3 4,2 0,4 -3,2 -3,2 -1,4 -3,2 -4,-2 -4,0 -1,4 -4,0 -5,0 -3,4 4,1 -2,4 -2,3 -4,2 -5,0 -4,-2 -2,3 -4,2 -4,0 3,-5 1,-4 3,-2 1,-4 -5,-1 -4,0 1,5 -3,2 0,4 -3,2 0,4 1,5 -2,2 -1,4 -3,2 -2,5 3,1 4,-2 3,-2 1,-4 3,-2 -1,-5 4,1 4,0 2,-3 4,-1 4,0 5,-2 0,4 -3,3 -5,0 -1,4 -4,0 -4,1 -3,3 0,4 -3,2 -2,3 -3,1 -4,1 -3,1 -1,4 -2,3 -5,-1 2,-5 0,-4 2,-3 -6,0 -1,5 -1,3 -3,2 -2,3 -4,1 -3,2 -2,3 -4,3 -4,-2 -3,2 1,5 -4,0 -2,-5 -3,3 0,4 -3,1 -5,-1 -2,1 -3,3 -2,4 -2,3 -3,3 -4,0 -2,3 -5,1 -2,2 -4,1 -1,4 -4,0 -2,4 -1,4 -3,3 -4,1 -4,-2 0,5 0,4 5,-2 5,0 3,-3 3,5 -4,3 -4,1 -4,1 -2,3 -5,-4 2,7 -3,3 3,8 2,-4 3,-3 3,-3 4,-1 2,-1 4,-1 1,-3 3,-4 -1,-5 1,-4 -5,-1 1,-5 5,2 2,-1 0,-5 3,-2 4,1 -1,-5 5,-1 4,0 2,-3 3,-2 2,-4 2,-4 4,0"
       id="path50"
       inkscape:connector-curvature="0" />
    <path
       style="fill:none;stroke:#000000;stroke-width:1"
       d="m 57,329 3,-1 5,-2 4,0 4,0 2,-3 0,-4 5,1 2,-3 4,-2 3,-2 3,-1 3,-3 3,1 -1,5 -3,3 -4,1 -3,2 -2,3 -4,1 -2,4 -4,2 -5,0 -5,0 -3,3 -3,1 -4,0 -1,4 -3,4 5,1 3,-3 4,0 3,-2 2,-3 4,0 5,0 4,-1 3,1 0,-5 3,-1 3,-3 3,-2 3,-1 3,-3 3,-2 0,-5 2,-3 4,2 1,-4 1,-4 3,-2 4,-1 0,4 -3,4 5,2 3,-2 4,-1 4,2 1,-4 4,1 2,-2 -2,-5 6,1 3,-3 1,-4 4,-1 4,0 2,-3 0,-5 5,0 5,1 3,-2 2,-3 2,-2 5,2 2,-3 3,-3 4,-1 3,-3 2,-3 3,-2 3,1 0,-4 3,-3 3,-2 1,-4 3,-2 2,-2 4,-1 2,-3 4,2 -1,4 -4,2 -3,3 -3,2 -2,4 -4,2 4,5 3,-1 2,-3 2,-3 3,-3 3,-2 3,-1 1,-4 3,-2 2,5 3,-2 0,-4 4,0 4,1 1,-4 2,-4 3,-3 1,-4 1,-4 1,-4 2,-3 3,-3 2,-4 2,-4 4,0 2,-1 -1,-5 3,-3 2,-3 3,-2 4,-1 4,2 1,-4 4,0 4,1 0,4 -4,0 -2,3 -1,4 -4,0 -1,-5 -3,2 -2,2 3,5 -5,-2 0,3 0,4 0,4 -1,4 -1,4 -2,3 0,4 -2,1 -2,3 -5,-1 2,-4 2,-5 2,-4 2,-3 0,-5 -4,1 -2,4 -2,3 -1,4 -2,3 -1,4 -1,4 -2,3 -2,2 -1,4 -1,3 -3,2 -5,-1 -2,4 -2,3 -5,-2 -3,3 -3,2 -3,1 -2,4 -2,3 -2,3 -4,0 -4,0 -2,-5 -4,2 -3,1 -3,2 -4,3 -4,1 -1,4 -3,2 -2,3 -4,-4 -2,4 -4,2 -4,0 -4,-1 1,5 -2,2 -4,1 -5,0 -2,4 -2,3 -3,2 -1,4 -3,1 -4,1 5,4 -1,4 -3,-1 -2,4 -2,3 0,4 -2,3 -2,3 -4,1 -3,2 -1,4 -1,4 -2,3 -4,-1 0,4 -2,3 -5,2 -2,2 -5,0 -4,1 -3,2 -5,1 -5,1 0,-5 4,-1 4,-2 4,-2 5,0 2,-3 5,1 1,-4 0,-4 5,-1 3,-2 -1,-5 3,-2 2,-3 4,0 3,-3 1,-4 1,-5 2,-2 1,-4 -5,-2 -3,3 0,5 -2,3 -1,4 -5,-1 -2,3 -2,3 -2,5 -1,4 -5,-3 -1,4 0,5 -4,0 -3,3 -1,-5 3,-4 1,-4 3,-4 4,0 1,-3 2,-4 3,-4 4,-1 2,-3 2,-3 -5,-2 -3,3 -4,0 0,5 -4,2 -2,3 -4,1 -1,4 -4,0 -3,4 4,1 -2,4 -4,0 -5,-1 2,5 5,1 1,5 -2,2 -5,2 1,-5 -4,0 -2,4 -1,4 -1,4 1,5 -1,4 -4,0 -2,3 -5,-2 -4,1 -3,4 -5,2 -6,1 1,-4 4,-2 -1,-5 5,2 -1,-5 5,1 2,-2 5,2 4,-2 0,-5 -5,1 -4,-1 -5,-1 -3,2 -4,2 -5,-2 -5,-2 3,-4 5,2 2,-2 3,-2 5,1 5,1 4,0 5,0 -2,-5 4,0 1,-4 3,-2 0,-4 -5,0 -3,3 -3,2 -2,5 -3,-5 -2,4 -4,-1 -4,0 -4,-2 -2,3 -4,-3 -1,4 -4,3 -2,1 -1,4 -3,3 0,4 1,5 -3,3 -1,4 -5,2 -2,5 -4,-2 -3,2 -3,2 -1,4 -3,3 -2,2 -4,4 2,11 2,-4 2,-4 3,-3 3,-3 2,-3 3,-3 3,-1 4,-3 3,-3 4,0 3,-2 -1,-5 3,-2 0,-5 0,-5 4,1 5,1 0,5 -4,0 0,5 -1,4 -1,4 -2,4 -5,0 -3,3 -3,1 -2,3 -4,1 -2,3 -3,3 -4,3 -1,4 -1,4 -2,3 -3,2"
       id="path52"
       inkscape:connector-curvature="0" />
    <path
       style="fill:none;stroke:#000000;stroke-width:1"
       d="m 5,419 -2,4 0,6 0,6 5,-3 1,-4 1,-4 4,-3 2,-4 1,-4 1,-4 4,1 1,-5 3,-2 3,-2 3,-2 3,-2 2,-4 6,-1 2,-3 2,-3 5,0 4,0 3,-3 4,-3 4,-1 4,2 0,5 -4,-1 -4,2 -2,4 -4,1 -5,-1 -2,3 -3,3 -5,0 -3,3 -3,4 -3,3 -3,2 -3,3 -3,4 1,6 -3,-1 -3,3 -3,3 -1,4 -1,4 -5,3 -3,3 -2,4 -1,6 5,2 1,-5 3,-3 2,-5 6,-1 1,-4 1,-4 3,-2 4,-1 2,-4 -1,-5 3,-2 2,-1 3,-4 3,-2 1,-4 3,-3 4,0 3,-2 3,-2 3,-1 4,-1 3,-3 3,-3 5,2 3,-2 0,-5 0,-5 1,-3 4,-3 2,-3 5,2 2,-2 4,-1 3,1 2,-4 5,-1 5,-1 3,-3 4,1 2,-3 1,-3 3,-3 3,-2 4,-3 -5,-2 3,-3 3,-2 4,0 1,-4 4,2 4,-2 4,-1 -2,-6 -3,2 -5,1 1,-4 1,-4 5,0 0,-4 1,-5 2,-3 1,-4 4,-2 1,-4 3,-1 5,0 3,-2 3,-3 2,-1 5,2 -1,-5 4,0 4,0 3,-3 4,0 0,-4 2,-3 3,-3 4,0 3,-3 5,3 5,0 5,0 3,-2 2,-3 1,-4 4,2 3,1 3,-4 -5,-2 3,-3 4,1 5,-4 2,-3 5,2 -1,4 -1,4 -4,-2 -2,3 -2,4 -2,3 -3,3 -5,-2 -1,4 -3,2 -2,2 -3,4 -2,-5 -4,0 -4,1 -4,-3 -2,3 -4,0 -2,3 -1,4 -4,2 -3,2 -3,2 -4,0 1,5 -3,1 -4,-2 -4,0 -3,3 -1,4 -4,-3 -3,2 -2,3 -3,1 -1,4 -3,3 0,4 5,-2 3,-3 4,0 0,-4 4,-1 5,-2 2,-3 3,1 4,0 5,-1 1,-4 3,-2 3,-2 3,-3 4,-2 1,-4 4,-1 4,1 4,-2 1,5 -3,3 -5,-2 0,4 -4,1 -3,2 -3,3 -2,3 -3,2 -4,3 -2,2 -4,0 -4,0 -4,1 -4,2 4,3 -4,2 -3,1 -5,-1 -2,4 -2,1 -4,1 -1,3 2,5 -2,4 -2,2 -3,3 -2,-5 -4,2 -5,2 0,4 -1,4 -4,0 0,4 -5,0 1,5 -3,2 -3,3 -5,-1 1,5 -1,4 -5,-2 0,-5 -5,1 -1,4 -3,2 -5,-1 -3,2 0,5 -5,0 0,-5 -5,1 0,5 -1,4 1,5 -3,3 -4,2 -4,-2 -3,3 -5,2 -4,2 -3,3 -4,2 -4,0 -1,4 -3,3 -4,2 -3,5 0,5 -2,3 -4,3 -4,2 -1,6 -2,4 -4,-1 -3,2 -1,4 -3,3 -5,4 -4,0 -1,7 4,-1 5,0 2,-4 4,0 2,-4 3,-4 5,1 2,-4 4,0 5,-1 0,5 -5,2 -3,4 -5,-1 -2,4 6,2 5,2 1,-4 3,-3 5,1 1,-4 0,-5 3,-2 4,-1 1,-4 4,-4 2,-4 3,-3 3,-2 4,2 4,-2 2,-4 4,-3 -6,-2 1,-4 5,1 1,-3 5,2 3,-4 4,-1 1,-3 2,-4 2,-4 4,-2 5,-1 2,-3 1,-4 5,2 0,5 -2,3 -5,2 -4,1 -3,3 -2,4 0,6 -4,1 -4,1 -3,4 -3,2 -3,4 -3,4 -2,3 -6,1 -4,2 -2,2 -2,4 -3,1 -1,4 -2,4 -4,0 -1,4 -1,4 -4,3 -4,0 -1,4 -4,2 -3,4 -5,-1 2,-5 -4,-1 -4,3 -2,-6 -3,2 -2,3 -5,-1 -5,1 -2,4 -1,6 6,0 2,-5 5,0 7,1 -1,4 -5,1 -3,3 -5,2 -5,1 -1,6 6,-1 5,-2 5,-2 4,-2 5,-1 1,-5 4,1 6,-2 3,-3 4,-3 3,-2 3,-3 4,-2 1,-5 4,0 1,-4 2,-4 3,-3 2,-4"
       id="path54"
       inkscape:connector-curvature="0" />
    <path
       style="fill:none;stroke:#000000;stroke-width:1"
       d="m 69,447 3,-3 4,-2 6,1 1,-5 3,-3 2,-4 4,-2 2,-4 5,0 4,-3 5,-2 3,-3 -8,0 1,-4 3,-2 4,1 1,-4 4,0 3,-2 1,-4 -1,-5 3,-1 2,-4 3,-3 -5,-2 -4,3 -4,-1 -5,-2 -5,1 -2,3 -1,4 -5,1 -4,-1 0,5 -3,4 -3,3 -3,3 -3,1 -4,-2 -3,3 -4,1 -3,2 -3,4 5,2 0,5 -5,-2 -4,2 -3,4 -2,-5 -4,3 2,5 0,5 -5,-1 0,5 -4,2 -5,-1 -7,0 2,-3 4,-3 4,1 1,-5 4,-2 -4,-5 3,-2 3,-2 3,-3 2,-4 4,5 1,-5 2,-3 3,-3 4,-2 3,-2 4,-2 6,1 3,-2 3,-3 1,-4 0,-5 4,-1 5,1 1,-4 2,-3 5,0 4,-2 4,2 5,1 3,-3 5,2 0,-5 -5,-2 4,-3 4,-2 4,0 3,-3 -5,-3 5,-2 2,-1 2,-3 0,-4 1,-4 4,2 0,5 4,0 2,-3 1,-4 3,-2 2,-4 1,-4 -1,-5 5,0 2,-3 2,-1 5,2 1,-4 4,-1 1,-4 3,-2 5,0 4,-1 2,-4 4,-1 3,-3 2,-4 5,-1 3,1 2,-2 2,-2 3,-3 2,-5 4,0 1,-4 3,-2 3,-2 2,-4 6,-1 -1,4 -2,4 -3,3 -3,2 -1,5 -4,1 -3,1 -1,4 -2,3 -3,2 -3,2 -5,-2 0,4 -2,1 -3,2 -5,1 -2,4 -4,2 -3,1 -4,0 0,4 -2,3 -3,-1 -1,4 -4,0 -4,0 -2,3 -4,0 2,5 -3,2 -2,3 -3,4 -1,5 -3,2 -5,0 -3,2 -3,3 0,6 -2,1 -4,2 -4,0 0,5 2,5 0,5 -2,3 -3,3 -2,4 0,5 -3,4 -3,3 -2,2 -1,4 6,0 3,-3 2,-5 5,0 1,5 -3,2 -2,4 5,2 4,-2 1,-4 0,-5 3,-3 1,-4 3,1 3,-3 1,-4 4,2 1,-4 4,1 2,5 4,-1 -1,-5 1,-4 3,-1 2,-3 3,-2 3,-3 2,-4 3,-3 2,-3 4,-2 5,3 1,-4 4,0 1,-4 1,-3 3,-2 3,-3 4,-2 1,-5 1,-4 5,-2 5,0 0,-4 5,2 2,-2 2,-4 4,-2 3,-2 0,-5 3,1 0,-5 3,-2 3,-3 3,-4 2,-3 2,-4 5,1 -2,4 -1,4 6,-2 4,0 -2,-5 3,-2 1,-4 4,-1 2,-4 0,-4 -5,2 -2,2 -4,4 -4,1 -4,0 -5,-1 -2,3 -2,3 -1,4 -2,1 -2,3 -3,2 -3,3 -3,2 1,5 -4,-1 0,4 -3,3 -4,1 -4,2 -3,2 -3,2 -4,2 -3,2 1,5 -2,2 -3,2 -3,2 -4,1 0,5 -2,2 -5,1 0,-4 1,-4 0,-4 1,-4 4,3 2,-2 3,-2 2,-3 -2,-5 -4,2 -2,2 -5,-1 -3,3 -1,4 -5,-2 -2,1 -3,2 -3,2 -1,4 -3,2 -1,4 -2,3 -3,4 -5,-1 -3,4 4,2 -4,3 -1,4 5,2 2,-4 3,-3 3,1 1,-5 3,-2 2,-3 1,-4 2,-4 3,-3 3,-2 4,0 -1,5 -4,2 5,4 -4,2 -3,-1 0,5 -2,3 -3,2 -2,3 -4,3 -3,2 -1,5 -4,0 -4,-1 -4,2 -3,4 -3,2 -4,4 -2,3 -5,-1 1,-5 3,-3 3,-3 2,-2 4,-1 3,-4 -4,-2 -5,1 -2,-5 4,-2 4,1 2,-4 0,-5 2,-3 4,-2 5,1 2,-4 1,-5 2,-3 3,-2 3,-4 1,-4 3,-2 4,2 2,-1 3,-2 2,-3 4,1 0,-4 1,-4 4,6 2,-2 -1,-5 3,-1 2,-4 2,-3 5,4 -3,3 -1,4 -2,3 2,5 4,-2 2,-2 4,-2 -4,-3 3,-3 5,0 0,4 5,-2 3,-2 -1,-5 -4,1 -3,-1"
       id="path56"
       inkscape:connector-curvature="0" />
    <path
       style="fill:none;stroke:#000000;stroke-width:1"
       d="m 214,327 -5,0 -4,-2 4,-3 4,-1 4,1 0,-4 3,-3 2,-4 3,-3 4,-3 2,-3 3,-3 2,-4 3,-2 1,-4 4,1 4,-1 3,-1 4,-2 2,-4 1,-4 5,-2 2,-3 4,1 5,1 0,5 -4,-1 -1,4 -4,-2 -3,2 -1,4 -1,4 -4,0 0,5 -3,-1 -4,0 -4,0 -2,3 -4,3 -3,3 -2,5 -4,1 -2,4 -3,2 -3,4 2,5 3,-3 3,-2 3,-3 2,-3 3,-4 3,-3 2,-4 5,-2 4,0 4,1 4,-1 1,-5 5,-1 -1,-5 3,-3 2,6 3,-3 1,-4 4,-1 1,-4 1,-4 4,0 2,-3 4,5 1,-4 3,-1 2,-3 4,-2 2,-1 1,-4 5,2 -1,4 -2,4 -4,0 -2,4 -4,2 -1,4 -1,5 -5,-2 1,-4 -5,-1 -1,5 -4,3 0,4 -4,1 2,5 -1,6 4,0 2,-3 0,-4 3,-2 -1,-5 4,0 2,5 3,-3 4,0 4,-1 5,0 2,-3 5,-1 -4,-5 -4,1 -3,3 -4,0 2,-5 4,-3 4,-1 3,-2 2,-1 5,2 -3,4 -1,3 6,0 2,-3 0,-5 1,-4 2,-1 2,-4 2,-3 1,-4 4,1 -2,-5 2,-1 2,-3 4,2 1,-3 2,-3 2,-3 4,-1 0,5 4,-1 0,5 -3,2 -3,-1 -2,3 -4,2 -2,1 0,4 -2,3 -4,-1 0,4 -3,2 0,4 -3,2 0,4 0,4 -2,3 -4,0 -3,2 -4,2 -3,2 -4,2 -5,0 -3,2 -4,0 -5,2 -2,2 -2,5 -3,2 1,5 -3,2 1,5 4,-1 3,-3 0,-5 1,-5 4,0 1,-4 4,1 4,-1 3,-2 4,0 3,-2 4,-2 3,-2 4,-2 1,5 -2,3 -3,3 -3,-1 -1,4 -4,0 -4,0 -5,1 -4,2 -1,4 -4,-1 0,4 -1,4 -2,3 -3,2 1,5 4,1 2,-3 2,-3 2,-4 2,-3 2,-4 3,-2 4,-1 0,5 4,1 4,0 -3,-5 4,0 3,-3 3,-2 2,-4 4,-1 4,-2 2,-4 -4,-2 -3,3 -1,-5 3,-4 1,-5 0,-4 2,-4 2,-3 3,-2 3,-2 1,-4 2,-4 4,1 2,-2 3,-2 3,-3 0,-4 2,-3 -4,-3 4,-2 3,-2 4,0 2,-3 5,-1 3,-2 3,1 -1,5 -5,0 -3,3 0,4 -5,-2 -1,3 -1,4 -1,4 -3,3 -2,3 -3,2 -3,2 -4,0 0,4 0,5 -3,-1 -3,2 -2,3 -1,3 -1,4 -2,4 4,2 5,0 3,-3 -5,-2 2,-4 3,-2 4,0 -2,5 5,0 3,-2 3,-2 4,1 -1,4 -3,3 -4,1 -4,1 -3,3 -5,2 -3,1 -2,4 -4,3 -4,2 -2,3 -2,3 -4,1 -1,4 -2,5 -4,0 2,5 -4,1 0,5 -3,2 -2,4 -3,3 -4,1 -2,3 -1,4 2,6 3,-2 1,-4 3,-2 3,-3 2,-4 4,0 1,-4 1,-4 3,1 3,-2 3,-3 1,-4 -6,2 1,-5 3,-3 3,-2 3,-2 2,-4 3,-1 2,-4 3,-3 2,5 -2,4 -1,4 -1,4 -4,-3 0,5 -2,2 -2,1 1,5 -2,3 -2,3 -1,4 -3,-1 -3,2 -1,4 -2,3 -4,-1 -3,3 -3,3 0,4 -3,2 -2,4 -4,-2 -4,-2 -4,0 -2,3 -4,0 -4,2 -1,4 -1,5 -2,3 -4,1 -2,3 -2,3 -2,3 -1,4 -1,4 -4,3 -1,4 0,4 -1,4 -5,0 0,-5 1,-4 0,-5 0,-5 5,2 -1,-5 3,-2 1,-5 3,-3 1,-4 5,-1 2,-3 1,-3 1,-4 3,-3 4,-2 3,-2 3,-2 4,0 -1,-5 1,-4 -5,0 -2,4 -4,0 -1,3 -3,3 -4,2 -3,2 -1,5 -3,2 0,4 -6,0 0,4 -2,3 -2,4 -4,-1"
       id="path58"
       inkscape:connector-curvature="0" />
    <path
       style="fill:none;stroke:#000000;stroke-width:1"
       d="m 256,383 1,-5 2,-4 -2,-5 3,-2 4,2 1,-4 3,-2 1,-3 0,-5 3,1 5,-2 2,-3 1,-4 3,-2 3,1 3,-3 5,0 4,1 4,-2 3,-2 2,-4 2,-3 1,-3 3,-4 -3,-1 -4,-2 -1,4 -3,2 0,4 -2,3 -3,2 -6,0 -4,0 -4,1 -4,0 -3,2 -1,4 -2,3 -1,3 -4,-2 -4,1 -5,2 5,3 -1,4 -3,3 -2,-5 -3,3 -1,4 -4,1 -3,4 4,2 3,1 -2,4 -1,5 -3,5 4,0 5,2 -4,3 -1,4 0,4 0,5 0,5 0,5 -3,2 -5,1 0,-5 2,-3 1,-4 0,-5 -1,-5 1,-4 -5,-1 -3,3 -2,4 5,2 0,5 -3,4 0,5 -5,1 5,4 -5,1 -4,3 5,2 -2,4 -2,3 -4,-2 -4,2 -4,0 -3,2 -4,3 5,3 4,-1 4,-1 4,-2 5,3 2,-4 3,-3 1,-4 1,-4 4,-1 5,0 4,-1 3,-2 3,1 4,-2 1,6 -4,2 -3,2 -4,-1 -1,4 -3,2 -2,-6 -3,3 0,5 -3,2 -3,3 -2,4 1,5 -2,3 -4,3 -3,3 -2,5 -3,2 -1,4 -1,6 -3,3 -2,4 -4,0 -5,-2 -1,4 -2,4 -4,0 -2,4 -4,1 -4,1 -5,3 -3,3 -2,3 -6,1 0,-5 1,-4 3,-1 3,-3 4,0 2,-4 5,0 3,-3 3,-3 2,-1 1,-4 3,-3 4,2 4,0 2,-4 3,-2 -1,-6 -4,2 -4,3 -5,-1 3,-5 3,-3 1,-4 5,-1 2,6 4,-2 2,-3 1,-4 5,-1 1,-4 0,-5 -5,2 -3,2 -4,0 0,5 -5,-2 -1,-6 -4,2 0,5 -4,0 0,5 -3,3 -1,4 -3,3 1,6 -4,-1 -1,4 -1,5 -4,3 -4,0 -3,3 -3,-1 -3,3 -2,2 -4,-1 -1,4 0,5 -5,-3 -4,0 -4,0 0,5 -5,-2 -1,4 -6,-1 -4,1 -5,0 -4,2 -5,3 -2,0 -4,3 5,1 0,-2 3,0 2,2 -2,0 0,2 2,1 -1,1 0,2 -3,0 0,2 1,2 2,-2 0,2 0,2 2,1 1,2 -1,2 0,2 -1,1 -2,0 -2,0 -2,0 -2,1 -1,-2 2,-1 -1,-2 0,-1 -1,-2 2,-1 1,2 1,2 1,2 1,-1 2,0 1,-2 -2,-1 -2,0 0,-2 -1,-2 -2,0 0,-2 -2,-2 -1,2 1,2 -2,1 -1,2 -3,-1 1,-2 1,-2 1,-2 -2,0 -2,1 -1,-2 -1,1 -1,4 -2,1 1,2 2,-1 1,2 2,0 2,1 2,0 1,2 -1,2 0,2 -2,-1 -1,-2 -1,2 -2,1 0,-3 -2,1 -1,-3 -1,2 0,4 -4,3 -5,-2 -2,4 -5,-1 0,5 -7,-1 1,-4 0,-5 5,-1 4,-3 6,1 2,-4 -7,-2 2,-4 5,-1 1,-4 1,-5 6,0 3,-1 2,-6 3,-3 5,1 3,-3 2,-3 5,2 5,-1 5,1 1,-5 4,1 2,-4 4,0 5,1 3,-1 1,-5 5,-1 3,-2 1,-4 5,2 5,-1 4,0 1,-5 -5,-2 -5,2 -4,-1 -6,2 -3,3 -3,2 -5,4 0,-5 -4,0 -2,4 -4,2 -4,2 -4,3 -2,1 -4,1 -3,-6 3,-3 4,0 4,-2 5,-2 2,-4 2,-4 5,2 4,0 4,-2 5,-1 4,-3 6,1 1,-5 -5,0 -4,-2 -4,3 -4,1 -5,2 -5,-1 4,-4 4,-3 4,-1 0,-5 5,2 5,2 5,1 3,-3 1,-3 2,-4 4,-4 3,-3 4,3 -2,5 -3,2 -2,3 -1,5 -3,3 -1,5 5,2 2,-4 3,-3 1,-4 3,-3 2,-4 2,-5 0,-5 4,1 0,-5 3,-3 3,-3 4,-2 4,0 4,-2 -3,-5 4,0 2,-2 1,-4 0,-5 4,2 1,-4"
       id="path60"
       inkscape:connector-curvature="0" />
    <path
       style="fill:none;stroke:#000000;stroke-width:1"
       d="m 234,405 3,-3 -5,-4 -3,3 -5,0 0,5 -1,4 -3,1 -2,4 -1,4 -4,1 -3,2 -3,2 -2,2 -3,3 -3,2 -2,4 -4,-5 1,-4 4,-2 2,-3 2,-3 4,-2 2,-3 4,1 1,-4 2,-4 3,-2 1,-4 1,-5 4,1 3,-2 5,-1 1,-3 4,-2 0,-5 5,2 0,-4 4,-1 1,-6 -2,1 -4,1 -5,2 0,-4 -1,-5 5,1 2,-3 2,-4 1,-4 4,1 2,-4 2,-3 1,-3 3,-3 3,-1 3,-2 4,-1 3,-2 1,-4 -4,-2 -3,3 -3,-1 -3,2 -3,2 -3,3 -3,2 -2,4 -1,4 -5,0 -2,3 0,5 -4,-1 0,4 -5,-1 -5,-1 1,-4 4,0 1,-4 4,0 1,-5 4,-1 3,-2 1,-4 3,-3 3,-2 3,-3 1,-4 3,1 4,-1 3,-2 4,-1 5,1 -1,5 4,0 5,0 3,-2 -2,-5 -4,2 -1,-5 -4,0 2,-5 1,-3 3,-4 -4,-1 -4,1 -2,3 0,4 -1,4 -4,1 -4,-1 -2,3 -5,-2 -2,1 -3,2 0,5 -3,-1 -1,4 -3,3 -2,4 -3,2 -3,1 -2,4 -4,2 -3,2 -4,0 1,5 -4,0 -2,-5 -2,5 -1,5 -3,2 -3,2 -3,3 -1,4 6,-2 4,-2 4,-2 1,-4 4,0 1,5 4,0 4,0 1,5 -5,0 -4,0 -4,-1 -3,2 -3,2 -4,0 -3,3 -4,-1 -4,0 0,5 -5,-2 -5,-2 -1,4 -3,1 -3,3 -4,3 1,5 -2,2 -3,1 -3,2 0,5 -2,4 -3,2 -2,5 -2,4 -3,2 1,5 -1,3 -2,4 -5,0 -5,-3 4,-3 2,-1 0,-5 1,-4 3,-3 3,-3 1,-4 -5,-1 -3,3 -3,2 -1,5 -4,-1 1,5 -1,4 -4,3 -5,1 -3,4 -1,4 -5,0 -3,1 0,5 -5,-4 -4,0 -3,1 -4,2 -4,1 -5,-2 1,-5 5,0 4,-3 4,-1 5,1 4,-2 5,0 3,-4 -5,-2 -4,0 -5,-2 -1,4 -4,-1 -5,1 -3,3 -4,1 -4,4 -2,4 -2,3 -3,3 -5,2 -3,1 -3,2 -3,3 -2,4 -2,3 -1,4 -1,5 -3,-1 -3,2 -4,3 -2,4 -3,2 -4,1 -2,4 -6,0 -5,3 -3,4 -5,1 0,5 -4,3 -2,-6 -5,2 -4,2 -4,1 -4,4 -1,6 1,9 4,-1 0,-6 2,-4 3,-3 6,-2 0,6 -3,3 -2,4 0,5 -2,4 -5,1 -2,4 8,1 -2,4 -4,3 -3,3 2,9 4,0 2,-4 2,-4 4,-3 1,-6 0,-5 1,-5 1,-4 2,-3 1,-5 2,-4 4,-2 3,-2 1,-5 5,2 0,-5 2,-4 5,0 5,0 2,-4 5,0 2,-1 1,-5 2,-4 5,2 -2,5 5,2 3,-3 2,-4 -6,-3 3,-3 1,-4 1,-4 2,-4 2,-4 4,-2 4,-3 5,-2 3,-3 4,2 5,0 -1,5 -5,0 -5,1 -4,3 -4,3 -3,3 -2,4 -1,6 5,1 2,-4 2,-3 2,-4 5,2 0,-5 4,1 3,-3 6,0 5,2 2,-4 1,-4 -7,1 0,-5 4,-2 5,0 4,2 -2,5 5,2 2,-4 2,-4 1,-4 5,1 2,-4 1,-4 3,-2 4,2 0,5 -2,3 -3,3 -5,2 -2,4 -3,4 -4,4 -4,-1 -3,2 0,5 6,0 5,0 2,-4 5,1 -1,-5 3,-3 2,-4 5,-1 3,-3 2,-3 0,-5 4,1 4,-1 3,-5 3,-4 5,2 5,0 2,-4 4,0 3,-3 0,-5 4,-1 1,-4 1,-3 3,-3 2,-4 4,-1 -1,-5 5,1 3,-2 2,-4 -5,-2 -3,2 -5,-2 -2,3 -1,4 -2,4 -3,2 -2,3 -4,1 2,5 -5,-1 1,5 -1,4 -4,0 -3,4 -6,-1 1,-3 3,-2 0,-5"
       id="path62"
       inkscape:connector-curvature="0" />
    <path
       style="fill:none;stroke:#000000;stroke-width:1"
       d="m 168,417 4,1 0,-5 2,-4 1,-4 4,0 2,-3 3,-2 3,-3 -5,-3 3,-3 4,-1 3,-3 4,3 5,-1 1,-4 4,3 3,-2 2,-3 4,0 4,-3 4,0 4,0 4,-1 1,5 -5,1 -1,4 -5,-4 -1,4 -4,0 -3,2 -4,2 5,3 -2,4 -2,4 -3,3 -4,1 -2,4 -4,1 -2,4 -2,4 -5,5 0,5 -2,3 -1,4 -5,-2 0,5 -4,0 2,6 -4,0 -5,-2 2,-5 -5,-1 -3,4 -3,5 -4,0 -1,4 -4,3 -3,3 -4,1 -3,4 6,2 -4,3 -2,4 -5,-2 -2,3 -5,1 -3,1 -5,-1 -4,0 -2,4 -4,0 -3,3 -2,4 -4,0 -3,3 -5,1 -1,5 -4,1 -1,5 -5,1 -3,3 1,6 -4,0 -6,-2 1,-5 3,-3 2,-4 5,-1 2,-4 2,-4 3,-2 4,-2 3,-2 1,-4 5,1 3,-3 2,-3 4,-1 2,-4 -5,-2 -4,1 -4,2 -1,4 -6,-1 -2,4 -3,3 -5,2 -3,2 -1,5 -3,3 -5,2 -2,4 -4,-6 -3,4 -5,-1 -4,4 -5,1 -4,0 0,6 -5,2 -2,3 -5,2 -3,3 -1,5 -2,5 -2,6 5,1 2,-5 3,-3 1,-5 4,-3 5,1 1,-5 4,-1 1,-5 4,-1 4,0 1,-5 7,1 -1,4 0,5 -3,2 -4,1 -3,1 -2,5 -3,1 -3,4 -6,-2 -1,5 -2,4 -2,3 -1,6 -6,-2 -5,0 -2,5 -3,4 -2,5 -1,5 -4,2 -3,1 -6,-1 4,7 5,1 -5,5 -4,3 3,7 4,-3 3,-4 4,0 3,-3 -2,-6 3,-1 2,-5 1,-5 2,-4 2,-5 4,-1 6,2 2,-5 3,-5 3,-3 0,-5 6,-1 3,-2 3,-5 5,0 2,-2 5,-3 4,0 5,3 4,-1 4,-2 -1,-7 4,-1 4,-2 1,-5 4,-4 3,-2 4,-3 5,-3 4,-3 3,-1 3,-4 5,0 1,5 -3,2 -2,4 -5,0 -4,3 -2,4 -2,1 -3,3 -5,0 -2,5 -2,4 -5,2 0,6 -2,4 -4,1 -5,0 0,6 -6,-2 1,-5 -5,-2 -1,6 -4,0 -4,0 -2,4 -2,4 -5,-2 -2,4 -2,5 -3,3 -2,4 -8,2 -4,2 -1,5 -2,4 -2,5 -1,5 -2,7 -4,3 -3,1 -4,2 -4,3 -6,-2 3,7 -3,4 4,7 4,-3 2,-6 3,-3 5,-3 5,-3 3,-5 3,-3 1,-6 2,-4 2,-5 2,-4 3,-4 5,2 3,-3 2,-5 3,-5 3,-3 5,3 2,-5 1,-5 5,0 5,1 4,1 -4,5 -5,0 -2,5 -6,4 -4,1 -2,5 -2,4 -5,4 -5,-1 -1,5 -3,3 -2,5 -1,5 -2,5 -4,2 -2,5 -3,3 -5,0 -2,5 -4,2 -1,6 -4,3 -8,-1 6,4 -2,5 -2,5 1,8 5,0 2,-6 2,-4 3,-3 2,-4 2,-5 3,-5 3,-3 5,-2 3,-5 3,-3 3,-5 4,-2 -1,-6 2,-4 4,-3 3,-1 2,-5 5,-3 2,-5 4,-1 2,-6 6,0 1,-4 5,0 1,-5 5,3 5,0 6,1 2,-4 4,-1 3,-2 5,-3 1,6 -1,5 -3,1 -5,1 -5,3 -5,0 -5,0 -3,3 -4,0 -4,3 -5,0 -1,5 -5,2 -2,6 -3,1 -2,4 -2,5 -5,-2 -1,5 0,6 -4,3 -2,3 -2,4 -4,2 -1,5 -3,2 -4,2 -4,3 -1,6 -2,5 -3,3 -3,5 -3,4 -1,6 -6,-4 -2,3 -3,5 7,2 -3,5 -3,4 -3,7 7,3 4,-2 -5,8 -4,8 5,0 7,-2 1,-5 5,-4 2,8 6,-1 -2,-8 3,-3 1,-6 3,-4 3,-2 3,-2 3,-4 5,0 -4,-8 2,-5 2,-4 5,0 4,-3 2,-4 2,-5 2,-5 2,-5 2,-4"
       id="path64"
       inkscape:connector-curvature="0" />
    <path
       style="fill:none;stroke:#000000;stroke-width:1"
       d="m 68,607 2,-5 1,-5 -6,-3 -1,6 -3,3 -2,5 -2,4 -2,4 -2,3 -2,5 -4,1 -5,2 -2,5 -2,4 1,7 -4,3 -5,-1 -1,5 -3,5 -2,5 -4,4 -6,-3 3,-5 2,-4 3,-5 1,-5 3,-5 5,0 0,-6 2,-5 2,-4 3,-3 4,-2 4,-2 1,-6 3,-3 3,-4 2,-4 3,-4 1,-5 5,-1 1,-5 3,-4 3,-5 3,-3 5,1 0,-6 5,0 4,-1 3,-1 3,-3 4,0 5,0 3,-2 3,-3 5,0 4,-4 1,-5 2,-3 -3,-4 0,-2 2,-2 0,2 1,2 2,-1 2,-1 -2,-1 1,-1 1,-2 2,0 0,2 2,2 1,-2 -1,-2 -1,-2 2,-1 1,2 1,2 1,-2 0,-2 1,-1 -1,-2 1,-2 2,0 1,2 -1,1 1,1 1,2 -2,0 0,2 -1,3 0,5 -3,4 -5,-3 0,6 -2,4 -1,5 -4,2 -5,3 -3,3 -1,4 -1,6 -3,3 -7,2 1,-5 2,-5 2,-3 -7,1 -4,3 -1,4 -5,-3 -3,2 -2,5 -5,-1 -3,3 -3,3 -1,6 5,1 4,-4 4,-1 5,0 1,-5 6,1 0,6 -3,5 -4,2 -4,-1 -3,3 -5,1 0,6 -2,4 7,-1 3,-3 4,-2 6,-2 3,-5 4,-3 1,-5 4,-3 6,-1 3,-4 1,-5 2,-4 2,-4 5,-2 5,0 5,1 2,7 5,0 -1,-6 2,-4 6,1 2,-5 3,-3 4,-2 5,-1 5,-2 5,4 -4,3 -4,2 -4,1 -3,3 -3,3 -1,5 -6,-2 0,6 -3,5 -4,0 -5,-1 -5,-1 0,-7 -5,0 -2,5 -2,4 -2,5 -3,4 -6,0 -3,3 -2,6 -3,3 -2,3 -2,5 -5,-3 -2,4 -4,2 -4,3 -5,0 -6,-1 -3,4 -2,5 -2,6 6,2 3,-4 2,-5 6,2 4,-1 4,-3 4,-2 5,-2 5,0 1,-5 3,-4 3,-3 0,-5 4,-4 3,9 3,-1 0,-6 2,-4 2,-5 3,-4 5,1 6,2 4,0 6,0 2,-5 2,-5 6,-2 2,-4 3,-3 4,-2 4,-2 3,-3 2,-4 5,0 4,0 1,-5 2,0 3,0 0,2 2,0 1,-2 2,1 2,-1 1,2 1,2 1,2 1,1 0,2 -1,1 -2,0 0,-3 -2,0 1,-2 -1,-2 -2,0 0,2 -3,1 -2,5 -4,2 -5,-1 -2,4 -2,5 -4,-1 -4,2 -3,3 -2,4 -5,1 -3,3 -2,5 -1,5 -6,-2 -5,1 -2,6 -5,-1 0,-7 -5,0 -2,4 -2,5 6,3 -2,5 -3,1 -5,1 -5,0 -3,2 -4,2 0,8 -4,2 -5,-1 -4,2 -5,2 -3,4 -5,1 -4,-1 -3,4 -4,3 -7,-2 -4,-1 -4,2 -6,1 -3,5 8,2 5,0 5,0 4,-1 6,2 4,-3 4,-4 6,0 5,3 -5,4 -4,2 -3,4 -4,3 -5,-2 -5,1 -5,-1 -1,6 -1,5 7,-2 6,1 3,-1 6,2 3,-4 4,-2 2,-4 4,-4 5,-1 6,2 2,-5 3,-5 -7,-3 -4,4 -6,-6 3,-2 4,-3 7,2 3,-1 3,-4 -2,-7 4,-2 4,-2 5,-1 5,0 4,-3 0,-6 4,-1 5,1 0,-6 4,1 3,-2 6,-2 1,-5 2,-4 4,-2 5,-1 1,-5 4,-2 6,0 -1,5 -3,4 -2,5 -5,0 -4,3 -1,5 -5,4 -4,2 -4,2 -2,6 -5,-1 -3,2 -3,4 -4,4 -3,1 -5,0 -5,1 6,6 -5,2 -3,3 -2,6 -1,6 -3,5 -5,4 -5,-1 -4,2 -2,5 -3,4 -3,1 -3,4 1,7 -2,6 -5,1 -3,4 -6,-1 -5,1 -6,-2 -4,3 -6,-1 -5,3 -3,5 -5,3 -7,-2 1,-7 5,-1 3,-5 4,-3 8,-1 3,-4 7,2 5,0 5,0"
       id="path66"
       inkscape:connector-curvature="0" />
    <path
       style="fill:none;stroke:#000000;stroke-width:1"
       d="m 78,683 3,-3 5,-1 1,-6 -8,-2 -6,1 -6,1 -5,1 -8,0 -3,6 -6,-5 2,-6 6,-2 5,-1 2,-5 1,-7 -5,-1 -3,5 -4,1 -4,3 -5,3 -2,6 -2,7 6,2 -4,6 -6,1 -3,4 -5,-2 -1,7 -4,2 -3,-10 -5,4 -3,2 -4,5 11,3 -3,3 -5,3 -3,5 7,5 4,-4 5,0 2,-6 4,-4 5,-5 2,8 -3,6 -3,5 -4,6 -4,2 -6,2 -7,-4 -3,4 -1,8 9,0 -1,8 7,2 2,-7 4,-2 5,-2 3,-7 4,-5 1,-7 5,-3 4,-1 7,0 3,-2 3,-6 4,-3 9,-1 -2,5 -3,5 -4,3 -3,6 -7,1 -3,3 -6,-1 2,9 -5,2 -4,5 -2,6 -5,4 -3,3 -2,6 -7,-2 -8,-3 -6,0 1,15 5,-2 4,-1 5,0 8,2 7,2 0,-8 4,-5 5,-2 2,-6 2,-5 6,-3 1,-7 6,-6 7,-3 5,1 1,-7 3,-4 3,-4 0,-7 5,0 5,0 6,0 -1,-7 6,-3 3,-5 6,3 -2,6 -5,4 1,8 -4,4 -5,-1 -7,-1 -2,6 -3,5 -3,5 -4,6 -7,-1 -6,4 -1,8 -6,5 -1,8 -2,5 -5,3 -5,2 0,9 -7,2 -8,-3 -5,2 -5,0 -5,2 -5,2 -1,12 6,-1 5,-1 5,-1 4,-1 5,-3 6,2 -2,8 -5,4 -5,1 -5,2 -7,-2 -7,2 11,8 -4,3 -5,1 -4,8 1,9 7,-5 4,-2 5,-4 4,-6 4,-2 4,-3 6,-4 3,-7 2,-7 1,-7 4,-6 3,-4 5,-3 4,-4 1,-8 1,-7 5,-6 3,-5 7,2 5,-3 2,-6 3,-5 3,-4 2,-6 5,2 6,-1 4,-3 3,-4 -2,-8 5,-3 2,-5 1,-6 1,-6 6,3 7,3 3,-3 2,-4 -1,-7 3,-3 2,-5 4,-1 -1,-7 4,-5 4,-3 4,-2 3,-5 2,-4 4,-3 4,-5 3,-2 4,-2 3,-4 4,-4 5,-1 2,-4 6,4 -1,5 -6,1 -4,3 -2,5 -4,3 -4,3 -4,2 -2,5 -3,3 -3,4 -3,4 -5,2 -5,3 2,8 4,-4 6,-1 5,-1 2,-4 3,-5 4,-6 4,-2 3,-3 4,-3 3,-4 2,-5 6,1 3,-1 1,-6 1,-5 3,-1 2,-5 2,-4 4,-2 2,-3 2,-4 1,-6 -6,-2 -2,4 -3,4 -3,3 -3,4 -2,4 -5,0 0,-7 -5,-2 -2,4 -5,-1 0,6 -5,0 -2,4 -4,3 -4,2 -4,2 -3,5 -4,3 -3,5 -3,4 -4,2 -3,4 -3,5 -5,-1 1,7 -2,5 -4,2 -1,6 -2,4 -2,4 -5,-8 -3,4 -5,1 -3,5 -7,-4 5,-4 3,-6 4,-2 7,0 2,-3 3,-5 3,-4 -1,-7 5,-3 3,-1 3,-4 1,-5 5,1 2,-5 3,-3 3,-3 4,-1 3,-6 5,-2 4,-2 1,-5 6,-1 1,-6 5,0 4,-4 2,-5 4,-4 0,-6 4,-2 -8,-5 3,-3 5,2 2,-3 2,-5 5,-1 2,-1 1,-1 1,-2 -1,-2 -1,-2 2,-1 -1,-2 -2,1 -1,-2 -1,-2 -1,-2 -2,0 -1,1 -2,0 -2,0 0,-2 1,-1 2,0 0,-2 1,-2 1,2 1,2 2,-1 -1,-2 0,-1 -1,-2 2,-1 -1,-2 -1,-2 -2,1 1,2 -2,0 0,2 -2,-1 0,-2 1,-2 1,-1 -1,-2 2,-1 1,2 2,-1 1,2 2,-1 1,2 -2,1 1,2 2,-1 2,0 -1,2 -2,1 -2,1 1,2 0,2 -1,2 1,2 1,2 1,-2 0,-2 2,-1 0,1 0,2 0,2 0,2 2,0 2,0 -1,-2 0,-2 0,-2 1,-2 -2,0 -1,-2 -2,1 -1,-2 2,-1 2,0 0,-2 1,-1 1,2 3,0 -1,2 -2,1 2,1 2,0"
       id="path68"
       inkscape:connector-curvature="0" />
    <path
       style="fill:none;stroke:#000000;stroke-width:1"
       d="m 217,546 2,-1 1,2 1,1 1,2 2,-1 1,2 1,1 -3,0 -2,0 1,2 0,1 0,2 -2,0 -1,-2 -1,-2 1,-1 0,-2 -1,-2 -1,1 -2,0 1,2 -2,0 0,2 2,1 1,2 0,1 -2,0 1,2 1,2 -2,1 -1,-2 -1,-2 -2,-1 0,2 -2,0 1,2 1,1 2,0 0,2 0,2 2,0 1,-2 1,2 1,2 -1,1 -2,1 -1,-2 -1,2 0,2 -2,-1 0,2 -1,2 -1,-2 0,-2 0,-2 2,-1 0,-2 -1,-2 -1,2 -1,1 -2,1 0,1 -2,5 -1,5 -2,4 -2,5 -2,4 -4,4 -2,5 6,3 2,-5 4,-3 2,-5 3,-3 1,-6 5,1 0,-2 0,-1 2,-1 -1,-2 -2,1 -1,-2 2,-1 1,-1 1,-2 2,-1 2,0 1,-1 0,-2 2,0 1,-2 -1,-2 -1,-2 -1,1 0,2 -1,2 -1,-2 -1,-2 1,-2 0,-2 2,1 2,-1 1,2 2,-1 1,2 -2,1 1,2 1,1 -1,2 0,1 -2,1 -1,2 -1,1 0,2 -1,2 -1,-2 -1,-2 -2,1 1,2 0,1 0,2 -1,2 0,2 2,0 0,2 -2,0 0,2 -3,4 4,-1 1,-2 1,2 2,-1 -1,-2 2,0 0,-1 -1,-2 -1,-2 -1,-1 1,-2 2,-1 0,1 0,2 1,2 1,2 1,2 1,-2 2,-1 -2,-1 2,-1 1,-2 -1,-2 -1,2 -2,1 0,-2 -1,-2 2,-1 -2,-1 1,-1 -1,-2 2,-1 2,-1 0,-2 0,-2 0,-2 2,0 -1,-2 -1,-1 1,-1 -1,-2 2,-1 1,2 1,-2 0,-2 -3,0 -2,1 -1,2 -2,0 0,-2 0,-2 2,0 2,-1 -1,-2 4,-2 5,1 3,-3 2,-4 3,-1 4,-2 2,7 4,-3 1,-5 5,-1 5,-3 3,-4 4,-2 4,-4 -5,-2 -5,1 -4,4 -3,4 -4,0 -3,1 -4,2 -5,-1 -5,1 -3,3 -2,4 -3,1 -5,1 -5,-2 2,-5 3,-1 4,-2 3,-4 5,-1 4,-2 5,1 4,-3 6,0 5,-3 3,-4 3,-3 3,1 2,-4 5,2 -1,6 5,0 3,-3 3,-2 2,-3 0,-5 5,3 0,-5 4,0 3,-2 2,-4 4,0 2,-4 -5,-2 -6,2 -3,3 -4,1 -4,2 -4,2 0,5 -3,3 -2,-7 -3,2 -3,1 -6,1 -1,-5 1,-4 4,1 3,-2 5,0 4,-1 4,-3 2,-3 -5,-2 -4,2 -4,1 -5,0 -4,0 2,-6 5,0 4,-1 4,-3 5,2 3,-3 3,-2 2,-3 3,-3 5,3 2,-2 3,-3 3,-2 3,-4 2,-4 4,-3 3,-2 4,-4 3,-3 3,1 3,-4 0,-5 5,2 2,-3 2,-4 -7,0 3,-3 2,-4 2,-1 2,-4 3,-3 4,1 0,-5 4,1 4,-3 1,-4 4,0 -1,-5 2,-4 4,-2 5,-1 2,-1 -2,5 -3,3 -3,2 6,4 -3,2 -2,3 -4,0 0,5 -5,-2 -3,4 -2,4 -5,-1 -3,3 -1,6 4,0 3,-3 4,1 3,-4 2,-4 5,2 -1,4 -3,3 2,5 -5,-1 -5,0 -3,3 -5,-1 -2,3 -2,4 -5,0 -2,4 -2,4 -4,0 -4,2 -3,4 -4,2 -2,4 -3,3 -1,4 -4,2 -3,3 -4,2 -5,-2 -3,4 -4,3 0,5 6,-2 4,-3 5,2 3,-1 3,-3 3,-2 2,-1 4,-2 5,1 3,-2 1,-4 -6,-1 -4,0 5,-5 4,1 5,-2 -5,-4 4,-2 5,0 3,-3 1,-4 3,-2 4,-3 3,-2 4,0 3,-3 4,0 4,1 5,2 4,-1 0,5 -2,4 -5,-4 -2,1 -5,-2 -3,3 -1,3 -4,-2 -3,2 -4,2 1,5 -4,1 -5,2 0,5 -4,2 1,6 -2,4 -3,3 -4,0 -4,0"
       id="path70"
       inkscape:connector-curvature="0" />
    <path
       style="fill:none;stroke:#000000;stroke-width:1"
       d="m 325,487 -4,2 -3,3 -2,2 -1,5 -1,4 -3,3 -4,0 -1,5 -1,5 -4,-5 -2,4 -4,2 -2,4 -4,2 -4,3 -2,3 -4,2 -2,4 -4,2 -1,4 -5,0 -2,4 -4,1 -4,4 -2,4 -6,-2 -3,-1 -3,3 -3,3 -3,3 -1,-2 -1,1 0,2 -2,0 0,2 2,0 -1,2 -2,1 -1,2 1,2 2,-1 0,-1 2,-1 0,-1 2,-1 0,-2 1,-1 1,3 -1,2 0,2 -2,0 0,2 -2,0 -2,1 -2,0 -1,1 -2,0 1,2 1,1 2,0 1,2 -1,1 1,1 1,2 -2,0 0,2 1,2 -2,0 -2,0 -1,2 -2,1 -2,1 0,1 -2,1 0,1 -2,0 1,2 1,2 1,2 1,-2 0,-2 1,-2 1,2 1,-2 0,-2 2,0 1,-1 1,-2 1,2 2,-1 1,-1 2,0 -1,-2 -1,-1 1,-1 2,-1 1,-1 -1,-2 -2,1 0,-2 1,-2 -2,0 -1,-2 0,-1 2,-1 1,2 2,0 0,-2 1,-2 1,2 0,2 -1,2 0,2 1,2 2,1 2,-1 -1,-2 -2,0 1,-2 1,-2 1,1 2,-1 1,-1 -1,-2 -3,1 0,-1 1,-2 -1,-1 -2,1 -1,-2 1,-2 3,-2 3,-3 3,-1 4,0 5,2 1,-5 2,-4 4,-2 5,-2 2,-1 5,-2 0,-5 4,-3 4,-3 4,1 0,-6 4,-1 3,-2 2,-4 3,-1 5,1 4,1 -4,4 -4,2 -2,4 -5,1 -1,5 -6,1 -3,3 -1,4 -1,4 -5,0 -4,4 -3,1 -3,2 -3,2 -1,4 -2,5 -5,-2 -3,1 -4,0 -2,5 0,2 -2,1 -2,1 1,2 2,-1 2,-1 2,-2 0,2 -1,2 1,2 2,-1 1,-1 -1,-2 2,0 2,0 0,2 0,2 0,1 1,2 -2,1 1,2 2,-1 1,2 1,2 1,2 1,2 1,2 2,-1 -1,-2 -1,-2 -1,-2 -1,-2 -1,-2 -1,-2 0,-2 -1,-2 1,-2 1,2 2,-1 1,1 -1,2 0,2 0,1 1,2 2,-1 2,0 2,-1 0,-1 0,-2 -2,1 -2,1 -1,-2 2,-1 1,-2 2,1 1,-2 -2,-1 -1,-6 3,-5 4,-2 4,-2 2,-4 5,2 3,-2 1,-5 1,-5 4,-2 5,-3 3,-1 3,-3 2,-4 4,-2 2,-3 3,-3 3,-2 5,3 3,-3 -6,-4 5,-2 2,-5 4,-2 4,0 0,-5 4,-2 4,-2 3,-3 5,1 0,5 -2,3 -4,1 -4,1 0,5 -4,2 -5,0 -2,5 4,2 4,-1 5,-1 3,-1 1,-5 3,-2 5,-2 4,2 5,1 4,-2 4,0 1,6 -4,1 -3,2 -2,4 -2,4 0,5 -3,5 -4,2 -6,-2 -2,-6 6,1 3,-2 1,-5 1,-5 2,-4 -6,-2 -2,5 -1,5 -3,2 -5,-1 -3,3 -4,0 -4,-1 -3,2 -4,2 -5,-2 -3,3 -5,4 -3,3 -2,4 -3,3 -5,-1 -1,5 -4,0 -1,6 -3,5 5,2 4,-2 3,6 4,-3 -2,-6 -5,-2 5,-4 5,0 3,-3 2,-4 3,-3 0,-5 6,0 4,0 5,-2 5,-1 6,0 0,5 -4,2 -5,0 -4,3 -1,4 -5,-5 -2,4 -2,4 -3,3 -2,4 -5,0 1,5 6,1 4,-3 3,-2 2,-4 3,-1 5,2 1,-5 2,-4 5,2 3,-3 4,-3 5,2 -2,4 -4,3 -6,2 -2,4 -4,4 -5,0 -2,4 -5,1 -3,3 -6,0 -4,0 -2,3 -5,1 -4,0 0,2 1,2 -1,1 -2,0 -1,-2 -1,2 -2,0 -2,1 -2,0 1,-2 -1,-1 1,-1 2,-1 1,2 1,-2 2,0 0,-1 1,-2 -1,-1 -1,-2 -3,-1 1,2 1,2 -2,0 -1,1 -2,1 -2,0 1,-2 0,-2 2,0 0,-2"
       id="path72"
       inkscape:connector-curvature="0" />
    <path
       style="fill:none;stroke:#000000;stroke-width:1"
       d="m 295,572 -1,-2 -2,0 0,2 -2,0 -2,-1 1,-1 -1,-4 -2,3 0,2 1,2 1,2 2,-1 0,2 -1,1 -2,0 -1,2 -1,-2 -1,-2 1,-1 -1,-2 -1,-2 -1,2 -1,-1 -2,1 -1,1 1,2 2,-1 1,2 1,2 1,2 1,2 1,2 0,1 -1,2 -2,1 -2,0 1,-2 2,-1 -1,-2 -1,-2 -1,-2 -1,-2 -2,1 -1,-2 -1,-2 -1,2 0,2 0,2 -1,2 1,2 2,0 0,-2 0,-2 2,0 1,2 1,2 -2,0 0,2 -1,1 1,2 -2,1 -1,-2 -1,-2 -2,1 1,2 0,2 1,1 1,2 2,-1 0,-1 2,-1 2,0 -1,2 1,2 -2,1 -1,-1 -2,1 -2,1 -1,-2 -1,-2 -2,0 0,-2 0,-2 0,-1 -2,1 -2,0 1,2 1,2 1,2 2,1 0,1 1,2 2,0 -1,2 1,2 -2,1 -1,1 1,1 1,2 -2,0 1,2 -2,0 0,2 2,2 -1,1 -1,2 -2,1 -1,-2 2,-1 -1,-2 -1,-2 0,-1 1,-2 -1,-1 2,-1 -1,-2 1,-2 2,0 -1,-2 -1,-2 -2,0 0,2 -2,-1 -1,2 2,1 -1,1 1,2 -2,1 1,2 -1,2 1,2 1,2 -2,0 0,2 0,2 2,0 0,2 0,2 -2,0 -1,-2 -2,2 0,-2 0,-2 1,-2 -1,-2 -1,-1 2,-1 0,-2 -2,0 2,-2 -2,-1 2,-1 1,-2 -1,-2 -2,2 0,-2 1,-2 2,-1 -1,-2 -1,-2 0,-1 -1,-2 -1,-2 -2,0 0,2 1,2 1,2 1,2 -2,0 0,2 0,2 -1,2 -1,-2 -1,-2 -1,-2 2,0 0,-2 0,-2 -2,0 -1,2 -2,1 1,2 -2,1 -1,-2 -1,2 0,2 -2,-1 0,2 -2,0 1,2 1,2 1,2 1,-2 0,-2 2,-1 0,2 1,2 2,0 0,-2 -1,-2 -1,-2 2,-1 1,2 1,2 1,2 0,2 -2,1 1,2 -2,0 0,2 0,2 -1,2 -2,0 0,2 3,3 -3,2 -1,-3 -1,-2 -1,-2 -1,2 -2,1 1,2 1,-1 1,2 0,2 -2,-1 -2,0 -1,-2 -2,1 -2,0 0,2 -1,1 1,2 1,2 2,-1 -1,-2 1,-2 1,2 2,-1 1,1 0,4 -4,3 -4,-2 -1,-2 0,-1 -1,-2 -1,-2 -2,0 -1,-2 -1,2 -2,0 1,2 -2,0 -1,1 -1,-3 1,-2 2,0 1,-2 -1,-2 -2,0 0,2 -2,0 -1,2 0,2 -2,-1 0,-2 -1,-2 2,0 0,-2 2,0 -1,-2 2,0 1,-1 0,-2 1,-2 2,-1 0,-2 -1,-2 -1,-2 -1,-2 0,-2 2,1 1,2 1,2 1,2 1,2 2,-1 1,2 -2,1 -1,1 -1,2 -1,-2 -2,1 1,2 -1,2 2,0 1,2 0,2 2,0 1,2 2,0 0,-2 0,-2 -2,0 -1,-1 -1,-2 2,0 0,-2 1,-1 2,-1 1,2 -2,1 1,2 1,2 1,2 2,-1 -1,-2 -1,-2 1,-2 2,0 0,2 0,2 2,-1 1,-2 2,-1 1,1 2,0 1,-2 -1,-2 1,-2 -2,0 -2,1 1,2 -2,0 -2,1 -1,-1 1,-2 0,-2 0,-1 -1,-2 -1,-2 -1,1 -2,0 1,2 0,2 2,0 -1,2 -1,2 -1,-2 -2,0 0,-2 0,-2 0,-1 -2,1 -2,0 -1,-2 -1,-2 1,-1 -2,-1 2,-1 -2,-1 1,-2 2,1 1,2 1,2 -1,2 2,0 2,-1 -1,-2 -1,-2 1,-2 -2,0 0,-2 2,0 1,-1 2,0 1,2 -1,1 1,2 -2,0 0,2 2,1 2,-1 0,-2 2,0 1,-1 -2,-1 -1,-2 1,-1 0,-2 -1,-1 -2,1 -1,-2 2,-1 -1,-2 2,0 1,-1 2,-1 2,-1 1,2 -2,1"
       id="path74"
       inkscape:connector-curvature="0" />
    <path
       style="fill:none;stroke:#000000;stroke-width:1"
       d="m 248,587 -2,1 0,2 1,2 1,2 -1,2 2,0 2,-1 1,-1 -2,-1 1,-2 -2,0 0,-2 2,-1 2,-1 1,1 -1,2 0,2 2,0 1,-2 0,-2 0,-2 1,-2 -1,-1 -2,1 -2,1 -1,-2 -1,-2 -2,1 -2,1 -2,1 -2,0 -2,0 -1,1 0,2 1,1 -1,2 0,2 -2,-1 -1,2 -1,-2 -2,1 0,1 0,2 -2,0 -1,-2 -1,2 0,2 -2,0 1,2 -2,0 -1,2 -2,0 0,2 2,1 1,2 -2,0 -1,3 2,0 2,-1 0,1 -1,2 -2,1 -1,1 2,1 -2,1 -2,1 0,1 -1,2 -2,1 0,1 1,2 -2,1 -1,-2 -2,2 -1,1 -1,2 1,2 -2,0 0,2 -2,0 1,2 1,2 -2,1 -1,-2 -1,-1 -1,3 -1,2 -1,2 2,0 -1,2 -1,1 1,2 0,2 1,2 1,-2 1,-1 -1,-2 1,-2 0,-2 0,-2 2,0 1,2 1,2 -2,0 0,2 0,2 2,0 0,2 -1,1 -2,0 0,2 -2,0 -2,1 1,2 2,-1 2,1 0,1 -2,1 -2,0 -2,-1 0,2 0,2 2,0 -1,2 -1,2 2,0 2,0 0,-2 0,-2 1,-1 1,2 1,2 1,2 0,1 -1,2 -1,-2 -2,1 0,2 -2,1 -2,1 1,2 1,2 2,-1 -1,-2 2,0 0,-1 2,-1 2,-1 0,1 -1,2 2,1 2,-1 0,-2 -1,-2 0,-2 2,0 1,2 1,-2 0,-2 -2,0 1,-2 1,-2 0,-2 0,-1 2,-1 -1,-2 -1,-2 -2,1 1,2 -2,0 -1,1 1,2 1,2 -2,0 0,2 -1,2 -1,-2 -1,-2 -1,-2 2,0 0,-2 -1,-2 0,-2 2,1 0,-2 2,0 2,-1 1,-2 0,-2 0,-2 0,-2 0,-1 -2,1 0,2 -1,2 1,2 -2,1 -1,-2 -1,-2 2,-1 -1,-2 1,-2 -2,0 -1,-2 1,-2 0,-2 1,-2 1,-2 0,-2 1,-1 2,0 2,-1 1,2 -2,1 -1,1 1,2 -2,0 0,2 -2,0 0,2 0,2 2,-1 1,2 2,-1 -1,-2 2,0 -1,-2 1,-2 1,-2 2,-1 0,2 -1,1 0,2 2,-1 1,2 -1,2 -2,-1 0,2 0,2 -2,0 1,2 0,2 2,0 1,-2 1,2 1,-2 -1,-2 1,-1 2,0 -1,-2 1,-2 -1,-1 -1,-2 2,0 2,0 1,-1 1,-2 1,2 1,2 1,2 -2,1 -1,-2 -2,1 1,2 -1,1 1,4 4,-2 5,1 -1,7 -4,2 -7,-2 -5,-2 -2,0 1,2 -2,0 0,2 0,2 2,0 0,2 0,2 -1,2 0,2 -1,2 2,0 0,2 -2,0 1,2 -1,2 1,1 2,-1 1,-2 1,2 2,-1 2,-1 1,-1 -1,-2 -2,0 -1,2 -1,-1 0,-2 0,-2 -2,0 1,-2 0,-2 3,0 0,2 2,0 -2,2 2,1 2,0 0,-2 2,0 1,2 2,-1 1,-1 0,3 -2,1 -2,0 -1,1 1,1 -1,2 1,2 2,-1 0,-1 1,-2 2,-1 1,1 2,-1 -1,-2 2,-1 1,2 1,2 -2,1 -2,1 -2,0 0,2 1,2 1,2 -2,1 1,1 1,2 2,0 -1,2 -1,1 1,2 -2,1 -1,1 -2,0 -2,0 -2,1 -1,2 2,0 2,-1 1,2 1,1 1,2 -1,2 2,0 2,-1 2,-1 2,-1 2,0 0,-2 2,-1 -1,-1 1,-1 2,-1 1,2 2,-1 1,2 1,2 2,-1 -1,-2 -1,-2 2,0 0,-2 1,-1 2,0 -1,-2 -1,-2 -1,-2 2,-1 1,-1 2,-1 1,-1 -1,-2 -1,-2 -1,-2 2,-1 2,-1 0,1 -1,2 1,2 1,2 1,1 -1,2 -1,1 -2,1 0,1 -2,0 1,2"
       id="path76"
       inkscape:connector-curvature="0" />
    <path
       style="fill:none;stroke:#000000;stroke-width:1"
       d="m 263,677 1,2 2,0 0,-2 1,-2 1,2 1,-2 1,-1 0,-2 2,0 -1,-2 2,-1 2,-1 0,-2 2,0 1,2 2,-1 1,2 -2,1 -2,0 -1,1 -2,0 1,2 1,2 -2,1 -1,-2 -1,2 -1,1 1,2 -1,2 -1,-2 -2,1 1,2 1,2 -2,0 0,2 -2,1 1,2 2,-1 2,-1 1,-1 1,-2 -1,-1 2,-1 0,-2 1,-2 1,2 1,2 0,2 -2,0 0,2 -1,2 -1,2 -1,-1 -2,1 1,2 -2,1 -1,-2 -2,1 -1,-2 -2,-1 1,-1 -1,-2 2,-1 0,-1 1,-2 -1,-1 -2,1 -1,1 -1,2 0,2 -1,2 1,2 2,0 -1,2 1,1 2,0 2,0 2,2 -3,0 0,2 -2,0 -1,-2 -1,2 1,2 0,2 6,2 6,-2 2,-6 2,-5 5,3 1,-6 6,0 2,-5 3,-4 5,1 5,0 4,-4 6,0 3,-4 4,-3 5,-2 0,-1 -1,-2 2,-1 1,2 1,2 2,1 -1,2 -1,1 -1,-2 -1,2 1,2 1,2 2,0 0,-2 2,-1 0,1 0,2 -1,2 1,2 2,0 0,-2 2,-1 -1,-1 1,-1 2,-1 2,0 -1,2 0,2 2,-1 1,2 -2,1 -2,1 -1,-2 -1,2 -1,2 -2,-1 -2,1 -1,-2 -1,-1 -1,-2 -5,1 -3,3 -6,2 -4,2 -4,3 -6,-1 -4,2 -2,5 -6,1 -1,7 -5,0 -3,3 -1,6 -5,0 -7,0 -2,5 2,8 -5,2 -5,2 -5,0 -5,0 -5,-1 0,-2 1,-2 -1,-2 2,-1 0,-2 0,-2 4,1 5,2 5,-2 -2,-6 1,-1 1,-2 1,-2 0,-2 -2,-1 1,-2 0,-1 0,-2 0,-2 -2,1 0,-2 2,-1 -1,-2 -1,-2 -1,2 -1,1 -1,-3 0,-2 -2,-1 -2,1 -1,2 2,0 -1,2 0,2 -1,1 1,1 -1,2 -1,1 1,1 -1,2 -1,2 -1,-2 0,-2 -1,-2 0,-2 2,0 -1,-2 1,-2 -1,-1 -2,1 -1,2 -1,-1 -2,1 -1,1 1,2 2,-1 1,2 -1,1 1,2 1,1 0,2 1,2 2,0 -1,2 4,0 -3,2 -2,0 1,2 -1,2 -1,-1 -1,-2 -2,1 -1,-2 2,-1 1,-1 0,-2 -2,0 -2,0 0,2 -1,2 0,2 -1,1 -1,-2 -2,1 0,1 -2,1 1,2 2,-1 2,0 -1,2 1,2 -2,1 -1,-2 -2,0 0,2 -2,1 0,-2 -1,-2 1,-1 0,-2 1,-2 -1,-2 0,-2 -1,-2 1,-2 -1,-1 1,-2 1,-1 2,-1 1,2 -2,1 1,2 1,2 -2,0 0,2 1,2 2,-1 1,-1 1,-2 -1,-1 -1,-2 2,0 2,0 2,1 0,-2 -1,-2 -2,0 -1,1 -1,-2 2,-1 -1,-2 -1,-2 -1,2 -1,1 -2,0 -2,1 -2,-1 0,-2 1,-2 1,2 1,-1 2,0 0,-2 2,0 0,-2 -1,-2 -1,1 -2,0 0,2 -2,0 -1,-2 -1,-2 2,0 0,-2 0,-2 2,-1 2,-1 1,-1 2,0 2,0 -1,-2 1,-2 -2,-2 -2,1 1,1 -1,2 -2,0 0,-2 -1,-2 2,-1 2,-1 2,-1 -1,-2 -2,1 -2,1 -2,1 -1,-2 2,-1 -1,-2 -2,1 -1,2 0,2 0,2 2,0 0,2 1,2 0,2 -2,0 -1,1 0,2 -1,2 -2,1 -1,-2 2,-1 -1,-2 -2,1 -1,2 0,2 -1,1 -2,0 0,2 2,1 -2,1 0,2 0,2 -1,2 2,0 1,-1 0,-2 1,-2 2,-1 -1,-2 1,-1 2,0 1,2 0,1 0,2 -2,0 -2,1 1,2 2,-1 1,2 1,2 1,2 -2,1 1,2 -2,1 2,1 -2,1 2,1 1,2 0,2 -1,1 1,2 -1,2 0,2 1,2 1,2"
       id="path78"
       inkscape:connector-curvature="0" />
    <path
       style="fill:none;stroke:#000000;stroke-width:1"
       d="m 230,723 1,2 2,0 0,-2 2,1 0,-2 2,0 1,2 2,-1 -1,-2 1,-2 0,-2 1,-1 0,-2 2,0 1,2 -1,2 0,1 -1,2 0,2 -1,2 1,2 1,2 0,2 -2,1 1,2 -2,0 0,2 0,2 -2,-1 -1,-2 -1,-2 2,0 0,-2 2,-1 -1,-1 1,-1 -1,-2 -2,0 -1,1 0,2 -1,2 -2,1 1,2 1,2 -2,1 2,1 1,2 2,-1 1,1 -1,2 -2,0 0,2 -2,0 -1,2 -2,-1 0,-2 2,-1 1,-2 -1,-1 -2,1 -1,1 -2,1 0,1 0,2 -5,2 1,-4 2,0 1,-3 -2,0 -2,0 -1,1 0,-3 0,-2 1,-2 0,-2 2,0 -1,-2 -1,-1 1,-1 -1,-2 2,-1 1,2 1,2 0,2 1,1 1,2 -2,0 -1,1 -2,1 1,2 2,-1 1,1 2,0 0,-2 2,-1 -1,-2 -1,-2 2,-1 2,-1 -1,-2 -2,1 -1,1 -2,-2 1,-1 -1,-2 -2,-1 1,-1 -1,-2 -2,-1 0,-2 2,0 -1,-2 1,-1 -1,-2 1,-2 -1,-1 -1,-2 -2,1 1,2 0,2 -1,1 0,2 -1,2 -2,1 -1,-2 2,-1 -1,-2 -1,-2 2,0 0,-2 -1,-2 2,-1 2,-1 -1,-2 2,0 1,-1 1,-2 -1,-2 -2,0 0,2 -2,1 -1,-2 -2,1 1,2 1,2 -1,1 -2,0 0,3 0,1 -2,1 1,2 1,2 -2,1 1,2 -2,1 -1,-2 -1,2 0,2 -2,1 0,2 0,2 0,2 2,0 2,0 1,-2 -2,0 0,-2 1,-1 1,-2 2,-1 1,2 -2,1 1,2 2,-1 2,-1 -1,-2 2,-1 1,2 1,2 -2,1 -1,2 -1,-1 -2,1 -1,1 -1,2 -2,1 -2,-1 0,2 1,2 0,2 2,1 2,0 -1,-2 -1,-2 2,-1 1,-2 2,-1 1,2 -1,1 0,2 -2,0 1,2 1,1 -1,2 0,1 -4,1 -1,5 -3,4 -1,7 -7,0 -6,1 -1,8 -3,5 -4,7 -5,3 -3,7 -5,-2 -7,-4 0,-9 7,2 3,-5 5,-2 2,-6 3,-5 -1,-8 6,-1 1,1 1,2 2,0 0,-2 2,0 1,2 2,-1 -1,-2 2,0 1,-1 1,-2 0,-2 1,-2 1,-2 -1,-1 0,-2 2,1 2,-1 -1,-2 -2,0 0,-2 2,0 -1,-2 -1,-2 -2,0 1,-2 -1,-2 2,0 0,-2 1,-2 1,-1 0,-2 0,-2 -2,1 -1,2 -1,-2 -2,1 0,1 0,2 2,0 -1,2 -1,2 0,2 -1,2 -1,-2 -2,1 0,1 1,2 -2,1 -1,-2 -1,2 1,2 0,2 1,2 -2,1 2,1 -1,2 -1,2 1,2 2,-1 1,-1 -1,-2 2,-1 0,-2 -1,-2 0,-1 0,-2 2,0 -1,-2 2,-1 2,0 -1,2 1,2 -2,1 0,2 1,2 -1,1 -1,2 1,1 -1,2 -2,1 -2,1 -3,0 -1,-1 0,-2 -2,0 1,-2 2,-1 -2,-1 1,-1 -1,-2 2,-1 -1,-2 0,-2 0,-3 2,-2 -1,-2 -1,-2 2,-1 1,2 1,1 2,-1 1,-2 0,-1 -2,1 0,-2 1,-2 -1,-2 1,-1 2,0 2,-1 2,-1 -3,-1 -2,1 -3,0 -3,1 1,1 1,2 0,1 -2,0 1,2 -2,0 -7,-1 -4,-2 -1,2 -1,-1 -2,1 -2,1 1,1 -1,2 -1,1 1,1 -2,1 0,2 -1,2 -1,-2 -2,1 1,2 0,1 0,2 0,2 -2,0 1,2 1,2 2,0 0,-2 0,-2 2,-1 -1,-1 0,-2 2,0 0,-2 1,-1 0,-2 1,-2 1,-2 1,-2 4,5 -1,7 0,7 -4,4 -1,7 -2,7 -5,2 -4,4 -4,-5 -1,2 -2,0 1,2 0,2 -2,1 1,2 -3,1 0,-2 -1,-2"
       id="path80"
       inkscape:connector-curvature="0" />
    <path
       style="fill:none;stroke:#000000;stroke-width:1"
       d="m 158,764 2,-1 0,-1 0,-2 -1,-2 0,-2 2,0 1,2 1,-2 2,0 0,-2 1,-2 -2,-1 1,-1 1,-2 1,-2 1,2 0,2 2,-2 0,-2 2,0 1,-2 1,-2 -1,-1 -2,1 -1,2 -2,0 1,-2 1,-2 -1,-1 1,-1 -1,-2 -2,0 -2,0 1,2 1,2 -1,2 -1,2 -2,1 1,1 -1,2 -1,1 0,2 1,2 -2,1 -1,-2 -1,-2 -1,2 0,2 -2,0 -2,0 -2,-1 -1,2 2,1 -2,1 1,1 -1,2 1,2 2,-1 0,-1 1,-2 1,-2 1,2 0,2 0,2 -2,1 1,2 1,2 -1,2 0,2 2,-1 1,2 3,0 -4,2 1,2 0,2 0,2 -2,1 1,2 1,1 -1,2 -2,1 1,1 -1,2 -2,0 -2,0 -1,-2 -1,-1 -1,2 -2,-2 0,-1 2,-1 2,0 2,1 1,2 1,-3 1,-1 -1,-2 -2,0 -1,1 -2,0 0,-2 1,-2 -2,0 -1,-2 -2,1 1,2 0,1 0,2 -2,0 0,2 -1,2 -5,3 -5,-1 -3,6 -7,2 -5,0 -3,6 -1,7 -4,7 -3,6 -4,4 -3,5 -2,5 -7,-4 -2,7 -5,5 -7,-1 -7,2 -5,-1 -2,6 -4,4 -2,6 -7,-1 -9,0 2,-6 7,-3 3,-6 4,-4 4,-7 8,2 8,-1 4,-1 2,-6 7,-4 4,-3 3,-5 5,-3 4,-6 -1,-8 4,-4 0,-8 4,-1 7,1 4,-2 4,-7 5,0 7,-1 0,2 1,2 0,2 2,-2 0,-2 -1,-2 0,-2 2,1 2,-1 2,0 1,-1 1,-2 1,2 1,2 -2,1 2,1 1,2 2,-1 0,-1 0,-2 -1,-1 1,-2 -2,0 -1,-2 1,-2 0,-2 0,-1 -1,-2 -2,0 -1,1 -2,1 1,2 2,-1 1,2 -2,1 -2,0 0,2 -2,0 -1,1 -2,0 0,-3 2,0 1,-2 -1,-1 1,-2 1,-1 2,-2 -1,-1 0,-2 1,-1 -1,-3 2,-2 1,-2 1,-1 2,0 1,2 1,-2 2,-1 1,-1 0,-2 2,0 -1,-2 -1,-1 -2,1 -1,2 -1,2 -2,-1 1,-2 0,-2 2,-1 -1,-2 2,0 0,-2 -2,-1 1,-2 0,-1 2,-1 -1,-2 1,-2 0,-1 2,-1 1,-1 0,-2 -1,-2 3,0 0,2 1,2 1,2 -2,0 0,2 -2,-1 -1,2 2,1 -1,1 0,2 -2,0 0,2 2,1 0,1 -2,1 1,2 2,-1 1,2 1,-2 0,-2 -1,-2 0,-2 2,-1 0,-2 1,-2 1,2 1,2 2,-1 1,-2 -2,0 -1,-2 2,-1 1,-2 2,-1 1,-2 -2,0 -2,1 -2,0 0,2 -1,1 -1,-2 0,-2 -1,-2 1,-1 -2,-1 -2,1 -1,-2 2,-1 -1,-2 0,-1 1,-2 0,-2 3,0 -1,2 0,2 0,2 2,0 0,2 1,2 1,2 2,-1 0,-1 -1,-2 -1,-2 2,-1 2,-1 1,2 -2,1 1,2 1,2 2,-1 -1,-2 2,-1 2,-1 2,-1 1,-1 0,-2 -1,-1 -1,-2 -2,1 1,2 -2,0 1,2 -2,1 -1,-2 -1,-2 1,-1 -2,-1 -2,1 1,2 -2,1 -2,1 -1,-2 2,-1 -1,-2 -1,-2 -2,1 -1,-2 2,-1 1,-1 1,-2 -3,0 1,-2 2,0 -1,-2 -3,-2 -6,0 -2,4 -3,5 0,7 -3,4 -2,6 -2,5 0,7 -2,6 -5,3 -1,7 -3,5 -2,6 -2,6 -8,0 -1,9 -8,0 0,-8 3,-5 6,-4 3,-6 4,-11 -4,3 -7,4 -5,3 -4,2 -4,5 0,8 0,8 -7,-4 -5,3 -6,-3 -3,5 -2,6 -2,6 -6,4 -2,7 -5,3 -3,6 -7,-2 1,-8 4,-6 5,-3 5,-6 2,-7 1,-7 4,-4 6,-4 5,1 5,-1 3,-3 1,-9 3,-5"
       id="path82"
       inkscape:connector-curvature="0" />
    <path
       style="fill:none;stroke:#000000;stroke-width:1"
       d="m 103,744 4,-3 4,-1 5,-1 3,-3 5,-3 6,2 6,-1 3,-4 0,-7 -7,-2 -2,5 -7,-1 1,-7 4,-5 7,1 6,2 2,-6 2,-5 1,-6 3,-5 0,-7 5,0 4,-2 5,3 1,-6 5,-1 6,2 1,-1 1,-2 2,-1 0,-2 1,-1 1,2 1,2 1,2 1,2 1,2 -2,1 0,2 -2,1 -2,1 0,-2 -1,-2 2,0 0,-1 2,-1 -1,-2 -1,-2 -2,1 1,2 -2,1 -2,1 1,2 0,2 1,2 1,2 0,2 0,1 0,2 2,1 -2,1 -1,2 -1,-2 -2,1 -1,-2 2,-1 0,-2 0,-2 0,-2 -2,0 1,-2 0,-2 -2,0 -1,2 0,2 -2,1 -1,2 2,0 2,-1 1,2 -2,1 -1,1 1,1 0,2 0,2 -2,0 0,2 1,2 2,-1 1,-1 0,-2 2,0 1,2 -1,2 2,0 2,-1 -1,-2 1,-1 1,-2 2,0 0,2 -1,2 1,2 2,0 0,-2 0,-2 1,-2 -1,-1 1,-1 1,-2 2,-1 1,1 2,-1 -1,-2 2,0 0,-1 -1,-2 1,-2 1,-2 -1,-2 0,-2 2,0 0,-2 -1,-1 -2,1 -1,-2 0,-2 -1,-2 -2,1 0,2 0,2 2,1 0,2 1,2 0,2 0,2 -2,1 0,2 -1,2 -1,-2 -2,1 1,2 -2,0 0,2 -1,1 -1,-2 0,-2 -1,-2 1,-1 2,0 2,-1 0,-1 2,-1 0,-1 1,-2 -1,-1 -1,-2 -1,-2 -1,-2 1,-2 -2,0 -1,-2 -2,-2 2,0 0,-2 2,-1 -1,-2 -1,-1 1,-1 0,-2 2,0 2,-1 2,0 1,-1 2,0 1,2 -2,1 0,2 -1,2 -1,-2 -1,-2 -2,1 1,2 -1,1 1,1 -1,2 -1,1 0,2 2,0 2,-1 -1,-2 2,-1 2,-1 0,1 -1,2 1,2 0,2 2,-1 0,1 -1,2 2,1 1,2 1,2 -1,2 -1,1 1,2 -2,1 1,2 -1,1 1,2 2,0 1,2 1,-2 1,-1 0,-2 -2,1 -1,-2 1,-2 1,-1 -1,-2 2,-1 1,2 1,1 -1,2 1,2 1,2 -1,2 -1,1 -1,2 -2,1 -2,0 0,-2 -2,-1 0,2 -2,0 -2,1 -2,0 0,2 -1,2 2,0 -1,2 -2,0 1,2 -1,2 -2,0 0,2 1,2 2,-1 1,-1 0,-2 2,0 0,-2 1,-2 1,2 2,-1 1,-1 0,-2 -2,0 -2,0 0,-2 2,-1 2,1 2,2 1,-2 3,0 6,1 4,-7 -4,-1 -3,-3 0,-2 2,0 2,-1 -1,-2 -2,1 -1,-2 -2,-1 1,-1 -1,-2 2,-1 1,2 1,2 1,-2 0,-2 1,-1 2,0 1,2 -1,1 -1,2 0,2 3,1 -1,-3 2,-1 1,-2 -1,-1 -1,-2 0,-1 2,-1 2,-1 0,1 -1,2 1,2 1,2 2,1 1,-2 -2,-1 0,-2 2,1 2,0 -1,-2 -2,-1 -1,-2 2,0 0,-2 2,0 0,2 1,2 1,2 2,0 2,-1 -2,-1 1,-1 -2,-1 0,-2 0,-1 1,-2 -1,-1 -2,1 -2,1 -1,-2 -2,0 0,2 -1,2 -2,1 -2,0 -2,-1 0,2 -2,0 1,2 -2,1 -1,-2 -2,1 1,1 -2,1 -2,0 0,-2 1,-2 0,-2 -1,-2 -1,2 0,2 -2,0 0,2 1,2 0,2 -1,2 -1,-2 -1,-2 0,-2 -1,-2 0,-1 -2,-1 1,-2 -1,-2 0,-2 0,-1 2,-1 -1,-2 -1,-2 1,-1 0,-2 2,-1 2,1 0,1 -2,1 1,2 0,1 0,2 -1,2 0,2 0,2 1,2 1,-2 0,-2 1,-2 1,2 2,-1 2,-1 1,-2 -2,0 -2,1 -1,-1 0,-2 -1,-2 2,0 0,-2 -1,-2 0,-2 -1,-2 -1,2 -2,0 0,-2"
       id="path84"
       inkscape:connector-curvature="0" />
    <path
       style="fill:none;stroke:#000000;stroke-width:1"
       d="m 197,653 -1,-2 2,0 1,-1 2,0 1,3 1,-1 1,-2 -1,-2 -2,0 1,-2 -1,-1 1,-1 -1,-2 -5,0 3,4 -1,2 -2,-1 0,2 -3,0 -2,2 1,2 2,-1 0,1 0,2 -2,0 1,2 0,2 -2,1 -1,-2 0,-2 -1,-2 -1,1 -2,2 2,1 0,2 -2,-1 0,2 -2,1 -1,-3 -1,2 -1,2 -6,-4 -1,6 -2,5 -5,3 -6,1 -4,3 -7,1 -5,-1 -3,4 0,7 -2,7 -3,5 -1,6 -7,0 1,-7 -6,-2 -2,6 -1,7 -4,2 -1,6 0,8 -4,1 -5,2 -6,1 -4,1 -2,6 -3,5 -1,6 -6,2 -7,2 -3,3 -5,2 -1,8 -2,7 -2,7 -6,2 -3,6 -4,3 -2,7 -1,7 -4,5 -5,5 -3,6 -5,3 -4,3 -5,4 -4,5 -7,0 -5,8 5,2 7,0 6,1 3,-6 5,-3 4,-3 4,-5 5,-5 3,-5 6,3 0,-8 7,3 6,2 5,-6 4,-4 4,-7 4,-4 5,-3 1,-7 3,-5 8,-2 -1,7 -2,8 -1,7 -5,3 -4,4 -5,3 -2,6 -7,3 -5,6 -7,-2 -8,5 -6,3 -3,6 -3,5 -6,2 -4,4 -4,5 -8,-2 -4,3 -7,-4 -8,-3 7,10 -1,8 -4,3 12,1 2,-6 7,2 3,-4 9,-2 -1,7 -2,7 -3,4 -7,-3 -9,2 -5,2 -5,4 0,14 4,-4 5,-4 6,-2 4,-4 8,4 7,0 3,-5 1,-7 2,-6 5,-2 8,0 -1,7 -5,4 -1,7 -2,6 -2,7 -4,1 -6,-1 -8,-4 -1,6 -7,-3 -4,4 -4,4 -3,5 -5,-1 0,12 6,0 5,2 3,-6 3,-5 4,-4 7,2 5,-3 7,3 5,0 5,-4 1,-7 3,-6 1,-8 5,-2 1,-7 0,-8 2,-7 5,1 8,-2 -8,-6 6,-3 7,1 7,2 1,-6 4,-6 9,1 3,-5 1,-7 5,-5 3,-5 3,-3 2,-7 1,-7 7,-2 7,2 1,-7 7,-2 6,-2 7,2 6,-1 2,-7 7,4 -1,7 9,-3 6,-6 4,-3 3,-5 4,-4 3,10 6,-4 3,-3 8,-3 5,1 7,-3 6,2 5,-3 2,-7 4,-4 5,-2 5,-2 3,-4 6,-1 6,2 2,-4 6,2 1,-6 2,-5 3,-5 2,-5 6,-2 1,8 -2,7 -3,3 -2,6 -1,7 -6,1 -5,2 -9,-3 -5,6 -1,7 -7,-4 -4,5 8,5 -8,2 -5,2 -7,1 -7,-2 -6,4 -7,-2 -3,7 -6,0 -7,3 -4,1 -4,4 -7,-3 -6,5 -3,5 -2,5 -6,0 0,9 -2,5 -5,3 -6,-1 -4,5 -9,-1 2,-6 2,-5 6,-3 5,0 3,-6 5,-10 -6,2 -6,-1 -3,4 -6,-3 -1,7 -6,2 -7,-3 -2,6 -2,6 10,0 -2,7 -8,1 -5,1 -5,4 -1,6 -4,6 -1,7 -7,-3 -5,1 -1,8 8,2 6,1 7,-3 1,-8 5,-1 0,-9 5,-2 6,-1 6,1 8,1 7,3 3,-6 7,1 5,-3 4,-4 1,-8 4,1 4,-3 0,-8 4,-3 3,-2 7,2 4,-3 5,0 2,-6 6,2 5,-2 1,-7 8,3 2,-6 7,4 6,-2 6,3 3,-4 5,-2 5,0 2,-7 2,-6 2,-6 5,1 7,2 4,-4 7,-1 1,-7 1,-7 4,-3 0,-7 2,-6 6,4 4,-2 3,-4 3,-3 5,0 4,-3 3,-1 3,-5 7,1 5,-5 4,-1 7,-1 5,-2 3,-4 6,1 0,7 -4,4 -3,4 -7,-3 -5,4 -4,1 -4,5 -5,-1 -3,5 -4,2 -5,2 -4,1 -4,4 -3,4 -7,-3 0,6 -2,5 -4,4 0,9 -7,4 -3,5 -5,2 -8,-4 -2,6 -3,5 0,8 -4,2 -7,-2 -3,5 -5,2 -7,-4 -8,0 -3,6"
       id="path86"
       inkscape:connector-curvature="0" />
    <path
       style="fill:none;stroke:#000000;stroke-width:1"
       d="m 239,813 -7,-4 -2,7 -3,4 -6,-3 -4,4 -7,0 -2,6 -7,-4 -4,3 -1,7 -4,4 -5,2 -3,6 -6,4 7,5 7,2 1,-7 5,-2 4,-5 3,-7 6,2 7,1 -1,-9 8,0 6,2 4,-5 3,-6 9,0 3,-4 7,3 0,8 -5,3 -7,-2 -3,7 -3,5 -7,0 -7,-2 2,9 -5,2 -7,-1 -5,-1 -3,6 -4,4 -3,4 0,8 -6,-2 -7,-3 -5,1 -4,8 5,1 8,0 8,3 -2,7 -6,0 -3,3 -8,-5 -2,5 -3,6 -3,5 -7,-2 -3,3 -2,6 -4,4 0,8 8,0 4,-4 2,-6 7,2 4,-4 2,-6 4,-3 6,2 5,-5 7,-2 2,-5 0,-8 2,-7 2,-7 4,-5 6,0 6,2 4,-3 4,-5 4,1 3,-4 6,-3 1,-8 6,1 6,-2 4,-3 7,3 1,-7 2,-6 -10,1 1,-7 5,-4 7,4 3,-3 3,-6 0,-8 3,-6 9,2 0,7 -4,3 1,9 -4,4 -3,7 -4,4 0,8 -1,6 -4,4 -6,-3 -4,3 -5,0 -7,0 -5,6 -1,8 -3,3 -6,-2 -4,4 -5,3 -5,0 -6,-3 -4,6 7,4 -8,3 0,8 0,7 -2,6 -6,-2 -6,2 -3,6 -7,-2 -2,6 -4,4 -8,0 -4,6 -8,2 -5,2 -8,-4 -8,2 -5,2 -6,5 -4,3 -3,5 -6,-3 -3,6 -4,4 -1,7 -3,5 -3,6 -1,7 8,5 2,-6 3,-3 2,-7 1,-8 4,-5 9,-1 -1,7 -3,5 -3,6 -1,7 8,5 2,-6 3,-3 2,-7 1,-8 4,-5 -8,-5 3,-6 6,3 3,-5 4,-3 8,5 -3,6 -4,4 -1,7 -3,5 -3,6 -1,7 8,5 2,-6 3,-3 2,-7 1,-8 4,-5 1,-8 3,-5 4,-3 6,-5 5,-2 8,-2 4,-6 8,0 2,-6 7,4 4,-1 3,-8 7,0 2,-8 -8,-2 0,-8 7,2 2,-7 5,0 4,-4 5,-2 6,2 4,-3 0,-9 3,-6 5,-1 7,0 6,-1 3,10 4,-5 2,-6 3,-5 2,-6 7,6 4,-1 4,-5 4,-6 4,-4 4,-4 3,-6 2,-6 6,2 1,-8 4,-3 2,-7 8,2 5,-3 2,-6 7,3 4,-1 7,2 -1,8 -6,2 -5,-1 -5,4 -2,6 -7,-6 -2,6 -4,4 0,8 -7,-1 -4,5 -3,7 -4,4 -6,3 -2,7 -3,5 -8,-1 -5,2 -3,5 -2,6 -5,3 -7,3 -6,0 3,-10 -5,0 -6,1 -1,7 -1,8 -3,4 -8,-4 -5,3 -3,5 -5,0 3,10 -5,3 -5,6 -4,3 0,8 -4,2 -8,-4 -8,2 -5,2 -6,5 -4,3 -3,5 -6,-3 -3,6 -4,4 -1,7 -3,5 -3,6 -1,7 8,5 2,-6 3,-3 2,-7 1,-8 4,-5 9,-1 -1,7 -3,5 -3,6 -1,7 8,5 2,-6 3,-3 2,-7 1,-8 4,-5 -8,-5 3,-6 6,3 3,-5 4,-3 8,5 -3,6 -4,4 -1,7 -3,5 -3,6 -1,7 8,5 2,-6 3,-3 2,-7 1,-8 4,-5 1,-8 3,-5 1,-7 3,-5 3,-5 5,-3 1,-8 5,-2 2,-5 4,-2 9,3 3,-4 0,-8 6,3 6,0 3,-5 8,0 -1,7 -1,8 -4,2 -7,-2 -2,5 -4,4 -9,-3 -3,3 -5,4 -4,4 -3,6 -4,4 -3,6 0,8 -4,4 -1,7 -3,5 -3,6 -1,7 8,5 -6,5 -5,-1 -2,6 -6,0 -8,-5 -5,-1 -2,6 -6,0 -8,-5 -5,-1 -2,6 -6,0 -8,-5 -5,-1 -2,6 -6,0 -8,-5 -5,-1 -2,6 -6,0 -8,-5 -5,-1 -2,6 -6,0 -8,-5 -5,-1 -2,6 -6,0 -5,5 -1,6 -7,-1 -5,1 -1,9 -7,0 -7,0 -7,0 1,-9 5,-1 7,1"
       id="path88"
       inkscape:connector-curvature="0" />
    <path
       style="fill:none;stroke:#000000;stroke-width:1"
       d="m 67,998 1,-6 5,-5 6,0 2,-6 5,1 6,-5 2,-6 3,-3 2,-7 1,-8 4,-5 1,-8 3,-5 4,-3 6,-5 5,-2 8,-2 4,-6 8,0 4,-4 2,-6 2,-9 3,-5 -10,3 -3,3 -2,6 -4,4 -7,-2 -2,6 -4,4 -8,0 -4,6 -8,2 -5,2 -8,-4 4,-6 8,0 4,-4 2,-6 7,2 4,-4 2,-6 3,-3 7,2 3,-5 -10,-6 4,-4 6,2 5,0 6,2 4,-4 6,2 5,0 6,2 4,-4 2,-7 -1,-9 3,-6 3,-6 -7,-4 -4,6 -8,-3 -7,-1 -5,1 -6,-1 -4,4 -5,8 6,1 7,-3 8,2 4,-1 7,0 2,9 -5,2 -8,-2 -7,-1 -6,3 -8,-2 -7,-1 -6,3 -8,-2 -7,-1 -6,3 -2,-9 -5,-1 -1,8 -6,-1 -6,2 -2,4 -1,8 -3,9 -4,4 -2,7 0,8 -5,4 -6,4 -5,2 -7,-5 -4,5 -6,-3 -3,5 -3,4 -7,4 -5,1 -6,-1 2,9 -2,7 9,-6 7,-1 4,-5 7,-2 4,-3 7,-3 2,9 -3,5 -4,3 -6,0 -3,5 -7,0 -2,5 -7,-3 -1,7 -7,-1 -4,2 1,9 8,0 5,0 5,-5 7,1 3,-6 7,1 2,-6 7,2 3,-6 3,-7 0,-9 3,-4 4,-6 7,-3 4,-6 0,-8 4,-4 2,-6 3,-3 7,2 3,-5 -10,-6 4,-4 6,2 5,0 6,2 4,-4 6,2 5,0 -5,8 -3,5 -7,-2 -3,3 -2,6 -4,4 -7,-2 -2,6 -4,4 1,8 -5,2 -6,5 -4,4 -3,6 -2,6 -2,7 -3,7 -8,5 -5,5 -6,0 -6,4 -5,1 -5,5 -5,0 -7,-2 0,9 -6,3 8,7 6,-1 0,-8 8,8 1,-6 4,-5 6,0 4,-4 5,-2 6,-5 4,-6 8,2 1,-7 3,-6 3,-5 1,-7 4,-4 3,-6 6,3 3,-5 4,-3 8,5 -3,6 -4,4 -1,7 -3,5 -5,-11 -4,5 -1,8 7,4 -1,7 -8,-4 -3,3 -2,6 -6,5 -5,-1 -2,6 -6,0 -5,5 -1,6 -7,-1 -5,1 -1,9 -7,0 -7,0 -8,0 -6,-1 0,10 7,0 7,0 7,0 7,0 7,0 0,-9 7,0 0,9 7,0 7,0 7,0 7,0 7,0 0,-9 7,0 0,9 7,0 7,0 7,0 7,0 7,0 7,0 7,0 7,0 7,0 7,0 7,0 7,0 7,0 7,0 7,0 7,0 7,0 7,0 7,0 7,0 7,0 7,0 7,0 7,0 7,0 7,0 7,0 7,0 7,0 7,0 7,0 2,9 -7,0 -7,0 -7,0 -7,0 -7,0 -7,0 -7,0 -7,0 -7,0 -7,0 -7,0 -7,0 -7,0 -7,0 -7,0 -7,0 -7,0 -7,0 -7,0 -7,0 -7,0 -7,0 -7,0 -7,0 -7,0 -7,0 -7,0 -7,0 -7,0 -7,0 -7,0 -7,0 -7,0 -7,0 -7,0 -7,0 -7,0 -7,0 -7,0 -7,0 -7,0 -7,0 -7,0 -2,12"
       id="path90"
       inkscape:connector-curvature="0" />
  </g>
</svg>
