<?xml version="1.0" encoding="UTF-8" standalone="no"?>
<!-- Created with the Eggbot TSP art toolkit (http://egg-bot.com) -->

<svg
   xmlns:dc="http://purl.org/dc/elements/1.1/"
   xmlns:cc="http://creativecommons.org/ns#"
   xmlns:rdf="http://www.w3.org/1999/02/22-rdf-syntax-ns#"
   xmlns:svg="http://www.w3.org/2000/svg"
   xmlns="http://www.w3.org/2000/svg"
   xmlns:sodipodi="http://sodipodi.sourceforge.net/DTD/sodipodi-0.dtd"
   xmlns:inkscape="http://www.inkscape.org/namespaces/inkscape"
   height="790"
   width="388"
   id="svg2"
   version="1.1"
   inkscape:version="0.48.0 r9654"
   sodipodi:docname="MadMen2.svg">
  <defs
     id="defs84" />
  <sodipodi:namedview
     showgrid="false"
     showborder="true"
     inkscape:showpageshadow="false"
     id="namedview4"
     fit-margin-top="0"
     fit-margin-left="0"
     fit-margin-right="0"
     fit-margin-bottom="0"
     inkscape:zoom="0.091875"
     inkscape:cx="195.5"
     inkscape:cy="528.5"
     inkscape:window-width="458"
     inkscape:window-height="426"
     inkscape:window-x="110"
     inkscape:window-y="110"
     inkscape:window-maximized="0"
     inkscape:current-layer="svg2" />
  <metadata
     id="metadata6">
    <rdf:RDF>
      <cc:Work
         rdf:about="">
        <dc:format>image/svg+xml</dc:format>
        <dc:type
           rdf:resource="http://purl.org/dc/dcmitype/StillImage" />
        <dc:subject>
          <rdf:Bag>
            <rdf:li>Egg-Bot</rdf:li>
            <rdf:li>Eggbot</rdf:li>
            <rdf:li>TSP</rdf:li>
            <rdf:li>TSP art</rdf:li>
          </rdf:Bag>
        </dc:subject>
        <dc:description>TSP art created with the Eggbot TSP art toolkit (http://egg-bot.com)</dc:description>
      </cc:Work>
    </rdf:RDF>
  </metadata>
  <g
     transform="matrix(1,0,0,-1,0.5,789.5)"
     id="g8">
    <path
       style="fill:none;stroke:#000000;stroke-width:1"
       d="m 151,789 2,0 3,0 -2,-2 -1,-2 2,-1 1,2 2,-1 0,-2 0,-2 -3,1 0,-2 1,-2 2,0 -1,-2 1,-2 0,-2 0,-2 1,-2 1,-2 2,-1 -3,-1 1,-2 2,0 1,-2 -2,-1 -2,0 0,-2 -1,-2 -2,1 -1,1 -2,1 0,-3 1,-1 2,-1 1,-1 2,-1 1,-2 1,-2 1,-2 0,-1 1,-2 -1,-2 -1,-2 -2,-1 1,-1 0,-2 1,-2 -1,-1 2,-1 1,2 0,2 0,2 1,2 1,2 0,2 0,2 0,2 0,2 -2,0 0,2 -1,1 0,2 -2,0 0,2 2,1 1,2 2,-1 -1,-3 1,-2 1,-2 2,-2 0,-2 2,0 1,-2 2,-1 0,-3 1,-2 0,-2 2,-1 0,-3 -2,1 -2,1 0,2 -1,2 0,2 -1,2 -2,2 0,-2 0,-2 0,-2 -2,0 0,-2 0,-2 2,0 1,2 1,-2 0,-2 2,-1 2,-1 2,-1 1,1 1,-2 -2,-1 2,-1 2,-1 0,-2 0,-2 1,-1 1,-2 0,-2 2,0 1,-2 -2,-1 -2,1 -1,2 -1,2 -2,2 0,2 0,2 -2,0 -2,0 0,2 0,2 -2,0 -1,1 -1,-2 0,-2 1,-1 0,-2 -1,-2 0,-2 -2,1 1,2 -1,2 -1,2 0,2 1,2 1,2 -2,1 -1,-2 -1,-2 -2,0 0,-2 2,-1 0,-2 1,-2 -2,0 1,-2 1,-2 1,-1 1,-2 0,-2 2,0 0,-2 -1,-2 2,-1 1,2 1,2 2,0 2,1 -1,2 -2,0 -1,-1 -2,1 -1,2 2,0 1,2 0,2 1,2 2,-1 0,-2 -1,-2 2,0 1,-1 1,-2 0,-2 2,0 0,-2 1,-2 1,-2 1,2 2,-1 -1,-2 1,-1 2,0 2,-1 1,2 -2,1 0,2 -1,1 -2,1 -2,1 2,1 2,0 2,-1 1,-3 2,-1 1,-1 2,-1 1,-2 1,-1 2,-1 -3,-1 0,-2 -2,-1 0,-2 -1,-2 -2,1 0,1 0,2 1,2 2,1 -1,1 0,2 -2,0 -1,-2 -1,-2 -2,1 -1,1 -3,-1 1,2 -2,1 -2,1 -2,-1 1,-2 2,-1 -1,-1 0,-2 1,-1 0,-2 2,0 -1,-2 -1,-2 0,-2 2,-1 1,2 2,1 -2,1 1,2 1,2 -2,1 0,2 2,0 2,-1 0,-2 0,-2 1,-1 2,-1 -3,-1 2,-1 0,-2 0,-1 2,-1 -1,-2 1,-1 -1,-2 2,-1 1,2 1,2 2,-1 1,-2 -2,0 0,-2 -1,-2 2,-1 1,2 2,1 2,-1 1,-2 1,-2 1,-2 2,0 -1,2 0,2 -1,2 2,0 -1,2 2,2 1,-2 2,0 0,2 -1,2 -2,1 -2,-1 0,2 -2,1 -1,-2 0,-2 2,-1 -1,-2 -2,1 -2,0 0,2 0,2 -1,1 2,1 0,2 -2,-1 -3,0 0,-2 -2,0 -1,2 0,2 2,0 -1,2 1,2 2,-2 1,-2 2,1 0,2 0,2 -2,-1 -1,2 1,2 1,2 1,-2 1,-1 2,-1 0,-2 1,-1 -1,-2 1,-2 2,2 0,-2 2,0 0,-2 2,0 2,-1 1,-2 2,-1 -1,-2 0,-2 -2,-1 -2,0 -1,-2 0,-2 0,-2 0,-1 -1,-2 -2,0 0,-2 2,-1 1,-2 1,-1 2,0 1,2 -2,1 -1,2 1,2 1,2 0,2 0,2 2,0 1,-2 0,-2 1,-1 0,-2 -2,1 -1,-2 2,-1 2,-1 1,2 1,2 0,2 3,-1 -1,-2 0,-2 -2,-1 1,-1 -1,-2 0,-2 0,-2 -1,-2 -1,-2 0,-2 -2,-1 -1,2 -1,2 2,1 1,2 1,2 -1,2 -1,1 -1,-3 0,-2 -2,0 -1,2 -2,-1 0,-2 2,-1 -1,-2 2,-1 1,-2 -1,-2 0,-2 -1,-2 -2,0 1,-2 2,0 -1,-2 -1,-2 0,-2"
       id="path10"
       inkscape:connector-curvature="0" />
    <path
       style="fill:none;stroke:#000000;stroke-width:1"
       d="m 210,637 2,2 2,0 0,2 0,2 0,2 1,2 0,2 2,0 2,0 0,2 1,2 0,2 1,2 1,-2 1,-2 -1,-2 0,-2 -1,-2 2,-1 1,-2 2,-1 0,-2 0,-2 -1,-2 0,-2 0,-2 2,-1 0,2 0,2 1,2 2,-1 0,-2 2,1 2,-1 -1,-2 2,0 1,-1 2,0 2,-1 1,-2 1,-2 2,1 0,-2 1,-2 1,2 2,-1 -1,-2 -1,-2 -2,1 -1,-2 2,-1 1,-2 0,-2 2,0 2,-1 0,2 -1,2 -1,1 1,2 1,2 1,-3 1,-2 1,-2 0,-2 2,-1 0,-2 -1,-2 -1,-2 1,-2 0,-1 -1,-2 2,-1 1,-1 2,-1 1,-2 1,-1 -2,-1 -1,-2 3,0 0,-1 2,-1 1,2 -1,2 1,2 0,2 2,0 2,-1 -1,-1 -1,-2 2,-1 -1,-1 1,-2 1,-2 -1,-2 -2,0 0,2 -1,2 -1,-2 0,-2 1,-2 -1,-2 -3,-1 1,2 -1,1 0,2 0,2 -2,1 -1,1 -1,-2 1,-2 0,-2 0,-2 1,-1 -2,-1 -1,-2 1,-2 1,2 2,0 2,-1 1,3 1,-1 1,-2 2,2 0,2 0,1 1,2 2,-1 0,-2 0,-2 2,-1 1,-2 2,0 1,2 -2,1 0,2 -2,0 1,2 0,2 -2,1 1,2 1,-1 2,0 1,-2 0,-2 0,-2 2,0 1,-2 0,-2 -2,-1 -1,-2 1,-2 3,0 -1,2 2,1 0,2 1,2 -1,2 0,2 0,2 -2,-2 -1,2 0,2 -1,2 -2,1 1,1 1,2 -1,2 1,2 2,-2 0,-2 0,-2 2,0 -1,-2 1,-2 2,0 0,2 1,2 2,0 0,-2 0,-2 0,-2 -2,0 -1,-2 1,-2 1,-2 -1,-1 1,-1 -1,-2 1,-2 -3,0 0,-2 0,-2 2,2 2,-1 1,-1 1,-2 2,2 3,-1 0,2 -2,1 1,2 1,2 2,-1 -1,-2 2,0 0,-2 2,0 2,1 -1,2 -1,1 -1,2 -2,1 -2,0 0,2 0,2 0,2 1,2 1,2 -1,2 0,2 0,2 0,2 2,0 1,-2 0,-2 -1,-2 2,-1 -1,-2 1,-2 -2,0 0,-2 1,-1 -1,-2 2,-1 1,2 1,2 0,2 0,2 2,-2 1,-2 -1,-2 1,-1 -2,-1 -1,-2 2,0 0,-2 2,2 1,3 1,2 -1,2 -1,2 -1,2 -1,1 -2,1 1,2 -2,0 1,2 -1,2 1,2 -2,0 -1,1 -2,1 -1,-2 -2,2 0,2 -2,0 1,2 -1,2 -1,1 1,2 -2,1 -1,-2 -2,1 -1,-2 1,-1 2,-1 1,-1 0,-2 0,-2 2,-1 1,-1 0,-2 0,-2 1,-2 -1,-2 1,-2 -1,-2 0,-2 -1,-2 0,-2 1,-2 -1,-2 -1,-2 -1,-2 -1,2 0,2 1,2 0,2 -1,2 -1,2 2,0 1,2 0,2 0,2 0,2 0,2 -2,0 1,2 -1,2 -2,0 0,-2 -1,-2 -2,0 0,2 0,2 -2,0 0,2 0,2 2,0 1,-2 2,0 0,2 -1,2 -3,0 0,2 -2,0 -2,1 0,2 1,2 1,2 1,-2 0,-2 2,-1 0,2 1,2 2,-1 1,1 -1,2 -1,2 -2,-2 -1,1 -2,1 -3,1 0,-2 1,-1 -1,-2 -2,-1 0,-2 0,-2 1,-2 1,-1 2,0 -1,-2 0,-2 -1,-1 -2,1 -1,-2 0,-2 1,-2 -1,-1 -1,-2 -2,1 1,2 -1,2 1,2 0,2 0,1 -2,0 -1,2 -2,-2 -1,2 -1,2 -2,1 -2,-2 2,-1 1,-2 -1,-2 -1,2 -2,1 -2,1 1,2 -1,2 1,2 4,1 1,2 1,-2 0,-2 2,-1 0,-1 2,-1 1,2 1,-2 1,-2 3,-1 -1,3 -1,2 -1,2 1,2 1,2 0,2 0,2"
       id="path12"
       inkscape:connector-curvature="0" />
    <path
       style="fill:none;stroke:#000000;stroke-width:1"
       d="m 272,617 -2,0 -1,-2 1,-2 -2,0 0,-2 -1,-2 -2,1 0,2 1,2 1,2 1,2 0,2 -2,2 0,-2 -1,-2 -1,-2 -1,-2 -1,1 0,3 1,2 0,2 1,2 -2,0 0,2 -2,-1 -1,2 3,1 -1,2 -1,2 -1,-2 -2,0 0,2 -2,0 1,2 3,0 0,2 -1,2 -2,0 0,-2 -3,-1 1,3 -3,0 -1,2 2,2 -2,2 -1,1 0,3 2,-1 1,-1 1,-2 1,-2 0,-2 3,0 -1,2 0,2 -1,2 0,2 -2,1 1,2 0,2 -2,1 -1,-2 0,-2 -2,0 -1,2 1,2 -1,1 -2,0 -1,2 2,1 2,0 1,-2 3,0 -1,2 0,2 -2,0 -1,2 0,2 1,2 1,2 2,-1 3,0 -1,2 1,2 -2,1 -1,-2 -2,0 0,2 0,2 0,2 0,2 0,2 -1,2 -1,-2 -2,0 -2,-1 1,-2 2,0 0,-1 0,-2 1,-2 -1,-2 0,-2 -1,-2 -1,1 -2,1 -2,0 0,-2 2,-1 0,-2 2,1 0,-2 1,-2 -3,0 -3,0 0,2 0,2 -2,0 -1,-2 0,-2 -2,-2 -2,0 1,2 0,2 1,2 1,2 2,0 0,2 -2,1 1,2 -1,2 -1,2 1,2 0,2 2,-1 0,-3 1,-2 0,-2 1,-1 2,2 1,-2 2,0 0,2 -1,2 -1,1 -2,0 -1,2 2,0 -1,2 0,2 2,0 -1,2 -2,1 -2,1 0,2 2,2 0,-2 2,-1 1,2 2,-1 -1,-2 1,-1 1,-2 1,2 1,2 0,2 -2,1 1,2 0,2 -2,1 -1,-2 0,-2 -2,1 -2,1 -2,-1 0,2 -2,1 -1,-2 0,-2 2,-1 -1,-2 -2,1 -2,0 0,-2 2,-1 1,-1 2,-1 2,-1 -1,-2 -2,1 -2,1 -1,-2 0,-2 0,-2 -1,-2 2,-1 0,-2 -1,-2 1,-2 -2,0 0,-2 1,-1 -2,-2 0,-2 0,-2 -2,-2 -1,2 1,2 -1,2 1,2 0,2 1,2 1,2 0,2 -2,0 0,2 -1,2 2,0 1,2 -1,2 1,2 0,2 -2,0 0,2 0,2 -2,1 -1,-2 0,-2 1,-2 1,-2 0,-3 -2,1 -1,2 0,2 -2,0 0,2 -2,0 -1,-2 1,-2 1,-1 2,-1 1,-2 0,-2 1,-1 0,-2 0,-2 2,0 -1,-2 0,-2 -1,-2 -1,-2 1,-2 -1,-1 1,-2 0,-2 -3,0 0,2 -1,2 -2,1 3,1 -2,1 1,2 2,0 0,2 -1,1 0,2 1,1 -1,2 -1,1 0,2 0,2 -2,1 -1,1 -1,-2 1,-2 1,-2 -2,0 -2,0 0,2 -1,2 1,2 0,2 2,0 -1,2 1,2 2,2 -2,1 0,2 0,2 0,2 1,2 -2,0 1,2 -1,2 0,2 1,2 -2,2 0,2 -1,2 0,2 0,2 1,2 -2,0 -1,2 1,2 -1,2 -2,-1 0,-2 -1,-2 1,-1 -2,-2 -3,0 -1,-2 -2,0 0,2 -1,2 -2,1 -1,2 -1,2 -1,-2 0,-2 0,-2 2,0 1,-1 1,-2 -3,0 -2,0 -1,1 -1,2 0,3 1,2 1,2 -2,1 2,1 0,2 1,2 -2,1 1,1 3,0 -1,2 -1,1 -3,-1 1,2 -2,2 0,2 0,3 0,2 0,2 1,2 1,2 1,-2 0,-2 0,-1 1,-2 -2,-1 1,-1 0,-2 0,-2 2,-1 2,-1 1,-2 0,-2 2,0 1,2 1,2 -2,0 0,2 -1,1 -2,0 -2,1 1,2 2,-1 2,1 -1,2 -2,0 -1,2 0,2 -1,3 2,-1 2,-1 0,-2 1,-1 2,-1 0,-3 0,-2 1,-2 2,-1 -1,-2 -1,-2 -1,-2 1,-1 -1,-2 -2,-1 -2,0 1,2 -2,1 -1,-2 -1,-2 2,-1 1,-2 1,-2"
       id="path14"
       inkscape:connector-curvature="0" />
    <path
       style="fill:none;stroke:#000000;stroke-width:1"
       d="m 203,719 2,0 1,-1 0,-2 2,0 1,2 0,2 -1,1 -3,0 -1,2 2,0 2,1 2,-1 2,0 2,1 1,2 0,1 -1,2 -2,0 0,-2 -1,-2 -2,1 0,2 1,2 0,2 2,0 2,-1 1,2 -2,1 -1,1 3,1 2,-1 2,0 -1,2 2,2 1,-2 1,-2 1,-1 -2,-1 1,-2 0,-1 2,-1 0,-2 1,-2 2,-1 2,-1 2,-1 0,-2 0,-2 0,-2 2,-1 -1,-2 -2,1 -1,-2 -1,-2 0,-2 -2,0 -1,2 -1,1 2,1 1,2 1,2 0,1 0,2 0,2 -2,1 -2,0 -1,1 -2,0 1,2 -1,2 -1,2 -1,2 -1,2 -1,-2 0,-2 1,-2 -1,-2 2,0 0,-2 -2,0 1,-2 -1,-2 2,0 2,1 -1,-2 0,-2 2,0 1,2 1,2 2,-1 -1,-2 0,-2 -1,-2 -2,1 -1,-2 -2,2 -1,-2 1,-2 2,0 -1,-2 0,-2 2,0 1,2 1,-2 -1,-2 -2,-1 1,-1 -1,-2 1,-2 1,-2 -1,-2 0,-2 -1,-2 2,-1 1,-2 1,2 -1,2 1,2 0,2 2,0 -1,2 -2,1 0,2 1,2 2,-1 0,-2 2,-1 0,-2 1,-2 -2,-1 -1,-2 2,0 2,-1 2,0 0,2 1,2 -2,0 0,2 -1,2 0,2 -2,1 -1,2 -2,1 1,2 2,-1 1,2 1,2 0,2 2,0 1,-2 1,-1 -2,-1 2,-1 -1,-2 -2,1 -1,-2 2,-1 1,-2 0,-2 1,-2 2,0 0,2 -1,2 0,2 1,2 1,2 0,2 0,2 0,1 0,2 -2,-2 -1,2 1,2 2,0 -1,2 -1,2 -1,-2 -2,1 1,2 0,2 2,0 -2,2 -1,1 -2,0 1,2 0,2 1,2 0,2 -1,2 0,2 2,-1 1,-2 0,-2 2,0 2,0 -1,2 -1,2 0,2 -1,1 -2,1 -1,1 -1,-2 -2,2 -1,-2 0,-2 0,-2 -1,-2 2,0 0,-2 -2,0 1,-2 0,-2 0,-1 -2,1 -1,2 -1,2 0,2 1,2 1,2 -2,0 -2,1 0,3 1,-1 2,-1 1,2 -1,2 2,0 2,0 2,1 2,-1 2,-1 2,-1 1,-3 1,-2 1,-2 0,-2 1,-2 0,-2 2,-1 -1,-3 2,-1 -1,-3 2,-1 -1,-3 2,-1 -3,-1 -1,2 0,2 -1,2 0,2 -1,2 0,2 -2,1 0,2 -2,1 -2,-1 0,-2 2,0 0,-2 1,-1 1,-2 -1,-1 1,-1 1,-2 0,-2 1,-2 0,-2 0,-2 -1,-2 2,0 0,-2 -2,-1 1,-2 -2,0 0,-2 1,-1 0,-2 -1,-2 2,0 0,-2 2,0 1,2 -1,2 1,2 -1,1 2,1 -2,1 2,1 -1,2 1,2 -1,2 0,2 2,0 1,-2 0,-2 0,-2 1,-2 0,-2 1,-2 -2,0 -1,-2 0,-2 2,0 1,2 1,-2 0,-2 1,-2 -1,-2 2,-1 0,-2 -1,-2 1,-1 2,0 -1,-2 1,-2 2,0 0,2 1,2 -1,2 -1,1 3,-1 2,-1 1,2 -2,1 -2,1 -2,1 0,2 3,-1 0,2 -1,2 2,0 0,2 0,2 0,7 1,-2 0,-2 2,-1 0,-2 1,-1 2,-1 -3,-1 0,-2 -2,-1 1,-2 0,-1 2,-1 2,0 2,1 -3,1 0,2 1,2 2,-1 0,-2 2,0 1,-2 -1,-2 2,-1 1,2 2,-2 -1,-2 2,-1 -2,-1 1,-1 1,-2 2,2 1,-2 1,-2 1,-2 1,-2 -2,-1 -1,-2 -1,-2 -1,-2 1,-1 2,0 0,-2 -2,-1 -2,1 -1,1 -2,1 -1,-2 0,-2 -3,0 1,2 0,2 -1,2 0,2 1,2 0,2 2,0 1,2 2,-1 -1,-2 0,-2 -2,0 0,-2 1,-1 2,0 1,2 1,2 1,2"
       id="path16"
       inkscape:connector-curvature="0" />
    <path
       style="fill:none;stroke:#000000;stroke-width:1"
       d="m 277,674 1,2 -2,0 0,2 -2,0 -2,0 0,2 -2,0 -1,1 1,2 0,2 -2,1 -2,1 -2,0 -1,-2 1,-2 2,2 1,-2 0,-1 -2,-1 0,-2 2,-1 2,0 0,-2 -3,0 0,-2 0,-2 0,-2 -1,-2 1,-2 -1,-1 1,-1 -1,-2 1,-2 2,0 0,-2 -1,-2 -1,1 -2,1 0,2 -2,0 0,2 0,2 1,2 -2,0 1,2 1,2 0,1 0,2 -1,2 2,1 -1,1 -1,2 0,2 -1,2 -2,0 0,-2 -1,-2 2,0 0,-2 -1,-2 -2,1 -1,1 -2,1 -1,-2 1,-2 2,0 2,-1 2,0 1,-2 -2,0 -1,-2 1,-1 -1,-2 1,-2 0,-2 -1,1 -2,1 -2,1 -2,0 0,-2 1,-1 2,0 1,-2 3,0 0,-2 2,0 1,-2 2,-1 0,-2 2,1 1,-2 -1,-2 3,0 2,-1 0,-2 2,-1 0,3 2,-1 1,2 2,-1 -1,-2 0,-2 3,0 0,2 1,2 2,0 1,2 -1,2 2,1 -1,1 -1,2 -2,0 0,-2 -1,-2 1,-2 -2,0 -2,1 1,2 0,2 -2,0 0,2 -2,0 -1,-2 0,-2 2,0 -1,-2 -2,-1 -2,1 1,2 -2,0 1,2 1,2 0,2 2,0 1,2 2,-1 2,0 1,-1 0,-2 2,2 2,-1 1,2 -2,1 1,2 -2,0 1,2 -1,2 -1,1 1,2 1,1 1,-2 1,-2 1,-2 0,-2 1,-2 1,-2 -1,-1 0,-2 2,0 0,-2 -1,-2 0,-2 2,1 0,-2 1,-2 1,-2 2,-1 -1,-2 -2,1 -2,0 0,2 -1,1 -1,2 -1,-2 -2,0 0,-2 2,-1 0,-2 0,-2 0,-2 -1,-2 3,0 0,-2 -2,-1 2,-1 0,-2 -2,-1 1,-3 2,2 1,2 1,2 0,2 0,2 0,2 -2,0 -1,2 1,2 2,-1 1,-1 2,-1 1,-1 -1,-2 -1,-2 2,-1 1,2 1,2 1,1 -1,2 -2,1 0,2 2,0 2,-1 2,0 -1,-2 1,-2 -1,-2 -1,-1 1,-1 -1,-2 -2,0 -1,-2 -1,-2 -1,2 -1,1 -1,-3 1,-2 -1,-1 -2,1 -1,-2 -1,-2 2,-1 1,2 2,-1 1,-2 -2,0 -2,-1 0,-2 2,0 3,1 1,2 0,2 -1,2 1,2 2,0 0,2 1,2 2,0 0,-2 0,-2 -1,-2 -2,0 1,-2 0,-2 -1,-2 -1,-2 -2,0 -1,-2 -2,1 -1,-2 2,-1 0,-2 0,-2 0,-2 2,0 -1,-2 1,-2 2,0 0,2 1,2 2,-1 0,-2 -1,-2 2,-1 1,2 2,-1 -1,-2 -1,-3 1,-2 0,-2 2,0 0,-2 1,-2 1,-2 6,-3 4,-1 3,-7 7,-2 4,-4 4,-3 7,-1 5,0 4,-6 5,2 0,8 -3,6 -4,3 -6,-3 -5,3 -1,7 -9,-2 -2,8 -2,8 -7,-4 -7,10 1,1 0,2 3,0 0,2 0,2 -1,1 -2,1 0,2 2,0 0,2 1,2 1,2 0,2 1,2 2,0 -1,2 -1,2 0,2 1,2 -1,1 -2,1 0,2 -1,1 -3,0 1,-2 1,-2 0,-2 2,-1 -1,-1 0,-2 1,-1 -1,-2 0,-2 -1,-2 -1,-2 -1,-2 -1,1 0,2 -1,2 2,1 -1,1 2,2 -1,2 0,2 -1,2 0,2 -1,2 -2,0 0,-2 -1,-2 2,0 1,-2 -1,-2 1,-2 -2,0 0,-2 -1,-2 -1,-2 2,0 1,-2 1,-3 0,-2 0,-2 2,0 1,-2 -2,-1 -1,-2 -2,1 -1,-2 2,-1 0,-3 -1,1 -2,1 -2,1 -1,2 2,1 -2,1 0,2 -2,1 -1,-2 0,-2 -2,0 -1,2 1,2 1,2 2,0 1,2 2,-1 0,-2 1,-2 1,-1 3,0 -1,2 -1,2 0,1 0,2 -1,2"
       id="path18"
       inkscape:connector-curvature="0" />
    <path
       style="fill:none;stroke:#000000;stroke-width:1"
       d="m 303,619 -1,-2 -2,1 0,2 1,2 1,2 0,2 1,2 1,2 -1,1 -2,1 1,2 0,2 1,2 -1,2 0,2 3,0 -1,-2 2,-1 1,2 2,1 2,-1 2,0 2,0 2,0 0,2 3,0 0,-2 0,-2 1,-1 -3,1 -2,0 0,-2 2,-1 1,-2 -1,-1 0,-2 1,-1 0,-2 1,-2 1,2 1,2 -1,2 1,2 -1,2 2,0 1,2 0,2 -1,1 0,2 -1,2 -2,0 0,2 2,1 2,-1 1,-2 1,-2 1,-1 0,-2 1,-2 -2,0 0,-2 2,-1 2,1 0,2 0,2 0,2 2,0 1,-2 2,0 0,2 0,2 0,1 0,2 -2,0 0,-2 -3,-1 -1,1 -2,1 0,2 -1,1 -2,1 -1,1 1,2 1,2 2,1 0,-2 -1,-2 2,-1 1,2 1,2 0,2 -2,1 -1,1 -1,2 2,1 1,2 -1,1 2,2 -2,1 1,3 1,2 1,-2 0,-2 1,-2 0,-2 -1,-2 -1,-2 1,-2 1,2 1,-2 2,-1 0,-2 -2,1 0,-2 1,-1 -1,-2 -2,0 -1,-2 -1,-2 2,-1 1,2 2,1 2,0 0,2 1,2 1,2 0,2 2,0 0,2 1,2 1,2 -1,2 0,2 -1,1 1,2 -2,1 1,2 -1,1 -2,0 -1,-2 0,-2 2,-1 -1,-2 1,-2 1,-2 -2,-1 1,-1 -1,-2 -2,1 -1,2 2,2 -2,1 1,2 -1,1 -1,2 0,2 1,2 -2,0 -1,2 2,0 0,2 0,2 1,6 -1,2 -1,2 0,2 3,-2 1,-2 2,1 1,2 0,2 0,1 0,2 -2,3 2,-1 3,-3 0,-2 2,0 1,2 -1,2 -1,2 5,-1 0,-2 -1,-2 -1,-2 2,-1 2,2 3,1 -2,-3 -1,-1 0,-2 -1,-2 1,-1 -2,-2 0,-2 -2,0 -1,2 1,2 1,2 0,2 -2,0 -1,1 -2,1 -1,-2 1,-2 2,0 -1,-2 -1,-2 -2,2 -1,2 -2,-1 -1,-2 1,-1 -1,-3 2,-1 -2,-1 0,-2 2,1 2,0 1,2 2,-1 1,-2 -2,0 1,-2 -1,-2 2,-1 1,2 1,2 2,-1 -1,-3 -1,-2 0,-2 -2,2 -1,-2 1,-2 0,-2 0,-2 -1,-2 -1,-2 0,-2 -2,-1 1,-2 -2,0 0,-2 -1,-2 1,-1 -1,-2 0,-2 0,-2 -1,-2 0,-2 -2,-1 -2,1 -1,-2 2,-1 2,0 -1,-2 0,-1 -2,-4 -1,2 0,2 -1,1 -2,0 -2,0 -2,1 -1,-2 0,-2 0,-2 -1,-2 -1,-2 2,-1 1,-2 -2,0 0,-2 -1,-2 -2,1 0,2 1,2 -1,2 -3,0 1,-2 -2,0 1,-2 0,-2 -2,1 0,-2 -1,-2 2,0 0,-2 0,-2 2,1 0,2 1,2 2,-1 1,-1 3,3 2,1 -1,1 2,1 -1,2 0,2 -2,1 1,2 1,2 0,2 2,-1 1,-2 -1,-1 1,-1 0,-2 0,-2 4,-7 9,2 8,2 10,1 5,-4 5,-6 3,-8 -8,-3 -5,5 -6,-3 -3,6 -9,-3 -10,-3 2,-8 10,2 1,-9 9,4 3,-4 3,-7 2,-7 7,2 -1,9 -3,6 9,3 1,-7 2,-7 -2,-9 3,-4 0,-7 0,-7 -6,-1 -3,3 1,7 -3,5 -6,-2 0,-8 1,-5 -7,3 -7,-3 -5,-1 -2,6 -10,2 3,-4 2,-7 2,-7 3,-6 3,-4 2,-7 -6,-1 -4,3 -2,6 -3,6 -1,7 -4,3 -5,-1 3,9 -2,5 -3,5 -6,1 -5,3 -7,-2 0,-9 5,-1 5,-1 4,-4 -1,-8 -6,0 -5,2 -6,1 -4,2 0,8 -8,-1 -1,-8 -7,1 0,8 -4,2 -6,0 -4,2 -5,1 -8,-2 -6,-2 -10,-9 6,-4 3,-7 2,-5 3,-4 3,-5 6,2 3,-5 5,-1"
       id="path20"
       inkscape:connector-curvature="0" />
    <path
       style="fill:none;stroke:#000000;stroke-width:1"
       d="m 266,519 0,-7 7,3 4,1 -4,6 -2,7 -5,0 -3,7 -5,-1 -4,4 -5,8 6,0 8,-1 6,0 2,-7 6,0 2,-6 2,-3 1,-6 3,-5 4,-1 6,0 5,-2 5,-1 5,0 5,0 3,-4 3,-5 3,-4 2,-5 6,-1 5,1 3,-3 1,-5 -7,-1 -4,1 -5,2 -5,2 -3,4 -2,5 -3,3 -4,2 -6,0 -6,1 -6,1 -5,0 -7,0 1,-7 -5,-1 -4,3 -3,1 -7,-1 -2,6 -3,1 -3,4 -7,2 -4,3 -4,6 -1,8 -3,4 -7,0 -8,-4 -8,-6 7,-3 7,4 4,-4 2,-7 5,-1 2,-7 6,-1 4,-3 1,-7 4,1 3,-5 5,1 6,-1 5,-2 2,-3 6,4 5,-1 1,8 5,1 5,-1 7,-1 3,-3 4,-2 0,-6 4,1 2,-5 4,1 5,-2 4,-3 7,1 5,0 4,-3 5,0 5,0 3,-4 2,-4 5,-2 2,-4 5,2 -1,-6 5,2 2,6 -1,5 -6,-2 -5,3 -2,4 -3,3 -3,4 -5,0 -5,0 -1,5 2,6 -3,3 -4,4 -5,0 -4,1 -3,4 -3,4 -3,5 -4,5 -4,2 -5,0 -5,0 -5,2 -5,0 -6,1 0,7 -2,6 9,-5 5,0 6,-2 6,1 5,0 5,1 2,-6 3,-4 2,-6 4,-4 4,-3 5,2 3,-1 2,-6 4,-3 4,1 -1,7 -3,4 2,7 6,2 -2,6 -6,-2 -1,6 -5,5 8,3 5,-3 5,2 2,-5 0,-6 1,-6 7,-3 -1,6 0,6 0,7 7,2 0,-7 0,-6 0,-6 1,-5 0,-7 -4,0 -4,3 -4,-1 -3,4 -6,1 1,-8 1,-5 5,0 5,-1 3,-2 6,3 1,-5 -6,-4 4,-3 2,-3 1,-6 -6,0 -3,4 -4,1 0,6 -4,3 -5,0 -6,-1 -2,-6 5,0 5,0 1,-5 4,-4 3,-2 1,-4 6,3 4,-2 0,-5 1,-5 -2,-6 2,-3 -8,-2 3,-3 5,-1 0,-5 -1,-5 1,-4 -1,-5 2,-3 -5,-4 4,-2 0,-5 -4,0 -3,2 -3,3 -4,6 4,-1 4,2 0,5 -4,0 -4,0 -3,2 -5,0 -1,6 -5,-2 -1,4 -4,2 -3,2 -3,2 -3,2 -1,4 -6,-4 -1,4 -4,2 -4,5 5,1 5,-1 4,-2 6,1 2,-4 3,-2 3,-3 3,-3 4,-2 5,0 0,-5 3,-1 4,-2 5,0 0,5 -4,2 -3,3 -5,3 -4,2 -2,4 -3,2 -4,2 -1,5 -4,1 -5,-1 -4,2 -3,1 -4,1 -6,-4 -2,3 -3,3 -5,0 -5,1 -4,2 -5,0 -4,3 6,4 -5,3 -3,4 -6,-2 2,-6 0,-6 4,-4 3,-4 5,1 4,-2 5,-1 4,-1 3,-4 2,-5 2,-3 3,-3 1,-4 2,-3 6,3 3,-3 3,-2 2,-2 5,0 1,-4 6,-1 1,-4 5,-1 2,-2 1,-4 2,-3 2,-3 2,-2 3,-3 4,-2 3,-1 5,3 -1,-6 -4,-2 -5,-1 -3,1 -2,3 -4,-3 -1,4 -1,4 -3,3 -2,5 -3,3 -3,1 -3,3 -2,3 -5,-1 -1,4 -4,-1 -3,3 -3,4 -6,-2 -5,-1 0,5 -1,5 -4,2 -1,5 -1,4 -4,1 -4,2 -5,1 -5,0 -5,3 -2,5 -5,2 1,6 -3,3 -5,1 -1,-8 3,-3 2,-6 4,-2 6,-4 4,-4 4,0 5,-1 4,-2 0,-5 2,-1 4,-4 1,-4 1,-5 4,-2 6,2 4,1 1,-5 4,-2 4,-3 5,0 3,-2 2,-4 4,0 3,-3 2,-4 1,-4 1,-4 3,-3 5,0 5,-1 5,0 4,2 3,-2 -1,-7 -3,2 -4,0 -5,0 -3,1 -4,0 -4,0 -3,3 -4,0 2,-6 -4,0 -3,4 -3,1 -2,3 -2,5 -5,-1 -3,1 -4,2 -4,2"
       id="path22"
       inkscape:connector-curvature="0" />
    <path
       style="fill:none;stroke:#000000;stroke-width:1"
       d="m 326,413 -2,4 -4,1 0,6 5,-1 4,-3 2,-3 4,-2 4,1 3,-2 5,-4 3,-3 4,0 -1,5 -2,4 -4,0 -3,4 -4,2 -4,-1 -2,4 -4,2 -4,2 -3,2 -5,-2 -4,2 -4,2 -1,4 -1,5 -2,1 -5,2 1,6 -4,2 -2,-7 -3,1 -1,5 -3,4 -5,-1 1,6 -6,0 -4,2 -1,5 -3,3 -2,4 1,6 -4,3 -4,4 -5,0 -9,2 3,-4 4,-6 5,0 2,-5 1,-5 2,-4 3,-4 2,-5 3,-3 5,1 -2,-6 5,0 5,0 1,-5 1,-5 5,0 5,0 3,-3 3,-3 1,-5 5,-2 3,-2 3,-3 -2,-6 -4,3 -5,1 -1,4 -5,2 -1,4 -3,2 -3,2 -6,0 1,-5 3,-3 3,-2 5,-3 1,-4 6,-2 3,-2 3,-3 5,2 3,1 3,-3 4,-3 3,-2 3,-2 5,1 2,-1 1,-4 2,-3 5,0 1,-4 4,-1 2,-3 4,1 0,5 4,0 5,0 5,0 3,-1 4,0 5,-1 0,-5 -4,0 -4,1 -5,-1 -4,2 -4,0 -1,-5 5,0 4,-2 4,1 4,-1 4,0 1,-3 0,-4 -5,0 -2,2 -4,0 1,-6 4,-1 4,0 2,-1 1,-5 -4,0 -5,1 -4,0 -1,5 -2,3 -1,4 -3,2 -4,0 -4,0 0,5 -4,-2 -4,2 -2,3 -4,4 -4,0 -4,3 -2,3 -4,0 -4,1 -2,3 -2,4 -6,1 1,-4 1,-4 2,-3 4,-2 3,-2 4,0 5,-1 1,-5 5,1 0,-4 2,-1 4,-2 2,-3 4,0 1,-4 0,-4 0,-4 3,-1 4,-2 0,4 -2,4 0,5 4,-1 2,-3 1,-4 0,-4 3,-2 4,0 4,0 3,-2 4,1 0,-4 1,-4 -4,-1 -2,3 -4,2 -4,0 4,-5 -4,0 -4,1 -1,3 -2,3 -4,-1 -4,1 -3,1 -4,0 0,4 0,5 -1,3 -3,2 -3,3 -3,-1 -3,2 -1,4 -4,2 -1,4 -5,0 1,-5 -5,1 -1,5 -2,2 -4,2 -6,0 2,-3 3,-3 3,-3 2,-5 4,0 4,-1 4,1 1,-4 3,-3 6,-1 2,-3 3,-2 -1,-5 -2,-5 3,-1 4,0 4,-1 4,-1 4,0 2,-3 4,-2 3,-2 4,2 1,-3 3,-3 1,5 4,1 2,-3 -3,-4 3,-2 -2,-4 2,-2 -2,-5 2,-2 0,-4 0,-5 -4,-1 -1,3 -3,3 3,1 -3,3 -4,-2 -2,2 -2,3 -2,2 -4,0 -4,1 -2,3 -4,0 -3,1 0,4 -4,0 -4,0 -4,0 -3,2 -3,2 0,5 4,-1 3,-3 4,1 3,-1 4,0 4,-1 1,-4 4,0 3,-3 3,-1 4,0 3,-2 2,-2 2,-2 4,0 -1,5 -1,3 -4,1 -3,2 -4,0 -3,1 -1,4 -4,-1 -2,3 -4,1 -4,1 -5,0 -4,1 -4,2 -5,0 -2,3 -1,4 5,1 2,-3 4,0 0,4 -2,3 -2,3 -4,-2 -2,3 -3,3 -4,1 -4,0 -4,1 -1,4 -2,3 -3,2 -2,1 -2,3 -2,2 2,5 -3,3 -2,2 -4,2 -4,2 -3,2 -5,2 -4,1 -3,3 -4,-1 -4,1 -2,3 -2,4 -5,3 -3,1 -2,4 -2,4 7,2 2,-4 3,-5 5,-2 4,0 0,-5 5,1 4,-3 5,0 2,-3 4,-1 3,-3 4,-2 4,-2 3,-3 5,-2 -1,5 -2,4 -4,2 -4,2 -2,3 -5,2 -2,4 -4,1 -4,-1 0,5 -5,-2 1,5 -5,-1 -5,0 -3,3 -1,5 -3,3 -5,0 -5,-2 1,6 -1,4 -1,5 -3,4 -2,4 -3,1 -2,4 -5,0 -5,3 -3,1 -1,6 -3,6 -3,5 -7,2 -5,0 5,-6 3,-4 3,-5 1,-6 0,-6 4,-2 4,2 0,-6 6,3 2,-4 3,-2"
       id="path24"
       inkscape:connector-curvature="0" />
    <path
       style="fill:none;stroke:#000000;stroke-width:1"
       d="m 241,448 4,-3 2,-4 1,-5 -1,-6 -5,2 -1,4 -2,4 -3,1 -4,3 -3,1 -6,2 -4,3 -4,3 -4,0 -2,5 7,2 -2,5 -3,4 -2,6 -5,0 -2,5 -5,2 -3,3 -6,-1 -4,3 -6,2 -3,5 -2,7 -7,-1 1,-8 -8,-1 0,8 -7,-3 -2,5 -6,2 -4,4 -8,-5 4,-5 5,-4 2,-5 7,-1 3,-4 7,2 5,-2 5,3 3,-5 4,-1 4,-3 5,-2 5,-1 5,-1 2,-5 6,-1 1,-6 -6,-1 -6,2 -4,4 -5,1 -5,1 -6,1 -4,2 -4,3 -6,-3 -2,5 -4,-1 -6,0 -3,5 -6,0 -5,-1 0,7 -5,4 -4,4 -3,6 3,7 2,0 1,-1 0,3 0,2 3,-2 0,2 -1,2 3,0 1,-1 1,3 2,0 -1,2 0,2 1,2 1,-2 1,-2 0,-2 3,1 0,2 3,0 0,2 0,2 1,2 1,-2 1,-2 2,2 -1,2 -1,2 0,2 -2,2 -2,1 -1,-2 2,-1 0,-2 -2,0 -2,1 0,-2 2,-1 0,-2 -1,-2 -2,0 0,2 -2,1 0,2 -2,1 1,2 2,-1 1,2 1,2 -2,1 -1,-2 -1,2 -1,2 -2,0 0,-2 1,-2 -1,-2 -1,1 -1,2 -1,2 1,2 -2,1 -1,-2 -1,2 -1,2 -3,0 0,2 -3,0 -2,0 2,-2 1,-2 3,0 1,-2 2,-2 2,-1 0,-2 -1,-2 2,-1 2,0 0,-2 2,0 0,-2 -1,-2 -2,1 -1,2 -2,1 -1,1 -2,1 1,2 -2,0 -1,1 -1,-3 1,-2 -1,-1 0,-2 -1,-2 1,-1 2,0 1,2 0,3 1,-1 2,-1 -1,-2 2,0 1,-1 2,0 0,-2 -2,-1 -2,1 -2,0 -3,0 -3,0 -3,-2 -3,0 -2,1 3,1 2,0 1,2 -1,2 -2,1 -3,-1 -3,-1 0,2 3,1 3,1 2,0 2,-1 1,2 -1,2 1,2 1,2 -3,0 -1,-2 -1,-2 -1,2 -1,1 -2,0 1,-3 -2,0 -2,1 -3,3 -11,1 -7,0 8,-10 3,-7 2,-9 3,-5 3,-5 7,5 0,-9 2,-5 5,-4 4,-2 0,-7 4,-4 6,2 5,0 5,-5 6,-2 5,-2 6,2 4,-2 1,-6 4,-3 5,-1 -3,10 4,-2 6,-1 3,-1 6,-2 5,-3 5,0 3,-3 2,-5 4,0 3,-1 3,-2 6,-1 3,-5 4,0 4,-3 2,-4 4,-3 6,-2 2,-4 2,-4 3,-4 5,0 2,-4 2,-4 3,-3 1,-4 5,-1 0,5 5,-1 4,-1 3,-1 2,-3 5,-1 4,-2 0,-5 4,1 -2,-6 2,-3 3,-2 4,-3 2,-2 2,-3 3,-3 5,-1 3,-1 4,0 2,-4 -6,-1 2,-3 2,-3 1,-4 1,-3 2,-4 -3,-1 3,-4 3,-2 3,-2 3,-1 4,0 4,0 3,-4 4,-1 2,-1 -1,-4 2,-3 3,1 0,4 4,0 3,-2 1,-3 2,-2 4,-1 2,-2 2,-2 -1,-4 3,-3 2,-1 0,5 4,0 1,-3 0,-4 -3,-1 1,-4 2,-1 0,-4 0,-4 0,-4 0,-4 -3,1 -2,3 1,4 -1,4 -2,3 -1,3 -2,1 -2,2 -1,3 -2,3 -1,3 -2,3 -4,1 -2,4 -2,-4 -4,0 0,-4 -3,-1 -2,3 0,3 -1,3 -1,4 -3,1 -1,4 -4,0 -4,0 -4,1 -4,2 -2,2 -3,-1 0,5 -3,2 -4,0 -4,1 -2,2 0,4 -3,2 -2,3 -2,3 -5,1 -3,2 -1,-6 -3,2 -2,3 -2,3 -2,2 -2,3 0,4 -4,0 0,5 5,1 4,1 2,-2 3,-3 -5,-3 3,-2 2,-3 4,0 4,-1 2,-3 5,-1 2,-3 2,-3 3,-4 2,-3 4,0 -1,5 -2,3 -2,3 -1,4 -2,2 -4,1 -3,2"
       id="path26"
       inkscape:connector-curvature="0" />
    <path
       style="fill:none;stroke:#000000;stroke-width:1"
       d="m 306,363 -3,3 -2,2 -4,-1 2,5 -4,2 -3,4 -2,4 -1,6 -3,2 -4,-1 -3,3 -5,2 -1,-5 4,-2 3,-4 5,0 1,-5 -4,0 -4,-1 -3,2 -2,3 -3,2 -3,1 1,5 -3,2 -4,2 -2,4 -3,4 -2,4 -4,0 -3,3 -5,-4 2,-4 3,-2 4,0 2,-4 3,-3 3,-4 2,-3 0,-4 1,-4 4,1 2,-2 3,-2 2,-2 2,-4 -5,-2 -4,2 -2,1 -3,2 -4,-2 -4,0 -4,4 3,1 5,1 -1,5 -3,1 -5,-3 -4,2 1,6 4,-2 5,2 -4,3 -3,3 -5,-2 -1,3 -2,3 -2,4 -1,5 -4,0 -2,4 -4,3 -4,2 -4,2 -4,1 0,-7 4,-2 3,-3 3,1 2,-4 4,-3 2,-3 2,-4 0,-5 3,-2 3,-2 -2,-5 3,-3 3,-2 -1,-5 0,-4 -5,-1 -4,-2 2,-4 5,2 2,-3 2,-2 1,-4 5,2 3,-2 5,1 3,-2 3,1 5,1 1,-3 2,-4 2,-3 3,-2 4,-1 4,-1 0,5 -4,2 -2,2 -3,2 -1,4 -2,4 -5,-1 -4,1 -4,0 -4,0 -2,2 -5,-1 -3,4 1,5 3,-3 4,0 4,1 3,-2 4,0 4,-1 3,1 4,0 2,-4 2,-4 2,-2 2,-3 3,-2 3,-2 0,-4 1,-3 2,-4 2,-3 0,-4 -4,2 -3,3 -2,1 -5,0 -4,1 -5,1 -2,4 -3,3 -2,2 -5,-1 -4,2 -4,0 -4,1 -3,-1 2,-5 2,-2 5,2 2,-3 4,2 3,-2 3,-2 0,-4 0,-4 3,-1 2,5 3,-2 4,-1 4,0 4,-2 4,-2 2,-3 -4,-2 -3,2 -3,2 -4,0 -4,1 -4,-2 3,-3 3,-1 4,0 3,-2 2,-3 4,-2 1,5 4,0 1,-4 3,-2 4,-1 3,-2 3,-1 1,-4 4,2 1,-4 -3,-1 2,-4 3,1 2,-3 3,1 2,-3 1,-3 2,-3 4,-1 1,-3 4,-1 0,4 4,-2 -1,-4 -1,-4 2,-2 4,-1 3,-1 4,2 -2,3 -4,0 -2,2 1,4 0,4 -3,2 0,4 0,4 -3,2 0,4 -2,2 -2,3 -3,-1 -2,3 -5,-2 2,-3 5,-3 1,-3 2,-2 2,-3 1,-4 -4,0 -3,1 -1,3 -2,4 -1,3 -4,0 -2,2 -1,3 1,4 -2,2 -4,-2 -1,3 -4,1 -2,2 -4,0 -3,2 -3,4 1,5 4,0 0,-4 3,-2 1,5 4,0 2,-4 -3,-1 4,-3 4,-1 4,0 2,-1 2,-3 3,1 4,1 2,-3 5,-2 0,3 -1,3 -2,3 -4,0 -4,0 -3,3 -4,0 -4,0 -1,4 -1,3 -3,2 -4,0 -4,1 -2,1 -1,4 -2,3 -2,2 -1,4 2,5 3,-2 1,-4 3,-2 0,-4 3,-3 4,0 4,-1 3,-1 1,-6 3,-1 4,0 3,-2 2,-1 4,0 4,1 1,-4 2,-2 2,-2 -1,-4 2,-3 -4,-2 0,-4 2,-3 1,-4 0,-4 2,-2 2,-3 -1,-4 1,-3 4,1 1,-4 1,-3 1,-3 0,-4 1,-3 0,-3 4,-2 2,-3 3,-1 4,0 4,0 -1,4 -4,0 -3,1 -2,3 -2,1 -1,4 3,1 -4,2 0,4 4,-1 3,-1 1,-3 0,-3 1,-3 4,-1 0,4 0,3 0,4 -2,2 -3,2 -4,0 -1,3 -4,-2 -1,3 -2,3 -3,1 0,4 -1,3 -2,2 -1,4 -1,4 -1,3 5,-1 1,-4 2,-2 2,-2 2,-2 -2,-4 2,-2 2,-4 2,4 2,-4 3,-2 3,-2 1,4 -2,3 -2,2 -2,3 -3,1 1,4 -2,2 -2,2 -3,2 0,4 4,-1 0,4 4,-2 0,-4 3,-2 0,-4 2,-2 1,-3 3,-1 1,-3 2,-2 -1,-4 -1,-4 3,-1 -2,-4 2,-3 3,1"
       id="path28"
       inkscape:connector-curvature="0" />
    <path
       style="fill:none;stroke:#000000;stroke-width:1"
       d="m 381,272 0,4 4,0 0,-4 0,-4 -4,0 -4,-2 4,-2 4,0 0,-4 1,-3 -1,-4 0,-4 0,-3 -3,-1 -1,4 -1,3 2,4 -1,4 -4,2 0,-4 1,-3 -2,-4 0,-4 2,-2 -3,-3 3,-1 3,-1 4,2 1,-3 -4,-2 3,-3 1,-3 -4,-1 -1,3 -3,2 -2,2 -4,0 -1,3 0,3 1,4 -1,3 -3,0 -1,-4 1,-3 -4,-1 -1,4 1,4 -4,1 -2,2 -1,3 -4,-1 -1,3 0,3 -3,2 3,2 -1,3 -4,-2 -4,0 -4,2 -4,-2 -1,3 -4,-1 -3,1 -5,1 1,-4 2,-2 2,-3 3,3 2,-3 3,1 4,2 1,-3 4,1 1,-3 2,-1 1,-4 1,-3 -2,-4 -2,3 -2,3 -2,2 -2,2 -3,1 -4,-1 0,-4 -4,1 -1,3 -4,1 -3,1 0,4 -2,3 0,4 -2,1 -2,2 -4,0 -1,3 -3,1 1,4 0,4 4,0 1,-3 1,-3 2,-2 4,0 2,-2 3,1 2,-3 4,0 4,0 -1,3 -4,1 -2,3 -3,1 -2,3 -3,-3 -2,3 3,4 -4,0 -2,2 -4,0 -5,-2 -4,0 -4,-2 4,-2 1,-3 0,-3 -1,-4 4,-2 2,-3 4,-1 1,-3 2,-2 2,-3 0,-4 3,-2 4,0 1,-3 4,-1 3,-1 4,0 1,4 3,-3 2,-2 1,-3 2,-2 4,0 2,-2 0,-3 1,-3 2,-2 3,-1 0,4 -1,3 -1,3 0,3 -3,2 2,4 3,-2 3,-2 0,-3 1,-3 0,-3 0,-4 1,-4 2,-3 2,-2 0,-3 2,-2 2,4 3,-1 3,1 -2,3 -3,1 -2,2 -3,1 -1,3 0,4 3,0 2,-3 3,-2 2,-2 3,-1 1,-3 2,-2 4,2 2,-2 -4,-3 3,-1 0,-3 1,-3 -1,-4 0,-3 1,-3 -1,-4 1,-3 -3,-1 -3,1 -1,3 3,1 -1,3 -1,3 2,4 -1,3 -4,0 3,3 -2,2 -2,1 -2,-4 -3,2 -3,-3 3,-2 2,-2 3,-1 2,-1 -3,-4 2,-2 -2,-4 -4,-2 2,-2 3,0 2,-2 4,-1 3,1 1,-3 1,-4 -1,-5 0,-4 0,-4 0,-4 -3,1 -1,3 -2,3 3,1 -1,3 0,3 1,3 -2,2 -3,1 -3,0 -2,2 -3,0 -3,1 0,3 -3,0 -1,4 -1,2 -4,-1 -2,2 0,4 -1,3 -2,1 -1,3 1,3 4,1 0,-3 2,-1 2,-2 -2,-4 2,-3 2,4 2,-3 2,-2 0,-4 4,1 0,3 0,3 -2,2 -2,2 -2,2 -1,3 -2,2 -1,3 -2,2 -1,3 -1,3 -4,-1 1,-4 1,-3 -4,-1 -1,3 -1,3 0,3 -2,2 -1,3 0,4 -3,1 -3,1 2,-5 -4,0 0,-3 3,-1 2,-1 -2,-4 4,0 1,-4 -4,0 -1,-4 -3,0 0,4 -1,4 -2,1 -1,3 -1,3 0,4 3,1 1,4 0,3 -4,0 0,-4 -4,0 0,4 -4,1 -2,1 -3,3 -4,0 -2,2 -3,2 -2,3 3,1 -3,3 -2,3 -2,1 -3,2 -1,3 -4,-1 -1,3 1,4 0,4 -3,2 -2,2 1,4 -4,0 1,4 -2,4 -2,-4 -3,2 1,4 -3,1 -3,1 0,4 4,0 4,-1 3,-2 3,-1 4,0 2,-4 -5,0 2,-3 3,-2 4,2 4,0 3,1 -2,4 -4,-1 -2,3 4,2 -4,2 -3,1 -3,1 -2,2 -3,-1 -4,1 -4,1 -2,3 -3,-3 -1,4 -4,1 -3,2 -2,2 -2,3 -2,4 -2,3 1,4 -4,1 -1,-5 -4,2 -1,4 -3,-1 -5,1 -1,4 -2,2 -4,0 -4,-1 -3,2 -4,0 -2,3 -1,4 -4,1 -2,3 -3,4 -1,4 -5,1 -1,4 -1,4 -1,4 -5,1 0,5 5,-1 5,0 1,-4 1,-6"
       id="path30"
       inkscape:connector-curvature="0" />
    <path
       style="fill:none;stroke:#000000;stroke-width:1"
       d="m 212,368 3,-2 3,-3 1,-5 3,-2 3,-2 3,-3 1,-4 4,0 3,-2 5,0 -1,4 -2,4 -5,-1 -3,4 -3,3 -3,3 0,4 -2,3 -3,2 -4,2 1,6 4,1 2,-3 3,-1 3,-3 2,-3 0,-5 3,1 5,2 -2,4 -3,4 -1,3 -2,3 -3,1 2,6 -3,3 -2,4 -4,2 -5,-1 -5,1 5,4 -5,1 -2,4 0,5 -1,4 -5,2 -6,1 -2,4 1,6 5,1 1,-5 5,-1 4,-2 5,1 6,1 3,-2 3,-3 4,-3 4,0 1,-5 5,0 4,2 -3,4 -2,4 -6,1 -4,4 -3,3 -5,1 -5,-1 2,6 -5,0 -2,-6 -6,0 2,6 -4,2 -5,0 1,6 -3,3 -6,2 -5,2 -6,-1 1,-6 5,0 5,-1 2,-4 -1,-6 -6,2 -3,2 -5,-1 -3,3 -1,5 -4,2 -5,1 -3,3 -2,6 -5,0 -6,1 -5,2 -6,4 -1,-7 0,-6 5,1 6,-1 5,-2 2,-3 2,-5 3,-1 5,0 4,-2 2,-6 6,-2 5,-1 4,0 2,-4 0,-5 3,-3 5,-1 5,-2 0,-5 2,-4 2,-5 -4,-3 5,-3 4,0 3,-2 5,2 3,-3 2,-4 -7,-1 -3,1 -5,-1 -4,2 -4,-1 -1,4 -4,3 -3,-1 0,-6 3,-2 0,-6 -5,0 -3,3 -1,5 -3,3 5,4 -3,3 -1,5 6,2 2,-5 6,1 -2,5 -1,5 -5,0 -5,-2 -1,4 -1,5 -2,4 -4,1 -5,-1 -1,5 -5,0 -2,5 -4,2 0,-9 -4,1 -2,5 -2,3 -5,-2 -5,-2 -5,-1 -5,2 -6,-1 -1,-6 5,0 5,-2 4,-1 2,-5 4,1 0,7 5,-1 2,-5 5,0 6,2 2,-1 4,-3 5,0 3,-2 1,-5 1,-5 -6,2 -3,3 -4,0 -4,3 -1,-6 -5,1 0,5 -5,-1 -4,1 -6,-3 4,-4 4,-1 5,-3 0,-5 3,-3 1,-5 4,1 0,-5 2,-5 -5,-1 -3,3 -3,3 -2,4 -3,3 0,6 -2,1 -5,1 -3,4 -3,2 0,5 -2,4 -4,3 -5,0 -5,-3 4,-4 4,-1 2,-4 1,-6 3,-3 3,-2 4,-2 2,-4 2,-4 4,-2 2,-5 -5,-2 1,-5 2,-3 0,-5 4,-1 1,-4 3,-3 2,-4 4,-2 1,6 -3,3 -2,4 -2,5 -3,3 0,5 6,-1 2,-5 2,-5 3,-3 2,-3 5,2 -1,5 -3,2 -3,3 -2,5 5,1 3,-3 5,0 -1,5 -2,4 -4,0 -2,4 1,5 -1,4 -5,1 -3,5 5,2 4,-2 5,-1 5,-2 0,-5 -5,1 0,-6 5,-1 2,-4 1,-4 2,-3 5,0 4,-1 3,-2 5,-1 1,-5 -5,1 -4,0 -4,2 -4,0 -4,0 -5,-2 2,-4 0,-5 1,-5 5,-2 5,-1 5,1 3,-2 3,-2 1,-4 3,-3 2,-3 5,-2 2,-2 1,-4 4,-2 0,-4 0,-4 4,-2 -4,-3 -4,2 -2,3 1,4 -3,3 -2,-5 -4,2 -2,4 5,1 -1,4 -4,1 -3,4 -3,3 -2,3 -3,-1 -1,4 -5,-1 -4,1 -3,2 -4,2 -1,4 -5,-2 0,-5 2,-3 0,-4 3,-2 2,5 5,-2 4,-1 3,-2 3,-3 4,0 3,-3 1,-4 -1,-5 2,-2 3,-3 3,-2 2,-1 2,-3 3,-1 4,-2 0,-4 -5,1 -5,0 -2,3 -4,2 -2,3 -3,2 -2,4 0,5 -1,4 -4,0 -3,2 -2,1 -2,3 -5,2 0,-4 1,-4 1,-4 4,0 5,-1 1,-4 0,-4 3,-2 1,-4 2,-1 3,-2 3,-2 3,-3 0,-4 1,-3 4,2 0,5 4,-1 1,-3 3,-1 2,-3 4,2 3,-2 4,0 4,0 2,-3 3,-2 4,0 -3,-4 2,-3 3,3 2,-4 4,-2 -4,-2 2,-3"
       id="path32"
       inkscape:connector-curvature="0" />
    <path
       style="fill:none;stroke:#000000;stroke-width:1"
       d="m 248,271 0,-3 2,-2 1,-4 1,-4 -4,0 -2,4 -3,2 -4,-2 2,-3 2,-2 0,-3 -1,-4 -4,0 0,4 -2,3 -2,3 1,4 -3,2 -3,2 -4,3 -2,2 0,4 -4,-1 -3,1 0,4 4,0 4,0 4,0 0,-4 2,-2 1,-3 4,-1 2,-1 2,-3 4,1 -1,4 -1,3 -5,0 -1,3 -1,3 -2,2 -2,3 -4,0 -4,0 -3,1 -4,-2 -2,3 -2,2 -5,-1 0,-4 2,-2 2,-2 1,-3 0,-4 3,-2 3,-1 3,-2 0,-4 4,2 2,-3 3,-2 1,-3 0,-4 2,-2 2,-2 -1,-4 -4,1 -2,3 -2,3 0,4 -2,2 -3,1 -4,1 -1,4 -3,1 -3,2 -2,3 -1,4 -2,3 -3,2 -2,-5 1,-3 2,-1 2,-4 -4,-1 -4,1 -1,4 -1,3 -3,2 1,5 4,-2 1,5 4,0 -1,4 -2,3 0,4 -2,2 -4,2 -4,5 -3,2 -2,3 -1,3 0,4 -4,0 -5,3 -1,-5 -4,2 -4,0 -2,4 -3,2 -2,3 -2,3 -4,0 -4,1 -2,2 -3,2 -4,3 -2,4 -3,3 -2,4 -2,3 -5,-2 0,5 -1,3 -4,0 -5,1 -1,-6 4,-2 2,-4 -6,-2 -2,2 -4,1 0,5 -4,-1 -3,2 2,6 -2,4 -3,2 -3,5 -4,3 -3,3 -1,5 -1,4 -6,0 0,-5 1,-5 2,-4 2,-4 5,0 3,-4 2,-5 2,-2 -2,-6 3,-4 4,-2 4,-3 1,-3 5,0 5,2 1,-4 3,-3 2,-4 1,-5 2,-2 5,0 5,1 -1,4 -5,0 -3,3 0,5 -3,3 -2,4 5,2 3,-3 2,-4 1,-4 4,-1 3,-4 2,-3 4,-1 4,0 4,-2 3,-4 2,-3 3,-3 5,0 2,-3 4,2 4,1 2,-4 2,-4 2,-2 4,-2 2,-3 3,-2 2,-3 1,-4 -3,-1 -3,3 -3,1 -2,3 -2,3 -4,1 -2,4 -1,4 -4,-1 0,-5 3,-3 -4,-2 -3,4 -1,4 -2,3 -3,1 -4,2 -3,2 -2,3 -1,3 -3,2 -5,-1 -3,2 -5,-2 3,-4 4,-1 4,0 2,-4 1,-4 3,-1 4,0 2,-3 3,-1 1,-4 3,-2 0,-5 -4,1 -4,0 0,4 -2,2 -3,2 -2,1 -4,0 -2,3 -1,4 -2,2 -4,-1 -3,2 -1,4 -3,3 -2,1 -4,0 -5,2 -1,4 -1,4 -2,3 -3,3 -4,0 -6,0 1,-4 5,-2 3,-2 2,-4 2,-4 4,-3 3,-3 1,-4 4,3 2,-3 1,-4 3,-1 4,-1 3,-3 0,-4 4,0 2,-2 4,0 3,-3 4,-4 3,-1 5,1 2,-1 2,-2 4,0 0,-4 2,-3 -4,-2 -4,0 1,4 -4,1 -4,1 -4,0 -4,0 0,4 -3,2 -3,2 -5,0 -3,2 -3,3 0,4 -4,0 -5,1 0,-4 3,-2 2,-3 2,-2 2,-2 2,-3 4,2 3,-2 3,-2 0,-4 4,-1 4,0 2,-4 2,5 3,-2 0,-4 0,-3 2,-3 4,0 -1,5 4,0 2,-3 2,5 3,-3 3,-2 3,-2 4,2 -2,3 -3,2 -3,2 -1,3 5,1 -2,4 -4,0 0,4 -2,3 -4,0 -2,3 5,2 4,0 3,-3 1,-4 4,0 0,-4 2,-2 -2,-5 3,-2 2,-3 0,-4 3,-2 0,-3 0,-4 -4,0 -1,4 -4,0 0,-4 0,-4 4,0 3,-2 1,-4 1,-3 4,1 2,-3 1,-3 2,-2 3,-2 5,-1 0,-4 2,-3 1,-3 2,-1 3,-1 2,-1 -1,-4 3,-2 2,-3 0,-4 4,0 0,4 -1,4 -1,3 -2,1 2,4 -3,1 -4,1 -2,3 -2,2 4,3 2,-3 4,-1 2,-1 3,-2 0,-4 1,-3 0,-4 1,-4 0,-4 2,-3 3,-2 -3,-3 3,-1 2,-2"
       id="path34"
       inkscape:connector-curvature="0" />
    <path
       style="fill:none;stroke:#000000;stroke-width:1"
       d="m 240,196 2,5 2,-2 3,-1 -3,-3 2,-2 4,1 0,-4 3,0 3,0 -2,4 4,1 2,-2 0,-3 3,-1 2,-1 4,2 -1,3 -4,0 -1,4 4,0 3,1 -1,4 -3,0 -3,-1 -1,3 0,4 -1,3 -1,3 -2,4 -1,4 -2,4 -2,-4 -2,4 -2,1 -2,3 -3,1 -1,3 -4,0 0,-4 1,-3 0,-4 3,-1 1,4 3,-4 2,-2 1,-3 -2,-4 -3,2 -1,3 -4,0 0,-4 2,-3 2,-2 4,0 2,-2 3,3 -1,4 2,4 2,-4 1,-4 1,-4 -4,0 1,-3 3,-1 1,-3 -4,-1 -4,0 0,3 -2,2 -3,1 -3,1 -3,1 -2,2 -1,3 -1,4 0,4 0,4 -1,3 0,4 -2,1 -3,2 -4,0 -2,3 -1,3 -4,1 -1,-4 -3,-1 -2,3 -3,-1 -2,3 -2,1 -3,3 -2,4 -4,1 -1,4 4,0 4,-1 1,4 -4,2 -2,1 0,4 4,0 3,-3 1,4 4,-2 -1,-4 -1,-4 0,-4 -3,-1 2,-4 4,1 1,-3 3,-1 4,2 -2,3 -1,3 -4,0 1,4 0,4 4,-2 2,-2 2,-4 2,-3 0,-4 4,1 4,-2 -4,-2 1,-3 4,1 2,-2 4,2 -2,3 -1,4 3,1 3,-4 1,-3 3,-1 2,-3 3,-1 1,-3 3,0 3,-1 4,0 -2,4 -4,1 -2,3 -3,1 0,4 -3,0 -1,3 -3,1 3,3 0,4 4,0 1,-3 0,-3 3,-4 2,-2 2,-3 4,-1 1,-3 3,-1 -1,-4 1,-3 -4,-1 -4,0 2,-4 1,-3 2,-2 1,-3 4,2 4,0 -1,4 -4,0 -2,3 4,2 3,2 1,-3 2,-4 1,-3 3,1 1,-3 0,-3 1,-3 4,0 4,0 -1,-4 -3,0 -4,0 -3,0 -2,2 -1,3 0,3 -4,-1 -3,0 -3,-1 0,-4 3,0 3,0 1,-3 1,-2 4,-1 4,0 1,-3 4,3 0,-3 2,-2 4,-1 4,2 -2,3 -2,-1 -2,2 2,4 4,-1 3,-1 1,4 -4,1 -3,1 2,4 3,1 4,1 -2,-4 3,0 1,-4 2,1 1,-3 2,-2 2,-2 2,-2 1,-3 2,-2 4,1 -1,3 -2,2 -1,3 -2,2 -2,2 -1,3 -2,2 -2,2 -1,3 -1,3 -4,-2 0,3 0,4 4,0 3,0 2,-2 0,-3 1,-3 2,-2 2,-2 1,-3 2,-2 2,-2 1,-3 3,1 2,4 3,-1 2,-2 1,-3 4,-2 0,3 -1,3 -1,3 -1,3 -3,-1 -2,2 -4,-3 -2,1 -2,2 -1,3 -3,2 -2,4 -1,5 -1,3 -4,-1 -3,1 -3,-1 0,4 0,4 3,1 -3,3 -1,3 4,2 -3,2 -3,2 0,4 -1,2 -4,1 -2,2 -2,2 -4,2 -1,-4 2,-3 2,-2 4,-1 1,-3 1,-3 2,-2 -4,-3 3,-1 2,-2 0,-4 -4,2 -1,-4 3,-2 2,-2 -1,-4 -3,1 -2,2 -3,2 -4,1 0,-4 2,-2 2,-2 2,-1 3,-1 3,0 -1,-4 -4,0 -1,-4 -3,1 -3,-1 -1,3 4,2 -4,2 -1,2 -3,1 -3,1 0,4 4,-1 0,4 -4,1 -3,0 -4,-2 0,3 0,4 -3,2 -1,3 -4,0 -1,3 -2,2 -4,1 1,4 4,-1 4,-1 1,-3 3,-1 3,-2 1,-3 2,-2 2,-2 3,0 2,-2 4,0 4,-1 1,4 -2,2 2,4 0,3 -2,2 -3,2 -2,3 -3,2 -3,3 -1,3 5,-2 1,4 -2,2 -3,2 -2,1 -2,3 -3,1 0,4 -2,3 -3,3 -3,1 -4,-1 0,-4 2,-1 4,0 1,-4 1,-4 3,-2 1,-3 2,-2 -1,-4 2,-2 2,-3 3,-2 1,-3 2,-2 3,-1 1,-3 -1,-4 -3,3 -3,0 -2,3 -2,3 -2,2"
       id="path36"
       inkscape:connector-curvature="0" />
    <path
       style="fill:none;stroke:#000000;stroke-width:1"
       d="m 273,250 -2,2 -2,2 -2,2 1,4 -2,4 -2,1 -3,0 -1,-5 4,-1 -1,-4 -4,1 -3,1 0,4 -1,3 0,4 4,0 4,2 -2,3 -4,0 -4,-2 1,4 0,4 -3,2 -2,2 -2,3 0,4 -3,1 -4,0 -2,3 -3,2 -4,0 -4,0 -2,3 -4,-2 -3,2 5,3 -2,3 1,5 4,0 2,-2 0,-4 2,-3 4,0 -1,5 4,0 1,-5 3,1 1,-4 2,-3 5,0 3,-2 0,-4 2,-1 1,-4 4,3 0,4 4,0 2,-3 4,0 2,-3 2,-3 2,-3 2,-3 2,-3 3,-3 4,-1 1,4 -2,2 -2,2 -2,2 -2,3 -1,3 -2,3 -2,2 -4,2 -2,2 -3,2 -4,0 -4,-2 -1,3 -2,2 -4,1 -2,1 -3,2 0,4 -4,0 0,4 -4,1 -3,-1 -3,2 -3,2 -2,3 -3,2 0,4 5,0 3,-2 2,-2 2,-3 5,0 3,-1 3,-4 4,-1 0,-4 3,-1 2,-2 4,-2 4,-1 4,0 0,4 -4,1 -3,2 -2,2 -3,2 0,4 -4,0 -3,1 0,4 -4,1 -2,2 -3,-1 -3,2 -2,3 -2,2 -5,-2 -4,2 -3,-1 -2,3 -3,4 -4,1 -2,4 -3,2 0,4 -4,2 -3,3 -3,2 -6,-2 -3,2 -4,1 0,5 5,0 4,-2 5,1 5,-1 3,-3 3,1 1,-4 4,-1 -1,-5 2,-3 4,1 1,-4 2,-3 4,-1 3,-2 4,0 5,0 2,-3 3,-2 4,-1 3,-2 4,-1 1,-4 4,1 2,-3 0,-4 3,-1 2,-3 3,-1 4,-1 0,-4 2,-2 -4,-4 3,-1 2,-3 3,-1 2,-4 3,-2 1,-3 2,-2 2,-2 2,-3 3,-2 -2,-4 1,-3 -4,-2 4,-2 4,0 2,-2 2,-1 2,-2 3,-2 -1,-4 2,-2 3,-2 1,-3 -2,-4 2,-1 1,-4 -3,-3 2,-2 4,1 3,-2 1,-3 0,-3 1,-3 2,-1 2,-2 2,-2 1,-3 4,2 -1,3 -2,3 -2,2 -2,2 -1,3 0,4 -2,2 -2,2 -3,1 -1,3 0,4 4,0 1,-3 3,-2 3,1 0,-4 3,-1 1,-3 -3,-1 2,-3 2,-2 1,-3 2,-3 1,-3 0,-3 4,-2 1,-3 1,-3 1,-4 0,-4 3,0 2,-3 2,4 -1,3 -2,1 -1,3 0,3 -1,3 1,4 3,0 1,-3 0,-3 1,-3 2,-3 1,-3 0,-3 2,-2 3,-1 3,-1 1,-3 2,-2 2,-2 1,-2 4,1 -1,-4 1,-3 4,2 -1,3 4,0 1,-2 0,-4 -2,-1 -4,0 0,-3 3,-1 2,-2 2,-2 0,-3 3,-1 0,-3 4,2 0,-4 0,-4 -3,-1 -1,3 -1,1 -3,2 -2,2 -1,3 -1,3 -3,1 -3,0 0,4 -2,2 0,3 -1,3 -3,-1 -1,3 -2,2 -1,3 -2,2 -3,1 -4,2 0,-3 -3,-2 -2,2 -2,3 -4,0 1,-3 1,-3 2,-2 3,-1 4,2 3,1 2,-2 0,-3 3,-1 0,-3 2,-2 3,-1 -2,-3 3,-1 2,-2 1,-4 4,0 1,-2 1,-3 2,-2 2,-2 2,-2 2,-3 3,-1 3,1 0,-4 -3,-1 -3,0 -2,2 -2,2 -2,2 -2,2 -2,2 -2,2 -1,3 -3,1 -2,2 -1,2 -2,2 -3,1 0,3 -2,2 -1,3 -2,1 -1,3 -2,1 -4,-2 -3,1 -1,-4 3,-1 4,1 -2,-4 -3,-1 -3,1 -4,-2 3,-2 3,-1 2,-1 1,-3 3,3 0,3 2,4 2,-3 0,-3 2,-2 2,-2 2,-1 1,-2 -4,-2 -3,0 0,3 -2,2 -3,-3 0,-3 1,-2 2,-1 4,0 0,-3 -4,0 1,-3 3,-1 3,2 2,-2 2,-2 2,-2 0,-3 -1,-3 -3,2 -1,-3 -1,-3 3,0 4,1 -1,-3"
       id="path38"
       inkscape:connector-curvature="0" />
    <path
       style="fill:none;stroke:#000000;stroke-width:1"
       d="m 362,135 2,-2 3,-1 1,-2 0,-4 3,2 1,-3 3,-1 0,3 -1,3 4,0 1,-3 3,-1 0,3 1,3 -3,1 -3,1 -3,0 -2,-1 -2,2 -4,1 4,2 -2,2 -3,1 1,3 5,-1 -1,2 0,3 -3,0 -2,1 0,3 -3,1 -1,3 -1,2 -3,-1 0,3 4,2 3,-1 1,-3 1,-2 3,-2 1,-2 3,-2 2,-2 0,-3 3,1 3,-1 2,-1 3,2 0,-4 0,-4 -3,2 -3,1 -3,1 -4,-1 1,-3 3,0 3,-1 3,-1 3,-2 0,-4 0,-3 -1,-3 1,-2 1,-3 -4,-1 -2,1 0,3 -3,1 -1,-3 1,-3 3,-2 1,-3 3,3 1,-2 0,-3 -3,-1 3,-3 1,-3 -4,1 -2,1 -2,2 -1,2 0,3 -2,2 -4,0 0,-3 2,-1 -1,-3 1,-1 2,-2 2,-2 3,-1 3,-1 3,-1 0,-4 -3,1 -3,0 -1,2 -3,0 -3,0 0,3 -3,1 -1,3 -1,3 -1,3 0,3 -3,0 -2,-1 1,-3 0,-3 2,-1 0,-3 1,-3 0,-3 3,1 0,-3 1,-2 3,1 3,0 1,-2 4,1 2,-2 2,-1 1,-3 0,-4 -3,1 -1,3 -2,2 -3,0 0,-3 2,-2 1,-3 3,-1 3,-1 -3,-3 3,-1 0,-4 -3,1 1,-4 1,-2 0,-4 -2,1 -3,1 1,3 -3,0 -1,3 3,0 0,3 0,3 -1,2 -2,3 -2,2 -2,2 -1,2 1,3 -3,0 -4,2 -2,2 -1,4 -2,1 0,3 -1,3 -1,3 -1,1 -3,2 2,1 3,3 -3,1 -1,2 -1,1 0,3 -2,1 -2,2 -3,2 -3,1 -3,1 1,3 -1,3 -3,1 -2,3 -2,2 -2,2 -2,2 -2,2 -2,2 -2,2 -2,2 -3,1 -2,3 -1,3 -3,0 -3,-1 -3,1 0,3 -2,2 -1,3 4,0 3,-1 0,-4 4,2 2,-1 3,-2 1,-2 1,-3 3,-1 2,-3 3,-3 3,0 1,-3 3,2 3,1 1,-3 -4,-2 2,-2 0,-3 3,-1 3,-3 1,-2 1,-3 3,-2 3,0 1,-2 3,-1 1,-2 1,-3 1,-2 2,-1 3,0 3,-1 4,0 -1,3 -2,1 -3,1 -2,1 -2,2 0,3 -2,1 -2,2 -2,2 -3,0 -3,0 0,3 1,3 -3,0 -3,1 -2,3 3,1 3,-1 3,0 3,3 -2,2 -3,-1 -3,1 -3,-1 0,4 -1,3 -2,1 -1,3 0,4 -1,1 -1,3 -3,-2 0,4 -3,2 -1,-4 0,-3 1,-3 3,0 1,-2 1,-3 0,-3 -4,2 -2,1 -2,2 -1,3 -3,0 2,4 -3,0 -3,2 1,3 4,0 2,-1 1,4 -2,2 -3,-1 -3,0 -1,3 -2,2 -3,0 -3,1 -2,2 -3,1 2,4 3,-1 3,-2 3,-1 1,4 3,-2 0,-3 2,-1 0,-3 4,1 3,-1 3,1 1,4 1,4 -2,2 -1,4 -1,3 -1,3 -3,-1 -2,2 0,3 -4,-2 0,-4 2,-2 3,-1 2,-2 1,-3 2,-3 -1,-4 -3,1 -1,3 -2,2 -2,2 -2,2 -4,0 -1,-4 -3,2 -2,2 -2,2 -1,3 -2,2 -2,2 -2,2 -4,-2 1,-3 2,-1 2,-2 2,-2 2,-3 -2,-4 -2,3 -3,2 -2,2 -4,1 0,-3 0,-3 2,-1 3,0 1,-3 2,-2 2,-2 2,-2 3,-1 3,-1 3,-1 2,-2 1,-3 -4,-1 -2,3 -4,0 -2,2 -3,1 -1,-4 -3,2 1,4 -2,3 -3,0 0,3 -4,0 -1,4 0,4 -2,2 -3,0 -3,2 -4,-1 -1,3 -2,1 -3,1 -2,-4 1,-3 3,1 2,-3 1,-1 2,-3 2,5 1,-3 3,1 1,-3 1,-3 1,-3 3,-1 2,-3 3,-1 0,-4 2,-2 1,-2 2,-2 1,-3 1,-3"
       id="path40"
       inkscape:connector-curvature="0" />
    <path
       style="fill:none;stroke:#000000;stroke-width:1"
       d="m 305,158 2,-2 0,-3 4,2 3,1 2,-2 1,-2 3,-2 2,-2 0,-3 3,1 1,-2 3,-2 2,-2 2,-2 2,-2 1,-2 0,-3 4,1 -1,-3 3,-3 1,-3 3,1 3,-1 -3,-3 2,-2 3,2 0,-3 1,-2 2,-2 -2,-3 1,-3 2,-1 2,-2 0,-3 1,-1 0,-3 2,-2 1,-2 1,-2 1,-2 -1,-3 -2,-1 1,-3 1,-3 0,-3 2,-2 3,0 1,-3 -3,0 -4,-1 -1,2 -1,2 -1,3 0,3 -2,2 -1,1 -1,2 0,3 4,-1 0,3 -2,2 -1,1 -3,0 -2,2 4,1 -1,3 0,3 -2,1 -2,3 0,3 0,3 -2,2 -3,0 -1,2 0,3 -3,1 -1,3 -1,3 -3,1 -2,2 -2,2 0,3 -2,2 -2,2 -2,2 -4,1 0,-3 2,-2 1,-2 3,-2 1,-3 2,-3 2,-2 3,-1 0,-3 1,-2 1,-3 2,1 1,-4 2,-2 3,0 -1,-3 1,-2 2,-2 1,-3 1,-2 -4,1 -2,2 -2,2 -1,3 -2,2 -2,2 -1,1 -2,2 -1,3 -1,4 -2,-1 -2,2 0,3 -2,2 -1,4 -2,-1 -2,3 -2,3 0,4 -3,1 3,3 0,3 -2,2 -3,2 -3,1 -4,-2 2,-2 2,-2 2,1 2,-2 -4,-3 1,-2 0,-3 3,0 0,-3 2,-2 2,-2 0,-3 3,-1 -1,-3 3,0 0,-3 2,-2 2,-2 2,-1 0,-3 2,-2 3,-3 0,-3 3,1 1,-3 -4,-1 0,-3 3,0 3,1 2,-2 3,-1 1,-2 2,-2 2,-2 1,-2 -1,-3 -3,0 -2,1 1,3 -4,-2 1,3 -1,3 -2,-3 -2,2 0,3 -3,-1 -3,1 -3,-1 3,-3 3,-1 -2,-3 4,0 2,-2 0,-3 3,1 2,-2 0,-3 2,-1 1,-2 1,-2 3,0 0,4 -2,2 -1,3 4,0 2,-3 0,-3 1,-2 1,-3 0,-3 3,0 3,0 3,0 0,-3 2,-3 1,-2 1,-2 1,-2 1,-2 -1,-3 0,-3 -1,-3 1,-3 3,1 0,3 0,3 1,3 0,3 1,3 -2,2 1,3 -3,0 1,3 -3,0 -1,3 3,0 1,3 0,3 -1,2 -1,2 -3,0 -1,1 0,3 -1,1 0,3 2,3 2,-2 1,-3 1,-2 2,-2 2,-2 1,-2 1,-2 -2,-3 0,-3 1,-3 2,-2 -1,-3 1,-3 1,-2 3,1 -1,4 3,-1 2,-1 -1,-3 1,-1 0,-3 0,-3 0,-3 -3,1 -2,1 1,3 -1,2 -4,0 0,-3 1,-1 -2,-4 3,0 3,-1 1,-2 3,1 -1,-3 1,-1 0,-3 0,-3 -1,-3 1,-1 0,-3 1,-3 -3,0 -2,1 0,3 -2,2 0,3 3,0 -1,3 0,3 -3,0 0,3 -3,1 0,-3 -3,0 -3,0 1,-3 0,-3 3,0 1,3 3,-1 -1,-3 -1,-3 -3,1 0,-3 3,-1 3,-1 -3,-2 3,-1 2,-2 1,-2 3,2 1,-2 1,-2 -4,-1 2,-2 1,-2 0,-3 1,-3 -2,-1 1,-3 -4,0 -2,1 -1,2 1,3 3,-1 0,3 -2,2 -1,1 -1,2 -1,3 -1,2 -3,0 -1,1 -1,2 -1,2 -1,3 -1,3 -3,2 2,1 -1,3 0,3 -1,3 0,3 -3,0 -2,-1 1,-3 1,-2 1,-2 0,-3 -2,-3 -3,1 1,3 -1,2 -1,2 0,3 -1,3 3,2 -2,2 -2,1 1,3 -2,2 -2,-4 -1,1 -4,0 -3,1 -3,0 1,-3 2,-2 3,1 2,-2 3,0 1,-2 0,-3 1,-3 -3,0 1,-3 2,-1 1,-2 -1,-3 -3,1 -2,2 -3,1 0,-3 2,-2 3,-1 2,-2 2,1 3,2 3,-1 3,0 1,-2 1,-2 1,-3 0,-3 2,-1 4,-1 2,-2 0,-3 0,-3 1,-1 -2,-3"
       id="path42"
       inkscape:connector-curvature="0" />
    <path
       style="fill:none;stroke:#000000;stroke-width:1"
       d="m 375,3 1,-2 -4,-1 -2,1 -1,3 3,0 1,3 -1,2 0,3 -3,1 -3,1 -1,3 0,3 -2,2 -1,2 -3,0 -2,-1 2,-3 0,-3 3,1 0,-3 1,-3 3,-1 3,-1 0,-3 -3,1 -3,0 0,-3 3,-1 0,-3 -3,1 -3,-1 -3,0 -3,1 -2,1 -2,-3 -2,2 -3,1 0,-3 -3,1 0,3 -2,2 -1,3 2,1 2,-2 2,-2 3,0 3,-1 0,3 -3,1 -2,2 2,1 -1,3 -1,3 3,0 3,0 -1,-3 1,-2 1,-2 2,-1 -1,-3 3,1 0,-3 2,-1 1,3 0,3 -1,2 -1,2 -3,1 1,3 -1,2 -3,1 -3,0 1,3 -3,0 -1,2 -3,0 1,3 -1,2 0,3 -3,-1 0,3 -4,0 0,3 -1,2 0,3 3,0 1,-3 1,-2 3,1 1,-2 2,-2 3,0 0,3 1,3 -3,-1 0,3 -3,-1 -2,2 -2,2 -1,3 -2,1 2,3 -3,0 1,3 -1,3 3,0 3,0 -1,-3 2,-1 3,-1 0,3 3,-3 2,-1 1,3 -2,2 -2,2 -3,1 0,3 3,0 2,-1 2,-2 2,-2 3,0 -1,-3 3,0 1,-2 1,-2 0,-3 2,-2 3,-1 0,3 1,3 -3,0 1,3 -2,2 1,3 -3,0 0,3 -3,-1 -3,1 -2,3 -1,2 -3,0 -4,-1 -1,2 -1,3 -3,1 1,4 -2,-1 -3,1 -1,3 -1,2 -3,0 -3,0 1,3 0,3 -3,1 -2,1 -2,2 -2,2 -1,3 -1,2 -2,2 0,3 -1,2 -2,2 -2,2 -1,2 0,3 -1,2 -2,1 -3,1 -1,3 -3,1 -1,2 -2,-1 -1,-5 3,0 1,-2 -4,-2 -2,-1 -2,2 0,3 1,3 -2,2 0,3 3,2 1,-3 3,3 0,3 -1,3 -1,3 0,3 4,0 1,-2 0,-3 2,-2 -1,-3 0,-3 2,-2 3,-1 0,-3 3,0 2,-2 2,-3 1,-2 0,-3 2,-2 2,-1 2,-2 -1,-3 1,-2 2,-1 0,-3 1,-3 3,-1 3,2 0,3 -3,-1 -1,3 4,1 0,3 -3,0 -2,1 0,3 -2,2 -1,2 -3,1 0,3 -2,3 -2,2 -1,3 -2,1 -1,2 -1,3 -3,-3 -1,3 1,3 -1,3 0,3 -1,2 -2,2 -3,1 3,3 -1,2 0,3 -1,3 -1,3 -2,2 -2,2 -2,1 0,3 0,3 -3,2 -2,2 -3,1 -1,3 -1,3 -3,-1 -1,-4 -3,1 0,4 -2,1 0,4 -4,0 0,-4 -3,0 -2,2 -4,-1 1,-3 2,-2 4,0 4,-1 -2,-1 1,-3 4,0 2,-2 3,-1 1,4 2,-3 1,-3 3,1 2,-2 -2,-3 2,-1 0,-4 3,0 3,-2 0,-3 2,-2 0,-3 -1,-4 -2,1 -2,2 0,3 -1,4 -3,-1 -2,2 -1,3 -3,2 1,3 -3,1 -2,1 -3,1 -4,-2 1,4 -3,-1 -2,2 -1,3 -3,1 -3,2 -2,3 -1,3 0,3 -4,0 0,-4 1,-4 0,-3 2,-1 3,-1 3,-2 1,-3 2,-2 2,-2 0,-3 2,-2 2,1 2,4 2,-2 3,0 1,-4 3,0 0,-4 3,-2 3,-1 0,-3 1,-3 2,-2 0,-3 0,-3 2,-3 -3,-2 -2,2 -4,-1 -3,0 -3,0 0,3 -2,2 -2,1 0,3 1,4 3,0 1,-2 0,-3 2,-2 2,-2 4,1 -1,1 0,3 -2,1 0,3 -1,2 -2,2 -3,0 0,3 -2,2 -1,3 -4,-2 1,-3 2,-3 -3,-1 -3,1 0,3 -2,2 -2,2 -2,2 0,3 -2,2 -1,3 -2,2 -3,1 -3,-1 -2,2 1,4 0,4 -2,2 -1,-4 -3,2 -1,-4 -1,-4 4,2 -1,-4 -1,-4 3,1 3,-1 3,0 2,-1 1,-3 2,-2 0,-3 3,-2"
       id="path44"
       inkscape:connector-curvature="0" />
    <path
       style="fill:none;stroke:#000000;stroke-width:1"
       d="m 262,154 1,-2 2,-2 0,-4 3,0 3,-1 1,-1 -1,-4 -5,2 1,-3 2,-2 2,-1 0,-3 4,1 1,-4 3,-1 3,0 1,-1 4,2 0,-3 0,-3 1,-3 0,-3 -3,1 -2,2 0,3 -3,0 -3,0 -2,2 -2,4 -3,-1 -3,0 0,3 -3,1 -1,-3 -3,0 -4,-1 -1,2 0,3 -3,0 2,4 -1,3 -1,3 -1,3 4,1 1,-3 1,-3 1,-3 1,-3 1,-2 4,2 -1,3 -2,2 0,3 0,3 -2,2 -1,3 -3,0 0,4 -2,2 -1,2 -4,1 0,-3 1,-3 2,-2 0,-3 -4,-2 -1,3 -2,2 0,4 -3,-2 -4,1 -3,-1 -2,2 -4,0 0,4 4,0 3,1 2,-2 4,-1 3,2 -3,2 1,4 -4,-2 -4,1 -3,-1 -3,0 -3,2 -3,1 -3,-1 -1,3 0,3 -4,2 -1,-4 -3,1 0,4 -2,1 -1,3 -2,1 -1,3 -2,2 -4,0 1,-4 0,-3 2,-1 2,-2 1,-3 2,-2 2,-3 3,-1 3,1 1,-3 3,-2 3,0 3,-1 1,-3 -4,-1 -3,1 -4,1 -2,1 -2,2 -4,1 -2,2 -2,2 -2,1 -1,3 -2,2 -4,-1 -2,2 -2,2 -4,0 -4,1 -3,1 -3,1 -4,1 -3,1 -3,1 -2,2 -1,3 -2,1 -3,1 -1,4 -4,0 -4,2 -3,-1 -2,2 -4,-2 1,-3 0,-4 1,-3 1,-3 1,-3 4,1 4,0 -1,4 -2,1 -3,1 -1,4 4,2 1,-3 4,1 1,-4 1,-3 3,1 2,-3 2,-3 3,0 2,-2 4,2 2,-2 4,-1 4,-1 3,-1 3,-1 2,-2 3,-1 3,0 1,-3 2,-2 3,-2 1,-2 4,0 2,-2 2,-2 4,0 3,-1 2,-2 4,2 2,-2 3,0 2,-1 3,-1 4,1 3,-1 2,-2 2,-3 3,-2 1,-2 1,-3 1,-3 -3,-1 -4,-1 -3,-1 -1,3 -3,0 -3,1 -1,3 0,4 3,0 1,-3 3,-1 4,-1 2,-1 -2,4 -3,2 -1,2 -3,2 -4,-1 -3,1 -4,0 0,-3 2,-1 1,-3 0,-3 0,-3 2,-2 3,-1 3,0 1,-3 3,0 1,-2 1,-2 2,-2 0,-3 3,0 3,-2 1,-3 2,-2 2,-2 3,-1 -1,-3 2,-1 1,-2 1,-3 2,-3 0,-3 2,-2 2,-2 2,-2 -5,-1 1,-2 3,-1 3,1 3,0 -1,-3 3,0 3,1 -1,3 0,3 -3,0 -3,0 -1,3 -2,2 -2,2 0,3 -2,2 -1,2 0,3 -2,2 0,3 -1,3 -4,-1 -3,3 0,3 -3,2 -2,2 -1,2 -2,2 -1,3 4,0 2,-2 2,-3 2,-2 3,2 3,0 3,0 4,-1 3,1 1,-3 1,-3 3,0 3,0 0,-3 3,-1 3,-1 2,-2 2,1 1,-2 3,-1 1,-3 1,-3 2,1 3,-2 2,-2 0,-3 1,-3 4,0 3,0 -3,3 -1,2 0,3 -2,2 -2,2 -1,2 -3,0 -1,3 3,1 3,2 1,-3 2,1 0,-4 2,-2 2,-2 1,-2 0,-3 1,-1 2,-2 -1,-3 3,0 1,-3 2,-2 2,-2 1,-2 3,0 -1,-3 0,-3 3,0 3,-1 2,-1 1,-3 2,-1 1,-2 1,-2 3,0 -2,-3 3,-1 0,-3 -3,1 -4,-2 -1,1 1,3 -1,2 -1,2 -3,1 1,4 -3,1 -3,0 1,-3 1,-2 2,-3 1,-2 0,-3 0,-3 1,-2 3,0 -1,-3 1,-2 0,-3 3,-3 -3,0 -3,1 -1,3 -1,2 -1,2 -1,3 -1,3 0,3 -1,2 -1,1 -1,3 -1,3 -3,2 2,1 1,3 -1,3 -3,1 0,3 -2,3 -2,2 -3,1 -3,0 -2,-1 -2,2 -3,2 -2,2 0,3 -2,2 -4,1 -1,3 -2,2 -3,0 -3,1"
       id="path46"
       inkscape:connector-curvature="0" />
    <path
       style="fill:none;stroke:#000000;stroke-width:1"
       d="m 283,109 -1,3 -2,-1 -2,2 -3,0 0,3 -3,0 -3,-1 0,3 -1,3 -3,1 -3,0 -4,0 0,-3 2,-1 4,0 1,-2 1,-3 1,-3 1,-3 1,-3 2,-2 0,-3 2,-2 2,-3 3,0 3,-1 0,3 1,4 -2,2 -2,-4 -2,1 0,3 -1,2 -2,2 -2,3 0,3 3,-3 3,-1 2,-2 3,0 2,-2 3,0 -1,-3 3,-1 3,-1 2,-1 0,-3 2,-2 2,-2 2,-1 1,-2 3,-1 3,1 3,0 0,-3 3,1 0,-3 1,-3 3,0 -1,-3 -2,-4 2,-2 2,-1 1,-3 -3,0 -3,1 -2,2 0,3 1,3 -1,3 -2,2 -3,0 0,3 -3,-1 -3,1 -2,1 -2,2 -2,2 -2,2 -3,0 1,3 -2,2 -3,2 0,-4 1,-2 -4,-2 0,-3 1,-2 3,-1 0,4 3,-1 2,-1 2,-2 1,-2 3,-2 3,0 3,-1 2,-2 3,0 0,-3 -3,-1 -3,1 -2,2 -3,0 -2,1 -2,2 -4,0 0,3 -3,-1 -4,0 -3,0 1,-3 -1,-3 3,0 2,3 1,-3 3,1 3,0 0,-3 2,-2 2,1 3,0 1,-2 -4,-2 1,-2 0,-3 3,0 2,-2 3,-1 2,-2 2,-2 3,-1 3,0 -1,3 -2,1 -2,2 -2,2 -2,2 -3,0 -2,2 2,3 3,-1 2,1 1,-3 2,-2 2,-2 2,1 2,-2 1,-2 2,4 2,-2 -1,-3 2,-1 1,-3 1,-3 0,-3 2,-1 1,-2 4,-2 0,-3 1,-3 0,-3 1,-2 3,0 1,-2 1,-2 2,-1 -3,-3 3,-1 3,-1 2,-2 -4,-1 1,-2 1,-2 1,-3 -3,0 -2,2 -2,2 1,3 -1,2 -3,0 -3,0 1,-3 2,-1 -1,-3 2,-2 2,-1 -2,-3 1,-3 1,-2 2,-2 -3,-2 -2,2 -2,1 -2,-3 -3,1 -1,2 -1,2 -1,2 -2,2 0,3 -1,2 -1,2 1,3 3,0 1,-2 0,-3 0,-3 2,-1 1,-3 2,-2 2,1 0,3 -1,2 -1,2 -1,2 -1,2 0,3 0,3 -1,2 -1,3 3,0 2,-2 3,-1 0,3 -2,2 -3,2 -3,-1 -3,1 -1,2 -1,3 0,3 -1,2 4,-2 1,-3 1,-3 3,2 -1,3 0,3 -2,1 -3,1 -2,2 0,4 -1,2 0,3 -3,1 -1,-4 0,-3 1,-2 1,-2 -1,-3 -3,1 -1,3 0,3 -1,2 -3,1 0,-4 0,-3 1,-2 0,-3 3,0 1,-2 3,0 0,-3 1,-2 1,-2 2,-2 1,-2 1,-2 1,-3 -3,0 -3,1 0,3 -2,1 -1,2 -3,0 -1,3 3,0 -1,3 -3,1 -3,1 0,-3 1,-2 0,-3 0,-3 3,0 0,-3 3,1 -1,-3 2,-1 3,0 -1,-3 -1,-3 1,-2 1,-2 -1,-3 3,-1 -3,-2 3,-1 2,-1 -4,-2 -3,0 -1,1 -1,2 -1,2 2,3 -1,2 -3,0 0,-3 -3,1 -2,1 1,3 -3,-1 0,3 -2,2 -1,-4 -2,2 -2,1 -1,3 -2,2 -3,0 -2,2 -1,3 0,3 -1,2 -2,1 -3,1 -3,1 0,-3 1,-3 2,1 2,-2 1,-4 -2,1 -3,1 -3,-3 3,-1 3,-1 3,0 1,-1 3,-1 3,-1 -3,-2 3,-1 1,-2 3,0 1,-2 1,-2 3,1 -1,-3 3,0 2,-1 3,0 2,-4 -2,1 -4,0 -3,1 -3,-2 -2,1 0,3 -3,-2 0,3 0,3 -4,2 0,-3 1,-2 -1,-3 -3,0 -3,0 -3,0 -1,2 -1,2 1,3 -3,1 1,3 3,-1 3,-1 -1,-3 1,-2 3,-1 0,3 0,3 -1,3 -2,1 -3,1 -3,0 -1,2 -3,0 -2,2 -1,4 3,-1 2,1 0,3 -3,0 -1,3 3,0 1,3 0,3 -3,1 0,-3 -4,0"
       id="path48"
       inkscape:connector-curvature="0" />
    <path
       style="fill:none;stroke:#000000;stroke-width:1"
       d="m 268,34 0,3 1,3 3,0 3,0 3,-1 1,-2 2,-1 3,-1 2,-1 3,2 0,-4 3,2 3,-1 3,0 0,-3 2,-2 -1,-4 -2,2 -3,1 0,3 -3,0 -1,-3 1,-3 3,0 2,-2 3,-1 -1,-3 4,2 2,-2 2,-2 3,-1 1,-2 3,1 0,3 -3,1 -2,1 -1,2 -1,2 -3,0 1,3 -1,1 1,3 -1,2 -1,1 1,3 -3,0 0,3 3,1 3,-1 0,3 -3,1 -1,2 -3,1 0,-4 -3,0 0,-3 0,-3 -3,1 -1,2 -3,1 -3,-2 -2,1 -1,2 -3,1 -2,1 -3,1 -3,0 -3,0 0,3 -3,0 -3,0 0,-3 3,-1 0,-3 -4,0 1,-3 1,-2 1,-3 3,-1 0,-3 -1,-3 0,-3 -1,-3 2,-1 2,-2 3,-2 0,-3 -3,1 -2,1 -2,2 -4,-2 2,-2 1,-2 2,-1 3,0 3,0 2,-2 0,-4 1,-2 -4,1 0,3 -3,1 0,-3 -3,0 -3,0 2,3 -3,0 -1,3 -2,1 -1,2 -1,2 -1,2 -1,2 -3,1 1,3 3,-1 3,-1 1,-3 3,0 0,3 0,3 -2,1 -3,0 -3,1 0,3 -3,3 0,-3 -3,1 -3,-1 -2,2 3,2 -1,3 -2,2 -1,-4 -2,-1 -1,3 1,3 -1,3 -3,0 1,-3 -3,-2 -1,3 -2,2 3,2 -2,2 -1,3 3,1 2,-2 2,-2 3,-1 2,-3 3,-1 2,3 -2,1 -2,2 -1,2 -3,0 0,3 -1,1 -3,0 -2,2 0,3 0,3 -3,1 -1,-4 0,-3 1,-3 -3,-1 -2,2 -3,0 -3,1 -2,1 -1,2 1,3 -2,1 0,3 -3,-2 -2,1 -2,2 -1,2 0,3 -2,2 -2,2 3,3 -2,2 -2,2 0,3 -2,1 0,3 1,3 0,3 -3,1 -3,1 -3,0 1,4 -1,2 -2,2 -3,3 -3,1 0,3 3,3 1,-3 3,0 0,-3 3,-1 2,-1 1,-2 0,-3 1,-2 3,0 2,-1 3,0 3,0 0,-3 -4,-1 0,-3 -1,-3 2,-2 0,-3 2,-2 2,-2 2,4 -2,2 0,3 -2,2 3,3 2,-3 1,-3 2,-2 -2,-4 2,-1 0,-3 3,1 3,-2 0,-3 -3,1 -1,-4 -2,2 -2,1 -2,3 -4,-1 2,-2 1,-3 1,-3 2,1 4,-1 1,-3 2,-2 0,-3 1,-3 4,1 0,3 -1,1 1,3 -2,1 -2,2 0,3 3,2 1,-3 2,1 1,-3 2,-2 3,-1 2,-4 1,-3 2,1 3,0 1,-2 0,-3 2,-1 3,0 -1,-3 2,-1 3,2 0,-3 -1,-3 3,-1 0,-4 -3,1 -3,1 -1,-3 1,-3 2,1 3,0 1,-3 2,-1 1,-3 1,-1 4,0 1,3 -3,1 -1,3 -3,1 2,3 -1,3 0,3 -2,2 1,4 2,-2 2,3 -2,2 -4,2 0,-3 -3,1 -2,2 -2,1 -1,3 -3,1 -3,1 -2,2 -1,3 -1,3 -3,-2 -1,3 -2,2 -2,2 -2,2 0,3 -3,0 -2,2 -1,2 -1,2 -1,3 -1,3 -1,2 -1,2 -2,1 0,3 0,3 -1,3 -3,0 0,-4 -3,0 -1,3 -3,-2 -1,3 -1,3 -2,2 -3,0 0,3 -3,1 -1,2 -3,1 -4,-1 -1,-3 -3,1 -2,2 4,2 -1,3 -3,-1 -3,0 -1,3 -3,-1 -3,0 -1,2 -2,2 0,3 1,4 3,-2 1,-3 2,-2 3,3 2,-2 1,-3 3,3 2,-2 3,-1 0,-3 3,0 3,-1 3,3 -3,1 -2,2 -3,2 -2,2 -3,1 -3,0 -2,2 -4,-1 0,3 -3,1 -4,1 -1,3 -1,3 -1,3 -2,3 -1,4 -2,1 -3,0 -3,1 -4,0 -3,2 -2,3 2,4 -3,0 -1,3 -3,1 0,4 3,-1 4,-2 3,0"
       id="path50"
       inkscape:connector-curvature="0" />
    <path
       style="fill:none;stroke:#000000;stroke-width:1"
       d="m 150,168 1,-3 2,-3 -4,-2 3,-2 4,1 2,-2 4,0 3,-1 1,-4 1,-3 2,-2 2,-2 0,-3 1,-3 3,0 2,-1 4,2 -1,3 -1,3 -3,-3 -1,3 -1,3 -2,2 -2,2 -1,3 0,3 -2,2 -4,0 -3,1 -3,1 -1,3 -2,4 3,0 3,-2 2,-2 3,-1 4,0 4,2 2,-1 4,0 1,-3 2,-2 2,-2 2,-2 4,0 3,-2 2,-2 4,-1 2,-2 2,-2 3,-1 3,0 0,-3 0,-3 2,-1 3,-1 3,1 1,-3 2,-2 0,-3 -3,-1 -2,2 -2,2 -3,1 -4,0 -1,2 0,4 -3,-2 -1,3 -2,2 -2,2 -2,2 -3,1 -2,-4 -2,2 1,4 -3,1 -3,0 -2,2 -2,2 -2,2 -1,3 -4,0 1,-4 2,-3 2,-3 2,-2 4,-1 2,-1 -1,-4 2,-2 -2,-4 -4,-2 3,-2 4,2 0,-3 3,-1 2,-3 3,-1 3,-1 2,-2 2,-2 0,-4 -4,0 0,-3 3,-1 1,-2 3,-1 0,-3 3,1 -1,-4 4,2 3,0 3,0 1,-3 1,-3 0,-3 2,-2 2,4 3,-1 3,-1 1,-3 1,-3 3,3 0,3 -2,2 -2,2 -3,1 -1,2 -4,-2 1,4 -2,1 0,3 -3,0 0,3 -1,3 -1,3 -1,2 -4,0 0,-3 0,-3 3,-1 0,-4 -2,1 -3,1 -3,2 1,3 -2,2 3,3 -3,1 -1,3 -2,2 -4,1 -1,3 -3,-1 -1,3 -1,2 -2,2 -1,2 4,2 2,-2 2,-2 1,-2 3,-2 1,-3 4,-1 3,0 -1,-4 4,2 0,-3 3,0 3,0 4,2 2,-2 2,-1 2,-2 1,-3 -3,-2 -2,3 -4,2 0,-3 2,-2 0,-3 3,-1 1,-2 1,-2 2,-2 2,-2 3,0 1,-3 3,-1 0,-3 0,-3 3,1 0,-3 2,-2 2,-2 2,-2 -3,-3 -2,2 -2,2 -2,2 -3,1 -1,-3 2,-2 2,-2 2,-2 0,-3 2,-2 3,0 -1,3 3,3 2,-2 0,-3 2,-2 -4,-2 3,-1 -1,-3 4,2 0,-3 2,-1 3,0 3,-1 0,-3 1,-2 -2,-4 -2,2 -3,1 2,3 -3,0 -3,0 -1,2 -3,1 -2,2 -1,2 -1,2 -3,0 -2,2 -2,2 0,3 -2,2 -2,2 -2,1 0,3 -3,1 0,3 -2,2 -3,-1 1,-3 0,-3 2,-2 1,-2 1,-3 3,0 2,-2 0,-3 2,-2 2,-2 2,-2 3,-1 1,-3 1,-3 3,2 0,-3 2,-1 3,0 0,-4 3,2 1,-3 2,1 3,-1 1,-2 3,1 1,-2 3,0 -2,-3 3,0 3,1 0,-3 2,-1 3,-1 3,0 2,-1 2,-2 3,-1 3,1 2,-2 1,4 3,-1 0,3 -2,2 0,3 1,3 3,-1 0,-3 2,-2 2,-2 4,-2 0,3 -1,2 0,3 -3,-1 0,3 -1,2 -3,1 -3,0 -2,2 -1,3 -1,2 -1,3 -3,3 0,-3 -3,1 -2,1 -3,0 -3,1 -4,0 -3,-2 3,-1 2,-1 3,0 3,-1 2,-2 2,1 3,-1 2,-2 -1,-4 2,-1 1,-2 -1,-3 0,-3 0,-3 -3,0 -1,2 0,3 1,3 -3,1 1,3 0,3 -3,-1 -3,1 -2,2 -3,0 -3,0 1,-3 2,-2 2,1 1,-3 3,1 0,-3 2,-2 1,-3 -4,0 -2,1 -1,2 -2,2 -3,1 -2,2 -2,1 -3,1 1,3 3,-1 0,4 -2,1 -1,2 0,3 -2,1 -3,0 -3,1 -2,3 0,3 -2,2 -1,3 0,3 -2,1 2,3 -3,1 -2,2 -2,2 0,3 -2,2 -2,2 -2,3 -2,2 -1,3 -3,-1 -2,2 0,3 -1,2 3,3 2,-3 1,-2 4,-2 1,-2 1,-3 2,-2 2,-2 3,0 0,-3 0,-3 2,-2"
       id="path52"
       inkscape:connector-curvature="0" />
    <path
       style="fill:none;stroke:#000000;stroke-width:1"
       d="m 251,97 3,0 1,-3 1,-3 0,-3 0,-3 2,-2 1,-3 0,-3 3,0 3,0 2,-1 2,-2 3,2 3,-1 1,3 -3,1 -3,0 -1,3 -3,-1 -3,0 -1,2 -2,3 1,3 -1,2 -1,3 0,3 -2,2 -1,3 -3,-1 0,3 0,3 -2,2 -3,0 0,3 -3,0 2,4 -3,0 -4,1 0,3 -2,1 -1,3 -2,1 -3,0 0,3 -2,1 -3,2 -3,2 0,3 0,4 -3,0 0,4 0,3 0,3 -4,-2 1,-3 -4,-2 -1,3 2,4 -2,2 -3,0 -3,-1 -2,2 -1,3 -3,0 -3,0 -1,4 -3,-1 -1,3 -3,-1 -3,1 4,3 -4,1 -3,0 -1,3 -4,1 -3,1 -3,1 -4,1 1,-4 -4,0 -2,2 -2,2 -3,1 -1,3 -3,2 0,-4 -4,1 0,-4 -4,0 0,4 -3,-1 -4,0 -2,2 -1,3 -4,-2 1,-4 2,-2 0,-4 -4,0 -3,1 0,-4 3,-1 4,0 1,-3 3,1 1,-4 -1,-4 3,0 3,-2 1,-3 3,1 3,0 3,-2 3,0 1,-3 1,-3 1,-3 2,-2 0,-4 0,-3 -4,0 -3,0 -1,3 4,1 -2,3 -1,3 -2,1 0,3 -3,2 -3,-1 -4,0 -2,3 -2,2 -4,0 -4,0 -2,2 -3,-1 1,-4 1,-3 0,-3 2,-2 2,-2 2,-2 2,-2 -1,-4 2,-2 2,-2 0,-3 4,2 0,-3 -4,-3 3,-1 2,-2 2,-1 1,-3 3,-1 1,-2 2,-2 3,-1 1,4 -2,2 -2,2 -2,2 -1,3 -3,0 -1,3 4,1 -2,3 -2,3 -3,0 -3,2 0,3 4,-1 1,4 -3,1 -3,0 -2,2 -2,2 -2,2 -1,3 4,0 3,-2 2,-3 4,0 3,0 1,-3 3,-2 -4,-2 1,-2 1,-3 2,-2 2,-2 0,-3 0,-3 2,-2 3,1 -1,4 0,4 3,0 1,-3 1,-3 0,-3 4,0 0,-3 3,-1 1,4 3,-2 0,-3 2,-2 3,-1 1,-3 1,-3 2,-2 3,0 2,-3 1,-3 -4,1 -2,1 -3,1 -4,-2 2,4 -3,0 -2,2 4,2 -2,2 -4,-1 0,3 -2,1 -3,0 -2,2 -2,3 -4,0 2,-3 0,-4 2,-1 3,-1 2,-2 2,-2 2,-3 1,-2 1,-3 2,-1 1,-3 -4,-1 1,-3 2,-2 2,1 1,-3 2,-2 3,1 -2,4 3,0 3,-1 1,-1 -2,-4 3,0 1,-3 1,-3 -1,-3 0,-3 1,-2 0,-3 2,-2 3,-1 -1,4 4,2 -2,2 -2,1 -1,2 1,3 0,3 -2,2 -1,3 0,3 0,3 -4,1 -3,1 -3,0 -3,0 0,3 0,3 4,-2 3,0 3,-1 2,-2 3,1 3,-1 -1,-3 0,-3 0,-3 2,-2 1,-3 1,-2 -1,-3 2,-2 2,-2 0,-3 -4,-2 1,-2 3,0 2,1 2,-2 2,-2 3,0 0,-3 2,-3 2,-2 3,0 3,-1 -1,-3 1,-3 2,1 1,4 2,-2 0,-3 -1,-3 1,-3 2,1 1,-3 2,-2 3,1 0,-3 2,-2 2,-1 0,-3 1,-2 0,-3 -1,-3 1,-2 1,-2 3,0 3,1 -3,3 -1,3 1,3 -1,3 3,0 3,0 -1,-3 -2,-3 1,-3 3,-1 0,-3 2,-1 1,-3 1,-2 3,0 0,-3 -3,-2 -2,2 -4,-1 1,3 1,3 -3,1 -3,0 2,-4 -2,-1 -2,2 -2,2 -2,2 -2,2 -1,3 -1,3 3,1 -2,2 1,3 -3,0 0,3 -3,-2 -2,1 2,3 -3,0 0,3 -3,1 -1,3 -1,2 -3,1 -1,3 0,3 -3,0 -2,-1 -1,3 -2,1 0,3 -2,2 -2,1 -2,2 -3,0 -3,0 -3,0 -3,1 -2,-3 2,-2 3,0 3,0 3,0 1,-1 1,-2 3,0 -1,-3 1,-2"
       id="path54"
       inkscape:connector-curvature="0" />
    <path
       style="fill:none;stroke:#000000;stroke-width:1"
       d="m 208,43 3,0 0,-3 2,-2 3,2 2,-4 -2,1 -3,-3 3,-1 2,-1 3,2 0,-3 2,-1 2,-2 -3,-2 3,-1 1,-2 2,-2 2,-1 3,0 -1,-3 1,-3 -3,0 -2,-3 -1,3 1,3 -3,1 -2,1 -1,2 -2,2 -1,3 -1,2 -3,0 -2,2 -3,0 -3,-1 -2,-3 0,-3 -3,0 -1,2 -3,0 -1,3 -2,-1 -3,-3 3,-1 2,-2 2,-1 3,-1 3,1 3,0 -1,-3 1,-1 1,-2 -1,-3 2,-2 3,1 3,-1 1,-2 2,-1 3,0 -1,4 -1,2 -2,1 -2,3 -1,-3 -3,0 0,3 0,3 0,3 -3,1 0,3 3,0 3,-2 1,-2 0,-3 3,0 1,-3 3,-1 1,-3 0,-3 2,-2 2,1 1,-3 3,0 0,3 0,3 3,0 1,-3 0,-3 3,0 2,-2 2,-2 -4,-1 -3,2 -3,0 -3,-2 -1,2 -4,0 -1,1 -3,0 -4,-2 -1,2 -3,3 0,-3 -1,-3 -4,0 2,3 -1,2 -2,2 -2,2 -1,2 -1,2 0,3 -3,-1 -2,2 -4,1 -2,2 -3,0 0,3 -3,0 -1,3 -2,2 -2,-3 2,-2 1,-4 2,-1 2,-2 3,0 3,-1 1,-2 3,-1 2,-2 0,-3 2,-1 3,-2 0,-3 -3,1 -2,1 -3,-3 -3,0 -2,2 -2,2 -1,-4 -3,1 -3,1 3,2 -2,2 -2,2 0,3 3,-1 2,-2 3,-1 3,0 2,-2 2,-1 0,4 -2,2 -4,0 -1,2 -2,1 -4,1 -3,0 0,3 0,3 -3,1 -1,3 -1,4 3,-1 1,3 -3,1 0,3 -3,-1 -1,2 -3,0 0,3 -3,-1 0,3 -3,-1 -1,2 0,3 4,0 0,3 -1,3 -2,3 -2,2 -1,3 -1,4 3,0 2,-2 0,-3 3,-3 2,-2 0,-3 1,-3 -1,-3 3,0 1,-1 0,-3 3,-1 3,-1 1,-3 2,-2 3,-1 2,-2 1,-2 3,1 1,3 3,0 -1,3 1,4 -2,2 -3,0 1,-3 0,-3 -3,-1 -1,3 -2,-1 -2,2 1,3 3,0 1,4 3,0 3,0 3,-1 1,-3 0,-3 0,-3 1,-3 1,-3 3,2 -1,3 -1,3 3,0 2,-3 3,1 -1,2 -1,3 -3,1 -2,1 0,3 -2,1 -2,2 -3,0 -3,1 -3,0 -1,3 -3,0 -3,0 0,3 0,3 -2,2 -2,2 -2,2 0,3 -2,2 -2,2 -2,2 -1,4 3,0 2,-2 2,-2 2,-2 2,-2 0,-3 2,-2 2,-2 1,-3 1,-3 3,0 0,3 -1,3 -1,3 0,3 -3,0 0,3 4,1 -1,3 -3,-1 -1,3 -2,-3 -2,2 -2,2 -2,2 -3,1 -2,1 0,3 0,4 -2,1 -2,2 4,1 -2,3 0,3 -3,3 -3,1 -3,0 -3,-1 1,-3 0,-3 3,-1 1,4 3,-1 0,-3 -2,-3 0,-3 -3,1 -2,2 -3,2 -2,2 0,3 1,4 -4,-2 0,3 -1,3 -3,1 0,-4 -3,1 -2,1 0,3 4,2 -3,2 -2,2 -3,2 0,3 -1,3 -1,2 -2,2 1,4 -2,2 -2,2 -2,2 -2,2 0,4 -1,3 -1,3 -4,1 0,-3 1,-3 1,-3 0,-4 1,-2 2,-2 2,-2 2,-2 0,-3 1,-3 1,-3 2,-2 -3,-3 3,-1 3,-1 1,-2 0,-3 0,-3 -3,-1 -2,2 0,3 -2,1 -2,2 -1,4 -1,3 0,3 -2,2 0,3 -2,2 -2,2 -2,4 0,3 -1,3 -2,1 -4,1 -3,0 -2,-4 1,-2 4,2 3,-2 -4,-2 1,-3 3,1 2,-2 1,-4 2,-2 1,-3 2,-3 -3,-1 1,-4 3,1 1,-3 -3,-2 3,-2 2,-1 2,-2 1,-3 2,-2 0,-3 3,-1 2,-2 2,-2 3,-1 1,-3 2,-2 2,-2 2,-3"
       id="path56"
       inkscape:connector-curvature="0" />
    <path
       style="fill:none;stroke:#000000;stroke-width:1"
       d="m 148,80 2,-2 1,-2 3,-1 1,-2 4,1 -2,-3 2,-1 4,0 0,3 0,3 0,3 -4,-1 -1,2 -3,-1 -2,2 -2,2 -1,2 -2,2 -2,2 -1,3 -2,2 -2,1 -2,2 -4,2 3,1 4,0 3,-1 2,-2 2,-1 0,-3 2,-2 2,-2 2,-2 1,-2 2,-1 3,0 2,-2 2,4 2,-2 0,-3 0,-3 0,-3 0,-3 0,-3 2,-1 2,-2 2,-2 1,-3 2,-3 2,-2 1,-2 0,-3 2,-3 3,-1 3,0 -2,-4 -3,1 -1,-4 -3,1 0,3 0,3 -3,0 0,3 -1,1 0,3 -2,2 -1,2 -2,1 0,3 -2,2 -3,2 -3,0 -2,1 -4,-1 0,-3 1,-1 1,-3 1,-3 0,-3 2,-2 2,-2 1,-2 -4,-1 -2,2 -2,2 -1,4 -1,1 0,3 -2,2 0,4 2,4 -1,2 -2,2 -3,1 -1,3 -2,2 -1,2 -2,2 -2,2 -1,3 -3,1 -1,-4 1,-2 2,-2 1,-3 1,-2 3,-1 0,-3 2,-1 3,-1 2,-2 -1,-4 -3,1 -1,2 -3,0 -3,-1 0,3 0,3 -3,0 -4,2 3,1 0,3 -3,0 0,3 -1,3 0,3 -1,2 4,2 -2,2 -4,-1 0,3 -1,3 -1,3 -2,2 -2,-4 -3,-1 -3,1 -4,0 1,-3 2,-2 0,-3 1,-2 4,-1 0,3 -1,3 4,2 1,-3 0,-3 2,-2 0,-3 1,-2 1,-3 -3,-2 2,-2 1,-2 0,-3 3,-1 1,-2 3,0 0,-3 0,-3 -1,-3 0,-3 4,1 2,-2 2,-2 0,-3 1,-1 1,-3 2,-2 0,-3 -3,1 0,-4 0,-3 3,-1 0,-3 0,-3 1,-2 0,-3 4,0 3,-2 1,3 -1,3 -3,-1 0,3 -1,3 -1,3 -2,3 2,1 3,-2 1,-3 1,-2 2,-2 2,-2 2,-1 3,-1 3,-2 -1,-3 3,0 0,-3 1,-3 0,-3 -3,1 -2,1 0,3 -2,3 -1,3 -3,0 0,-3 2,-3 1,-3 -3,0 -3,0 1,3 -2,1 -3,1 -4,1 1,-2 0,-3 3,0 -1,-3 2,-1 3,-1 3,1 3,-1 3,-1 3,0 2,-2 3,2 3,-1 0,3 -3,1 1,3 -1,3 -1,3 -1,3 -2,3 -2,1 -1,3 -2,-1 -3,2 -2,2 0,3 -2,1 0,3 -3,0 -1,2 -2,1 0,3 -3,1 0,3 -1,3 -1,2 -2,2 -2,2 -3,1 3,2 4,-2 3,-1 2,-2 0,-3 1,-3 2,-2 1,-3 2,-2 3,-1 1,-2 1,-3 1,-3 1,-2 3,1 3,-2 1,-2 3,0 -1,-3 2,-1 0,-3 1,-2 0,-3 3,0 -1,-3 1,-2 1,-2 0,-3 1,-3 1,-2 0,-3 -3,0 -2,2 1,3 -4,-1 0,-4 -3,1 -1,2 -3,1 0,-4 -3,1 0,3 -2,2 -3,0 1,-4 -2,1 -3,-3 -1,3 1,3 -3,0 -3,-1 1,-3 -3,-1 -2,2 -3,0 0,-3 -4,0 1,4 0,3 0,3 -1,3 -1,3 -2,1 -3,1 -3,-1 -1,3 -2,-1 0,-4 -3,1 -2,2 -3,0 -2,2 -1,3 -1,3 -1,2 -1,3 -2,2 -3,1 0,-4 2,-2 0,-3 2,-2 -4,-2 2,-2 3,1 0,-3 2,-1 2,-2 3,0 1,-2 3,0 -1,-3 1,-1 3,-1 3,0 3,0 -1,3 -4,0 1,3 3,1 3,-1 1,-3 0,-3 0,-3 0,-3 -4,-1 1,3 -3,0 -3,1 0,-4 -2,1 -2,3 -3,1 1,-4 -3,0 -2,2 -3,-2 -2,2 -1,3 3,0 3,0 3,2 -2,2 -3,0 -1,2 -2,-1 -1,3 -3,1 -1,2 -3,1 -3,0 -2,1 0,3 -1,2 -2,3 0,3 -2,2 -2,2 0,4 -2,2 -2,2 -3,1 -2,2 0,3 -2,2"
       id="path58"
       inkscape:connector-curvature="0" />
    <path
       style="fill:none;stroke:#000000;stroke-width:1"
       d="m 77,50 -3,0 0,3 -1,3 -1,4 -1,2 -1,3 -3,1 0,4 3,-1 3,-1 1,-3 2,-3 0,-3 2,-2 0,-3 3,-2 3,0 -1,-3 1,-2 3,1 0,-3 2,-2 2,-2 2,-2 -2,-3 3,-2 2,-2 0,-3 1,-2 2,-2 0,-3 3,-1 1,3 0,3 -2,2 0,3 -1,2 -1,2 -3,1 1,3 -2,3 -2,2 -2,2 0,3 -2,2 -1,2 -3,2 -3,0 0,3 -2,2 0,3 -2,2 0,3 -3,2 -1,3 -3,-1 -3,1 -4,-2 -1,-4 0,-3 0,-3 3,0 1,-2 1,-3 2,-2 0,-3 -3,-1 -2,2 -1,3 -2,1 -2,2 -1,3 -3,0 -2,1 -1,3 -3,0 -2,2 -3,-3 -2,2 0,3 -3,2 0,3 -1,4 -2,2 -1,3 -1,2 0,4 -2,3 -3,1 -2,-4 3,-1 0,-3 0,-4 2,-2 1,-3 2,-2 -1,-3 1,-3 3,-1 1,-4 1,-3 0,-3 0,-3 3,-1 1,-2 2,-2 3,0 0,-3 -4,-1 0,-3 3,-1 3,-1 0,4 3,-1 1,-4 -2,-1 3,-3 2,-2 0,-3 3,-1 -1,-3 1,-2 3,1 2,-2 0,-3 2,-3 2,4 2,-2 0,-3 2,-2 3,1 -1,3 -1,3 -1,3 -4,0 1,3 -3,0 -2,2 -1,2 -2,2 -2,2 -2,3 -1,3 0,3 -1,3 -3,0 0,3 -2,2 -3,1 -2,2 -2,2 -1,3 2,1 3,0 1,-3 2,-2 3,1 1,-3 2,-2 2,-1 1,-3 2,-2 -1,-3 0,-3 2,-2 2,-2 2,-2 2,-2 2,-1 3,0 0,-3 2,-2 2,-2 0,-3 1,-3 2,-2 1,-1 0,-3 1,-2 2,-2 1,-3 3,0 3,-1 3,2 0,3 -3,-1 -3,1 -1,2 -2,2 0,4 -1,3 -3,0 0,3 0,3 -2,2 -2,2 0,3 -2,2 -2,1 -3,0 -1,2 -1,3 -2,-1 -2,2 0,3 3,2 2,-2 3,0 0,-3 2,-2 3,-1 2,-2 2,-2 0,-3 2,-3 2,-2 0,-3 2,-2 1,-3 0,-3 2,-2 2,-2 2,1 3,0 1,-3 3,1 1,-3 -5,-2 2,-1 2,-2 0,-3 -3,1 -3,0 -2,1 -3,-3 -2,2 -3,0 -4,-2 1,3 -1,3 -2,2 -2,1 0,3 -2,1 -2,-4 -2,2 -3,0 0,3 -3,-1 -1,2 -2,2 -2,2 0,3 -4,-1 -1,3 -1,3 -2,2 0,3 -1,3 -3,1 -1,-4 1,-2 1,-3 0,-4 2,1 1,-3 -4,-2 2,-2 3,0 3,1 1,-3 2,-1 2,-2 0,-3 3,0 2,-2 3,0 1,-3 3,2 3,-1 2,-2 -1,-3 -4,2 -3,-2 -3,2 -2,2 -2,-4 -3,0 2,4 -2,1 -2,2 -1,3 -2,-1 -1,3 -3,1 0,-3 1,-4 3,-1 2,-3 -3,-2 -2,2 -4,-1 0,3 1,3 -2,3 1,4 -3,-1 -1,3 -2,-1 -2,2 -2,2 0,3 -4,-2 2,4 -3,0 -3,1 0,3 4,0 3,0 3,-1 1,-3 1,-3 3,-1 0,3 0,3 -1,3 -2,2 -3,0 -3,1 -3,0 -3,0 -2,-1 -2,2 -3,-2 1,-3 2,-2 1,-3 2,-2 1,-2 2,-2 3,-1 2,-2 1,-2 3,-1 2,-2 2,-2 -1,-3 0,-3 -3,1 -2,1 1,3 -2,2 -2,-4 0,-4 -4,2 -3,-1 -2,2 -2,2 -2,-4 -2,2 -3,-3 -3,1 -4,0 0,3 0,3 -2,2 -1,2 0,3 L 8,16 6,13 7,11 7,8 9,6 10,4 10,1 6,2 2,0 0,2 4,4 4,7 2,9 l -1,3 3,3 -2,2 4,2 -2,2 -3,1 3,3 -2,2 0,4 4,2 -2,2 -2,2 0,5 3,-1 1,-2 2,-2 2,-3 3,-2 3,-1 0,-3"
       id="path60"
       inkscape:connector-curvature="0" />
    <path
       style="fill:none;stroke:#000000;stroke-width:1"
       d="m 16,28 0,-3 2,-2 3,0 2,-3 0,-3 3,-3 -2,-3 -2,2 -2,2 -1,3 -1,1 -3,1 -2,3 -1,3 -1,2 -2,2 -3,0 1,-4 1,-3 2,-2 1,-3 3,-2 2,-2 0,-3 3,-1 -1,-3 0,-3 4,1 0,3 4,-1 1,3 3,-1 2,-2 2,-2 3,1 0,3 -1,3 -2,-1 -1,3 -3,-1 0,3 -3,1 0,3 -1,3 -2,2 -1,3 -3,-1 0,3 0,3 4,0 3,3 -2,1 -2,2 -2,2 0,3 -2,1 -2,2 -1,3 0,3 -1,3 -3,-3 -2,2 -4,-1 1,-3 2,-2 3,0 1,-3 1,-3 2,-2 2,-2 2,-3 -3,-1 -3,1 -1,2 -2,2 -1,3 -2,2 -3,0 -1,2 -1,3 -2,2 3,4 -1,2 -1,3 1,4 3,-1 1,-3 1,-3 4,1 -1,3 0,3 -2,2 -1,3 -4,-2 -1,3 3,2 -1,3 -4,-2 2,5 -1,3 0,4 0,3 0,4 0,7 2,-2 2,-2 4,-2 0,-3 -4,1 0,-4 0,-4 1,-3 2,-2 1,-3 1,-2 1,-3 2,-2 2,-1 4,0 0,3 -2,2 -3,1 -1,4 0,3 -2,2 -2,2 0,3 4,2 1,-3 2,-2 3,0 2,-1 1,-3 -5,-1 0,-3 3,0 2,-2 2,1 2,-3 -3,-2 0,-4 3,2 1,-3 0,-4 3,0 -1,-4 3,-2 0,-3 1,-2 0,-3 3,0 0,-3 1,-2 0,-3 -4,1 -1,3 -3,1 -1,2 0,3 0,4 -2,1 -1,3 -2,2 0,3 -3,1 -3,0 -3,0 0,-4 4,0 0,-3 3,-1 2,-3 -4,0 0,-3 3,-1 3,1 -1,-4 1,-3 2,-2 2,-1 1,-3 3,0 2,-1 3,0 3,-1 3,0 3,-1 0,4 -3,1 -3,0 0,3 0,3 0,3 -1,3 -3,1 -1,4 0,3 -3,1 3,3 -2,2 -3,1 0,3 -1,3 -1,3 -1,3 -2,2 0,3 -1,3 -2,3 -4,0 -2,2 -1,3 -2,1 -1,3 -3,0 -2,2 -2,2 -2,2 -2,2 -2,4 0,6 3,-2 1,-3 2,-2 2,-2 2,-2 2,-2 3,1 1,-2 2,-2 2,-2 1,-2 1,-3 3,0 1,4 -1,3 -2,2 -2,2 -2,3 3,1 -1,4 -1,3 -2,2 -1,3 -1,3 -3,1 -2,-4 2,-2 1,-3 2,-3 1,-3 -4,-1 -2,3 -2,2 -1,3 -2,2 -3,2 -2,2 2,4 3,-2 2,-2 2,4 -3,2 0,4 -3,2 -1,-4 -4,0 1,6 2,5 2,-3 4,-1 0,4 -2,3 -2,2 -2,1 -1,4 4,0 -1,4 -2,3 -1,4 1,4 1,4 -1,4 4,1 2,-2 -1,-4 0,-3 -2,-4 2,-3 1,-4 1,-4 0,-3 2,-3 1,-4 2,-1 1,-3 -4,-2 4,-2 -4,-2 3,-2 2,-1 3,0 2,4 -2,2 0,4 4,-2 0,4 -4,2 -3,2 -2,3 -1,3 5,0 2,-3 3,3 -1,3 -4,1 -2,1 -4,0 0,4 -2,3 1,4 1,4 1,4 -1,3 -2,3 -4,-1 -4,0 2,4 -2,3 0,5 4,0 1,-3 2,-3 2,-1 4,-2 3,-1 4,-2 1,4 3,-2 2,-1 4,-1 2,-3 1,-3 2,-2 4,1 -1,4 2,4 -4,-1 -1,3 -4,1 -2,2 -4,1 -4,1 -4,-1 -3,1 -2,3 -2,1 -2,3 -1,4 -4,-3 -2,2 -3,1 4,4 -1,3 -2,3 0,6 -1,4 4,2 2,-3 4,1 0,4 -1,3 -4,0 -4,0 -1,5 0,10 3,-3 2,-3 0,-4 4,0 4,-1 1,5 -3,1 -2,3 -1,4 -3,1 0,4 -4,0 0,7 4,-1 3,1 3,-2 -1,-5 3,-3 1,-4 4,-2 0,-4 2,-3 3,-3 2,-3 0,-4"
       id="path62"
       inkscape:connector-curvature="0" />
    <path
       style="fill:none;stroke:#000000;stroke-width:1"
       d="m 26,221 2,-1 3,-2 0,-4 4,-1 1,4 0,4 -3,2 1,5 -3,-1 -2,3 -3,3 -2,3 0,5 -2,3 -3,1 -1,4 -2,3 1,4 -3,2 -3,2 -5,-2 -2,4 -1,7 2,-1 5,2 -1,-5 3,1 4,-2 3,-2 3,-3 0,-4 0,-4 3,-2 3,-2 0,-4 1,-5 2,-3 3,-2 4,-1 0,-5 2,-4 4,-1 4,0 2,-2 4,-3 1,4 -2,4 -3,2 -4,0 -4,1 0,4 0,4 -4,1 -3,2 -3,4 4,2 -3,3 -1,4 -3,2 -2,2 0,5 -3,4 4,2 4,1 -2,5 -3,3 -2,4 -3,2 -5,2 0,-4 3,-4 2,-3 3,-3 -5,-2 -4,2 0,5 -4,1 -2,1 -4,-2 -3,2 1,6 4,-1 4,0 0,5 0,5 -5,-4 -4,1 2,5 5,1 0,5 -4,0 -4,2 4,5 0,5 -2,4 -3,4 2,10 3,-2 1,-5 2,-5 3,-4 4,-1 5,2 2,-4 4,1 0,-5 2,-3 0,-5 4,-2 3,-2 2,-3 2,-3 2,-3 4,0 -3,-5 3,-1 4,0 0,-4 2,-3 1,-4 3,-2 0,-4 3,-2 3,3 2,-3 0,-4 -5,-1 -4,-1 -2,3 -2,2 -1,4 -2,2 -1,4 -4,-1 1,5 -3,1 -3,3 -1,4 -2,3 -2,3 -3,3 -3,3 -5,0 2,5 -2,3 -2,3 -3,3 -7,0 2,-2 3,-4 2,-4 0,-4 0,-5 5,0 3,-1 3,-2 2,-4 2,-4 2,-4 3,-3 1,-4 4,-3 2,-3 2,-3 2,-4 2,-3 3,-2 4,2 4,0 3,1 4,-1 0,-4 4,0 4,0 -1,-4 3,-2 2,-5 -4,0 -3,2 -2,4 -4,0 -3,4 -4,0 1,-5 3,-3 4,-1 -1,-4 4,0 3,-2 4,0 4,2 2,-3 1,-3 2,-2 2,-1 0,-4 2,-2 2,-3 2,-1 2,-3 5,-2 1,-3 1,-3 2,-2 3,-2 0,-3 -5,1 -4,0 0,4 -4,-2 -2,3 4,2 -1,3 -4,1 -2,-4 -2,-4 1,-3 2,-2 4,-1 4,-1 4,0 2,-2 2,-1 0,-4 2,-3 -4,-2 -2,2 -2,2 -1,3 -3,1 -4,0 -2,2 -4,0 -2,2 -2,2 -4,1 -4,0 0,4 -4,0 -1,3 -1,4 3,1 3,-4 2,4 -2,4 -3,1 -1,3 -4,-2 -1,3 -3,2 0,4 4,1 2,-3 4,1 2,-2 2,-3 2,-3 2,-3 0,-4 -1,-4 0,-3 4,-1 1,4 0,4 4,2 -2,3 -2,2 -1,3 -2,3 -2,2 -1,4 -2,1 -5,-1 -4,2 -4,0 -3,1 0,4 -2,3 -3,1 -4,0 0,4 4,1 -3,3 -5,-1 -2,2 -3,1 0,4 -2,3 -2,5 -3,3 -5,2 0,-4 2,-3 3,-3 1,-4 1,-4 1,-4 4,-2 4,-1 -1,-4 0,-3 4,0 4,0 2,-2 0,-4 3,-2 -2,-5 2,-2 2,-3 2,-3 4,-1 -3,-4 1,-4 1,-4 -4,1 -2,3 -1,3 0,4 -3,2 -2,2 -5,0 -2,2 -3,2 -4,1 -1,-4 3,-2 2,-2 4,-1 3,-1 3,-2 1,-4 -4,0 1,-4 -4,-2 -1,4 0,4 -3,1 -4,0 -2,3 -2,2 -4,-2 2,-4 2,-3 3,-1 3,0 1,-4 2,-4 -4,0 -3,3 -4,0 -2,2 -2,2 0,4 -2,3 0,4 -4,0 1,4 -3,1 -2,3 0,4 -1,4 -4,1 0,-4 0,-4 0,-4 2,-3 2,-2 3,-4 2,-2 1,-4 1,-4 -4,0 -2,3 -2,3 -1,3 -3,2 -2,3 -2,4 -5,-2 2,-3 2,-3 -1,-4 4,0 2,-3 1,-3 3,-2 2,-3 4,0 4,2 2,-3 4,1 2,-1 1,-4 4,2 1,-3 3,-1 2,-3 3,1 0,4 -3,3 3,1"
       id="path64"
       inkscape:connector-curvature="0" />
    <path
       style="fill:none;stroke:#000000;stroke-width:1"
       d="m 51,190 1,4 4,0 2,4 2,-4 3,0 0,-4 -3,-1 -4,1 -1,-4 1,-3 -2,-4 2,-2 -1,-4 2,-2 2,-2 3,1 1,4 0,3 -3,0 0,4 4,1 -3,3 4,2 3,-2 0,-4 4,0 4,1 2,-2 3,-2 4,-1 2,-2 0,-4 2,-3 3,-2 2,-2 0,-4 -4,0 -2,1 -1,3 -2,2 -2,2 -1,3 -1,3 -4,1 -3,1 -2,1 -4,0 -1,-4 2,-2 4,0 4,0 0,-3 2,-2 2,-3 2,-3 2,-3 3,-2 2,-2 1,-3 -1,-4 4,0 1,-3 2,-2 -1,-4 -4,-2 1,4 -2,3 -4,0 -1,4 0,3 -1,3 -4,1 -1,3 -2,3 -2,3 -3,1 -1,3 -3,1 -4,1 0,-4 -4,0 -2,1 -4,-2 -1,3 -2,2 -2,2 1,4 -2,3 -4,-1 2,-4 -3,-3 2,-3 2,-2 2,-2 1,-3 4,0 2,-1 4,2 0,-4 1,-3 -1,-4 -3,1 -1,4 -3,-1 -3,2 -4,1 -2,3 -2,2 -2,2 -1,3 -3,1 -4,2 -2,3 -1,3 -4,0 -4,0 -4,2 0,-4 -1,-4 -1,-4 1,-3 1,-3 4,1 1,-3 4,-1 1,-3 3,-1 0,-4 -4,0 -3,-3 3,-1 4,0 3,-1 1,4 3,3 -3,1 0,4 -3,2 -1,3 -4,0 -2,4 -2,2 -2,1 1,4 4,0 2,-3 2,-3 3,-1 3,-2 1,-3 2,-2 2,-2 2,-1 4,-2 3,-2 4,-2 1,-3 -1,-4 -3,2 -1,3 -4,-1 -1,3 -2,2 -3,-3 -2,-4 2,-4 2,4 3,-2 2,-1 1,-3 3,1 3,-1 2,-1 1,-3 1,-3 -4,-1 -2,3 -3,1 0,-4 1,-3 3,-1 3,0 3,-3 2,-2 3,-2 2,-2 3,-1 2,-1 4,0 1,3 3,-3 1,-2 0,-4 -4,-1 -1,3 -3,0 -4,0 1,-3 2,-2 2,-2 3,1 4,0 1,-3 -4,-1 1,-3 1,-3 -4,-1 -1,3 -1,3 -4,1 -2,3 -2,3 -1,3 0,3 -3,1 -1,3 -3,-1 -1,3 -1,3 -4,-3 -1,3 -3,2 -2,3 0,4 -1,3 -1,3 -4,-1 0,-3 -3,-1 -1,4 1,4 -4,0 -4,1 0,-4 3,-1 1,-4 -3,0 -3,1 -2,-4 1,-3 -4,-1 2,-3 2,-2 3,0 0,4 1,4 4,0 -1,-4 0,-4 2,-1 1,-3 0,-3 1,-4 2,-3 -1,-4 -3,1 -1,3 -1,3 -1,3 -1,3 -4,1 0,-3 1,-3 0,-3 2,-2 1,-4 2,-2 3,-1 2,-2 2,-2 0,-4 1,-3 1,-3 2,-2 0,-3 1,-3 2,-2 2,-2 3,2 2,-2 2,-1 2,-2 2,-2 2,4 -1,3 -3,1 0,3 4,0 4,-1 -1,3 -3,2 -1,3 -3,-3 -1,3 0,3 -1,3 -3,0 -4,-2 1,-3 3,1 -1,-4 2,-2 1,-3 -4,-1 -2,2 -1,3 -2,4 -1,3 0,3 -2,2 0,4 -2,2 1,4 4,2 3,1 1,-3 0,-3 -4,1 1,-4 1,-3 2,-2 4,2 -2,3 3,2 -1,3 1,4 -2,2 -4,1 -3,1 -3,-3 -2,2 -1,3 4,1 -1,3 -3,1 -1,3 -2,3 1,4 4,2 -1,-4 2,-2 1,-3 3,-2 1,-3 2,-2 3,2 1,-3 3,-1 2,-2 2,-1 -3,-4 1,-3 3,3 1,-3 2,-2 2,-2 3,-1 1,-2 1,-3 2,-2 2,-2 3,3 2,-2 2,-3 -4,0 0,-3 -4,0 -2,1 -2,2 -2,2 -1,3 -2,2 -2,1 -2,4 -4,0 0,-3 3,-1 -1,-4 3,-1 2,-2 1,-3 2,-2 2,-2 2,-2 3,1 3,0 2,-2 0,-3 2,-1 3,0 4,-1 -1,3 -3,2 0,3 -3,1 3,3 3,-1 1,-3 2,-2 2,-2 -1,-3"
       id="path66"
       inkscape:connector-curvature="0" />
    <path
       style="fill:none;stroke:#000000;stroke-width:1"
       d="m 91,72 1,-3 3,-1 1,-2 3,-2 1,-2 0,-4 -3,-2 -1,3 -1,3 -2,-1 -2,2 -1,2 -2,2 -3,1 -3,0 2,-4 2,-2 1,-2 2,-2 3,-1 1,-3 2,-2 0,-3 2,-2 1,-3 3,0 0,-3 1,-2 2,-2 2,3 0,3 -1,3 -2,2 -2,1 -2,2 0,3 4,-2 0,4 3,0 1,-2 0,-3 1,-1 1,-3 1,-3 0,-3 1,-3 -3,-1 3,-2 3,-1 0,-3 3,1 -1,-4 1,-2 0,-3 2,-1 3,-1 3,3 -2,1 -2,2 0,3 -1,1 1,3 -2,2 -2,1 -2,2 0,3 -1,2 0,3 -2,2 0,3 0,3 -1,2 4,-1 1,-3 1,-3 1,-2 1,-2 0,-3 1,-2 2,-2 2,-2 2,-2 -1,-3 0,-3 2,-1 2,-2 0,-3 2,-1 2,-2 4,1 1,-3 1,-3 1,-2 1,-3 -1,-3 3,0 3,0 -1,3 -1,3 -1,3 -1,3 -1,2 1,3 -4,0 -3,0 -2,2 -1,3 -2,2 -1,2 1,3 -2,2 -2,3 -2,2 0,3 -1,2 -1,3 -2,2 -1,3 0,3 -3,1 -3,1 2,3 -2,1 1,3 -3,1 0,3 -3,0 0,3 -1,3 -2,2 0,3 4,-1 2,-2 3,0 -2,-4 3,0 0,-3 2,-2 2,-2 0,-3 0,-3 3,-1 1,-3 0,-3 2,-3 2,-2 1,-3 1,-2 0,-3 2,-2 2,-2 2,-1 -1,-3 0,-3 2,-3 2,-1 3,-1 0,3 -3,2 0,3 1,3 -1,3 1,3 -4,-1 -2,2 0,3 4,-1 0,3 -2,2 -3,-1 -2,2 -1,3 -2,1 -1,3 4,0 0,3 -3,1 -1,2 -3,0 0,3 -1,3 -2,2 0,3 -2,2 4,1 -1,4 -3,-2 -2,2 -3,0 -3,2 -2,1 -3,0 -3,1 -3,-1 0,4 3,0 4,0 4,0 -2,3 -3,1 -3,1 -2,-1 0,4 -3,3 0,-3 -1,-4 -3,1 -3,-1 -1,-4 3,1 3,-1 0,-3 0,-4 3,-1 3,0 0,-3 1,-3 2,-2 0,-3 1,-3 2,-2 2,-2 0,-3 0,-3 -4,1 -1,1 0,3 -2,3 -2,2 -1,2 0,3 -4,-2 1,3 1,3 -3,1 -2,2 -1,3 0,3 -3,0 -3,1 0,3 -3,1 4,3 -3,1 0,3 4,0 3,0 3,1 0,3 -4,0 -3,0 -2,2 0,3 0,3 0,3 -1,3 -3,2 -2,3 -1,3 -1,3 -3,1 -1,3 0,4 -2,2 -5,2 0,-3 2,-2 1,-3 0,-4 0,-3 4,0 1,-3 1,-3 -4,0 -2,2 -3,2 -2,2 -3,2 4,2 -2,2 -1,3 0,4 0,3 -3,0 1,4 4,0 2,4 2,-4 2,-1 2,-2 3,0 4,1 -1,3 -3,1 -2,2 -3,0 1,4 -4,0 0,4 -1,3 4,2 1,-4 3,0 1,-3 2,-1 1,-4 4,0 1,-3 0,-4 1,-3 3,-2 3,0 -2,-4 1,-3 3,-1 3,-1 1,4 3,-1 1,-3 3,-1 2,-3 -4,-2 -2,2 -3,1 -2,-4 -2,1 -1,3 -3,-1 -2,2 -1,3 -1,4 -2,2 -2,2 -3,1 0,-4 1,-3 3,-2 1,-4 1,-3 2,-2 3,-1 1,-3 1,-3 3,-2 -4,-2 1,-3 3,1 3,-1 3,0 2,-2 2,-2 2,-2 2,-2 3,1 0,3 -2,2 -2,2 -2,2 -2,2 -2,2 -3,-2 1,4 -3,1 -2,2 4,2 3,-1 4,2 4,2 3,-1 1,-4 -3,-1 -2,2 -4,-2 2,-3 3,-1 1,-3 3,-2 2,-2 0,-4 3,0 3,-1 1,4 -3,1 0,3 -2,2 -3,1 0,3 4,0 0,4 -2,2 0,4 -2,2 -4,0 -2,2 0,3 -4,0 0,4 -2,1 1,4 3,1 -3,3"
       id="path68"
       inkscape:connector-curvature="0" />
    <path
       style="fill:none;stroke:#000000;stroke-width:1"
       d="m 101,145 -2,2 -1,3 -3,0 0,4 -2,2 4,2 2,-4 2,4 2,-3 0,-3 1,-3 1,-3 4,0 4,0 3,-1 0,4 -4,1 -4,0 0,3 -1,3 -2,3 -1,3 -4,0 -2,2 0,4 4,0 2,-2 4,0 1,-3 1,-3 2,-2 1,-3 2,-1 3,-1 4,0 3,0 0,4 4,-1 3,0 4,-2 0,3 -3,3 -4,0 -3,1 -1,4 -2,2 -2,3 -4,-2 1,-3 2,-2 2,-2 -1,-4 -3,1 -2,2 -2,3 -1,3 0,4 -2,1 -3,0 -3,1 -4,0 -3,2 -2,-4 -2,2 -2,1 -2,3 5,1 -2,3 -2,1 -4,0 -3,1 -3,2 -4,2 -4,0 -2,2 -2,3 -2,3 4,2 2,-3 3,-2 3,1 2,-2 2,-2 4,-1 2,-1 4,-1 4,-1 1,-3 2,-2 2,-2 3,-1 4,-1 0,4 4,1 0,-4 3,-1 2,-2 3,1 0,4 -4,1 0,4 -2,2 -2,2 -1,3 0,4 4,0 1,-3 2,-2 2,-2 0,-4 3,-1 1,-4 0,-4 1,-3 4,2 -1,3 0,4 0,3 -2,3 -2,2 -1,4 -2,2 -2,3 -3,2 -3,0 1,4 -4,0 -1,3 -2,2 -2,3 0,4 -4,-2 -2,3 -2,3 -2,2 -2,2 0,4 -3,2 -2,3 0,4 -2,1 -2,2 -3,2 -1,4 0,4 4,-1 2,-3 3,-1 2,-2 2,-3 0,-4 1,-3 4,0 0,4 5,-1 3,-1 0,-4 1,-4 -4,0 -2,4 -4,-3 3,-2 2,-4 2,-2 4,1 2,-3 0,-4 2,-2 2,-2 2,-1 2,-4 3,-2 2,-2 2,-3 2,-3 1,-3 2,-2 1,-3 2,-3 3,1 -1,4 -1,4 -1,3 -2,2 -2,3 -1,3 3,3 2,-4 3,-2 3,-1 0,5 -2,2 -2,2 -2,3 -2,2 -1,3 0,3 0,4 -4,0 -4,1 -4,0 2,-4 5,-1 0,-4 1,-3 2,-4 -3,-3 -2,3 -2,1 -1,3 1,4 -4,-2 -1,3 -2,2 -1,3 -4,2 2,5 3,-2 3,1 1,4 -3,1 -4,0 -1,3 -3,3 -4,0 -2,3 -3,-1 -2,3 -2,3 -4,2 -2,3 -2,2 -5,-1 -1,4 4,2 4,0 3,-2 3,-1 0,-4 4,0 2,-3 2,-2 4,1 0,-4 4,0 2,-3 3,-2 2,-1 4,-2 2,-3 -1,-4 3,-1 4,-1 0,4 -2,3 -1,4 -1,4 -3,-1 -2,3 -4,0 -2,4 -3,1 -1,4 4,2 3,-1 1,-4 3,-2 4,-2 4,-2 2,-2 0,-4 2,-2 1,-3 0,-4 2,-1 4,0 3,-2 1,-3 2,-2 2,-3 -4,-2 -3,1 -1,3 -2,3 -4,0 1,-4 1,-3 2,-3 2,-2 2,-2 2,-2 -1,-4 2,-1 3,-2 1,4 4,-1 -1,-4 3,-1 4,-2 1,-3 4,1 1,4 -2,2 -4,0 -2,3 4,2 3,-1 4,-1 3,0 -2,-4 3,-1 1,-3 2,-2 4,0 4,-1 -1,4 -4,1 -2,3 -1,3 1,4 -3,1 -1,4 -3,-1 0,-4 -4,1 -4,1 -3,2 -1,-4 -4,0 -1,3 -4,-2 -2,5 3,1 3,0 4,0 0,4 -3,1 -1,3 -2,2 0,4 -2,1 -3,2 -3,2 -4,0 0,5 4,-1 4,-1 3,-2 4,0 2,-3 0,-4 2,-1 1,-3 3,-1 -1,-4 1,-3 3,-2 3,1 -2,4 0,4 4,0 1,-3 2,-2 3,1 1,4 -3,2 -4,2 -4,0 1,4 -4,-2 -1,3 -2,2 -2,3 -4,2 -3,2 -3,1 -5,0 -2,3 -4,-3 0,4 -2,2 0,4 -4,-2 -3,2 -2,2 -3,1 -1,4 5,0 4,0 2,-3 3,1 4,-1 0,-4 2,-2 3,-1 2,-3 4,2 2,-2 3,-2 3,-2 3,-1"
       id="path70"
       inkscape:connector-curvature="0" />
    <path
       style="fill:none;stroke:#000000;stroke-width:1"
       d="m 162,240 2,-2 2,-3 4,-1 2,-3 2,-1 3,-2 3,-1 2,-1 2,-4 -3,-1 4,-3 -4,-2 -3,-1 0,-4 4,0 3,3 2,-3 2,-1 2,-2 2,-3 3,2 -1,3 -2,3 -3,2 -1,3 0,4 4,-2 2,-3 3,-3 2,-2 1,-4 1,-3 -4,-1 3,-3 4,2 0,-4 4,2 1,-3 3,-2 3,-1 3,-1 4,1 3,-1 3,-1 1,-3 -1,-4 -3,1 -2,2 -2,2 -4,-1 -3,-1 -2,2 -3,0 -1,3 -3,-1 -2,2 -3,2 -4,0 -1,3 -3,1 -4,0 -1,3 -3,2 -4,1 0,-3 1,-3 3,-1 3,-3 0,-3 4,2 1,-3 -1,-4 -3,1 -3,-1 -4,-2 -2,2 -4,0 -4,0 -2,2 -1,3 -3,-4 2,-4 4,-1 4,0 2,-2 4,0 3,-2 3,0 -2,4 4,0 2,-4 3,-3 0,4 -1,3 2,4 1,4 3,-1 2,-2 4,-1 2,-3 3,0 0,-4 2,-2 3,-1 2,-2 3,-1 1,-4 3,2 1,-3 3,-2 3,1 -2,3 -1,3 -4,2 -4,2 -4,3 -2,2 5,1 2,-2 3,-2 4,0 0,-3 4,-1 1,-3 2,-2 0,-3 3,-1 1,4 1,4 -3,1 0,3 -3,1 -2,2 0,4 4,-1 2,-2 4,0 -1,-4 4,2 4,2 -3,2 -2,2 -3,1 -2,2 -3,-1 -2,2 -2,2 -3,2 2,4 -2,2 -4,0 1,-4 -3,0 -3,0 -4,0 -3,2 4,2 4,0 -1,4 -1,3 -2,2 -2,4 -3,-1 -1,3 -3,2 0,4 -3,2 1,4 -4,0 -3,2 -3,2 -1,3 -2,2 -4,1 -3,1 -2,3 4,2 -4,2 -4,0 -2,2 2,4 -1,4 -2,2 -3,2 -4,-2 2,-3 3,-3 -1,-4 -3,3 -4,0 -1,3 -1,3 -4,-1 0,-5 1,-3 4,-2 3,0 2,-3 4,0 3,-2 2,-2 1,-3 3,-2 4,0 2,-2 1,-3 2,-2 4,-1 4,-2 1,-4 2,-2 2,-4 1,-3 4,-2 2,-2 2,-3 -3,-1 -4,0 -1,3 -2,1 -2,3 -1,4 -3,2 -2,3 -1,3 -3,1 -4,1 -4,0 1,4 -2,2 -4,0 -2,1 -2,3 -2,1 -1,3 -4,-2 -1,3 -3,2 -3,3 -4,0 -2,3 1,4 -1,3 1,4 -2,2 0,4 -4,0 -2,3 -3,1 -4,0 -2,2 0,4 -4,1 0,-5 -4,1 -2,3 -1,3 -4,0 0,4 -2,3 -2,2 -2,3 -4,0 0,-5 -4,-3 3,-2 4,1 2,-3 0,-5 4,0 2,-3 2,-3 4,0 4,-1 3,-2 4,0 3,-1 2,-3 2,-2 1,-3 1,-4 -3,-1 -3,2 -2,2 -1,4 -4,1 -4,1 -3,2 -4,0 -3,1 -3,-1 0,4 -3,2 -3,3 -1,4 -4,-1 -3,2 -2,3 -6,3 1,-3 1,-4 3,-3 2,-3 4,0 3,-3 3,-3 0,-4 -5,-2 0,4 -3,1 -2,2 -4,2 -3,3 -2,2 -2,4 -1,4 -5,-2 1,-4 2,-3 1,-4 4,-2 4,-3 2,-3 3,-2 -1,-4 -4,1 -3,3 -2,3 -4,2 -4,2 0,5 -3,3 -5,-2 3,-3 0,-4 -5,-1 -1,3 -1,5 -2,3 0,4 -3,3 -2,4 5,2 2,-4 3,-3 1,-4 4,1 0,4 -2,4 -2,3 -3,4 -2,4 -4,0 0,-5 -3,-1 -4,-2 -4,3 5,2 -4,3 -3,2 0,5 -3,-1 -3,3 -4,2 -4,4 -5,-1 2,-4 3,-2 3,-3 2,-2 3,-3 3,-3 0,-4 3,-3 1,-4 4,0 3,-3 2,-3 1,-3 1,-4 2,-3 1,-4 2,-4 0,-5 -4,0 -1,4 -4,0 2,5 -2,3 -2,4 -1,4 -2,4 -2,-7 -2,3 -2,3 -1,4 -1,4 -4,2 0,4 -2,3 -4,0"
       id="path72"
       inkscape:connector-curvature="0" />
    <path
       style="fill:none;stroke:#000000;stroke-width:1"
       d="m 45,292 -1,4 -3,2 -3,4 -3,1 0,4 -3,3 1,5 -3,3 -4,0 -5,2 -5,-1 -1,4 -3,2 0,5 -1,4 -4,2 -2,3 1,6 -3,4 5,4 -2,4 -2,4 -1,7 6,0 2,-5 2,-3 4,-2 1,6 5,-2 5,0 5,2 -1,-6 3,-3 5,2 -2,5 5,2 4,-2 4,-2 5,-1 2,-3 1,-4 4,-4 -5,-2 -4,0 -2,5 -3,3 -6,1 1,-5 3,-4 3,-3 3,-4 6,2 4,1 5,1 4,0 0,-5 5,-1 0,5 0,7 -4,1 -5,-2 1,6 -3,1 -2,4 -2,5 -5,1 -4,2 -4,2 -4,2 -5,3 -1,-6 -5,2 -6,-2 -4,1 -4,3 0,5 -5,-6 -2,5 -5,-1 -4,2 -2,5 6,3 4,-3 6,1 5,2 4,-2 0,-6 4,1 3,-2 6,4 -4,4 -3,3 -2,4 -5,1 -6,-2 -5,-1 -2,5 -6,-3 -3,4 6,6 -5,3 -1,5 7,-1 4,-6 5,-4 5,0 7,-1 6,-2 2,-4 3,-4 3,-4 0,-6 5,-1 4,-2 4,-2 4,-2 5,-2 1,-4 3,-3 3,-4 3,-2 4,-2 0,-5 1,-4 1,-4 3,-3 2,-4 1,-4 2,-5 -4,-1 -3,3 -1,5 -3,3 -6,-2 3,-3 1,-4 1,-4 3,-2 1,-4 3,-3 1,-4 2,-2 -6,1 -3,3 -3,3 -2,3 -2,4 -1,4 -2,3 -1,5 -4,-1 0,5 -5,-1 -4,0 -4,-2 -4,1 -3,3 -3,3 -2,4 -3,4 -3,1 -6,0 -2,4 -3,3 -5,-2 3,-5 -6,-1 -4,4 -1,-6 2,-5 4,1 6,2 5,-1 3,-2 4,0 2,-4 3,-3 4,-3 3,-4 1,-5 -5,-2 -1,5 -4,3 -3,3 -4,3 -3,-1 -3,3 -3,2 -5,-2 1,-5 3,-1 1,-4 5,1 2,-1 3,-2 4,-2 2,-4 0,-5 5,2 4,2 4,0 5,-1 -5,-4 4,-1 3,-2 3,-2 4,-3 1,-4 3,-3 4,3 -2,3 -1,4 -4,3 -2,4 -2,2 -1,4 -4,2 -3,1 -1,4 6,2 3,-3 4,-1 1,-5 3,-3 1,-5 4,-4 3,-3 0,-4 4,0 0,-4 1,-4 3,-3 3,-4 2,-3 4,2 4,1 -3,4 -3,1 -2,3 -3,2 -1,4 6,0 0,4 5,-2 -2,-5 4,0 1,-4 2,-1 2,-4 2,-3 4,2 0,4 -3,2 1,5 -3,1 -2,3 -1,3 -3,3 -3,1 -3,2 -2,3 -2,4 5,2 3,-2 2,-3 3,-1 2,-4 4,-4 2,-3 3,-5 2,-2 5,1 3,5 -4,0 -4,1 0,4 -2,3 -4,1 -1,4 -2,4 -3,2 -3,3 -3,3 -3,3 0,4 5,4 -4,2 -4,0 -1,4 -2,3 -1,4 0,5 -2,3 -3,2 -5,2 -2,4 -2,4 -1,5 -4,-1 -5,2 -4,3 -3,2 -4,2 -2,4 -1,5 -3,2 -2,4 -5,3 -2,4 -4,5 -2,-7 -5,2 -6,-1 -3,5 -1,6 -4,2 -5,0 0,7 -3,6 7,4 5,0 -2,-8 5,-2 4,-6 1,-6 6,2 0,6 7,-2 3,-5 4,-3 2,-5 5,-4 4,-3 1,-5 2,-5 5,-1 3,-3 2,-3 5,1 1,6 -4,3 -6,2 -2,4 0,6 -4,2 -5,3 -2,5 -4,5 -3,4 -6,3 -6,3 -6,-1 -3,5 8,3 -5,5 -4,2 -5,2 -6,-2 -7,-4 -3,5 8,6 -3,8 -2,6 9,4 1,-8 3,-6 7,1 4,-4 5,-4 4,-2 1,-6 2,-5 5,-4 6,-2 2,-5 4,-3 2,-5 5,-2 5,-3 5,0 1,-6 -7,-1 2,-5 6,0 3,-3 2,-3 5,-1 1,6 5,-3 -1,-6 0,-5 2,-3 3,-4 3,-5 5,-2 1,-5 1,-5 4,0 1,6 -1,4 6,1"
       id="path74"
       inkscape:connector-curvature="0" />
    <path
       style="fill:none;stroke:#000000;stroke-width:1"
       d="m 117,370 0,-5 3,-2 4,0 5,-1 1,-5 4,0 2,-4 1,-4 3,-2 1,-3 3,-3 2,-1 3,-3 3,-3 5,1 3,-2 2,-4 3,-3 2,-3 4,0 0,5 -3,3 -3,3 -1,4 -2,3 -5,-1 -3,1 -2,3 -1,4 -4,-1 0,5 -2,1 -3,2 0,5 -3,1 1,5 -5,2 -1,-5 -4,5 -4,2 -2,1 -1,4 -5,1 -1,4 -3,5 -3,3 -6,-1 2,-5 4,-3 0,-5 -6,1 -3,3 -2,5 -1,5 -1,4 7,1 -2,5 -4,2 -4,2 -4,2 -6,-2 -3,3 -1,6 6,2 3,-2 4,1 4,-3 4,-2 4,-2 3,-5 1,-5 4,1 3,-4 3,-3 2,-3 2,-5 5,-3 3,-3 4,0 6,-1 -2,2 -3,5 -3,3 -4,1 -3,3 -2,6 -2,4 -3,2 -4,3 -3,4 -2,4 -4,3 -2,4 -4,-1 -4,3 -3,2 -2,6 -6,3 -4,3 -3,3 -5,3 -2,6 0,8 -4,2 -6,-3 -9,-2 2,-5 6,-1 5,0 1,-8 3,-5 3,-3 0,-5 6,2 7,-1 1,-6 -6,-1 -4,1 -7,-3 -4,5 -2,5 -4,3 -1,6 -5,2 -5,2 -3,5 0,7 -3,5 -5,1 -4,4 -5,5 -5,-1 -2,6 10,4 -6,8 -8,-3 -8,-4 -4,7 -1,12 10,-4 6,0 9,3 4,-7 7,-6 3,-7 -6,-3 6,-6 7,-1 3,-4 6,1 6,2 -5,7 -5,4 -4,2 -1,7 9,1 5,-4 3,-7 5,-4 2,-6 5,-4 -1,-7 2,-5 4,-2 4,-4 3,-3 4,-2 3,-5 3,-1 2,-5 6,2 2,-4 1,-5 5,-2 1,6 1,6 -3,4 -7,1 -2,5 -5,1 0,7 -4,-1 -4,4 -4,3 -4,4 0,7 7,-2 5,-2 4,-2 4,-1 5,0 3,-2 2,-5 -7,-4 5,-4 4,-2 5,-3 4,-2 7,1 5,0 4,-1 6,2 -4,5 -5,2 -7,-2 -4,2 -5,2 -3,4 8,1 1,8 -2,3 -5,-2 -3,5 -3,2 -1,6 -4,4 -2,-11 -4,3 -4,1 -8,-1 -6,3 -7,-3 0,8 -5,3 -4,4 -3,7 -2,8 -3,3 -7,-4 -8,-4 -9,-2 -2,8 -4,10 -9,-4 -12,-4 -1,11 11,5 10,4 10,4 10,4 2,-11 -11,-5 4,-10 8,4 9,4 9,1 2,-9 2,-8 3,-5 5,-3 3,-7 7,0 4,-4 7,2 -2,8 -7,3 -5,2 -2,7 -2,6 -3,5 -3,6 -6,10 -11,-2 -2,10 12,5 9,3 12,5 9,1 7,1 9,4 10,3 0,-12 6,1 4,-5 2,0 0,-2 3,1 -1,2 3,1 1,-1 0,-2 2,-1 -2,-2 3,-1 0,1 1,2 0,2 -2,1 1,2 2,-1 1,2 3,0 1,-1 -2,-1 -1,-2 0,-2 0,-1 -1,-2 -1,-2 -3,0 0,-2 3,0 2,-1 1,2 0,2 1,2 1,-2 2,0 0,2 0,2 -2,0 0,2 2,2 1,-1 2,-1 2,0 2,1 0,2 -2,0 -2,0 -1,1 -2,1 3,1 2,0 2,0 1,-1 1,3 2,0 2,0 2,2 1,-2 0,-2 -2,0 1,-2 0,-1 -2,-1 -1,2 -1,2 -1,-2 0,-2 -1,-2 0,-2 0,-2 1,-2 1,-1 -1,-2 -2,1 -1,2 0,2 -2,0 1,2 -3,0 0,-2 0,-2 1,-1 2,-1 0,-2 1,-1 0,-2 -1,-2 -1,-2 0,-2 -3,-1 -2,0 -2,0 1,2 0,2 2,-1 2,0 0,2 -2,1 0,2 3,-1 -1,2 0,2 -2,0 -2,1 -1,-2 1,-1 -2,-1 1,-2 -1,-2 -1,-2 -1,2 0,2 -1,2 -2,1 -1,-2 2,-1 -1,-2 0,-2 1,-1 2,-1 0,-2 -3,1 0,-2 -2,1 -2,-2 2,-1 4,-2 4,-4"
       id="path76"
       inkscape:connector-curvature="0" />
    <path
       style="fill:none;stroke:#000000;stroke-width:1"
       d="m 161,508 8,3 5,-1 6,-6 3,-5 3,-3 6,1 2,-5 7,2 3,-5 6,2 -1,7 -2,6 7,3 2,-6 1,-7 5,0 2,-4 6,2 -1,-7 1,-6 5,-4 3,-1 1,-6 5,0 5,-4 4,-4 2,-5 3,-4 2,-5 0,-5 5,1 4,-1 2,-5 2,-5 4,1 4,-1 1,6 -1,5 -5,-4 -1,5 -5,4 -4,2 -2,5 -2,4 -3,5 -3,4 -1,5 -5,-1 -1,7 -4,-1 -2,5 -6,0 -2,6 7,1 -1,7 -2,4 -4,2 -6,-1 0,7 -6,-5 -1,6 0,7 -5,1 -7,-4 -2,6 -6,4 -7,-4 4,-5 3,-5 -2,-8 -7,3 -4,4 -2,8 -5,-1 -1,9 -1,1 -2,-2 -1,2 -2,0 -1,-2 -3,-1 1,2 0,2 1,2 2,-1 2,0 -1,2 0,2 1,2 1,-2 1,-2 1,-2 2,2 -1,2 2,0 1,-2 -1,-2 2,0 2,1 1,2 0,2 -2,-1 -1,2 0,2 0,2 2,1 -1,1 -1,2 -1,2 -1,-2 0,-2 -1,-2 0,-2 0,-2 -2,0 -1,2 -2,0 -2,0 0,2 0,2 2,0 1,-2 2,1 0,2 1,2 1,2 0,1 0,2 -1,2 2,0 2,-2 0,-2 2,0 0,-2 1,-2 1,2 2,-1 -1,-2 0,-2 -1,-2 -2,-1 2,-1 2,-1 0,-2 -1,-2 1,-1 4,2 -1,1 -1,2 -1,2 0,2 1,2 1,-2 1,-2 1,-2 2,-1 0,3 1,2 1,-2 1,-1 1,3 2,0 0,-2 2,1 0,2 -1,2 -2,0 -2,-1 0,2 -1,2 -3,0 1,-2 0,-2 -1,-2 -1,2 -1,2 -2,0 1,2 -2,1 -2,1 0,2 -2,1 -1,1 -2,1 -1,3 3,-1 3,1 -1,-2 1,-1 2,-1 1,-2 1,-1 2,-1 2,0 0,2 -2,1 -1,1 -1,2 -2,1 1,2 2,-1 0,3 2,-1 1,2 1,2 3,0 -1,-2 1,-2 0,-2 -1,-2 -1,2 -1,2 -1,-2 -1,-2 1,-1 2,-1 1,-2 0,-2 1,-1 2,-1 2,-1 2,-1 1,-2 1,2 2,-1 0,2 -3,1 -2,1 -1,1 -2,1 0,1 -1,2 1,2 0,2 2,1 -1,2 -1,1 1,2 0,2 2,1 -1,3 -1,2 -1,-2 0,-2 -1,-2 -2,1 -5,3 -11,0 -10,-6 -7,-2 -8,-2 -10,-6 -6,10 9,4 11,6 10,3 9,3 12,4 8,2 8,-4 0,-2 -2,-2 -1,-2 -1,-2 1,-2 0,-2 1,-1 1,-2 0,-2 -2,0 -1,-2 1,-2 0,-2 1,-2 -1,-2 -2,1 0,-2 1,-2 2,-1 2,-1 1,2 -2,1 1,2 2,-1 2,-1 0,-2 -2,-1 1,-1 1,-2 2,2 1,2 2,0 1,2 1,2 2,-1 2,1 -1,2 1,2 2,-1 1,-1 1,3 2,0 -1,2 -2,1 -1,-2 -2,0 0,2 -1,2 0,2 1,2 -1,1 1,2 2,-1 0,2 1,2 -2,0 -1,1 -1,2 2,1 0,2 -1,1 -2,-2 -1,2 -1,-2 0,-2 -1,-2 2,0 1,-2 0,-2 -2,0 -1,2 -1,-2 0,-2 2,-1 0,-2 0,-2 -2,1 -1,2 -1,-2 0,-2 2,-1 2,-1 1,1 0,-2 0,-2 0,-2 -2,0 -1,2 -1,2 -2,-1 0,2 -2,1 -1,-2 0,-2 2,-1 2,-1 1,-2 -1,-2 -1,2 -2,1 -2,1 -2,0 0,2 0,2 -1,2 2,0 1,2 2,0 1,2 1,2 0,2 1,2 0,2 1,2 0,2 1,2 1,2 -1,1 -1,2 -2,1 -1,-2 1,-2 0,-2 0,-2 -1,-2 -1,-2 -2,1 0,-2 2,-1 0,-2 -1,-2 -1,-2 -1,2 0,2 -1,1 -1,2 1,2 1,2 2,1 0,1 0,2"
       id="path78"
       inkscape:connector-curvature="0" />
    <path
       style="fill:none;stroke:#000000;stroke-width:1"
       d="m 214,577 0,2 0,2 0,2 3,1 1,2 0,1 0,2 1,2 2,-2 1,2 -1,2 0,2 1,2 1,2 1,-2 0,-2 -1,-2 1,-2 0,-2 1,-1 -1,-2 0,-2 -2,1 -1,2 -1,-2 0,-2 1,-2 2,1 0,-2 2,-1 1,2 0,2 1,2 0,2 2,0 1,-2 0,-2 -2,0 1,-2 -1,-2 2,0 0,-2 0,-2 -1,-2 2,0 1,-1 0,-2 -1,-1 0,-2 -1,-2 0,-2 -2,0 0,-2 1,-1 2,0 1,2 1,2 0,2 1,2 1,2 2,-1 1,-2 -2,0 0,-2 -1,-2 -1,-2 -1,-2 1,-2 2,2 2,1 -1,1 1,2 1,2 1,-1 1,2 2,2 -1,1 0,2 -2,-2 -1,2 1,2 2,1 0,2 -2,0 -2,0 0,-2 -1,-2 -2,0 0,2 0,2 -2,-1 -1,2 0,2 0,2 1,2 0,2 1,2 -2,0 -1,2 -3,0 1,2 -2,0 1,2 -2,0 1,2 2,1 0,2 -2,-1 -1,2 2,1 -2,1 -3,0 1,2 2,1 -2,1 0,2 1,2 2,-1 0,-2 2,0 1,-2 -2,-1 2,-1 1,-2 0,-2 1,-2 1,-2 -2,0 0,-2 2,-1 1,-1 2,-1 1,-2 0,-2 -2,0 1,-2 0,-1 -1,-2 0,-2 2,0 1,2 1,2 1,2 0,1 0,2 -1,2 -1,2 -2,1 -1,1 2,2 1,-1 2,-1 1,-2 0,-1 2,-1 1,2 0,2 -2,1 0,2 0,2 -2,-2 -2,1 1,2 -2,1 -1,-2 -1,-2 -1,2 0,2 1,2 -2,0 0,2 0,2 2,0 1,-2 2,-1 1,-1 2,-1 1,-1 1,2 0,2 -2,0 -1,1 1,2 1,2 -2,1 -1,-2 -1,-2 -1,2 -2,1 2,1 1,2 1,2 2,-1 1,-1 2,-1 1,-2 -1,-2 1,-1 1,-2 2,0 0,-3 -2,1 -1,-2 0,-2 -1,-2 2,-1 1,2 1,2 2,-1 0,-2 0,-2 0,-2 -2,2 -1,-1 0,-2 1,-1 2,-1 -1,-2 -2,1 -2,0 -2,-1 0,-2 -1,-2 -1,-2 -1,-2 2,0 1,-1 2,-1 0,-2 -1,-2 1,-2 2,1 0,1 1,2 -1,2 2,0 2,-2 2,1 -1,1 0,2 -2,1 -2,0 -2,-1 0,2 -2,0 1,2 0,2 2,0 1,-2 2,2 0,-2 1,-1 2,-1 1,2 1,2 -2,0 -1,2 2,0 -1,2 -1,2 2,0 0,2 -2,1 1,2 2,-1 1,2 -2,1 -1,1 -2,1 -1,2 0,1 1,2 -2,1 -1,1 -1,2 2,0 2,-1 1,2 0,2 -2,0 -2,0 -2,-1 -1,2 -1,2 -1,2 -1,-2 -2,1 1,2 0,2 0,2 1,2 -2,1 -1,2 0,2 -2,1 -1,-2 0,-2 2,-1 0,-2 1,-1 -1,-2 0,-2 -1,-2 -1,2 -1,2 -1,-2 -2,0 1,-2 2,-1 1,-1 -1,-2 -2,1 0,-2 0,-2 -1,-2 -2,1 0,2 -2,1 -2,0 -2,0 -1,2 2,1 -1,2 -2,-1 0,2 0,2 -3,-1 0,2 1,2 -2,1 2,1 -1,1 1,2 2,0 1,-2 0,-2 -1,-2 2,0 1,-2 2,1 -1,-2 1,-2 0,-2 2,0 1,-2 1,2 -1,2 -1,2 1,2 2,0 0,2 3,0 0,2 -2,0 0,2 -2,1 2,1 -1,1 2,1 -3,1 -1,2 -1,-2 0,-2 -1,-2 0,-2 2,-1 -1,-2 -1,1 -2,0 -1,2 -1,2 2,1 0,2 -2,0 -2,0 0,2 0,2 0,2 1,2 -2,1 2,1 0,2 -2,0 0,2 -2,1 -1,2 -1,-2 0,-2 2,-1 -2,-1 0,-2 2,0 -1,-2 2,-1 -2,-1 1,-2 0,-2 1,-2 -2,0 -1,-2 -1,-2"
       id="path80"
       inkscape:connector-curvature="0" />
    <path
       style="fill:none;stroke:#000000;stroke-width:1"
       d="m 216,625 -1,-2 -2,2 -1,3 2,-1 1,2 0,2 2,0 -1,2 -1,2 0,2 -2,0 -1,-2 1,-2 0,-1 -1,-2 -3,0 0,1 1,2 -3,0 2,2 -2,1 -2,2 2,0 1,2 -1,1 0,2 -1,2 1,2 2,0 0,2 1,2 -2,0 -2,-2 -1,2 1,2 2,1 -1,1 -1,2 1,2 0,2 0,2 -2,1 -1,-2 0,-2 0,-2 -2,1 -1,-2 1,-1 2,-1 -1,-2 -2,1 -1,-2 2,-1 0,-2 2,0 0,-2 -1,-2 1,-2 1,-2 -2,0 -1,2 -2,1 1,2 -1,1 0,2 -2,1 -1,-2 0,-2 -2,2 0,2 -3,0 0,3 -2,0 0,2 -2,0 0,3 -2,-1 -1,2 -2,0 0,2 2,1 -1,2 -2,-1 0,2 2,1 -2,2 0,2 -1,2 1,2 -2,0 -1,1 -1,2 0,3 2,-1 1,-1 2,-1 1,-1 0,3 2,0 1,-2 1,-1 2,-1 0,-2 1,-1 2,-1 1,-1 -1,-2 -1,-2 -2,0 0,2 0,2 -2,0 -1,2 0,2 -2,0 -1,-2 1,-2 0,-2 2,0 0,-2 0,-2 0,-2 1,-2 1,2 1,2 2,-1 1,-1 2,-1 0,-1 -2,-1 -2,1 -1,-2 2,-1 1,-2 1,-2 1,-1 3,0 0,2 0,2 -2,-1 -1,2 2,1 1,2 2,-1 1,2 1,2 -1,2 0,2 2,-1 1,2 -2,1 0,2 -1,2 -1,2 -1,-2 1,-2 -1,-2 -1,-2 0,-2 1,-2 0,-1 -3,1 0,2 -2,0 1,2 1,2 1,2 0,2 -2,0 -2,1 0,2 -1,1 -2,1 -2,1 0,2 0,2 0,2 -1,2 -2,0 0,-2 0,-2 0,-2 -2,0 -2,0 1,2 0,2 -2,1 -1,-2 0,-2 -2,1 0,2 -2,0 1,2 2,1 -2,1 -3,-1 1,2 1,2 2,0 1,-2 1,2 -1,2 -1,1 -2,0 -1,2 3,0 0,2 -2,0 1,2 0,2 1,2 2,1 -2,1 1,2 -2,0 -2,0 -1,-2 1,-1 -2,-1 2,-1 -1,-2 0,-2 -2,-1 0,-2 1,-2 0,-2 1,-1 -2,-1 -2,2 1,2 -2,1 -1,1 -1,2 0,2 -1,2 2,0 1,-2 1,-2 1,2 0,2 -1,2 -2,1 -2,0 -1,1 2,2 -2,1 1,2 -2,0 1,2 -2,1 0,2 -1,2 0,3 0,2 -2,2 0,2 -1,1 0,3 -1,2 -1,1 0,2 0,2 -1,2 -1,2 -1,2 1,3 2,-1 0,-2 1,-2 1,-2 1,-2 1,2 -1,2 0,2 -1,2 -1,2 -2,1 -1,1 -3,-1 1,2 -2,1 0,2 -1,2 2,0 -1,2 -2,0 0,2 -1,3 -2,2 0,2 0,2 0,2 -2,-1 0,3 1,2 -2,0 0,2 0,2 1,3 1,-1 1,3 2,-1 -1,-2 -1,-2 0,-2 2,0 1,2 2,0 0,-2 1,-2 -1,-2 -1,2 -2,0 -1,-2 2,-1 2,-1 -2,-1 0,-2 1,-1 -1,-2 2,-1 0,-2 1,-1 2,0 0,-2 2,0 2,-1 1,2 -2,1 1,2 0,2 -1,2 -1,-2 -1,-2 -2,1 -1,2 2,1 -2,2 2,0 2,0 0,2 0,2 -2,-1 0,2 1,1 -1,2 0,2 -1,2 -1,1 -2,0 1,2 -2,1 0,2 3,-1 0,2"
       id="path82"
       inkscape:connector-curvature="0" />
  </g>
</svg>
