solid OpenSCAD_Model
  facet normal -0.000000 0.000000 -1.000000
    outer loop
      vertex -18.000000 0.000000 0.000000
      vertex -17.606657 3.742410 0.000000
      vertex -17.606657 -3.742410 0.000000
    endloop
  endfacet
  facet normal 0.000000 -0.000000 -1.000000
    outer loop
      vertex -17.606657 -3.742410 0.000000
      vertex -17.606657 3.742410 0.000000
      vertex -16.443818 7.321260 0.000000
    endloop
  endfacet
  facet normal 0.000000 0.000000 -1.000000
    outer loop
      vertex -17.606657 -3.742410 0.000000
      vertex -16.443818 7.321260 0.000000
      vertex -14.562306 10.580135 0.000000
    endloop
  endfacet
  facet normal 0.000000 0.000000 -1.000000
    outer loop
      vertex -17.606657 -3.742410 0.000000
      vertex -14.562306 10.580135 0.000000
      vertex -12.044351 13.376607 0.000000
    endloop
  endfacet
  facet normal 0.000000 0.000000 -1.000000
    outer loop
      vertex -17.606657 -3.742410 0.000000
      vertex -12.044351 13.376607 0.000000
      vertex -9.000000 15.588457 0.000000
    endloop
  endfacet
  facet normal 0.000000 0.000000 -1.000000
    outer loop
      vertex -17.606657 -3.742410 0.000000
      vertex -9.000000 15.588457 0.000000
      vertex -5.562306 17.119017 0.000000
    endloop
  endfacet
  facet normal 0.000000 0.000000 -1.000000
    outer loop
      vertex -17.606657 -3.742410 0.000000
      vertex -5.562306 17.119017 0.000000
      vertex -5.000000 17.238539 0.000000
    endloop
  endfacet
  facet normal 0.000000 -0.000000 -1.000000
    outer loop
      vertex -5.000000 17.238539 0.000000
      vertex -5.000000 30.500000 0.000000
      vertex 5.000000 30.500000 0.000000
    endloop
  endfacet
  facet normal -0.000000 0.000000 -1.000000
    outer loop
      vertex -5.000000 17.238539 0.000000
      vertex 5.000000 30.500000 0.000000
      vertex -17.606657 -3.742410 0.000000
    endloop
  endfacet
  facet normal 0.000000 0.000000 -1.000000
    outer loop
      vertex -17.606657 -3.742410 0.000000
      vertex 5.000000 30.500000 0.000000
      vertex 5.000000 17.238539 0.000000
    endloop
  endfacet
  facet normal 0.000000 0.000000 -1.000000
    outer loop
      vertex -17.606657 -3.742410 0.000000
      vertex 5.000000 17.238539 0.000000
      vertex 5.562306 17.119017 0.000000
    endloop
  endfacet
  facet normal 0.000000 0.000000 -1.000000
    outer loop
      vertex -3.750000 6.495191 0.000000
      vertex 5.562306 17.119017 0.000000
      vertex 9.000000 15.588457 0.000000
    endloop
  endfacet
  facet normal 0.000000 0.000000 -1.000000
    outer loop
      vertex 0.000000 7.500000 0.000000
      vertex 9.000000 15.588457 0.000000
      vertex 12.044351 13.376607 0.000000
    endloop
  endfacet
  facet normal 0.000000 0.000000 -1.000000
    outer loop
      vertex 3.750000 6.495191 0.000000
      vertex 12.044351 13.376607 0.000000
      vertex 14.562306 10.580135 0.000000
    endloop
  endfacet
  facet normal 0.000000 0.000000 -1.000000
    outer loop
      vertex 5.303301 5.303301 0.000000
      vertex 14.562306 10.580135 0.000000
      vertex 16.443818 7.321260 0.000000
    endloop
  endfacet
  facet normal 0.000000 0.000000 -1.000000
    outer loop
      vertex 7.244444 1.941143 0.000000
      vertex 16.443818 7.321260 0.000000
      vertex 17.606657 3.742410 0.000000
    endloop
  endfacet
  facet normal -0.000000 0.000000 -1.000000
    outer loop
      vertex 7.500000 0.000000 0.000000
      vertex 17.606657 3.742410 0.000000
      vertex 18.000000 0.000000 0.000000
    endloop
  endfacet
  facet normal -0.000000 0.000000 -1.000000
    outer loop
      vertex 7.244444 -1.941143 0.000000
      vertex 18.000000 0.000000 0.000000
      vertex 17.606657 -3.742410 0.000000
    endloop
  endfacet
  facet normal -0.000000 0.000000 -1.000000
    outer loop
      vertex 5.303301 -5.303301 0.000000
      vertex 17.606657 -3.742410 0.000000
      vertex 16.443818 -7.321260 0.000000
    endloop
  endfacet
  facet normal 0.000000 0.000000 -1.000000
    outer loop
      vertex 3.750000 -6.495191 0.000000
      vertex 16.443818 -7.321260 0.000000
      vertex 14.562306 -10.580135 0.000000
    endloop
  endfacet
  facet normal 0.000000 0.000000 -1.000000
    outer loop
      vertex -1.941143 -7.244444 0.000000
      vertex 14.562306 -10.580135 0.000000
      vertex 12.044351 -13.376607 0.000000
    endloop
  endfacet
  facet normal 0.000000 0.000000 -1.000000
    outer loop
      vertex -17.606657 -3.742410 0.000000
      vertex 12.044351 -13.376607 0.000000
      vertex 9.000000 -15.588457 0.000000
    endloop
  endfacet
  facet normal 0.000000 0.000000 -1.000000
    outer loop
      vertex -17.606657 -3.742410 0.000000
      vertex 9.000000 -15.588457 0.000000
      vertex 5.562306 -17.119017 0.000000
    endloop
  endfacet
  facet normal 0.000000 0.000000 -1.000000
    outer loop
      vertex -17.606657 -3.742410 0.000000
      vertex 5.562306 -17.119017 0.000000
      vertex 1.881512 -17.901394 0.000000
    endloop
  endfacet
  facet normal 0.000000 0.000000 -1.000000
    outer loop
      vertex -17.606657 -3.742410 0.000000
      vertex 1.881512 -17.901394 0.000000
      vertex -1.881512 -17.901394 0.000000
    endloop
  endfacet
  facet normal 0.000000 0.000000 -1.000000
    outer loop
      vertex -17.606657 -3.742410 0.000000
      vertex -1.881512 -17.901394 0.000000
      vertex -5.562306 -17.119017 0.000000
    endloop
  endfacet
  facet normal 0.000000 0.000000 -1.000000
    outer loop
      vertex -17.606657 -3.742410 0.000000
      vertex -5.562306 -17.119017 0.000000
      vertex -9.000000 -15.588457 0.000000
    endloop
  endfacet
  facet normal 0.000000 0.000000 -1.000000
    outer loop
      vertex -17.606657 -3.742410 0.000000
      vertex -9.000000 -15.588457 0.000000
      vertex -12.044351 -13.376607 0.000000
    endloop
  endfacet
  facet normal 0.000000 0.000000 -1.000000
    outer loop
      vertex -17.606657 -3.742410 0.000000
      vertex -12.044351 -13.376607 0.000000
      vertex -14.562306 -10.580135 0.000000
    endloop
  endfacet
  facet normal 0.000000 0.000000 -1.000000
    outer loop
      vertex -17.606657 -3.742410 0.000000
      vertex -14.562306 -10.580135 0.000000
      vertex -16.443818 -7.321260 0.000000
    endloop
  endfacet
  facet normal 0.000000 0.000000 -1.000000
    outer loop
      vertex -7.244444 -1.941143 0.000000
      vertex -17.606657 -3.742410 0.000000
      vertex -7.500000 0.000000 0.000000
    endloop
  endfacet
  facet normal 0.000000 0.000000 -1.000000
    outer loop
      vertex -6.495191 -3.750000 0.000000
      vertex -17.606657 -3.742410 0.000000
      vertex -7.244444 -1.941143 0.000000
    endloop
  endfacet
  facet normal 0.000000 0.000000 -1.000000
    outer loop
      vertex -5.303301 -5.303301 0.000000
      vertex -17.606657 -3.742410 0.000000
      vertex -6.495191 -3.750000 0.000000
    endloop
  endfacet
  facet normal 0.000000 0.000000 -1.000000
    outer loop
      vertex -1.941143 -7.244444 0.000000
      vertex -17.606657 -3.742410 0.000000
      vertex -3.750000 -6.495191 0.000000
    endloop
  endfacet
  facet normal 0.000000 0.000000 -1.000000
    outer loop
      vertex -17.606657 -3.742410 0.000000
      vertex -5.303301 -5.303301 0.000000
      vertex -3.750000 -6.495191 0.000000
    endloop
  endfacet
  facet normal 0.000000 0.000000 -1.000000
    outer loop
      vertex 0.000000 -7.500000 0.000000
      vertex 14.562306 -10.580135 0.000000
      vertex -1.941143 -7.244444 0.000000
    endloop
  endfacet
  facet normal 0.000000 0.000000 -1.000000
    outer loop
      vertex -17.606657 -3.742410 0.000000
      vertex -1.941143 -7.244444 0.000000
      vertex 12.044351 -13.376607 0.000000
    endloop
  endfacet
  facet normal 0.000000 0.000000 -1.000000
    outer loop
      vertex 1.941143 -7.244444 0.000000
      vertex 14.562306 -10.580135 0.000000
      vertex 0.000000 -7.500000 0.000000
    endloop
  endfacet
  facet normal 0.000000 0.000000 -1.000000
    outer loop
      vertex 3.750000 -6.495191 0.000000
      vertex 14.562306 -10.580135 0.000000
      vertex 1.941143 -7.244444 0.000000
    endloop
  endfacet
  facet normal 0.000000 0.000000 -1.000000
    outer loop
      vertex 5.303301 -5.303301 0.000000
      vertex 16.443818 -7.321260 0.000000
      vertex 3.750000 -6.495191 0.000000
    endloop
  endfacet
  facet normal -0.000000 0.000000 -1.000000
    outer loop
      vertex 6.495191 -3.750000 0.000000
      vertex 17.606657 -3.742410 0.000000
      vertex 5.303301 -5.303301 0.000000
    endloop
  endfacet
  facet normal 0.000000 0.000000 -1.000000
    outer loop
      vertex 7.244444 -1.941143 0.000000
      vertex 17.606657 -3.742410 0.000000
      vertex 6.495191 -3.750000 0.000000
    endloop
  endfacet
  facet normal -0.000000 0.000000 -1.000000
    outer loop
      vertex 7.244444 1.941143 0.000000
      vertex 17.606657 3.742410 0.000000
      vertex 7.500000 0.000000 0.000000
    endloop
  endfacet
  facet normal -0.000000 0.000000 -1.000000
    outer loop
      vertex 6.495191 3.750000 0.000000
      vertex 16.443818 7.321260 0.000000
      vertex 7.244444 1.941143 0.000000
    endloop
  endfacet
  facet normal 0.000000 0.000000 -1.000000
    outer loop
      vertex 7.500000 0.000000 0.000000
      vertex 18.000000 0.000000 0.000000
      vertex 7.244444 -1.941143 0.000000
    endloop
  endfacet
  facet normal -0.000000 0.000000 -1.000000
    outer loop
      vertex 3.750000 6.495191 0.000000
      vertex 14.562306 10.580135 0.000000
      vertex 5.303301 5.303301 0.000000
    endloop
  endfacet
  facet normal -0.000000 0.000000 -1.000000
    outer loop
      vertex 1.941143 7.244444 0.000000
      vertex 12.044351 13.376607 0.000000
      vertex 3.750000 6.495191 0.000000
    endloop
  endfacet
  facet normal 0.000000 0.000000 -1.000000
    outer loop
      vertex -1.941143 7.244444 0.000000
      vertex 9.000000 15.588457 0.000000
      vertex 0.000000 7.500000 0.000000
    endloop
  endfacet
  facet normal 0.000000 0.000000 -1.000000
    outer loop
      vertex -3.750000 6.495191 0.000000
      vertex 9.000000 15.588457 0.000000
      vertex -1.941143 7.244444 0.000000
    endloop
  endfacet
  facet normal 0.000000 0.000000 -1.000000
    outer loop
      vertex -17.606657 -3.742410 0.000000
      vertex 5.562306 17.119017 0.000000
      vertex -3.750000 6.495191 0.000000
    endloop
  endfacet
  facet normal 0.000000 -0.000000 -1.000000
    outer loop
      vertex -6.495191 3.750000 0.000000
      vertex -17.606657 -3.742410 0.000000
      vertex -5.303301 5.303301 0.000000
    endloop
  endfacet
  facet normal 0.000000 0.000000 -1.000000
    outer loop
      vertex -17.606657 -3.742410 0.000000
      vertex -3.750000 6.495191 0.000000
      vertex -5.303301 5.303301 0.000000
    endloop
  endfacet
  facet normal 0.000000 -0.000000 -1.000000
    outer loop
      vertex -7.244444 1.941143 0.000000
      vertex -17.606657 -3.742410 0.000000
      vertex -6.495191 3.750000 0.000000
    endloop
  endfacet
  facet normal 0.000000 -0.000000 -1.000000
    outer loop
      vertex -7.500000 0.000000 0.000000
      vertex -17.606657 -3.742410 0.000000
      vertex -7.244444 1.941143 0.000000
    endloop
  endfacet
  facet normal -0.000000 0.000000 -1.000000
    outer loop
      vertex 0.000000 7.500000 0.000000
      vertex 12.044351 13.376607 0.000000
      vertex 1.941143 7.244444 0.000000
    endloop
  endfacet
  facet normal -0.000000 0.000000 -1.000000
    outer loop
      vertex 5.303301 5.303301 0.000000
      vertex 16.443818 7.321260 0.000000
      vertex 6.495191 3.750000 0.000000
    endloop
  endfacet
  facet normal -0.994522 0.104528 0.000000
    outer loop
      vertex -18.000000 0.000000 0.000000
      vertex -18.000000 0.000000 3.000000
      vertex -17.606657 3.742410 0.000000
    endloop
  endfacet
  facet normal -0.994522 0.104528 0.000000
    outer loop
      vertex -17.606657 3.742410 0.000000
      vertex -18.000000 0.000000 3.000000
      vertex -17.606657 3.742410 3.000000
    endloop
  endfacet
  facet normal -0.994522 -0.104528 -0.000000
    outer loop
      vertex -18.000000 0.000000 0.000000
      vertex -17.606657 -3.742410 0.000000
      vertex -18.000000 0.000000 3.000000
    endloop
  endfacet
  facet normal -0.994522 -0.104528 0.000000
    outer loop
      vertex -18.000000 0.000000 3.000000
      vertex -17.606657 -3.742410 0.000000
      vertex -17.606657 -3.742410 3.000000
    endloop
  endfacet
  facet normal -0.951057 -0.309017 -0.000000
    outer loop
      vertex -17.606657 -3.742410 0.000000
      vertex -16.443818 -7.321260 0.000000
      vertex -17.606657 -3.742410 3.000000
    endloop
  endfacet
  facet normal -0.951057 -0.309017 0.000000
    outer loop
      vertex -17.606657 -3.742410 3.000000
      vertex -16.443818 -7.321260 0.000000
      vertex -16.443818 -7.321260 3.000000
    endloop
  endfacet
  facet normal -0.866025 -0.500000 -0.000000
    outer loop
      vertex -16.443818 -7.321260 0.000000
      vertex -14.562306 -10.580135 0.000000
      vertex -16.443818 -7.321260 3.000000
    endloop
  endfacet
  facet normal -0.866025 -0.500000 0.000000
    outer loop
      vertex -16.443818 -7.321260 3.000000
      vertex -14.562306 -10.580135 0.000000
      vertex -14.562306 -10.580135 3.000000
    endloop
  endfacet
  facet normal -0.743145 -0.669131 -0.000000
    outer loop
      vertex -14.562306 -10.580135 0.000000
      vertex -12.044351 -13.376607 0.000000
      vertex -14.562306 -10.580135 3.000000
    endloop
  endfacet
  facet normal -0.743145 -0.669131 0.000000
    outer loop
      vertex -14.562306 -10.580135 3.000000
      vertex -12.044351 -13.376607 0.000000
      vertex -12.044351 -13.376607 3.000000
    endloop
  endfacet
  facet normal -0.587785 -0.809017 0.000000
    outer loop
      vertex -12.044351 -13.376607 3.000000
      vertex -12.044351 -13.376607 0.000000
      vertex -9.000000 -15.588457 0.000000
    endloop
  endfacet
  facet normal -0.587785 -0.809017 0.000000
    outer loop
      vertex -9.000000 -15.588457 3.000000
      vertex -12.044351 -13.376607 3.000000
      vertex -9.000000 -15.588457 0.000000
    endloop
  endfacet
  facet normal -0.406737 -0.913545 0.000000
    outer loop
      vertex -9.000000 -15.588457 3.000000
      vertex -9.000000 -15.588457 0.000000
      vertex -5.562306 -17.119017 0.000000
    endloop
  endfacet
  facet normal -0.406737 -0.913545 0.000000
    outer loop
      vertex -5.562306 -17.119017 3.000000
      vertex -9.000000 -15.588457 3.000000
      vertex -5.562306 -17.119017 0.000000
    endloop
  endfacet
  facet normal -0.207912 -0.978148 0.000000
    outer loop
      vertex -5.562306 -17.119017 3.000000
      vertex -5.562306 -17.119017 0.000000
      vertex -1.881512 -17.901394 0.000000
    endloop
  endfacet
  facet normal -0.207912 -0.978148 0.000000
    outer loop
      vertex -1.881512 -17.901394 3.000000
      vertex -5.562306 -17.119017 3.000000
      vertex -1.881512 -17.901394 0.000000
    endloop
  endfacet
  facet normal 0.000000 -1.000000 0.000000
    outer loop
      vertex -1.881512 -17.901394 3.000000
      vertex -1.881512 -17.901394 0.000000
      vertex 1.881512 -17.901394 0.000000
    endloop
  endfacet
  facet normal 0.000000 -1.000000 0.000000
    outer loop
      vertex 1.881512 -17.901394 3.000000
      vertex -1.881512 -17.901394 3.000000
      vertex 1.881512 -17.901394 0.000000
    endloop
  endfacet
  facet normal 0.207912 -0.978148 0.000000
    outer loop
      vertex 1.881512 -17.901394 3.000000
      vertex 1.881512 -17.901394 0.000000
      vertex 5.562306 -17.119017 0.000000
    endloop
  endfacet
  facet normal 0.207912 -0.978148 0.000000
    outer loop
      vertex 5.562306 -17.119017 3.000000
      vertex 1.881512 -17.901394 3.000000
      vertex 5.562306 -17.119017 0.000000
    endloop
  endfacet
  facet normal 0.406737 -0.913545 0.000000
    outer loop
      vertex 5.562306 -17.119017 3.000000
      vertex 5.562306 -17.119017 0.000000
      vertex 9.000000 -15.588457 0.000000
    endloop
  endfacet
  facet normal 0.406737 -0.913545 0.000000
    outer loop
      vertex 9.000000 -15.588457 3.000000
      vertex 5.562306 -17.119017 3.000000
      vertex 9.000000 -15.588457 0.000000
    endloop
  endfacet
  facet normal 0.587785 -0.809017 0.000000
    outer loop
      vertex 9.000000 -15.588457 3.000000
      vertex 9.000000 -15.588457 0.000000
      vertex 12.044351 -13.376607 0.000000
    endloop
  endfacet
  facet normal 0.587785 -0.809017 0.000000
    outer loop
      vertex 12.044351 -13.376607 3.000000
      vertex 9.000000 -15.588457 3.000000
      vertex 12.044351 -13.376607 0.000000
    endloop
  endfacet
  facet normal 0.743145 -0.669131 0.000000
    outer loop
      vertex 12.044351 -13.376607 3.000000
      vertex 12.044351 -13.376607 0.000000
      vertex 14.562306 -10.580135 0.000000
    endloop
  endfacet
  facet normal 0.743145 -0.669131 0.000000
    outer loop
      vertex 14.562306 -10.580135 3.000000
      vertex 12.044351 -13.376607 3.000000
      vertex 14.562306 -10.580135 0.000000
    endloop
  endfacet
  facet normal 0.866025 -0.500000 0.000000
    outer loop
      vertex 14.562306 -10.580135 3.000000
      vertex 14.562306 -10.580135 0.000000
      vertex 16.443818 -7.321260 0.000000
    endloop
  endfacet
  facet normal 0.866025 -0.500000 0.000000
    outer loop
      vertex 16.443818 -7.321260 3.000000
      vertex 14.562306 -10.580135 3.000000
      vertex 16.443818 -7.321260 0.000000
    endloop
  endfacet
  facet normal 0.951057 -0.309017 0.000000
    outer loop
      vertex 16.443818 -7.321260 3.000000
      vertex 16.443818 -7.321260 0.000000
      vertex 17.606657 -3.742410 0.000000
    endloop
  endfacet
  facet normal 0.951057 -0.309017 0.000000
    outer loop
      vertex 17.606657 -3.742410 3.000000
      vertex 16.443818 -7.321260 3.000000
      vertex 17.606657 -3.742410 0.000000
    endloop
  endfacet
  facet normal 0.994522 -0.104528 0.000000
    outer loop
      vertex 17.606657 -3.742410 3.000000
      vertex 17.606657 -3.742410 0.000000
      vertex 18.000000 0.000000 0.000000
    endloop
  endfacet
  facet normal 0.994522 -0.104528 0.000000
    outer loop
      vertex 18.000000 0.000000 3.000000
      vertex 17.606657 -3.742410 3.000000
      vertex 18.000000 0.000000 0.000000
    endloop
  endfacet
  facet normal 0.994522 0.104528 0.000000
    outer loop
      vertex 18.000000 0.000000 0.000000
      vertex 17.606657 3.742410 0.000000
      vertex 17.606657 3.742410 3.000000
    endloop
  endfacet
  facet normal 0.994522 0.104528 -0.000000
    outer loop
      vertex 18.000000 0.000000 3.000000
      vertex 18.000000 0.000000 0.000000
      vertex 17.606657 3.742410 3.000000
    endloop
  endfacet
  facet normal 0.951057 0.309017 0.000000
    outer loop
      vertex 17.606657 3.742410 0.000000
      vertex 16.443818 7.321260 0.000000
      vertex 16.443818 7.321260 3.000000
    endloop
  endfacet
  facet normal 0.951057 0.309017 -0.000000
    outer loop
      vertex 17.606657 3.742410 3.000000
      vertex 17.606657 3.742410 0.000000
      vertex 16.443818 7.321260 3.000000
    endloop
  endfacet
  facet normal 0.866025 0.500000 0.000000
    outer loop
      vertex 16.443818 7.321260 0.000000
      vertex 14.562306 10.580135 0.000000
      vertex 14.562306 10.580135 3.000000
    endloop
  endfacet
  facet normal 0.866025 0.500000 -0.000000
    outer loop
      vertex 16.443818 7.321260 3.000000
      vertex 16.443818 7.321260 0.000000
      vertex 14.562306 10.580135 3.000000
    endloop
  endfacet
  facet normal 0.743145 0.669131 0.000000
    outer loop
      vertex 14.562306 10.580135 0.000000
      vertex 12.044351 13.376607 0.000000
      vertex 12.044351 13.376607 3.000000
    endloop
  endfacet
  facet normal 0.743145 0.669131 -0.000000
    outer loop
      vertex 14.562306 10.580135 3.000000
      vertex 14.562306 10.580135 0.000000
      vertex 12.044351 13.376607 3.000000
    endloop
  endfacet
  facet normal 0.587785 0.809017 0.000000
    outer loop
      vertex 9.000000 15.588457 0.000000
      vertex 9.000000 15.588457 3.000000
      vertex 12.044351 13.376607 0.000000
    endloop
  endfacet
  facet normal 0.587785 0.809017 0.000000
    outer loop
      vertex 12.044351 13.376607 0.000000
      vertex 9.000000 15.588457 3.000000
      vertex 12.044351 13.376607 3.000000
    endloop
  endfacet
  facet normal 0.406737 0.913545 0.000000
    outer loop
      vertex 5.562306 17.119017 0.000000
      vertex 5.562306 17.119017 3.000000
      vertex 9.000000 15.588457 0.000000
    endloop
  endfacet
  facet normal 0.406737 0.913545 0.000000
    outer loop
      vertex 9.000000 15.588457 0.000000
      vertex 5.562306 17.119017 3.000000
      vertex 9.000000 15.588457 3.000000
    endloop
  endfacet
  facet normal 0.207912 0.978148 0.000000
    outer loop
      vertex 5.000000 17.238539 0.000000
      vertex 5.000000 17.238539 3.000000
      vertex 5.562306 17.119017 0.000000
    endloop
  endfacet
  facet normal 0.207912 0.978148 0.000000
    outer loop
      vertex 5.562306 17.119017 0.000000
      vertex 5.000000 17.238539 3.000000
      vertex 5.562306 17.119017 3.000000
    endloop
  endfacet
  facet normal 1.000000 0.000000 0.000000
    outer loop
      vertex 5.000000 18.871315 31.949549
      vertex 5.000000 19.009928 32.000000
      vertex 5.000000 12.500000 32.000000
    endloop
  endfacet
  facet normal 1.000000 0.000000 -0.000000
    outer loop
      vertex 5.000000 12.500000 32.000000
      vertex 5.000000 12.500000 3.000000
      vertex 5.000000 17.238539 3.000000
    endloop
  endfacet
  facet normal 1.000000 0.000000 0.000000
    outer loop
      vertex 5.000000 30.500000 0.000000
      vertex 5.000000 12.500000 32.000000
      vertex 5.000000 17.238539 3.000000
    endloop
  endfacet
  facet normal 1.000000 0.000000 0.000000
    outer loop
      vertex 5.000000 17.238539 0.000000
      vertex 5.000000 30.500000 0.000000
      vertex 5.000000 17.238539 3.000000
    endloop
  endfacet
  facet normal 1.000000 0.000000 0.000000
    outer loop
      vertex 5.000000 30.500000 0.000000
      vertex 5.000000 18.871315 31.949549
      vertex 5.000000 12.500000 32.000000
    endloop
  endfacet
  facet normal -0.000000 0.939693 0.342020
    outer loop
      vertex 5.000000 30.500000 0.000000
      vertex -5.000000 30.500000 0.000000
      vertex 5.000000 18.871315 31.949549
    endloop
  endfacet
  facet normal -0.000000 0.939693 0.342020
    outer loop
      vertex 5.000000 18.871315 31.949549
      vertex -5.000000 30.500000 0.000000
      vertex -5.000000 18.871315 31.949549
    endloop
  endfacet
  facet normal -1.000000 -0.000000 -0.000000
    outer loop
      vertex -5.000000 12.500000 3.000000
      vertex -5.000000 12.500000 32.000000
      vertex -5.000000 17.238539 3.000000
    endloop
  endfacet
  facet normal -1.000000 0.000000 -0.000000
    outer loop
      vertex -5.000000 18.871315 31.949549
      vertex -5.000000 12.500000 32.000000
      vertex -5.000000 19.009928 32.000000
    endloop
  endfacet
  facet normal -1.000000 0.000000 -0.000000
    outer loop
      vertex -5.000000 17.238539 3.000000
      vertex -5.000000 12.500000 32.000000
      vertex -5.000000 18.871315 31.949549
    endloop
  endfacet
  facet normal -1.000000 0.000000 0.000000
    outer loop
      vertex -5.000000 30.500000 0.000000
      vertex -5.000000 17.238539 3.000000
      vertex -5.000000 18.871315 31.949549
    endloop
  endfacet
  facet normal -1.000000 0.000000 0.000000
    outer loop
      vertex -5.000000 17.238539 3.000000
      vertex -5.000000 30.500000 0.000000
      vertex -5.000000 17.238539 0.000000
    endloop
  endfacet
  facet normal -0.207912 0.978148 0.000000
    outer loop
      vertex -5.562306 17.119017 0.000000
      vertex -5.562306 17.119017 3.000000
      vertex -5.000000 17.238539 0.000000
    endloop
  endfacet
  facet normal -0.207912 0.978148 0.000000
    outer loop
      vertex -5.000000 17.238539 0.000000
      vertex -5.562306 17.119017 3.000000
      vertex -5.000000 17.238539 3.000000
    endloop
  endfacet
  facet normal -0.406737 0.913545 0.000000
    outer loop
      vertex -9.000000 15.588457 0.000000
      vertex -9.000000 15.588457 3.000000
      vertex -5.562306 17.119017 0.000000
    endloop
  endfacet
  facet normal -0.406737 0.913545 0.000000
    outer loop
      vertex -5.562306 17.119017 0.000000
      vertex -9.000000 15.588457 3.000000
      vertex -5.562306 17.119017 3.000000
    endloop
  endfacet
  facet normal -0.587785 0.809017 0.000000
    outer loop
      vertex -12.044351 13.376607 0.000000
      vertex -12.044351 13.376607 3.000000
      vertex -9.000000 15.588457 0.000000
    endloop
  endfacet
  facet normal -0.587785 0.809017 0.000000
    outer loop
      vertex -9.000000 15.588457 0.000000
      vertex -12.044351 13.376607 3.000000
      vertex -9.000000 15.588457 3.000000
    endloop
  endfacet
  facet normal -0.743145 0.669131 0.000000
    outer loop
      vertex -14.562306 10.580135 0.000000
      vertex -14.562306 10.580135 3.000000
      vertex -12.044351 13.376607 0.000000
    endloop
  endfacet
  facet normal -0.743145 0.669131 0.000000
    outer loop
      vertex -12.044351 13.376607 0.000000
      vertex -14.562306 10.580135 3.000000
      vertex -12.044351 13.376607 3.000000
    endloop
  endfacet
  facet normal -0.866025 0.500000 0.000000
    outer loop
      vertex -16.443818 7.321260 0.000000
      vertex -16.443818 7.321260 3.000000
      vertex -14.562306 10.580135 0.000000
    endloop
  endfacet
  facet normal -0.866025 0.500000 0.000000
    outer loop
      vertex -14.562306 10.580135 0.000000
      vertex -16.443818 7.321260 3.000000
      vertex -14.562306 10.580135 3.000000
    endloop
  endfacet
  facet normal -0.951057 0.309017 0.000000
    outer loop
      vertex -17.606657 3.742410 0.000000
      vertex -17.606657 3.742410 3.000000
      vertex -16.443818 7.321260 0.000000
    endloop
  endfacet
  facet normal -0.951057 0.309017 0.000000
    outer loop
      vertex -16.443818 7.321260 0.000000
      vertex -17.606657 3.742410 3.000000
      vertex -16.443818 7.321260 3.000000
    endloop
  endfacet
  facet normal 0.991445 0.130526 0.000000
    outer loop
      vertex -7.500000 0.000000 3.000000
      vertex -7.244444 -1.941143 3.000000
      vertex -7.244444 -1.941143 0.000000
    endloop
  endfacet
  facet normal 0.991445 0.130526 0.000000
    outer loop
      vertex -7.500000 0.000000 0.000000
      vertex -7.500000 0.000000 3.000000
      vertex -7.244444 -1.941143 0.000000
    endloop
  endfacet
  facet normal 0.991445 -0.130526 0.000000
    outer loop
      vertex -7.244444 1.941143 0.000000
      vertex -7.244444 1.941143 3.000000
      vertex -7.500000 0.000000 3.000000
    endloop
  endfacet
  facet normal 0.991445 -0.130526 0.000000
    outer loop
      vertex -7.500000 0.000000 0.000000
      vertex -7.244444 1.941143 0.000000
      vertex -7.500000 0.000000 3.000000
    endloop
  endfacet
  facet normal 0.923880 -0.382683 0.000000
    outer loop
      vertex -6.495191 3.750000 0.000000
      vertex -6.495191 3.750000 3.000000
      vertex -7.244444 1.941143 3.000000
    endloop
  endfacet
  facet normal 0.923880 -0.382683 0.000000
    outer loop
      vertex -7.244444 1.941143 0.000000
      vertex -6.495191 3.750000 0.000000
      vertex -7.244444 1.941143 3.000000
    endloop
  endfacet
  facet normal 0.793353 -0.608762 0.000000
    outer loop
      vertex -5.303301 5.303301 0.000000
      vertex -5.303301 5.303301 3.000000
      vertex -6.495191 3.750000 3.000000
    endloop
  endfacet
  facet normal 0.793353 -0.608762 0.000000
    outer loop
      vertex -6.495191 3.750000 0.000000
      vertex -5.303301 5.303301 0.000000
      vertex -6.495191 3.750000 3.000000
    endloop
  endfacet
  facet normal 0.608762 -0.793353 0.000000
    outer loop
      vertex -3.750000 6.495191 0.000000
      vertex -3.750000 6.495191 3.000000
      vertex -5.303301 5.303301 3.000000
    endloop
  endfacet
  facet normal 0.608762 -0.793353 0.000000
    outer loop
      vertex -5.303301 5.303301 0.000000
      vertex -3.750000 6.495191 0.000000
      vertex -5.303301 5.303301 3.000000
    endloop
  endfacet
  facet normal 0.382683 -0.923880 0.000000
    outer loop
      vertex -1.941143 7.244444 0.000000
      vertex -1.941143 7.244444 3.000000
      vertex -3.750000 6.495191 3.000000
    endloop
  endfacet
  facet normal 0.382683 -0.923880 0.000000
    outer loop
      vertex -3.750000 6.495191 0.000000
      vertex -1.941143 7.244444 0.000000
      vertex -3.750000 6.495191 3.000000
    endloop
  endfacet
  facet normal 0.130526 -0.991445 0.000000
    outer loop
      vertex 0.000000 7.500000 0.000000
      vertex 0.000000 7.500000 3.000000
      vertex -1.941143 7.244444 3.000000
    endloop
  endfacet
  facet normal 0.130526 -0.991445 0.000000
    outer loop
      vertex -1.941143 7.244444 0.000000
      vertex 0.000000 7.500000 0.000000
      vertex -1.941143 7.244444 3.000000
    endloop
  endfacet
  facet normal -0.130526 -0.991445 -0.000000
    outer loop
      vertex 1.941143 7.244444 0.000000
      vertex 1.941143 7.244444 3.000000
      vertex 0.000000 7.500000 3.000000
    endloop
  endfacet
  facet normal -0.130526 -0.991445 -0.000000
    outer loop
      vertex 0.000000 7.500000 0.000000
      vertex 1.941143 7.244444 0.000000
      vertex 0.000000 7.500000 3.000000
    endloop
  endfacet
  facet normal -0.382683 -0.923880 -0.000000
    outer loop
      vertex 3.750000 6.495191 0.000000
      vertex 3.750000 6.495191 3.000000
      vertex 1.941143 7.244444 3.000000
    endloop
  endfacet
  facet normal -0.382683 -0.923880 -0.000000
    outer loop
      vertex 1.941143 7.244444 0.000000
      vertex 3.750000 6.495191 0.000000
      vertex 1.941143 7.244444 3.000000
    endloop
  endfacet
  facet normal -0.608762 -0.793353 -0.000000
    outer loop
      vertex 5.303301 5.303301 0.000000
      vertex 5.303301 5.303301 3.000000
      vertex 3.750000 6.495191 3.000000
    endloop
  endfacet
  facet normal -0.608762 -0.793353 -0.000000
    outer loop
      vertex 3.750000 6.495191 0.000000
      vertex 5.303301 5.303301 0.000000
      vertex 3.750000 6.495191 3.000000
    endloop
  endfacet
  facet normal -0.793353 -0.608762 0.000000
    outer loop
      vertex 6.495191 3.750000 3.000000
      vertex 5.303301 5.303301 3.000000
      vertex 6.495191 3.750000 0.000000
    endloop
  endfacet
  facet normal -0.793353 -0.608762 0.000000
    outer loop
      vertex 6.495191 3.750000 0.000000
      vertex 5.303301 5.303301 3.000000
      vertex 5.303301 5.303301 0.000000
    endloop
  endfacet
  facet normal -0.923880 -0.382683 0.000000
    outer loop
      vertex 7.244444 1.941143 3.000000
      vertex 6.495191 3.750000 3.000000
      vertex 7.244444 1.941143 0.000000
    endloop
  endfacet
  facet normal -0.923880 -0.382683 0.000000
    outer loop
      vertex 7.244444 1.941143 0.000000
      vertex 6.495191 3.750000 3.000000
      vertex 6.495191 3.750000 0.000000
    endloop
  endfacet
  facet normal -0.991445 -0.130526 0.000000
    outer loop
      vertex 7.500000 0.000000 3.000000
      vertex 7.244444 1.941143 3.000000
      vertex 7.500000 0.000000 0.000000
    endloop
  endfacet
  facet normal -0.991445 -0.130526 0.000000
    outer loop
      vertex 7.500000 0.000000 0.000000
      vertex 7.244444 1.941143 3.000000
      vertex 7.244444 1.941143 0.000000
    endloop
  endfacet
  facet normal -0.991445 0.130526 0.000000
    outer loop
      vertex 7.500000 0.000000 3.000000
      vertex 7.500000 0.000000 0.000000
      vertex 7.244444 -1.941143 3.000000
    endloop
  endfacet
  facet normal -0.991445 0.130526 0.000000
    outer loop
      vertex 7.244444 -1.941143 3.000000
      vertex 7.500000 0.000000 0.000000
      vertex 7.244444 -1.941143 0.000000
    endloop
  endfacet
  facet normal -0.923880 0.382683 0.000000
    outer loop
      vertex 7.244444 -1.941143 3.000000
      vertex 7.244444 -1.941143 0.000000
      vertex 6.495191 -3.750000 3.000000
    endloop
  endfacet
  facet normal -0.923880 0.382683 0.000000
    outer loop
      vertex 6.495191 -3.750000 3.000000
      vertex 7.244444 -1.941143 0.000000
      vertex 6.495191 -3.750000 0.000000
    endloop
  endfacet
  facet normal -0.793353 0.608762 0.000000
    outer loop
      vertex 6.495191 -3.750000 3.000000
      vertex 6.495191 -3.750000 0.000000
      vertex 5.303301 -5.303301 3.000000
    endloop
  endfacet
  facet normal -0.793353 0.608762 0.000000
    outer loop
      vertex 5.303301 -5.303301 3.000000
      vertex 6.495191 -3.750000 0.000000
      vertex 5.303301 -5.303301 0.000000
    endloop
  endfacet
  facet normal -0.608762 0.793353 0.000000
    outer loop
      vertex 5.303301 -5.303301 3.000000
      vertex 5.303301 -5.303301 0.000000
      vertex 3.750000 -6.495191 3.000000
    endloop
  endfacet
  facet normal -0.608762 0.793353 0.000000
    outer loop
      vertex 3.750000 -6.495191 3.000000
      vertex 5.303301 -5.303301 0.000000
      vertex 3.750000 -6.495191 0.000000
    endloop
  endfacet
  facet normal -0.382683 0.923880 0.000000
    outer loop
      vertex 3.750000 -6.495191 3.000000
      vertex 3.750000 -6.495191 0.000000
      vertex 1.941143 -7.244444 3.000000
    endloop
  endfacet
  facet normal -0.382683 0.923880 0.000000
    outer loop
      vertex 1.941143 -7.244444 3.000000
      vertex 3.750000 -6.495191 0.000000
      vertex 1.941143 -7.244444 0.000000
    endloop
  endfacet
  facet normal -0.130526 0.991445 0.000000
    outer loop
      vertex 1.941143 -7.244444 3.000000
      vertex 1.941143 -7.244444 0.000000
      vertex 0.000000 -7.500000 3.000000
    endloop
  endfacet
  facet normal -0.130526 0.991445 0.000000
    outer loop
      vertex 0.000000 -7.500000 3.000000
      vertex 1.941143 -7.244444 0.000000
      vertex 0.000000 -7.500000 0.000000
    endloop
  endfacet
  facet normal 0.130526 0.991445 -0.000000
    outer loop
      vertex 0.000000 -7.500000 3.000000
      vertex 0.000000 -7.500000 0.000000
      vertex -1.941143 -7.244444 3.000000
    endloop
  endfacet
  facet normal 0.130526 0.991445 -0.000000
    outer loop
      vertex -1.941143 -7.244444 3.000000
      vertex 0.000000 -7.500000 0.000000
      vertex -1.941143 -7.244444 0.000000
    endloop
  endfacet
  facet normal 0.382683 0.923880 -0.000000
    outer loop
      vertex -1.941143 -7.244444 3.000000
      vertex -1.941143 -7.244444 0.000000
      vertex -3.750000 -6.495191 3.000000
    endloop
  endfacet
  facet normal 0.382683 0.923880 -0.000000
    outer loop
      vertex -3.750000 -6.495191 3.000000
      vertex -1.941143 -7.244444 0.000000
      vertex -3.750000 -6.495191 0.000000
    endloop
  endfacet
  facet normal 0.608762 0.793353 -0.000000
    outer loop
      vertex -3.750000 -6.495191 3.000000
      vertex -3.750000 -6.495191 0.000000
      vertex -5.303301 -5.303301 3.000000
    endloop
  endfacet
  facet normal 0.608762 0.793353 -0.000000
    outer loop
      vertex -5.303301 -5.303301 3.000000
      vertex -3.750000 -6.495191 0.000000
      vertex -5.303301 -5.303301 0.000000
    endloop
  endfacet
  facet normal 0.793353 0.608762 0.000000
    outer loop
      vertex -6.495191 -3.750000 3.000000
      vertex -5.303301 -5.303301 3.000000
      vertex -5.303301 -5.303301 0.000000
    endloop
  endfacet
  facet normal 0.793353 0.608762 0.000000
    outer loop
      vertex -6.495191 -3.750000 0.000000
      vertex -6.495191 -3.750000 3.000000
      vertex -5.303301 -5.303301 0.000000
    endloop
  endfacet
  facet normal 0.923880 0.382683 0.000000
    outer loop
      vertex -7.244444 -1.941143 3.000000
      vertex -6.495191 -3.750000 3.000000
      vertex -6.495191 -3.750000 0.000000
    endloop
  endfacet
  facet normal 0.923880 0.382683 0.000000
    outer loop
      vertex -7.244444 -1.941143 0.000000
      vertex -7.244444 -1.941143 3.000000
      vertex -6.495191 -3.750000 0.000000
    endloop
  endfacet
  facet normal 0.000000 0.000000 1.000000
    outer loop
      vertex -17.606657 3.742410 3.000000
      vertex -18.000000 0.000000 3.000000
      vertex -17.606657 -3.742410 3.000000
    endloop
  endfacet
  facet normal 0.000000 0.000000 1.000000
    outer loop
      vertex -14.562306 -10.580135 3.000000
      vertex -17.606657 3.742410 3.000000
      vertex -16.443818 -7.321260 3.000000
    endloop
  endfacet
  facet normal 0.000000 0.000000 1.000000
    outer loop
      vertex -16.443818 -7.321260 3.000000
      vertex -17.606657 3.742410 3.000000
      vertex -17.606657 -3.742410 3.000000
    endloop
  endfacet
  facet normal 0.000000 0.000000 1.000000
    outer loop
      vertex -12.044351 -13.376607 3.000000
      vertex -17.606657 3.742410 3.000000
      vertex -14.562306 -10.580135 3.000000
    endloop
  endfacet
  facet normal 0.000000 0.000000 1.000000
    outer loop
      vertex -9.000000 -15.588457 3.000000
      vertex -17.606657 3.742410 3.000000
      vertex -12.044351 -13.376607 3.000000
    endloop
  endfacet
  facet normal 0.000000 0.000000 1.000000
    outer loop
      vertex -5.562306 -17.119017 3.000000
      vertex -17.606657 3.742410 3.000000
      vertex -9.000000 -15.588457 3.000000
    endloop
  endfacet
  facet normal 0.000000 0.000000 1.000000
    outer loop
      vertex -1.881512 -17.901394 3.000000
      vertex -17.606657 3.742410 3.000000
      vertex -5.562306 -17.119017 3.000000
    endloop
  endfacet
  facet normal -0.000000 0.000000 1.000000
    outer loop
      vertex 1.881512 -17.901394 3.000000
      vertex -17.606657 3.742410 3.000000
      vertex -1.881512 -17.901394 3.000000
    endloop
  endfacet
  facet normal -0.000000 0.000000 1.000000
    outer loop
      vertex 5.562306 -17.119017 3.000000
      vertex -17.606657 3.742410 3.000000
      vertex 1.881512 -17.901394 3.000000
    endloop
  endfacet
  facet normal -0.000000 -0.000000 1.000000
    outer loop
      vertex -3.750000 -6.495191 3.000000
      vertex -17.606657 3.742410 3.000000
      vertex 5.562306 -17.119017 3.000000
    endloop
  endfacet
  facet normal 0.000000 -0.000000 1.000000
    outer loop
      vertex 1.941143 -7.244444 3.000000
      vertex 0.000000 -7.500000 3.000000
      vertex 12.044351 -13.376607 3.000000
    endloop
  endfacet
  facet normal 0.000000 0.000000 1.000000
    outer loop
      vertex -7.244444 1.941143 3.000000
      vertex -6.495191 3.750000 3.000000
      vertex -17.606657 3.742410 3.000000
    endloop
  endfacet
  facet normal -0.000000 0.000000 1.000000
    outer loop
      vertex -3.750000 6.495191 3.000000
      vertex -1.941143 7.244444 3.000000
      vertex -17.606657 3.742410 3.000000
    endloop
  endfacet
  facet normal 0.000000 0.000000 1.000000
    outer loop
      vertex 6.495191 3.750000 3.000000
      vertex 7.244444 1.941143 3.000000
      vertex 17.606657 3.742410 3.000000
    endloop
  endfacet
  facet normal 0.000000 0.000000 1.000000
    outer loop
      vertex -5.000000 10.500000 3.000000
      vertex 5.000000 10.500000 3.000000
      vertex 12.044351 13.376607 3.000000
    endloop
  endfacet
  facet normal -0.000000 0.000000 1.000000
    outer loop
      vertex -5.000000 10.500000 3.000000
      vertex -5.000000 12.500000 3.000000
      vertex -17.606657 3.742410 3.000000
    endloop
  endfacet
  facet normal 0.000000 0.000000 1.000000
    outer loop
      vertex -7.500000 0.000000 3.000000
      vertex -7.244444 1.941143 3.000000
      vertex -17.606657 3.742410 3.000000
    endloop
  endfacet
  facet normal 0.000000 -0.000000 1.000000
    outer loop
      vertex 9.000000 15.588457 3.000000
      vertex 5.000000 12.500000 3.000000
      vertex 12.044351 13.376607 3.000000
    endloop
  endfacet
  facet normal 0.000000 0.000000 1.000000
    outer loop
      vertex -5.000000 17.238539 3.000000
      vertex -17.606657 3.742410 3.000000
      vertex -5.000000 12.500000 3.000000
    endloop
  endfacet
  facet normal 0.000000 -0.000000 1.000000
    outer loop
      vertex -5.562306 17.119017 3.000000
      vertex -17.606657 3.742410 3.000000
      vertex -5.000000 17.238539 3.000000
    endloop
  endfacet
  facet normal 0.000000 -0.000000 1.000000
    outer loop
      vertex -9.000000 15.588457 3.000000
      vertex -17.606657 3.742410 3.000000
      vertex -5.562306 17.119017 3.000000
    endloop
  endfacet
  facet normal 0.000000 -0.000000 1.000000
    outer loop
      vertex -12.044351 13.376607 3.000000
      vertex -17.606657 3.742410 3.000000
      vertex -9.000000 15.588457 3.000000
    endloop
  endfacet
  facet normal 0.000000 -0.000000 1.000000
    outer loop
      vertex -14.562306 10.580135 3.000000
      vertex -17.606657 3.742410 3.000000
      vertex -12.044351 13.376607 3.000000
    endloop
  endfacet
  facet normal 0.000000 -0.000000 1.000000
    outer loop
      vertex -16.443818 7.321260 3.000000
      vertex -17.606657 3.742410 3.000000
      vertex -14.562306 10.580135 3.000000
    endloop
  endfacet
  facet normal -0.000000 -0.000000 1.000000
    outer loop
      vertex -1.941143 -7.244444 3.000000
      vertex -3.750000 -6.495191 3.000000
      vertex 9.000000 -15.588457 3.000000
    endloop
  endfacet
  facet normal 0.000000 -0.000000 1.000000
    outer loop
      vertex 6.495191 -3.750000 3.000000
      vertex 5.303301 -5.303301 3.000000
      vertex 16.443818 -7.321260 3.000000
    endloop
  endfacet
  facet normal 0.000000 0.000000 1.000000
    outer loop
      vertex 0.000000 7.500000 3.000000
      vertex -5.000000 7.500000 3.000000
      vertex -1.941143 7.244444 3.000000
    endloop
  endfacet
  facet normal 0.000000 0.000000 1.000000
    outer loop
      vertex 7.244444 1.941143 3.000000
      vertex 7.500000 0.000000 3.000000
      vertex 18.000000 0.000000 3.000000
    endloop
  endfacet
  facet normal 0.000000 0.000000 1.000000
    outer loop
      vertex -3.750000 6.495191 3.000000
      vertex -17.606657 3.742410 3.000000
      vertex -5.303301 5.303301 3.000000
    endloop
  endfacet
  facet normal -0.000000 0.000000 1.000000
    outer loop
      vertex -5.000000 7.500000 3.000000
      vertex -5.000000 10.500000 3.000000
      vertex -17.606657 3.742410 3.000000
    endloop
  endfacet
  facet normal 0.000000 -0.000000 1.000000
    outer loop
      vertex -5.000000 7.500000 3.000000
      vertex -17.606657 3.742410 3.000000
      vertex -1.941143 7.244444 3.000000
    endloop
  endfacet
  facet normal 0.000000 0.000000 1.000000
    outer loop
      vertex 5.000000 10.500000 3.000000
      vertex 14.562306 10.580135 3.000000
      vertex 12.044351 13.376607 3.000000
    endloop
  endfacet
  facet normal 0.000000 0.000000 1.000000
    outer loop
      vertex -5.000000 10.500000 3.000000
      vertex 12.044351 13.376607 3.000000
      vertex 5.000000 12.500000 3.000000
    endloop
  endfacet
  facet normal 0.000000 0.000000 1.000000
    outer loop
      vertex 5.000000 7.500000 3.000000
      vertex 0.000000 7.500000 3.000000
      vertex 1.941143 7.244444 3.000000
    endloop
  endfacet
  facet normal 0.000000 0.000000 1.000000
    outer loop
      vertex 5.000000 12.500000 3.000000
      vertex -5.000000 12.500000 3.000000
      vertex -5.000000 10.500000 3.000000
    endloop
  endfacet
  facet normal 0.000000 -0.000000 1.000000
    outer loop
      vertex 14.562306 10.580135 3.000000
      vertex 5.000000 7.500000 3.000000
      vertex 16.443818 7.321260 3.000000
    endloop
  endfacet
  facet normal 0.000000 0.000000 1.000000
    outer loop
      vertex 1.941143 7.244444 3.000000
      vertex 3.750000 6.495191 3.000000
      vertex 5.000000 7.500000 3.000000
    endloop
  endfacet
  facet normal 0.000000 0.000000 1.000000
    outer loop
      vertex 3.750000 6.495191 3.000000
      vertex 5.303301 5.303301 3.000000
      vertex 16.443818 7.321260 3.000000
    endloop
  endfacet
  facet normal 0.000000 -0.000000 1.000000
    outer loop
      vertex 5.000000 7.500000 3.000000
      vertex 3.750000 6.495191 3.000000
      vertex 16.443818 7.321260 3.000000
    endloop
  endfacet
  facet normal 0.000000 -0.000000 1.000000
    outer loop
      vertex 16.443818 7.321260 3.000000
      vertex 5.303301 5.303301 3.000000
      vertex 17.606657 3.742410 3.000000
    endloop
  endfacet
  facet normal 0.000000 0.000000 1.000000
    outer loop
      vertex 5.303301 5.303301 3.000000
      vertex 6.495191 3.750000 3.000000
      vertex 17.606657 3.742410 3.000000
    endloop
  endfacet
  facet normal 0.000000 -0.000000 1.000000
    outer loop
      vertex 17.606657 3.742410 3.000000
      vertex 7.244444 1.941143 3.000000
      vertex 18.000000 0.000000 3.000000
    endloop
  endfacet
  facet normal -0.000000 0.000000 1.000000
    outer loop
      vertex -6.495191 3.750000 3.000000
      vertex -5.303301 5.303301 3.000000
      vertex -17.606657 3.742410 3.000000
    endloop
  endfacet
  facet normal 0.000000 0.000000 1.000000
    outer loop
      vertex 18.000000 0.000000 3.000000
      vertex 7.500000 0.000000 3.000000
      vertex 17.606657 -3.742410 3.000000
    endloop
  endfacet
  facet normal -0.000000 0.000000 1.000000
    outer loop
      vertex 17.606657 -3.742410 3.000000
      vertex 7.244444 -1.941143 3.000000
      vertex 16.443818 -7.321260 3.000000
    endloop
  endfacet
  facet normal 0.000000 -0.000000 1.000000
    outer loop
      vertex 5.303301 -5.303301 3.000000
      vertex 3.750000 -6.495191 3.000000
      vertex 14.562306 -10.580135 3.000000
    endloop
  endfacet
  facet normal 0.000000 -0.000000 1.000000
    outer loop
      vertex 7.244444 -1.941143 3.000000
      vertex 6.495191 -3.750000 3.000000
      vertex 16.443818 -7.321260 3.000000
    endloop
  endfacet
  facet normal 0.000000 -0.000000 1.000000
    outer loop
      vertex 7.500000 0.000000 3.000000
      vertex 7.244444 -1.941143 3.000000
      vertex 17.606657 -3.742410 3.000000
    endloop
  endfacet
  facet normal -0.000000 0.000000 1.000000
    outer loop
      vertex 16.443818 -7.321260 3.000000
      vertex 5.303301 -5.303301 3.000000
      vertex 14.562306 -10.580135 3.000000
    endloop
  endfacet
  facet normal -0.000000 0.000000 1.000000
    outer loop
      vertex 14.562306 -10.580135 3.000000
      vertex 3.750000 -6.495191 3.000000
      vertex 12.044351 -13.376607 3.000000
    endloop
  endfacet
  facet normal 0.000000 -0.000000 1.000000
    outer loop
      vertex 3.750000 -6.495191 3.000000
      vertex 1.941143 -7.244444 3.000000
      vertex 12.044351 -13.376607 3.000000
    endloop
  endfacet
  facet normal -0.000000 0.000000 1.000000
    outer loop
      vertex 12.044351 -13.376607 3.000000
      vertex 0.000000 -7.500000 3.000000
      vertex 9.000000 -15.588457 3.000000
    endloop
  endfacet
  facet normal 0.000000 0.000000 1.000000
    outer loop
      vertex -7.244444 -1.941143 3.000000
      vertex -7.500000 0.000000 3.000000
      vertex -17.606657 3.742410 3.000000
    endloop
  endfacet
  facet normal -0.000000 -0.000000 1.000000
    outer loop
      vertex 0.000000 -7.500000 3.000000
      vertex -1.941143 -7.244444 3.000000
      vertex 9.000000 -15.588457 3.000000
    endloop
  endfacet
  facet normal -0.000000 0.000000 1.000000
    outer loop
      vertex 9.000000 -15.588457 3.000000
      vertex -3.750000 -6.495191 3.000000
      vertex 5.562306 -17.119017 3.000000
    endloop
  endfacet
  facet normal -0.000000 -0.000000 1.000000
    outer loop
      vertex -5.303301 -5.303301 3.000000
      vertex -17.606657 3.742410 3.000000
      vertex -3.750000 -6.495191 3.000000
    endloop
  endfacet
  facet normal 0.000000 0.000000 1.000000
    outer loop
      vertex -5.303301 -5.303301 3.000000
      vertex -6.495191 -3.750000 3.000000
      vertex -17.606657 3.742410 3.000000
    endloop
  endfacet
  facet normal 0.000000 0.000000 1.000000
    outer loop
      vertex -6.495191 -3.750000 3.000000
      vertex -7.244444 -1.941143 3.000000
      vertex -17.606657 3.742410 3.000000
    endloop
  endfacet
  facet normal 0.000000 0.000000 1.000000
    outer loop
      vertex 5.000000 17.238539 3.000000
      vertex 9.000000 15.588457 3.000000
      vertex 5.562306 17.119017 3.000000
    endloop
  endfacet
  facet normal 0.000000 -0.000000 1.000000
    outer loop
      vertex 5.000000 17.238539 3.000000
      vertex 5.000000 12.500000 3.000000
      vertex 9.000000 15.588457 3.000000
    endloop
  endfacet
  facet normal 0.000000 -0.000000 1.000000
    outer loop
      vertex 5.000000 10.500000 3.000000
      vertex 5.000000 7.500000 3.000000
      vertex 14.562306 10.580135 3.000000
    endloop
  endfacet
  facet normal 0.000000 -0.000000 1.000000
    outer loop
      vertex -5.000000 19.009928 32.000000
      vertex -5.000000 12.500000 32.000000
      vertex 5.000000 12.500000 32.000000
    endloop
  endfacet
  facet normal 0.000000 0.000000 1.000000
    outer loop
      vertex 5.000000 19.009928 32.000000
      vertex -5.000000 19.009928 32.000000
      vertex 5.000000 12.500000 32.000000
    endloop
  endfacet
  facet normal 0.000000 -1.000000 0.000000
    outer loop
      vertex -5.000000 12.500000 32.000000
      vertex -5.000000 12.500000 3.000000
      vertex 5.000000 12.500000 3.000000
    endloop
  endfacet
  facet normal 0.000000 -1.000000 0.000000
    outer loop
      vertex 5.000000 12.500000 32.000000
      vertex -5.000000 12.500000 32.000000
      vertex 5.000000 12.500000 3.000000
    endloop
  endfacet
  facet normal 0.000000 0.342020 -0.939693
    outer loop
      vertex 5.000000 19.009928 32.000000
      vertex 5.000000 18.871315 31.949549
      vertex -5.000000 19.009928 32.000000
    endloop
  endfacet
  facet normal 0.000000 0.342020 -0.939693
    outer loop
      vertex -5.000000 19.009928 32.000000
      vertex 5.000000 18.871315 31.949549
      vertex -5.000000 18.871315 31.949549
    endloop
  endfacet
  facet normal 0.000000 -1.000000 0.000000
    outer loop
      vertex -5.000000 7.500000 32.000000
      vertex -5.000000 7.500000 3.000000
      vertex 0.000000 7.500000 3.000000
    endloop
  endfacet
  facet normal 0.000000 -1.000000 0.000000
    outer loop
      vertex 5.000000 7.500000 32.000000
      vertex -5.000000 7.500000 32.000000
      vertex 5.000000 7.500000 3.000000
    endloop
  endfacet
  facet normal 0.000000 -1.000000 0.000000
    outer loop
      vertex 5.000000 7.500000 3.000000
      vertex -5.000000 7.500000 32.000000
      vertex 0.000000 7.500000 3.000000
    endloop
  endfacet
  facet normal 1.000000 0.000000 -0.000000
    outer loop
      vertex 5.000000 7.500000 32.000000
      vertex 5.000000 7.500000 3.000000
      vertex 5.000000 10.500000 3.000000
    endloop
  endfacet
  facet normal 1.000000 0.000000 0.000000
    outer loop
      vertex 5.000000 10.500000 32.000000
      vertex 5.000000 7.500000 32.000000
      vertex 5.000000 10.500000 3.000000
    endloop
  endfacet
  facet normal 0.000000 1.000000 0.000000
    outer loop
      vertex -5.000000 10.500000 3.000000
      vertex -5.000000 10.500000 32.000000
      vertex 5.000000 10.500000 3.000000
    endloop
  endfacet
  facet normal 0.000000 1.000000 0.000000
    outer loop
      vertex 5.000000 10.500000 3.000000
      vertex -5.000000 10.500000 32.000000
      vertex 5.000000 10.500000 32.000000
    endloop
  endfacet
  facet normal -1.000000 -0.000000 -0.000000
    outer loop
      vertex -5.000000 7.500000 3.000000
      vertex -5.000000 7.500000 32.000000
      vertex -5.000000 10.500000 3.000000
    endloop
  endfacet
  facet normal -1.000000 0.000000 0.000000
    outer loop
      vertex -5.000000 10.500000 3.000000
      vertex -5.000000 7.500000 32.000000
      vertex -5.000000 10.500000 32.000000
    endloop
  endfacet
  facet normal 0.000000 -0.000000 1.000000
    outer loop
      vertex -5.000000 10.500000 32.000000
      vertex -5.000000 7.500000 32.000000
      vertex 5.000000 7.500000 32.000000
    endloop
  endfacet
  facet normal 0.000000 0.000000 1.000000
    outer loop
      vertex 5.000000 10.500000 32.000000
      vertex -5.000000 10.500000 32.000000
      vertex 5.000000 7.500000 32.000000
    endloop
  endfacet
endsolid OpenSCAD_Model
