<?xml version="1.0" encoding="utf-8"?>
<!-- Generator: Adobe Illustrator 16.0.0, SVG Export Plug-In . SVG Version: 6.00 Build 0)  -->
<!DOCTYPE svg PUBLIC "-//W3C//DTD SVG 1.1//EN" "http://www.w3.org/Graphics/SVG/1.1/DTD/svg11.dtd">
<svg version="1.1" id="Layer_1" xmlns:ev="http://www.w3.org/2001/xml-events"
	 xmlns="http://www.w3.org/2000/svg" xmlns:xlink="http://www.w3.org/1999/xlink" x="0px" y="0px" width="165px" height="165px"
	 viewBox="0 0 165 165" enable-background="new 0 0 165 165" xml:space="preserve">
<desc></desc>
<rect fill="#FFFFFF" width="165" height="165"/>
<g>
	<g>
		<rect id="p" x="20" y="20" width="5" height="5"/>
	</g>
	<g>
		<rect id="p_1_" x="20" y="25" width="5" height="5"/>
	</g>
	<g>
		<rect id="p_2_" x="20" y="30" width="5" height="5"/>
	</g>
	<g>
		<rect id="p_3_" x="20" y="35" width="5" height="5"/>
	</g>
	<g>
		<rect id="p_4_" x="20" y="40" width="5" height="5"/>
	</g>
	<g>
		<rect id="p_5_" x="20" y="45" width="5" height="5"/>
	</g>
	<g>
		<rect id="p_6_" x="20" y="50" width="5" height="5"/>
	</g>
	<g>
		<rect id="p_7_" x="20" y="60" width="5" height="5"/>
	</g>
	<g>
		<rect id="p_8_" x="20" y="110" width="5" height="5"/>
	</g>
	<g>
		<rect id="p_9_" x="20" y="115" width="5" height="5"/>
	</g>
	<g>
		<rect id="p_10_" x="20" y="120" width="5" height="5"/>
	</g>
	<g>
		<rect id="p_11_" x="20" y="125" width="5" height="5"/>
	</g>
	<g>
		<rect id="p_12_" x="20" y="130" width="5" height="5"/>
	</g>
	<g>
		<rect id="p_13_" x="20" y="135" width="5" height="5"/>
	</g>
	<g>
		<rect id="p_14_" x="20" y="140" width="5" height="5"/>
	</g>
	<g>
		<rect id="p_15_" x="25" y="20" width="5" height="5"/>
	</g>
	<g>
		<rect id="p_16_" x="25" y="50" width="5" height="5"/>
	</g>
	<g>
		<rect id="p_17_" x="25" y="60" width="5" height="5"/>
	</g>
	<g>
		<rect id="p_18_" x="25" y="70" width="5" height="5"/>
	</g>
	<g>
		<rect id="p_19_" x="25" y="90" width="5" height="5"/>
	</g>
	<g>
		<rect id="p_20_" x="25" y="95" width="5" height="5"/>
	</g>
	<g>
		<rect id="p_21_" x="25" y="100" width="5" height="5"/>
	</g>
	<g>
		<rect id="p_22_" x="25" y="110" width="5" height="5"/>
	</g>
	<g>
		<rect id="p_23_" x="25" y="140" width="5" height="5"/>
	</g>
	<g>
		<rect id="p_24_" x="30" y="20" width="5" height="5"/>
	</g>
	<g>
		<rect id="p_25_" x="30" y="30" width="5" height="5"/>
	</g>
	<g>
		<rect id="p_26_" x="30" y="35" width="5" height="5"/>
	</g>
	<g>
		<rect id="p_27_" x="30" y="40" width="5" height="5"/>
	</g>
	<g>
		<rect id="p_28_" x="30" y="50" width="5" height="5"/>
	</g>
	<g>
		<rect id="p_29_" x="30" y="65" width="5" height="5"/>
	</g>
	<g>
		<rect id="p_30_" x="30" y="75" width="5" height="5"/>
	</g>
	<g>
		<rect id="p_31_" x="30" y="80" width="5" height="5"/>
	</g>
	<g>
		<rect id="p_32_" x="30" y="85" width="5" height="5"/>
	</g>
	<g>
		<rect id="p_33_" x="30" y="90" width="5" height="5"/>
	</g>
	<g>
		<rect id="p_34_" x="30" y="95" width="5" height="5"/>
	</g>
	<g>
		<rect id="p_35_" x="30" y="100" width="5" height="5"/>
	</g>
	<g>
		<rect id="p_36_" x="30" y="110" width="5" height="5"/>
	</g>
	<g>
		<rect id="p_37_" x="30" y="120" width="5" height="5"/>
	</g>
	<g>
		<rect id="p_38_" x="30" y="125" width="5" height="5"/>
	</g>
	<g>
		<rect id="p_39_" x="30" y="130" width="5" height="5"/>
	</g>
	<g>
		<rect id="p_40_" x="30" y="140" width="5" height="5"/>
	</g>
	<g>
		<rect id="p_41_" x="35" y="20" width="5" height="5"/>
	</g>
	<g>
		<rect id="p_42_" x="35" y="30" width="5" height="5"/>
	</g>
	<g>
		<rect id="p_43_" x="35" y="35" width="5" height="5"/>
	</g>
	<g>
		<rect id="p_44_" x="35" y="40" width="5" height="5"/>
	</g>
	<g>
		<rect id="p_45_" x="35" y="50" width="5" height="5"/>
	</g>
	<g>
		<rect id="p_46_" x="35" y="70" width="5" height="5"/>
	</g>
	<g>
		<rect id="p_47_" x="35" y="85" width="5" height="5"/>
	</g>
	<g>
		<rect id="p_48_" x="35" y="90" width="5" height="5"/>
	</g>
	<g>
		<rect id="p_49_" x="35" y="95" width="5" height="5"/>
	</g>
	<g>
		<rect id="p_50_" x="35" y="110" width="5" height="5"/>
	</g>
	<g>
		<rect id="p_51_" x="35" y="120" width="5" height="5"/>
	</g>
	<g>
		<rect id="p_52_" x="35" y="125" width="5" height="5"/>
	</g>
	<g>
		<rect id="p_53_" x="35" y="130" width="5" height="5"/>
	</g>
	<g>
		<rect id="p_54_" x="35" y="140" width="5" height="5"/>
	</g>
	<g>
		<rect id="p_55_" x="40" y="20" width="5" height="5"/>
	</g>
	<g>
		<rect id="p_56_" x="40" y="30" width="5" height="5"/>
	</g>
	<g>
		<rect id="p_57_" x="40" y="35" width="5" height="5"/>
	</g>
	<g>
		<rect id="p_58_" x="40" y="40" width="5" height="5"/>
	</g>
	<g>
		<rect id="p_59_" x="40" y="50" width="5" height="5"/>
	</g>
	<g>
		<rect id="p_60_" x="40" y="70" width="5" height="5"/>
	</g>
	<g>
		<rect id="p_61_" x="40" y="75" width="5" height="5"/>
	</g>
	<g>
		<rect id="p_62_" x="40" y="85" width="5" height="5"/>
	</g>
	<g>
		<rect id="p_63_" x="40" y="90" width="5" height="5"/>
	</g>
	<g>
		<rect id="p_64_" x="40" y="110" width="5" height="5"/>
	</g>
	<g>
		<rect id="p_65_" x="40" y="120" width="5" height="5"/>
	</g>
	<g>
		<rect id="p_66_" x="40" y="125" width="5" height="5"/>
	</g>
	<g>
		<rect id="p_67_" x="40" y="130" width="5" height="5"/>
	</g>
	<g>
		<rect id="p_68_" x="40" y="140" width="5" height="5"/>
	</g>
	<g>
		<rect id="p_69_" x="45" y="20" width="5" height="5"/>
	</g>
	<g>
		<rect id="p_70_" x="45" y="50" width="5" height="5"/>
	</g>
	<g>
		<rect id="p_71_" x="45" y="60" width="5" height="5"/>
	</g>
	<g>
		<rect id="p_72_" x="45" y="75" width="5" height="5"/>
	</g>
	<g>
		<rect id="p_73_" x="45" y="85" width="5" height="5"/>
	</g>
	<g>
		<rect id="p_74_" x="45" y="95" width="5" height="5"/>
	</g>
	<g>
		<rect id="p_75_" x="45" y="110" width="5" height="5"/>
	</g>
	<g>
		<rect id="p_76_" x="45" y="140" width="5" height="5"/>
	</g>
	<g>
		<rect id="p_77_" x="50" y="20" width="5" height="5"/>
	</g>
	<g>
		<rect id="p_78_" x="50" y="25" width="5" height="5"/>
	</g>
	<g>
		<rect id="p_79_" x="50" y="30" width="5" height="5"/>
	</g>
	<g>
		<rect id="p_80_" x="50" y="35" width="5" height="5"/>
	</g>
	<g>
		<rect id="p_81_" x="50" y="40" width="5" height="5"/>
	</g>
	<g>
		<rect id="p_82_" x="50" y="45" width="5" height="5"/>
	</g>
	<g>
		<rect id="p_83_" x="50" y="50" width="5" height="5"/>
	</g>
	<g>
		<rect id="p_84_" x="50" y="60" width="5" height="5"/>
	</g>
	<g>
		<rect id="p_85_" x="50" y="70" width="5" height="5"/>
	</g>
	<g>
		<rect id="p_86_" x="50" y="80" width="5" height="5"/>
	</g>
	<g>
		<rect id="p_87_" x="50" y="90" width="5" height="5"/>
	</g>
	<g>
		<rect id="p_88_" x="50" y="100" width="5" height="5"/>
	</g>
	<g>
		<rect id="p_89_" x="50" y="110" width="5" height="5"/>
	</g>
	<g>
		<rect id="p_90_" x="50" y="115" width="5" height="5"/>
	</g>
	<g>
		<rect id="p_91_" x="50" y="120" width="5" height="5"/>
	</g>
	<g>
		<rect id="p_92_" x="50" y="125" width="5" height="5"/>
	</g>
	<g>
		<rect id="p_93_" x="50" y="130" width="5" height="5"/>
	</g>
	<g>
		<rect id="p_94_" x="50" y="135" width="5" height="5"/>
	</g>
	<g>
		<rect id="p_95_" x="50" y="140" width="5" height="5"/>
	</g>
	<g>
		<rect id="p_96_" x="55" y="60" width="5" height="5"/>
	</g>
	<g>
		<rect id="p_97_" x="55" y="65" width="5" height="5"/>
	</g>
	<g>
		<rect id="p_98_" x="55" y="70" width="5" height="5"/>
	</g>
	<g>
		<rect id="p_99_" x="55" y="75" width="5" height="5"/>
	</g>
	<g>
		<rect id="p_100_" x="55" y="90" width="5" height="5"/>
	</g>
	<g>
		<rect id="p_101_" x="55" y="100" width="5" height="5"/>
	</g>
	<g>
		<rect id="p_102_" x="60" y="35" width="5" height="5"/>
	</g>
	<g>
		<rect id="p_103_" x="60" y="40" width="5" height="5"/>
	</g>
	<g>
		<rect id="p_104_" x="60" y="50" width="5" height="5"/>
	</g>
	<g>
		<rect id="p_105_" x="60" y="65" width="5" height="5"/>
	</g>
	<g>
		<rect id="p_106_" x="60" y="70" width="5" height="5"/>
	</g>
	<g>
		<rect id="p_107_" x="60" y="85" width="5" height="5"/>
	</g>
	<g>
		<rect id="p_108_" x="60" y="95" width="5" height="5"/>
	</g>
	<g>
		<rect id="p_109_" x="60" y="100" width="5" height="5"/>
	</g>
	<g>
		<rect id="p_110_" x="60" y="105" width="5" height="5"/>
	</g>
	<g>
		<rect id="p_111_" x="60" y="110" width="5" height="5"/>
	</g>
	<g>
		<rect id="p_112_" x="60" y="115" width="5" height="5"/>
	</g>
	<g>
		<rect id="p_113_" x="60" y="135" width="5" height="5"/>
	</g>
	<g>
		<rect id="p_114_" x="60" y="140" width="5" height="5"/>
	</g>
	<g>
		<rect id="p_115_" x="65" y="25" width="5" height="5"/>
	</g>
	<g>
		<rect id="p_116_" x="65" y="40" width="5" height="5"/>
	</g>
	<g>
		<rect id="p_117_" x="65" y="60" width="5" height="5"/>
	</g>
	<g>
		<rect id="p_118_" x="65" y="65" width="5" height="5"/>
	</g>
	<g>
		<rect id="p_119_" x="65" y="75" width="5" height="5"/>
	</g>
	<g>
		<rect id="p_120_" x="65" y="80" width="5" height="5"/>
	</g>
	<g>
		<rect id="p_121_" x="65" y="85" width="5" height="5"/>
	</g>
	<g>
		<rect id="p_122_" x="65" y="90" width="5" height="5"/>
	</g>
	<g>
		<rect id="p_123_" x="65" y="95" width="5" height="5"/>
	</g>
	<g>
		<rect id="p_124_" x="65" y="110" width="5" height="5"/>
	</g>
	<g>
		<rect id="p_125_" x="65" y="115" width="5" height="5"/>
	</g>
	<g>
		<rect id="p_126_" x="65" y="125" width="5" height="5"/>
	</g>
	<g>
		<rect id="p_127_" x="70" y="25" width="5" height="5"/>
	</g>
	<g>
		<rect id="p_128_" x="70" y="50" width="5" height="5"/>
	</g>
	<g>
		<rect id="p_129_" x="70" y="55" width="5" height="5"/>
	</g>
	<g>
		<rect id="p_130_" x="70" y="70" width="5" height="5"/>
	</g>
	<g>
		<rect id="p_131_" x="70" y="95" width="5" height="5"/>
	</g>
	<g>
		<rect id="p_132_" x="70" y="110" width="5" height="5"/>
	</g>
	<g>
		<rect id="p_133_" x="70" y="120" width="5" height="5"/>
	</g>
	<g>
		<rect id="p_134_" x="70" y="125" width="5" height="5"/>
	</g>
	<g>
		<rect id="p_135_" x="70" y="140" width="5" height="5"/>
	</g>
	<g>
		<rect id="p_136_" x="75" y="20" width="5" height="5"/>
	</g>
	<g>
		<rect id="p_137_" x="75" y="45" width="5" height="5"/>
	</g>
	<g>
		<rect id="p_138_" x="75" y="55" width="5" height="5"/>
	</g>
	<g>
		<rect id="p_139_" x="75" y="60" width="5" height="5"/>
	</g>
	<g>
		<rect id="p_140_" x="75" y="80" width="5" height="5"/>
	</g>
	<g>
		<rect id="p_141_" x="75" y="90" width="5" height="5"/>
	</g>
	<g>
		<rect id="p_142_" x="75" y="95" width="5" height="5"/>
	</g>
	<g>
		<rect id="p_143_" x="75" y="100" width="5" height="5"/>
	</g>
	<g>
		<rect id="p_144_" x="75" y="110" width="5" height="5"/>
	</g>
	<g>
		<rect id="p_145_" x="75" y="130" width="5" height="5"/>
	</g>
	<g>
		<rect id="p_146_" x="75" y="135" width="5" height="5"/>
	</g>
	<g>
		<rect id="p_147_" x="80" y="20" width="5" height="5"/>
	</g>
	<g>
		<rect id="p_148_" x="80" y="30" width="5" height="5"/>
	</g>
	<g>
		<rect id="p_149_" x="80" y="35" width="5" height="5"/>
	</g>
	<g>
		<rect id="p_150_" x="80" y="45" width="5" height="5"/>
	</g>
	<g>
		<rect id="p_151_" x="80" y="50" width="5" height="5"/>
	</g>
	<g>
		<rect id="p_152_" x="80" y="65" width="5" height="5"/>
	</g>
	<g>
		<rect id="p_153_" x="80" y="75" width="5" height="5"/>
	</g>
	<g>
		<rect id="p_154_" x="80" y="80" width="5" height="5"/>
	</g>
	<g>
		<rect id="p_155_" x="80" y="90" width="5" height="5"/>
	</g>
	<g>
		<rect id="p_156_" x="80" y="105" width="5" height="5"/>
	</g>
	<g>
		<rect id="p_157_" x="80" y="115" width="5" height="5"/>
	</g>
	<g>
		<rect id="p_158_" x="80" y="120" width="5" height="5"/>
	</g>
	<g>
		<rect id="p_159_" x="80" y="130" width="5" height="5"/>
	</g>
	<g>
		<rect id="p_160_" x="85" y="25" width="5" height="5"/>
	</g>
	<g>
		<rect id="p_161_" x="85" y="35" width="5" height="5"/>
	</g>
	<g>
		<rect id="p_162_" x="85" y="45" width="5" height="5"/>
	</g>
	<g>
		<rect id="p_163_" x="85" y="60" width="5" height="5"/>
	</g>
	<g>
		<rect id="p_164_" x="85" y="65" width="5" height="5"/>
	</g>
	<g>
		<rect id="p_165_" x="85" y="70" width="5" height="5"/>
	</g>
	<g>
		<rect id="p_166_" x="85" y="85" width="5" height="5"/>
	</g>
	<g>
		<rect id="p_167_" x="85" y="105" width="5" height="5"/>
	</g>
	<g>
		<rect id="p_168_" x="85" y="115" width="5" height="5"/>
	</g>
	<g>
		<rect id="p_169_" x="85" y="140" width="5" height="5"/>
	</g>
	<g>
		<rect id="p_170_" x="90" y="20" width="5" height="5"/>
	</g>
	<g>
		<rect id="p_171_" x="90" y="25" width="5" height="5"/>
	</g>
	<g>
		<rect id="p_172_" x="90" y="50" width="5" height="5"/>
	</g>
	<g>
		<rect id="p_173_" x="90" y="55" width="5" height="5"/>
	</g>
	<g>
		<rect id="p_174_" x="90" y="60" width="5" height="5"/>
	</g>
	<g>
		<rect id="p_175_" x="90" y="65" width="5" height="5"/>
	</g>
	<g>
		<rect id="p_176_" x="90" y="70" width="5" height="5"/>
	</g>
	<g>
		<rect id="p_177_" x="90" y="75" width="5" height="5"/>
	</g>
	<g>
		<rect id="p_178_" x="90" y="90" width="5" height="5"/>
	</g>
	<g>
		<rect id="p_179_" x="90" y="120" width="5" height="5"/>
	</g>
	<g>
		<rect id="p_180_" x="90" y="125" width="5" height="5"/>
	</g>
	<g>
		<rect id="p_181_" x="90" y="135" width="5" height="5"/>
	</g>
	<g>
		<rect id="p_182_" x="90" y="140" width="5" height="5"/>
	</g>
	<g>
		<rect id="p_183_" x="95" y="30" width="5" height="5"/>
	</g>
	<g>
		<rect id="p_184_" x="95" y="60" width="5" height="5"/>
	</g>
	<g>
		<rect id="p_185_" x="95" y="65" width="5" height="5"/>
	</g>
	<g>
		<rect id="p_186_" x="95" y="70" width="5" height="5"/>
	</g>
	<g>
		<rect id="p_187_" x="95" y="85" width="5" height="5"/>
	</g>
	<g>
		<rect id="p_188_" x="95" y="90" width="5" height="5"/>
	</g>
	<g>
		<rect id="p_189_" x="95" y="95" width="5" height="5"/>
	</g>
	<g>
		<rect id="p_190_" x="95" y="100" width="5" height="5"/>
	</g>
	<g>
		<rect id="p_191_" x="95" y="105" width="5" height="5"/>
	</g>
	<g>
		<rect id="p_192_" x="95" y="115" width="5" height="5"/>
	</g>
	<g>
		<rect id="p_193_" x="95" y="120" width="5" height="5"/>
	</g>
	<g>
		<rect id="p_194_" x="95" y="130" width="5" height="5"/>
	</g>
	<g>
		<rect id="p_195_" x="95" y="135" width="5" height="5"/>
	</g>
	<g>
		<rect id="p_196_" x="100" y="20" width="5" height="5"/>
	</g>
	<g>
		<rect id="p_197_" x="100" y="30" width="5" height="5"/>
	</g>
	<g>
		<rect id="p_198_" x="100" y="35" width="5" height="5"/>
	</g>
	<g>
		<rect id="p_199_" x="100" y="40" width="5" height="5"/>
	</g>
	<g>
		<rect id="p_200_" x="100" y="45" width="5" height="5"/>
	</g>
	<g>
		<rect id="p_201_" x="100" y="50" width="5" height="5"/>
	</g>
	<g>
		<rect id="p_202_" x="100" y="55" width="5" height="5"/>
	</g>
	<g>
		<rect id="p_203_" x="100" y="70" width="5" height="5"/>
	</g>
	<g>
		<rect id="p_204_" x="100" y="85" width="5" height="5"/>
	</g>
	<g>
		<rect id="p_205_" x="100" y="90" width="5" height="5"/>
	</g>
	<g>
		<rect id="p_206_" x="100" y="95" width="5" height="5"/>
	</g>
	<g>
		<rect id="p_207_" x="100" y="100" width="5" height="5"/>
	</g>
	<g>
		<rect id="p_208_" x="100" y="105" width="5" height="5"/>
	</g>
	<g>
		<rect id="p_209_" x="100" y="110" width="5" height="5"/>
	</g>
	<g>
		<rect id="p_210_" x="100" y="115" width="5" height="5"/>
	</g>
	<g>
		<rect id="p_211_" x="100" y="120" width="5" height="5"/>
	</g>
	<g>
		<rect id="p_212_" x="100" y="130" width="5" height="5"/>
	</g>
	<g>
		<rect id="p_213_" x="100" y="135" width="5" height="5"/>
	</g>
	<g>
		<rect id="p_214_" x="100" y="140" width="5" height="5"/>
	</g>
	<g>
		<rect id="p_215_" x="105" y="65" width="5" height="5"/>
	</g>
	<g>
		<rect id="p_216_" x="105" y="70" width="5" height="5"/>
	</g>
	<g>
		<rect id="p_217_" x="105" y="75" width="5" height="5"/>
	</g>
	<g>
		<rect id="p_218_" x="105" y="95" width="5" height="5"/>
	</g>
	<g>
		<rect id="p_219_" x="105" y="100" width="5" height="5"/>
	</g>
	<g>
		<rect id="p_220_" x="105" y="120" width="5" height="5"/>
	</g>
	<g>
		<rect id="p_221_" x="105" y="125" width="5" height="5"/>
	</g>
	<g>
		<rect id="p_222_" x="110" y="20" width="5" height="5"/>
	</g>
	<g>
		<rect id="p_223_" x="110" y="25" width="5" height="5"/>
	</g>
	<g>
		<rect id="p_224_" x="110" y="30" width="5" height="5"/>
	</g>
	<g>
		<rect id="p_225_" x="110" y="35" width="5" height="5"/>
	</g>
	<g>
		<rect id="p_226_" x="110" y="40" width="5" height="5"/>
	</g>
	<g>
		<rect id="p_227_" x="110" y="45" width="5" height="5"/>
	</g>
	<g>
		<rect id="p_228_" x="110" y="50" width="5" height="5"/>
	</g>
	<g>
		<rect id="p_229_" x="110" y="70" width="5" height="5"/>
	</g>
	<g>
		<rect id="p_230_" x="110" y="80" width="5" height="5"/>
	</g>
	<g>
		<rect id="p_231_" x="110" y="90" width="5" height="5"/>
	</g>
	<g>
		<rect id="p_232_" x="110" y="95" width="5" height="5"/>
	</g>
	<g>
		<rect id="p_233_" x="110" y="100" width="5" height="5"/>
	</g>
	<g>
		<rect id="p_234_" x="110" y="110" width="5" height="5"/>
	</g>
	<g>
		<rect id="p_235_" x="110" y="120" width="5" height="5"/>
	</g>
	<g>
		<rect id="p_236_" x="110" y="125" width="5" height="5"/>
	</g>
	<g>
		<rect id="p_237_" x="110" y="140" width="5" height="5"/>
	</g>
	<g>
		<rect id="p_238_" x="115" y="20" width="5" height="5"/>
	</g>
	<g>
		<rect id="p_239_" x="115" y="50" width="5" height="5"/>
	</g>
	<g>
		<rect id="p_240_" x="115" y="65" width="5" height="5"/>
	</g>
	<g>
		<rect id="p_241_" x="115" y="70" width="5" height="5"/>
	</g>
	<g>
		<rect id="p_242_" x="115" y="80" width="5" height="5"/>
	</g>
	<g>
		<rect id="p_243_" x="115" y="85" width="5" height="5"/>
	</g>
	<g>
		<rect id="p_244_" x="115" y="90" width="5" height="5"/>
	</g>
	<g>
		<rect id="p_245_" x="115" y="100" width="5" height="5"/>
	</g>
	<g>
		<rect id="p_246_" x="115" y="120" width="5" height="5"/>
	</g>
	<g>
		<rect id="p_247_" x="115" y="125" width="5" height="5"/>
	</g>
	<g>
		<rect id="p_248_" x="115" y="130" width="5" height="5"/>
	</g>
	<g>
		<rect id="p_249_" x="115" y="135" width="5" height="5"/>
	</g>
	<g>
		<rect id="p_250_" x="120" y="20" width="5" height="5"/>
	</g>
	<g>
		<rect id="p_251_" x="120" y="30" width="5" height="5"/>
	</g>
	<g>
		<rect id="p_252_" x="120" y="35" width="5" height="5"/>
	</g>
	<g>
		<rect id="p_253_" x="120" y="40" width="5" height="5"/>
	</g>
	<g>
		<rect id="p_254_" x="120" y="50" width="5" height="5"/>
	</g>
	<g>
		<rect id="p_255_" x="120" y="60" width="5" height="5"/>
	</g>
	<g>
		<rect id="p_256_" x="120" y="65" width="5" height="5"/>
	</g>
	<g>
		<rect id="p_257_" x="120" y="90" width="5" height="5"/>
	</g>
	<g>
		<rect id="p_258_" x="120" y="95" width="5" height="5"/>
	</g>
	<g>
		<rect id="p_259_" x="120" y="100" width="5" height="5"/>
	</g>
	<g>
		<rect id="p_260_" x="120" y="105" width="5" height="5"/>
	</g>
	<g>
		<rect id="p_261_" x="120" y="110" width="5" height="5"/>
	</g>
	<g>
		<rect id="p_262_" x="120" y="115" width="5" height="5"/>
	</g>
	<g>
		<rect id="p_263_" x="120" y="120" width="5" height="5"/>
	</g>
	<g>
		<rect id="p_264_" x="120" y="135" width="5" height="5"/>
	</g>
	<g>
		<rect id="p_265_" x="125" y="20" width="5" height="5"/>
	</g>
	<g>
		<rect id="p_266_" x="125" y="30" width="5" height="5"/>
	</g>
	<g>
		<rect id="p_267_" x="125" y="35" width="5" height="5"/>
	</g>
	<g>
		<rect id="p_268_" x="125" y="40" width="5" height="5"/>
	</g>
	<g>
		<rect id="p_269_" x="125" y="50" width="5" height="5"/>
	</g>
	<g>
		<rect id="p_270_" x="125" y="60" width="5" height="5"/>
	</g>
	<g>
		<rect id="p_271_" x="125" y="65" width="5" height="5"/>
	</g>
	<g>
		<rect id="p_272_" x="125" y="70" width="5" height="5"/>
	</g>
	<g>
		<rect id="p_273_" x="125" y="75" width="5" height="5"/>
	</g>
	<g>
		<rect id="p_274_" x="125" y="90" width="5" height="5"/>
	</g>
	<g>
		<rect id="p_275_" x="125" y="110" width="5" height="5"/>
	</g>
	<g>
		<rect id="p_276_" x="125" y="120" width="5" height="5"/>
	</g>
	<g>
		<rect id="p_277_" x="125" y="125" width="5" height="5"/>
	</g>
	<g>
		<rect id="p_278_" x="125" y="140" width="5" height="5"/>
	</g>
	<g>
		<rect id="p_279_" x="130" y="20" width="5" height="5"/>
	</g>
	<g>
		<rect id="p_280_" x="130" y="30" width="5" height="5"/>
	</g>
	<g>
		<rect id="p_281_" x="130" y="35" width="5" height="5"/>
	</g>
	<g>
		<rect id="p_282_" x="130" y="40" width="5" height="5"/>
	</g>
	<g>
		<rect id="p_283_" x="130" y="50" width="5" height="5"/>
	</g>
	<g>
		<rect id="p_284_" x="130" y="65" width="5" height="5"/>
	</g>
	<g>
		<rect id="p_285_" x="130" y="95" width="5" height="5"/>
	</g>
	<g>
		<rect id="p_286_" x="130" y="100" width="5" height="5"/>
	</g>
	<g>
		<rect id="p_287_" x="130" y="105" width="5" height="5"/>
	</g>
	<g>
		<rect id="p_288_" x="130" y="120" width="5" height="5"/>
	</g>
	<g>
		<rect id="p_289_" x="130" y="130" width="5" height="5"/>
	</g>
	<g>
		<rect id="p_290_" x="135" y="20" width="5" height="5"/>
	</g>
	<g>
		<rect id="p_291_" x="135" y="50" width="5" height="5"/>
	</g>
	<g>
		<rect id="p_292_" x="135" y="65" width="5" height="5"/>
	</g>
	<g>
		<rect id="p_293_" x="135" y="70" width="5" height="5"/>
	</g>
	<g>
		<rect id="p_294_" x="135" y="85" width="5" height="5"/>
	</g>
	<g>
		<rect id="p_295_" x="135" y="90" width="5" height="5"/>
	</g>
	<g>
		<rect id="p_296_" x="135" y="115" width="5" height="5"/>
	</g>
	<g>
		<rect id="p_297_" x="135" y="120" width="5" height="5"/>
	</g>
	<g>
		<rect id="p_298_" x="135" y="125" width="5" height="5"/>
	</g>
	<g>
		<rect id="p_299_" x="140" y="20" width="5" height="5"/>
	</g>
	<g>
		<rect id="p_300_" x="140" y="25" width="5" height="5"/>
	</g>
	<g>
		<rect id="p_301_" x="140" y="30" width="5" height="5"/>
	</g>
	<g>
		<rect id="p_302_" x="140" y="35" width="5" height="5"/>
	</g>
	<g>
		<rect id="p_303_" x="140" y="40" width="5" height="5"/>
	</g>
	<g>
		<rect id="p_304_" x="140" y="45" width="5" height="5"/>
	</g>
	<g>
		<rect id="p_305_" x="140" y="50" width="5" height="5"/>
	</g>
	<g>
		<rect id="p_306_" x="140" y="70" width="5" height="5"/>
	</g>
	<g>
		<rect id="p_307_" x="140" y="75" width="5" height="5"/>
	</g>
	<g>
		<rect id="p_308_" x="140" y="80" width="5" height="5"/>
	</g>
	<g>
		<rect id="p_309_" x="140" y="90" width="5" height="5"/>
	</g>
	<g>
		<rect id="p_310_" x="140" y="95" width="5" height="5"/>
	</g>
	<g>
		<rect id="p_311_" x="140" y="110" width="5" height="5"/>
	</g>
	<g>
		<rect id="p_312_" x="140" y="115" width="5" height="5"/>
	</g>
	<g>
		<rect id="p_313_" x="140" y="120" width="5" height="5"/>
	</g>
	<g>
		<rect id="p_314_" x="140" y="125" width="5" height="5"/>
	</g>
	<g>
		<rect id="p_315_" x="140" y="130" width="5" height="5"/>
	</g>
	<g>
		<rect id="p_316_" x="140" y="135" width="5" height="5"/>
	</g>
	<g>
		<rect id="p_317_" x="140" y="140" width="5" height="5"/>
	</g>
</g>
</svg>
