<?xml version="1.0" encoding="utf-8"?>
<!-- Generator: Adobe Illustrator 16.0.0, SVG Export Plug-In . SVG Version: 6.00 Build 0)  -->
<!DOCTYPE svg PUBLIC "-//W3C//DTD SVG 1.1//EN" "http://www.w3.org/Graphics/SVG/1.1/DTD/svg11.dtd">
<svg version="1.1" id="Layer_1" xmlns="http://www.w3.org/2000/svg" xmlns:xlink="http://www.w3.org/1999/xlink" x="0px" y="0px"
	 width="512px" height="512px" viewBox="0 0 512 512" enable-background="new 0 0 512 512" xml:space="preserve">
<g>
	<path fill-rule="evenodd" clip-rule="evenodd" fill="none" d="M257,7c107,0,214,0.021,321-0.096
		c3.424-0.004,4.097,0.672,4.095,4.096c-0.108,164-0.108,328,0,492c0.002,3.424-0.671,4.096-4.095,4.095c-214-0.105-428-0.105-642,0
		c-3.423,0.001-4.097-0.671-4.095-4.095c0.108-164,0.108-328,0-492C-68.097,7.576-67.424,6.9-64,6.904C43,7.021,150,7,257,7z
		 M277.859,292c0.48,0.564,0.642,0.668,0.664,0.796c0.086,0.487,0.162,0.982,0.18,1.477c0.178,4.953-1.45,10.495,5.108,13.128
		c1.746,0.701,0.937,3.019,0.942,4.602c0.053,13.83,0.029,27.66,0.032,41.491c0.001,3.333-0.128,6.674,0.063,9.996
		c0.196,3.403,2.464,5.575,5.497,6.304c2.176,0.523,4.28-1.227,5.374-2.956c1.219-1.928,1.039-4.461,1.035-6.808
		c-0.026-16.333-0.002-32.665-0.024-48.998c-0.003-2.518-0.017-4.995,1.604-7.14c4.121-5.45,5.607-11.644,4.603-18.309
		c-0.93-6.165,1.397-9.91,7.097-12.387c4.801-2.085,4.513-2.454,4.73,2.928c0.125,3.11-1.464,6.945,2.72,8.78
		c2.942,1.292,3.373,3.549,3.354,6.466c-0.108,16.498-0.082,32.998-0.032,49.497c0.015,4.815,2.829,8.696,6.139,8.142
		c4.239-0.711,5.646-3.625,5.594-7.938c-0.196-16.33-0.015-32.664-0.166-48.995c-0.037-3.952,0.333-7.615,2.909-10.746
		c4.019-4.883,4.573-10.675,3.796-16.516c-0.847-6.371,1.423-10.168,7.303-12.77c3.528-1.561,4.618-1.62,4.386,2.548
		c-0.236,4.242-0.926,8.748,4.61,10.771c2.107,0.771,1.382,3.185,1.386,4.937c0.039,16.165,0.022,32.331,0.028,48.497
		c0,1.823-0.063,3.621,0.723,5.385c1.848,4.147,6.787,5.033,9.619,1.564c1.597-1.954,1.27-4.424,1.275-6.722
		c0.039-15.999,0.123-31.999-0.046-47.996c-0.044-4.156,0.532-7.918,3.079-11.245c2.983-3.896,4.015-8.27,3.589-13.134
		c-0.23-2.646-0.036-5.329-0.019-7.995c0.011-1.521,0.053-3.046,1.648-3.896c3.159-1.681,5.992-4.038,10.058-5.157
		c0,1.975,0.031,3.445-0.006,4.915c-0.102,3.999-0.624,8.058,4.474,9.834c2.161,0.754,1.582,3.075,1.585,4.846
		c0.026,14.999,0.005,29.998,0.027,44.997c0.004,2.659-0.13,5.361,0.289,7.966c0.502,3.126,2.864,5.287,5.851,5.009
		c2.762-0.258,5.321-2.011,5.336-5.573c0.007-1.665,0.149-3.328,0.15-4.993c0.013-16.165,0.041-32.331-0.025-48.497
		c-0.011-2.578,0.26-4.963,1.88-7.054c4.087-5.27,5.073-11.241,4.805-17.813c-0.375-9.164,2.173-11.938,11.635-14
		c0,1.55,0.069,3.04-0.014,4.522c-0.228,4.078-0.355,7.978,4.435,9.922c2.396,0.973,1.595,3.432,1.601,5.324
		c0.046,16.332,0.012,32.665,0.037,48.997c0.008,4.803,2.584,8.644,5.739,8.753c3.164,0.109,5.763-3.592,5.902-8.442
		c0.038-1.333,0.014-2.667,0.014-4c0-15.499,0.048-30.998-0.042-46.497c-0.018-2.928,0.306-5.621,2.13-7.986
		c3.854-4.999,5.46-10.688,4.412-16.864c-1.212-7.14,2.03-11.023,8.262-13.783c3.347-1.482,3.646-0.527,3.508,2.354
		c-0.223,4.639-0.771,9.35,4.857,11.745c2.054,0.874,1.168,3.28,1.174,5.009c0.057,16.165,0.023,32.331,0.04,48.497
		c0.006,5.337,2.396,9.092,5.771,9.2c3.29,0.105,5.773-3.673,5.88-8.975c0.026-1.333,0.009-2.667,0.009-4
		c0-15.499,0.036-30.998-0.034-46.497c-0.012-2.586,0.289-4.979,1.909-7.049c4.245-5.427,5.607-11.663,4.619-18.311
		c-0.903-6.073,1.609-9.476,6.98-12.013c3.686-1.74,5.04-1.822,4.695,2.698c-0.318,4.174-0.68,8.424,4.578,10.326
		c2.188,0.792,1.545,3.101,1.549,4.858c0.031,15.833,0.019,31.665,0.02,47.497c0,1.167,0,2.334,0.014,3.5
		c0.046,3.917,2.262,6.811,5.832,6.835c3.543,0.024,5.763-2.611,5.74-6.742c-0.092-16.999,0.049-33.998-0.069-50.996
		c-0.025-3.625,0.434-6.88,2.71-9.809c3.329-4.282,4.026-9.186,3.979-14.552c-0.071-7.942-1.626-16.203,1.661-23.753
		c5.585-12.829,5.703-25.378-0.147-38.054c-0.62-1.345-0.976-2.841-1.262-4.305c-0.588-3.01-2.347-4.789-5.021-6.319
		c-24.865-14.226-49.689-28.526-74.411-43.002c-3.443-2.017-5.948-2.067-9.453-0.04C290.914,127.957,151.446,208.513,11.993,289.095
		c-6.625,3.829-14.861,6.431-19.314,12.019c-4.45,5.584-5.002,14.235-7.431,21.484c-1.273,3.799-1.314,7.438,0.03,11.211
		c3.913,10.986,8.005,22.105,10.982,33.17c3.011,11.192,0.688,23.82,0.702,35.819c0,0.5-0.069,1.015,0.027,1.497
		c0.192,0.964,0.463,1.913,0.724,2.861c0.734,2.664,3.08,3.858,5.25,3.804c2.357-0.061,4.72-1.214,5.391-4.267
		c0.507-2.309,0.696-4.585,0.693-6.918c-0.013-9.115-0.005-18.23-0.005-28.964c8.706,6.988,18.951,8.983,25.407,17.162
		c0.949,1.202,2.93,2.51,4.237,2.331c3.618-0.492,6.005,1.649,8.677,3.157c8.119,4.583,16.227,9.193,24.199,14.025
		c2.337,1.416,3.975,1.345,6.276-0.056c6.622-4.029,13.432-7.752,20.894-12.009c0,3.564,0.095,6.192-0.028,8.81
		c-0.11,2.355,0.318,4.278,2.733,5.296c2.866,1.207,3.459,3.451,3.435,6.431c-0.132,15.998-0.063,31.997-0.061,47.996
		c0.001,5.839,2.534,9.996,6.068,9.978c3.542-0.02,5.853-3.932,5.858-10.044c0.016-16.332,0.018-32.665-0.006-48.997
		c-0.004-2.521-0.051-5.038,1.611-7.142c4.385-5.549,5.204-11.896,4.905-18.764c-0.358-8.194,2.908-11.686,11.27-13.2
		c0.493,7.903,0.506,7.894,5.644,14.862c1.077,1.46,0.626,3.223,0.63,4.852c0.032,15.666,0.019,31.331,0.02,46.997
		c0,6.722,2.043,10.403,5.871,10.582c3.737,0.174,6.047-3.7,6.054-10.284c0.018-16.332,0.026-32.665-0.01-48.997
		c-0.005-2.543,0.099-5.012,1.759-7.095c4.195-5.265,5.462-11.341,4.505-17.816c-0.94-6.365,1.457-10.196,7.367-12.719
		c3.292-1.405,4.744-2.037,4.413,2.418c-0.32,4.315-0.72,8.701,4.68,10.765c2.103,0.804,1.327,3.212,1.334,4.955
		c0.049,13.165,0.025,26.331,0.029,39.497c0.001,4-0.123,8.006,0.07,11.997c0.139,2.876,1.826,4.812,4.521,5.964
		c2.557,1.094,4.32-0.6,5.77-1.921c1.957-1.783,1.537-4.598,1.544-7.05c0.04-16.166,0.087-32.332-0.022-48.497
		c-0.024-3.611,0.394-6.92,2.646-9.862c3.061-3.999,4.272-8.483,3.755-13.546c-0.286-2.803-0.051-5.661-0.022-8.494
		c0.015-1.339,0.05-2.661,1.465-3.46c3.133-1.769,6.237-3.59,10.198-5.877c0,3.787,0.116,6.567-0.037,9.333
		c-0.125,2.268,0.566,3.928,2.703,4.779c2.985,1.188,3.456,3.468,3.436,6.408c-0.111,15.832-0.055,31.665-0.05,47.497
		c0.002,6.796,2.125,10.307,6.137,10.182c3.963-0.123,5.795-3.168,5.806-9.862c0.024-15.999,0.083-31.999-0.043-47.997
		c-0.028-3.64,0.505-6.963,2.722-9.866c3.084-4.039,4.149-8.54,3.679-13.568c-0.248-2.643-0.039-5.328-0.029-7.995
		c0.005-1.525,0.056-3.024,1.643-3.899c3.14-1.73,5.987-4.053,10.019-5.146c0,3.04,0.101,5.681-0.03,8.31
		c-0.119,2.376,0.36,4.278,2.787,5.248c2.967,1.186,3.385,3.527,3.363,6.454c-0.115,15.832-0.056,31.665-0.053,47.497
		c0.001,6.348,2.472,10.517,6.135,10.363c3.688-0.154,5.81-3.775,5.816-10.064c0.016-16.332-0.007-32.664,0.021-48.997
		c0.004-1.971-0.465-4.142,0.917-5.805c5.805-6.984,5.833-15.226,5.398-23.619c-0.092-1.782-0.383-3.803,1.54-4.957
		C271.704,295.497,274.85,293.735,277.859,292z"/>
	<path fill-rule="evenodd" clip-rule="evenodd" d="M277.859,292c-3.01,1.735-6.155,3.497-9.246,5.352
		c-1.923,1.154-1.632,3.175-1.54,4.957c0.435,8.394,0.406,16.635-5.398,23.619c-1.382,1.663-0.913,3.834-0.917,5.805
		c-0.027,16.333-0.005,32.665-0.021,48.997c-0.007,6.289-2.129,9.91-5.816,10.064c-3.663,0.153-6.134-4.016-6.135-10.363
		c-0.003-15.832-0.063-31.665,0.053-47.497c0.021-2.927-0.396-5.269-3.363-6.454c-2.427-0.97-2.906-2.872-2.787-5.248
		c0.131-2.629,0.03-5.27,0.03-8.31c-4.031,1.093-6.879,3.415-10.019,5.146c-1.587,0.875-1.638,2.374-1.643,3.899
		c-0.01,2.667-0.219,5.353,0.029,7.995c0.471,5.028-0.595,9.529-3.679,13.568c-2.217,2.903-2.75,6.227-2.722,9.866
		c0.126,15.998,0.067,31.998,0.043,47.997c-0.011,6.694-1.843,9.739-5.806,9.862c-4.012,0.125-6.135-3.386-6.137-10.182
		c-0.005-15.832-0.062-31.665,0.05-47.497c0.021-2.94-0.45-5.22-3.436-6.408c-2.137-0.852-2.828-2.512-2.703-4.779
		c0.153-2.766,0.037-5.546,0.037-9.333c-3.961,2.287-7.065,4.108-10.198,5.877c-1.415,0.799-1.45,2.121-1.465,3.46
		c-0.028,2.833-0.264,5.691,0.022,8.494c0.518,5.063-0.694,9.547-3.755,13.546c-2.253,2.942-2.671,6.251-2.646,9.862
		c0.109,16.165,0.063,32.331,0.022,48.497c-0.007,2.452,0.413,5.267-1.544,7.05c-1.45,1.321-3.213,3.015-5.77,1.921
		c-2.695-1.152-4.382-3.088-4.521-5.964c-0.193-3.991-0.069-7.997-0.07-11.997c-0.003-13.166,0.02-26.332-0.029-39.497
		c-0.007-1.743,0.769-4.151-1.334-4.955c-5.4-2.063-5-6.449-4.68-10.765c0.331-4.455-1.12-3.823-4.413-2.418
		c-5.911,2.522-8.307,6.354-7.367,12.719c0.957,6.476-0.31,12.552-4.505,17.816c-1.66,2.083-1.765,4.552-1.759,7.095
		c0.037,16.332,0.028,32.665,0.01,48.997c-0.007,6.584-2.316,10.458-6.054,10.284c-3.827-0.179-5.87-3.86-5.871-10.582
		c0-15.666,0.012-31.331-0.02-46.997c-0.003-1.629,0.447-3.392-0.63-4.852c-5.138-6.969-5.151-6.959-5.644-14.862
		c-8.362,1.515-11.627,5.006-11.27,13.2c0.299,6.867-0.52,13.215-4.905,18.764c-1.663,2.104-1.615,4.62-1.611,7.142
		c0.023,16.332,0.021,32.665,0.006,48.997c-0.005,6.112-2.316,10.024-5.858,10.044c-3.534,0.019-6.067-4.139-6.068-9.978
		c-0.002-15.999-0.071-31.998,0.061-47.996c0.024-2.979-0.568-5.224-3.435-6.431c-2.415-1.018-2.843-2.94-2.733-5.296
		c0.123-2.617,0.028-5.245,0.028-8.81c-7.462,4.257-14.272,7.979-20.894,12.009c-2.301,1.4-3.939,1.472-6.276,0.056
		c-7.972-4.832-16.08-9.442-24.199-14.025c-2.672-1.508-5.059-3.649-8.677-3.157c-1.308,0.179-3.289-1.129-4.237-2.331
		c-6.456-8.179-16.701-10.174-25.407-17.162c0,10.733-0.008,19.849,0.005,28.964c0.003,2.333-0.186,4.609-0.693,6.918
		c-0.671,3.053-3.034,4.206-5.391,4.267c-2.17,0.055-4.516-1.14-5.25-3.804c-0.261-0.948-0.532-1.897-0.724-2.861
		c-0.096-0.482-0.026-0.997-0.027-1.497c-0.014-11.999,2.309-24.627-0.702-35.819c-2.977-11.064-7.069-22.184-10.982-33.17
		c-1.344-3.773-1.303-7.412-0.03-11.211c2.429-7.249,2.981-15.9,7.431-21.484c4.454-5.588,12.689-8.189,19.314-12.019
		c139.453-80.582,278.921-161.138,418.324-241.807c3.505-2.027,6.01-1.977,9.453,0.04c24.722,14.476,49.546,28.776,74.411,43.002
		c2.675,1.53,4.434,3.31,5.021,6.319c0.286,1.464,0.642,2.96,1.262,4.305c5.851,12.676,5.732,25.225,0.147,38.054
		c-3.287,7.55-1.732,15.811-1.661,23.753c0.048,5.366-0.649,10.27-3.979,14.552c-2.276,2.929-2.735,6.184-2.71,9.809
		c0.118,16.998-0.022,33.997,0.069,50.996c0.022,4.131-2.197,6.767-5.74,6.742c-3.57-0.024-5.786-2.918-5.832-6.835
		c-0.014-1.166-0.014-2.333-0.014-3.5c-0.001-15.832,0.012-31.664-0.02-47.497c-0.004-1.758,0.64-4.066-1.549-4.858
		c-5.258-1.902-4.896-6.152-4.578-10.326c0.345-4.521-1.01-4.438-4.695-2.698c-5.371,2.537-7.884,5.939-6.98,12.013
		c0.988,6.647-0.374,12.884-4.619,18.311c-1.62,2.07-1.921,4.463-1.909,7.049c0.07,15.499,0.034,30.998,0.034,46.497
		c0,1.333,0.018,2.667-0.009,4c-0.106,5.302-2.59,9.08-5.88,8.975c-3.375-0.108-5.765-3.863-5.771-9.2
		c-0.017-16.166,0.017-32.332-0.04-48.497c-0.006-1.729,0.88-4.135-1.174-5.009c-5.628-2.396-5.08-7.106-4.857-11.745
		c0.138-2.882-0.161-3.837-3.508-2.354c-6.231,2.76-9.474,6.644-8.262,13.783c1.048,6.177-0.558,11.865-4.412,16.864
		c-1.824,2.365-2.147,5.059-2.13,7.986c0.09,15.499,0.042,30.998,0.042,46.497c0,1.333,0.024,2.667-0.014,4
		c-0.14,4.851-2.738,8.552-5.902,8.442c-3.155-0.109-5.731-3.95-5.739-8.753c-0.025-16.332,0.009-32.665-0.037-48.997
		c-0.006-1.893,0.796-4.352-1.601-5.324c-4.79-1.944-4.662-5.844-4.435-9.922c0.083-1.482,0.014-2.973,0.014-4.522
		c-9.462,2.062-12.01,4.836-11.635,14c0.269,6.572-0.718,12.544-4.805,17.813c-1.62,2.091-1.891,4.476-1.88,7.054
		c0.066,16.166,0.038,32.332,0.025,48.497c-0.001,1.665-0.144,3.328-0.15,4.993c-0.015,3.563-2.574,5.315-5.336,5.573
		c-2.986,0.278-5.349-1.883-5.851-5.009c-0.419-2.604-0.285-5.307-0.289-7.966c-0.022-14.999-0.001-29.998-0.027-44.997
		c-0.003-1.771,0.576-4.092-1.585-4.846c-5.098-1.776-4.575-5.835-4.474-9.834c0.037-1.47,0.006-2.94,0.006-4.915
		c-4.065,1.119-6.898,3.477-10.058,5.157c-1.596,0.85-1.638,2.375-1.648,3.896c-0.018,2.666-0.212,5.35,0.019,7.995
		c0.426,4.864-0.605,9.237-3.589,13.134c-2.547,3.327-3.123,7.089-3.079,11.245c0.169,15.997,0.085,31.997,0.046,47.996
		c-0.006,2.298,0.321,4.768-1.275,6.722c-2.832,3.469-7.771,2.583-9.619-1.564c-0.785-1.764-0.723-3.562-0.723-5.385
		c-0.006-16.166,0.011-32.332-0.028-48.497c-0.004-1.752,0.722-4.166-1.386-4.937c-5.536-2.023-4.847-6.529-4.61-10.771
		c0.232-4.168-0.857-4.108-4.386-2.548c-5.88,2.602-8.149,6.398-7.303,12.77c0.777,5.841,0.223,11.633-3.796,16.516
		c-2.576,3.131-2.946,6.794-2.909,10.746c0.151,16.331-0.03,32.665,0.166,48.995c0.052,4.313-1.354,7.228-5.594,7.938
		c-3.31,0.555-6.124-3.326-6.139-8.142c-0.05-16.499-0.076-32.999,0.032-49.497c0.02-2.917-0.411-5.174-3.354-6.466
		c-4.184-1.835-2.595-5.67-2.72-8.78c-0.218-5.382,0.07-5.013-4.73-2.928c-5.699,2.477-8.026,6.222-7.097,12.387
		c1.005,6.665-0.481,12.858-4.603,18.309c-1.62,2.145-1.606,4.622-1.604,7.14c0.022,16.333-0.002,32.665,0.024,48.998
		c0.004,2.347,0.184,4.88-1.035,6.808c-1.094,1.729-3.198,3.479-5.374,2.956c-3.033-0.729-5.301-2.9-5.497-6.304
		c-0.19-3.322-0.062-6.663-0.063-9.996c-0.003-13.831,0.021-27.661-0.032-41.491c-0.006-1.583,0.804-3.9-0.942-4.602
		c-6.559-2.633-4.931-8.175-5.108-13.128c-0.018-0.494-0.094-0.989-0.18-1.477C278.501,292.668,278.34,292.564,277.859,292z
		 M34.032,320.032c5.211-1.452,10.37-1.326,15.914,1.338c-2.449-4.534-5.167-5.732-10.725-5.205c-2.48,0.235-5.204,0.31-5.146,3.934
		c-3.815-2.364-5.005,0.507-6.44,2.884C30.213,322.873,32.182,321.568,34.032,320.032z M42.85,329.011
		c9.64,5.591,18.484,10.526,27.107,15.822c3.257,2,5.751,2.022,9.1,0.089C222.929,261.827,366.854,178.824,510.77,95.804
		c4.516-2.604,4.515-2.671-0.168-5.378c-23.645-13.668-47.345-27.239-70.9-41.058c-3.511-2.06-6.063-1.917-9.502,0.075
		c-90.207,52.246-180.475,104.389-270.734,156.544c-53.06,30.659-106.126,61.308-159.187,91.967
		c-5.611,3.242-5.605,3.268-0.241,6.381c7.057,4.096,14.256,7.969,21.131,12.351c3.798,2.42,6.832,2.885,10.746,0.162
		c4.785-3.327,10.25-3.782,15.671-1.219c5.032,2.38,5.422,6.937,0.9,10.032C46.991,326.686,45.369,327.523,42.85,329.011z
		 M76.003,361.943c0,2.833,0.157,5.677-0.038,8.497c-0.276,4.005,0.455,5.153,4.468,2.738c11.406-6.864,23.014-13.392,34.545-20.048
		c48.299-27.878,96.601-55.749,144.897-83.632c35.181-20.311,70.352-40.639,105.531-60.951
		c51.337-29.641,102.667-59.294,154.049-88.858c2.953-1.699,4.067-3.399,2.815-6.773c-1.56-4.205-2.67-8.575-3.988-12.87
		c-1.692-5.513-1.708-5.526-6.699-2.641c-59.836,34.603-119.653,69.237-179.508,103.809
		C250.48,248.343,168.918,295.532,87.15,342.36C78.93,347.068,73.041,351.586,76.003,361.943z M73.685,374.594
		c0-7.877-0.009-15.813,0.009-23.749c0.003-1.327-0.649-2.173-1.73-2.799c-9.219-5.335-18.435-10.679-27.66-16.004
		c-1.005-0.58-2.493-1.386-2.819,0.315c-0.773,4.035-2.719,2.17-4.544,1.146c-2.758-1.547-5.473-3.172-8.233-4.715
		c-2.189-1.225-4.624-2.127-3.243-5.568c0.726-1.812-0.955-2.6-2.258-3.356c-8.924-5.182-17.887-10.297-26.749-15.582
		c-2.389-1.425-3.458-1.041-4.195,1.603c-1.383,4.963-2.712,9.965-4.529,14.774c-1.326,3.511-0.438,5.229,2.763,7.057
		c26.297,15.014,52.487,30.215,78.727,45.33C70.462,373.76,71.537,375.021,73.685,374.594z M-12.973,333.073
		c2.82,9.304,5.284,17.208,7.586,25.159c0.727,2.51,2.481,3.732,4.555,4.918c10.962,6.271,21.883,12.61,32.819,18.926
		c12.52,7.229,25.097,14.36,37.523,21.746c3.661,2.176,4.437,1.273,4.255-2.565c-0.204-4.314-0.317-8.669,0.034-12.966
		c0.314-3.854-1.114-5.95-4.455-7.854c-24.4-13.904-48.681-28.019-73.003-42.062C-6.366,336.812-9.092,335.281-12.973,333.073z
		 M490.891,138.438c8.161,7.447,9.536,10.583,9.53,20.96c-0.003,5.831,0.064,11.664-0.023,17.494
		c-0.036,2.407,0.559,4.726,2.947,5.165c4.109,0.755,3.645,3.564,3.644,6.382c-0.007,15.662-0.058,31.324,0.063,46.984
		c0.017,2.141-1.137,6.11,1.138,6.086c2.788-0.03,2.505-3.923,2.537-6.515c0.015-1.166,0.004-2.332,0.004-3.498
		c0.001-15.662,0.046-31.324-0.042-46.985c-0.016-2.777,0.606-5.081,2.183-7.43c1.813-2.699,4.002-5.33,3.954-8.975
		c-0.105-8.163,0.116-16.334-0.152-24.489c-0.181-5.501-3.086-9.693-7.596-12.822c-1.503-1.043-2.861-1.42-4.551-0.397
		C500.127,133.058,495.673,135.626,490.891,138.438z M454.475,159.285c9.292,6.052,10.734,14.784,10.306,24.342
		c-0.216,4.815,0.003,9.649-0.032,14.474c-0.017,2.169,0.472,4.325,2.717,4.78c4.009,0.813,3.585,3.636,3.583,6.466
		c-0.015,15.474-0.069,30.948,0.064,46.421c0.02,2.229-1.275,6.313,1.395,6.311c2.582-0.002,2.225-4.162,2.228-6.753
		c0.021-16.639,0.039-33.277-0.016-49.916c-0.01-2.725,0.418-5.047,2.126-7.4c1.993-2.749,4.117-5.585,4.032-9.435
		c-0.171-7.816-0.004-15.639-0.108-23.458c-0.077-5.752-2.889-10.113-7.445-13.419c-1.347-0.978-2.71-1.834-4.546-0.728
		C464.251,153.699,459.644,156.293,454.475,159.285z M399.042,274.768c0,7.5-0.114,15.002,0.068,22.497
		c0.057,2.316-1.123,6.665,1.139,6.554c3.021-0.149,2.479-4.37,2.483-7.12c0.026-16.166,0.076-32.333-0.037-48.497
		c-0.024-3.435,0.511-6.407,2.595-9.291c1.802-2.494,3.656-5.092,3.585-8.578c-0.161-7.829-0.072-15.664-0.078-23.496
		c-0.004-4.603-1.953-8.347-5.072-11.584c-2.864-2.973-5.791-4.142-9.602-1.262c-2.638,1.994-5.678,3.477-8.609,5.055
		c-2.186,1.177-2.596,2.106-0.394,3.867c5.617,4.489,7.739,10.618,7.716,17.646c-0.021,6.333,0.058,12.667-0.007,18.999
		c-0.024,2.412,0.578,4.607,3.075,5.026c3.393,0.569,3.135,2.838,3.135,5.186C399.039,258.102,399.039,266.435,399.042,274.768z
		 M346.524,221.658c8.143,5.563,10.638,12.907,10.351,21.609c-0.187,5.649,0.018,11.311-0.041,16.965
		c-0.024,2.376,0.513,4.663,2.982,5.109c3.594,0.648,3.275,3.06,3.274,5.559c-0.008,15.803-0.069,31.605,0.074,47.406
		c0.021,2.2-1.355,6.261,1.353,6.257c2.556-0.003,2.215-4.174,2.218-6.769c0.019-16.634,0.046-33.269-0.024-49.902
		c-0.012-2.743,0.487-5.069,2.097-7.43c1.918-2.813,4.139-5.587,4.064-9.43c-0.151-7.814-0.02-15.635-0.093-23.452
		c-0.056-5.98-3.05-10.352-7.777-13.743c-1.491-1.069-2.862-1.413-4.551-0.391C356.058,216.106,351.606,218.671,346.524,221.658z
		 M418.402,180.11c8.721,5.619,10.737,13.501,10.378,22.504c-0.212,5.322,0.018,10.661-0.048,15.991
		c-0.029,2.356,0.398,4.727,2.903,5.137c3.951,0.648,3.405,3.338,3.405,5.954c0.002,16.16-0.042,32.319,0.065,48.479
		c0.011,1.722-1.179,4.769,1.41,4.893c1.805,0.087,2.105-2.944,2.204-4.938c0.058-1.163,0.024-2.332,0.024-3.498
		c0.001-16.159,0.045-32.319-0.041-48.479c-0.015-2.764,0.547-5.06,2.169-7.398c1.944-2.805,4.098-5.597,4.008-9.455
		c-0.182-7.826-0.006-15.659-0.115-23.487c-0.075-5.351-2.654-9.478-6.713-12.826c-2.201-1.816-4.247-2.091-6.771-0.467
		C427.372,175.034,423.277,177.26,418.402,180.11z M292.36,366.44c2.613-1.826,2.398-4.523,2.399-7.131
		c0.007-15.157,0.141-30.315-0.068-45.47c-0.075-5.44,0.251-10.499,3.933-14.898c1.021-1.22,1.998-2.944,2.024-4.454
		c0.161-9.321,0.453-18.674-0.146-27.961c-0.317-4.932-3.529-8.927-8.063-11.393c-3.865-2.103-5.991,1.69-8.866,2.858
		c-1.986,0.807-3.728,2.196-5.659,3.163c-2.375,1.188-2.949,2.32-0.594,4.253c5.732,4.704,7.635,11.044,7.533,18.229
		c-0.085,5.995,0.044,11.992-0.024,17.987c-0.027,2.405,0.571,4.492,3.056,5.059c3.022,0.688,3.254,2.586,3.242,5.147
		c-0.077,16.322-0.068,32.646,0.003,48.968C291.139,362.651,290.325,364.81,292.36,366.44z M311.119,242.24
		c8.787,8.944,9.715,11.264,9.72,23.563c0.003,4.998,0.057,9.996-0.007,14.992c-0.03,2.362,0.444,4.52,2.947,5.137
		c3.2,0.79,3.363,2.888,3.349,5.583c-0.084,15.824-0.094,31.65,0.025,47.476c0.016,2.151-1.091,6.176,1.149,6.117
		c3.002-0.078,2.408-4.049,2.416-6.583c0.05-16.825,0.014-33.65,0.047-50.475c0.004-1.786-0.503-3.743,0.907-5.266
		c4.938-5.329,5.466-11.786,5.129-18.613c-0.264-5.317-0.03-10.658-0.047-15.989c-0.016-5.407-2.636-9.49-6.644-12.836
		c-2.134-1.782-4.158-2.061-6.698-0.354C319.569,237.575,315.436,239.727,311.119,242.24z M256.575,387.315
		c2.199-2.028,2.197-4.623,2.195-7.252c-0.015-16.475,0.044-32.949-0.052-49.423c-0.018-3.087,0.485-5.725,2.335-8.348
		c1.862-2.642,3.929-5.306,3.852-8.976c-0.164-7.817-0.094-15.64-0.082-23.46c0.008-4.426-1.882-8.019-4.775-11.183
		c-2.911-3.183-5.965-4.401-9.915-1.369c-2.485,1.907-5.37,3.319-8.158,4.8c-2.343,1.244-2.88,2.255-0.502,4.212
		c5.391,4.435,7.396,10.44,7.364,17.271c-0.03,6.157,0.064,12.315-0.02,18.471c-0.034,2.565,0.465,4.966,3.194,5.458
		c3.356,0.605,3.088,2.792,3.086,5.151c-0.018,16.308-0.038,32.616,0.032,48.924C255.138,383.448,254.325,385.621,256.575,387.315z
		 M183.091,398.821c0,8.328-0.073,16.657,0.064,24.983c0.026,1.57-1.125,4.394,1.448,4.457c1.823,0.045,1.995-2.663,2.125-4.47
		c0.084-1.16,0.035-2.33,0.035-3.496c0.001-15.657,0.06-31.315-0.042-46.972c-0.024-3.746,0.345-7.088,2.828-10.225
		c1.905-2.407,3.475-5.155,3.378-8.636c-0.214-7.656-0.103-15.321-0.108-22.982c-0.003-4.802-2.09-8.656-5.424-11.921
		c-2.606-2.552-5.258-3.68-8.697-1.023c-2.48,1.916-5.364,3.347-8.175,4.783c-2.718,1.39-3.444,2.493-0.679,4.855
		c5.127,4.38,7.089,10.293,7.076,16.936c-0.012,5.996,0.137,11.997-0.049,17.987c-0.101,3.238,0.756,5.693,4.05,6.452
		c2.721,0.628,2.131,2.588,2.142,4.285C183.112,382.164,183.084,390.492,183.091,398.821z M111.129,440.49
		c0,8.152-0.081,16.306,0.065,24.454c0.031,1.727-1.189,4.79,1.458,4.879c1.844,0.062,2.068-2.958,2.098-4.968
		c0.015-0.998,0.012-1.996,0.013-2.994c0-15.306,0.119-30.612-0.073-45.916c-0.056-4.458,0.46-8.424,3.3-12.066
		c1.594-2.045,3.096-4.341,3.062-7.212c-0.098-8.146-0.091-16.293-0.243-24.437c-0.078-4.203-2.064-7.655-4.903-10.616
		c-2.77-2.889-5.655-4.359-9.49-1.353c-2.462,1.93-5.342,3.365-8.146,4.808c-2.518,1.296-3.319,2.342-0.639,4.486
		c4.063,3.25,6.226,7.721,7.023,12.826c1.188,7.604,0.343,15.263,0.473,22.894c0.048,2.816,0.565,5.035,3.587,5.626
		c2.56,0.501,2.421,2.268,2.418,4.135C111.118,423.521,111.125,432.006,111.129,440.49z M219.089,378.425
		c0,7.654-0.101,15.312,0.064,22.963c0.047,2.156-1.108,6.16,1.159,6.11c3.006-0.067,2.418-4.031,2.426-6.566
		c0.05-14.81,0.198-29.623-0.058-44.43c-0.105-6.13,0.36-11.831,4.409-16.787c0.804-0.984,1.57-2.367,1.58-3.573
		c0.082-9.478,0.398-18.986-0.246-28.424c-0.337-4.938-3.674-9.027-8.308-11.167c-3.663-1.691-5.91,2.129-8.842,3.335
		c-1.827,0.752-3.429,2.034-5.203,2.938c-2.346,1.195-2.928,2.248-0.548,4.242c5.497,4.604,7.429,10.79,7.331,17.797
		c-0.082,5.823,0.084,11.65-0.048,17.472c-0.072,3.195,0.705,5.688,4.145,6.353c2.778,0.535,2.097,2.6,2.108,4.277
		C219.116,361.451,219.086,369.938,219.089,378.425z M147.128,420.018c0,7.657-0.104,15.317,0.066,22.971
		c0.048,2.146-1.118,6.159,1.167,6.079c2.892-0.102,2.373-4.094,2.379-6.65c0.043-16.313,0.082-32.628-0.024-48.941
		c-0.022-3.422,0.451-6.381,2.609-9.259c1.835-2.447,3.649-5.094,3.579-8.57c-0.16-7.987,0.023-15.981-0.134-23.968
		c-0.109-5.564-3.002-9.725-7.374-12.948c-1.783-1.314-3.396-1.682-5.243,0.187c-2.578,2.608-5.855,4.339-9.254,5.558
		c-3.025,1.084-4.076,1.885-1.103,4.426c5.143,4.397,7.12,10.27,7.118,16.907c-0.001,5.993,0.142,11.99-0.048,17.977
		c-0.102,3.206,0.648,5.691,3.937,6.541c2.499,0.646,2.322,2.383,2.32,4.223C147.117,403.037,147.122,411.527,147.128,420.018z
		 M76.009,392.174c0,4.137,0.063,6.971-0.018,9.802c-0.079,2.81,0.67,3.745,3.412,2.067c4.115-2.519,8.175-5.258,12.586-7.129
		c5.622-2.384,7.473-6.067,6.876-12.021c-0.413-4.122-0.433-8.075-4.399-10.463c-3.848-2.316-5.975,1.605-8.839,2.741
		C78.271,380.087,73.385,384.607,76.009,392.174z M494.563,156.433c2.744-6.581-3.758-10.63-8.219-14.129
		c-2.641-2.072-6.843,3.235-10.541,4.812c-0.303,0.129-0.571,0.338-0.862,0.496c-1.74,0.947-1.426,1.844-0.053,2.924
		c5.628,4.428,8.028,10.385,8.134,17.412c0.021,1.437,0.099,2.604,2.271,1.935C491.617,167.935,494.567,164.238,494.563,156.433z
		 M458.679,178.281c0-0.666-0.025-1.334,0.004-1.999c0.197-4.497-1.012-8.271-5.443-10.283c-1.051-0.478-10.932,4.57-11.805,5.771
		c-0.873,1.198,0.089,1.813,0.657,2.544c3.287,4.225,4.925,9.002,4.922,14.355c-0.001,1.416,0.011,2.663,2.206,2.031
		C455.511,188.888,458.685,184.836,458.679,178.281z M350.715,240.816c0-0.662-0.018-1.326,0.003-1.988
		c0.135-4.404-0.794-8.299-5.247-10.333c-1.24-0.566-10.706,4.122-11.842,5.541c-0.915,1.145-0.121,1.806,0.452,2.555
		c3.327,4.354,5.033,9.259,5.124,14.74c0.021,1.265,0.154,2.188,2.026,1.712C347.198,251.522,350.718,247.125,350.715,240.816z
		 M278.715,281.384c0.202-3.892,0.312-8.87-4.68-10.91c-4.911-2.007-7.754,3.303-11.783,4.733c-1.471,0.522-1.42,1.561-0.427,2.721
		c3.736,4.366,5.33,9.495,5.252,15.192c-0.023,1.709,0.794,1.842,2.238,1.377C276.078,292.32,278.719,288.888,278.715,281.384z
		 M386.714,220.15c0-0.832-0.02-1.665,0.003-2.497c0.12-4.504-1.058-9.164-5.679-9.906c-4.23-0.681-7.685,3.3-11.248,5.627
		c-1.085,0.708-0.219,1.825,0.38,2.596c3.288,4.231,4.819,9.038,4.882,14.369c0.019,1.554,0.397,2.44,2.437,1.772
		C384.085,229.949,386.718,226.685,386.714,220.15z M411.229,211.729c10.556-3.255,11.617-4.646,11.484-14.731
		c-0.012-0.827,0.032-1.662-0.061-2.48c-0.43-3.761-2.292-6.514-5.875-7.905c-0.889-0.345-11.374,5.432-11.515,6.312
		c-0.09,0.555,0.103,1.34,0.471,1.753C410.047,199.527,411.054,205.486,411.229,211.729z M314.715,261.349
		c0-0.662-0.03-1.326,0.005-1.987c0.238-4.498-1.041-8.208-5.452-10.177c-1.102-0.491-10.865,4.526-11.746,5.769
		c-0.641,0.902-0.238,1.486,0.313,2.149c3.647,4.392,5.297,9.468,5.203,15.149c-0.027,1.691,0.854,1.813,2.266,1.386
		C311.835,271.664,314.718,267.944,314.715,261.349z M123.321,378.052c11.171-4.333,11.572-4.972,11.432-15.378
		c-0.059-4.328-1.293-7.849-5.568-9.628c-1.093-0.455-10.96,4.653-11.729,5.835c-0.604,0.929-0.111,1.51,0.432,2.152
		C121.932,365.83,123.269,371.548,123.321,378.052z M242.714,303.008c0-0.829-0.035-1.66,0.006-2.486
		c0.228-4.594-1.402-8.118-5.835-9.934c-0.949-0.389-10.57,4.939-11.209,5.938c-0.57,0.894-0.194,1.584,0.319,2.238
		c3.397,4.328,5.058,9.24,5.121,14.735c0.015,1.238,0.237,2.176,2.084,1.717C239.137,313.742,242.717,309.287,242.714,303.008z
		 M170.729,344.059c-0.093-2.206,0.312-4.897-0.938-7.422c-1.176-2.376-2.962-4.721-5.56-4.276c-3.94,0.674-7.082,3.521-10.49,5.571
		c-0.962,0.578-0.617,1.391-0.029,2.105c3.634,4.416,5.449,9.472,5.376,15.203c-0.019,1.469,0.478,2.032,2.148,1.572
		C167.501,355.087,170.733,350.994,170.729,344.059z M206.729,323.579c0-0.663-0.027-1.328,0.004-1.99
		c0.212-4.52-0.991-9.063-5.616-9.878c-4.287-0.754-7.638,3.313-11.244,5.526c-1.114,0.685-0.281,1.799,0.316,2.577
		c3.244,4.22,4.892,8.97,4.894,14.299c0,1.525,0.215,2.498,2.321,1.797C204.179,333.656,206.734,330.426,206.729,323.579z
		 M-12.936,328.118c-0.348,0.601-0.696,1.202-1.044,1.803c28.994,16.753,57.988,33.507,86.982,50.26
		c0.347-0.6,0.694-1.199,1.042-1.799C45.051,361.627,16.057,344.873-12.936,328.118z M504.088,238.842
		c1.531-5.841,1.073-50.774-0.549-53.825C501.55,189.713,502.022,236.104,504.088,238.842z M432.269,226.566
		c-1.891,0.511-1.817,1.594-1.818,2.555c-0.018,16.101-0.027,32.202,0.008,48.304c0.003,1.353-0.199,3.074,1.811,3.152
		C432.269,262.524,432.269,244.619,432.269,226.566z M468.205,205.842c-2.709,4.844-2.189,51.09,0,53.938
		C468.205,241.741,468.205,223.792,468.205,205.842z M3.22,388.329c0,5.476-0.036,10.952,0.028,16.427
		c0.014,1.193-0.535,3.074,1.393,3.134c1.616,0.051,1.863-1.69,2.041-2.978c0.203-1.472,0.216-2.977,0.219-4.468
		c0.019-8.462,0.017-16.925,0.001-25.388c-0.002-1.323-0.006-2.663-0.201-3.967c-0.194-1.296-1.204-2.15-2.426-2.06
		c-1.38,0.103-1.025,1.476-1.032,2.374C3.203,377.046,3.223,382.688,3.22,388.329z M47.633,323.689
		c0.074-1.61-1.141-1.817-1.956-2.029c-3.574-0.932-7.216-1.191-10.64,0.479c-2.161,1.055-5.6,1.671-5.742,4.018
		c-0.126,2.077,3.408,2.564,5.257,3.851c0.944,0.657,1.98,1.193,3.015,1.705c0.759,0.375,1.977,0.573,1.987-0.462
		c0.042-4.236,4.018-4.3,6.242-6.198C46.41,324.529,47.092,324.088,47.633,323.689z M381.433,202.741
		c0,1.407-0.075,1.76,0.021,2.058c0.096,0.294,0.308,0.635,0.566,0.78c5.591,3.129,6.592,8.184,6.324,14.052
		c-0.271,5.969-0.082,11.959-0.035,17.938c0.01,1.231-0.446,3.136,1.444,3.129c1.674-0.006,0.982-1.813,0.99-2.804
		c0.061-6.977,0.251-13.965-0.07-20.928C390.392,210.846,387.446,206.124,381.433,202.741z M417.635,182.226
		c-0.124,1.116-0.284,1.495-0.166,1.738c0.205,0.419,0.511,0.879,0.9,1.104c4.971,2.873,6.183,7.355,5.973,12.759
		c-0.245,6.319-0.081,12.656-0.03,18.985c0.01,1.212-0.485,3.143,1.459,3.069c1.609-0.06,0.945-1.86,0.954-2.874
		c0.06-6.994,0.244-14-0.062-20.982C426.399,190.008,423.462,185.394,417.635,182.226z M238.121,286.341
		c-0.477,1.686,0.146,2.227,0.821,2.722c4.284,3.146,5.66,7.383,5.415,12.615c-0.303,6.465-0.077,12.955-0.049,19.435
		c0.005,1.129-0.119,2.656,1.547,2.536c1.405-0.102,0.893-1.555,0.896-2.418c0.031-7.311,0.29-14.638-0.126-21.925
		C246.308,293.741,243.428,289.354,238.121,286.341z M360.51,268.462c-0.359-0.004-0.719-0.008-1.079-0.012
		c0,17.783,0,35.567,0,53.351c0.36-0.004,0.72-0.009,1.079-0.013C360.51,304.013,360.51,286.237,360.51,268.462z M489.712,140.979
		c-0.57,1.407,0.007,2.116,0.704,2.486c4.961,2.632,6.1,6.954,5.92,12.169c-0.219,6.313-0.098,12.641-0.016,18.961
		c0.02,1.472-0.737,3.461,2.441,4.245c-0.316-9.414,1.003-18.619-0.796-27.721C497.064,146.558,494.475,142.793,489.712,140.979z
		 M345.834,224.811c6.45,8.396,6.45,8.396,6.45,19.628c0,2.831-0.241,5.689,0.066,8.486c0.323,2.932-1.828,7.279,1.551,8.276
		c1.387,0.409,0.669-5.127,0.808-7.926c0.255-5.149,0.177-10.326,0.004-15.484C354.51,231.708,351.277,226.86,345.834,224.811z
		 M273.229,265.271c7.012,10.661,7.017,10.661,7.056,21.685c0.016,4.494,0.004,8.988,0.02,13.482
		c0.004,0.998-0.033,2.237,1.257,2.341c1.561,0.125,1.191-1.29,1.193-2.155c0.016-7.49,0.351-15.008-0.174-22.463
		C282.199,272.763,279.369,268.401,273.229,265.271z M252.445,331.135c-0.362-0.012-0.725-0.024-1.087-0.037
		c0,17.58,0,35.16,0,52.739c0.362,0.001,0.725,0.001,1.087,0.002C252.445,366.271,252.445,348.703,252.445,331.135z
		 M323.398,342.524c0.263-0.007,0.525-0.013,0.788-0.02c0-17.715,0-35.43,0-53.144c-0.263,0.008-0.525,0.016-0.788,0.023
		C323.398,307.098,323.398,324.812,323.398,342.524z M210.552,345.052c0-9.247,0.401-17.982-0.146-26.658
		c-0.344-5.459-4.526-9.636-9.194-10.042c6.949,3.9,7.564,10.102,7.166,16.857c-0.292,4.961-0.1,9.954-0.03,14.932
		C208.368,341.699,207.754,343.545,210.552,345.052z M309.404,245.62c8.909,4.925,6.754,13.157,6.87,20.632
		c0.07,4.484,0.027,8.97,0.023,13.455c-0.001,1.053,0.147,2.282,1.318,2.319c1.414,0.045,1.139-1.368,1.14-2.274
		c0.007-7.476,0.363-14.98-0.192-22.416C318.161,251.955,315.297,247.573,309.404,245.62z M180.45,372.473
		c-0.327-0.002-0.654-0.004-0.981-0.006c0,17.696,0,35.393,0,53.089c0.327-0.006,0.654-0.011,0.981-0.017
		C180.45,407.851,180.45,390.162,180.45,372.473z M453.703,161.836c-0.565,1.38-0.082,2.065,0.66,2.485
		c4.798,2.714,6.146,6.965,5.959,12.207c-0.221,6.143-0.104,12.301-0.012,18.45c0.021,1.479-0.792,3.41,1.413,4.253
		C466.67,186.079,462.484,166.225,453.703,161.836z M144.544,393.379c-2.678,6.5-2.008,50.508,0,53.159
		C144.544,428.725,144.544,411.052,144.544,393.379z M396.359,248.071c-0.463,0-0.925,0.001-1.388,0.002
		c-0.362,17.594-0.412,35.188,0.032,52.781c0.452-0.001,0.904-0.001,1.355-0.002C396.359,283.259,396.359,265.665,396.359,248.071z
		 M108.497,414.229c-0.354-0.009-0.707-0.017-1.061-0.024c0,17.556,0,35.111,0,52.667c0.354-0.004,0.707-0.008,1.061-0.011
		C108.497,449.317,108.497,431.773,108.497,414.229z M288.41,310.338c-0.362-0.011-0.725-0.021-1.087-0.031
		c0,17.534,0,35.069,0,52.604c0.362-0.002,0.725-0.003,1.087-0.005C288.41,345.383,288.41,327.86,288.41,310.338z M130.282,349.935
		c6.796,4.647,6.205,11.449,6.062,18.163c-0.11,5.158-0.014,10.32-0.004,15.481c0.002,1.034,0.117,2.291,1.322,2.33
		c1.449,0.048,1.117-1.38,1.118-2.268c0.009-7.492,0.318-15.008-0.189-22.468C138.248,356.144,135.704,351.909,130.282,349.935z
		 M215.315,404.646c0.361,0.007,0.723,0.014,1.085,0.021c0-17.537,0-35.073,0-52.609c-0.362,0-0.724,0.001-1.085,0.001
		C215.315,369.588,215.315,387.117,215.315,404.646z M94.506,369.923c-0.606,1.428-0.131,2.098,0.58,2.568
		c4.38,2.898,5.477,7.097,5.289,12.09c-0.23,6.133-0.094,12.282-0.024,18.424c0.017,1.448-0.659,3.455,2.305,3.849
		c0-8.607,0.425-17.052-0.162-25.426C102.151,376.519,99.454,372.285,94.506,369.923z M166.542,328.919
		c-0.378,0.7-0.141,1.232,0.457,1.667c4.306,3.128,5.604,7.415,5.381,12.596c-0.262,6.116-0.093,12.253-0.03,18.38
		c0.014,1.328-0.559,3.095,1.604,3.543C178.396,349.547,174.821,332.153,166.542,328.919z M0.695,367.091
		c-0.315,0.026-0.63,0.054-0.945,0.081c0,12.524,0,25.05,0,37.574c0.315-0.01,0.63-0.021,0.945-0.031
		C0.695,392.174,0.695,379.632,0.695,367.091z M522.833,125.201c-10.409,4.629-10.411,4.631-5.496,12.987
		c0.144,0.243,0.483,0.372,1.194,0.895C519.918,134.608,521.246,130.322,522.833,125.201z M75.871,378.091
		c0.429,0.606,0.857,1.213,1.286,1.819c4.825-3.135,10.325-5.25,14.693-9.073c-0.349-0.542-0.698-1.083-1.046-1.624
		C85.825,372.172,80.848,375.131,75.871,378.091z M199.839,306.251c-5.476,3.191-9.969,5.81-15.38,8.964
		C189.625,315.789,197.57,311.164,199.839,306.251z M364.144,211.34c5.122,0.713,13.558-4.153,15.664-8.862
		C374.415,205.528,369.803,208.139,364.144,211.34z M451.658,162.841c-0.271-0.463-0.54-0.927-0.81-1.39
		c-4.611,2.609-9.222,5.22-13.832,7.829c0.293,0.505,0.586,1.01,0.88,1.515C443.039,169.098,447.603,166.405,451.658,162.841z
		 M343.852,225.154c-0.287-0.482-0.573-0.964-0.86-1.446c-4.49,2.604-8.98,5.21-13.472,7.814c0.312,0.522,0.623,1.045,0.935,1.567
		C335.302,231.085,339.953,228.752,343.852,225.154z M271.705,266.701c-0.332-0.45-0.665-0.9-0.997-1.351
		c-3.977,2.3-7.959,4.59-11.924,6.909c-0.553,0.323-1.185,0.737-0.788,1.556c0.332,0.687,1.056,1.019,1.636,0.647
		C263.659,271.884,268.417,270.316,271.705,266.701z M127.704,348.002c-3.14,1.782-5.271,2.764-7.14,4.11
		c-2.205,1.59-5.646,1.686-6.389,5.102c3.182,0.682,5.119-1.808,7.415-3.135C123.735,352.838,126.935,352.447,127.704,348.002z
		 M400.589,190.358c4.354,1.172,12.901-3.694,14.864-8.52C410.192,184.854,405.656,187.454,400.589,190.358z M509.226,127.603
		c0.304,0.558,0.607,1.115,0.91,1.673c5.028-1.962,9.747-4.437,13.688-8.206c-0.269-0.463-0.537-0.926-0.806-1.389
		C518.421,122.321,513.823,124.962,509.226,127.603z M149.296,335.967c4.756,0.473,12.776-4.327,14.064-8.517
		C158.436,330.252,153.779,332.421,149.296,335.967z M235.312,287.122c-4.818,0.98-8.632,3.773-12.698,6.059
		c-0.562,0.315-1.142,0.86-0.596,1.577c0.245,0.321,0.964,0.681,1.205,0.547C227.5,292.95,232.056,290.966,235.312,287.122z
		 M307.722,246.207c-0.327-0.482-0.655-0.964-0.983-1.445c-4.376,2.532-8.752,5.064-13.129,7.597
		c0.331,0.563,0.661,1.128,0.991,1.691C299.188,251.811,303.73,249.491,307.722,246.207z"/>
	<path fill-rule="evenodd" clip-rule="evenodd" fill="none" d="M42.85,329.011c2.519-1.487,4.141-2.325,5.636-3.35
		c4.521-3.096,4.131-7.652-0.9-10.032c-5.42-2.563-10.886-2.108-15.671,1.219c-3.915,2.723-6.948,2.258-10.746-0.162
		c-6.875-4.382-14.074-8.255-21.131-12.351c-5.365-3.113-5.37-3.139,0.241-6.381c53.061-30.659,106.127-61.308,159.187-91.967
		c90.26-52.155,180.527-104.298,270.734-156.544c3.438-1.992,5.991-2.135,9.502-0.075c23.556,13.818,47.256,27.39,70.9,41.058
		c4.683,2.707,4.684,2.773,0.168,5.378C366.854,178.824,222.929,261.827,79.057,344.922c-3.349,1.934-5.843,1.911-9.1-0.089
		C61.333,339.537,52.489,334.602,42.85,329.011z M86.307,315.739c-6.303-0.05-11.272,2.938-11.242,6.757
		c0.03,3.732,5.213,6.818,11.324,6.743c5.928-0.074,10.686-3.115,10.7-6.841C97.104,318.731,92.337,315.787,86.307,315.739z"/>
	<path fill-rule="evenodd" clip-rule="evenodd" fill="none" d="M76.003,361.943c-2.962-10.357,2.927-14.875,11.147-19.583
		c81.768-46.828,163.33-94.018,244.926-141.146c59.854-34.571,119.672-69.206,179.508-103.809c4.991-2.886,5.007-2.872,6.699,2.641
		c1.318,4.295,2.429,8.665,3.988,12.87c1.252,3.374,0.138,5.074-2.815,6.773c-51.382,29.564-102.712,59.218-154.049,88.858
		c-35.18,20.313-70.351,40.641-105.531,60.951c-48.297,27.883-96.599,55.754-144.897,83.632
		c-11.531,6.656-23.14,13.184-34.545,20.048c-4.013,2.415-4.744,1.267-4.468-2.738C76.16,367.62,76.003,364.776,76.003,361.943z"/>
	<path fill-rule="evenodd" clip-rule="evenodd" fill="none" d="M73.685,374.594c-2.147,0.428-3.222-0.834-4.463-1.549
		c-26.239-15.115-52.429-30.316-78.727-45.33c-3.2-1.827-4.089-3.546-2.763-7.057c1.817-4.81,3.146-9.812,4.529-14.774
		c0.736-2.644,1.806-3.027,4.195-1.603c8.862,5.285,17.825,10.4,26.749,15.582c1.303,0.757,2.984,1.545,2.258,3.356
		c-1.381,3.441,1.054,4.344,3.243,5.568c2.76,1.543,5.475,3.168,8.233,4.715c1.826,1.024,3.771,2.89,4.544-1.146
		c0.326-1.701,1.814-0.896,2.819-0.315c9.225,5.325,18.44,10.669,27.66,16.004c1.082,0.626,1.733,1.472,1.73,2.799
		C73.675,358.78,73.685,366.717,73.685,374.594z"/>
	<path fill-rule="evenodd" clip-rule="evenodd" fill="none" d="M-12.973,333.073c3.881,2.208,6.607,3.738,9.315,5.302
		c24.322,14.043,48.603,28.157,73.003,42.062c3.34,1.904,4.769,4,4.455,7.854c-0.351,4.297-0.238,8.651-0.034,12.966
		c0.182,3.839-0.595,4.741-4.255,2.565c-12.426-7.386-25.004-14.517-37.523-21.746c-10.936-6.315-21.857-12.655-32.819-18.926
		c-2.074-1.186-3.829-2.408-4.555-4.918C-7.689,350.281-10.153,342.377-12.973,333.073z"/>
	<path fill-rule="evenodd" clip-rule="evenodd" fill="none" d="M490.891,138.438c4.782-2.812,9.236-5.38,13.635-8.04
		c1.689-1.022,3.048-0.646,4.551,0.397c4.51,3.129,7.415,7.321,7.596,12.822c0.269,8.155,0.047,16.326,0.152,24.489
		c0.048,3.645-2.142,6.275-3.954,8.975c-1.576,2.349-2.198,4.652-2.183,7.43c0.088,15.661,0.043,31.323,0.042,46.985
		c0,1.166,0.011,2.332-0.004,3.498c-0.032,2.592,0.251,6.484-2.537,6.515c-2.274,0.024-1.121-3.945-1.138-6.086
		c-0.12-15.66-0.069-31.322-0.063-46.984c0.001-2.817,0.466-5.627-3.644-6.382c-2.389-0.439-2.983-2.758-2.947-5.165
		c0.088-5.83,0.021-11.663,0.023-17.494C500.427,149.021,499.052,145.885,490.891,138.438z"/>
	<path fill-rule="evenodd" clip-rule="evenodd" fill="none" d="M454.475,159.285c5.169-2.992,9.776-5.586,14.303-8.315
		c1.836-1.106,3.199-0.25,4.546,0.728c4.557,3.306,7.368,7.667,7.445,13.419c0.104,7.819-0.063,15.642,0.108,23.458
		c0.085,3.85-2.039,6.686-4.032,9.435c-1.708,2.354-2.136,4.676-2.126,7.4c0.055,16.639,0.036,33.277,0.016,49.916
		c-0.003,2.591,0.354,6.751-2.228,6.753c-2.67,0.002-1.375-4.081-1.395-6.311c-0.134-15.473-0.079-30.947-0.064-46.421
		c0.002-2.83,0.426-5.653-3.583-6.466c-2.245-0.455-2.733-2.611-2.717-4.78c0.035-4.824-0.184-9.658,0.032-14.474
		C465.209,174.069,463.767,165.337,454.475,159.285z"/>
	<path fill-rule="evenodd" clip-rule="evenodd" fill="none" d="M399.041,274.768c-0.002-8.333-0.002-16.666-0.002-24.999
		c0-2.348,0.258-4.616-3.135-5.186c-2.497-0.419-3.1-2.614-3.075-5.026c0.064-6.332-0.015-12.666,0.007-18.999
		c0.023-7.027-2.099-13.156-7.716-17.646c-2.202-1.761-1.792-2.69,0.394-3.867c2.932-1.578,5.972-3.061,8.609-5.055
		c3.811-2.88,6.737-1.711,9.602,1.262c3.119,3.237,5.068,6.981,5.072,11.584c0.006,7.832-0.083,15.667,0.078,23.496
		c0.071,3.486-1.783,6.084-3.585,8.578c-2.084,2.884-2.619,5.856-2.595,9.291c0.113,16.164,0.063,32.331,0.037,48.497
		c-0.005,2.75,0.537,6.971-2.483,7.12c-2.262,0.111-1.082-4.237-1.139-6.554C398.928,289.77,399.042,282.268,399.041,274.768z"/>
	<path fill-rule="evenodd" clip-rule="evenodd" fill="none" d="M346.524,221.658c5.082-2.987,9.533-5.552,13.927-8.211
		c1.688-1.022,3.06-0.679,4.551,0.391c4.728,3.392,7.722,7.763,7.777,13.743c0.073,7.817-0.059,15.638,0.093,23.452
		c0.074,3.843-2.146,6.616-4.064,9.43c-1.609,2.36-2.108,4.687-2.097,7.43c0.07,16.634,0.043,33.269,0.024,49.902
		c-0.003,2.595,0.338,6.766-2.218,6.769c-2.708,0.004-1.332-4.057-1.353-6.257c-0.144-15.801-0.082-31.604-0.074-47.406
		c0.001-2.499,0.319-4.91-3.274-5.559c-2.47-0.446-3.007-2.733-2.982-5.109c0.059-5.654-0.146-11.315,0.041-16.965
		C357.162,234.565,354.667,227.221,346.524,221.658z"/>
	<path fill-rule="evenodd" clip-rule="evenodd" fill="none" d="M418.402,180.11c4.875-2.851,8.97-5.076,12.879-7.592
		c2.524-1.624,4.57-1.35,6.771,0.467c4.059,3.349,6.638,7.476,6.713,12.826c0.109,7.828-0.066,15.661,0.115,23.487
		c0.09,3.858-2.063,6.65-4.008,9.455c-1.622,2.339-2.184,4.635-2.169,7.398c0.086,16.159,0.042,32.319,0.041,48.479
		c0,1.166,0.033,2.335-0.024,3.498c-0.099,1.994-0.399,5.025-2.204,4.938c-2.589-0.124-1.399-3.171-1.41-4.893
		c-0.107-16.159-0.063-32.318-0.065-48.479c0-2.616,0.546-5.306-3.405-5.954c-2.505-0.41-2.933-2.78-2.903-5.137
		c0.065-5.33-0.164-10.669,0.048-15.991C429.14,193.611,427.123,185.729,418.402,180.11z"/>
	<path fill-rule="evenodd" clip-rule="evenodd" fill="none" d="M292.36,366.44c-2.035-1.631-1.222-3.789-1.229-5.642
		c-0.071-16.322-0.08-32.646-0.003-48.968c0.012-2.562-0.22-4.459-3.242-5.147c-2.484-0.566-3.083-2.653-3.056-5.059
		c0.068-5.995-0.061-11.992,0.024-17.987c0.102-7.186-1.801-13.525-7.533-18.229c-2.355-1.933-1.781-3.065,0.594-4.253
		c1.932-0.967,3.673-2.356,5.659-3.163c2.875-1.168,5.001-4.961,8.866-2.858c4.533,2.466,7.745,6.461,8.063,11.393
		c0.599,9.287,0.307,18.64,0.146,27.961c-0.026,1.51-1.003,3.234-2.024,4.454c-3.682,4.399-4.008,9.458-3.933,14.898
		c0.209,15.154,0.075,30.313,0.068,45.47C294.759,361.917,294.974,364.614,292.36,366.44z"/>
	<path fill-rule="evenodd" clip-rule="evenodd" fill="none" d="M311.119,242.24c4.316-2.514,8.45-4.665,12.294-7.248
		c2.54-1.707,4.564-1.429,6.698,0.354c4.008,3.346,6.628,7.429,6.644,12.836c0.017,5.331-0.217,10.672,0.047,15.989
		c0.337,6.827-0.19,13.284-5.129,18.613c-1.41,1.522-0.903,3.479-0.907,5.266c-0.033,16.824,0.003,33.649-0.047,50.475
		c-0.008,2.534,0.586,6.505-2.416,6.583c-2.24,0.059-1.134-3.966-1.149-6.117c-0.119-15.825-0.109-31.651-0.025-47.476
		c0.015-2.695-0.148-4.793-3.349-5.583c-2.503-0.617-2.978-2.774-2.947-5.137c0.063-4.996,0.01-9.994,0.007-14.992
		C320.834,253.504,319.906,251.185,311.119,242.24z"/>
	<path fill-rule="evenodd" clip-rule="evenodd" fill="none" d="M256.575,387.315c-2.25-1.694-1.438-3.867-1.445-5.723
		c-0.07-16.308-0.05-32.616-0.032-48.924c0.002-2.359,0.271-4.546-3.086-5.151c-2.729-0.492-3.229-2.893-3.194-5.458
		c0.084-6.155-0.011-12.313,0.02-18.471c0.032-6.831-1.974-12.837-7.364-17.271c-2.378-1.957-1.841-2.968,0.502-4.212
		c2.788-1.48,5.673-2.893,8.158-4.8c3.95-3.032,7.004-1.813,9.915,1.369c2.894,3.164,4.783,6.757,4.775,11.183
		c-0.012,7.82-0.082,15.643,0.082,23.46c0.077,3.67-1.989,6.334-3.852,8.976c-1.85,2.623-2.353,5.261-2.335,8.348
		c0.096,16.474,0.037,32.948,0.052,49.423C258.772,382.692,258.774,385.287,256.575,387.315z"/>
	<path fill-rule="evenodd" clip-rule="evenodd" fill="none" d="M183.087,398.821c-0.003-8.329,0.024-16.657-0.026-24.985
		c-0.01-1.697,0.579-3.657-2.142-4.285c-3.294-0.759-4.151-3.214-4.05-6.452c0.186-5.99,0.038-11.991,0.049-17.987
		c0.013-6.643-1.949-12.556-7.076-16.936c-2.765-2.362-2.039-3.466,0.679-4.855c2.811-1.437,5.695-2.867,8.175-4.783
		c3.438-2.656,6.091-1.528,8.697,1.023c3.334,3.265,5.421,7.119,5.424,11.921c0.006,7.661-0.105,15.326,0.108,22.982
		c0.097,3.48-1.473,6.229-3.378,8.636c-2.482,3.137-2.852,6.479-2.828,10.225c0.102,15.656,0.043,31.314,0.042,46.972
		c0,1.166,0.049,2.336-0.035,3.496c-0.13,1.807-0.302,4.515-2.125,4.47c-2.573-0.063-1.422-2.887-1.448-4.457
		C183.018,415.479,183.091,407.149,183.087,398.821z"/>
	<path fill-rule="evenodd" clip-rule="evenodd" fill="none" d="M111.127,440.49c-0.002-8.484-0.01-16.969,0.004-25.454
		c0.003-1.867,0.142-3.634-2.418-4.135c-3.021-0.591-3.539-2.81-3.587-5.626c-0.13-7.631,0.715-15.29-0.473-22.894
		c-0.797-5.105-2.96-9.576-7.023-12.826c-2.681-2.145-1.879-3.19,0.639-4.486c2.804-1.442,5.685-2.878,8.146-4.808
		c3.835-3.007,6.72-1.536,9.49,1.353c2.838,2.961,4.825,6.413,4.903,10.616c0.152,8.144,0.145,16.291,0.243,24.437
		c0.035,2.871-1.467,5.167-3.062,7.212c-2.839,3.643-3.356,7.608-3.3,12.066c0.192,15.304,0.074,30.61,0.073,45.916
		c0,0.998,0.002,1.996-0.013,2.994c-0.03,2.01-0.254,5.029-2.098,4.968c-2.647-0.089-1.427-3.152-1.458-4.879
		C111.048,456.796,111.129,448.643,111.127,440.49z"/>
	<path fill-rule="evenodd" clip-rule="evenodd" fill="none" d="M219.088,378.425c-0.002-8.487,0.028-16.974-0.028-25.46
		c-0.012-1.678,0.67-3.742-2.108-4.277c-3.439-0.664-4.217-3.157-4.145-6.353c0.132-5.821-0.034-11.648,0.048-17.472
		c0.098-7.007-1.834-13.192-7.331-17.797c-2.38-1.994-1.798-3.047,0.548-4.242c1.774-0.904,3.376-2.187,5.203-2.938
		c2.932-1.206,5.179-5.026,8.842-3.335c4.634,2.14,7.971,6.229,8.308,11.167c0.645,9.438,0.328,18.946,0.246,28.424
		c-0.01,1.206-0.776,2.589-1.58,3.573c-4.049,4.956-4.515,10.657-4.409,16.787c0.256,14.807,0.107,29.62,0.058,44.43
		c-0.008,2.535,0.58,6.499-2.426,6.566c-2.268,0.05-1.112-3.954-1.159-6.11C218.988,393.736,219.089,386.079,219.088,378.425z"/>
	<path fill-rule="evenodd" clip-rule="evenodd" fill="none" d="M147.125,420.018c-0.003-8.49-0.008-16.98,0-25.47
		c0.002-1.84,0.179-3.577-2.32-4.223c-3.289-0.85-4.039-3.335-3.937-6.541c0.19-5.986,0.046-11.983,0.048-17.977
		c0.001-6.638-1.975-12.51-7.118-16.907c-2.973-2.541-1.922-3.342,1.103-4.426c3.399-1.219,6.676-2.949,9.254-5.558
		c1.847-1.868,3.46-1.501,5.243-0.187c4.372,3.224,7.265,7.384,7.374,12.948c0.157,7.986-0.026,15.98,0.134,23.968
		c0.07,3.477-1.744,6.123-3.579,8.57c-2.158,2.878-2.632,5.837-2.609,9.259c0.105,16.313,0.067,32.628,0.024,48.941
		c-0.007,2.557,0.512,6.549-2.379,6.65c-2.284,0.08-1.119-3.933-1.167-6.079C147.025,435.335,147.128,427.675,147.125,420.018z"/>
	<path fill-rule="evenodd" clip-rule="evenodd" fill="none" d="M76.009,392.174c-2.624-7.566,2.262-12.087,9.619-15.002
		c2.865-1.136,4.991-5.058,8.839-2.741c3.966,2.388,3.986,6.341,4.399,10.463c0.596,5.953-1.255,9.637-6.876,12.021
		c-4.412,1.871-8.471,4.61-12.586,7.129c-2.742,1.678-3.491,0.742-3.412-2.067C76.071,399.145,76.009,396.311,76.009,392.174z"/>
	<path fill-rule="evenodd" clip-rule="evenodd" fill="none" d="M494.563,156.433c0.005,7.806-2.945,11.502-9.271,13.449
		c-2.172,0.669-2.249-0.498-2.271-1.935c-0.105-7.027-2.506-12.984-8.134-17.412c-1.373-1.08-1.688-1.977,0.053-2.924
		c0.291-0.158,0.56-0.367,0.862-0.496c3.698-1.576,7.9-6.884,10.541-4.812C490.805,145.803,497.307,149.852,494.563,156.433z"/>
	<path fill-rule="evenodd" clip-rule="evenodd" fill="none" d="M458.68,178.281c0.005,6.555-3.169,10.606-9.46,12.419
		c-2.195,0.632-2.207-0.615-2.206-2.031c0.003-5.354-1.635-10.131-4.922-14.355c-0.568-0.731-1.53-1.346-0.657-2.544
		c0.873-1.2,10.754-6.248,11.805-5.771c4.432,2.013,5.641,5.786,5.443,10.283C458.653,176.947,458.679,177.615,458.68,178.281z"/>
	<path fill-rule="evenodd" clip-rule="evenodd" fill="none" d="M350.715,240.816c0.003,6.309-3.517,10.706-9.483,12.227
		c-1.872,0.477-2.006-0.447-2.026-1.712c-0.091-5.481-1.797-10.386-5.124-14.74c-0.573-0.749-1.367-1.41-0.452-2.555
		c1.136-1.419,10.602-6.107,11.842-5.541c4.453,2.034,5.382,5.929,5.247,10.333C350.697,239.49,350.715,240.154,350.715,240.816z"/>
	<path fill-rule="evenodd" clip-rule="evenodd" fill="none" d="M278.715,281.384c0.004,7.504-2.637,10.937-9.399,13.113
		c-1.444,0.465-2.262,0.332-2.238-1.377c0.078-5.697-1.516-10.826-5.252-15.192c-0.993-1.16-1.044-2.198,0.427-2.721
		c4.029-1.431,6.872-6.74,11.783-4.733C279.026,272.514,278.917,277.492,278.715,281.384z"/>
	<path fill-rule="evenodd" clip-rule="evenodd" fill="none" d="M386.715,220.15c0.003,6.534-2.63,9.799-9.227,11.961
		c-2.039,0.668-2.418-0.219-2.437-1.772c-0.063-5.331-1.594-10.138-4.882-14.369c-0.599-0.771-1.465-1.888-0.38-2.596
		c3.563-2.327,7.018-6.308,11.248-5.627c4.621,0.742,5.799,5.402,5.679,9.906C386.694,218.485,386.714,219.318,386.715,220.15z"/>
	<path fill-rule="evenodd" clip-rule="evenodd" fill="none" d="M411.229,211.729c-0.176-6.243-1.183-12.202-5.495-17.053
		c-0.368-0.413-0.561-1.198-0.471-1.753c0.141-0.88,10.626-6.656,11.515-6.312c3.583,1.392,5.445,4.145,5.875,7.905
		c0.093,0.818,0.049,1.653,0.061,2.48C422.847,207.084,421.785,208.475,411.229,211.729z"/>
	<path fill-rule="evenodd" clip-rule="evenodd" fill="none" d="M314.715,261.349c0.003,6.596-2.88,10.315-9.412,12.289
		c-1.412,0.427-2.293,0.306-2.266-1.386c0.094-5.682-1.556-10.758-5.203-15.149c-0.551-0.663-0.953-1.247-0.313-2.149
		c0.881-1.242,10.645-6.26,11.746-5.769c4.411,1.969,5.69,5.679,5.452,10.177C314.685,260.022,314.715,260.687,314.715,261.349z"/>
	<path fill-rule="evenodd" clip-rule="evenodd" fill="none" d="M123.321,378.052c-0.053-6.504-1.39-12.222-5.434-17.019
		c-0.542-0.643-1.035-1.224-0.432-2.152c0.769-1.182,10.636-6.29,11.729-5.835c4.275,1.779,5.51,5.3,5.568,9.628
		C134.893,373.08,134.492,373.719,123.321,378.052z"/>
	<path fill-rule="evenodd" clip-rule="evenodd" fill="none" d="M242.715,303.008c0.002,6.279-3.578,10.734-9.515,12.208
		c-1.847,0.459-2.069-0.479-2.084-1.717c-0.063-5.495-1.724-10.407-5.121-14.735c-0.514-0.654-0.89-1.345-0.319-2.238
		c0.639-0.998,10.26-6.326,11.209-5.938c4.433,1.815,6.063,5.34,5.835,9.934C242.679,301.348,242.714,302.179,242.715,303.008z"/>
	<path fill-rule="evenodd" clip-rule="evenodd" fill="none" d="M170.729,344.059c0.004,6.936-3.228,11.028-9.494,12.754
		c-1.67,0.46-2.167-0.104-2.148-1.572c0.072-5.731-1.743-10.787-5.376-15.203c-0.588-0.715-0.933-1.527,0.029-2.105
		c3.409-2.05,6.55-4.897,10.49-5.571c2.598-0.444,4.384,1.9,5.56,4.276C171.042,339.161,170.636,341.853,170.729,344.059z"/>
	<path fill-rule="evenodd" clip-rule="evenodd" fill="none" d="M206.729,323.579c0.006,6.847-2.55,10.077-9.325,12.331
		c-2.106,0.701-2.321-0.271-2.321-1.797c-0.002-5.329-1.649-10.079-4.894-14.299c-0.598-0.778-1.431-1.893-0.316-2.577
		c3.606-2.214,6.957-6.28,11.244-5.526c4.625,0.814,5.828,5.358,5.616,9.878C206.701,322.251,206.729,322.916,206.729,323.579z"/>
	<path fill-rule="evenodd" clip-rule="evenodd" fill="none" d="M-12.936,328.118c28.993,16.755,57.987,33.509,86.98,50.264
		c-0.347,0.6-0.694,1.199-1.042,1.799c-28.994-16.753-57.988-33.507-86.982-50.26C-13.632,329.32-13.284,328.719-12.936,328.118z"/>
	<path fill-rule="evenodd" clip-rule="evenodd" fill="none" d="M504.088,238.842c-2.065-2.737-2.538-49.129-0.549-53.825
		C505.161,188.067,505.619,233.001,504.088,238.842z"/>
	<path fill-rule="evenodd" clip-rule="evenodd" fill="none" d="M432.269,226.566c0,18.053,0,35.958,0,54.011
		c-2.01-0.078-1.808-1.8-1.811-3.152c-0.035-16.102-0.025-32.203-0.008-48.304C430.451,228.16,430.378,227.077,432.269,226.566z"/>
	<path fill-rule="evenodd" clip-rule="evenodd" fill="none" d="M468.205,205.842c0,17.95,0,35.899,0,53.938
		C466.016,256.932,465.496,210.686,468.205,205.842z"/>
	<path fill-rule="evenodd" clip-rule="evenodd" fill="none" d="M3.221,388.329c0.001-5.642-0.019-11.283,0.022-16.925
		c0.006-0.898-0.348-2.271,1.032-2.374c1.223-0.091,2.232,0.764,2.426,2.06c0.195,1.304,0.198,2.644,0.201,3.967
		c0.016,8.463,0.017,16.926-0.001,25.388c-0.003,1.491-0.016,2.996-0.219,4.468c-0.177,1.287-0.424,3.028-2.041,2.978
		c-1.928-0.06-1.378-1.94-1.393-3.134C3.184,399.281,3.22,393.805,3.221,388.329z"/>
	<path fill-rule="evenodd" clip-rule="evenodd" fill="none" d="M47.633,323.689c-0.541,0.398-1.224,0.84-1.837,1.362
		c-2.224,1.898-6.2,1.962-6.242,6.198c-0.011,1.035-1.228,0.837-1.987,0.462c-1.034-0.512-2.07-1.048-3.015-1.705
		c-1.849-1.286-5.383-1.773-5.257-3.851c0.142-2.347,3.582-2.963,5.742-4.018c3.423-1.67,7.065-1.41,10.64-0.479
		C46.492,321.872,47.708,322.079,47.633,323.689z"/>
	<path fill-rule="evenodd" clip-rule="evenodd" fill="none" d="M381.433,202.741c6.014,3.383,8.959,8.104,9.241,14.226
		c0.321,6.963,0.131,13.951,0.07,20.928c-0.008,0.991,0.684,2.798-0.99,2.804c-1.891,0.007-1.435-1.897-1.444-3.129
		c-0.047-5.979-0.236-11.97,0.035-17.938c0.268-5.868-0.733-10.923-6.324-14.052c-0.259-0.146-0.471-0.486-0.566-0.78
		C381.357,204.501,381.433,204.148,381.433,202.741z"/>
	<path fill-rule="evenodd" clip-rule="evenodd" fill="none" d="M417.635,182.226c5.827,3.168,8.765,7.782,9.028,13.799
		c0.306,6.982,0.121,13.988,0.062,20.982c-0.009,1.014,0.655,2.814-0.954,2.874c-1.944,0.073-1.449-1.857-1.459-3.069
		c-0.051-6.329-0.215-12.666,0.03-18.985c0.21-5.403-1.002-9.886-5.973-12.759c-0.39-0.225-0.695-0.685-0.9-1.104
		C417.351,183.721,417.511,183.342,417.635,182.226z"/>
	<path fill-rule="evenodd" clip-rule="evenodd" fill="none" d="M238.121,286.341c5.307,3.013,8.187,7.4,8.505,12.965
		c0.416,7.287,0.157,14.614,0.126,21.925c-0.004,0.863,0.509,2.316-0.896,2.418c-1.666,0.12-1.542-1.407-1.547-2.536
		c-0.028-6.479-0.254-12.97,0.049-19.435c0.245-5.232-1.131-9.47-5.415-12.615C238.267,288.567,237.645,288.026,238.121,286.341z"/>
	<path fill-rule="evenodd" clip-rule="evenodd" fill="none" d="M360.51,268.462c0,17.775,0,35.551,0,53.326
		c-0.359,0.004-0.719,0.009-1.079,0.013c0-17.783,0-35.567,0-53.351C359.791,268.454,360.15,268.458,360.51,268.462z"/>
	<path fill-rule="evenodd" clip-rule="evenodd" fill="none" d="M489.712,140.979c4.763,1.813,7.353,5.578,8.254,10.141
		c1.799,9.102,0.479,18.307,0.796,27.721c-3.179-0.784-2.422-2.773-2.441-4.245c-0.082-6.32-0.203-12.647,0.016-18.961
		c0.18-5.215-0.959-9.537-5.92-12.169C489.719,143.096,489.142,142.387,489.712,140.979z"/>
	<path fill-rule="evenodd" clip-rule="evenodd" fill="none" d="M345.834,224.811c5.443,2.05,8.676,6.897,8.879,12.98
		c0.173,5.158,0.251,10.335-0.004,15.484c-0.139,2.799,0.579,8.335-0.808,7.926c-3.379-0.997-1.228-5.345-1.551-8.276
		c-0.308-2.797-0.066-5.655-0.066-8.486C352.284,233.207,352.284,233.207,345.834,224.811z"/>
	<path fill-rule="evenodd" clip-rule="evenodd" fill="none" d="M273.229,265.271c6.141,3.13,8.971,7.491,9.352,12.89
		c0.524,7.455,0.189,14.973,0.174,22.463c-0.002,0.865,0.367,2.28-1.193,2.155c-1.29-0.104-1.253-1.343-1.257-2.341
		c-0.016-4.494-0.004-8.988-0.02-13.482C280.245,275.933,280.24,275.933,273.229,265.271z"/>
	<path fill-rule="evenodd" clip-rule="evenodd" fill="none" d="M252.445,331.135c0,17.568,0,35.136,0,52.704
		c-0.362-0.001-0.725-0.001-1.087-0.002c0-17.579,0-35.159,0-52.739C251.721,331.11,252.083,331.123,252.445,331.135z"/>
	<path fill-rule="evenodd" clip-rule="evenodd" fill="none" d="M323.398,342.524c0-17.713,0-35.427,0-53.14
		c0.263-0.008,0.525-0.016,0.788-0.023c0,17.714,0,35.429,0,53.144C323.924,342.512,323.661,342.518,323.398,342.524z"/>
	<path fill-rule="evenodd" clip-rule="evenodd" fill="none" d="M210.552,345.052c-2.798-1.507-2.184-3.353-2.205-4.911
		c-0.069-4.978-0.262-9.971,0.03-14.932c0.398-6.756-0.217-12.957-7.166-16.857c4.668,0.406,8.851,4.583,9.194,10.042
		C210.953,327.069,210.552,335.805,210.552,345.052z"/>
	<path fill-rule="evenodd" clip-rule="evenodd" fill="none" d="M309.404,245.62c5.893,1.953,8.757,6.335,9.159,11.716
		c0.556,7.436,0.199,14.94,0.192,22.416c-0.001,0.906,0.274,2.319-1.14,2.274c-1.171-0.037-1.319-1.267-1.318-2.319
		c0.004-4.485,0.047-8.971-0.023-13.455C316.158,258.777,318.313,250.545,309.404,245.62z"/>
	<path fill-rule="evenodd" clip-rule="evenodd" fill="none" d="M180.45,372.473c0,17.689,0,35.378,0,53.066
		c-0.327,0.006-0.654,0.011-0.981,0.017c0-17.696,0-35.393,0-53.089C179.796,372.469,180.124,372.471,180.45,372.473z"/>
	<path fill-rule="evenodd" clip-rule="evenodd" fill="none" d="M453.703,161.836c8.781,4.389,12.967,24.243,8.021,37.396
		c-2.205-0.843-1.392-2.773-1.413-4.253c-0.093-6.149-0.209-12.308,0.012-18.45c0.188-5.242-1.161-9.493-5.959-12.207
		C453.621,163.901,453.138,163.216,453.703,161.836z"/>
	<path fill-rule="evenodd" clip-rule="evenodd" fill="none" d="M144.544,393.379c0,17.673,0,35.346,0,53.159
		C142.536,443.887,141.867,399.879,144.544,393.379z"/>
	<path fill-rule="evenodd" clip-rule="evenodd" fill="none" d="M396.359,248.071c0,17.594,0,35.188,0,52.781
		c-0.451,0.001-0.903,0.001-1.355,0.002c-0.444-17.594-0.395-35.188-0.032-52.781C395.435,248.072,395.896,248.071,396.359,248.071z
		"/>
	<path fill-rule="evenodd" clip-rule="evenodd" fill="none" d="M108.497,414.229c0,17.544,0,35.088,0,52.632
		c-0.354,0.003-0.707,0.007-1.061,0.011c0-17.556,0-35.111,0-52.667C107.79,414.213,108.144,414.221,108.497,414.229z"/>
	<path fill-rule="evenodd" clip-rule="evenodd" fill="none" d="M288.41,310.338c0,17.522,0,35.045,0,52.567
		c-0.362,0.002-0.725,0.003-1.087,0.005c0-17.534,0-35.069,0-52.604C287.686,310.316,288.048,310.327,288.41,310.338z"/>
	<path fill-rule="evenodd" clip-rule="evenodd" fill="none" d="M130.282,349.935c5.422,1.975,7.966,6.209,8.308,11.239
		c0.507,7.46,0.198,14.976,0.189,22.468c-0.001,0.888,0.332,2.315-1.118,2.268c-1.205-0.039-1.32-1.296-1.322-2.33
		c-0.01-5.161-0.106-10.323,0.004-15.481C136.486,361.384,137.078,354.582,130.282,349.935z"/>
	<path fill-rule="evenodd" clip-rule="evenodd" fill="none" d="M215.315,404.646c0-17.528,0-35.058,0-52.587
		c0.361,0,0.723-0.001,1.085-0.001c0,17.536,0,35.072,0,52.609C216.038,404.659,215.677,404.652,215.315,404.646z"/>
	<path fill-rule="evenodd" clip-rule="evenodd" fill="none" d="M94.506,369.923c4.948,2.362,7.645,6.596,7.989,11.505
		c0.586,8.374,0.162,16.818,0.162,25.426c-2.964-0.394-2.289-2.4-2.305-3.849c-0.07-6.142-0.207-12.291,0.024-18.424
		c0.188-4.993-0.909-9.191-5.289-12.09C94.375,372.021,93.9,371.351,94.506,369.923z"/>
	<path fill-rule="evenodd" clip-rule="evenodd" fill="none" d="M166.544,328.919c8.277,3.234,11.852,20.628,7.411,36.186
		c-2.163-0.448-1.59-2.215-1.604-3.543c-0.063-6.127-0.232-12.264,0.03-18.38c0.223-5.181-1.076-9.468-5.381-12.596
		C166.401,330.151,166.165,329.619,166.544,328.919z"/>
	<path fill-rule="evenodd" clip-rule="evenodd" fill="none" d="M0.695,367.091c0,12.541,0,25.083,0,37.624
		c-0.315,0.011-0.63,0.021-0.945,0.031c0-12.524,0-25.05,0-37.574C0.065,367.145,0.38,367.117,0.695,367.091z"/>
	<path fill-rule="evenodd" clip-rule="evenodd" fill="none" d="M522.833,125.201c-1.587,5.121-2.915,9.407-4.302,13.882
		c-0.711-0.522-1.051-0.651-1.194-0.895C512.422,129.832,512.424,129.83,522.833,125.201z"/>
	<path fill-rule="evenodd" clip-rule="evenodd" fill="none" d="M34.077,320.101c-0.06-3.626,2.664-3.7,5.144-3.936
		c5.558-0.527,8.276,0.671,10.725,5.205c-5.544-2.664-10.703-2.79-15.914-1.338L34.077,320.101z"/>
	<path fill-rule="evenodd" clip-rule="evenodd" fill="none" d="M75.871,378.091c4.978-2.96,9.955-5.919,14.932-8.878
		c0.349,0.541,0.698,1.082,1.046,1.624c-4.368,3.823-9.868,5.938-14.693,9.073C76.728,379.304,76.299,378.697,75.871,378.091z"/>
	<path fill-rule="evenodd" clip-rule="evenodd" fill="none" d="M199.839,306.251c-2.269,4.913-10.214,9.538-15.38,8.964
		C189.87,312.061,194.363,309.442,199.839,306.251z"/>
	<path fill-rule="evenodd" clip-rule="evenodd" fill="none" d="M364.144,211.34c5.659-3.201,10.271-5.812,15.664-8.862
		C377.701,207.187,369.266,212.053,364.144,211.34z"/>
	<path fill-rule="evenodd" clip-rule="evenodd" fill="none" d="M451.658,162.841c-4.056,3.564-8.619,6.257-13.762,7.954
		c-0.294-0.505-0.587-1.01-0.88-1.515c4.61-2.609,9.221-5.22,13.832-7.829C451.118,161.914,451.388,162.378,451.658,162.841z"/>
	<path fill-rule="evenodd" clip-rule="evenodd" fill="none" d="M343.852,225.154c-3.898,3.598-8.55,5.931-13.397,7.936
		c-0.312-0.522-0.623-1.045-0.935-1.567c4.491-2.604,8.981-5.21,13.472-7.814C343.278,224.19,343.564,224.672,343.852,225.154z"/>
	<path fill-rule="evenodd" clip-rule="evenodd" fill="none" d="M271.705,266.701c-3.288,3.615-8.046,5.183-12.073,7.762
		c-0.58,0.371-1.304,0.039-1.636-0.647c-0.396-0.818,0.235-1.232,0.788-1.556c3.965-2.319,7.947-4.609,11.924-6.909
		C271.04,265.801,271.373,266.251,271.705,266.701z"/>
	<path fill-rule="evenodd" clip-rule="evenodd" fill="none" d="M127.704,348.002c-0.769,4.445-3.969,4.836-6.114,6.077
		c-2.296,1.327-4.233,3.816-7.415,3.135c0.744-3.416,4.185-3.512,6.389-5.102C122.433,350.766,124.564,349.784,127.704,348.002z"/>
	<path fill-rule="evenodd" clip-rule="evenodd" fill="none" d="M400.589,190.358c5.067-2.904,9.604-5.505,14.864-8.52
		C413.49,186.664,404.942,191.53,400.589,190.358z"/>
	<path fill-rule="evenodd" clip-rule="evenodd" fill="none" d="M509.226,127.603c4.598-2.641,9.195-5.281,13.793-7.922
		c0.269,0.463,0.537,0.926,0.806,1.389c-3.941,3.77-8.66,6.244-13.688,8.206C509.833,128.718,509.529,128.16,509.226,127.603z"/>
	<path fill-rule="evenodd" clip-rule="evenodd" fill="none" d="M149.296,335.967c4.482-3.546,9.139-5.715,14.064-8.517
		C162.073,331.64,154.052,336.439,149.296,335.967z"/>
	<path fill-rule="evenodd" clip-rule="evenodd" fill="none" d="M235.312,287.122c-3.256,3.844-7.812,5.828-12.089,8.183
		c-0.241,0.134-0.96-0.226-1.205-0.547c-0.546-0.717,0.034-1.262,0.596-1.577C226.68,290.896,230.493,288.103,235.312,287.122z"/>
	<path fill-rule="evenodd" clip-rule="evenodd" fill="none" d="M307.722,246.207c-3.991,3.284-8.533,5.604-13.121,7.843
		c-0.33-0.563-0.66-1.128-0.991-1.691c4.377-2.532,8.753-5.064,13.129-7.597C307.066,245.243,307.395,245.725,307.722,246.207z"/>
	<path fill-rule="evenodd" clip-rule="evenodd" fill="none" d="M34.032,320.032c-1.85,1.536-3.819,2.841-6.398,2.95
		c1.435-2.377,2.625-5.248,6.441-2.883C34.077,320.101,34.032,320.032,34.032,320.032z"/>
	<path fill-rule="evenodd" clip-rule="evenodd" d="M86.307,315.739c6.03,0.048,10.797,2.992,10.783,6.659
		c-0.015,3.726-4.772,6.767-10.7,6.841c-6.111,0.075-11.294-3.011-11.324-6.743C75.035,318.677,80.004,315.689,86.307,315.739z
		 M86.246,326.941c3.491-0.219,8.119-0.015,8.17-4.439c0.052-4.48-4.661-4.474-8.073-4.491c-3.574-0.019-8.637-0.16-8.663,4.401
		C77.655,326.957,82.618,326.755,86.246,326.941z"/>
	<path fill-rule="evenodd" clip-rule="evenodd" fill="none" d="M86.246,326.941c-3.628-0.187-8.59,0.016-8.565-4.529
		c0.025-4.562,5.088-4.42,8.663-4.401c3.412,0.018,8.125,0.011,8.073,4.491C94.365,326.927,89.736,326.723,86.246,326.941z"/>
</g>
</svg>
