<?xml version="1.0" encoding="utf-8"?>
<!-- Generator: Adobe Illustrator 16.0.0, SVG Export Plug-In . SVG Version: 6.00 Build 0)  -->
<!DOCTYPE svg PUBLIC "-//W3C//DTD SVG 1.1//EN" "http://www.w3.org/Graphics/SVG/1.1/DTD/svg11.dtd">
<svg version="1.1" id="Layer_1" xmlns="http://www.w3.org/2000/svg" xmlns:xlink="http://www.w3.org/1999/xlink" x="0px" y="0px"
	 width="512px" height="512px" viewBox="0 0 512 512" enable-background="new 0 0 512 512" xml:space="preserve">
<g>
	<g>
		<path fill-rule="evenodd" clip-rule="evenodd" fill="#FFFFFF" d="M184,147c86,0,172,0,258,0c0,73.333,0,146.667,0,220
			c-123,0-246,0-369,0c0-36.333,0-72.667,0-109c1.312-0.149,2.624-0.427,3.936-0.428c33.666-0.023,67.332-0.022,100.997-0.001
			c1.265,0.001,2.529,0.241,4.305,0.422c0,36.218,0,72.127,0,108.119c36.981,0,73.409,0,110.137,0c0-36.752,0-73.157,0-110.149
			c-36.33,0-72.395,0-108.545,0c-0.118-1.729-0.265-2.879-0.265-4.03c-0.013-33.665-0.016-67.331,0.007-100.997
			C183.573,149.624,183.851,148.312,184,147z M404.268,231.199c-7.432,7.12-6.143,13.077,3.421,16.716
			c1.849,0.704,3.804,1.326,5.757,1.527c8.889,0.915,17.332-0.165,24.16-6.649c3.591-3.411,4.684-7.876,2.906-12.375
			c-1.655-4.188-5.726-5.317-9.936-5.29c-3.317,0.022-6.633,0.532-9.947,0.521c-3.454-0.012-6.976-0.066-10.318-0.791
			c-1.04-0.226-1.595-2.693-2.371-4.135c1.299-0.637,2.553-1.652,3.907-1.812c1.599-0.187,3.276,0.462,4.933,0.587
			c12.17,0.918,21.862-7.775,19.693-17.963c-0.676-3.175-1.181-5.458,1.923-7.701c1.164-0.842,1.087-3.402,1.576-5.179
			c-0.424-0.354-0.849-0.709-1.272-1.063c-5.012,4.868-10.603,2.987-16.146,2.281c-7.8-0.993-14.744,0.803-19.137,7.813
			c-4.162,6.641-2.67,13.021,2.293,18.7C398.409,223.255,398.173,225.387,404.268,231.199z M327.227,337.473
			c1.908,2.093,3.283,4.706,4.368,4.591c3.726-0.396,7.39-1.63,10.963-2.874c0.49-0.17,0.559-3.207,0.438-3.233
			c-6.155-1.4-4.933-6.436-4.962-10.479c-0.091-12.643,0.21-25.287,0.133-37.93c-0.011-1.82-0.771-4.607-2.047-5.258
			c-3.169-1.614-11.62,2.028-13.839,5.298c6.919,5.483,7.684,7.457,5.148,13.286c-12.185-3.698-20.553-1.898-25.865,6.193
			c-5.41,8.24-6.088,17.192-1.806,26.113c4.379,9.12,15.129,11.988,23.749,6.696C325.016,338.95,326.481,337.956,327.227,337.473z
			 M273.516,178.491c8.518,1.495,7.451,7.61,7.51,13.017c0.102,9.497,0.323,19.008-0.105,28.485
			c-0.124,2.731-1.936,5.644-3.654,7.969c-1.516,2.05-1.65,3.764,0.689,3.974c5.226,0.468,10.524,0.251,15.78,0.016
			c0.431-0.02,1.347-3.21,1.05-3.401c-7.617-4.926-3.35-11.955-3.809-18.193c1.347,0.409,2.193,0.94,2.788,1.675
			c4.507,5.567,8.927,11.204,13.448,16.759c3.254,3.998,9.797,5.528,14.406,3.335c0.908-0.432,2.052-1.517,2.077-2.332
			c0.024-0.798-1.103-1.85-1.97-2.41c-1.514-0.979-3.646-1.284-4.764-2.543c-4.967-5.595-9.763-11.351-14.349-17.26
			c-0.659-0.849-0.397-3.55,0.403-4.194c3.42-2.753,7.23-5.017,10.834-7.55c0.99-0.696,1.758-1.711,2.627-2.58
			c-0.957-0.785-1.834-2.1-2.883-2.254c-2.939-0.435-5.974-0.702-8.926-0.472c-6.283,0.491-6.817,1.822-2.828,7.519
			c-3.291,2.943-6.641,5.938-10.994,9.832c-0.285-3.348-0.589-5.121-0.56-6.891c0.134-7.995,0.477-15.989,0.446-23.982
			c-0.006-1.431-1.402-4.077-2.184-4.087C283.254,172.85,278.218,174.061,273.516,178.491z M348.702,195.813
			c8.102,2.094,6.738,8.095,6.878,13.407c0.105,3.996,0.469,8.048-0.049,11.974c-0.308,2.33-1.644,4.934-3.332,6.579
			c-2.594,2.529-1.693,4.122,0.987,4.376c4.909,0.465,9.898,0.191,14.848,0.028c0.756-0.025,2.125-1.173,2.073-1.687
			c-0.093-0.914-0.997-1.788-1.666-2.593c-0.912-1.097-2.778-2.136-2.75-3.158c0.201-7.411,0.231-14.904,1.458-22.179
			c0.641-3.798,4.567-5.497,8.719-5.036c4.304,0.478,6.139,3.523,6.188,7.251c0.117,8.794,4.824,18.527-5.543,25.735
			c6.655,3.414,12.811,2.677,18.926,1.313c0.443-0.099,0.864-3.368,0.502-3.546c-4.048-1.987-3.637-5.602-3.7-9.086
			c-0.103-5.66-0.004-11.335-0.376-16.978c-0.357-5.415-3.195-9.49-8.291-11.505c-4.956-1.961-9.777-1.59-14.048,2.038
			c-1.049,0.89-2.242,1.609-3.63,2.593c-0.57-2.102-0.985-3.63-1.472-5.421C358.713,190.222,353.533,190.992,348.702,195.813z
			 M258.007,207.03c-3.369-0.161-6.197-0.556-8.984-0.36c-2.956,0.208-5.998,0.613-8.78,1.575
			c-5.888,2.036-9.081,7.147-8.709,13.114c0.393,6.324,3.758,10.938,10.173,11.687c4.014,0.468,8.438-0.67,12.363-2.01
			c2.591-0.885,4.165-1.715,6.436,0.672c2.789,2.934,9.21,2.278,11.462-0.989c0.535-0.776-0.051-3.499-0.645-3.688
			c-3.607-1.151-3.635-3.858-3.622-6.786c0.024-5.323,0.109-10.651-0.069-15.969c-0.355-10.563-4.582-14.736-15.126-14.692
			c-3.276,0.014-6.694,0.46-9.779,1.503c-2.54,0.858-5.233,2.476-6.8,4.555c-0.991,1.314-0.04,4.094,0.041,6.216
			c1.966-0.281,4.071-0.227,5.853-0.958c1.251-0.514,2.038-2.121,3.075-3.197c2.654-2.755,6.28-4.431,9.373-2.369
			c2.11,1.407,2.813,5.065,3.876,7.82C258.518,204.119,258.093,205.396,258.007,207.03z M227.308,222.137
			c-0.453-0.515-0.906-1.029-1.358-1.544c-2.158,1.231-4.329,2.439-6.471,3.697c-8.802,5.167-19.548,0.48-20.828-9.001
			c-0.429-3.178,0.348-4.613,3.858-4.505c6.487,0.201,12.985,0.092,19.479,0.044c5.049-0.038,6.045-1.267,5.397-6.396
			c-1.432-11.348-10.946-17.116-23.407-14.19c-8.506,1.996-15.014,9.561-15.879,18.458c-1.046,10.752,3.383,19.278,11.989,23.079
			c8.569,3.785,18.93,1.55,25.05-5.545C226.122,225.094,226.597,223.514,227.308,222.137z M341.106,207.254c0.235,0,0.471,0,0.706,0
			c0-4.65,0.211-9.317-0.139-13.941c-0.095-1.25-2.099-3.504-2.861-3.361c-3.871,0.728-7.67,1.97-11.357,3.384
			c-0.479,0.184-0.467,3.454-0.188,3.532c4.283,1.2,4.272,4.688,4.388,7.979c0.187,5.314,0.517,10.669,0.047,15.939
			c-0.22,2.459-1.778,5.096-3.44,7.048c-1.868,2.194-1.931,3.946,0.772,4.209c5.053,0.492,10.217,0.481,15.273,0.016
			c2.465-0.227,3.467-2.539,0.605-3.902c-3.417-1.629-3.7-4.437-3.776-7.441C341.023,216.229,341.106,211.74,341.106,207.254z
			 M335.338,184.575c3.146-0.517,6.411-1.194,6.532-5.314c0.111-3.796-2.479-5.155-5.864-5.212
			c-3.572-0.059-6.396,1.462-6.687,5.197C329.021,183.084,332.093,184.069,335.338,184.575z"/>
		<path fill-rule="evenodd" clip-rule="evenodd" d="M184,147c-0.149,1.312-0.427,2.624-0.428,3.936
			c-0.023,33.666-0.02,67.332-0.007,100.997c0,1.151,0.147,2.302,0.265,4.03c36.15,0,72.215,0,108.545,0
			c0,36.992,0,73.397,0,110.149c-36.728,0-73.155,0-110.137,0c0-35.992,0-71.901,0-108.119c-1.776-0.181-3.04-0.421-4.305-0.422
			c-33.666-0.021-67.332-0.022-100.997,0.001c-1.312,0.001-2.624,0.278-3.936,0.428c0-37,0-74,0-111C110,147,147,147,184,147z
			 M128.838,199.889c5.098-2.417,7.886-5.839,8.248-10.977c0.618-8.772-5.191-15.511-14.734-16.031
			c-9.466-0.518-18.975-0.2-28.462-0.381c-2.8-0.053-3.803,0.991-3.791,3.789c0.074,17.817,0.074,35.636-0.015,53.454
			c-0.015,2.896,1.172,3.728,3.877,3.679c9.488-0.169,18.99,0.074,28.466-0.338c9.531-0.415,15.14-4.948,16.841-12.728
			C141.307,211.028,138.469,205.136,128.838,199.889z M191.052,342.478c8.333,0,16.148,0.041,23.962-0.02
			c3.162-0.024,6.346-0.079,9.48-0.45c10.774-1.274,16.215-7.828,15.772-18.656c-0.29-7.07-4.291-11.472-9.464-13.764
			c2.227-3.221,5.211-5.962,6.218-9.299c2.788-9.246-3.448-17.561-13.681-18.343c-7.791-0.596-15.648-0.337-23.476-0.435
			c-2.91-0.036-5.82-0.006-8.812-0.006C191.052,302.169,191.052,321.943,191.052,342.478z M273.07,340.827
			c2.547,3.688,7.064,1.047,10.549,1.35c0-5.248,0.044-10.03-0.012-14.811c-0.069-5.983-0.037-11.977-0.395-17.944
			c-0.297-4.974-3.18-8.331-7.875-9.892c-6.848-2.277-13.761-2.255-20.519,0.326c-5.769,2.203-8.318,6.285-7.944,12.583
			c3.984-0.574,8.621,3.298,11.58-3.501c0.771-1.771,6.435-1.85,9.86-1.894c3.027-0.039,4.613,2.168,4.376,5.674
			c-1.649,0.439-3.222,0.887-4.808,1.279c-5.146,1.273-10.457,2.094-15.409,3.898c-6.154,2.241-9.239,7.992-8.301,13.785
			c1.022,6.311,5.582,11.247,12.022,11.362C261.477,343.139,266.785,341.717,273.07,340.827z M146.955,233.059
			c3.7,0,6.786,0,10.371,0c0-5.777-0.002-11.224,0-16.67c0.006-11.756,1.9-14.203,13.259-16.909c0-3.328,0-6.705,0-11.565
			c-4.934,2.073-9.01,3.787-13.004,5.465c-0.948-4.03-2.575-4.515-10.626-2.705C146.955,204.662,146.955,218.705,146.955,233.059z
			 M282.525,269.086c0.215-0.538,0.43-1.076,0.646-1.614c-1.746-0.461-4.44-1.84-5.055-1.205c-1.632,1.688-2.897,4.145-3.323,6.477
			c-0.528,2.898,0.461,6.049,4.064,6.015c1.488-0.015,3.85-2.057,4.247-3.584c0.857-3.29-1.42-4.69-4.593-4.71
			c-0.155-0.001-0.308-0.472-0.859-1.378C279.544,269.086,281.035,269.086,282.525,269.086z M265.383,274.791
			c-0.404,0.553-0.809,1.105-1.214,1.658c1.579,0.847,3.349,2.597,4.688,2.313c1.671-0.354,4.328-2.568,4.179-3.652
			c-0.313-2.27-2.184-4.324-3.398-6.438c0.406-0.162,1.73-0.692,3.883-1.552c-7.783-2.41-9.319-1.037-8.007,5.688
			c1.515,0.09,3.066-0.023,4.44,0.417c0.324,0.104,0.049,2.077,0.049,3.738C267.848,275.95,266.615,275.37,265.383,274.791z
			 M166.345,167.157c-0.23,0.519-0.461,1.038-0.691,1.557c1.905,0.584,3.903,1.806,5.683,1.544c1.332-0.196,3.609-2.817,3.337-3.471
			c-1.001-2.4-2.891-4.43-4.296-6.389c0.608-0.168,2.135-0.59,3.663-1.011c-0.057-0.378-0.114-0.757-0.17-1.135
			c-2.26,0-4.519,0-6.917,0c-0.29,2.261-0.554,4.312-0.873,6.798c1.388-0.241,2.007-0.345,2.625-0.458
			c0.776-0.141,1.55-0.29,2.33-0.437C171.682,167.891,171.682,167.891,166.345,167.157z M156.176,166.033
			c-0.688,3.702,1.5,4.624,4.166,4.523c2.837-0.107,4.661-1.549,4.149-4.834c-0.215-1.381,0.186-2.997-0.401-4.146
			c-0.758-1.482-2.143-3.53-3.407-3.642c-1.513-0.134-3.183,1.521-4.785,2.4c0.299,0.481,0.599,0.963,0.898,1.444
			c1.368-0.508,2.735-1.017,4.103-1.525c0.181,0.32,0.362,0.641,0.542,0.961c-0.781,0.871-1.562,1.742-2.286,2.55
			c1.047,1.158,1.917,2.12,2.787,3.081c-0.261,0.389-0.522,0.777-0.783,1.165C159.584,167.387,158.01,166.762,156.176,166.033z"/>
		<path fill-rule="evenodd" clip-rule="evenodd" d="M404.268,231.199c-6.095-5.813-5.858-7.944,1.441-14.812
			c-4.963-5.68-6.455-12.06-2.293-18.7c4.393-7.01,11.337-8.806,19.137-7.813c5.544,0.706,11.135,2.587,16.146-2.281
			c0.424,0.354,0.849,0.708,1.272,1.063c-0.489,1.776-0.412,4.337-1.576,5.179c-3.104,2.243-2.599,4.526-1.923,7.701
			c2.169,10.188-7.523,18.881-19.693,17.963c-1.656-0.125-3.334-0.773-4.933-0.587c-1.354,0.159-2.608,1.175-3.907,1.812
			c0.776,1.441,1.331,3.909,2.371,4.135c3.343,0.725,6.864,0.779,10.318,0.791c3.314,0.011,6.63-0.499,9.947-0.521
			c4.21-0.027,8.28,1.103,9.936,5.29c1.777,4.499,0.685,8.964-2.906,12.375c-6.828,6.484-15.271,7.564-24.16,6.649
			c-1.953-0.201-3.908-0.823-5.757-1.527C398.125,244.276,396.836,238.319,404.268,231.199z M410.817,204.251
			c-0.094,6.067,2.962,9.933,7.893,9.982c4.983,0.05,8.433-3.823,8.505-9.553c0.074-5.904-3.083-9.852-8.008-10.008
			C414.252,194.515,410.909,198.33,410.817,204.251z M419.39,245.224c3.365-1.012,6.906-1.353,9.504-3.097
			c1.905-1.279,2.573-4.4,3.792-6.7c-2.242-1.031-4.431-2.758-6.741-2.94c-4.102-0.326-8.31,0.048-12.406,0.611
			c-1.813,0.25-4.769,1.509-4.909,2.603c-0.265,2.073,0.476,5.247,1.98,6.352C412.984,243.795,416.335,244.209,419.39,245.224z"/>
		<path fill-rule="evenodd" clip-rule="evenodd" d="M327.227,337.473c-0.745,0.483-2.211,1.478-3.719,2.403
			c-8.62,5.292-19.37,2.424-23.749-6.696c-4.282-8.921-3.604-17.873,1.806-26.113c5.313-8.092,13.681-9.892,25.865-6.193
			c2.535-5.829,1.771-7.803-5.148-13.286c2.219-3.27,10.67-6.912,13.839-5.298c1.275,0.65,2.036,3.438,2.047,5.258
			c0.077,12.643-0.224,25.287-0.133,37.93c0.029,4.044-1.193,9.079,4.962,10.479c0.12,0.026,0.052,3.063-0.438,3.233
			c-3.573,1.244-7.237,2.478-10.963,2.874C330.51,342.179,329.135,339.565,327.227,337.473z M328.272,319.355
			c0.02,0,0.039,0,0.059,0c0-1.998-0.129-4.006,0.025-5.991c0.384-4.918-2.46-7.241-6.62-8.65c-4.527-1.533-8.238-0.237-11.07,3.402
			c-4.536,5.824-3.759,18.419,1.301,23.872c2.93,3.156,6.537,3.885,10.488,2.718c4.059-1.198,5.7-4.323,5.807-8.36
			C328.322,324.017,328.272,321.686,328.272,319.355z"/>
		<path fill-rule="evenodd" clip-rule="evenodd" d="M273.516,178.491c4.702-4.431,9.738-5.642,15.035-5.57
			c0.781,0.01,2.178,2.656,2.184,4.087c0.03,7.993-0.313,15.987-0.446,23.982c-0.029,1.77,0.274,3.543,0.56,6.891
			c4.354-3.894,7.703-6.889,10.994-9.832c-3.989-5.696-3.455-7.027,2.828-7.519c2.952-0.23,5.986,0.037,8.926,0.472
			c1.049,0.154,1.926,1.469,2.883,2.254c-0.869,0.869-1.637,1.884-2.627,2.58c-3.604,2.533-7.414,4.797-10.834,7.55
			c-0.801,0.645-1.063,3.346-0.403,4.194c4.586,5.909,9.382,11.665,14.349,17.26c1.117,1.259,3.25,1.564,4.764,2.543
			c0.867,0.561,1.994,1.612,1.97,2.41c-0.025,0.815-1.169,1.9-2.077,2.332c-4.609,2.193-11.152,0.663-14.406-3.335
			c-4.521-5.555-8.941-11.191-13.448-16.759c-0.595-0.734-1.441-1.266-2.788-1.675c0.459,6.238-3.809,13.268,3.809,18.193
			c0.297,0.191-0.619,3.382-1.05,3.401c-5.256,0.235-10.555,0.452-15.78-0.016c-2.34-0.21-2.205-1.924-0.689-3.974
			c1.719-2.325,3.53-5.237,3.654-7.969c0.429-9.478,0.207-18.988,0.105-28.485C280.967,186.102,282.033,179.986,273.516,178.491z"/>
		<path fill-rule="evenodd" clip-rule="evenodd" d="M348.702,195.813c4.831-4.821,10.011-5.592,15.723-5.894
			c0.486,1.791,0.901,3.319,1.472,5.421c1.388-0.983,2.581-1.703,3.63-2.593c4.271-3.628,9.092-3.999,14.048-2.038
			c5.096,2.015,7.934,6.09,8.291,11.505c0.372,5.643,0.273,11.317,0.376,16.978c0.063,3.484-0.348,7.099,3.7,9.086
			c0.362,0.178-0.059,3.447-0.502,3.546c-6.115,1.364-12.271,2.102-18.926-1.313c10.367-7.208,5.66-16.941,5.543-25.735
			c-0.05-3.728-1.885-6.773-6.188-7.251c-4.151-0.461-8.078,1.238-8.719,5.036c-1.227,7.274-1.257,14.768-1.458,22.179
			c-0.028,1.022,1.838,2.062,2.75,3.158c0.669,0.805,1.573,1.679,1.666,2.593c0.052,0.514-1.317,1.661-2.073,1.687
			c-4.949,0.163-9.938,0.437-14.848-0.028c-2.681-0.254-3.581-1.847-0.987-4.376c1.688-1.646,3.024-4.249,3.332-6.579
			c0.518-3.926,0.154-7.978,0.049-11.974C355.44,203.908,356.804,197.907,348.702,195.813z"/>
		<path fill-rule="evenodd" clip-rule="evenodd" d="M258.007,207.03c0.086-1.635,0.511-2.911,0.137-3.878
			c-1.063-2.755-1.767-6.413-3.876-7.82c-3.093-2.062-6.719-0.386-9.373,2.369c-1.038,1.076-1.824,2.684-3.075,3.197
			c-1.782,0.731-3.886,0.677-5.853,0.958c-0.081-2.122-1.032-4.901-0.041-6.216c1.567-2.079,4.261-3.696,6.8-4.555
			c3.085-1.043,6.503-1.489,9.779-1.503c10.544-0.044,14.771,4.129,15.126,14.692c0.179,5.317,0.094,10.646,0.069,15.969
			c-0.013,2.928,0.015,5.635,3.622,6.786c0.594,0.189,1.18,2.912,0.645,3.688c-2.252,3.268-8.673,3.923-11.462,0.989
			c-2.271-2.387-3.845-1.557-6.436-0.672c-3.925,1.34-8.349,2.478-12.363,2.01c-6.415-0.748-9.78-5.362-10.173-11.687
			c-0.372-5.967,2.821-11.078,8.709-13.114c2.782-0.962,5.824-1.367,8.78-1.575C251.81,206.475,254.638,206.869,258.007,207.03z
			 M258.947,217.81c-0.831-1.923-1.471-5.359-2.526-5.492c-3.48-0.438-7.436-0.439-10.563,0.899
			c-1.918,0.822-3.753,4.47-3.613,6.724c0.139,2.244,2.327,5.243,4.431,6.318C253.11,229.549,258.098,225.792,258.947,217.81z"/>
		<path fill-rule="evenodd" clip-rule="evenodd" d="M227.308,222.137c-0.71,1.377-1.186,2.957-2.17,4.098
			c-6.12,7.095-16.481,9.33-25.05,5.545c-8.606-3.801-13.035-12.327-11.989-23.079c0.866-8.897,7.373-16.462,15.879-18.458
			c12.461-2.926,21.975,2.843,23.407,14.19c0.647,5.129-0.349,6.357-5.397,6.396c-6.494,0.048-12.992,0.157-19.479-0.044
			c-3.51-0.108-4.287,1.327-3.858,4.505c1.28,9.481,12.026,14.168,20.828,9.001c2.142-1.258,4.313-2.466,6.471-3.697
			C226.402,221.107,226.854,221.622,227.308,222.137z M199.363,205.787c6.155,0,12.333,0,18.481,0
			c0.403-6.975-3.222-11.084-9.38-11.081C202.368,194.71,198.716,199.028,199.363,205.787z"/>
		<path fill-rule="evenodd" clip-rule="evenodd" d="M341.106,207.254c0,4.486-0.083,8.976,0.029,13.46
			c0.076,3.005,0.359,5.813,3.776,7.441c2.861,1.363,1.859,3.676-0.605,3.902c-5.057,0.466-10.221,0.477-15.273-0.016
			c-2.703-0.263-2.641-2.015-0.772-4.209c1.662-1.952,3.221-4.589,3.44-7.048c0.47-5.271,0.14-10.625-0.047-15.939
			c-0.115-3.291-0.104-6.778-4.388-7.979c-0.278-0.078-0.29-3.349,0.188-3.532c3.688-1.414,7.486-2.656,11.357-3.384
			c0.763-0.143,2.767,2.111,2.861,3.361c0.35,4.624,0.139,9.291,0.139,13.941C341.577,207.254,341.342,207.254,341.106,207.254z"/>
		<path fill-rule="evenodd" clip-rule="evenodd" d="M335.338,184.575c-3.245-0.506-6.317-1.491-6.019-5.329
			c0.291-3.735,3.114-5.256,6.687-5.197c3.386,0.057,5.976,1.416,5.864,5.212C341.749,183.381,338.483,184.059,335.338,184.575z"/>
		<path fill-rule="evenodd" clip-rule="evenodd" fill="#FFFFFF" d="M128.838,199.889c9.631,5.247,12.469,11.14,10.43,20.468
			c-1.701,7.779-7.31,12.313-16.841,12.728c-9.476,0.412-18.978,0.169-28.466,0.338c-2.705,0.049-3.892-0.783-3.877-3.679
			c0.089-17.818,0.089-35.637,0.015-53.454c-0.012-2.798,0.991-3.842,3.791-3.789c9.487,0.181,18.997-0.137,28.462,0.381
			c9.542,0.521,15.352,7.259,14.734,16.031C136.724,194.05,133.936,197.472,128.838,199.889z M102.442,206.215
			c0,5.632,0,10.995,0,16.596c6.13,0,11.933,0.28,17.694-0.087c4.841-0.308,7.376-3.295,7.346-7.803
			c-0.029-4.474-1.925-8.159-6.597-8.575C114.847,205.809,108.724,206.215,102.442,206.215z M102.265,196.729
			c5.468,0,10.431,0.305,15.336-0.097c3.925-0.321,6.889-2.505,7.172-6.896c0.248-3.851-1.771-6.837-5.386-7.206
			c-5.634-0.576-11.37-0.152-17.122-0.152C102.265,187.295,102.265,191.728,102.265,196.729z"/>
		<path fill-rule="evenodd" clip-rule="evenodd" fill="#FFFFFF" d="M191.052,342.478c0-20.534,0-40.309,0-60.972
			c2.992,0,5.902-0.03,8.812,0.006c7.828,0.098,15.685-0.161,23.476,0.435c10.233,0.782,16.469,9.097,13.681,18.343
			c-1.006,3.337-3.991,6.078-6.218,9.299c5.173,2.292,9.174,6.693,9.464,13.764c0.443,10.828-4.999,17.382-15.772,18.656
			c-3.134,0.371-6.318,0.426-9.48,0.45C207.2,342.519,199.385,342.478,191.052,342.478z M202.719,331.876
			c6.352,0,11.83,0.217,17.282-0.061c5.468-0.278,7.987-3.125,7.949-8.203c-0.037-5.081-2.625-8.124-7.808-8.482
			c-4.805-0.333-9.652-0.355-14.459-0.105c-1.035,0.054-2.752,1.805-2.829,2.87C202.533,322.331,202.719,326.804,202.719,331.876z
			 M202.694,306.154c6.376-0.381,12-0.414,17.529-1.154c3.65-0.488,5.007-3.455,4.95-7.04c-0.061-3.784-2.229-6.242-5.641-6.543
			c-5.392-0.475-10.855-0.126-16.466-0.126c-0.147,1.698-0.337,2.999-0.357,4.303C202.662,298.743,202.694,301.894,202.694,306.154z
			"/>
		<path fill-rule="evenodd" clip-rule="evenodd" fill="#FFFFFF" d="M273.07,340.827c-6.285,0.89-11.594,2.312-16.875,2.217
			c-6.441-0.115-11-5.052-12.022-11.362c-0.938-5.793,2.147-11.544,8.301-13.785c4.952-1.805,10.262-2.625,15.409-3.898
			c1.586-0.393,3.158-0.84,4.808-1.279c0.237-3.506-1.349-5.713-4.376-5.674c-3.426,0.044-9.09,0.123-9.86,1.894
			c-2.958,6.799-7.596,2.927-11.58,3.501c-0.374-6.298,2.175-10.38,7.944-12.583c6.758-2.581,13.671-2.604,20.519-0.326
			c4.695,1.561,7.578,4.918,7.875,9.892c0.357,5.968,0.325,11.961,0.395,17.944c0.056,4.78,0.012,9.563,0.012,14.811
			C280.135,341.874,275.617,344.515,273.07,340.827z M272.629,321.471c-4.232,0.937-8.273,1.767-12.281,2.736
			c-3.014,0.729-5.779,2.659-4.606,5.766c0.768,2.035,3.833,4.239,6.08,4.491C269.525,335.327,273.162,330.79,272.629,321.471z"/>
		<path fill-rule="evenodd" clip-rule="evenodd" fill="#FFFFFF" d="M146.955,233.059c0-14.354,0-28.396,0-42.385
			c8.051-1.81,9.678-1.325,10.626,2.705c3.994-1.678,8.07-3.392,13.004-5.465c0,4.86,0,8.237,0,11.565
			c-11.359,2.706-13.253,5.153-13.259,16.909c-0.002,5.446,0,10.893,0,16.67C153.74,233.059,150.655,233.059,146.955,233.059z"/>
		<path fill-rule="evenodd" clip-rule="evenodd" fill="#FFFFFF" d="M282.525,269.086c-1.49,0-2.981,0-4.873,0
			c0.552,0.906,0.704,1.377,0.859,1.378c3.173,0.02,5.45,1.42,4.593,4.71c-0.397,1.527-2.759,3.569-4.247,3.584
			c-3.604,0.034-4.593-3.116-4.064-6.015c0.426-2.332,1.691-4.789,3.323-6.477c0.614-0.635,3.309,0.744,5.055,1.205
			C282.955,268.01,282.74,268.548,282.525,269.086z"/>
		<path fill-rule="evenodd" clip-rule="evenodd" fill="#FFFFFF" d="M265.383,274.791c1.232,0.579,2.465,1.159,4.619,2.171
			c0-1.661,0.275-3.635-0.049-3.738c-1.374-0.44-2.926-0.327-4.44-0.417c-1.313-6.725,0.224-8.098,8.007-5.688
			c-2.152,0.859-3.477,1.39-3.883,1.552c1.215,2.114,3.086,4.169,3.398,6.438c0.149,1.084-2.508,3.298-4.179,3.652
			c-1.339,0.284-3.108-1.466-4.688-2.313C264.574,275.896,264.979,275.344,265.383,274.791z"/>
		<path fill-rule="evenodd" clip-rule="evenodd" fill="#FFFFFF" d="M166.345,167.157c5.336,0.733,5.336,0.733,4.689-3.001
			c-0.779,0.146-1.554,0.296-2.33,0.437c-0.618,0.113-1.237,0.217-2.625,0.458c0.319-2.486,0.583-4.537,0.873-6.798
			c2.398,0,4.657,0,6.917,0c0.057,0.378,0.114,0.757,0.17,1.135c-1.527,0.421-3.055,0.843-3.663,1.011
			c1.405,1.959,3.294,3.988,4.296,6.389c0.272,0.653-2.005,3.274-3.337,3.471c-1.78,0.262-3.778-0.96-5.683-1.544
			C165.884,168.195,166.115,167.676,166.345,167.157z"/>
		<path fill-rule="evenodd" clip-rule="evenodd" fill="#FFFFFF" d="M156.176,166.033c1.834,0.729,3.409,1.354,4.983,1.979
			c0.261-0.388,0.522-0.776,0.783-1.165c-0.87-0.961-1.739-1.923-2.787-3.081c0.724-0.808,1.505-1.679,2.286-2.55
			c-0.181-0.32-0.362-0.641-0.542-0.961c-1.368,0.509-2.735,1.018-4.103,1.525c-0.299-0.481-0.599-0.963-0.898-1.444
			c1.602-0.88,3.272-2.534,4.785-2.4c1.264,0.111,2.649,2.159,3.407,3.642c0.587,1.148,0.186,2.765,0.401,4.146
			c0.512,3.285-1.312,4.727-4.149,4.834C157.676,170.657,155.488,169.735,156.176,166.033z"/>
		<path fill-rule="evenodd" clip-rule="evenodd" fill="#FFFFFF" d="M410.817,204.251c0.092-5.921,3.435-9.736,8.39-9.578
			c4.925,0.156,8.082,4.104,8.008,10.008c-0.072,5.729-3.521,9.603-8.505,9.553C413.779,214.184,410.724,210.318,410.817,204.251z"
			/>
		<path fill-rule="evenodd" clip-rule="evenodd" fill="#FFFFFF" d="M419.39,245.224c-3.055-1.015-6.405-1.429-8.78-3.172
			c-1.505-1.104-2.245-4.278-1.98-6.352c0.141-1.094,3.096-2.353,4.909-2.603c4.097-0.563,8.305-0.938,12.406-0.611
			c2.311,0.183,4.499,1.909,6.741,2.94c-1.219,2.3-1.887,5.421-3.792,6.7C426.296,243.871,422.755,244.212,419.39,245.224z"/>
		<path fill-rule="evenodd" clip-rule="evenodd" fill="#FFFFFF" d="M328.272,319.355c0,2.33,0.05,4.661-0.011,6.99
			c-0.106,4.037-1.748,7.162-5.807,8.36c-3.951,1.167-7.559,0.438-10.488-2.718c-5.06-5.453-5.837-18.048-1.301-23.872
			c2.832-3.64,6.543-4.936,11.07-3.402c4.16,1.409,7.004,3.732,6.62,8.65c-0.154,1.985-0.025,3.993-0.025,5.991
			C328.312,319.355,328.292,319.355,328.272,319.355z"/>
		<path fill-rule="evenodd" clip-rule="evenodd" fill="#FFFFFF" d="M258.947,217.81c-0.85,7.982-5.837,11.739-12.271,8.449
			c-2.104-1.075-4.292-4.074-4.431-6.318c-0.14-2.254,1.695-5.901,3.613-6.724c3.126-1.339,7.083-1.337,10.563-0.899
			C257.477,212.45,258.116,215.887,258.947,217.81z"/>
		<path fill-rule="evenodd" clip-rule="evenodd" fill="#FFFFFF" d="M199.363,205.787c-0.647-6.759,3.004-11.077,9.102-11.081
			c6.158-0.003,9.783,4.106,9.38,11.081C211.696,205.787,205.518,205.787,199.363,205.787z"/>
		<path fill-rule="evenodd" clip-rule="evenodd" d="M102.442,206.215c6.282,0,12.405-0.406,18.443,0.131
			c4.671,0.416,6.567,4.102,6.597,8.575c0.03,4.508-2.505,7.495-7.346,7.803c-5.761,0.367-11.564,0.087-17.694,0.087
			C102.442,217.21,102.442,211.847,102.442,206.215z"/>
		<path fill-rule="evenodd" clip-rule="evenodd" d="M102.265,196.729c0-5.001,0-9.434,0-14.351c5.751,0,11.488-0.424,17.122,0.152
			c3.616,0.369,5.634,3.355,5.386,7.206c-0.283,4.391-3.247,6.574-7.172,6.896C112.696,197.033,107.733,196.729,102.265,196.729z"/>
		<path fill-rule="evenodd" clip-rule="evenodd" d="M202.719,331.876c0-5.072-0.186-9.545,0.135-13.981
			c0.077-1.065,1.794-2.816,2.829-2.87c4.807-0.25,9.655-0.228,14.459,0.105c5.184,0.358,7.771,3.401,7.808,8.482
			c0.038,5.078-2.481,7.925-7.949,8.203C214.549,332.093,209.071,331.876,202.719,331.876z"/>
		<path fill-rule="evenodd" clip-rule="evenodd" d="M202.694,306.154c0-4.261-0.032-7.411,0.016-10.561
			c0.02-1.304,0.21-2.604,0.357-4.303c5.61,0,11.074-0.349,16.466,0.126c3.412,0.301,5.58,2.759,5.641,6.543
			c0.058,3.585-1.3,6.552-4.95,7.04C214.694,305.74,209.07,305.773,202.694,306.154z"/>
		<path fill-rule="evenodd" clip-rule="evenodd" d="M272.629,321.471c0.533,9.319-3.104,13.856-10.808,12.993
			c-2.247-0.252-5.313-2.456-6.08-4.491c-1.172-3.106,1.593-5.037,4.606-5.766C264.355,323.237,268.396,322.407,272.629,321.471z"/>
	</g>
</g>
</svg>
