<?xml version="1.0" encoding="utf-8"?>
<!-- Generator: Adobe Illustrator 16.0.0, SVG Export Plug-In . SVG Version: 6.00 Build 0)  -->
<!DOCTYPE svg PUBLIC "-//W3C//DTD SVG 1.1//EN" "http://www.w3.org/Graphics/SVG/1.1/DTD/svg11.dtd">
<svg version="1.1"
	 id="svg2698" xmlns:dc="http://purl.org/dc/elements/1.1/" xmlns:cc="http://creativecommons.org/ns#" xmlns:rdf="http://www.w3.org/1999/02/22-rdf-syntax-ns#" xmlns:svg="http://www.w3.org/2000/svg" xmlns:sodipodi="http://sodipodi.sourceforge.net/DTD/sodipodi-0.dtd" xmlns:inkscape="http://www.inkscape.org/namespaces/inkscape" inkscape:output_extension="org.inkscape.output.svg.inkscape" sodipodi:docname="One Ring inscription.svg" inkscape:version="0.46" sodipodi:version="0.32"
	 xmlns="http://www.w3.org/2000/svg" xmlns:xlink="http://www.w3.org/1999/xlink" x="0px" y="0px" width="453.764px"
	 height="127.498px" viewBox="0 0 453.764 127.498" enable-background="new 0 0 453.764 127.498" xml:space="preserve">
<defs>
	
	
		<inkscape:perspective  sodipodi:type="inkscape:persp3d" inkscape:vp_y="0 : 1000 : 0" inkscape:vp_x="0 : 526.18109 : 1" inkscape:vp_z="744.09448 : 526.18109 : 1" id="perspective2705" inkscape:persp3d-origin="372.04724 : 350.78739 : 1">
		</inkscape:perspective>
	
		<inkscape:perspective  sodipodi:type="inkscape:persp3d" inkscape:vp_y="0 : 1000 : 0" inkscape:vp_x="0 : 526.18109 : 1" inkscape:vp_z="744.09448 : 526.18109 : 1" id="perspective3882" inkscape:persp3d-origin="372.04724 : 350.78739 : 1">
		</inkscape:perspective>
</defs>
<sodipodi:namedview  inkscape:cy="-0.36906806" inkscape:cx="148.40823" inkscape:zoom="1" showgrid="false" pagecolor="#ffffff" bordercolor="#666666" borderopacity="1.0" objecttolerance="10.0" gridtolerance="10.0" guidetolerance="10.0" id="base" inkscape:current-layer="g2707" inkscape:window-y="-4" inkscape:window-x="-4" inkscape:pageopacity="0.0" inkscape:pageshadow="2" inkscape:window-width="1024" inkscape:window-height="712">
	</sodipodi:namedview>
<g id="g2707" transform="matrix(1.25,0,0,-1.25,55.698758,192.41543)" inkscape:label="THE_ONE_RING" inkscape:groupmode="layer">
	<g id="g2709">
	</g>
	<g id="g2715" transform="matrix(3.5961261,0,0,3.5961261,-42.305698,-218.40281)">
		<path id="path2717" d="M37.524,96.892c0,0,0.677,0.386,1.636,0.223c0.978-0.167,2.599,0.006,3.023,0.7c0,0-0.424-0.319-1.123-0.25
			c0,0,1.41,1.112,0.915,1.768c-0.381,0.506-1.538-0.305-1.538-0.305s0,0.478-0.459,0.478c-0.527,0-1.345-0.658-1.692-1.047
			c0,0,0.463,0.803,0.209,1.027c-0.203,0.178-1.449-0.693-1.449-0.693s0.132,0.637-0.389,0.693
			c-0.519,0.055-1.125-0.397-1.649-0.936c0,0,0.557,0.949,0.097,0.943c0,0,0.451,0.915,1.401,1.761
			c0.948,0.845,1.663,0.79,1.906,0.506c0.242-0.284,0.139-0.812-0.25-0.915c-0.388-0.105-0.554,0.194-0.498,0.353
			c0,0,0.359-0.069,0.47,0.132c0.111,0.201,0.035,0.457-0.284,0.457c-0.319,0-0.548-0.235-0.575-0.63
			c-0.028-0.396,0.347-0.603,0.755-0.603c0.41,0,0.922,0.45,0.922,1.074c0,0.624-0.38,0.798-0.693,0.798
			c-0.312,0-0.984-0.111-1.982-1.096c-0.999-0.984-1.54-1.969-1.54-1.969s-0.416-0.228-1.033-0.644c0,0,0.028,0.554-0.422,0.72
			c-0.451,0.167-1.096-0.215-1.623-0.568c0,0-0.003,0.485-0.472,0.61c-0.491,0.132-1.435-0.742-1.435-0.742s0.264,0.562,0.021,0.708
			c-0.242,0.145-1.289-0.743-1.289-0.743s0.256,0.409,0.464,0.583c0.208,0.174,0.313,0.326,0.313,0.326s-0.375-0.263-1.041-0.208
			c-0.547,0.045-1.247,0.083-2.19,0.083c-0.943,0-1.504-0.125-2.288-0.555c0,0-0.023,0.366-0.361,0.444
			c-0.45,0.104-1.615-0.596-1.615-0.596s0.156,0.527-0.395,0.638c-0.693,0.138-1.47-0.569-1.47-0.569s0.097,0.416-0.222,0.555
			c-0.318,0.138-1.192-0.402-1.317-0.493c0,0,0.262,0.409,0.118,0.493c-0.166,0.096-0.957-0.167-1.456-0.589
			c0,0,0.929,1.448,1.677,2.273c0.749,0.826,1.457,1.428,1.991,1.31l0.049,0.111c0,0-0.774,0.307-2.303-1.268
			c-0.512-0.528-1.016-1.221-1.351-1.693c-0.565-0.796-0.923-1.385-0.923-1.385s-0.401-0.305-0.804-0.493
			c-0.402-0.188-0.707-0.214-0.797,0.326c-0.09,0.541,0.34,1.304,1.054,1.172c0,0-0.195-0.332,0.11-0.43
			c0.306-0.097,0.445,0.219,0.43,0.388c-0.034,0.388-0.746,0.381-1.15,0.16c-0.8-0.438-1.296-1.593-0.707-2.045
			c0.54-0.416,1.545,0.444,1.545,0.444s-1.615-2.412-2.905-3.592c-1.954-1.789-4.436-3.48-4.436-3.48h0.173
			c0,0,1.272,0.86,1.464,1.003c0.454,0.341,1.481,1.102,2.162,1.659c0.749,0.614,1.599,1.345,2.262,2.134
			c1.371,1.63,2.355,3.205,2.355,3.205s0.792,0.514,1.04,0.415c0.139-0.055-0.908-1.712-1.38-1.948c0,0,0.138-0.09,0.492,0.111
			c0.354,0.201,0.618,0.493,0.846,0.845c0.229,0.355,0.885,1.079,1.318,0.791c0.394-0.263-0.146-1.622-0.805-1.435
			c0,0,0.209,0.347,0.014,0.485c-0.194,0.14-0.388,0.007-0.499-0.27s0.007-0.652,0.457-0.554c0.451,0.097,1.241,0.582,1.464,1.525
			c0,0,0.866,0.569,1.213,0.381c0.347-0.187,0.111-1.788-0.658-1.56c0,0,0.287,0.497,0.006,0.637
			c-0.346,0.174-0.714-0.506-0.409-0.804c0.305-0.297,0.915-0.076,1.297,0.375c0.381,0.45,0.429,0.714,0.45,0.964
			c0,0,1.072,0.695,1.339,0.291c0.2-0.305-0.34-1.213-1.235-1.788l0.32,0.006c0,0,0.553,0.416,0.942,0.194
			c0.388-0.221,0.162-1.417-0.471-2.045c-1.359-1.345-3.758-2.44-3.758-2.44h0.138c0,0,2.854,1.181,4.008,2.44
			c0.915,0.998,0.956,2.136,0.693,2.399c-0.243,0.243-0.86,0.041-0.86,0.041s0.61,0.5,0.832,1.075c0,0,0.562,0.375,1.512,0.312
			c0,0-1.473-0.963-0.992-1.74c0.485-0.784,1.747,0.374,1.747,0.374s-0.09-0.506,0.361-0.575c0.45-0.07,1.061,0.415,1.061,0.415
			s-1.097-2.254-3.203-4.256c-2.483-2.357-4.507-3.508-4.507-3.508h0.195c0,0,2.246,1.331,4.686,3.647
			c2.44,2.316,3.772,5.033,3.772,5.033s0.715,0.676,0.956,0.568c0.187-0.083-0.16-0.866-0.256-1.026
			c-0.098-0.159-0.785-1.67-2.101-3.314c-2.176-2.717-4.382-4.215-4.382-4.215h0.195c0,0,2.572,1.866,4.311,3.98
			c1.514,1.839,2.455,3.744,2.455,3.744s0.686,0.825,1.095,0.803c0.409-0.02,0.61-0.304,0.492-0.811
			c-0.117-0.506-0.464-0.79-0.859-0.755c0,0,0.257,0.264-0.055,0.457c-0.256,0.159-0.636-0.308-0.486-0.561
			c0.202-0.34,0.843-0.305,1.308,0.131c0.465,0.437,0.564,0.701,0.633,1.103c0,0,0.838,0.76,1.317,0.422
			c0.491-0.348-0.131-1.656-0.72-1.593c0,0,0.416,0.294,0.103,0.547c-0.294,0.238-0.741-0.326-0.485-0.665
			c0.256-0.34,0.835-0.115,1.13,0.128c0.389,0.319,0.554,0.647,0.666,1.05c0,0,0.811,0.652,1.012,0.547
			c0.201-0.104-0.208-1.184-0.957-2.038c0,0,0.312,0.167,0.5,0.228c0.186,0.064,0.277,0.182,0.353,0.376
			c0.076,0.193,0.266,0.536,0.266,0.536s0.817,1.043,1.453,0.878c0.402-0.104,0.041-1.643-0.617-1.581c0,0,0.278,0.326,0.014,0.486
			c-0.264,0.16-0.818-0.39-0.457-0.659c0.36-0.271,1.039,0.013,1.351,0.416s0.403,0.908,0.403,0.908s0.747,0.583,0.984,0.499
			c0.236-0.083-0.339-1.317-0.554-1.719c-0.216-0.402-0.79-1.545-1.928-2.863c-1.484-1.719-2.745-2.773-2.745-2.773h0.221
			c0,0,1.732,1.593,2.704,2.69C37.081,95.965,37.524,96.892,37.524,96.892z M25.989,97.908c0,0-0.93-0.74-1.153-0.245
			c-0.251,0.555,0.258,1.229,0.794,1.398c0,0,0.658-0.081,1.14-0.054C26.77,99.007,26.064,98.464,25.989,97.908z M28.041,98.71
			c-0.121-0.235-0.279-0.587-0.518-0.822c-0.264-0.259-0.601-0.37-0.855-0.292c-0.207,0.062-0.167,0.446-0.047,0.759
			c0.139,0.365,0.448,0.652,0.448,0.652s0.241,0.049,0.495,0.011c0.294-0.046,0.526-0.031,0.678,0.023
			C28.242,99.041,28.145,98.91,28.041,98.71z M40.373,98.702c0,0,0.76,0.69,1.048,0.25c0.423-0.649-0.666-1.407-0.666-1.407
			c-0.652-0.069-1.234,0.083-1.234,0.083C40.373,98.28,40.373,98.702,40.373,98.702z M38.534,98.447
			c0.446,0.495,1.075,0.758,1.271,0.546c0.528-0.571-0.603-1.372-0.603-1.372c-0.597,0.076-1.456-0.354-1.456-0.354
			C37.841,97.532,38.163,98.034,38.534,98.447z"/>
	</g>
	<g id="g2719" transform="matrix(3.5961261,0,0,3.5961261,-42.305698,-218.40281)">
		<path id="path2721" d="M55.91,99.888l-0.361-0.104c-0.422-0.687-2.253-0.36-2.253-0.36c0.423,0.769,1.304,1.712,1.852,2.128
			c0.547,0.416,1.102,0.526,1.469,0.277c0.367-0.25,0.32-0.617,0.194-0.776c-0.125-0.16-0.381-0.354-0.699-0.215
			c-0.321,0.138-0.224,0.367-0.224,0.367c0.176-0.228,0.37-0.13,0.495,0.011c0.094,0.106,0.179,0.301,0.02,0.447
			c-0.407,0.37-1.332-0.576-0.507-1.088c0.408-0.255,0.893-0.013,1.198,0.383c0.228,0.295,0.401,0.968,0.022,1.315
			c-0.638,0.582-1.782-0.34-1.782-0.34c-0.471,0.416-1.011,0.382-1.685-0.36c-0.74-0.818-1.413-2.004-1.413-2.004
			c-1.005,0.146-1.373-0.035-1.838-0.208c-0.464-0.174-0.984-0.076-1.692,0.063c-0.706,0.138-1.288,0.104-1.288,0.104
			c0.616,0.991,1.463,1.746,1.941,2.114c0.477,0.368,0.999,0.521,1.318,0.369c0.319-0.153,0.556-0.563,0.156-0.892
			c-0.333-0.273-0.753,0.121-0.753,0.121c0.457-0.021,0.714,0.416,0.443,0.617c-0.27,0.201-0.506-0.035-0.596-0.166
			c-0.091-0.132-0.37-0.546,0.055-0.826c0.34-0.223,0.844-0.131,1.115,0.125c0.336,0.318,0.516,0.871,0.175,1.22
			c-0.422,0.433-1.234,0.292-2.225-0.582c-0.992-0.874-1.88-2.142-1.88-2.142c-0.838-0.215-1.615-0.666-1.615-0.666
			s0.097,0.631-0.395,0.659c-0.952,0.054-1.879-0.957-1.879-0.957c0.486,0.846,0.326,1.033-0.083,0.86
			c-0.408-0.174-0.815-0.431-0.991-0.582c-0.083-0.072-0.108-0.131-0.076-0.16c0.051-0.046,0.115-0.018,0.185,0.042
			c0.148,0.129,0.571,0.396,0.674,0.291c0.111-0.112-0.194-0.721-0.499-1.304c-0.305-0.582-0.832-1.704-3.134-4.173
			c-2.301-2.468-4.02-3.577-4.02-3.577h0.179c3.023,2.301,4.666,4.056,5.651,5.276c0.601,0.744,1.109,1.527,1.397,1.998
			c0.209,0.34,0.288,0.442,0.288,0.442c0.742,1.033,1.379,1.373,1.802,1.428c0.423,0.056,0.575-0.274,0.25-0.957
			c-0.266-0.558-0.666-0.61-0.666-0.61c-0.026,0.445-0.258,0.473-0.458,0.349c-0.172-0.108-0.278-0.377-0.159-0.515
			c0.215-0.25,0.569-0.291,1.144,0.146c0.576,0.437,0.755,1.137,0.755,1.137c1.193,0.748,2.101,0.471,2.101,0.471
			c-2.71-1.29-2.627-2.739-1.989-3.376c0.637-0.638,1.835-0.634,2.612-0.161c1.074,0.652,0.854,1.367,0.854,1.367
			c0.909,0.305,1.615,1.061,1.615,1.061s-0.208-0.735,0.486-0.777c0.845-0.051,1.65,0.735,1.65,0.735s-1.027-2.136-2.593-4.16
			c-0.793-1.023-1.552-1.739-2.135-2.262c-0.721-0.649-1.179-0.982-1.179-0.982h0.166c2.524,1.872,4.132,3.993,5.11,5.629
			c0.977,1.636,1.602,2.815,1.602,2.815C55.175,98.889,55.91,99.888,55.91,99.888z M53.103,100.602
			c0.526,0.735,0.941,1.061,1.234,1.137c0.29,0.076,0.54-0.187,0.54-0.187c-0.714-0.493-1.781-2.08-1.781-2.08l-0.694,0.09
			C52.402,99.562,52.576,99.867,53.103,100.602z M50.155,97.697c-0.512-0.434-1.067-0.615-1.067-0.615s0.009,0.421-0.287,0.67
			c-0.365,0.31-0.651,0.167-0.841-0.046c-0.189-0.212-0.244-0.587,0.079-0.822c0.323-0.236,0.786-0.097,0.786-0.097
			c0.03-0.403-0.233-0.701-0.573-0.881c-0.599-0.317-1.397-0.373-2.02,0.1c-0.783,0.594-0.554,1.492,0.161,2.116
			c0.717,0.625,1.484,0.828,1.743,0.837c0.258,0.01,0.532-0.12,1.008-0.116c0.476,0.005,0.734,0.171,1.206,0.351
			c0.471,0.181,1.239,0.032,1.239,0.032C51.297,98.848,50.669,98.132,50.155,97.697z M48.801,97.008
			c-0.679-0.05-0.808,0.472-0.698,0.583c0.111,0.111,0.264,0.093,0.445-0.069C48.789,97.303,48.801,97.008,48.801,97.008z
			 M53.434,98.98l-0.297-0.534c0,0-1.254-1.362-1.761-0.638c-0.424,0.603,0.596,1.4,0.596,1.4S52.79,99.022,53.434,98.98z"/>
	</g>
	<g id="g2723" transform="matrix(3.5961261,0,0,3.5961261,-42.305698,-218.40281)">
		<path id="path2725" d="M54.863,97.517c0,0.104-0.041,0.312-0.263,0.312c-0.222,0-0.354-0.173-0.354-0.319
			c0-0.145,0.104-0.305,0.305-0.305C54.745,97.205,54.863,97.413,54.863,97.517z"/>
	</g>
	<g id="g2727" transform="matrix(3.5961261,0,0,3.5961261,-42.305698,-218.40281)">
		<path id="path2729" d="M44.425,100.175c0.054-0.047,0.212,0.027,0.38,0.3c0.167,0.273,0.294,0.851,0.131,0.971
			c-0.131,0.096-0.339-0.129-0.352-0.221c-0.026-0.185,0.182-0.207,0.027-0.644C44.521,100.332,44.355,100.236,44.425,100.175z"/>
	</g>
	<g id="g2731" transform="matrix(3.5961261,0,0,3.5961261,-42.305698,-218.40281)">
		<path id="path2733" d="M45.051,100.449c0.134-0.043,0.255,0.247,0.336,0.423c0.079,0.177,0.282,0.441,0.387,0.582
			c0.107,0.142,0.186,0.406,0.098,0.442c-0.088,0.035-0.168-0.045-0.318-0.212c-0.15-0.167-0.2-0.465-0.326-0.777
			C45.138,100.687,44.932,100.487,45.051,100.449z"/>
	</g>
	<g id="g2735" transform="matrix(3.5961261,0,0,3.5961261,-42.305698,-218.40281)">
		<path id="path2737" d="M45.528,100.801c-0.115-0.238-0.132-0.255-0.177-0.423c-0.045-0.168,0.142-0.212,0.213,0.027
			c0.045,0.152,0.282,0.432,0.432,0.502c0.181,0.086,0.423,0.345,0.212,0.459C45.996,101.481,45.643,101.04,45.528,100.801z"/>
	</g>
	<g id="g2739" transform="matrix(3.5961261,0,0,3.5961261,-42.305698,-218.40281)">
		<path id="path2741" d="M22.643,100.175c0.053-0.047,0.211,0.027,0.379,0.3c0.168,0.273,0.294,0.851,0.132,0.971
			c-0.132,0.096-0.34-0.129-0.353-0.221c-0.026-0.185,0.183-0.207,0.027-0.644C22.738,100.332,22.571,100.236,22.643,100.175z"/>
	</g>
	<g id="g2743" transform="matrix(3.5961261,0,0,3.5961261,-42.305698,-218.40281)">
		<path id="path2745" d="M23.269,100.449c0.134-0.043,0.256,0.247,0.336,0.423c0.078,0.177,0.282,0.441,0.388,0.582
			c0.105,0.142,0.185,0.406,0.097,0.442c-0.089,0.035-0.168-0.045-0.318-0.212c-0.15-0.167-0.2-0.465-0.327-0.777
			C23.356,100.687,23.15,100.487,23.269,100.449z"/>
	</g>
	<g id="g2747" transform="matrix(3.5961261,0,0,3.5961261,-42.305698,-218.40281)">
		<path id="path2749" d="M23.746,100.801c-0.116-0.238-0.133-0.255-0.177-0.423c-0.044-0.168,0.141-0.212,0.212,0.027
			c0.045,0.152,0.282,0.432,0.432,0.502c0.183,0.086,0.423,0.345,0.211,0.459C24.213,101.481,23.86,101.04,23.746,100.801z"/>
	</g>
	<g id="g2751" transform="matrix(3.5961261,0,0,3.5961261,-42.305698,-218.40281)">
		<path id="path2753" d="M15.471,100.175c0.054-0.047,0.213,0.027,0.38,0.3c0.168,0.273,0.295,0.851,0.132,0.971
			c-0.132,0.096-0.339-0.129-0.353-0.221c-0.026-0.185,0.183-0.207,0.027-0.644C15.568,100.332,15.401,100.236,15.471,100.175z"/>
	</g>
	<g id="g2755" transform="matrix(3.5961261,0,0,3.5961261,-42.305698,-218.40281)">
		<path id="path2757" d="M16.098,100.449c0.134-0.043,0.256,0.247,0.336,0.423c0.079,0.177,0.282,0.441,0.387,0.582
			c0.106,0.142,0.186,0.406,0.098,0.442c-0.089,0.035-0.168-0.045-0.318-0.212c-0.15-0.167-0.199-0.465-0.326-0.777
			C16.185,100.687,15.979,100.487,16.098,100.449z"/>
	</g>
	<g id="g2759" transform="matrix(3.5961261,0,0,3.5961261,-42.305698,-218.40281)">
		<path id="path2761" d="M16.575,100.801c-0.115-0.238-0.133-0.255-0.177-0.423c-0.044-0.168,0.141-0.212,0.212,0.027
			c0.045,0.152,0.282,0.432,0.432,0.502c0.182,0.086,0.424,0.345,0.212,0.459C17.042,101.481,16.689,101.04,16.575,100.801z"/>
	</g>
	<g id="g2763" transform="matrix(3.5961261,0,0,3.5961261,-42.305698,-218.40281)">
		<path id="path2765" d="M60.749,100.175c0.054-0.047,0.212,0.027,0.379,0.3c0.168,0.273,0.296,0.851,0.133,0.971
			c-0.133,0.096-0.341-0.129-0.353-0.221c-0.026-0.185,0.182-0.207,0.027-0.644C60.846,100.332,60.679,100.236,60.749,100.175z"/>
	</g>
	<g id="g2767" transform="matrix(3.5961261,0,0,3.5961261,-42.305698,-218.40281)">
		<path id="path2769" d="M61.376,100.449c0.133-0.043,0.256,0.247,0.334,0.423c0.08,0.177,0.283,0.441,0.389,0.582
			c0.106,0.142,0.185,0.406,0.098,0.442c-0.089,0.035-0.168-0.045-0.319-0.212c-0.15-0.167-0.199-0.465-0.325-0.777
			C61.463,100.687,61.256,100.487,61.376,100.449z"/>
	</g>
	<g id="g2771" transform="matrix(3.5961261,0,0,3.5961261,-42.305698,-218.40281)">
		<path id="path2773" d="M61.852,100.801c-0.115-0.238-0.132-0.255-0.177-0.423c-0.043-0.168,0.142-0.212,0.212,0.027
			c0.045,0.152,0.282,0.432,0.433,0.502c0.181,0.086,0.423,0.345,0.211,0.459C62.32,101.481,61.966,101.04,61.852,100.801z"/>
	</g>
	<g id="g2775" transform="matrix(3.5961261,0,0,3.5961261,-42.305698,-218.40281)">
		<path id="path2777" d="M67.848,100.175c0.054-0.047,0.212,0.027,0.38,0.3c0.167,0.273,0.294,0.851,0.132,0.971
			c-0.132,0.096-0.34-0.129-0.353-0.221c-0.026-0.185,0.182-0.207,0.026-0.644C67.946,100.332,67.778,100.236,67.848,100.175z"/>
	</g>
	<g id="g2779" transform="matrix(3.5961261,0,0,3.5961261,-42.305698,-218.40281)">
		<path id="path2781" d="M68.475,100.449c0.133-0.043,0.256,0.247,0.335,0.423c0.08,0.177,0.282,0.441,0.388,0.582
			c0.106,0.142,0.186,0.406,0.098,0.442c-0.089,0.035-0.169-0.045-0.318-0.212c-0.15-0.167-0.201-0.465-0.327-0.777
			C68.561,100.687,68.356,100.487,68.475,100.449z"/>
	</g>
	<g id="g2783" transform="matrix(3.5961261,0,0,3.5961261,-42.305698,-218.40281)">
		<path id="path2785" d="M68.951,100.801c-0.115-0.238-0.131-0.255-0.176-0.423c-0.044-0.168,0.141-0.212,0.212,0.027
			c0.045,0.152,0.282,0.432,0.431,0.502c0.183,0.086,0.425,0.345,0.212,0.459C69.418,101.481,69.066,101.04,68.951,100.801z"/>
	</g>
	<g id="g2787" transform="matrix(3.5961261,0,0,3.5961261,-42.305698,-218.40281)">
		<path id="path2789" d="M85.937,100.175c0.054-0.047,0.212,0.027,0.38,0.3c0.167,0.273,0.294,0.851,0.132,0.971
			c-0.132,0.096-0.339-0.129-0.353-0.221c-0.027-0.185,0.182-0.207,0.027-0.644C86.034,100.332,85.867,100.236,85.937,100.175z"/>
	</g>
	<g id="g2791" transform="matrix(3.5961261,0,0,3.5961261,-42.305698,-218.40281)">
		<path id="path2793" d="M86.565,100.449c0.132-0.043,0.255,0.247,0.334,0.423c0.08,0.177,0.283,0.441,0.388,0.582
			c0.106,0.142,0.185,0.406,0.097,0.442c-0.088,0.035-0.168-0.045-0.317-0.212c-0.15-0.167-0.2-0.465-0.327-0.777
			C86.651,100.687,86.444,100.487,86.565,100.449z"/>
	</g>
	<g id="g2795" transform="matrix(3.5961261,0,0,3.5961261,-42.305698,-218.40281)">
		<path id="path2797" d="M87.04,100.801c-0.115-0.238-0.132-0.255-0.177-0.423c-0.043-0.168,0.142-0.212,0.213,0.027
			c0.045,0.152,0.282,0.432,0.432,0.502c0.181,0.086,0.423,0.345,0.212,0.459C87.508,101.481,87.155,101.04,87.04,100.801z"/>
	</g>
	<g id="g2799" transform="matrix(3.5961261,0,0,3.5961261,-42.305698,-218.40281)">
		<path id="path2801" d="M93.473,99.702c-0.285-0.795-1.498-0.535-2.463-0.341c-0.963,0.194-1.789,0.236-1.789,0.236
			c0.791,1.13,1.512,1.754,2.22,2.197c0.707,0.444,1.019,0.298,1.198,0.181c0.181-0.118,0.353-0.357,0.222-0.68
			c-0.095-0.236-0.401-0.388-0.68-0.277c-0.276,0.111-0.145,0.325-0.145,0.325c0.479-0.2,0.589,0.292,0.388,0.451
			c-0.201,0.16-0.437,0.035-0.547-0.082c-0.111-0.119-0.485-0.61,0.014-0.916c0.566-0.346,0.992,0.049,1.179,0.249
			c0.186,0.202,0.568,0.895,0.034,1.346c-0.533,0.45-1.407-0.055-2.26-0.749c-0.852-0.694-1.88-2.038-1.88-2.038
			c-1.157-0.084-2.037-0.548-2.037-0.548s0.028,0.589-0.471,0.555c-0.838-0.059-1.733-0.847-1.733-0.847
			c0.172,0.333,0.353,0.875,0.069,0.881c-0.284,0.007-1.373-0.748-1.373-0.748s0.159,0.637-0.506,0.693
			c-0.666,0.055-1.248-0.443-1.248-0.443c0.014,0.124-0.048,0.436-0.582,0.464c-0.535,0.028-1.553-0.756-1.553-0.756
			c0.084,0.153,0.284,0.686,0.084,0.735c-0.344,0.083-1.444-0.666-1.444-0.666c0.188,0.424,0.396,0.652,0.396,0.652
			c-2.94,0.534-4.812-0.652-4.812-0.652c0.208,0.375,0.639,0.86,0.639,0.86c-0.263,0.013-0.242-0.208-0.833-0.264
			c-0.589-0.055-1.566,0.125-2.69,0.042c-1.122-0.083-2.169-0.7-2.169-0.7c0.048,0.124,0.097,0.693-0.319,0.672
			c-0.416-0.021-1.63-0.79-1.63-0.79s0.122,0.616-0.27,0.776c-0.482,0.196-1.415-0.506-1.415-0.506s-0.02,0.465-0.366,0.548
			c-0.6,0.144-1.429-0.665-1.429-0.665s0.333,0.568,0.111,0.672c-0.222,0.104-0.804-0.347-0.804-0.347
			c1.193,1.983,1.386,2.302,1.969,2.829c0.604,0.546,1.082,0.457,1.082,0.457l0.082,0.14c-0.801-0.005-1.622-0.634-2.201-1.416
			c-1.016-1.376-1.819-2.717-1.819-2.717c-1.026-0.943-1.581-0.874-1.816-0.776c-0.236,0.097-0.389,0.79-0.043,1.192
			c0.398,0.46,0.82,0.263,0.82,0.263s-0.204-0.277,0.007-0.394c0.106-0.061,0.283-0.046,0.431,0.103
			c0.149,0.149,0.169,0.414-0.078,0.596c-0.378,0.277-1.272-0.241-1.62-0.771c-0.346-0.531-0.352-1.144-0.052-1.384
			c0.623-0.499,2.101,0.769,2.101,0.769c-0.568-0.929-1.581-2.829-3.535-4.936c-1.79-1.928-3.232-2.857-3.232-2.857h0.168
			c0.835,0.481,2.03,1.61,3.307,2.851c1.059,1.031,1.969,2.169,2.612,3.168c0.824,1.276,1.422,2.253,1.574,2.425
			c0.152,0.174,0.493,0.396,0.563,0.32c0.068-0.076-0.042-0.375-0.362-0.957c-0.319-0.582-0.665-0.943-0.665-0.943
			s0.568,0.115,0.869,0.71c0.585,1.152,1.49,1.311,1.627,1.162c0.152-0.167,0.221-0.541-0.084-1.068
			c-0.37-0.64-0.679-0.443-0.679-0.443s0.375,0.249,0.125,0.499c-0.404,0.404-0.795-0.45-0.541-0.652
			c0.38-0.299,0.763-0.167,1.248,0.292c0.486,0.457,0.61,1.039,0.61,1.039c0.901,0.666,1.217,0.317,1.096-0.443
			c-0.102-0.635-0.541-0.708-0.541-0.708s0.139,0.167-0.111,0.347c-0.348,0.251-0.68-0.305-0.471-0.554
			c0.176-0.212,0.457-0.278,1.026,0.194c0.568,0.472,0.624,0.915,0.624,0.915s1.385,0.859,1.47,0.43
			c0.127-0.663-1.29-1.733-1.29-1.733h0.333c0.194,0.124,0.54,0.208,0.706,0.152c0.166-0.056,1.002-0.638-0.541-2.33
			c-1.827-2.006-3.546-3.175-3.546-3.175h0.205c3.341,2.397,4.826,4.007,4.77,5.297c-0.041,0.958-1.165,0.444-1.165,0.444
			c0.693,0.54,1.04,1.136,1.04,1.136c1.123,0.485,1.788,0.472,1.788,0.472s-1.344-0.901-1.08-1.595
			c0.297-0.782,1.635,0.028,1.635,0.028c0.333-0.901,1.733,0.139,1.733,0.139s-0.956-1.72-2.356-3.564
			c-1.697-2.233-4.077-3.813-4.077-3.813h0.139c0.777,0.596,2.51,1.761,4.201,3.842c1.692,2.079,2.981,4.457,2.981,4.457
			c0.715,0.382,1.359,0.499,1.359,0.499s-1.318-0.964-0.991-1.664c0.326-0.7,1.615,0.16,1.615,0.16
			c0.311-0.825,1.38-0.084,1.38-0.084s-1.151-1.746-2.42-3.105c-2.249-2.409-4.881-4.174-4.881-4.174h0.181
			c0,0,3.022,2.037,5.185,4.326c1.9,2.011,2.933,3.952,2.933,3.952c0.485,0.353,1.026,0.673,1.122,0.576
			c0.097-0.098-0.048-0.452-0.283-0.854c-0.236-0.402-1.04-1.788-2.843-3.979c-1.802-2.191-3.633-3.591-3.633-3.591h0.153
			c0,0,1.595,1.248,3.411,3.189c1.816,1.941,2.475,3.071,2.475,3.071s0.367,0.303,0.895,0.312c0.831,0.014,1.503-0.414,2.426-0.242
			c1.548,0.287,1.83,0.79,1.83,0.79c-1.04-0.52-1.442-0.382-1.442-0.382c0.991,0.556,1.324,1.283,1.324,1.283
			c0.423,0.333,0.86,0.534,0.992,0.416c0.131-0.117-0.241-0.89-0.581-1.455c-0.342-0.564-1.459-2.442-3.021-4.123
			c-2.101-2.258-3.533-3.269-3.533-3.269h0.157c0,0,2.989,2.349,4.715,4.491c1.472,1.825,2.404,3.532,2.404,3.532
			c0.88,0.932,1.536,0.828,1.654,0.722c0.119-0.105,0.369-0.512-0.143-1.089c-0.512-0.578-0.763-0.29-0.763-0.29
			s0.039,0.184-0.078,0.329c-0.188,0.23-0.79-0.199-0.447-0.617c0.319-0.389,0.893-0.092,1.458,0.368
			c0.564,0.459,0.696,1.102,0.696,1.102c1.457,0.723,2.601,0.303,2.601,0.303c-2.312-0.762-2.785-2.325-2.588-3.087
			c0.197-0.76,1.353-1.089,2.482-0.748c1.131,0.342,1.655,1.182,1.59,1.681c-0.067,0.499-0.657,0.814-1.235,0.669
			c-0.578-0.144-0.631-0.84-0.197-0.827c0.434,0.013,0.342,0.551,0.342,0.551c0.499,0.211,1.09-0.472,0.538-1.181
			c-0.553-0.709-1.734-0.709-2.443-0.381c-0.709,0.329-1.077,1.143-0.065,2.193c0.973,1.01,2.183,1.009,2.183,1.009
			s1.31-0.323,1.989-0.229c1.35,0.184,1.819,1.022,1.819,1.022L93.473,99.702z M71.01,97.829c0,0-0.873-0.468-1.048-0.062
			c-0.165,0.387,0.326,1.282,1.145,1.441c0,0,0.513-0.014,0.942-0.055C72.049,99.153,71.141,98.474,71.01,97.829z M72.902,98.057
			c0,0-1.012-0.574-1.317-0.235c-0.262,0.291,0.437,1.164,0.818,1.317c0,0,0.624-0.028,1.262,0.167
			C73.665,99.306,73.354,98.848,72.902,98.057z M75.612,97.899c0,0-0.813-0.461-1.046-0.132c-0.201,0.284,0.125,1.137,0.873,1.42
			c0,0,0.686,0.098,1.172,0.063C76.611,99.25,75.557,98.515,75.612,97.899z M77.173,97.94c0,0-0.704-0.358-0.999-0.125
			c-0.29,0.229,0.229,1.074,0.763,1.407c0,0,0.52,0,0.97-0.111L77.173,97.94z M80.354,97.607c0,0-0.976,0.111-1.656-0.222
			l0.562,0.922c0,0,0.36,0.386,0.764,0.653c0.379,0.251,0.853,0.392,1.025,0.068c0.121-0.232,0.012-0.54-0.131-0.777
			C80.704,97.895,80.354,97.607,80.354,97.607z M81.775,97.461c0,0-0.588,0.056-1.191,0.125c0,0,0.963,0.694,1.061,1.303
			c0,0,0.9,0.622,1.135,0.125C82.992,98.571,82.435,97.745,81.775,97.461z"/>
	</g>
	<g id="g2803" transform="matrix(3.5961261,0,0,3.5961261,-42.305698,-218.40281)">
		<path id="path2805" d="M81.783,99.957c0.839-0.125,1.504-0.041,1.809,0.111c0.305,0.153,0.721,0.707,0.402,0.721
			c-0.319,0.014-0.325-0.443-0.325-0.443c-0.632-0.223-0.956-0.009-2.046,0.09c-0.638,0.058-1.143-0.103-1.483-0.225
			c-0.689-0.248-0.812-0.614-0.812-0.614C80.07,100.075,80.944,100.082,81.783,99.957z"/>
	</g>
	<g id="g2807" transform="matrix(3.5961261,0,0,3.5961261,-42.305698,-218.40281)">
		<path id="path2809" d="M81.914,100.554c0.085-0.021,0.347,0.166,0.431,0.332c0.083,0.167,0.381,0.465,0.519,0.562
			c0.139,0.097,0.244,0.222,0.084,0.228c-0.159,0.008-0.444-0.11-0.541-0.27c-0.098-0.159-0.258-0.492-0.368-0.589
			C81.859,100.657,81.831,100.575,81.914,100.554z"/>
	</g>
	<g id="g2811" transform="matrix(3.5961261,0,0,3.5961261,-355.53063,-267.22684)">
		<path id="path2813" d="M140.164,100.17c0.053-0.047,0.212,0.026,0.379,0.299c0.167,0.274,0.295,0.852,0.133,0.97
			c-0.133,0.098-0.341-0.129-0.354-0.22c-0.026-0.184,0.183-0.206,0.027-0.644C140.26,100.326,140.093,100.231,140.164,100.17z"/>
	</g>
	<g id="g2815" transform="matrix(3.5961261,0,0,3.5961261,-355.53063,-267.22684)">
		<path id="path2817" d="M140.79,100.443c0.133-0.042,0.256,0.247,0.335,0.424c0.08,0.176,0.283,0.441,0.389,0.582
			c0.105,0.141,0.185,0.406,0.097,0.441c-0.089,0.035-0.168-0.044-0.318-0.212c-0.15-0.168-0.201-0.466-0.327-0.777
			C140.877,100.682,140.67,100.481,140.79,100.443z"/>
	</g>
	<g id="g2819" transform="matrix(3.5961261,0,0,3.5961261,-355.53063,-267.22684)">
		<path id="path2821" d="M141.266,100.796c-0.115-0.238-0.132-0.256-0.176-0.424c-0.044-0.167,0.141-0.211,0.211,0.027
			c0.046,0.152,0.282,0.432,0.433,0.502c0.182,0.086,0.423,0.345,0.212,0.459C141.734,101.475,141.38,101.035,141.266,100.796z"/>
	</g>
	<g id="g2823" transform="matrix(3.5961261,0,0,3.5961261,-355.53063,-267.22684)">
		<path id="path2825" d="M175.618,100.17c0.055-0.047,0.213,0.026,0.381,0.299c0.168,0.274,0.295,0.852,0.132,0.97
			c-0.132,0.098-0.34-0.129-0.353-0.22c-0.026-0.184,0.182-0.206,0.026-0.644C175.715,100.326,175.548,100.231,175.618,100.17z"/>
	</g>
	<g id="g2827" transform="matrix(3.5961261,0,0,3.5961261,-355.53063,-267.22684)">
		<path id="path2829" d="M176.246,100.443c0.133-0.042,0.255,0.247,0.335,0.424c0.08,0.176,0.283,0.441,0.388,0.582
			c0.106,0.141,0.185,0.406,0.098,0.441c-0.089,0.035-0.168-0.044-0.319-0.212c-0.149-0.168-0.199-0.466-0.326-0.777
			C176.333,100.682,176.127,100.481,176.246,100.443z"/>
	</g>
	<g id="g2831" transform="matrix(3.5961261,0,0,3.5961261,-355.53063,-267.22684)">
		<path id="path2833" d="M176.722,100.796c-0.115-0.238-0.133-0.256-0.177-0.424c-0.044-0.167,0.142-0.211,0.213,0.027
			c0.045,0.152,0.283,0.432,0.432,0.502c0.182,0.086,0.423,0.345,0.212,0.459C177.19,101.475,176.837,101.035,176.722,100.796z"/>
	</g>
	<g id="g2835" transform="matrix(3.5961261,0,0,3.5961261,-355.53063,-267.22684)">
		<path id="path2837" d="M120.678,100.17c0.054-0.047,0.212,0.026,0.38,0.299c0.167,0.274,0.295,0.852,0.132,0.97
			c-0.132,0.098-0.339-0.129-0.353-0.22c-0.026-0.184,0.183-0.206,0.027-0.644C120.774,100.326,120.607,100.231,120.678,100.17z"/>
	</g>
	<g id="g2839" transform="matrix(3.5961261,0,0,3.5961261,-355.53063,-267.22684)">
		<path id="path2841" d="M121.304,100.443c0.134-0.042,0.256,0.247,0.335,0.424c0.08,0.176,0.283,0.441,0.389,0.582
			c0.106,0.141,0.185,0.406,0.097,0.441c-0.089,0.035-0.168-0.044-0.318-0.212c-0.15-0.168-0.2-0.466-0.325-0.777
			C121.392,100.682,121.185,100.481,121.304,100.443z"/>
	</g>
	<g id="g2843" transform="matrix(3.5961261,0,0,3.5961261,-355.53063,-267.22684)">
		<path id="path2845" d="M121.781,100.796c-0.115-0.238-0.132-0.256-0.177-0.424c-0.044-0.167,0.141-0.211,0.212,0.027
			c0.045,0.152,0.283,0.432,0.433,0.502c0.182,0.086,0.423,0.345,0.212,0.459C122.249,101.475,121.896,101.035,121.781,100.796z"/>
	</g>
	<g id="g2847" transform="matrix(3.5961261,0,0,3.5961261,-355.53063,-267.22684)">
		<path id="path2849" d="M117.19,100.17c0.054-0.047,0.213,0.026,0.38,0.299c0.167,0.274,0.294,0.852,0.132,0.97
			c-0.132,0.098-0.339-0.129-0.352-0.22c-0.027-0.184,0.181-0.206,0.026-0.644C117.287,100.326,117.12,100.231,117.19,100.17z"/>
	</g>
	<g id="g2851" transform="matrix(3.5961261,0,0,3.5961261,-355.53063,-267.22684)">
		<path id="path2853" d="M117.817,100.443c0.133-0.042,0.256,0.247,0.335,0.424c0.08,0.176,0.282,0.441,0.389,0.582
			c0.105,0.141,0.185,0.406,0.096,0.441c-0.088,0.035-0.167-0.044-0.317-0.212c-0.15-0.168-0.2-0.466-0.326-0.777
			C117.904,100.682,117.697,100.481,117.817,100.443z"/>
	</g>
	<g id="g2855" transform="matrix(3.5961261,0,0,3.5961261,-355.53063,-267.22684)">
		<path id="path2857" d="M118.293,100.796c-0.114-0.238-0.133-0.256-0.176-0.424c-0.044-0.167,0.142-0.211,0.212,0.027
			c0.045,0.152,0.282,0.432,0.432,0.502c0.182,0.086,0.423,0.345,0.212,0.459C118.761,101.475,118.408,101.035,118.293,100.796z"/>
	</g>
	<g id="g2859" transform="matrix(3.5961261,0,0,3.5961261,-355.53063,-267.22684)">
		<path id="path2861" d="M103.192,100.17c0.053-0.047,0.212,0.026,0.379,0.299c0.168,0.274,0.296,0.852,0.133,0.97
			c-0.133,0.098-0.34-0.129-0.354-0.22c-0.025-0.184,0.183-0.206,0.028-0.644C103.289,100.326,103.122,100.231,103.192,100.17z"/>
	</g>
	<g id="g2863" transform="matrix(3.5961261,0,0,3.5961261,-355.53063,-267.22684)">
		<path id="path2865" d="M103.819,100.443c0.134-0.042,0.255,0.247,0.335,0.424c0.08,0.176,0.283,0.441,0.389,0.582
			s0.185,0.406,0.097,0.441c-0.088,0.035-0.168-0.044-0.318-0.212c-0.151-0.168-0.2-0.466-0.326-0.777
			C103.905,100.682,103.7,100.481,103.819,100.443z"/>
	</g>
	<g id="g2867" transform="matrix(3.5961261,0,0,3.5961261,-355.53063,-267.22684)">
		<path id="path2869" d="M104.295,100.796c-0.114-0.238-0.132-0.256-0.176-0.424c-0.045-0.167,0.141-0.211,0.212,0.027
			c0.044,0.152,0.282,0.432,0.433,0.502c0.182,0.086,0.423,0.345,0.212,0.459C104.764,101.475,104.41,101.035,104.295,100.796z"/>
	</g>
	<g id="g2871" transform="matrix(3.5961261,0,0,3.5961261,-355.53063,-267.22684)">
		<path id="path2873" d="M96.254,100.17c0.054-0.047,0.211,0.026,0.379,0.299c0.168,0.274,0.295,0.852,0.133,0.97
			c-0.133,0.098-0.34-0.129-0.353-0.22c-0.027-0.184,0.182-0.206,0.026-0.644C96.35,100.326,96.183,100.231,96.254,100.17z"/>
	</g>
	<g id="g2875" transform="matrix(3.5961261,0,0,3.5961261,-355.53063,-267.22684)">
		<path id="path2877" d="M96.88,100.443c0.134-0.042,0.256,0.247,0.335,0.424c0.08,0.176,0.283,0.441,0.389,0.582
			s0.185,0.406,0.097,0.441c-0.089,0.035-0.168-0.044-0.318-0.212c-0.15-0.168-0.2-0.466-0.327-0.777
			C96.967,100.682,96.761,100.481,96.88,100.443z"/>
	</g>
	<g id="g2879" transform="matrix(3.5961261,0,0,3.5961261,-355.53063,-267.22684)">
		<path id="path2881" d="M97.356,100.796c-0.114-0.238-0.132-0.256-0.176-0.424c-0.044-0.167,0.141-0.211,0.212,0.027
			c0.045,0.152,0.282,0.432,0.432,0.502c0.182,0.086,0.424,0.345,0.212,0.459C97.824,101.475,97.472,101.035,97.356,100.796z"/>
	</g>
	<g id="g2883" transform="matrix(3.5961261,0,0,3.5961261,-355.53063,-267.22684)">
		<path id="path2885" d="M110.038,99.347c0,0-0.095-0.114-0.818-0.124c-0.957-0.015-3.577,0.582-5.186-0.596
			c0,0,0.124,0.596-0.43,0.651c-0.243,0.024-0.51-0.128-0.812-0.291c-0.385-0.208-0.782-0.444-0.782-0.444s0.083,0.485-0.278,0.707
			c-0.361,0.222-1.165-0.36-1.344-0.554c0,0,0.054,0.415-0.265,0.527c-0.319,0.111-1.08-0.32-1.372-0.569
			c0,0,0.249,0.485,0.042,0.569c-0.208,0.083-0.929-0.25-1.373-0.625c0,0,0.472,0.844,1.086,1.713
			c0.674,0.955,1.533,1.944,2.463,1.878l0.125,0.139c0,0-0.957,0.347-2.731-1.789c0,0-1.026-1.345-1.678-2.565
			c0,0-1.008-0.942-1.386-0.512c-0.416,0.471,0.083,1.761,0.818,1.552c0,0-0.173-0.235,0.021-0.374
			c0.193-0.139,0.728,0.236,0.443,0.471c-0.284,0.236-0.984,0.305-1.622-0.582c-0.637-0.887-0.243-1.379-0.021-1.518
			c0.222-0.139,0.714-0.111,1.393,0.457c0,0-1.268-2.058-2.863-3.764c-1.594-1.705-3.827-3.133-3.827-3.133h0.181
			c0,0,2.274,1.483,3.924,3.133c1.65,1.651,2.607,3.217,3.452,4.492c0,0,0.721,0.707,1.068,0.569
			c0.138-0.055-0.195-0.555-0.402-0.901c-0.208-0.347-0.514-0.86-0.791-1.013c0,0,0.292-0.068,0.818,0.486
			c0,0,0.86,1.553,1.664,1.455c0.363-0.043,0.272-0.407,0.159-0.798c-0.138-0.473-0.329-0.808-0.893-0.81
			c0,0,0.29,0.389-0.098,0.485c-0.388,0.098-0.596-0.624-0.111-0.748c0.486-0.126,1.511,0.374,1.719,1.442
			c0,0,0.552,0.658,0.971,0.416c0.361-0.208,0.111-1.719-0.54-1.608c0,0,0.202,0.349-0.056,0.471
			c-0.292,0.139-0.765-0.568-0.167-0.707c0.715-0.166,1.457,0.887,1.471,1.414c0,0,0.41,0.218,0.814,0.438
			c0.311,0.168,0.597,0.15,0.655-0.133c0.092-0.452-0.512-1.331-1.096-1.761h0.195c0,0,0.776,0.707,1.165,0.249
			c0.388-0.457-0.014-1.732-1.65-3.146c-1.636-1.415-2.275-1.816-3.079-2.303h0.223c0,0,3.078,1.872,4.27,3.453
			c1.193,1.58,1.207,2.745-0.153,2.468c0,0,0.444,0.347,0.61,0.873c0,0,0.556,0.43,1.928,0.514c0,0-1.459-0.84-1.053-1.692
			c0.401-0.845,1.65,0.18,1.65,0.18s0.097-0.97,1.414-0.221c0,0-0.61-1.304-3.689-4.077c-2.256-2.032-4.436-3.3-4.436-3.3h0.194
			c0,0,2.467,1.387,5.242,3.966c2.772,2.578,3.923,4.604,4.117,4.811C109.524,98.876,109.927,99.111,110.038,99.347z
			 M106.502,97.697c0,0-0.915-0.762-1.151-0.263c-0.384,0.813,0.944,1.567,0.944,1.567c0.429,0.027,1.331-0.056,1.331-0.056
			C106.461,98.336,106.502,97.697,106.502,97.697z M108.403,97.891c0,0-0.997-0.84-1.291-0.444
			c-0.498,0.675,0.805,1.484,0.805,1.484c0.735-0.152,1.206-0.041,1.206-0.041C108.777,98.543,108.403,97.891,108.403,97.891z"/>
	</g>
	<g id="g2887" transform="matrix(3.5961261,0,0,3.5961261,-355.53063,-267.22684)">
		<path id="path2889" d="M132.25,101.927c-0.624,0.484-1.885-0.347-2.412-1.068c-0.527-0.721-1.067-1.512-1.067-1.512
			c-2.483-0.153-2.968-1.22-2.968-1.22c1.054,0.79,2.108,0.721,2.108,0.721c-0.403-0.347-0.486-0.638-1.124-1.261
			c-0.637-0.624-1.205-0.611-1.205-0.611c0.138,0.777-0.818,1.096-1.097,0.818c-0.243-0.243-0.248-0.541,0.029-0.79
			c0.276-0.249,0.776-0.221,0.776-0.221c-0.166-0.791-0.957-1.249-2.219-1.179c-1.261,0.069-1.677,1.136-0.817,2.163
			c0.859,1.025,2.066,1.095,2.066,1.095s0.913-0.398,1.789-0.014c0.789,0.346,0.762,0.791,0.762,0.791l-0.444-0.278
			c-0.125-0.485-0.679-0.347-1.29-0.222c-0.61,0.125-1.4,0.222-1.4,0.222c0.362,0.402,0.801,0.949,1.803,1.747
			c0.956,0.763,1.58,0.902,1.941,0.652c0.291-0.202,0.347-0.555,0.221-0.735c-0.123-0.18-0.319-0.432-0.789-0.305
			c-0.513,0.139-0.237,0.527-0.237,0.527c0.015-0.153,0.389-0.36,0.597-0.07c0.259,0.364-0.264,0.722-0.666,0.361
			c-0.285-0.256-0.498-0.707-0.111-0.984c0.389-0.277,1.027-0.084,1.276,0.194c0.191,0.212,0.68,0.901,0.139,1.303
			c-0.541,0.403-1.401,0.111-2.524-0.804c-1.123-0.915-1.844-1.9-1.844-1.9c-1.303,0.027-2.135-0.679-2.135-0.679
			s0.027,0.568-0.237,0.596c-0.844,0.088-1.801-0.859-1.801-0.859s0.483,0.924,0.249,0.901c-0.79-0.08-2.038-1.026-2.038-1.026
			s0.166,0.277,0.32,0.541c0.152,0.263,0.512,0.582,0.512,0.582c-0.319-0.167-0.541-0.167-1.623-0.069
			c-1.081,0.097-1.829-0.597-1.829-0.597s0.207,0.51-0.111,0.541c-0.387,0.038-0.61-0.073-0.822-0.202
			c-0.318-0.195-0.537-0.436-0.537-0.436s0.72,0.43,0.943,0.194c0.261-0.277-0.569-1.483-0.569-1.483s-0.319-0.166-0.416-0.098
			c-0.299,0.212,0.139,1.928-0.18,1.997c-0.232,0.05-1.15-0.61-1.15-0.61s0.054,0.499-0.251,0.583
			c-0.596,0.162-1.705-0.916-1.705-0.916c1.372,2.662,1.885,3.191,2.814,3.869c1.29,0.942,2.08,0.652,2.08,0.652l0.208,0.222
			c-0.596,0.332-2.523-0.666-3.507-1.595c-0.985-0.929-1.831-2.676-2.219-3.522c-0.388-0.846-0.624-0.998-0.624-0.998
			c0.568,0.028,0.639,0.538,1.206,1.081c0.638,0.611,1.206,0.86,1.4,0.735c0.134-0.085,0.25-0.61-0.054-1.123
			c-0.306-0.512-0.846-0.402-0.846-0.402c0.429,0.43-0.07,0.679-0.36,0.291c-0.473-0.63,0.762-0.734,1.386-0.083
			c0.624,0.652,0.485,1.109,0.485,1.109l0.388,0.236c0.513,0.319,0.417-0.596,0.389-1.303c-0.028-0.707,0.72-0.472,0.72-0.472
			s-0.125-0.388-1.802-2.274c-1.677-1.885-2.566-2.371-2.566-2.371h0.167c0.86,0.499,2.413,1.844,3.73,3.398
			c1.317,1.552,1.789,2.87,1.789,2.87c0.541,0.401,1.261,0.29,1.261,0.29c-0.706-0.456-1.442-1.214-1.109-1.746
			c0.347-0.555,1.442,0.055,1.442,0.055s-0.443-0.721-1.636-2.191c-1.193-1.47-4.021-3.591-4.021-3.591h0.152
			c0,0,2.441,1.581,4.049,3.411c1.608,1.83,2.302,3.119,2.302,3.119c0.859,0.638,1.581,0.929,1.691,0.874
			c0.111-0.056-0.124-0.485-0.347-0.915c-0.221-0.43-1.094-2.399-4.214-5.088c-3.12-2.69-4.285-3.204-4.285-3.204h0.319
			c0.721,0.43,2.759,1.761,4.937,3.731c2.176,1.968,2.481,2.648,2.814,3.147c0.333,0.499,0.569,1.206,1.123,1.691
			c0.413,0.362,1.054,0.735,1.248,0.624c0.194-0.111,0.347-0.707,0.083-1.234c-0.278-0.557-0.846-0.388-0.846-0.388
			s0.393,0.271,0.098,0.457c-0.382,0.241-0.764-0.471-0.347-0.665c0.37-0.172,0.915,0.014,1.317,0.499
			c0.369,0.446,0.402,0.902,0.402,0.902c0.847,0.901,2.372,0.54,2.372,0.54c-1.72-0.596-2.87-2.121-2.358-3.05
			c0.567-1.028,2.358-0.666,3.175-0.235c0.879,0.461,0.971,1.123,0.971,1.123c0.79,0,1.497,0.79,1.497,0.79
			s-0.041-0.555,0.416-0.625c0.539-0.081,1.123,0.403,1.123,0.403c-0.929-1.387-1.941-2.593-3.674-4.298
			c-1.734-1.707-3.494-2.774-3.494-2.774h0.18c0,0,2.274,1.442,3.619,2.732c1.345,1.29,2.509,2.565,3.203,3.605
			c1.173,1.759,1.65,2.163,1.65,2.163s0.592-0.021,1.344,0.319c0.703,0.316,0.832,0.79,0.832,0.79l-0.345-0.139
			c-0.189-0.755-1.943-0.513-1.943-0.513c1.443,1.845,1.984,2.19,2.816,2.524c0.831,0.333,1.443-0.404,1.067-0.818
			c-0.233-0.257-0.512-0.202-0.695-0.087c-0.132,0.084-0.206,0.211-0.206,0.211c0.333-0.193,0.847,0.278,0.457,0.542
			c-0.388,0.263-1.258-0.482-0.414-0.999c0.789-0.485,1.87,0.777,1.177,1.442C133.457,102.716,132.25,101.927,132.25,101.927z
			 M125.286,96.991c-0.056-0.021-0.303,0.043-0.493,0.164c-0.204,0.13-0.265,0.375-0.212,0.437c0.092,0.107,0.306,0.034,0.479-0.113
			C125.321,97.258,125.286,96.991,125.286,96.991z M116.777,97.614c0,0-1.04-0.679-1.193-0.027c-0.152,0.651,0.68,1.178,0.915,1.303
			c0,0,0.5-0.042,1.055-0.042L116.777,97.614z M128.812,97.683c0,0-0.939-0.727-1.192,0c-0.209,0.597,0.692,1.193,0.692,1.193
			s0.417,0,0.681-0.042c0.263-0.042,0.637-0.055,0.637-0.055S129.325,98.418,128.812,97.683z M129.686,99.264
			c0,0-0.458,0.056-0.693,0.056c0,0,0.581,0.929,1.039,1.47c0.458,0.54,1.262,1.081,1.678,0.734
			C131.71,101.524,131.169,101.15,129.686,99.264z"/>
	</g>
	<g id="g2891" transform="matrix(3.5961261,0,0,3.5961261,-355.53063,-267.22684)">
		<path id="path2893" d="M130.594,97.607c-0.222,0-0.354-0.173-0.354-0.318c0-0.147,0.104-0.305,0.305-0.305
			c0.195,0,0.312,0.208,0.312,0.311C130.857,97.399,130.815,97.607,130.594,97.607z"/>
	</g>
	<g id="g2895" transform="matrix(3.5961261,0,0,3.5961261,-355.53063,-267.22684)">
		<path id="path2897" d="M150.248,99.292c-0.625,0.416-1.678-0.652-1.678-0.652s0.305,0.624,0.194,0.707
			c-0.145,0.109-0.54-0.111-0.54-0.111c0.54,1.013,1.399,1.845,1.691,2.122c0.291,0.278,1.182,0.973,1.692,0.415
			c0.232-0.253,0.222-0.61,0.044-0.777c-0.175-0.16-0.386-0.233-0.626-0.082c-0.285,0.179-0.208,0.375-0.208,0.375
			c0.236-0.195,0.761,0.124,0.526,0.471c-0.254,0.374-1.288-0.402-0.61-1.04c0.567-0.531,1.747,0.333,1.317,1.192
			c-0.429,0.86-1.455,0.277-2.204-0.304c-0.748-0.583-1.941-2.51-1.941-2.51l-0.986-0.513c0,0,0.348,0.623-0.123,0.749
			c-0.472,0.124-1.443-0.389-1.443-0.389s0.041,0.375-0.36,0.416c-0.498,0.052-1.497-0.721-1.497-0.721s0.429,0.624,0.222,0.721
			c-0.442,0.206-1.457-0.582-1.457-0.582s1.179,1.76,2.192,2.787c1.012,1.025,1.483,0.776,1.483,0.776l0.222,0.209
			c-0.319,0.18-0.901-0.07-2.067-1.013c-1.165-0.943-1.885-2.228-1.885-2.228c-1.089-0.244-1.047,0.132-2.918,0.109
			c-2.302-0.028-3.516-1.122-3.516-1.122c2.067,0.874,2.719,0.676,2.719,0.676s-1.471-0.999-1.137-1.72
			c0.367-0.795,1.83,0.389,1.83,0.389c0.194-1.137,1.51-0.319,1.51-0.319s-0.554-0.998-1.649-2.149
			c-1.475-1.549-3.938-2.912-3.938-2.912h0.222c0,0,2.718,1.484,4.021,2.843c1.303,1.359,2.634,3.286,2.634,3.286
			c0.485,0.374,0.971,0.596,1.054,0.554c0.083-0.042-0.138-0.499-0.291-0.735c-0.153-0.236-1.65-2.703-3.744-4.811
			c-2.094-2.108-4.493-3.356-4.493-3.356h0.223c0,0,2.926,1.665,4.589,3.314c1.664,1.65,2.911,3.426,2.911,3.426
			c0.375,0.208,0.778,0.346,2.538,0.193c1.761-0.152,2.496,0.707,2.496,0.707c-0.485-0.388-1.289-0.249-1.289-0.249
			c0.471,0.36,0.734,0.832,0.734,0.832c0.583,0.346,1.331,0.679,1.4,0.568c0.07-0.111,0.015-0.429-0.276-0.985
			c-0.292-0.554-0.707-0.928-0.707-0.928c0.707,0.097,1.206,1.192,1.206,1.192c0.527,0.556,1.06,0.964,1.34,0.877
			c0.329-0.101,0.283-0.756,0.101-1.141c-0.346-0.729-0.873-0.596-0.873-0.596c0.323,0.147,0.197,0.424,0.034,0.508
			c-0.125,0.063-0.272,0.044-0.423-0.161c-0.162-0.221-0.138-0.831,0.749-0.54C150.151,97.351,150.873,98.876,150.248,99.292z
			 M139.211,97.864c0,0-0.997-0.791-1.289-0.181c-0.292,0.61,0.914,1.29,0.914,1.29s0.792-0.097,1.263-0.097
			C140.099,98.876,139.336,98.405,139.211,97.864z M141.083,97.864c0,0-0.94-0.782-1.317-0.139
			c-0.278,0.471,0.624,1.137,0.624,1.137s1.025-0.028,1.525,0.139L141.083,97.864z M144.175,97.503c0,0-1.068-0.041-1.665-0.374
			l0.652,0.971c0,0,1.206,1.215,1.623,0.721C145.159,98.377,144.175,97.503,144.175,97.503z M145.743,97.434
			c0,0-0.93-0.014-1.29,0.069c0,0,0.831,0.666,0.887,1.124c0,0,0.749,0.596,1.053,0.249
			C146.698,98.529,146.06,97.725,145.743,97.434z"/>
	</g>
	<g id="g2899" transform="matrix(3.5961261,0,0,3.5961261,-355.53063,-267.22684)">
		<path id="path2901" d="M152.522,96.353c-0.818,0.568-1.497-0.458-1.137-0.749c0.361-0.292,0.651,0.194,0.513,0.333
			c-0.138,0.138-0.291,0.055-0.291,0.055c0.153,0.637,1.303-0.078,0.736-0.68c-0.524-0.553-2.026-0.18-1.929,0.777
			c0.098,0.956,2.108,1.913,2.108,1.913l0.111,0.236c-0.24-0.167-1.173-0.713-1.416-0.39c-0.221,0.294,0.134,1.402,1,2.345
			c1.74,1.896,2.565,2.135,2.565,2.135l0.138,0.181c-0.382,0.078-2.459-1.602-3.449-2.856c-0.488-0.62-0.669-1.089-0.752-1.512
			c-0.194-0.996,0.499-0.763,0.499-0.763c-0.652-0.471-2.039-1.765-0.79-2.495c0.644-0.376,1.486-0.227,1.927,0.194
			C152.793,95.497,152.93,96.07,152.522,96.353z"/>
	</g>
	<g id="g2903" transform="matrix(3.5961261,0,0,3.5961261,-355.53063,-267.22684)">
		<path id="path2905" d="M169.646,97.004c1.15,0.249,1.169-0.018,2.093,0.138c0.902,0.153,1.235,0.736,1.235,0.736
			c-0.832-0.583-1.359-0.375-1.359-0.375s1.442,1.414,0.763,1.831c-0.68,0.415-2.08-0.888-2.08-0.888s0.457,0.846,0.167,0.97
			c-0.293,0.126-1.554-0.845-1.554-0.845s0.332,0.679-0.027,0.803c-0.692,0.241-1.596-0.443-1.596-0.443s0.042,0.43-0.193,0.472
			c-0.306,0.054-1.359-0.582-1.359-0.582c0.193,0.402,0.429,0.61,0.429,0.61c-0.221-0.084-0.665-0.028-1.802-0.015
			c-1.137,0.015-1.996-0.665-1.996-0.665s0.36,0.555,0.194,0.652c-0.323,0.188-1.65-0.624-1.65-0.624s0.859,1.636,1.761,2.579
			c1.043,1.091,1.678,1.067,1.678,1.067l0.055,0.139c-1.096-0.097-2.358-1.441-2.871-2.205c-0.513-0.762-1.47-2.246-1.47-2.246
			c-0.725-0.628-1.185-0.67-1.392-0.45c-0.244,0.262-0.3,0.751,0.006,1.158c0.336,0.445,0.859,0.318,0.859,0.318
			c-0.346-0.305,0.111-0.873,0.445-0.416c0.215,0.296,0.015,0.515-0.13,0.627c-0.286,0.217-0.942,0.03-1.368-0.405
			c-0.72-0.735-0.582-1.358-0.582-1.358c-0.555-0.583-1.636-0.292-1.636-0.292s0.596,0.554,0.748,0.707
			c0.153,0.152,0.666,0.721,0.376,1.179c-0.435,0.681-1.582-0.278-1.582-0.278c0,0.68-0.61,0.431-0.61,0.431
			c0.956,1.33,1.719,1.955,2.024,2.163c0.304,0.208,1.274,0.735,1.678,0.276c0.445-0.502,0.042-0.983-0.388-0.845
			c-0.301,0.097-0.278,0.263-0.278,0.263c0.181-0.11,0.62,0.259,0.334,0.541c-0.387,0.379-1.026-0.485-0.61-0.873
			c0.394-0.369,0.906-0.259,1.19-0.004c0.147,0.132,0.598,0.697,0.224,1.21c-0.447,0.612-1.207,0.319-2.067-0.222
			c-0.859-0.54-2.537-2.635-2.537-2.635c-0.402-0.152-0.776-0.568-0.776-0.568s0.374,0.583,0.236,0.68
			c-0.357,0.25-1.401-0.43-1.401-0.43l-0.042-0.18c0,0,0.93,0.54,0.943,0.193c0.012-0.297-0.397-0.817-0.867-1.394
			c-0.318-0.388-0.714-0.658-0.714-0.658c0.971,0.347,2.275,0.265,3.619,0.125c1.345-0.139,2.192,0.444,2.192,0.444
			c0.388-0.804,1.843,0.194,1.843,0.194c-0.597-1.054-1.982-3.202-2.814-4.187c-0.833-0.985-2.191-2.081-2.191-2.081h0.207
			c0,0,0.972,0.819,1.734,1.567c0.763,0.749,1.622,1.79,2.372,2.885c0.748,1.095,1.649,2.731,1.649,2.731s0.902,0.527,1.095,0.43
			c0.194-0.097-0.179-0.734-0.443-1.192c-0.264-0.458-0.915-0.902-0.915-0.902c0.416,0.083,0.86,0.209,1.124,0.529
			c0.262,0.319,0.623,1.093,0.623,1.093c0.748,0.5,1.566,0.514,1.566,0.514s-1.372-0.888-1.012-1.595
			c0.361-0.707,1.762,0.041,1.762,0.041s-1.166-2.037-3.203-4.131c-2.039-2.094-4.022-3.203-4.022-3.203h0.235
			c1.485,0.832,3.828,2.745,5.38,4.576c1.554,1.83,2.497,3.688,2.497,3.688s0.389,0.26,0.914,0.485
			c0.584,0.249,0.402-0.401,0.43-1.234c0.028-0.833,0.957-0.499,0.957-0.499s-0.444-0.832-1.275-1.817
			c-1.395-1.65-2.954-2.55-2.954-2.55h0.167c0.901,0.512,1.788,1.206,3.065,2.508c1.275,1.304,1.982,2.884,1.982,2.884
			c0.402,0.403,1.07,0.854,1.178,0.805c0.152-0.069-0.027-0.513-0.096-0.749c-0.071-0.236-0.542-1.664-1.984-3.715
			c-1.392-1.982-2.634-2.69-2.634-2.69h0.194c0.943,0.651,1.803,1.484,2.801,2.8C169.188,95.923,169.646,97.004,169.646,97.004z
			 M154.615,97.462c0,0-0.942,0.027-1.566-0.194c0,0,1.328,1.892,2.039,1.649C155.697,98.71,154.962,97.697,154.615,97.462z
			 M156.016,97.337c0,0-0.734,0.097-1.137,0.11c0,0,0.79,0.625,0.874,1.165c0,0,0.651,0.652,1.067,0.333
			C157.236,98.627,156.571,97.725,156.016,97.337z M164.765,97.822c0,0-1.199-0.784-1.428-0.069
			c-0.236,0.734,0.874,1.261,0.874,1.261s0.735,0.028,1.219-0.069L164.765,97.822z M167.94,97.476c0,0-0.665-0.513-0.679,0.291
			c-0.012,0.734,0.027,0.887,0.027,0.887s0.534,0.533,0.999,0.374C168.813,98.848,167.94,97.476,167.94,97.476z M171.171,98.848
			c0.368,0.181,0.67,0.228,0.731,0.071c0.119-0.309-0.187-1.047-0.551-1.375c0,0-0.721,0.153-1.525-0.207
			C169.826,97.337,170.285,98.411,171.171,98.848z"/>
	</g>
	<g id="g2907" transform="matrix(3.5961261,0,0,3.5961261,-355.53063,-267.22684)">
		<path id="path2909" d="M160.644,100.504c0.166,0.138,0.583,0.682,0.72,0.918c0.139,0.238-0.137,0.238-0.356,0.02
			c-0.217-0.217-0.305-0.533-0.483-0.76c-0.178-0.228-0.327-0.267-0.247-0.346C160.357,100.257,160.476,100.365,160.644,100.504z"/>
	</g>
	<g id="g2911" transform="matrix(3.5961261,0,0,3.5961261,-355.53063,-267.22684)">
		<path id="path2913" d="M163.738,101.442c-0.217-0.217-0.306-0.533-0.484-0.76c-0.177-0.228-0.327-0.267-0.247-0.346
			c0.079-0.079,0.199,0.029,0.367,0.168c0.166,0.138,0.582,0.682,0.72,0.918C164.232,101.66,163.956,101.66,163.738,101.442z"/>
	</g>
	<g id="g2915" transform="matrix(3.5961261,0,0,3.5961261,-355.53063,-267.22684)">
		<path id="path2917" d="M172.246,100.767c0.169,0.139,0.583,0.682,0.722,0.919c0.139,0.237-0.139,0.237-0.356,0.019
			c-0.217-0.217-0.306-0.533-0.484-0.76c-0.177-0.228-0.326-0.267-0.247-0.346C171.96,100.52,172.079,100.628,172.246,100.767z"/>
	</g>
	<g id="g2919" transform="matrix(3.5961261,0,0,3.5961261,-355.53063,-267.22684)">
		<path id="path2921" d="M172.516,99.944c1.228-0.128,1.164,0.804,1.164,0.804c-0.096-0.305-0.582-0.499-1.33-0.375
			c-0.513,0.086-1.457,0.123-1.956-0.124c-0.561-0.279-0.776-0.722-0.776-0.722C170.465,100.401,171.449,100.054,172.516,99.944z"/>
	</g>
	<g id="g2923" transform="matrix(3.5961261,0,0,3.5961261,-355.53063,-267.22684)">
		<path id="path2925" d="M183.193,101.788c-0.364,0.269-1.297-0.718-0.473-1.165c0.524-0.284,0.943-0.017,1.247,0.388
			c0.32,0.419,0.419,0.917,0.043,1.234c-0.807,0.681-1.983-0.277-2.842-0.998c-0.86-0.721-1.803-1.775-1.803-1.775
			c-1.456,0-2.967-0.86-2.967-0.86s0.195,0.93-0.596,0.819c-0.858-0.12-1.706-0.93-1.706-0.93s0.632,1.238-0.207,0.93
			c-0.964-0.354-1.289-0.819-1.289-0.819s0.929,0.611,1.109,0.458c0.18-0.153,0.014-0.583-0.18-0.998
			c-0.196-0.416-0.472-1.248-2.316-3.855c-1.817-2.567-4.008-4.174-4.008-4.174h0.209c1.719,1.346,2.551,2.399,3.827,3.855
			c1.275,1.457,2.606,4.063,2.606,4.063c0.249,0.264,0.691,0.766,1.29,0.984c0.61,0.222,0.942-0.347,0.582-1.067
			c-0.361-0.722-1.068-0.5-1.068-0.5c0.278,0.042,0.305,0.542-0.124,0.527c-0.421-0.014-0.667-0.901,0.402-0.789
			c0.928,0.095,1.414,1.289,1.414,1.289c1.969,1.026,3.467,0.512,3.467,0.512c-1.969-0.554-3.342-2.246-2.399-3.175
			c0.554-0.547,1.341-0.759,2.13-0.773c0.723-0.014,1.055,0.134,1.63,0.402c1.498,0.698,1.509,2.478,0.177,2.298
			c-1.331-0.18-1.193-1.427-0.457-1.359c0.735,0.07,0.471,0.638,0.221,0.638c-0.249,0-0.332-0.277-0.332-0.277
			c-0.236,0.098-0.166,0.347-0.166,0.347c0.36,0.665,1.371,0.444,1.427-0.153c0.056-0.596-1.004-1.637-2.176-1.51
			c-1.306,0.14-2.621,0.79-2.122,1.94c0.499,1.151,2.635,1.526,2.635,1.526c0.915-0.36,1.397-0.403,2.257-0.125
			c0.86,0.277,1.275,1.014,1.275,1.014l-0.538-0.178c-0.478-0.902-1.233-0.701-1.977-0.464c-0.751,0.24-1.752,0.376-1.752,0.376
			c0.721,0.902,1.025,1.151,2.079,1.956c1.055,0.804,1.608,0.61,1.831,0.443c0.221-0.166,0.387-0.569,0.151-0.805
			c-0.236-0.235-0.456-0.248-0.706-0.165c-0.249,0.083-0.264,0.388-0.264,0.388C183.123,101.04,183.512,101.552,183.193,101.788z"/>
	</g>
	<g id="g3551">
	</g>
	<path id="path4666" sodipodi:nodetypes="csssssc" d="M-3.066,134.881c0,0-0.995-0.598-1.234,0.398
		c-0.23,0.959,2.15,1.791,4.14,0.637c1.99-1.154,2.508-2.945,5.334-2.109c2.826,0.836,2.03-1.672,0.478-1.075
		c-1.553,0.597-2.278-1.188-6.409,1.274C-2.628,135.12-2.628,135.677-3.066,134.881z"/>
	<path id="path4668" sodipodi:nodetypes="csssssc" d="M-2.882,142.118c0,0-1.232-0.252-1.08,1.08
		c0.146,1.284,3.574,1.598,5.114-0.771c1.54-2.369,0.638-5.248,3.797-5.582c3.16-0.335,1.376-3.021,0.056-1.545
		c-1.32,1.476-2.191-0.28-5.362,4.717C-1.792,142.28-2.131,142.882-2.882,142.118z"/>
	<path id="path4670" sodipodi:nodetypes="csssssc" d="M301.925,134.778c0,0,0.949-0.57,1.177,0.38
		c0.22,0.914-2.051,1.709-3.95,0.607c-1.898-1.101-2.392-2.81-5.089-2.012c-2.696,0.798-1.937-1.595-0.455-1.025
		c1.481,0.57,2.173-1.133,6.115,1.215C301.507,135.006,301.507,135.538,301.925,134.778z"/>
	<path id="path4672" sodipodi:nodetypes="csssssc" d="M301.75,141.682c0,0,1.175-0.241,1.03,1.03
		c-0.14,1.224-3.41,1.523-4.879-0.736c-1.469-2.26-0.608-5.006-3.623-5.326c-3.015-0.319-1.313-2.882-0.053-1.473
		s2.091-0.266,5.115,4.5C300.71,141.836,301.032,142.411,301.75,141.682z"/>
</g>
</svg>
