<?xml version="1.0" encoding="utf-8"?>
<!-- Generator: Adobe Illustrator 16.0.0, SVG Export Plug-In . SVG Version: 6.00 Build 0)  -->
<!DOCTYPE svg PUBLIC "-//W3C//DTD SVG 1.1//EN" "http://www.w3.org/Graphics/SVG/1.1/DTD/svg11.dtd">
<svg version="1.1" id="Layer_1" xmlns="http://www.w3.org/2000/svg" xmlns:xlink="http://www.w3.org/1999/xlink" x="0px" y="0px"
	 width="512px" height="512px" viewBox="0 0 512 512" enable-background="new 0 0 512 512" xml:space="preserve">
<g>
	<g>
		<path fill-rule="evenodd" clip-rule="evenodd" fill="#FFFFFF" d="M106.501,352.325c0-65.898,0-131.797,0-197.824
			c62.102,0,124.203,0,186.305,0c-1.213,0.401-2.415,1.103-3.642,1.15c-4.418,0.169-8.844,0.123-13.267,0.146
			c-2.484,0.013-4.969,0.002-7.146,0.002c-0.185,0.875-0.31,1.917-0.626,2.897c-1.53,4.73-2.486,9.444-0.796,14.384
			c1.473,4.304-0.599,10.574-4.056,11.506c-3.723,1.003-5.591,3.679-7.327,6.596c-3.065,5.148-2.904,4.976-8.328,2.239
			c-5.206-2.627-10.905-3.032-16.561-1.803c-3.569,0.775-4.792,3.857-3.439,7.27c0.384,0.968,0.59,2.006,0.818,2.806
			c-1.864,1.273-3.465,2.321-5.018,3.438c-1.967,1.414-3.886,2.612-6.501,2.866c-1.223,0.119-3.067,1.918-3.256,3.164
			c-0.708,4.68-1.2,9.453-1.119,14.179c0.107,6.224,0.853,12.437,1.283,18.657c0.428,6.183-0.357,12.174-2.1,18.17
			c-1.339,4.604-1.81,9.469-2.531,14.238c-0.224,1.479-0.532,2.558-1.953,3.442c-2.449,1.523-5.188,2.997-6.907,5.195
			c-4.825,6.169-9.252,12.655-13.708,19.104c-1.604,2.323-3.811,4.816-4.031,7.379c-0.361,4.217-2.87,6.569-5.491,9.001
			c-2.184,2.026-4.91,3.48-7.021,5.567c-2.095,2.071-4.399,3.534-7.177,4.307c-8.235,2.29-15.987,5.74-23.466,9.815
			c-5.32,2.9-10.961,4.813-16.871,6.054c-2.933,0.615-5.918,1.178-8.709,2.22C111.29,349.453,108.945,351.023,106.501,352.325z"/>
		<path fill-rule="evenodd" clip-rule="evenodd" fill="#FFFFFF" d="M406.993,253.163c0,35.537,0,71.074,0,106.642
			c-100.164,0-200.328,0-300.492,0c0-1.64,0-3.308,0-4.976c8.478-0.461,16.959-0.865,25.431-1.42
			c2.252-0.147,4.462-0.984,6.712-1.092c2.086-0.1,2.073-0.972,1.586-2.515c-9.362,1.2-18.537,3.163-27.988,2.743
			c1.034-0.78,2.126-1.299,3.264-1.684c7.258-2.456,14.613-4.654,21.771-7.373c10.012-3.803,19.333-9.172,29.561-12.642
			c5.43-1.842,10.073-6.059,14.978-9.342c0.973-0.651,1.667-1.859,2.237-2.943c1.825-3.471,4.476-5.868,8.125-7.41
			c1.271-0.536,2.823-2.017,2.991-3.238c0.427-3.114,2.158-4.864,4.62-6.339c1.208-0.724,2.229-1.751,3.385-2.57
			c2.403-1.701,2.352-4.474,2.861-6.9c0.287-1.37-0.875-2.151-2.288-1.414c-0.781,0.407-1.501,1.067-2.043,1.771
			c-1.561,2.031-2.67,4.575-4.597,6.119c-2.706,2.168-3.284,4.845-3.57,7.913c-0.138,1.479-0.554,2.976-2.755,2.48
			c-0.053-2.244,3.398-4.33,0.163-6.182c4.67-6.101,9.228-12.06,13.798-18.009c0.299-0.389,0.656-0.764,1.06-1.035
			c3.316-2.233,6.626-4.479,9.986-6.645c3.337-2.151,6.861-3.431,10.876-1.945c1.614,0.597,2.735,1.297,1.515,3.262
			c-0.289,0.464-0.279,1.354-0.035,1.872c1.676,3.568,0.525,6.647-1.926,9.159c-4.92,5.042-10.069,9.862-15.13,14.768
			c-2.565,2.487-5.137,4.967-7.721,7.435c-1.379,1.317-2.81,2.579-4.18,3.905c-1.424,1.378-3.106,2.611-4.135,4.248
			c-1.877,2.988-4.596,5.573-5.008,9.369c-0.038,0.348-0.438,0.676-0.711,0.974c-1.737,1.896-3.464,3.8-5.238,5.659
			c-1.485,1.559-3.062,3.031-4.533,4.604c-0.623,0.665-1.301,1.416-1.572,2.251c-0.976,3.012-3.217,4.295-6.334,3.795
			c-1.665-0.267-3.837-0.662-5.042,0.127c-3.241,2.121-6.63,1.411-10.042,1.558c-4.927,0.211-9.842,0.698-14.997,1.086
			c1.617,2.728,1.618,2.74,3.934,2.495c3.566-0.377,7.125-0.861,10.699-1.117c1.321-0.094,2.68,0.491,4.02,0.484
			c2.502-0.015,5.354,1.854,7.378-1.488c0.304-0.502,2.503,0.034,3.791,0.277c0.774,0.146,1.474,0.939,2.218,0.955
			c8.602,0.177,17.158-1.221,25.794-0.578c4.747,0.353,9.541,0.063,14.313,0.063c0.013,0.202,0.025,0.404,0.039,0.606
			c-4.202,0.472-8.409,0.896-12.599,1.455c-0.785,0.104-1.498,0.744-2.253,1.131c-1.472-0.306-2.934-0.854-4.399-0.862
			c-6.492-0.04-12.986,0.072-19.479,0.141c-0.328,0.003-0.763-0.005-0.958,0.187c-0.374,0.366-0.8,0.856-0.839,1.324
			c-0.026,0.309,0.537,0.856,0.929,0.966c0.62,0.172,1.319,0.108,1.981,0.071c6.553-0.362,13.106-0.714,19.654-1.138
			c1.031-0.066,2.041-0.473,3.06-0.723c1.217,0.069,2.474,0.369,3.645,0.169c5.973-1.019,11.921-2.18,17.885-3.257
			c0.814-0.146,1.665-0.155,2.496-0.133c6.5,0.171,12.999,0.461,19.5,0.53c8.83,0.094,17.666-0.132,26.492,0.085
			c5.101,0.125,10.104,0.567,15.057-1.372c1.645-0.645,3.771-0.103,5.674-0.025c3.23,0.133,6.466,0.555,9.684,0.438
			c3.99-0.146,7.962-0.767,11.95-1.084c1.864-0.148,3.817-0.188,4.056,2.127c2.485,0.411,5.121,0.188,6.98,1.282
			c4.688,2.758,9.66,2.607,14.727,2.601c1.912-0.003,3.823,0.311,5.737,0.441c0.66,0.045,1.329-0.006,1.991-0.051
			c0.852-0.059,1.739-0.354,2.545-0.2c4.088,0.779,7.91,0.198,11.537-1.729c-0.218-0.985-0.53-1.769-0.503-2.539
			c0.015-0.41,0.771-1.199,0.935-1.137c2.704,1.03,5.312,0.113,7.964-0.192c0.869-0.1,1.806,0.385,3.227,0.727
			c-1.187,0.75-1.841,1.163-1.981,1.252c-0.27,1.547-0.449,2.576-0.628,3.605c-0.245-0.033-0.489-0.066-0.733-0.1
			c-0.118-1.265-0.236-2.529-0.389-4.153c-1.411,0.463-2.719,0.616-3.683,1.275c-1.31,0.896-1.601,2.347,0.037,3.194
			c2.715,1.407,5.507,2.716,8.379,3.759c2.587,0.94,3.255,0.148,3.063-2.612c-0.123-1.77,0.116-3.564,0.192-5.349
			c0.266-0.108,0.53-0.218,0.796-0.326c-5.1-4.713-11.519-2.675-17.132-2.981c-0.609-0.812-1.049-1.398-1.489-1.985
			c-0.349,0.739-0.721,1.47-1.029,2.227c-0.085,0.207,0.024,0.492,0.041,0.742c0.097,1.427,0.804,2.934-1.245,3.798
			c-3.647,1.538-4.838,1.507-6.766-0.436c-0.888-0.896-1.946-1.621-3.215-2.658c-0.388,1.318-0.39,2.533-0.898,2.805
			c-1.1,0.59-2.537,1.115-3.69,0.895c-1.471-0.281-1.03-1.67-0.46-2.644c0.588-1.003,1.378-1.886,1.991-2.876
			c0.744-1.202,0.667-2.202-1.176-2.734c-0.538,1.077-1.063,2.186-1.639,3.268c-0.701,1.315-1.239,2.81-2.243,3.843
			c-0.68,0.7-2.041,0.74-3.098,1.075c-0.19-0.794-0.514-1.585-0.545-2.386c-0.072-1.839-1.172-2.593-2.768-1.664
			c-0.695,0.406-1.116,1.295-1.818,1.677c-1.097,0.598-2.326,0.952-3.5,1.409c-0.196-0.365-0.393-0.731-0.589-1.099
			c2.655-2.104,5.312-4.21,7.968-6.315c-0.153-0.24-0.307-0.481-0.46-0.722c-1.857,0.958-3.904,1.676-5.518,2.945
			c-1.508,1.187-2.704,1.744-4.194,0.306c-2.003,2.755-2.627,2.857-4.633,0.776c0.997-0.931,1.991-1.859,2.986-2.788
			c-0.122-0.157-0.243-0.313-0.365-0.471c-1.02,0.372-2.04,0.743-3.061,1.115c-0.183-0.133-0.365-0.266-0.549-0.397
			c0.411-0.869,0.596-2.205,1.27-2.53c3.583-1.73,6.83-4.588,11.311-3.705c0.726,0.144,1.739-0.032,2.314-0.466
			c2.225-1.678,4.684-2.981,6.113-5.736c0.77-1.485,2.881-2.457,4.582-3.229c2.03-0.92,4.27-1.381,6.418-2.037
			c6.614-2.023,12.289-0.448,17.207,4.353c1.121,1.094,2.556,1.865,3.845,2.785c0.194-0.209,0.389-0.419,0.582-0.629
			c-0.492-0.68-0.878-1.484-1.498-2.016c-1.833-1.575-3.74-3.066-5.654-4.545c-2.558-1.977-5.337-3.063-8.632-2.058
			c-0.436,0.134-1.003,0.042-1.452-0.111c-3.704-1.264-7.09-0.09-10.377,1.427c-3.129,1.443-6.716,2.018-8.178,6.134
			c-1.073,3.021-2.669,3.042-5.188,1.113c-1.784-1.366-3.655-2.549-6.479-2.385c1.658,2.337,5.216,1.457,5.675,4.626
			c-1.724,0.347-3.355,0.499-4.858,1.021c-1.942,0.676-3.71,1.928-5.681,2.431c-3.973,1.013-7.451,2.816-10.592,5.399
			c-0.612,0.504-1.404,0.99-2.162,1.081c-3.556,0.426-7.299,1.556-10.662,0.878c-8.285-1.67-16.374,2.216-24.56,0.273
			c-0.299-0.071-0.675,0.033-0.978,0.152c-4.198,1.672-8.145,1.363-11.16-1.224c-1.545,0.912-2.697,2.166-3.857,2.174
			c-3.906,0.027-7.83-0.259-11.717-0.686c-2.262-0.248-4.469-0.993-6.667-1.507c0.195-1.589,0.334-2.73,0.411-3.354
			c1.268-0.158,2.833,0.099,3.266-0.485c1.7-2.293,3.043-4.849,4.703-7.614c-1.095,0-1.565,0-2.386,0
			c2.207-1.844,4.243-1.563,6.399-0.89c3.769,1.178,7.516,2.799,11.378,3.186c2.854,0.286,6.075-0.632,8.786-1.811
			c9.391-4.082,19.163-5.279,29.259-4.739c1.75,0.095,3.521,0.368,5.247,0.202c2.454-0.236,4.904-0.69,7.293-1.299
			c0.723-0.185,1.236-1.189,1.846-1.818c-0.148-0.207-0.297-0.415-0.445-0.622c-1.181,0.387-2.361,0.773-4.29,1.405
			c2.81-3.347,6-5.778,5.262-10.11c-0.985-0.212-1.905-0.409-2.857-0.614c0.985-2.833,2.074-5.359,2.734-7.992
			c1.432-5.706,1.017-6.62-3.854-9.811c-2.523-1.651-5.066-3.191-8.35-1.904c-0.808,0.316-1.916-0.062-2.871-0.211
			c-6.491-1.01-12.828-3.861-19.607-1.427c-0.983,0.354-2.241-0.06-3.373-0.117c-0.014-0.259-0.027-0.518-0.04-0.775
			c0.912-0.296,1.818-0.61,2.738-0.881c0.798-0.235,1.722-0.255,2.377-0.691c0.432-0.288,0.487-1.143,0.712-1.744
			c-0.575-0.109-1.42-0.518-1.684-0.281c-2.639,2.371-5.765,1.144-8.642,1.135c-3.189-0.01-3.738-1.387-2.085-4.129
			c1.077-1.787,2.113-3.6,3.168-5.401c-0.281-0.215-0.563-0.431-0.846-0.646c-1.459,1.523-2.919,3.046-4.379,4.569
			c-0.268-0.167-0.534-0.336-0.801-0.504c0.371-1.027,0.459-2.353,1.165-3.029c2.62-2.511,5.3-5.007,8.238-7.118
			c2.245-1.613,4.329-3.056,4.602-6.085c0.064-0.713,0.384-1.529,0.859-2.045c0.476-0.515,1.295-0.712,1.963-1.049
			c0.058,0.646,0.095,1.293,0.176,1.935c0.103,0.813,0.24,1.622,0.362,2.433c0.407,0.002,0.813,0.005,1.221,0.007
			c0.221-1.455,0.428-2.913,0.67-4.365c0.127-0.766,0.06-1.765,0.516-2.242c5.57-5.83,11.676-11.021,19.247-14.052
			c5.773-2.311,11.913-2.213,18.018-1.843c3.179,0.192,6.234,0.625,7.61,4.211c0.154,0.403,1.12,0.668,1.725,0.7
			c6.25,0.331,11.309,3.082,15.693,7.397c0.821,0.808,2.069,1.217,3.17,1.699c2.788,1.222,5.885,1.973,8.338,3.665
			c3.285,2.266,6.032,5.298,9.104,7.889c1.446,1.22,3.119,2.171,4.679,3.258c0.384,0.268,0.932,0.522,1.061,0.899
			c1.272,3.715,4.532,5.637,7.253,8.003c0.958,0.833,2.702,0.862,3.489,1.775c3.269,3.789,6.384,7.72,9.383,11.727
			c0.803,1.072,1.351,2.587,1.404,3.923c0.188,4.722,1.474,8.986,4.196,12.876c0.612,0.875,0.85,2.148,0.901,3.254
			c0.196,4.213,0.05,8.45,0.403,12.646c0.359,4.251,0.901,8.406-0.48,12.63c-0.391,1.189,0.411,2.837,0.894,4.194
			c0.115,0.325,1.14,0.327,1.745,0.479c0.097-0.506,0.454-1.243,0.245-1.479c-1.257-1.425-0.492-2.74-0.112-4.198
			c0.457-1.756,0.835-3.607,0.783-5.405c-0.136-4.666-0.807-9.329-0.729-13.984c0.066-3.958,0.813-7.872-2.061-11.266
			c-0.445-0.526-0.486-1.402-0.699-2.121c-2.508-8.515-4.97-17.042-7.533-25.54c-2.101-6.957-2.927-14.032-2.142-21.257
			c0.194-1.789-0.373-2.939-1.645-3.796c-2.585,1.258,0.836,5.376-3.224,5.604c0,0.938,0,1.743,0,2.78
			c-0.895-0.21-1.626-0.381-2.358-0.552c0.264-0.114,0.527-0.228,0.791-0.341c0-0.758,0.322-1.799-0.054-2.228
			c-2.042-2.328-3.955-4.975-6.495-6.602c-2.533-1.621-4.059-5.228-7.969-4.572c-0.411,0.069-1.163-0.699-1.446-1.241
			c-1.936-3.718-3.957-7.407-5.61-11.252c-1.1-2.559-1.416-2.875-3.987-1.113c-0.362-1.112-0.689-2.12-1.039-3.194
			c-2.164,0.142-2.096,1.341-1.399,2.737c1.317,2.643,1.511,5.67,0.081,7.898c-2.272,3.542-2.063,7.044-1.515,10.782
			c0.072,0.492,0.01,1.004,0.01,1.507c-0.304,0.075-0.608,0.15-0.912,0.226c-1.149-3.243-2.593-6.421-3.356-9.753
			c-0.627-2.732-1.888-4.732-4.086-6.295c-3.875-2.755-7.811-5.433-11.576-8.33c-1.608-1.236-3.237-2.739-4.17-4.487
			c-1.194-2.239-2.833-3.642-5.054-4.539c-1.467-0.592-2.938-1.284-4.475-1.568c-4.761-0.879-6.527-5.106-8.258-8.458
			c-1.954-3.786-2.165-8.463-3.2-12.736c-0.214-0.881-0.718-1.691-1.089-2.535c-0.256,0.105-0.512,0.21-0.769,0.315
			c-1.29,6.725,2.695,13.052,1.938,20.34c-2.414-1.401-4.343-2.671-6.401-3.679c-2.521-1.234-5.067-2.565-7.757-3.256
			c-2.052-0.528-2.928-1.268-3.146-3.387c-0.297-2.883-0.534-5.89-2.274-7.581c0.199-2.584,0.362-4.7,0.525-6.816
			c-0.3-0.174-0.6-0.348-0.899-0.521c-0.917,0.902-2.225,1.648-2.659,2.742c-0.658,1.655-0.88,3.543-0.977,5.349
			c-0.149,2.804-0.039,5.622-0.039,8.488c-4.405,0.59-8.17-0.308-11.304-3.203c-0.526-0.486-0.962-1.552-0.813-2.208
			c0.923-4.061,1.979-8.093,3.106-12.103c0.223-0.792,0.792-1.791,1.472-2.096c2.068-0.928,3.094-2.598,4.106-4.469
			c0.984-1.817,2.315-3.444,3.447-5.185c0.391-0.602,0.687-1.276,0.945-1.949c1.748-4.545,1.286-9.327,1.653-14.04
			c0.273-3.511,1.368-6.996,2.423-10.391c0.521-1.679,1.773-3.146,3.844-1.758c-0.963,2.115-2.237,4.042-2.707,6.149
			c-0.791,3.542-1.086,7.197-1.551,10.81c-0.084,0.647-0.012,1.32,0.034,1.978c0.15,2.145,0.557,4.301,0.439,6.429
			c-0.328,5.991-1.129,11.97,0.557,17.904c0.313,1.101,0.443,2.329,0.324,3.462c-0.252,2.398,1.062,3.604,3.454,4.935
			c0-3.107,0.171-5.782-0.067-8.421c-0.134-1.491-0.539-3.334-1.527-4.293c-2.116-2.052-1.373-4.132-0.746-6.517
			c0.999,0.725,1.852,1.552,2.275,2.56c0.642,1.522,0.51,3.665,1.552,4.662c2.127,2.036,1.949,4.519,2.44,6.946
			c0.219,1.083,0.833,2.086,1.268,3.126c0.349-0.04,0.697-0.079,1.046-0.119c0.19-0.958,0.67-1.968,0.513-2.866
			c-0.335-1.903,0.384-3.095,1.699-4.378c0.844-0.825,1.362-2.204,1.565-3.412c0.321-1.909-0.628-3.445-1.543-5.206
			c-1.689-3.251-2.309-7.044-3.55-10.549c-0.415-1.173-1.367-2.155-2.074-3.225c-0.628-3.412-0.982-7.144-1.075-10.884
			c-0.063-2.564,0.128-5.151,0.451-7.697c0.082-0.646,1.104-1.683,1.688-1.679c6.996,0.053,13.99,0.286,20.985,0.421
			c0.871,0.017,1.781-0.146,2.614-0.411c2.779-0.886,5.684,0.859,6.123,3.738c0.099,0.648,0.156,1.319,0.377,1.928
			c1.711,4.734,3.459,9.455,5.193,14.179c0.88,2.398,1.756,4.798,2.634,7.198c0.158-0.234,0.315-0.468,0.474-0.702
			c1.181,0.215,2.411,0.288,3.533,0.675c2.421,0.834,4.731,2.376,7.188,2.623c3.203,0.321,6.176,1.072,8.575,3.001
			c5.248,4.221,10.295,8.697,15.339,13.165c2.27,2.009,4.531,3.941,5.232,7.319c0.389,1.87,2.188,3.464,3.41,5.139
			c0.785,1.076,1.783,2.004,2.506,3.115c1.732,2.661,1.626,5.358-0.224,7.81c-0.63-0.979-1.242-1.932-1.853-2.879
			c-2.804,1.712-2.804,1.712-1.123,14.066c3.207,0.42,3.834,3.026,4.399,5.598c0.389,1.764,0.908,2.88,3.132,3.028
			c1.402,0.094,3.172,1.13,4,2.295c3.593,5.059,9.646,4.825,14.652,7.349C406.234,255.281,406.613,254.222,406.993,253.163z
			 M367.473,231.659c-0.633-0.957-1.112-1.958-1.843-2.715c-0.864-0.896-1.872-2.115-2.947-2.264
			c-3.903-0.543-5.798-3.084-7.348-6.282c-4.941-10.203-9.937-20.381-14.963-30.543c-0.263-0.531-0.992-0.832-1.504-1.24
			c-0.138,0.669-0.581,1.47-0.36,1.986c1.237,2.895,2.525,5.778,4.004,8.555c2.229,4.183,4.773,8.199,6.916,12.423
			c2.214,4.366,4.172,8.867,6.111,13.365c0.78,1.811,1.673,3.771,1.678,5.666c0.006,2.013,0.724,3.278,2.077,4.464
			c1.304,1.143,2.599,3.269,3.883,3.258c2.68-0.023,4.82,1.249,7.199,1.685c2.494,0.457,2.922,1.927,3.664,3.687
			c1.165,2.76,2.46,5.466,3.788,8.152c0.186,0.376,0.871,0.504,1.898,1.054c-0.378-1.528-0.605-2.458-0.838-3.387
			c-0.301-1.199-0.744-2.381-0.881-3.597c-0.424-3.75,1.39-7.491-0.031-11.29c-0.705-1.886-0.921-3.952-1.582-5.859
			c-0.457-1.316-1.823-2.483-1.864-3.746c-0.112-3.477-2.582-5.173-4.603-7.331c-0.914-0.977-1.234-2.496-2.108-3.529
			c-0.694-0.82-1.794-1.324-2.782-1.837c-0.15-0.079-0.829,0.479-0.988,0.858c-0.844,2.017,0.813,4.775,2.933,5.32
			c0.841,0.217,2.04,0.851,2.221,1.524C370.266,224.002,371.862,228.136,367.473,231.659z M392.162,269.777
			c0.674,6.561,1.172,12.765,2.092,18.905c0.135,0.902,2.263,1.507,3.47,2.249c0.419-0.896,1.243-1.821,1.182-2.683
			c-0.171-2.362-0.732-4.693-1.096-7.044c-0.09-0.582-0.013-1.189-0.013-1.352c1.222,0.088,2.766,0.578,3.099,0.143
			c0.663-0.869,0.662-2.245,0.868-3.127c1.06,0.27,2.421,1.03,2.94,0.647c0.734-0.54,1.332-2.049,1.11-2.919
			c-0.315-1.234-1.225-2.899-2.251-3.231c-1.533-0.495-3.391,0.01-5.319,0.1c0,0.98,0,2.053,0,3.169
			C395.492,273.947,396.274,269.642,392.162,269.777z M171.35,354.454c-0.017-0.286-0.034-0.572-0.051-0.858
			c-4.166-0.208-8.333-0.61-12.495-0.557c-2.837,0.037-5.656,0.95-8.499,1.055c-6.403,0.234-12.818,0.163-19.225,0.338
			c-1.077,0.029-2.138,0.667-3.206,1.023c0.082,0.411,0.164,0.821,0.246,1.231c8.567,0,17.135,0.065,25.7-0.08
			c1.097-0.019,2.174-1.132,3.261-1.737c0.674-0.375,1.348-0.749,2.2-1.224c-0.162,3.332,0.773,3.966,3.595,3.059
			c1.956-0.629,3.981-1.042,5.973-1.561C169.686,354.926,170.516,354.685,171.35,354.454z M307.23,256.266
			c4.584-1.955,9.152-2.484,13.78-0.833c0.034,0.245,0.067,0.489,0.102,0.734c-3.23,0.545-6.462,1.09-10.2,1.721
			c1.585,0.725,2.861,1.126,3.918,1.849c0.861,0.589,1.46,1.562,2.174,2.364c-0.125,0.183-0.25,0.364-0.376,0.546
			c0.709-0.037,1.418-0.074,1.871-0.098c0.866,1.717,1.744,3.223,2.387,4.822c0.351,0.872,0.577,1.966,0.38,2.853
			c-0.543,2.424-0.442,4.698,0.486,6.921c0.236,0.028,0.474,0.057,0.71,0.085c0.672-3.291,1.343-6.581,2.05-10.047
			c-0.863,0-1.657,0-3.019,0c0.462-1.576,0.816-2.871,1.222-4.151c0.416-1.315,1.606-2.733-0.396-3.63
			c-0.836,0.944-1.575,1.779-2.682,3.028c-0.285-4.249,0.507-5.332,3.337-5.185c-0.13-0.922-0.026-1.948-0.447-2.667
			c-0.398-0.677-1.297-1.331-2.065-1.462c-1.503-0.256-3.077-0.049-4.606-0.197C312.476,252.592,309.53,253.335,307.23,256.266z
			 M329.863,311.443c1.699-1.762,2.89-3.085,4.177-4.306c1.285-1.218,3.379-1.775,3.414-4.954c-1.986,1.548-3.591,2.545-4.87,3.858
			c-1.809,1.855-3.657,2.336-5.616,0.563c-2.004-1.813-4.407-1.688-6.775-1.759c-0.749-0.022-1.512,0.45-2.907,0.903
			C322.426,307.198,327.083,307.751,329.863,311.443z M391.452,340.397c0.172-0.096,0.344-0.191,0.517-0.287
			c0.317-2.239,0.639-4.478,0.944-6.718c0.02-0.148-0.088-0.313-0.132-0.472c-0.777-2.784-1.44-5.607-2.379-8.336
			c-0.474-1.377-1.444-2.583-2.329-4.104c-0.209,2.572-0.392,4.461-0.49,6.353c-0.02,0.376,0.237,0.797,0.449,1.146
			c1.739,2.864,2.368,5.97,2.345,9.304C390.37,338.319,391.074,339.359,391.452,340.397z M280.351,277.262
			c1.835-1.488,3.799-2.513,6.854-0.328c-0.563-1.81-0.897-2.877-1.407-4.509c-2.627,3.182-4.345,0.303-6.224-0.52
			c-0.079,1.367,0.242,2.754-0.308,3.41c-0.584,0.696-1.995,0.699-3.045,1.004c-0.11,0.333-0.22,0.667-0.33,1
			c5.123-2.052,2.141,3.476,4.729,3.645c-1.393,3.027-1.163,3.663,1.265,4.198c0.187-1.379,0.703-2.819,0.466-4.122
			C282.119,279.77,281.118,278.64,280.351,277.262z M242.398,347.219c3.054-1.013,5.119-2.38,4.532-6.154
			c-0.149-0.962,1.794-2.389,2.981-3.348c0.468-0.378,1.499-0.062,2.512-0.062c-1.739-1.513-3.721-1.395-5.918,0.124
			C243.775,339.665,241.462,344.854,242.398,347.219z M347.139,293.414c0.503,2.412,0.838,4.346,1.359,6.227
			c0.095,0.343,0.961,0.693,1.451,0.668c2.377-0.123,3.09-1.954,3.643-3.845c0.538-1.842,0.163-3.396-1.581-4.933
			c-0.104,1.248-0.165,1.972-0.226,2.704C350.3,293.973,348.943,293.732,347.139,293.414z M311.323,293.742
			c4.149,0.999,7.976-1.691,12.165-8.092c0.974-1.486,1.937-3.092,0.109-5.38C321.644,286.808,317.087,290.622,311.323,293.742z
			 M390.365,341.652c-1.036,3.519-2.043,6.94-3.078,10.457c2.562-0.046,3.136-0.52,3.861-2.923
			C392.515,344.667,392.401,343.116,390.365,341.652z M263.279,339.393c2.767,3.887,7.17,5.775,9.737,4.026
			c-2.524-2.002-7.008-1.405-7.277-5.983C264.739,338.23,264.071,338.762,263.279,339.393z M355.646,342.119
			c0.151,0.157,0.302,0.314,0.454,0.471c1.958-0.285,3.916-0.569,6.309-0.918c-0.114-0.816,0.085-2.242-0.487-2.697
			c-0.598-0.476-2.138-0.349-2.909,0.111C357.739,339.844,356.753,341.083,355.646,342.119z M376.768,354.733
			c3.763-2.835,4.732-6.979,2.721-9.701C378.565,348.323,377.666,351.528,376.768,354.733z M313.141,273.532
			c-3.07,0.735-2.84,3.171-3.065,5.144c-0.103,0.89,0.555,1.867,0.866,2.805c0.27-0.082,0.538-0.163,0.807-0.245
			C312.186,278.813,312.624,276.393,313.141,273.532z M365.702,314.505c-0.107,2.263-0.213,4.525-0.332,7.058
			C368.286,320.132,368.629,316.436,365.702,314.505z M287.186,282.922c-2.006-5.258-2.006-5.258-3.821-4.762
			C284.762,283.038,284.987,283.337,287.186,282.922z M318.015,329.046c-0.918-1.433-1.522-2.375-2.561-3.993
			c-0.845,1.973-1.364,3.187-1.885,4.4c0.194,0.168,0.39,0.336,0.585,0.504C315.228,329.703,316.301,329.45,318.015,329.046z
			 M383.168,356.215c2.5-1.574,2.592-3.18,0.392-5.376C383.429,352.631,383.299,354.423,383.168,356.215z M285.549,294.061
			c0.147-0.178,0.296-0.355,0.444-0.533c-0.608-0.54-1.193-1.493-1.831-1.529c-1.086-0.063-2.205,0.451-3.312,0.724
			c0.071,0.234,0.143,0.469,0.214,0.704C282.56,293.637,284.054,293.849,285.549,294.061z M309.706,262.896
			c0.24-0.217,0.481-0.435,0.721-0.651c-0.519-1.299-1.036-2.597-1.555-3.896c-0.231-0.011-0.464-0.021-0.695-0.032
			c-0.269,0.642-0.936,1.5-0.728,1.882C307.999,261.208,308.928,262.011,309.706,262.896z M333.451,321.095
			c-1.086-0.617-1.69-1.241-2.177-1.159c-0.507,0.086-1.273,0.875-1.246,1.314c0.033,0.528,0.813,1.441,1.216,1.414
			C331.842,322.622,332.392,321.899,333.451,321.095z M340.059,304.247c0.813-1.118,1.443-1.805,1.822-2.608
			c0.114-0.243-0.463-0.813-0.724-1.231c-0.712,0.677-1.485,1.306-2.085,2.071C338.956,302.627,339.519,303.307,340.059,304.247z
			 M352.769,280.739c-0.433,0.273-0.864,0.548-1.296,0.82c0.609,0.867,1.219,1.734,1.829,2.601c0.324-0.293,0.976-0.734,0.921-0.854
			C353.817,282.414,353.271,281.587,352.769,280.739z M364.28,321.425c-0.947-0.74-1.675-1.588-1.944-1.462
			c-0.614,0.288-1.005,1.055-1.486,1.627c0.452,0.336,0.918,0.958,1.352,0.938C362.773,322.5,363.321,321.967,364.28,321.425z"/>
		<path fill-rule="evenodd" clip-rule="evenodd" d="M406.993,253.163c-0.38,1.059-0.759,2.118-1.184,3.304
			c-5.006-2.523-11.06-2.29-14.652-7.349c-0.828-1.165-2.598-2.201-4-2.295c-2.224-0.148-2.743-1.264-3.132-3.028
			c-0.565-2.571-1.192-5.177-4.399-5.598c-1.681-12.354-1.681-12.354,1.123-14.066c0.61,0.947,1.223,1.9,1.853,2.879
			c1.85-2.452,1.956-5.149,0.224-7.81c-0.723-1.111-1.721-2.04-2.506-3.115c-1.223-1.674-3.021-3.269-3.41-5.139
			c-0.701-3.378-2.963-5.31-5.232-7.319c-5.044-4.468-10.091-8.943-15.339-13.165c-2.399-1.929-5.372-2.68-8.575-3.001
			c-2.456-0.247-4.767-1.789-7.188-2.623c-1.122-0.387-2.353-0.459-3.533-0.675c-0.158,0.234-0.315,0.468-0.474,0.702
			c-0.878-2.4-1.754-4.8-2.634-7.198c-1.734-4.725-3.482-9.445-5.193-14.179c-0.221-0.608-0.278-1.28-0.377-1.928
			c-0.439-2.879-3.344-4.624-6.123-3.738c-0.833,0.265-1.743,0.428-2.614,0.411c-6.995-0.136-13.989-0.368-20.985-0.421
			c-0.584-0.004-1.606,1.032-1.688,1.679c-0.323,2.546-0.515,5.133-0.451,7.697c0.093,3.74,0.447,7.472,1.075,10.884
			c0.707,1.069,1.659,2.052,2.074,3.225c1.241,3.505,1.86,7.298,3.55,10.549c0.915,1.76,1.864,3.296,1.543,5.206
			c-0.203,1.208-0.722,2.587-1.565,3.412c-1.315,1.283-2.034,2.475-1.699,4.378c0.157,0.897-0.322,1.907-0.513,2.866
			c-0.349,0.04-0.697,0.079-1.046,0.119c-0.435-1.04-1.049-2.042-1.268-3.126c-0.491-2.428-0.313-4.91-2.44-6.946
			c-1.042-0.997-0.91-3.139-1.552-4.662c-0.424-1.007-1.276-1.834-2.275-2.56c-0.627,2.384-1.37,4.464,0.746,6.517
			c0.988,0.958,1.394,2.802,1.527,4.293c0.238,2.639,0.067,5.314,0.067,8.421c-2.393-1.332-3.706-2.537-3.454-4.935
			c0.119-1.133-0.012-2.361-0.324-3.462c-1.686-5.935-0.885-11.914-0.557-17.904c0.117-2.128-0.289-4.285-0.439-6.429
			c-0.046-0.658-0.118-1.33-0.034-1.978c0.465-3.613,0.76-7.267,1.551-10.81c0.47-2.107,1.744-4.034,2.707-6.149
			c-2.07-1.388-3.322,0.079-3.844,1.758c-1.055,3.395-2.149,6.88-2.423,10.391c-0.367,4.713,0.095,9.495-1.653,14.04
			c-0.259,0.672-0.555,1.347-0.945,1.949c-1.132,1.741-2.463,3.368-3.447,5.185c-1.013,1.871-2.038,3.541-4.106,4.469
			c-0.68,0.305-1.249,1.303-1.472,2.096c-1.127,4.009-2.184,8.042-3.106,12.103c-0.149,0.656,0.286,1.722,0.813,2.208
			c3.134,2.895,6.898,3.793,11.304,3.203c0-2.866-0.11-5.685,0.039-8.488c0.097-1.806,0.318-3.694,0.977-5.349
			c0.435-1.094,1.742-1.84,2.659-2.742c0.3,0.173,0.6,0.347,0.899,0.521c-0.163,2.116-0.326,4.232-0.525,6.816
			c1.74,1.691,1.978,4.698,2.274,7.581c0.219,2.12,1.095,2.859,3.146,3.387c2.689,0.691,5.236,2.022,7.757,3.256
			c2.059,1.007,3.987,2.278,6.401,3.679c0.758-7.288-3.228-13.615-1.938-20.34c0.257-0.105,0.513-0.21,0.769-0.315
			c0.371,0.843,0.875,1.654,1.089,2.535c1.035,4.273,1.246,8.951,3.2,12.736c1.73,3.352,3.497,7.579,8.258,8.458
			c1.537,0.284,3.008,0.976,4.475,1.568c2.221,0.896,3.859,2.3,5.054,4.539c0.933,1.748,2.562,3.25,4.17,4.487
			c3.766,2.897,7.701,5.574,11.576,8.33c2.198,1.563,3.459,3.563,4.086,6.295c0.764,3.333,2.207,6.51,3.356,9.753
			c0.304-0.075,0.608-0.15,0.912-0.226c0-0.503,0.063-1.015-0.01-1.507c-0.549-3.738-0.758-7.24,1.515-10.782
			c1.43-2.229,1.236-5.255-0.081-7.898c-0.696-1.396-0.765-2.595,1.399-2.737c0.35,1.074,0.677,2.082,1.039,3.194
			c2.571-1.763,2.888-1.446,3.987,1.113c1.653,3.845,3.675,7.534,5.61,11.252c0.283,0.542,1.035,1.31,1.446,1.241
			c3.91-0.656,5.436,2.951,7.969,4.572c2.54,1.627,4.453,4.273,6.495,6.602c0.376,0.429,0.054,1.47,0.054,2.228
			c-0.264,0.113-0.527,0.227-0.791,0.341c0.732,0.171,1.464,0.342,2.358,0.552c0-1.037,0-1.842,0-2.78
			c4.06-0.229,0.639-4.347,3.224-5.604c1.271,0.856,1.839,2.007,1.645,3.796c-0.785,7.225,0.041,14.3,2.142,21.257
			c2.563,8.498,5.025,17.025,7.533,25.54c0.213,0.719,0.254,1.595,0.699,2.121c2.874,3.394,2.127,7.308,2.061,11.266
			c-0.078,4.655,0.593,9.318,0.729,13.984c0.052,1.798-0.326,3.649-0.783,5.405c-0.38,1.458-1.145,2.773,0.112,4.198
			c0.209,0.236-0.148,0.974-0.245,1.479c-0.605-0.151-1.63-0.153-1.745-0.479c-0.482-1.357-1.284-3.005-0.894-4.194
			c1.382-4.224,0.84-8.379,0.48-12.63c-0.354-4.195-0.207-8.433-0.403-12.646c-0.052-1.105-0.289-2.379-0.901-3.254
			c-2.723-3.89-4.009-8.154-4.196-12.876c-0.054-1.336-0.602-2.851-1.404-3.923c-2.999-4.007-6.114-7.938-9.383-11.727
			c-0.787-0.913-2.531-0.942-3.489-1.775c-2.721-2.366-5.98-4.288-7.253-8.003c-0.129-0.377-0.677-0.632-1.061-0.899
			c-1.56-1.087-3.232-2.038-4.679-3.258c-3.072-2.591-5.819-5.623-9.104-7.889c-2.453-1.692-5.55-2.443-8.338-3.665
			c-1.101-0.482-2.349-0.892-3.17-1.699c-4.385-4.315-9.443-7.067-15.693-7.397c-0.604-0.032-1.57-0.297-1.725-0.7
			c-1.376-3.587-4.432-4.019-7.61-4.211c-6.104-0.37-12.244-0.468-18.018,1.843c-7.571,3.03-13.677,8.222-19.247,14.052
			c-0.456,0.478-0.389,1.477-0.516,2.242c-0.242,1.452-0.449,2.91-0.67,4.365c-0.407-0.002-0.813-0.005-1.221-0.007
			c-0.122-0.811-0.26-1.619-0.362-2.433c-0.081-0.642-0.118-1.289-0.176-1.935c-0.668,0.337-1.487,0.534-1.963,1.049
			c-0.476,0.516-0.795,1.332-0.859,2.045c-0.272,3.029-2.356,4.472-4.602,6.085c-2.938,2.111-5.618,4.607-8.238,7.118
			c-0.706,0.677-0.794,2.002-1.165,3.029c0.267,0.168,0.533,0.337,0.801,0.504c1.46-1.523,2.92-3.046,4.379-4.569
			c0.282,0.215,0.564,0.431,0.846,0.646c-1.055,1.802-2.091,3.614-3.168,5.401c-1.653,2.742-1.104,4.119,2.085,4.129
			c2.877,0.009,6.003,1.236,8.642-1.135c0.264-0.236,1.108,0.172,1.684,0.281c-0.225,0.602-0.28,1.456-0.712,1.744
			c-0.655,0.437-1.579,0.456-2.377,0.691c-0.92,0.271-1.826,0.585-2.738,0.881c0.013,0.258,0.026,0.517,0.04,0.775
			c1.132,0.058,2.39,0.471,3.373,0.117c6.779-2.435,13.116,0.417,19.607,1.427c0.955,0.149,2.063,0.527,2.871,0.211
			c3.283-1.287,5.826,0.253,8.35,1.904c4.871,3.19,5.286,4.104,3.854,9.811c-0.66,2.633-1.749,5.159-2.734,7.992
			c0.952,0.205,1.872,0.402,2.857,0.614c0.738,4.332-2.452,6.764-5.262,10.11c1.929-0.632,3.109-1.019,4.29-1.405
			c0.148,0.207,0.297,0.415,0.445,0.622c-0.609,0.629-1.123,1.634-1.846,1.818c-2.389,0.608-4.839,1.063-7.293,1.299
			c-1.727,0.166-3.497-0.107-5.247-0.202c-10.096-0.54-19.868,0.657-29.259,4.739c-2.711,1.179-5.932,2.097-8.786,1.811
			c-3.862-0.387-7.609-2.008-11.378-3.186c-2.156-0.674-4.192-0.954-6.399,0.89c0.821,0,1.292,0,2.386,0
			c-1.659,2.766-3.002,5.321-4.703,7.614c-0.433,0.584-1.998,0.327-3.266,0.485c-0.076,0.624-0.216,1.766-0.411,3.354
			c2.197,0.514,4.405,1.259,6.667,1.507c3.888,0.427,7.812,0.713,11.717,0.686c1.161-0.008,2.313-1.262,3.857-2.174
			c3.016,2.587,6.962,2.896,11.16,1.224c0.303-0.119,0.679-0.224,0.978-0.152c8.186,1.942,16.274-1.943,24.56-0.273
			c3.363,0.678,7.106-0.452,10.662-0.878c0.758-0.091,1.55-0.577,2.162-1.081c3.141-2.583,6.619-4.387,10.592-5.399
			c1.971-0.503,3.738-1.755,5.681-2.431c1.503-0.522,3.135-0.675,4.858-1.021c-0.459-3.169-4.017-2.289-5.675-4.626
			c2.823-0.164,4.694,1.019,6.479,2.385c2.519,1.929,4.114,1.907,5.188-1.113c1.462-4.116,5.049-4.69,8.178-6.134
			c3.287-1.517,6.673-2.69,10.377-1.427c0.449,0.153,1.017,0.245,1.452,0.111c3.295-1.006,6.074,0.081,8.632,2.058
			c1.914,1.479,3.821,2.97,5.654,4.545c0.62,0.531,1.006,1.336,1.498,2.016c-0.193,0.21-0.388,0.42-0.582,0.629
			c-1.289-0.92-2.724-1.691-3.845-2.785c-4.918-4.801-10.593-6.376-17.207-4.353c-2.148,0.656-4.388,1.117-6.418,2.037
			c-1.701,0.772-3.813,1.744-4.582,3.229c-1.43,2.755-3.889,4.059-6.113,5.736c-0.575,0.434-1.589,0.609-2.314,0.466
			c-4.48-0.883-7.728,1.975-11.311,3.705c-0.674,0.325-0.858,1.661-1.27,2.53c0.184,0.132,0.366,0.265,0.549,0.397
			c1.021-0.372,2.041-0.743,3.061-1.115c0.122,0.157,0.243,0.313,0.365,0.471c-0.995,0.929-1.989,1.857-2.986,2.788
			c2.006,2.081,2.63,1.979,4.633-0.776c1.49,1.438,2.687,0.881,4.194-0.306c1.613-1.27,3.66-1.987,5.518-2.945
			c0.153,0.24,0.307,0.481,0.46,0.722c-2.656,2.105-5.313,4.211-7.968,6.315c0.196,0.367,0.393,0.733,0.589,1.099
			c1.174-0.457,2.403-0.812,3.5-1.409c0.702-0.382,1.123-1.271,1.818-1.677c1.596-0.929,2.695-0.175,2.768,1.664
			c0.031,0.801,0.354,1.592,0.545,2.386c1.057-0.335,2.418-0.375,3.098-1.075c1.004-1.033,1.542-2.527,2.243-3.843
			c0.575-1.082,1.101-2.19,1.639-3.268c1.843,0.532,1.92,1.532,1.176,2.734c-0.613,0.99-1.403,1.873-1.991,2.876
			c-0.57,0.974-1.011,2.362,0.46,2.644c1.153,0.221,2.591-0.305,3.69-0.895c0.509-0.271,0.511-1.486,0.898-2.805
			c1.269,1.037,2.327,1.763,3.215,2.658c1.928,1.942,3.118,1.974,6.766,0.436c2.049-0.864,1.342-2.371,1.245-3.798
			c-0.017-0.25-0.126-0.535-0.041-0.742c0.309-0.757,0.681-1.487,1.029-2.227c0.44,0.587,0.88,1.174,1.489,1.985
			c5.613,0.307,12.032-1.731,17.132,2.981c-0.266,0.108-0.53,0.218-0.796,0.326c-0.076,1.784-0.315,3.579-0.192,5.349
			c0.192,2.761-0.476,3.553-3.063,2.612c-2.872-1.043-5.664-2.352-8.379-3.759c-1.638-0.848-1.347-2.299-0.037-3.194
			c0.964-0.659,2.271-0.813,3.683-1.275c0.152,1.624,0.271,2.889,0.389,4.153c0.244,0.033,0.488,0.066,0.733,0.1
			c0.179-1.029,0.358-2.059,0.628-3.605c0.141-0.089,0.795-0.502,1.981-1.252c-1.421-0.342-2.357-0.826-3.227-0.727
			c-2.652,0.306-5.26,1.223-7.964,0.192c-0.163-0.063-0.92,0.727-0.935,1.137c-0.027,0.771,0.285,1.554,0.503,2.539
			c-3.627,1.928-7.449,2.509-11.537,1.729c-0.806-0.154-1.693,0.142-2.545,0.2c-0.662,0.045-1.331,0.096-1.991,0.051
			c-1.914-0.131-3.825-0.444-5.737-0.441c-5.066,0.007-10.038,0.157-14.727-2.601c-1.859-1.094-4.495-0.871-6.98-1.282
			c-0.238-2.315-2.191-2.275-4.056-2.127c-3.988,0.317-7.96,0.938-11.95,1.084c-3.218,0.117-6.453-0.305-9.684-0.438
			c-1.902-0.077-4.029-0.619-5.674,0.025c-4.952,1.939-9.956,1.497-15.057,1.372c-8.826-0.217-17.662,0.009-26.492-0.085
			c-6.501-0.069-13-0.359-19.5-0.53c-0.832-0.022-1.682-0.014-2.496,0.133c-5.963,1.077-11.912,2.238-17.885,3.257
			c-1.171,0.2-2.428-0.1-3.645-0.169l0.059,0.04c0.747-0.393,1.46-1.032,2.245-1.137c4.19-0.559,8.397-0.983,12.599-1.455
			c-0.013-0.202-0.026-0.404-0.039-0.606c-4.772,0-9.566,0.29-14.313-0.063c-8.636-0.643-17.192,0.755-25.794,0.578
			c-0.744-0.016-1.444-0.81-2.218-0.955c-1.288-0.243-3.487-0.779-3.791-0.277c-2.024,3.343-4.876,1.474-7.378,1.488
			c-1.34,0.007-2.699-0.578-4.02-0.484c-3.575,0.256-7.133,0.74-10.699,1.117c-2.316,0.245-2.317,0.232-3.934-2.495
			c5.155-0.388,10.07-0.875,14.997-1.086c3.413-0.146,6.802,0.563,10.042-1.558c1.206-0.789,3.377-0.394,5.042-0.127
			c3.117,0.5,5.358-0.783,6.334-3.795c0.271-0.835,0.949-1.586,1.572-2.251c1.471-1.572,3.047-3.045,4.533-4.604
			c1.773-1.859,3.5-3.764,5.238-5.659c0.273-0.298,0.674-0.626,0.711-0.974c0.412-3.796,3.13-6.381,5.008-9.369
			c1.028-1.637,2.711-2.87,4.135-4.248c1.37-1.326,2.801-2.588,4.18-3.905c2.584-2.468,5.156-4.947,7.721-7.435
			c5.061-4.905,10.209-9.726,15.13-14.768c2.451-2.512,3.603-5.591,1.926-9.159c-0.244-0.519-0.254-1.408,0.035-1.872
			c1.22-1.965,0.1-2.665-1.515-3.262c-4.015-1.485-7.54-0.206-10.876,1.945c-3.36,2.166-6.669,4.411-9.986,6.645
			c-0.404,0.271-0.761,0.646-1.06,1.035c-4.571,5.949-9.128,11.908-13.798,18.009c3.235,1.852-0.216,3.938-0.163,6.182
			c2.201,0.495,2.617-1.002,2.755-2.48c0.286-3.068,0.865-5.745,3.57-7.913c1.927-1.544,3.036-4.088,4.597-6.119
			c0.542-0.704,1.262-1.364,2.043-1.771c1.413-0.737,2.575,0.044,2.288,1.414c-0.509,2.427-0.458,5.199-2.861,6.9
			c-1.156,0.819-2.177,1.847-3.385,2.57c-2.462,1.475-4.193,3.225-4.62,6.339c-0.168,1.222-1.721,2.702-2.991,3.238
			c-3.648,1.542-6.299,3.939-8.125,7.41c-0.57,1.084-1.265,2.292-2.237,2.943c-4.905,3.283-9.548,7.5-14.978,9.342
			c-10.228,3.47-19.548,8.839-29.561,12.642c-7.158,2.719-14.513,4.917-21.771,7.373c-1.138,0.385-2.23,0.903-3.264,1.684
			c9.451,0.42,18.625-1.543,27.988-2.743c0.486,1.543,0.5,2.415-1.586,2.515c-2.25,0.107-4.46,0.944-6.712,1.092
			c-8.472,0.555-16.953,0.959-25.431,1.42c0-0.835,0-1.669,0-2.504c2.444-1.302,4.789-2.872,7.361-3.832
			c2.792-1.042,5.776-1.604,8.709-2.22c5.91-1.24,11.551-3.153,16.871-6.054c7.479-4.075,15.231-7.525,23.466-9.815
			c2.778-0.772,5.082-2.235,7.177-4.307c2.11-2.087,4.837-3.541,7.021-5.567c2.621-2.432,5.13-4.784,5.491-9.001
			c0.22-2.563,2.426-5.056,4.031-7.379c4.456-6.449,8.883-12.936,13.708-19.104c1.719-2.198,4.458-3.672,6.907-5.195
			c1.421-0.885,1.729-1.964,1.953-3.442c0.721-4.77,1.191-9.635,2.531-14.238c1.743-5.996,2.528-11.987,2.1-18.17
			c-0.43-6.22-1.176-12.433-1.283-18.657c-0.081-4.727,0.411-9.499,1.119-14.179c0.188-1.246,2.033-3.045,3.256-3.164
			c2.615-0.254,4.534-1.452,6.501-2.866c1.552-1.117,3.153-2.165,5.018-3.438c-0.229-0.799-0.435-1.838-0.818-2.806
			c-1.353-3.413-0.13-6.495,3.439-7.27c5.656-1.229,11.355-0.824,16.561,1.803c5.424,2.737,5.263,2.909,8.328-2.239
			c1.736-2.917,3.604-5.593,7.327-6.596c3.457-0.932,5.528-7.203,4.056-11.506c-1.69-4.94-0.734-9.654,0.796-14.384
			c0.316-0.98,0.441-2.023,0.626-2.897c2.177,0,4.661,0.01,7.146-0.002c4.423-0.023,8.849,0.022,13.267-0.146
			c1.227-0.047,2.429-0.749,3.642-1.15c1.002,0,2.004,0,3.005,0c0.98,0.377,1.954,1.063,2.941,1.084
			c7.838,0.164,15.68,0.212,23.521,0.272c6.131,0.047,12.208-0.692,18.397-0.352c8.363,0.46,16.792-0.277,25.192-0.493
			c0.33-0.008,0.662,0.09,0.994,0.098c8.91,0.196,17.819,0.391,26.73,0.568c0.407,0.008,0.817-0.229,1.226-0.226
			c3.206,0.029,6.42-0.011,9.612,0.23c0.587,0.044,1.546,1.261,1.556,1.949c0.218,14.681,0.353,29.364,0.442,44.047
			c0.08,13.014,0.076,26.027,0.143,39.041c0.006,0.977,0.279,1.952,0.428,2.928C406.993,246.818,406.993,249.991,406.993,253.163z
			 M215.407,254.006c3.744-5.401,3.317-11.688,6.692-16.717c2.945,2.988,2.415,6.156,1.88,9.151
			c-1.405,7.857-3.021,15.677-4.528,23.39c-1.305,0.548-2.756,1.157-4.593,1.929c-0.142-1.874-0.282-3.733-0.432-5.729
			c-2.731,3.045-4.021,6.259-3.011,10.128c6.492-0.858,10.872-3.936,11.277-9.923c0.062-0.908,0.385-1.797,0.486-2.705
			c0.678-6.128,1.301-12.262,2.027-18.384c0.083-0.696,0.601-1.406,1.08-1.972c0.655-0.773,1.466-1.415,2.21-2.112
			c-0.333-0.096-0.665-0.193-0.997-0.289c-0.426-0.897-1.225-1.819-1.165-2.683c0.05-0.73,1.094-1.393,2.058-2.497
			c0.431,1.536,0.649,2.313,0.868,3.091c1.109,0.533,2.173,1.225,2.622,2.201c0.523,1.136,0.507,2.521,0.772,4.072
			c1.06-0.396,1.83-0.644,2.567-0.966c2.699-1.179,3.769-0.725,4.02,2.23c0.195,2.296-0.154,4.641-0.287,6.962
			c-0.115,2.017-0.267,4.033-0.402,6.048c2.784-1.963,2.76-4.773,3.019-7.433c0.345-3.549-0.78-7.285,2.305-10.391
			c1.08-1.087,1.097-3.229,1.587-4.845c2.741-0.03,3.091-0.272,4.121-2.804c0.376-0.927,0.546-2.004,1.136-2.759
			c0.754-0.963,1.838-1.669,2.78-2.486c0.601,1.157,1.391,2.26,1.736,3.488c0.226,0.806-0.215,1.791-0.315,2.7
			c-0.122,1.104-0.198,2.212-0.357,4.051c4.844-4.276,9.126-8.057,13.559-11.971c1.271,2.274,0.262,3.573-0.812,4.488
			c-1.502,1.28-3.437,2.052-4.947,3.324c-2.75,2.317-5.751,4.52-7.881,7.347c-4.403,5.843-8.271,12.087-12.435,18.115
			c-0.94,1.36-1.99,2.808-3.332,3.697c-3.59,2.379-7.376,4.461-11.06,6.7c-0.878,0.535-1.66,1.227-2.486,1.847
			c0.047,0.3,0.094,0.6,0.141,0.899c2.14,0.181,4.28,0.361,6.369,0.537c-1.446,3.373-1.446,3.373,1.735,6.119
			c0.189,0.163,0.388,0.318,0.565,0.494c0.886,0.877,1,1.735-0.183,2.426c-1.964,1.146-1.442,2.225-0.281,3.762
			c1.518,2.012,3.375,4.191,3.772,6.522c0.603,3.532,2.519,6.369,3.686,9.571c0.095,0.261,0.602,0.371,0.837,0.506
			c0.438-1.228,0.822-2.304,1.207-3.379c0.319-0.009,0.639-0.017,0.958-0.024c1.616,4.982,3.233,9.964,4.87,15.01
			c0.617-0.551,1.242-1.11,1.985-1.774c2.745,3.855,2.86,8.199,3.622,12.333c0.08,0.435-0.559,1.302-1.021,1.439
			c-0.373,0.111-1.125-0.472-1.462-0.929c-0.875-1.182-1.614-2.465-2.699-4.165c-1.121,3.239,0.657,4.966,1.425,6.983
			c0.261,0.687-0.024,1.58-0.061,2.379c-0.831-0.374-2.085-0.523-2.421-1.159c-1.711-3.229-3.205-6.576-4.72-9.906
			c-0.225-0.495-0.12-1.132-0.231-1.69c-0.229-1.156-0.501-2.304-0.756-3.455c-0.189,0.069-0.377,0.139-0.566,0.209
			c-0.24,1.565-0.48,3.13-0.72,4.695c-0.248,0.075-0.495,0.15-0.743,0.225c-0.653-0.654-1.505-1.202-1.923-1.983
			c-1.128-2.105-2.003-4.345-3.107-6.464c-1.084-2.083-1.206-4.146-0.972-6.493c0.376-3.793,0.401-7.657,0.163-11.465
			c-0.171-2.733-1.124-5.355-4.151-6.791c-2.82,4.724-6.36,8.511-10.473,12.048c-7.245,6.23-13.958,13.105-20.616,19.979
			c-2.438,2.517-4.118,5.775-6.068,8.746c-0.32,0.488-0.545,1.405-0.303,1.839c2.206,3.945,0.919,7.77-0.199,11.632
			c-0.476,1.646-0.837,3.325-1.25,4.989c0.182,0.049,0.364,0.097,0.546,0.145c0.912-1.929,1.825-3.856,2.737-5.785
			c0.39,0.037,0.781,0.074,1.171,0.112c0.623,2.513,1.244,5.025,1.912,7.723c0.295,0.025,0.889,0.21,1.429,0.106
			c7.131-1.376,14.242,0.484,21.372,0.109c3.87-0.203,7.759-0.036,11.869-0.036c0.076-1.488,0.155-3.052,0.222-4.365
			c-1.344,0.134-2.282,0.228-3.22,0.32c0.206-1.114,0.179-2.343,0.657-3.324c2.492-5.117,7.635-7.017,12.203-9.457
			c1.284-0.686,3.617-0.476,4.979,0.247c4.655,2.47,9.534,2.633,14.594,2.49c2.468-0.069,3.803-1.121,4.229-3.328
			c0.474-2.447,0.613-4.958,1.029-7.419c0.291-1.727,0.8-3.417,1.212-5.124c0.332,0.001,0.664,0.003,0.996,0.004
			c0.349,1.222,0.82,2.425,1.017,3.67c0.312,1.979,0.919,3.073,3.016,1.616c0.24-0.168,0.612-0.146,0.945-0.218
			c0.403,1.174,0.777,2.262,1.152,3.35c0.16-0.049,0.32-0.098,0.479-0.146c-0.494-4.837-0.99-9.674-1.515-14.792
			c1.665,0,2.922,0,4.18,0c-0.176,0.158-0.352,0.317-0.527,0.477c1.016,2.02,1.813,4.194,3.105,6.019
			c1.486,2.1,2.383,4.107,1.741,6.729c-0.207,0.844,0.248,1.85,0.4,2.78c0.256-0.031,0.513-0.063,0.769-0.094
			c1.957-4.962,1.4-10.106,0.916-15.515c1.402,0.553,2.712,1.157,3.366,2.182c0.73,1.144,0.77,2.706,1.292,4.014
			c0.474,1.188,1.191,2.279,1.802,3.413c0.338-0.093,0.677-0.186,1.016-0.278c0.079-1.094,0.119-2.192,0.25-3.279
			c0.104-0.871,0.11-2.359,0.516-2.494c3.18-1.047,1.841-3.533,2.061-5.579c0.418-3.893-0.905-7.131-3.387-10.004
			c-0.367-0.426-0.753-1.079-1.205-1.15c-3.899-0.622-7.74-1.991-11.795-0.731c-1.406,0.436-2.964,0.455-4.459,0.512
			c-1.879,0.071-3.776,0.056-4.044-2.567c-0.036-0.355-0.636-0.93-0.979-0.934c-3.681-0.036-5.5-2.988-7.878-5.004
			c-2.143-1.817-2.053-3.535-0.092-5.532c1.511-1.538,2.859-3.242,4.423-4.721c1.477-1.397,3.021-2.795,4.748-3.839
			c2.8-1.693,5.486-3.145,5.99-6.986c0.222-1.689,1.529-3.515,2.854-4.717c1.936-1.756,4.372-2.946,6.52-4.483
			c4.738-3.392,9.379-6.919,14.154-10.257c3.707-2.589,8.177-2.815,12.432-3.061c3.854-0.222,7.798,0.283,11.633,0.899
			c2.286,0.367,4.509,1.417,6.633,2.429c2.844,1.355,5.563,2.973,8.337,4.474c2.393,1.294,4.819,2.529,7.171,3.892
			c1.291,0.747,2.459,1.705,3.682,2.567c0.121-0.973-0.004-1.65-0.367-2.158c-1.646-2.299-3.576-4.433-3.051-7.641
			c0.077-0.469-0.559-1.217-1.051-1.592c-3.835-2.922-7.839-5.636-11.543-8.712c-2.978-2.475-5.596-5.381-8.405-8.062
			c-0.704-0.671-1.443-1.454-2.317-1.771c-5.163-1.87-10.387-3.574-15.557-5.427c-1.936-0.693-3.807-1.585-5.664-2.476
			c-2.064-0.99-3.996-2.322-6.139-3.068c-2.661-0.928-5.455-1.543-8.236-2.039c-1.916-0.341-3.98-0.623-5.849-0.261
			c-2.449,0.475-4.388-0.02-6.314-1.434c-1.194-0.876-2.519-1.589-3.831-2.286c-1.886-1.003-4.108-1.589-5.669-2.947
			c-3.896-3.391-7.515-7.102-11.216-10.713c-2.921-2.851-6.117-5.362-10.309-5.674c-4.062-0.303-8.162-0.093-12.246-0.127
			c-1.492-0.012-1.918,0.865-1.69,2.117c0.177,0.975,0.724,1.892,0.835,2.866c0.102,0.887,0.167,2.083-0.319,2.682
			c-2.68,3.301-6.005,5.847-10.185,6.885c-3.376,0.838-5.363,3.501-5.673,6.184c-0.435,3.769-2.073,7.999,1.042,11.609
			c0.311,0.36,0.225,1.124,0.206,1.696c-0.073,2.168-0.189,4.334-0.3,6.5C216.073,241.245,215.755,247.317,215.407,254.006z
			 M256.854,199.339c4.039,3.714,7.769,9.129,14.291,11.575c0.232-1.342,0.352-2.491,0.639-3.596
			c1.083-4.181,2.11-8.381,3.388-12.503c0.58-1.87,1.554-3.783,3.906-2.84c1.42-2.132,2.733-4.042,3.975-5.999
			c0.617-0.971,1.483-1.989,1.583-3.048c0.796-8.439,1.354-16.908,4.479-24.98c-4.899,0-9.557,0.153-14.198-0.061
			c-2.537-0.117-3.763,0.958-4.063,3.208c-0.482,3.617-1.738,7.013-0.787,10.969c0.845,3.513,0.056,7.452-0.257,11.183
			c-0.061,0.731-1.126,1.597-1.929,1.991c-1.02,0.499-2.244,0.577-3.38,0.84c-3.146,0.729-5.832,3.731-6.26,6.758
			C257.973,194.736,257.449,196.601,256.854,199.339z M366.717,196.26c0.157-0.162,0.313-0.324,0.47-0.487
			c-0.47-0.678-0.838-1.464-1.427-2.017c-3.406-3.198-4.829-7.304-5.283-11.772c-0.37-3.638-2.612-7.334,0.109-10.961
			c0.117-0.156,0.055-0.499-0.008-0.732c-0.669-2.476-1.028-5.1-2.11-7.381c-1.643-3.468-4.147-5.677-8.602-5.355
			c-5.134,0.371-10.322-0.055-15.486-0.039c-1.088,0.003-2.175,0.418-3.262,0.644c0.292,1.153,0.49,2.34,0.896,3.45
			c0.761,2.078,2.057,4.05,2.379,6.18c0.519,3.441,0.464,6.903,2.311,10.1c2.104,3.645,4.434,6.928,9.026,7.142
			c6.143,0.286,11.217,2.724,15.652,6.836C363.069,193.429,364.934,194.801,366.717,196.26z M366.77,192.409
			c-0.151,0.167-0.304,0.334-0.455,0.502c3.324,4.274,6.658,8.54,9.963,12.828c0.695,0.902,1.733,1.841,1.836,2.842
			c0.34,3.297,2.234,5.464,4.607,7.411c2.371,1.944,3.619,4.504,3.112,7.49c-0.779,4.593,0.298,8.784,2.227,12.813
			c0.947,1.978,0.946,3.435-0.657,5.106c-1.618,1.688-1.352,2.903,0.795,3.836c3.182,1.384,5.909,3.218,8.204,5.868
			c1.344,1.551,3.278,2.356,5.08,1.988c-0.616-2.28-1.157-4.353-1.741-6.413c-0.295-1.038-0.593-2.085-1.022-3.07
			c-1.03-2.362-2.417-4.609-3.137-7.057c-0.674-2.291-2.656-3.298-3.755-4.977c-1.032-1.579-0.21-4.293-1.091-6.069
			c-1.437-2.894-1.956-5.577-0.734-8.585c0.838-2.063,0.159-3.76-1.518-5.082c-0.912-0.718-1.829-1.511-2.876-1.964
			c-6.503-2.812-11.514-7.162-14.594-13.636c-0.381-0.8-1.07-1.501-1.747-2.1C368.512,193.476,367.608,192.979,366.77,192.409z
			 M383.922,287.046c0.288-0.141,0.575-0.28,0.863-0.42c-0.57-2.483-0.787-5.121-1.788-7.416c-1.883-4.32-2.07-4.238-5.746-3.858
			c-0.717-1.125-1.432-2.244-2.223-3.483c-2.455,2.908-1.698,6.294,1.893,8.711c-0.355-1.644-1.016-3.758,1.136-3.576
			c1.052,0.089,2.171,1.913,2.848,3.173c0.649,1.21,0.633,2.761,1.163,4.057C382.484,285.253,383.29,286.114,383.922,287.046z
			 M234.581,342.375c2.016-2.119,3.896-4.097,5.776-6.074c-0.184-0.186-0.367-0.371-0.55-0.557c-1.831,1.212-3.722,2.345-5.474,3.66
			C232.801,340.554,232.925,341.661,234.581,342.375z M314.245,346.847c0.263-1.652,0.477-3,0.771-4.853
			c-1.82,1.483-3.235,2.636-5.003,4.074C311.722,346.383,312.839,346.589,314.245,346.847z M385.294,203.988
			c2.612-3.395,2.308-4.308-1.325-4.95C384.384,200.589,384.771,202.032,385.294,203.988z M382.415,204.476
			c-0.337,1.511,1.662,3.17,4.601,3.54c-0.03-0.634-0.06-1.239-0.064-1.333C385.187,205.824,383.781,205.141,382.415,204.476z
			 M366.428,188.538c-0.453-1.341-0.8-2.367-1.144-3.385c-0.71-0.201-1.476-0.417-2.136-0.604
			C363.06,186.734,363.284,188.712,366.428,188.538z M298.611,190.091c-0.131-0.09-0.262-0.181-0.393-0.271
			c-0.452,0.388-0.904,0.777-1.356,1.165c-0.407-0.671-1.011-1.3-1.166-2.025c-0.158-0.734,0.128-1.563,0.22-2.352
			c-1.62,2.612-1.503,3.874,0.429,6.076C297.126,191.79,297.868,190.94,298.611,190.091z M393.972,211.901
			c2.986-1.213,3.513-2.485,1.729-4.642C395.098,208.876,394.561,210.32,393.972,211.901z"/>
		<path fill-rule="evenodd" clip-rule="evenodd" fill="#FFFFFF" d="M406.993,243.647c-0.148-0.976-0.422-1.951-0.428-2.928
			c-0.066-13.014-0.063-26.027-0.143-39.041c-0.09-14.683-0.225-29.366-0.442-44.047c-0.01-0.688-0.969-1.904-1.556-1.949
			c-3.192-0.241-6.406-0.201-9.612-0.23c-0.408-0.003-0.818,0.234-1.226,0.226c-8.911-0.177-17.82-0.372-26.73-0.568
			c-0.332-0.007-0.664-0.106-0.994-0.098c-8.4,0.216-16.829,0.953-25.192,0.493c-6.189-0.34-12.267,0.398-18.397,0.352
			c-7.841-0.06-15.683-0.109-23.521-0.272c-0.987-0.021-1.961-0.707-2.941-1.084c37.062,0,74.122,0,111.183,0
			C406.993,184.216,406.993,213.932,406.993,243.647z"/>
		<path fill-rule="evenodd" clip-rule="evenodd" d="M367.473,231.659c4.39-3.523,2.793-7.657,1.729-11.621
			c-0.181-0.674-1.38-1.308-2.221-1.524c-2.119-0.545-3.776-3.303-2.933-5.32c0.159-0.379,0.838-0.937,0.988-0.858
			c0.988,0.514,2.088,1.018,2.782,1.837c0.874,1.033,1.194,2.552,2.108,3.529c2.021,2.158,4.49,3.854,4.603,7.331
			c0.041,1.263,1.407,2.43,1.864,3.746c0.661,1.907,0.877,3.973,1.582,5.859c1.421,3.798-0.393,7.539,0.031,11.29
			c0.137,1.216,0.58,2.398,0.881,3.597c0.232,0.929,0.46,1.859,0.838,3.387c-1.027-0.55-1.713-0.678-1.898-1.054
			c-1.328-2.686-2.623-5.393-3.788-8.152c-0.742-1.76-1.17-3.23-3.664-3.687c-2.379-0.437-4.52-1.708-7.199-1.685
			c-1.284,0.011-2.579-2.116-3.883-3.258c-1.354-1.186-2.071-2.451-2.077-4.464c-0.005-1.895-0.897-3.854-1.678-5.666
			c-1.939-4.498-3.897-9-6.111-13.365c-2.143-4.224-4.688-8.24-6.916-12.423c-1.479-2.776-2.767-5.66-4.004-8.555
			c-0.221-0.517,0.223-1.317,0.36-1.986c0.512,0.408,1.241,0.709,1.504,1.24c5.026,10.162,10.021,20.34,14.963,30.543
			c1.55,3.198,3.444,5.739,7.348,6.282c1.075,0.149,2.083,1.367,2.947,2.264C366.36,229.702,366.84,230.702,367.473,231.659z"/>
		<path fill-rule="evenodd" clip-rule="evenodd" d="M392.162,269.777c4.112-0.136,3.33,4.17,6.082,4.857c0-1.116,0-2.188,0-3.169
			c1.929-0.09,3.786-0.595,5.319-0.1c1.026,0.332,1.936,1.997,2.251,3.231c0.222,0.87-0.376,2.379-1.11,2.919
			c-0.52,0.383-1.881-0.378-2.94-0.647c-0.206,0.882-0.205,2.258-0.868,3.127c-0.333,0.436-1.877-0.055-3.099-0.143
			c0,0.162-0.077,0.77,0.013,1.352c0.363,2.351,0.925,4.682,1.096,7.044c0.062,0.861-0.763,1.786-1.182,2.683
			c-1.207-0.742-3.335-1.347-3.47-2.249C393.334,282.542,392.836,276.338,392.162,269.777z"/>
		<path fill-rule="evenodd" clip-rule="evenodd" d="M171.35,354.454c-0.833,0.23-1.664,0.472-2.5,0.689
			c-1.992,0.519-4.017,0.932-5.973,1.561c-2.822,0.907-3.757,0.273-3.595-3.059c-0.853,0.475-1.526,0.849-2.2,1.224
			c-1.086,0.605-2.164,1.719-3.261,1.737c-8.564,0.146-17.133,0.08-25.7,0.08c-0.082-0.41-0.164-0.82-0.246-1.231
			c1.068-0.356,2.128-0.994,3.206-1.023c6.407-0.175,12.821-0.104,19.225-0.338c2.843-0.104,5.662-1.018,8.499-1.055
			c4.162-0.054,8.33,0.349,12.495,0.557C171.315,353.882,171.333,354.168,171.35,354.454z"/>
		<path fill-rule="evenodd" clip-rule="evenodd" d="M307.23,256.266c2.3-2.93,5.245-3.673,8.625-3.347
			c1.529,0.147,3.104-0.059,4.606,0.197c0.769,0.131,1.667,0.785,2.065,1.462c0.421,0.719,0.317,1.745,0.447,2.667
			c-2.83-0.147-3.622,0.936-3.337,5.185c1.106-1.249,1.846-2.084,2.682-3.028c2.002,0.896,0.812,2.314,0.396,3.63
			c-0.405,1.28-0.76,2.575-1.222,4.151c1.361,0,2.155,0,3.019,0c-0.707,3.466-1.378,6.756-2.05,10.047
			c-0.236-0.028-0.474-0.057-0.71-0.085c-0.929-2.223-1.029-4.497-0.486-6.921c0.197-0.887-0.029-1.98-0.38-2.853
			c-0.643-1.6-1.521-3.105-2.387-4.822c-0.453,0.023-1.162,0.061-1.871,0.098c0.126-0.182,0.251-0.363,0.376-0.546
			c-0.714-0.803-1.313-1.775-2.174-2.364c-1.057-0.723-2.333-1.124-3.918-1.849c3.738-0.631,6.97-1.176,10.2-1.721
			c-0.034-0.245-0.067-0.489-0.102-0.734C316.383,253.781,311.814,254.311,307.23,256.266z"/>
		<path fill-rule="evenodd" clip-rule="evenodd" d="M329.863,311.443c-2.78-3.692-7.438-4.245-12.578-5.694
			c1.396-0.453,2.158-0.926,2.907-0.903c2.368,0.07,4.771-0.054,6.775,1.759c1.959,1.773,3.808,1.293,5.616-0.563
			c1.279-1.313,2.884-2.311,4.87-3.858c-0.035,3.179-2.129,3.736-3.414,4.954C332.753,308.358,331.563,309.682,329.863,311.443z"/>
		<path fill-rule="evenodd" clip-rule="evenodd" d="M198.86,353.479c-1.02,0.25-2.029,0.656-3.06,0.723
			c-6.548,0.424-13.102,0.775-19.654,1.138c-0.662,0.037-1.361,0.101-1.981-0.071c-0.392-0.109-0.955-0.657-0.929-0.966
			c0.039-0.468,0.465-0.958,0.839-1.324c0.195-0.191,0.63-0.184,0.958-0.187c6.493-0.068,12.986-0.181,19.479-0.141
			c1.465,0.009,2.927,0.557,4.399,0.862C198.919,353.519,198.86,353.479,198.86,353.479z"/>
		<path fill-rule="evenodd" clip-rule="evenodd" d="M391.452,340.397c-0.378-1.038-1.082-2.078-1.075-3.114
			c0.023-3.334-0.605-6.439-2.345-9.304c-0.212-0.35-0.469-0.771-0.449-1.146c0.099-1.892,0.281-3.78,0.49-6.353
			c0.885,1.521,1.855,2.728,2.329,4.104c0.938,2.729,1.602,5.552,2.379,8.336c0.044,0.158,0.151,0.323,0.132,0.472
			c-0.306,2.24-0.627,4.479-0.944,6.718C391.796,340.206,391.624,340.302,391.452,340.397z"/>
		<path fill-rule="evenodd" clip-rule="evenodd" d="M280.351,277.262c0.768,1.378,1.769,2.508,2,3.778
			c0.237,1.303-0.279,2.743-0.466,4.122c-2.428-0.535-2.657-1.171-1.265-4.198c-2.589-0.169,0.394-5.696-4.729-3.645
			c0.11-0.333,0.22-0.667,0.33-1c1.05-0.305,2.461-0.308,3.045-1.004c0.55-0.656,0.229-2.043,0.308-3.41
			c1.879,0.822,3.597,3.701,6.224,0.52c0.51,1.632,0.844,2.699,1.407,4.509C284.149,274.749,282.186,275.773,280.351,277.262z"/>
		<path fill-rule="evenodd" clip-rule="evenodd" d="M242.398,347.219c-0.936-2.364,1.377-7.554,4.106-9.439
			c2.198-1.519,4.18-1.637,5.918-0.124c-1.013,0-2.043-0.316-2.512,0.062c-1.187,0.959-3.13,2.386-2.981,3.348
			C247.517,344.839,245.452,346.206,242.398,347.219z"/>
		<path fill-rule="evenodd" clip-rule="evenodd" d="M347.139,293.414c1.805,0.318,3.161,0.559,4.646,0.821
			c0.061-0.732,0.121-1.456,0.226-2.704c1.744,1.536,2.119,3.091,1.581,4.933c-0.553,1.891-1.266,3.722-3.643,3.845
			c-0.49,0.025-1.356-0.325-1.451-0.668C347.977,297.76,347.642,295.826,347.139,293.414z"/>
		<path fill-rule="evenodd" clip-rule="evenodd" d="M311.323,293.742c5.764-3.12,10.32-6.935,12.274-13.472
			c1.827,2.288,0.864,3.894-0.109,5.38C319.299,292.051,315.473,294.741,311.323,293.742z"/>
		<path fill-rule="evenodd" clip-rule="evenodd" d="M390.365,341.652c2.036,1.464,2.149,3.015,0.783,7.534
			c-0.726,2.403-1.3,2.877-3.861,2.923C388.322,348.593,389.329,345.171,390.365,341.652z"/>
		<path fill-rule="evenodd" clip-rule="evenodd" d="M263.279,339.393c0.792-0.631,1.46-1.162,2.46-1.957
			c0.27,4.578,4.753,3.981,7.277,5.983C270.449,345.168,266.046,343.279,263.279,339.393z"/>
		<path fill-rule="evenodd" clip-rule="evenodd" d="M355.646,342.119c1.107-1.036,2.094-2.275,3.366-3.033
			c0.771-0.46,2.312-0.587,2.909-0.111c0.572,0.455,0.373,1.881,0.487,2.697c-2.393,0.349-4.351,0.633-6.309,0.918
			C355.947,342.434,355.797,342.276,355.646,342.119z"/>
		<path fill-rule="evenodd" clip-rule="evenodd" d="M376.768,354.733c0.898-3.205,1.798-6.41,2.721-9.701
			C381.5,347.755,380.53,351.898,376.768,354.733z"/>
		<path fill-rule="evenodd" clip-rule="evenodd" d="M313.141,273.532c-0.517,2.86-0.955,5.281-1.393,7.703
			c-0.269,0.082-0.537,0.163-0.807,0.245c-0.312-0.938-0.969-1.915-0.866-2.805C310.301,276.703,310.07,274.268,313.141,273.532z"/>
		<path fill-rule="evenodd" clip-rule="evenodd" d="M365.702,314.505c2.927,1.931,2.584,5.627-0.332,7.058
			C365.489,319.03,365.595,316.768,365.702,314.505z"/>
		<path fill-rule="evenodd" clip-rule="evenodd" d="M287.186,282.922c-2.198,0.415-2.424,0.116-3.821-4.762
			C285.18,277.664,285.18,277.664,287.186,282.922z"/>
		<path fill-rule="evenodd" clip-rule="evenodd" d="M318.015,329.046c-1.714,0.404-2.787,0.657-3.86,0.911
			c-0.195-0.168-0.391-0.336-0.585-0.504c0.521-1.214,1.04-2.428,1.885-4.4C316.492,326.671,317.097,327.613,318.015,329.046z"/>
		<path fill-rule="evenodd" clip-rule="evenodd" d="M383.168,356.215c0.131-1.792,0.261-3.584,0.392-5.376
			C385.76,353.035,385.668,354.641,383.168,356.215z"/>
		<path fill-rule="evenodd" clip-rule="evenodd" d="M285.549,294.061c-1.495-0.212-2.989-0.424-4.484-0.635
			c-0.071-0.235-0.143-0.47-0.214-0.704c1.106-0.272,2.226-0.786,3.312-0.724c0.638,0.036,1.223,0.989,1.831,1.529
			C285.845,293.705,285.696,293.883,285.549,294.061z"/>
		<path fill-rule="evenodd" clip-rule="evenodd" d="M309.706,262.896c-0.778-0.885-1.707-1.688-2.257-2.697
			c-0.208-0.382,0.459-1.24,0.728-1.882c0.231,0.011,0.464,0.021,0.695,0.032c0.519,1.299,1.036,2.597,1.555,3.896
			C310.188,262.461,309.946,262.679,309.706,262.896z"/>
		<path fill-rule="evenodd" clip-rule="evenodd" d="M333.451,321.095c-1.06,0.805-1.609,1.527-2.207,1.569
			c-0.402,0.027-1.183-0.886-1.216-1.414c-0.027-0.439,0.739-1.229,1.246-1.314C331.761,319.854,332.365,320.478,333.451,321.095z"
			/>
		<path fill-rule="evenodd" clip-rule="evenodd" d="M340.059,304.247c-0.54-0.94-1.103-1.62-0.986-1.769
			c0.6-0.766,1.373-1.395,2.085-2.071c0.261,0.419,0.838,0.988,0.724,1.231C341.502,302.442,340.872,303.129,340.059,304.247z"/>
		<path fill-rule="evenodd" clip-rule="evenodd" d="M352.769,280.739c0.502,0.848,1.049,1.675,1.454,2.566
			c0.055,0.12-0.597,0.562-0.921,0.854c-0.61-0.866-1.22-1.733-1.829-2.601C351.904,281.287,352.336,281.013,352.769,280.739z"/>
		<path fill-rule="evenodd" clip-rule="evenodd" d="M364.28,321.425c-0.959,0.542-1.507,1.075-2.079,1.103
			c-0.434,0.021-0.899-0.602-1.352-0.938c0.481-0.572,0.872-1.339,1.486-1.627C362.605,319.837,363.333,320.685,364.28,321.425z"/>
		<path fill-rule="evenodd" clip-rule="evenodd" fill="#FFFFFF" d="M215.407,254.006c0.348-6.688,0.666-12.761,0.977-18.834
			c0.111-2.166,0.227-4.332,0.3-6.5c0.02-0.572,0.105-1.336-0.206-1.696c-3.115-3.61-1.477-7.84-1.042-11.609
			c0.31-2.683,2.296-5.346,5.673-6.184c4.18-1.038,7.504-3.584,10.185-6.885c0.486-0.599,0.42-1.795,0.319-2.682
			c-0.111-0.974-0.658-1.891-0.835-2.866c-0.228-1.252,0.198-2.129,1.69-2.117c4.083,0.034,8.184-0.176,12.246,0.127
			c4.192,0.312,7.388,2.823,10.309,5.674c3.702,3.612,7.321,7.322,11.216,10.713c1.561,1.358,3.783,1.944,5.669,2.947
			c1.313,0.697,2.637,1.41,3.831,2.286c1.927,1.414,3.865,1.909,6.314,1.434c1.868-0.362,3.933-0.081,5.849,0.261
			c2.781,0.496,5.575,1.111,8.236,2.039c2.143,0.747,4.074,2.079,6.139,3.068c1.857,0.891,3.729,1.783,5.664,2.476
			c5.17,1.853,10.394,3.558,15.557,5.427c0.874,0.316,1.613,1.1,2.317,1.771c2.81,2.681,5.428,5.587,8.405,8.062
			c3.704,3.076,7.708,5.79,11.543,8.712c0.492,0.375,1.128,1.123,1.051,1.592c-0.525,3.208,1.404,5.342,3.051,7.641
			c0.363,0.508,0.488,1.186,0.367,2.158c-1.223-0.862-2.391-1.82-3.682-2.567c-2.352-1.363-4.778-2.598-7.171-3.892
			c-2.774-1.5-5.493-3.118-8.337-4.474c-2.124-1.012-4.347-2.062-6.633-2.429c-3.835-0.616-7.779-1.122-11.633-0.899
			c-4.255,0.246-8.725,0.472-12.432,3.061c-4.775,3.337-9.416,6.865-14.154,10.257c-2.147,1.537-4.584,2.728-6.52,4.483
			c-1.324,1.202-2.632,3.027-2.854,4.717c-0.504,3.842-3.19,5.293-5.99,6.986c-1.728,1.044-3.271,2.441-4.748,3.839
			c-1.563,1.479-2.912,3.183-4.423,4.721c-1.961,1.997-2.051,3.715,0.092,5.532c2.378,2.016,4.197,4.968,7.878,5.004
			c0.344,0.004,0.943,0.578,0.979,0.934c0.268,2.623,2.165,2.639,4.044,2.567c1.495-0.057,3.053-0.076,4.459-0.512
			c4.055-1.26,7.896,0.109,11.795,0.731c0.452,0.071,0.838,0.725,1.205,1.15c2.481,2.873,3.805,6.111,3.387,10.004
			c-0.22,2.046,1.119,4.532-2.061,5.579c-0.405,0.135-0.412,1.623-0.516,2.494c-0.131,1.087-0.171,2.186-0.25,3.279
			c-0.339,0.093-0.678,0.186-1.016,0.278c-0.61-1.134-1.328-2.225-1.802-3.413c-0.522-1.308-0.562-2.87-1.292-4.014
			c-0.654-1.024-1.964-1.629-3.366-2.182c0.484,5.408,1.041,10.553-0.916,15.515c-0.256,0.031-0.513,0.063-0.769,0.094
			c-0.152-0.931-0.607-1.937-0.4-2.78c0.642-2.621-0.255-4.629-1.741-6.729c-1.292-1.824-2.09-3.999-3.105-6.019
			c0.176-0.159,0.352-0.318,0.527-0.477c-1.258,0-2.515,0-4.18,0c0.524,5.118,1.021,9.955,1.515,14.792
			c-0.159,0.049-0.319,0.098-0.479,0.146c-0.375-1.088-0.749-2.176-1.152-3.35c-0.333,0.071-0.705,0.05-0.945,0.218
			c-2.097,1.457-2.704,0.363-3.016-1.616c-0.196-1.245-0.668-2.448-1.017-3.67c-0.332-0.001-0.664-0.003-0.996-0.004
			c-0.412,1.707-0.921,3.397-1.212,5.124c-0.416,2.461-0.556,4.972-1.029,7.419c-0.427,2.207-1.762,3.259-4.229,3.328
			c-5.061,0.143-9.939-0.021-14.594-2.49c-1.362-0.723-3.695-0.933-4.979-0.247c-4.568,2.44-9.711,4.34-12.203,9.457
			c-0.478,0.981-0.451,2.21-0.657,3.324c0.938-0.093,1.875-0.187,3.22-0.32c-0.067,1.313-0.146,2.877-0.222,4.365
			c-4.11,0-7.999-0.167-11.869,0.036c-7.13,0.375-14.24-1.485-21.372-0.109c-0.54,0.104-1.134-0.081-1.429-0.106
			c-0.667-2.697-1.289-5.21-1.912-7.723c-0.39-0.038-0.781-0.075-1.171-0.112c-0.912,1.929-1.825,3.856-2.737,5.785
			c-0.182-0.048-0.364-0.096-0.546-0.145c0.413-1.664,0.774-3.344,1.25-4.989c1.118-3.862,2.405-7.687,0.199-11.632
			c-0.242-0.434-0.018-1.351,0.303-1.839c1.95-2.971,3.63-6.229,6.068-8.746c6.659-6.873,13.371-13.748,20.616-19.979
			c4.112-3.537,7.653-7.324,10.473-12.048c3.027,1.436,3.979,4.058,4.151,6.791c0.238,3.808,0.214,7.672-0.163,11.465
			c-0.233,2.347-0.112,4.41,0.972,6.493c1.104,2.119,1.979,4.358,3.107,6.464c0.418,0.781,1.27,1.329,1.923,1.983
			c0.248-0.074,0.496-0.149,0.743-0.225c0.24-1.565,0.479-3.13,0.72-4.695c0.189-0.07,0.377-0.14,0.566-0.209
			c0.255,1.151,0.527,2.299,0.756,3.455c0.111,0.559,0.006,1.195,0.231,1.69c1.515,3.33,3.008,6.677,4.72,9.906
			c0.336,0.636,1.59,0.785,2.421,1.159c0.036-0.799,0.322-1.692,0.061-2.379c-0.768-2.018-2.546-3.744-1.425-6.983
			c1.085,1.7,1.824,2.983,2.699,4.165c0.337,0.457,1.089,1.04,1.462,0.929c0.463-0.138,1.101-1.005,1.021-1.439
			c-0.762-4.134-0.877-8.478-3.622-12.333c-0.743,0.664-1.368,1.224-1.985,1.774c-1.637-5.046-3.253-10.027-4.87-15.01
			c-0.319,0.008-0.639,0.016-0.958,0.024c-0.385,1.075-0.769,2.151-1.207,3.379c-0.236-0.135-0.743-0.245-0.837-0.506
			c-1.167-3.202-3.083-6.039-3.686-9.571c-0.397-2.331-2.254-4.511-3.772-6.522c-1.161-1.537-1.683-2.615,0.281-3.762
			c1.183-0.69,1.069-1.549,0.183-2.426c-0.177-0.176-0.375-0.331-0.565-0.494c-3.181-2.746-3.181-2.746-1.735-6.119
			c-2.088-0.176-4.229-0.356-6.369-0.537c-0.047-0.3-0.094-0.6-0.141-0.899c0.826-0.62,1.608-1.312,2.486-1.847
			c3.684-2.239,7.47-4.321,11.06-6.7c1.342-0.89,2.392-2.337,3.332-3.697c4.164-6.027,8.031-12.271,12.435-18.115
			c2.13-2.828,5.131-5.03,7.881-7.347c1.511-1.272,3.445-2.044,4.947-3.324c1.073-0.915,2.083-2.213,0.812-4.488
			c-4.433,3.914-8.715,7.694-13.559,11.971c0.16-1.839,0.236-2.948,0.357-4.051c0.1-0.909,0.541-1.894,0.315-2.7
			c-0.345-1.229-1.135-2.332-1.736-3.488c-0.942,0.817-2.026,1.523-2.78,2.486c-0.589,0.754-0.759,1.832-1.136,2.759
			c-1.03,2.531-1.38,2.773-4.121,2.804c-0.49,1.616-0.507,3.758-1.587,4.845c-3.084,3.105-1.959,6.841-2.305,10.391
			c-0.259,2.66-0.235,5.47-3.019,7.433c0.135-2.016,0.287-4.031,0.402-6.048c0.133-2.321,0.482-4.666,0.287-6.962
			c-0.25-2.956-1.32-3.41-4.02-2.23c-0.737,0.322-1.507,0.57-2.567,0.966c-0.265-1.55-0.249-2.936-0.772-4.072
			c-0.449-0.976-1.513-1.667-2.622-2.201c-0.218-0.778-0.437-1.555-0.868-3.091c-0.964,1.104-2.008,1.766-2.058,2.497
			c-0.06,0.863,0.738,1.786,1.165,2.683c0.333,0.096,0.665,0.193,0.997,0.289c-0.745,0.698-1.555,1.339-2.21,2.112
			c-0.479,0.565-0.998,1.276-1.08,1.972c-0.726,6.122-1.349,12.256-2.027,18.384c-0.101,0.908-0.424,1.797-0.486,2.705
			c-0.406,5.987-4.785,9.064-11.277,9.923c-1.011-3.869,0.279-7.083,3.011-10.128c0.15,1.996,0.291,3.855,0.432,5.729
			c1.836-0.771,3.288-1.381,4.593-1.929c1.507-7.713,3.123-15.532,4.528-23.39c0.535-2.996,1.065-6.164-1.88-9.151
			C218.724,242.318,219.151,248.604,215.407,254.006z M255.225,308.008c0.148,3.289,0.247,6.437,0.461,9.576
			c0.06,0.883,0.273,1.872,0.761,2.571c0.403,0.578,1.316,0.801,2.004,1.181c0.288-0.543,0.839-1.095,0.823-1.629
			c-0.097-3.356-0.189-6.723-0.55-10.058C258.527,307.822,257.212,307.225,255.225,308.008z M240.734,233.944
			c-0.357-0.203-0.714-0.405-1.071-0.608c-0.723,0.542-1.926,0.976-2.076,1.646c-0.38,1.705-0.396,3.519-0.329,5.281
			c0.022,0.598,0.726,1.171,1.117,1.755c0.626-0.464,1.71-0.855,1.799-1.406C240.53,238.416,240.574,236.171,240.734,233.944z"/>
		<path fill-rule="evenodd" clip-rule="evenodd" fill="#FFFFFF" d="M256.854,199.339c0.595-2.738,1.118-4.603,1.387-6.503
			c0.428-3.027,3.113-6.029,6.26-6.758c1.136-0.263,2.36-0.341,3.38-0.84c0.803-0.394,1.868-1.26,1.929-1.991
			c0.313-3.73,1.102-7.67,0.257-11.183c-0.951-3.957,0.305-7.352,0.787-10.969c0.3-2.25,1.525-3.326,4.063-3.208
			c4.642,0.214,9.299,0.061,14.198,0.061c-3.125,8.073-3.683,16.541-4.479,24.98c-0.1,1.059-0.966,2.077-1.583,3.048
			c-1.241,1.956-2.555,3.866-3.975,5.999c-2.353-0.942-3.326,0.971-3.906,2.84c-1.277,4.122-2.305,8.323-3.388,12.503
			c-0.287,1.105-0.406,2.254-0.639,3.596C264.623,208.468,260.894,203.053,256.854,199.339z"/>
		<path fill-rule="evenodd" clip-rule="evenodd" fill="#FFFFFF" d="M366.717,196.26c-1.783-1.459-3.647-2.831-5.334-4.394
			c-4.436-4.113-9.51-6.55-15.652-6.836c-4.593-0.214-6.922-3.497-9.026-7.142c-1.847-3.197-1.792-6.659-2.311-10.1
			c-0.322-2.129-1.618-4.102-2.379-6.18c-0.406-1.11-0.604-2.297-0.896-3.45c1.087-0.225,2.174-0.641,3.262-0.644
			c5.164-0.016,10.353,0.41,15.486,0.039c4.454-0.322,6.959,1.887,8.602,5.355c1.082,2.282,1.441,4.906,2.11,7.381
			c0.063,0.233,0.125,0.576,0.008,0.732c-2.722,3.627-0.479,7.323-0.109,10.961c0.454,4.469,1.877,8.574,5.283,11.772
			c0.589,0.553,0.957,1.339,1.427,2.017C367.03,195.936,366.874,196.098,366.717,196.26z"/>
		<path fill-rule="evenodd" clip-rule="evenodd" fill="#FFFFFF" d="M366.77,192.409c0.839,0.57,1.742,1.066,2.497,1.733
			c0.677,0.599,1.366,1.299,1.747,2.1c3.08,6.474,8.091,10.824,14.594,13.636c1.047,0.453,1.964,1.246,2.876,1.964
			c1.677,1.322,2.355,3.019,1.518,5.082c-1.222,3.008-0.702,5.691,0.734,8.585c0.881,1.775,0.059,4.49,1.091,6.069
			c1.099,1.679,3.081,2.686,3.755,4.977c0.72,2.447,2.106,4.694,3.137,7.057c0.43,0.985,0.728,2.033,1.022,3.07
			c0.584,2.06,1.125,4.133,1.741,6.413c-1.802,0.368-3.736-0.437-5.08-1.988c-2.295-2.65-5.022-4.484-8.204-5.868
			c-2.146-0.933-2.413-2.148-0.795-3.836c1.604-1.672,1.604-3.128,0.657-5.106c-1.929-4.029-3.006-8.22-2.227-12.813
			c0.507-2.986-0.741-5.546-3.112-7.49c-2.373-1.946-4.268-4.114-4.607-7.411c-0.103-1.001-1.141-1.94-1.836-2.842
			c-3.305-4.289-6.639-8.554-9.963-12.828C366.466,192.744,366.618,192.576,366.77,192.409z"/>
		<path fill-rule="evenodd" clip-rule="evenodd" fill="#FFFFFF" d="M383.922,287.046c-0.632-0.932-1.438-1.793-1.854-2.813
			c-0.53-1.296-0.514-2.847-1.163-4.057c-0.677-1.26-1.796-3.084-2.848-3.173c-2.151-0.182-1.491,1.933-1.136,3.576
			c-3.591-2.417-4.348-5.803-1.893-8.711c0.791,1.239,1.506,2.358,2.223,3.483c3.676-0.38,3.863-0.462,5.746,3.858
			c1.001,2.295,1.218,4.933,1.788,7.416C384.497,286.766,384.21,286.905,383.922,287.046z"/>
		<path fill-rule="evenodd" clip-rule="evenodd" fill="#FFFFFF" d="M234.581,342.375c-1.656-0.714-1.78-1.821-0.248-2.971
			c1.752-1.315,3.644-2.448,5.474-3.66c0.183,0.186,0.367,0.371,0.55,0.557C238.477,338.278,236.597,340.256,234.581,342.375z"/>
		<path fill-rule="evenodd" clip-rule="evenodd" fill="#FFFFFF" d="M314.245,346.847c-1.406-0.258-2.523-0.464-4.231-0.778
			c1.768-1.438,3.183-2.591,5.003-4.074C314.722,343.847,314.508,345.194,314.245,346.847z"/>
		<path fill-rule="evenodd" clip-rule="evenodd" fill="#FFFFFF" d="M385.294,203.988c-0.523-1.956-0.91-3.399-1.325-4.95
			C387.602,199.68,387.906,200.593,385.294,203.988z"/>
		<path fill-rule="evenodd" clip-rule="evenodd" fill="#FFFFFF" d="M382.415,204.476c1.366,0.665,2.771,1.348,4.536,2.207
			c0.005,0.094,0.034,0.699,0.064,1.333C384.077,207.646,382.078,205.987,382.415,204.476z"/>
		<path fill-rule="evenodd" clip-rule="evenodd" fill="#FFFFFF" d="M366.428,188.538c-3.144,0.174-3.368-1.804-3.279-3.989
			c0.66,0.187,1.426,0.404,2.136,0.604C365.628,186.171,365.975,187.197,366.428,188.538z"/>
		<path fill-rule="evenodd" clip-rule="evenodd" fill="#FFFFFF" d="M298.611,190.091c-0.743,0.849-1.485,1.699-2.267,2.593
			c-1.932-2.203-2.049-3.464-0.429-6.076c-0.092,0.788-0.378,1.618-0.22,2.352c0.155,0.726,0.759,1.354,1.166,2.025
			c0.452-0.388,0.904-0.777,1.356-1.165C298.35,189.91,298.48,190,298.611,190.091z"/>
		<path fill-rule="evenodd" clip-rule="evenodd" fill="#FFFFFF" d="M393.972,211.901c0.589-1.581,1.126-3.024,1.729-4.642
			C397.484,209.416,396.958,210.688,393.972,211.901z"/>
		<path fill-rule="evenodd" clip-rule="evenodd" d="M255.225,308.008c1.987-0.783,3.303-0.186,3.5,1.642
			c0.36,3.335,0.453,6.701,0.55,10.058c0.016,0.534-0.535,1.086-0.823,1.629c-0.688-0.38-1.601-0.603-2.004-1.181
			c-0.488-0.699-0.701-1.688-0.761-2.571C255.472,314.444,255.373,311.297,255.225,308.008z"/>
		<path fill-rule="evenodd" clip-rule="evenodd" d="M240.734,233.944c-0.16,2.227-0.205,4.472-0.56,6.668
			c-0.089,0.551-1.173,0.941-1.799,1.406c-0.392-0.584-1.095-1.157-1.117-1.755c-0.066-1.762-0.051-3.576,0.329-5.281
			c0.15-0.67,1.353-1.104,2.076-1.646C240.021,233.539,240.377,233.741,240.734,233.944z"/>
	</g>
</g>
</svg>
