<?xml version="1.0" encoding="utf-8"?>
<!-- Generator: Adobe Illustrator 16.0.0, SVG Export Plug-In . SVG Version: 6.00 Build 0)  -->
<!DOCTYPE svg PUBLIC "-//W3C//DTD SVG 1.1//EN" "http://www.w3.org/Graphics/SVG/1.1/DTD/svg11.dtd">
<svg version="1.1" id="Layer_1" xmlns="http://www.w3.org/2000/svg" xmlns:xlink="http://www.w3.org/1999/xlink" x="0px" y="0px"
	 width="512px" height="512px" viewBox="0 0 512 512" enable-background="new 0 0 512 512" xml:space="preserve">
<g>
	<path d="M113.559,149.059l-2.566,3.375l-5.133,6.855c-0.305,0.469-0.738,1.12-1.301,1.951c-0.563,0.832-1.254,1.881-2.074,3.146
		l-6.926,10.336l-7.84-2.637H75.274c-0.61,0.164-2.01,0.522-4.201,1.072c-2.192,0.551-5.209,1.295-9.053,2.232l6.996-4.605
		c0.328-0.258,0.779-0.58,1.354-0.967c0.574-0.387,1.271-0.826,2.092-1.318c0.047-0.023,0.919-0.251,2.619-0.686
		c1.699-0.434,4.236-1.072,7.611-1.916h7.699c2.531,0.821,5.098,1.665,7.699,2.531l-0.352,1.02l4.746-7.207
		c0.539-0.68,1.359-1.886,2.461-3.621l2.426-7.348v-4.746c-1.336-1.336-2.098-2.074-2.285-2.215
		c-0.118-0.07-0.575-0.311-1.371-0.721c-0.797-0.41-1.946-0.99-3.445-1.74H88.071l-4.219,6.434h11.707l2.883,2.866v2.867
		l-3.656,7.345v-4.605l-4.605-2.285h-9.738c-0.68,0.727-1.424,1.5-2.232,2.32c-0.809,0.821-1.693,1.7-2.654,2.637l-5.238,2.602
		h-3.27v-4.465l3.27,3.164c1.289-0.585,2.8-1.359,4.535-2.32c0.093-0.047,0.469-0.398,1.125-1.055
		c0.656-0.656,1.617-1.617,2.883-2.883h-6.328l-5.344-2.657l-2.637-5.323v-4.008c0.445,0.469,0.955,0.984,1.529,1.547
		c0.574,0.563,1.213,1.172,1.916,1.828c0.258,0.141,0.791,0.41,1.6,0.809c0.809,0.399,1.881,0.938,3.217,1.617h9.668l4.254-6.434
		h-6.574c-1.078-0.375-2.256-0.773-3.533-1.195c-1.278-0.422-2.689-0.891-4.236-1.406c-0.891-0.844-1.805-1.723-2.742-2.637
		l-2.672-5.414l2.602-5.238l2.813-2.813l7.77-2.602h10.23c0.515,0.118,1.693,0.41,3.533,0.879c1.84,0.469,4.377,1.113,7.611,1.934
		l-3.797,3.797c-0.211,0.188-0.475,0.434-0.791,0.738c-0.316,0.305-0.698,0.691-1.143,1.16c-0.258,0.399-0.504,0.779-0.738,1.143
		c-0.234,0.364-0.469,0.721-0.703,1.072l-2.953,4.395h14.168l5.344,2.672l2.637,5.309V149.059z M94.645,128.739
		c-0.54-0.539-0.955-0.955-1.248-1.248c-0.293-0.293-0.475-0.462-0.545-0.51c-0.329-0.258-1.008-0.656-2.039-1.195l-3.234-1.652
		c-0.445-0.234-0.973-0.457-1.582-0.668c-0.61-0.211-1.289-0.434-2.039-0.668l-3.727-1.09l-7.277,2.426l-2.215,2.25v4.605
		l2.215,2.215l7.348,2.461h9.738L94.645,128.739z"/>
	<path d="M157.645,168.43l-6.398,6.363l-5.625-5.59v-1.934l-6.715,2.25l-5.168,5.203l-5.625-2.777l-2.672-5.309v-5.344
		c0.398-0.82,0.814-1.664,1.248-2.531c0.434-0.867,0.884-1.77,1.354-2.707c0.656-0.633,1.376-1.341,2.162-2.127
		c0.785-0.785,1.646-1.646,2.584-2.584l-7.559-7.559l5.836-5.801l2.883,2.777c0.164,0.118,0.65,0.381,1.459,0.791
		c0.809,0.41,1.951,0.99,3.428,1.74c0.211,0.023,0.574,0.118,1.09,0.281c0.117-0.023,0.258-0.058,0.422-0.105
		c0.164-0.047,0.363-0.105,0.598-0.176c0.656-0.328,1.389-0.697,2.197-1.107c0.809-0.41,1.705-0.884,2.689-1.424l2.883-2.777
		l5.836,5.801l-2.742,2.742v19.723l2.145,2.18H157.645z M145.622,166.04v-19.301l-5.766-1.934c-0.821,0.305-1.74,0.633-2.76,0.984
		s-2.162,0.727-3.428,1.125h-3.762l9.141,9.07l-0.844,0.844l-4.605-4.676l-4.465,4.465v4.676l2.355,4.746l4.781,2.391h2.285
		L145.622,166.04z"/>
	<path d="M224.688,143.223l-6.926,3.445v20.391h-5.555c-1.008,0.329-2.115,0.698-3.322,1.107c-1.208,0.41-2.549,0.861-4.025,1.354
		l-5.309,5.273l-7.699-7.664l-7.137,2.391l-5.309,5.273l-8.156-8.086v-22.746l-3.234-6.504c0.914,0.422,1.921,0.909,3.023,1.459
		c1.102,0.551,2.32,1.166,3.656,1.846l2.742,2.813v20.18c1.336,1.336,2.109,2.074,2.32,2.215c0.047,0.023,0.462,0.234,1.248,0.633
		c0.785,0.399,1.951,0.984,3.498,1.758l6.926-2.32v-19.371l-5.484-2.707l6.047-5.977c1.71,1.711,2.672,2.637,2.883,2.777
		c0.093,0.07,1.992,1.032,5.695,2.883l-2.953,2.883v17.227c1.336,1.336,2.097,2.074,2.285,2.215
		c0.047,0.023,0.462,0.234,1.248,0.633c0.785,0.399,1.951,0.984,3.498,1.758l6.926-2.32v-19.371l-5.484-2.707l6.047-5.977
		c1.664,1.665,2.8,2.684,3.41,3.059c0.188,0.164,1.617,0.891,4.289,2.18H224.688z"/>
	<path d="M266.875,168.43l-6.398,6.363l-5.625-5.59v-1.934l-6.715,2.25l-5.168,5.203l-5.625-2.777l-2.672-5.309v-5.344
		c0.398-0.82,0.814-1.664,1.248-2.531c0.434-0.867,0.884-1.77,1.354-2.707c0.656-0.633,1.376-1.341,2.162-2.127
		c0.785-0.785,1.646-1.646,2.584-2.584l-7.559-7.559l5.836-5.801l2.883,2.777c0.164,0.118,0.65,0.381,1.459,0.791
		c0.809,0.41,1.951,0.99,3.428,1.74c0.211,0.023,0.574,0.118,1.09,0.281c0.117-0.023,0.258-0.058,0.422-0.105
		c0.164-0.047,0.363-0.105,0.598-0.176c0.656-0.328,1.389-0.697,2.197-1.107c0.809-0.41,1.705-0.884,2.689-1.424l2.882-2.777
		l5.836,5.801l-2.742,2.742v19.723l2.145,2.18H266.875z M254.852,166.04v-19.301l-5.766-1.934c-0.821,0.305-1.74,0.633-2.76,0.984
		s-2.162,0.727-3.428,1.125h-3.762l9.141,9.07l-0.844,0.844l-4.605-4.676l-4.465,4.465v4.676l2.355,4.746l4.781,2.391h2.285
		L254.852,166.04z"/>
	<path d="M292.504,168.43l-6.398,6.363l-5.625-5.59v-22.535l-5.766-2.883c0.82-0.398,1.723-0.849,2.707-1.354
		c0.984-0.504,2.074-1.06,3.27-1.67c0.211-0.141,1.172-1.066,2.883-2.777c1.711,1.711,2.672,2.637,2.883,2.777
		c0.07,0.047,0.604,0.316,1.6,0.809s2.455,1.23,4.377,2.215l-5.766,2.883v19.582l2.18,2.18H292.504z M289.621,126.313l-6.047,3.023
		l-6.047-3.023l6.047-5.977L289.621,126.313z"/>
	<path d="M336.027,137.739l-15.469,18.07h8.859v1.16h-9.809l-13.113,15.258c1.781-1.007,4.301-2.25,7.559-3.727l5.133-1.723
		c0.094-0.023,0.246-0.082,0.457-0.176c0.211-0.093,0.48-0.223,0.809-0.387c0.445-0.211,0.879-0.316,1.301-0.316h7.805l5.906,2.953
		l-5.906,5.871l-5.344-2.637h-9.844c-0.539,0.141-1.781,0.457-3.727,0.949s-4.617,1.148-8.016,1.969l15.469-18.035h-8.859v-1.16
		h9.809l13.078-15.258c-0.891,0.516-1.969,1.084-3.234,1.705c-1.266,0.621-2.707,1.307-4.324,2.057l-5.098,1.723
		c-0.094,0.047-0.246,0.111-0.457,0.193c-0.211,0.083-0.48,0.206-0.809,0.369c-0.469,0.211-0.914,0.316-1.336,0.316h-7.77
		l-5.906-2.937l5.906-5.888l5.344,2.637h9.844c0.539-0.142,1.781-0.462,3.727-0.961
		C329.957,139.269,332.629,138.592,336.027,137.739z"/>
</g>
</svg>
