<?xml version="1.0" encoding="utf-8"?>
<!-- Generator: Adobe Illustrator 16.0.0, SVG Export Plug-In . SVG Version: 6.00 Build 0)  -->
<!DOCTYPE svg PUBLIC "-//W3C//DTD SVG 1.1//EN" "http://www.w3.org/Graphics/SVG/1.1/DTD/svg11.dtd">
<svg version="1.1" id="Layer_1" xmlns="http://www.w3.org/2000/svg" xmlns:xlink="http://www.w3.org/1999/xlink" x="0px" y="0px"
	 width="512px" height="512px" viewBox="0 0 512 512" enable-background="new 0 0 512 512" xml:space="preserve">
<g>
	<path fill-rule="evenodd" clip-rule="evenodd" fill="#707070" d="M384.137,202.739c7.279-6.382,15.364-8.56,24.254-8.542
		c17.643,0.035,29.256,9.168,33.019,26.509c2.241,10.327,1.824,20.634-1.748,30.642c-3.968,11.118-11.684,18.111-23.458,20.18
		c-9.648,1.695-19.131,1.419-28.184-2.932c-11.327-5.445-15.688-15.071-16.369-26.975c-0.103-1.783,0.504-2.589,2.313-2.369
		c0.123,0.015,0.25,0.004,0.374,0c6.39-0.258,6.39-0.259,7.419,5.981c1.64,9.931,7.567,16.089,17.379,18.127
		c5.227,1.086,10.45,1.008,15.604-0.228c7.622-1.827,12.849-6.533,15.373-13.945c3.267-9.589,3.678-19.373,0.688-29.084
		c-2.904-9.438-9.201-15.213-19.258-16.446c-5.91-0.724-11.709-0.203-17.39,1.54c-5.323,1.633-9.339,5.027-11.388,10.114
		c-1.767,4.386-4.692,1.808-7.147,1.767c-2.833-0.047-2.013-2.309-1.855-3.895c1.974-19.873,4.016-39.74,5.971-59.615
		c0.176-1.789,0.924-2.303,2.602-2.3c17.738,0.034,35.478,0.041,53.216-0.006c1.863-0.005,2.579,0.493,2.654,2.51
		c0.25,6.694,0.342,6.691-6.28,6.691c-13.367,0-26.733,0.01-40.101-0.011c-1.793-0.003-3.334-0.175-3.586,2.435
		C386.987,175.916,385.574,188.928,384.137,202.739z"/>
	<path fill-rule="evenodd" clip-rule="evenodd" fill="#D8D8D8" d="M42.526,165.73c-4.495,0-8.99,0-13.485,0
		c-6.47,0-8.322-1.606-9.24-8.012c-1.058-7.38,2.627-14.423,9.423-17.438c1.938-0.86,2.526-1.917,2.561-3.928
		c0.144-8.227,4.232-13.621,11.572-15.345c6.566-1.543,14.192,1.806,16.867,8.063c0.869,2.032,2.067,1.518,3.586,1.15
		c6.272-1.521,11.546,0.215,15.814,5.059c1.733,1.967,1.845,3.809,0.194,6.006c-5.381,7.165-10.669,14.399-15.897,21.676
		c-1.453,2.023-3.138,2.894-5.663,2.816C53.019,165.618,47.771,165.73,42.526,165.73z"/>
	<path fill-rule="evenodd" clip-rule="evenodd" fill="#707070" d="M339.153,159.724c-21.684,0-42.548,0.02-63.412-0.042
		c-1.489-0.004-3.786,0.999-4.346-0.862c-0.619-2.057-0.458-4.511-0.021-6.667c0.294-1.448,2.149-0.842,3.319-0.845
		c16.995-0.034,33.99-0.023,50.984-0.023c6.873,0.001,13.748,0.097,20.618-0.05c2.498-0.053,3.415,0.528,3.482,3.257
		c0.087,3.579-0.865,6.337-3.202,9.121c-22.889,27.268-36.074,58.683-39.761,94.09c-0.362,3.477-0.885,6.94-1.1,10.425
		c-0.129,2.095-0.947,2.729-2.987,2.624c-8.108-0.418-7.457,1.962-6.557-7.302c2.302-23.699,8.053-46.439,19.083-67.683
		c5.889-11.339,12.837-21.99,20.795-31.984C336.959,162.642,337.823,161.467,339.153,159.724z"/>
	<path fill-rule="evenodd" clip-rule="evenodd" fill="#707070" d="M462.691,169.61c0.2-11.38,9.201-20.307,20.313-20.146
		c11.305,0.164,19.897,9.603,19.636,21.569c-0.245,11.161-9.123,19.548-20.499,19.366
		C470.891,190.219,462.486,181.236,462.691,169.61z"/>
	<path fill-rule="evenodd" clip-rule="evenodd" fill="#FEE068" d="M91.666,133.57c-1.672,6.619-3.272,13.257-5.052,19.847
		c-0.689,2.55-0.276,3.57,2.628,3.373c3.581-0.242,7.189-0.058,11.646-0.058c-8.848,12.792-17.291,25-25.735,37.207
		c-0.356-3.736,1.174-6.876,2.066-10.158c1.372-5.047,2.862-10.068,4.521-15.028c0.879-2.631,0.044-3.183-2.45-3.065
		c-3.595,0.169-7.204,0.043-11.68,0.043c8.12-11.175,15.833-21.792,23.546-32.407C91.326,133.407,91.496,133.488,91.666,133.57z"/>
	<path fill-rule="evenodd" clip-rule="evenodd" fill="#D8D8D8" d="M195.563,374.956c-2.033,0-3.164,0.094-4.271-0.021
		c-1.73-0.181-4.202,0.897-4.825-1.565c-0.624-2.465-1.039-5.299,1.505-7.204c1.264-0.947,1.852-2.09,2.35-3.575
		c1.541-4.588,6.075-5.789,9.75-2.577c1.371,1.198,2.773,1.353,4.415,1.491c3.685,0.313,4.812,2.71,2.842,5.759
		c-0.337,0.521-0.743,1.004-1.032,1.55C203.805,373.509,200.449,376.542,195.563,374.956z"/>
	<path fill-rule="evenodd" clip-rule="evenodd" fill="#E4E4E4" d="M262.999,474.083c0-39.589,0-79.179,0-118.768
		c0.246-0.002,0.494-0.003,0.741-0.004c0,39.59,0,79.181,0,118.77C263.493,474.082,263.245,474.083,262.999,474.083z"/>
	<path fill-rule="evenodd" clip-rule="evenodd" fill="#E4E4E4" d="M137.944,355.315c0,39.589,0,79.179,0,118.768
		c-0.248,0.001-0.495,0.002-0.743,0.003c0-39.589,0-79.179,0-118.769C137.449,355.316,137.696,355.316,137.944,355.315z"/>
	<path fill-rule="evenodd" clip-rule="evenodd" fill="#E4E4E4" d="M388.985,474.083c0-39.589,0-79.178,0-118.768
		c0.245-0.001,0.491-0.003,0.736-0.003c0,39.59,0,79.18,0,118.769C389.477,474.082,389.23,474.082,388.985,474.083z"/>
	<path fill-rule="evenodd" clip-rule="evenodd" fill="#D8D8D8" d="M77.503,366.689c-0.87,0.365-1.322,1.106-1.701,1.907
		c-2.561,5.418-6.773,7.465-12.661,6.412c-1.477-0.264-2.992-0.007-3.77-1.755c-0.775-1.739-0.248-3.393,0.87-4.475
		c1.402-1.355,2.16-2.863,2.846-4.62c1.013-2.598,4.444-3.959,6.479-2.244c2.012,1.695,3.954,2.682,6.528,2.812
		c0.945,0.048,1.278,1.075,1.377,2.001L77.503,366.689z"/>
	<path fill-rule="evenodd" clip-rule="evenodd" fill="#D8D8D8" d="M456.205,366.689c-0.87,0.365-1.32,1.109-1.7,1.908
		c-2.567,5.403-6.769,7.471-12.66,6.411c-1.475-0.265-2.991-0.005-3.771-1.753c-0.776-1.739-0.249-3.392,0.867-4.475
		c1.399-1.357,2.161-2.862,2.846-4.621c1.012-2.597,4.446-3.959,6.48-2.246c2.012,1.696,3.953,2.683,6.527,2.813
		c0.945,0.047,1.278,1.075,1.378,2.001L456.205,366.689z"/>
	<path fill-rule="evenodd" clip-rule="evenodd" fill="#D8D8D8" d="M330.222,366.689c-0.872,0.363-1.321,1.109-1.701,1.908
		c-2.565,5.406-6.769,7.47-12.659,6.411c-1.476-0.265-2.992-0.005-3.771-1.752c-0.776-1.74-0.248-3.393,0.867-4.475
		c1.4-1.358,2.162-2.863,2.847-4.622c1.011-2.597,4.444-3.959,6.479-2.246c2.013,1.695,3.954,2.684,6.528,2.813
		c0.945,0.047,1.278,1.075,1.378,2.001L330.222,366.689z"/>
	<path fill-rule="evenodd" clip-rule="evenodd" fill="#B2B2B2" d="M34.623,278.967c-2.363-0.001-4.73-0.093-7.087,0.023
		c-2.635,0.13-2.919-1.193-2.285-3.267c1.15-3.758,5.164-6.562,9.429-6.575c4.325-0.014,8.274,2.675,9.522,6.451
		c0.768,2.324,0.256,3.562-2.492,3.397C39.355,278.855,36.985,278.968,34.623,278.967z"/>
	<path fill-rule="evenodd" clip-rule="evenodd" fill="#747474" d="M33.266,75.388c0.068,1.256-0.752,1.132-1.491,0.973
		c-0.717-0.154-0.77-0.888-1.055-1.422c-1.025-1.922-0.747-5.192-2.888-5.688c-3.203-0.742-6.699-0.213-10.071-0.228
		c-1.07-0.004-1.496,0.686-1.805,1.579c-0.49,1.414-1.051,2.802-1.553,4.212c-0.356,1-0.845,2.065-2.072,1.58
		c-1.528-0.604-0.285-1.704-0.023-2.413c2.717-7.372,5.515-14.713,8.327-22.049c0.338-0.881,0.46-2.074,1.743-2.179
		c1.28-0.104,1.601,0.881,1.968,1.858c2.85,7.588,5.729,15.166,8.594,22.749C33.073,74.706,33.167,75.069,33.266,75.388z"/>
	<path fill-rule="evenodd" clip-rule="evenodd" fill="#737373" d="M47.415,74.495c0,3.114,0.01,5.476-0.006,7.838
		c-0.005,0.744-0.012,1.581-1.026,1.667c-1.336,0.116-1.271-0.911-1.273-1.768c-0.015-7.98-0.015-15.96-0.003-23.941
		c0.001-0.731,0.553-2.024,0.978-1.497c2.158,2.68,3.701-0.107,5.494-0.344c0.738-0.097,1.491-0.189,2.23-0.151
		c3.607,0.189,5.801,2.281,6.595,5.602c1.122,4.691,1.694,9.548-2.243,13.295c-2.661,2.533-5.917,2.191-9.029,0.497
		C48.72,75.47,48.356,75.157,47.415,74.495z"/>
	<path fill-rule="evenodd" clip-rule="evenodd" fill="#4EBFD8" d="M25.727,189.693c-2.281-0.021-3.704-2.34-2.463-4.557
		c2.787-4.977,5.783-9.838,8.769-14.701c0.945-1.539,2.403-2.257,4.127-1.246c1.651,0.968,2.054,2.51,1.09,4.158
		c-2.881,4.926-5.833,9.81-8.784,14.693C27.861,189.041,26.968,189.687,25.727,189.693z"/>
	<path fill-rule="evenodd" clip-rule="evenodd" fill="#4EBFD8" d="M64.716,172.149c-0.245,0.551-0.518,1.379-0.953,2.111
		c-2.6,4.372-5.25,8.713-7.856,13.081c-1.049,1.759-2.375,3.131-4.503,1.962c-2.313-1.271-1.856-3.193-0.699-5.104
		c2.764-4.563,5.488-9.15,8.273-13.7c0.851-1.39,2.102-2.162,3.78-1.521C64.035,169.464,64.691,170.475,64.716,172.149z"/>
	<path fill-rule="evenodd" clip-rule="evenodd" fill="#4EBFD8" d="M46.767,180.883c-0.237,0.6-0.451,1.454-0.881,2.18
		c-2.656,4.482-5.363,8.936-8.05,13.401c-1.067,1.772-2.455,3.013-4.556,1.77c-2.075-1.227-1.774-3.037-0.692-4.838
		c2.748-4.574,5.489-9.151,8.257-13.712c0.833-1.375,1.993-2.284,3.706-1.785C45.862,178.279,46.563,179.266,46.767,180.883z"/>
	<path fill-rule="evenodd" clip-rule="evenodd" fill="#747474" d="M101.656,68.797c0,1.99-0.014,3.979,0.009,5.969
		c0.006,0.573,0.469,1.254-0.369,1.583c-0.607,0.238-1.5,0.26-1.651-0.354c-0.591-2.401-1.54-1.23-2.679-0.473
		c-1.935,1.289-4.084,1.72-6.411,1.236c-2.479-0.516-4.007-1.964-4.405-4.452c-0.391-2.447,0.517-4.381,2.621-5.734
		c2.101-1.351,4.478-1.267,6.836-1.471c1.24-0.107,3.266,1.11,3.571-1.345c0.286-2.305-0.432-4.395-2.837-5.057
		c-2.581-0.71-5.26-0.774-6.99,1.929c-0.535,0.835-0.945,2.142-2.118,1.421c-1.46-0.898-0.154-2.036,0.364-2.825
		c1.705-2.595,6.046-3.698,9.479-2.565c3.151,1.041,4.539,3.255,4.424,6.535c-0.065,1.865-0.012,3.735-0.012,5.604
		C101.543,68.797,101.6,68.797,101.656,68.797z"/>
	<path fill-rule="evenodd" clip-rule="evenodd" fill="#747474" d="M177.998,68.711c0,1.494,0.104,2.997-0.035,4.478
		c-0.1,1.055,1.057,2.38-0.127,3.081c-1.368,0.809-1.766-0.446-2.278-1.54c-0.422-0.901-1.037,0.051-1.413,0.334
		c-1.119,0.844-2.316,1.409-3.696,1.681c-3.895,0.768-6.896-0.765-7.715-3.997c-0.855-3.377,1.238-6.4,5.206-7.261
		c1.442-0.313,2.985-0.127,4.451-0.364c1.16-0.187,2.987,0.932,3.279-1.285c0.281-2.135-0.252-4.218-2.415-4.966
		c-2.81-0.973-5.718-1.109-7.534,2.011c-0.556,0.956-1.12,1.874-2.226,1.019c-0.93-0.718-0.034-1.615,0.351-2.299
		c1.523-2.707,5.684-4.09,9.289-3.083c3.299,0.921,4.977,3.083,4.854,6.587c-0.066,1.865-0.012,3.735-0.012,5.603
		C177.983,68.711,177.991,68.711,177.998,68.711z"/>
	<path fill-rule="evenodd" clip-rule="evenodd" fill="#757575" d="M118.813,66.614c-0.007-3.111,0.778-5.937,3.096-8.152
		c3.614-3.454,9.646-2.815,12.029,1.281c1.1,1.892,1.874,4.143,1.028,6.089c-0.835,1.92-3.114,0.704-4.732,0.843
		c-2.232,0.191-4.497,0.139-6.74,0.025c-2.193-0.112-2.472,0.804-2.016,2.721c1.143,4.808,5.184,6.684,10.191,4.62
		c0.774-0.318,1.693-1.765,2.403-0.179c0.576,1.285-0.87,1.592-1.66,2.024C125.767,79.514,118.799,74.749,118.813,66.614z"/>
	<path fill-rule="evenodd" clip-rule="evenodd" fill="#747474" d="M68.428,59.113c2.099-1.309,3.446-2.62,5.42-2.822
		c4.052-0.415,7.009,1.641,7.289,5.682c0.292,4.226,0.148,8.483,0.167,12.728c0.003,0.703,0.13,1.59-0.936,1.705
		c-1.304,0.141-1.331-0.801-1.335-1.704c-0.017-3.621,0.021-7.242-0.048-10.862c-0.059-3.061-1.007-5.433-4.691-5.433
		c-3.235,0.001-5.713,2.222-5.83,5.521c-0.119,3.368,0,6.742-0.056,10.112c-0.015,0.89,0.453,2.238-1.058,2.352
		c-1.647,0.125-1.206-1.295-1.21-2.163c-0.038-7.991-0.038-15.981,0.001-23.972c0.004-0.874-0.43-2.288,1.164-2.227
		c1.511,0.057,1.086,1.42,1.104,2.32C68.461,53.092,68.428,55.834,68.428,59.113z"/>
	<path fill-rule="evenodd" clip-rule="evenodd" fill="#B6B6B6" d="M514.686,57.944c-0.086,6.55-5.436,11.808-12.006,11.802
		c-6.717-0.006-12.1-5.475-12-12.192c0.098-6.532,5.472-11.815,12.016-11.811C509.399,45.746,514.773,51.216,514.686,57.944z"/>
	<path fill-rule="evenodd" clip-rule="evenodd" fill="#919191" d="M155.641,221.52c-0.641,2.129-1.216,4.28-1.953,6.375
		c-0.295,0.837-0.177,2.261-1.572,2.173c-1.104-0.069-1.001-1.253-1.253-2.05c-0.551-1.741-1.101-3.482-2.297-5.177
		c0,1.9,0.016,3.801-0.008,5.701c-0.01,0.769-0.143,1.582-1.155,1.556c-1.041-0.027-1.037-0.905-1.041-1.632
		c-0.022-3.735-0.029-7.471-0.001-11.207c0.006-0.83-0.126-1.838,1.146-1.972c1.247-0.131,1.715,0.546,2.002,1.678
		c0.759,2.993,1.633,5.958,2.568,9.317c1.622-2.992,1.832-6.015,2.745-8.809c0.393-1.204,0.687-2.538,2.417-2.166
		c1.641,0.351,1.081,1.757,1.1,2.755c0.065,3.485,0.026,6.973,0.004,10.459c-0.005,0.763-0.118,1.584-1.132,1.581
		c-1.049-0.004-1.051-0.876-1.059-1.606c-0.026-2.361-0.01-4.723-0.01-7.084C155.975,221.45,155.808,221.485,155.641,221.52z"/>
	<path fill-rule="evenodd" clip-rule="evenodd" fill="#767676" d="M62.821,335.819c1.635-2.978,1.852-6.012,2.755-8.823
		c0.385-1.196,0.58-2.543,2.357-2.232c1.733,0.304,1.125,1.711,1.149,2.694c0.078,3.122,0.08,6.248,0.001,9.37
		c-0.025,0.994,0.591,2.703-1.025,2.723c-2.007,0.024-1.057-1.855-1.143-2.899c-0.153-1.858-0.043-3.738-0.448-5.742
		c-0.682,2.234-1.311,4.487-2.075,6.693c-0.257,0.741-0.143,1.951-1.339,1.985c-1.213,0.034-1.127-1.098-1.38-1.891
		c-0.587-1.842-1.185-3.681-2.371-5.41c0,1.97,0.009,3.939-0.004,5.908c-0.006,0.83-0.276,1.49-1.276,1.42
		c-0.836-0.058-0.92-0.729-0.923-1.349c-0.017-3.998-0.014-7.996,0-11.994c0.003-0.789,0.166-1.485,1.198-1.526
		c1.012-0.04,1.622,0.324,1.892,1.365C61.001,329.235,61.874,332.343,62.821,335.819z"/>
	<path fill-rule="evenodd" clip-rule="evenodd" fill="#767676" d="M318.883,333.272c0.337-2.198,0.649-4.401,1.021-6.593
		c0.141-0.824,0.167-1.948,1.362-1.878c1.459,0.087,0.858,1.245,0.745,1.999c-0.556,3.688-1.151,7.37-1.777,11.046
		c-0.14,0.819-0.2,1.851-1.442,1.802c-1.22-0.046-1.168-1.062-1.355-1.891c-0.488-2.161-0.99-4.319-1.738-7.574
		c-0.745,3.308-1.223,5.52-1.751,7.719c-0.192,0.797-0.183,1.85-1.468,1.746c-1.034-0.083-1.003-0.942-1.13-1.647
		c-0.688-3.792-1.38-7.584-2.018-11.385c-0.11-0.664-0.37-1.597,0.721-1.771c0.96-0.152,1.256,0.53,1.376,1.35
		c0.327,2.211,0.677,4.419,1.068,6.969c1.59-1.921,1.159-4.181,1.876-6.059c0.327-0.857-0.063-2.28,1.375-2.239
		c1.367,0.038,1.114,1.482,1.353,2.334c0.557,1.995,0.908,4.049,1.344,6.078C318.591,333.275,318.737,333.274,318.883,333.272z"/>
	<path fill-rule="evenodd" clip-rule="evenodd" fill="#737373" d="M192.129,407.098c2.58,0.058,4.527,2.243,3.657,4.793
		c-0.681,1.995-0.458,3.539,0.167,5.408c0.565,1.688,0.205,3.592-1.606,4.531c-1.733,0.899-3.641,0.971-5.229-0.399
		c-1.474-1.272-1.872-3.109-1.014-4.734c0.823-1.56,0.759-2.726,0.174-4.345C187.238,409.469,189.188,407.031,192.129,407.098z"/>
	<path fill-rule="evenodd" clip-rule="evenodd" fill="#737373" d="M319.134,407.13c1.431,0.079,2.965,1.488,2.672,3.72
		c-0.327,2.483-0.629,4.761,0.2,7.247c0.518,1.549-0.275,3.256-2.049,3.919c-1.687,0.631-3.44,0.689-4.9-0.607
		c-1.346-1.194-1.84-2.993-1.063-4.4c1.007-1.827,0.728-3.229,0.16-5.062C313.319,409.243,315.377,407.005,319.134,407.13z"/>
	<path fill-rule="evenodd" clip-rule="evenodd" fill="#777777" d="M90.731,333.551c0-2.243-0.029-4.488,0.015-6.731
		c0.016-0.808-0.224-1.943,1.072-1.982c1.302-0.039,1.16,1.074,1.167,1.906c0.03,3.622,0.033,7.243,0.007,10.866
		c-0.006,0.813,0.236,1.845-1.036,2.046c-1.059,0.167-1.553-0.455-1.965-1.328c-1.204-2.55-2.465-5.072-4.381-7.508
		c0,2.417,0.009,4.834-0.005,7.25c-0.004,0.78-0.129,1.562-1.146,1.569c-1.069,0.007-1.075-0.846-1.078-1.582
		c-0.018-3.872-0.02-7.743,0.001-11.615c0.003-0.716-0.075-1.553,1.005-1.67c0.915-0.099,1.359,0.467,1.704,1.169
		c1.294,2.638,2.58,5.278,3.869,7.917C90.217,333.756,90.474,333.653,90.731,333.551z"/>
	<path fill-rule="evenodd" clip-rule="evenodd" fill="#929292" d="M65.288,224.52c0-2.498-0.017-4.996,0.01-7.494
		c0.008-0.733,0.019-1.606,1.048-1.649c1.031-0.043,1.157,0.793,1.162,1.552c0.025,3.872,0.024,7.744,0.013,11.615
		c-0.002,0.775-0.145,1.517-1.138,1.612c-0.846,0.081-1.396-0.297-1.764-1.068c-1.233-2.588-2.498-5.161-4.494-7.771
		c0,2.34,0.014,4.681-0.007,7.021c-0.008,0.884-0.03,1.89-1.326,1.733c-1.039-0.125-0.886-1.061-0.891-1.759
		c-0.026-3.747-0.021-7.495,0-11.241c0.004-0.72-0.074-1.576,0.938-1.753c0.888-0.155,1.372,0.409,1.724,1.124
		c1.364,2.77,2.726,5.54,4.089,8.31C64.863,224.674,65.076,224.597,65.288,224.52z"/>
	<path fill-rule="evenodd" clip-rule="evenodd" fill="#737373" d="M79.22,413.923c-0.017,6.309-1.188,8.41-4.14,8.443
		c-3.071,0.036-4.345-2.175-4.306-7.646c0.011-1.475,0.035-2.992,0.375-4.413c0.472-1.972,1.724-3.248,3.964-3.204
		c2.263,0.044,3.373,1.448,3.799,3.401C79.225,411.941,79.183,413.457,79.22,413.923z"/>
	<path fill-rule="evenodd" clip-rule="evenodd" fill="#FEE16C" d="M212.466,363.377c-1.367,7.711-1.367,7.711,3.741,8.413
		c-3.124,4.548-6.097,8.876-9.071,13.203c-0.235-0.1-0.471-0.199-0.706-0.299c0.453-1.456,0.927-2.905,1.354-4.369
		c1.433-4.924,1.427-4.926-3.508-5.844C206.641,370.78,209.049,367.265,212.466,363.377z"/>
	<path fill-rule="evenodd" clip-rule="evenodd" fill="#737373" d="M200.672,412.062c4.694,0.375,6.783,3.566,5.064,7.661
		c-0.692,1.65-1.839,2.617-3.669,2.651c-1.791,0.033-3.241-0.685-3.845-2.386c-1.194-3.369-1.197-6.819,0.018-10.187
		c0.535-1.482,1.758-2.448,3.369-2.593c1.153-0.104,2.816-0.648,3.165,0.976c0.398,1.854-1.353,1.154-2.293,1.403
		C201.242,409.915,200.683,410.8,200.672,412.062z"/>
	<path fill-rule="evenodd" clip-rule="evenodd" fill="#737373" d="M326.654,412.024c4.713,0.449,6.766,3.579,5.079,7.666
		c-0.682,1.651-1.814,2.635-3.646,2.684c-1.79,0.048-3.241-0.659-3.864-2.354c-1.235-3.363-1.21-6.812-0.02-10.181
		c0.524-1.482,1.735-2.466,3.347-2.625c1.156-0.115,2.81-0.665,3.194,0.93c0.447,1.849-1.281,1.209-2.241,1.433
		C327.248,409.87,326.706,410.776,326.654,412.024z"/>
	<path fill-rule="evenodd" clip-rule="evenodd" fill="#737373" d="M69.469,415.166c-0.087,1.019-0.005,2.439-0.361,3.74
		c-0.737,2.695-2.653,3.797-5.418,3.364c-0.634-0.1-1.244-0.339-1.313-1.089c-0.086-0.947,0.415-1.335,1.35-1.25
		c1.248,0.113,2.436-0.203,2.429-1.633c-0.01-1.871-1.493-0.437-2.259-0.74c-3.021-1.196-3.105-3.695-2.814-6.232
		c0.259-2.26,1.333-4.144,3.963-4.191c2.818-0.051,3.898,1.835,4.211,4.312C69.398,412.557,69.39,413.688,69.469,415.166z"/>
	<path fill-rule="evenodd" clip-rule="evenodd" fill="#737373" d="M450.054,412.146c0.444-5.117,1.212-5.745,5.95-4.933
		c0.743,0.128,1.532,0.099,1.525,1.167c-0.006,0.974-0.635,1.243-1.455,1.287c-0.496,0.027-0.994,0.052-1.491,0.046
		c-1.023-0.012-1.638,0.432-1.766,1.487c-0.173,1.441,0.893,1.113,1.704,1.263c3.88,0.709,3.466,3.708,3.156,6.398
		c-0.31,2.686-2.127,3.76-4.783,3.467c-1.052-0.115-1.932-0.572-2.518-1.418c-0.541-0.781-1.412-1.755-0.458-2.626
		c0.746-0.683,1.835-0.722,2.518,0.404c0.463,0.767,1.087,1.728,1.931,0.706c0.816-0.99,0.563-2.377,0.254-3.592
		c-0.218-0.859-0.837-1.224-1.686-0.783C448.915,417.107,449.916,414.199,450.054,412.146z"/>
	<path fill-rule="evenodd" clip-rule="evenodd" fill="#757575" d="M156.506,76.951c-2.804-0.392-3.884-2.19-3.948-4.702
		c-0.083-3.241-0.036-6.486-0.045-9.729c-0.002-0.749-0.208-1.568,0.025-2.234c0.995-2.833-4.5-1.141-2.623-3.167
		c1.149-1.241,2.926-1.631,2.631-3.861c-0.101-0.762,0.092-1.551,1.116-1.565c1.042-0.015,1.193,0.783,1.123,1.542
		c-0.205,2.198,0.279,3.669,2.952,3.362c0.626-0.072,1.25,0.322,1.19,1.107c-0.067,0.888-0.883,0.84-1.415,0.762
		c-2.593-0.38-2.791,1.106-2.723,3.115c0.11,3.24,0.013,6.486,0.051,9.73c0.019,1.554,0.298,2.981,2.113,3.535
		c0.782,0.238,2.447-0.537,2.074,1.187C158.796,77.106,157.406,76.898,156.506,76.951z"/>
	<path fill-rule="evenodd" clip-rule="evenodd" fill="#757575" d="M144.466,76.944c-2.825-0.429-3.858-2.259-3.911-4.76
		c-0.073-3.492-0.012-6.986-0.051-10.478c-0.018-1.506,0.578-3.33-2.138-3.316c-1.288,0.006-1.297-1.471-0.272-1.584
		c2.524-0.277,2.521-1.797,2.446-3.614c-0.033-0.789,0.146-1.539,1.189-1.493c1.056,0.047,1.132,0.879,1.048,1.606
		c-0.268,2.306,0.472,3.553,3.017,3.304c0.639-0.063,1.225,0.38,1.118,1.159c-0.122,0.881-0.951,0.774-1.471,0.697
		c-2.692-0.396-2.699,1.269-2.649,3.176c0.075,2.867,0.018,5.738,0.023,8.607c0.005,2.338-0.007,4.681,3.321,4.683
		c0.72,0.001,1.307,0.434,0.906,1.152C146.479,77.095,145.349,76.912,144.466,76.944z"/>
	<path fill-rule="evenodd" clip-rule="evenodd" fill="#919191" d="M135.119,223.041c0-1.12-0.126-2.258,0.031-3.355
		c0.211-1.469-0.979-3.695,1.036-4.231c2.055-0.547,4.563-0.9,6.409,0.811c1.646,1.526,1.871,3.552,0.601,5.434
		c-1.562,2.312,1.498,4.037,0.601,6.243c-0.295,0.726,1.037,2.138-0.813,2.201c-1.369,0.047-1.395-1.167-1.507-2.15
		c-0.07-0.617-0.046-1.243-0.088-1.864c-0.089-1.323-0.768-2.015-2.131-2.072c-1.53-0.064-1.699,0.847-1.93,2.097
		c-0.246,1.34,1.226,3.896-1.339,3.746c-1.601-0.094-0.656-2.509-0.844-3.874C135.011,225.048,135.119,224.037,135.119,223.041z"/>
	<path fill-rule="evenodd" clip-rule="evenodd" fill="#919191" d="M90.875,222.503c0-0.872-0.15-1.775,0.033-2.606
		c0.339-1.541-1.161-3.927,1.19-4.48c2.057-0.484,4.568-0.884,6.367,0.962c1.574,1.615,1.571,3.516,0.438,5.482
		c-1.265,2.196,1.375,4.037,0.665,6.24c-0.218,0.677,0.897,1.824-0.625,2.032c-1.403,0.192-1.558-0.923-1.691-1.935
		c-0.064-0.491-0.064-0.994-0.07-1.491c-0.016-1.557-0.476-2.668-2.333-2.647c-1.964,0.023-1.645,1.442-1.706,2.642
		c-0.037,0.746-0.02,1.493-0.064,2.237c-0.042,0.698-0.385,1.187-1.14,1.175c-0.799-0.013-1.01-0.619-1.018-1.266
		c-0.025-2.115-0.01-4.23-0.01-6.346C90.898,222.503,90.887,222.503,90.875,222.503z"/>
	<path fill-rule="evenodd" clip-rule="evenodd" fill="#D9D9D9" d="M457.324,378.697c-1.121,0-2.255,0.109-3.358-0.029
		c-1.234-0.154-3.263,0.785-3.463-1.061c-0.192-1.779,0.713-3.823,2.517-4.664c4.281-1.999,7.855-0.978,11.013,2.738
		c1.479,1.739,0.99,2.75-1.111,2.949c-1.851,0.176-3.73,0.037-5.597,0.037C457.324,378.678,457.324,378.688,457.324,378.697z"/>
	<path fill-rule="evenodd" clip-rule="evenodd" fill="#D9D9D9" d="M331.16,378.697c-0.996,0-2.028,0.168-2.979-0.04
		c-1.331-0.291-3.937,1.137-3.626-1.567c0.221-1.93,0.893-4.686,4.106-4.287c0.753,0.094,1.376,0.04,2.129-0.229
		c3.059-1.095,7.247,1.14,7.994,4.157c0.339,1.367-0.587,1.84-1.653,1.89c-1.987,0.094-3.981,0.027-5.972,0.027
		C331.16,378.664,331.16,378.681,331.16,378.697z"/>
	<path fill-rule="evenodd" clip-rule="evenodd" fill="#D9D9D9" d="M78.577,378.697c-1.12,0-2.264,0.146-3.353-0.037
		c-1.263-0.214-3.65,0.943-3.414-1.438c0.183-1.845,0.767-4.354,3.62-4.479c0.835-0.036,1.595,0.245,2.522-0.082
		c3.341-1.177,7.022,0.68,8.054,3.937c0.502,1.584-0.619,1.999-1.832,2.052c-1.863,0.081-3.731,0.021-5.598,0.021
		C78.577,378.679,78.577,378.688,78.577,378.697z"/>
	<path fill-rule="evenodd" clip-rule="evenodd" fill="#777777" d="M333.831,331.944c-0.001-0.874-0.209-1.813,0.042-2.607
		c0.498-1.581-1.594-4.255,1.889-4.626c3.771-0.402,6.396,0.969,6.918,4.108c0.363,2.183,0.374,4.509,0.052,6.699
		c-0.506,3.44-4.606,5.399-7.918,4.167c-1.199-0.446-0.942-1.325-0.964-2.126C333.797,335.689,333.832,333.816,333.831,331.944z"/>
	<path fill-rule="evenodd" clip-rule="evenodd" fill="#939393" d="M34.644,222.689c0-1.871-0.022-3.742,0.011-5.612
		c0.012-0.71-0.082-1.63,0.957-1.704c1.306-0.091,1.22,0.957,1.262,1.814c0.037,0.746,0.087,1.503,0.009,2.243
		c-0.206,1.949,0.612,2.6,2.562,2.595c1.956-0.003,2.546-0.696,2.638-2.611c0.064-1.357-1.171-3.99,1.212-3.855
		c1.879,0.106,0.884,2.708,0.967,4.185c0.154,2.735,0.061,5.485,0.029,8.229c-0.01,0.83,0.19,1.991-0.988,2.096
		c-1.576,0.14-1.142-1.24-1.294-2.138c-0.291-1.726,1.001-4.184-2.448-4.337c-3.058-0.136-2.614,1.783-2.696,3.651
		c-0.044,1.002,0.589,2.693-0.981,2.768c-2.034,0.097-1.107-1.796-1.216-2.838c-0.155-1.48-0.039-2.989-0.039-4.485
		C34.633,222.689,34.638,222.689,34.644,222.689z"/>
	<path fill-rule="evenodd" clip-rule="evenodd" fill="#777777" d="M447.067,332.285c0.005-1.866-0.028-3.732,0.02-5.596
		c0.021-0.802-0.217-1.948,1.14-1.873c1.253,0.069,1.043,1.156,1.092,1.985c0.037,0.62,0.074,1.251,0.004,1.864
		c-0.228,1.976,0.341,2.873,2.603,2.878c2.42,0.005,2.631-1.216,2.489-3.03c-0.039-0.494-0.045-0.998,0.011-1.49
		c0.103-0.903-0.304-2.308,1.233-2.178c1.415,0.119,1.019,1.489,1.032,2.398c0.049,3.357,0.051,6.716,0.002,10.072
		c-0.013,0.899,0.375,2.276-1.143,2.277c-1.532,0-0.992-1.388-1.138-2.272c-0.282-1.715,1.011-4.136-2.492-4.22
		c-3.132-0.075-2.458,1.898-2.62,3.681c-0.095,1.045,0.752,2.939-1.316,2.76c-1.59-0.14-0.794-1.804-0.885-2.784
		C446.962,335.278,447.063,333.776,447.067,332.285z"/>
	<path fill-rule="evenodd" clip-rule="evenodd" fill="#929292" d="M78.977,222.169c0.005,6.434-1.967,8.474-7.003,8.111
		c-1.652-0.12-2.143-0.744-2.111-2.271c0.06-2.857-0.115-5.725,0.067-8.572c0.09-1.411-1.119-3.622,1.21-4.085
		c2.432-0.484,5.042-0.438,6.741,1.991C79.01,218.961,79.072,220.833,78.977,222.169z"/>
	<path fill-rule="evenodd" clip-rule="evenodd" fill="#929292" d="M132.481,221.986c-0.021,6.631-1.576,8.738-5.426,8.376
		c-3.265-0.309-4.548-2.839-4.343-8.568c0.163-4.54,1.642-6.597,4.819-6.656c2.617-0.049,4.252,1.241,4.726,3.794
		C132.505,220.263,132.46,221.648,132.481,221.986z"/>
	<path fill-rule="evenodd" clip-rule="evenodd" fill="#767676" d="M80.901,332.364c-0.168,1.477-0.166,3-0.545,4.421
		c-0.591,2.218-2.286,3.126-4.517,3.122c-2.101-0.003-3.61-0.935-4.27-2.946c-0.831-2.538-0.715-5.17-0.389-7.766
		c0.35-2.784,1.729-4.659,4.839-4.586c3.078,0.072,4.406,1.932,4.668,4.76c0.091,0.985,0.015,1.986,0.015,2.98
		C80.769,332.354,80.835,332.359,80.901,332.364z"/>
	<path fill-rule="evenodd" clip-rule="evenodd" fill="#B8B8B8" d="M328.163,459.783c-3.178-0.097-4.837-2.783-3.313-5.81
		c0.731-1.452,0.97-2.443,0.242-4.03c-0.721-1.568-0.548-3.531,1.188-4.7c1.352-0.91,2.9-0.942,4.204,0.049
		c1.633,1.242,2.458,2.917,1.331,4.911c-0.773,1.369-0.466,2.375,0.172,3.758C333.435,457.101,331.468,459.884,328.163,459.783z"/>
	<path fill-rule="evenodd" clip-rule="evenodd" fill="#787878" d="M468.033,331.14c0,1.623,0.18,3.271-0.041,4.863
		c-0.357,2.58-1.96,3.936-4.636,3.91c-2.473-0.023-4.209-1.162-4.41-3.653c-0.27-3.351-0.188-6.729-0.231-10.097
		c-0.009-0.651,0.219-1.276,0.983-1.345c1.049-0.093,1.195,0.699,1.206,1.473c0.038,2.873-0.025,5.749,0.087,8.618
		c0.059,1.5,0.262,3.225,2.31,3.239c2.19,0.016,2.53-1.688,2.568-3.403c0.054-2.498-0.032-4.999,0.056-7.494
		c0.031-0.865-0.551-2.326,0.939-2.389c1.83-0.077,1.134,1.563,1.223,2.532c0.114,1.239,0.027,2.496,0.027,3.745
		C468.088,331.14,468.061,331.14,468.033,331.14z"/>
	<path fill-rule="evenodd" clip-rule="evenodd" fill="#777777" d="M205.55,331.207c0,1.622,0.18,3.27-0.042,4.861
		c-0.334,2.387-1.795,3.763-4.315,3.837c-2.623,0.078-4.498-1.02-4.731-3.711c-0.28-3.224-0.191-6.48-0.233-9.724
		c-0.01-0.752,0.063-1.638,1.062-1.651c1.305-0.018,1.141,1.086,1.154,1.912c0.042,2.623-0.029,5.248,0.061,7.868
		c0.056,1.626,0.135,3.53,2.395,3.541c2.188,0.01,2.47-1.759,2.503-3.46c0.052-2.747,0.012-5.496,0.046-8.244
		c0.009-0.71-0.079-1.595,1.007-1.634c1.052-0.038,1.154,0.76,1.165,1.532c0.023,1.624,0.007,3.248,0.007,4.872
		C205.602,331.207,205.576,331.207,205.55,331.207z"/>
	<path fill-rule="evenodd" clip-rule="evenodd" fill="#939393" d="M55.629,221.626c0,1.493,0.127,2.999-0.027,4.475
		c-0.284,2.725-1.772,4.271-4.65,4.296c-2.698,0.023-4.325-1.332-4.525-3.933c-0.248-3.215-0.174-6.456-0.194-9.686
		c-0.005-0.785,0.273-1.504,1.287-1.389c0.826,0.094,0.875,0.8,0.886,1.399c0.052,2.86-0.026,5.726,0.116,8.58
		c0.081,1.626,0.37,3.448,2.659,3.267c1.955-0.155,2.208-1.766,2.244-3.306c0.065-2.735,0.017-5.474,0.058-8.209
		c0.01-0.693-0.153-1.633,0.891-1.738c1.308-0.133,1.259,0.906,1.276,1.766c0.03,1.493,0.008,2.986,0.008,4.478
		C55.648,221.626,55.639,221.626,55.629,221.626z"/>
	<path fill-rule="evenodd" clip-rule="evenodd" fill="#929292" d="M61.722,250.41c-0.019,6.355-1.337,8.803-4.233,8.388
		c-4.339-0.623-3.823-4.201-3.901-7.255c-0.038-1.478-0.003-3,0.308-4.434c0.419-1.928,1.435-3.463,3.749-3.469
		c2.312-0.006,3.334,1.537,3.782,3.446C61.761,248.515,61.693,250.039,61.722,250.41z"/>
	<path fill-rule="evenodd" clip-rule="evenodd" fill="#B8B8B8" d="M79.758,451.691c-0.084,2.283,0.158,4.044-0.678,5.696
		c-0.734,1.449-1.736,2.39-3.467,2.39c-1.748,0-2.787-0.952-3.403-2.449c-1.188-2.891-0.834-5.927-0.443-8.862
		c0.269-2.018,1.351-3.813,3.901-3.796c2.542,0.02,3.409,1.827,3.886,3.841C79.836,449.704,79.722,450.992,79.758,451.691z"/>
	<path fill-rule="evenodd" clip-rule="evenodd" fill="#919191" d="M71.505,279.223c-0.117,2.162,0.112,3.782-0.51,5.347
		c-0.649,1.634-1.617,2.773-3.524,2.786c-1.882,0.014-3.036-0.976-3.577-2.687c-0.96-3.034-0.812-6.138-0.208-9.191
		c0.39-1.971,1.539-3.395,3.838-3.335c2.322,0.06,3.237,1.673,3.679,3.567C71.509,277.021,71.445,278.418,71.505,279.223z"/>
	<path fill-rule="evenodd" clip-rule="evenodd" fill="#B8B8B8" d="M316.906,450.013c4.757-0.203,5.802,0.591,5.851,4.341
		c0.033,2.448-0.16,4.931-3.289,5.359c-3.306,0.454-4.346-1.915-4.76-4.503c-0.292-1.813-0.281-3.731-0.05-5.559
		c0.274-2.167,1.303-4.117,3.556-4.801c1.054-0.32,2.943-0.838,3.221,0.643c0.309,1.646-1.421,0.542-2.207,0.798
		C317.553,446.837,317.092,448.172,316.906,450.013z"/>
	<path fill-rule="evenodd" clip-rule="evenodd" fill="#B8B8B8" d="M442.896,450.146c2.836-0.46,5.124-0.417,5.78,2.744
		c0.739,3.561-0.66,6.546-3.241,6.856c-2.844,0.341-4.631-1.683-4.877-5.662c-0.092-1.48-0.15-3,0.078-4.454
		c0.34-2.164,1.324-4.111,3.583-4.783c1.056-0.314,2.944-0.836,3.212,0.654c0.29,1.613-1.443,0.526-2.233,0.793
		C443.535,446.856,443.058,448.178,442.896,450.146z"/>
	<path fill-rule="evenodd" clip-rule="evenodd" fill="#919191" d="M105.997,215.13c1.154-0.029,2.287,0.116,3.124,0.973
		c0.855,0.875,2.12,2.113,1,3.14c-1.392,1.276-1.629-0.617-2.2-1.425c-0.766-1.083-1.819-1.476-2.847-0.521
		c-1.216,1.13-1.119,2.57,0.105,3.572c1.034,0.846,2.43,1.233,3.575,1.968c1.83,1.174,2.153,2.983,1.655,4.942
		c-0.522,2.053-2.155,2.573-4.034,2.604c-2.04,0.034-3.647-0.721-4.541-2.646c-0.261-0.563-0.515-1.269,0.134-1.679
		c0.75-0.475,1.424-0.232,1.734,0.66c0.53,1.522,1.577,2.222,3.166,1.896c0.986-0.203,1.372-0.976,1.436-1.934
		c0.125-1.874-1.121-2.605-2.598-3.175c-2.383-0.92-4.264-2.297-3.73-5.219C102.362,216.161,103.852,215.157,105.997,215.13z"/>
	<path fill-rule="evenodd" clip-rule="evenodd" fill="#B8B8B8" d="M452.592,449.93c5.239-0.102,7.355,2.8,5.584,7.328
		c-0.52,1.33-1.34,2.375-2.963,2.499c-1.637,0.125-2.937-0.345-3.854-1.761c-1.652-2.553-1.474-9.155,0.363-11.513
		c0.697-0.894,1.494-1.755,2.741-1.757c0.942-0.004,2.428-0.524,2.665,0.589c0.392,1.829-1.231,0.804-2.004,0.968
		C453.312,446.67,452.94,448.088,452.592,449.93z"/>
	<path fill-rule="evenodd" clip-rule="evenodd" fill="#B6B6B6" d="M33.521,252.648c-2.121,0-4.246,0.083-6.361-0.029
		c-1.398-0.074-3.824,0.664-3.87-1.043c-0.054-1.971,2.357-1.039,3.649-1.074c4.737-0.13,9.479-0.059,14.22-0.044
		c1.404,0.004,2.892,0.048,3.522-1.496c0.7-1.717-0.521-2.461-1.87-3.048c-0.62-0.27-1.097-0.732-0.655-1.427
		c0.38-0.597,1.024-0.605,1.662-0.331c1.927,0.827,3.038,2.313,2.856,4.377c-0.213,2.417-1.773,3.897-4.174,4.033
		c-2.984,0.169-5.985,0.041-8.979,0.041C33.521,252.621,33.521,252.634,33.521,252.648z"/>
	<path fill-rule="evenodd" clip-rule="evenodd" fill="#767676" d="M37.049,62.254c0-4.103-0.011-8.205,0.008-12.308
		c0.004-0.837-0.146-1.901,1.126-1.944c1.33-0.045,1.159,1.058,1.161,1.875c0.021,8.205,0.024,16.409,0.003,24.614
		c-0.002,0.8,0.232,1.896-1.096,1.931c-1.323,0.035-1.19-1.02-1.194-1.862C37.039,70.459,37.049,66.357,37.049,62.254z"/>
	<path fill-rule="evenodd" clip-rule="evenodd" fill="#D9D9D9" d="M330.188,366.728c3.687-2.391,5.805,1.335,8.636,2.257
		c0.66,0.214,1.11,1.046,1.771,1.29c1.313,0.485,2.661,0.865,2.749,2.551c0.035,0.685-0.575,1.149-1.2,1.214
		c-1.574,0.166-3.564,0.818-4.566-0.597c-2.126-3.002-4.475-3.613-7.608-1.802c-0.35,0.201-1.042,0.185-1.372-0.036
		c-0.728-0.486-0.205-1.074,0.137-1.562c0.716-1.023,1.328-2.086,1.488-3.354L330.188,366.728z"/>
	<path fill-rule="evenodd" clip-rule="evenodd" fill="#D9D9D9" d="M456.173,366.728c3.687-2.391,5.805,1.335,8.636,2.257
		c0.659,0.214,1.11,1.046,1.77,1.29c1.313,0.485,2.661,0.864,2.749,2.551c0.035,0.685-0.574,1.149-1.199,1.214
		c-1.574,0.166-3.564,0.818-4.566-0.597c-2.126-3.001-4.476-3.611-7.608-1.802c-0.35,0.201-1.042,0.185-1.372-0.036
		c-0.728-0.486-0.206-1.074,0.136-1.562c0.718-1.023,1.329-2.086,1.488-3.354L456.173,366.728z"/>
	<path fill-rule="evenodd" clip-rule="evenodd" fill="#939393" d="M54.285,277.19c0.204-5.105,0.817-5.657,5.203-4.963
		c0.578,0.092,1.374-0.067,1.451,0.775c0.094,1.02-0.745,1.073-1.486,1.218c-1.09,0.212-2.63-0.529-2.931,1.414
		c-0.366,2.367,1.604,1.564,2.659,2.054c1.938,0.9,2.532,2.577,2.54,4.594c0.007,1.97-0.332,3.849-2.266,4.748
		c-1.373,0.639-2.951,0.648-4.212-0.482c-0.838-0.751-1.828-1.877-0.949-2.834c1.051-1.144,1.611,0.225,2.133,1.031
		c0.551,0.852,1.313,1.276,2.15,0.505c1.27-1.172,1.029-2.743,0.708-4.197c-0.224-1.015-1.029-2.119-2.103-1.476
		C52.838,282.183,54.692,278.38,54.285,277.19z"/>
	<path fill-rule="evenodd" clip-rule="evenodd" fill="#7A7A7A" d="M216.553,339.13c-2.835,0.967-5.174,0.559-7.462,0.542
		c-1.514-0.011-1.235-1.294-1.244-2.228c-0.034-3.246,0.146-6.502-0.066-9.734c-0.169-2.584,0.899-3.324,3.231-3.019
		c1.624,0.212,3.37-0.38,5.133,0.557c-0.875,1.528-2.094,1.131-3.101,1.155c-1.548,0.039-2.949-0.133-2.971,2.211
		c-0.019,2.161,1.021,2.495,2.763,2.411c0.831-0.04,2.139-0.201,2.188,0.857c0.073,1.579-1.462,1.058-2.268,0.982
		c-2.243-0.208-2.681,0.815-2.693,2.832c-0.013,2.141,0.98,2.502,2.755,2.412C213.875,338.057,215.043,337.811,216.553,339.13z"/>
	<path fill-rule="evenodd" clip-rule="evenodd" fill="#7B7B7B" d="M332.483,324.698c-1.474,3.358-5.978-0.526-6.153,3.991
		c-0.163,4.208,4.192,0.92,5.11,3.438c-1.12,1.943-6.173-1.045-5.15,4.028c0.819,4.062,4.597,0.339,6.027,2.952
		c-2.308,1.248-4.757,0.51-7.077,0.533c-1.501,0.016-1.142-1.371-1.154-2.283c-0.045-3.119,0.142-6.251-0.068-9.356
		c-0.177-2.604,0.651-3.658,3.317-3.337C328.901,324.854,330.511,324.698,332.483,324.698z"/>
	<path fill-rule="evenodd" clip-rule="evenodd" fill="#D9D9D9" d="M77.47,366.728c3.687-2.391,5.806,1.336,8.636,2.257
		c0.659,0.214,1.11,1.047,1.77,1.29c1.313,0.485,2.66,0.864,2.748,2.551c0.036,0.685-0.574,1.149-1.199,1.214
		c-1.575,0.165-3.564,0.817-4.567-0.598c-2.126-3.001-4.476-3.61-7.609-1.802c-0.349,0.201-1.042,0.186-1.371-0.036
		c-0.727-0.487-0.205-1.074,0.137-1.562c0.719-1.022,1.33-2.085,1.488-3.353L77.47,366.728z"/>
	<path fill-rule="evenodd" clip-rule="evenodd" fill="#929292" d="M89.251,229.682c-0.26,0.172-0.355,0.284-0.464,0.3
		c-7.618,1.15-7.663,1.111-7.663-6.456c0-0.995,0-1.99,0-2.985c0.001-5.75,1.994-6.887,7.969-4.508
		c-1.16,2.397-5.7-1.329-5.725,3.228c-0.021,3.856,3.659,1.458,5.049,3.26c-1.149,1.976-6.083-0.735-5.106,4.138
		C84.113,230.659,87.892,227.075,89.251,229.682z"/>
	<path fill-rule="evenodd" clip-rule="evenodd" fill="#767676" d="M107.357,66.284c0.003-2.734-0.03-5.469,0.019-8.203
		c0.023-1.268,1.088-2.242,1.705-0.943c1.02,2.148,1.531,1.253,2.658,0.299c0.708-0.6,1.757-0.909,2.702-1.082
		c0.752-0.138,1.887-0.442,2.102,0.828c0.215,1.275-0.736,1.259-1.659,1.347c-3.836,0.368-5.299,2.687-5.216,6.35
		c0.073,3.229,0.022,6.463,0,9.694c-0.006,0.848,0.113,1.891-1.206,1.849c-1.324-0.042-1.082-1.135-1.093-1.936
		C107.331,71.753,107.354,69.019,107.357,66.284z"/>
	<path fill-rule="evenodd" clip-rule="evenodd" fill="#9A9A9A" d="M68.537,251.658c-1.941-2.716,0.117-5.841-2.545-8.001
		c-1.089,2.007-0.528,3.892-0.708,5.659c-0.075,0.734,0.004,1.669-0.972,1.744c-1.067,0.082-0.988-0.879-1.034-1.599
		c-0.04-0.623-0.017-1.249-0.021-1.874c-0.038-5.259-0.036-5.283,5.303-4.784c1.361,0.127,2.881-1.425,4.083,0.352
		c1.294,1.913,0.873,4.091,0.905,6.192c0.011,0.741-0.001,1.667-0.98,1.724c-1.051,0.061-1.006-0.891-1.032-1.617
		c-0.049-1.373-0.028-2.749-0.08-4.122c-0.025-0.658-0.3-1.344-1.029-1.309c-0.647,0.031-1.015,0.635-1.11,1.314
		C69.053,247.217,69.667,249.217,68.537,251.658z"/>
	<path fill-rule="evenodd" clip-rule="evenodd" fill="#757575" d="M444.82,410.144c-1.921-1.211-5.081,0.718-4.989-1.81
		c0.081-2.214,3.082-0.994,4.735-1.063c4.219-0.173,4.567,0.441,2.553,4.055c-1.508,2.706-1.953,5.631-2.184,8.629
		c-0.089,1.153-0.035,2.329-1.737,2.231c-1.937-0.11-1.234-1.529-1.204-2.5C442.1,416.282,443.435,413.19,444.82,410.144z"/>
	<path fill-rule="evenodd" clip-rule="evenodd" fill="#B8B8B8" d="M201.67,457.706c1.545,0.905,3.244-0.167,4.683,1.234
		c-2.23,1.396-4.592,0.816-6.754,0.629c-2.077-0.179-0.872-1.625-0.362-2.439c1.317-2.105,2.858-4.074,4.132-6.204
		c0.881-1.472,1.2-3.323-0.51-4.32c-1.554-0.905-2.029,0.697-2.526,1.846c-0.308,0.711-0.979,0.805-1.547,0.466
		c-0.629-0.376-0.497-1.052-0.281-1.667c0.81-2.312,2.59-3.087,4.744-2.469c2.557,0.735,3.656,2.843,2.686,5.231
		C204.839,452.713,203.116,455.157,201.67,457.706z"/>
	<path fill-rule="evenodd" clip-rule="evenodd" fill="#9C9C9C" d="M75.245,248.257c0-0.989-0.124-2,0.033-2.964
		c0.176-1.084-0.896-2.781,1.684-2.805c1.966-0.018,3.611-0.427,4.435,1.982c1.069,3.126,0.169,5.388-2.998,6.934
		c-0.308,0.15-0.705,0.277-0.868,0.536c-0.534,0.843,0.05,2.851-1.452,2.479c-1.637-0.405-0.602-2.329-0.808-3.568
		C75.131,250.008,75.244,249.124,75.245,248.257z"/>
	<path fill-rule="evenodd" clip-rule="evenodd" fill="#B7B7B7" d="M32.23,246.395c-1.091-3.482,0.568-4.702,2.716-5.313
		c2.2-0.625,3.496,0.889,4.341,2.639c1.069,2.215,0.038,4.015-1.845,5.019c-2.988,1.594-6.304,0.815-9.5,0.7
		c-0.497-0.019-0.992-0.484-0.835-0.986c0.113-0.365,0.66-0.814,1.039-0.839c1.729-0.116,3.47-0.068,5.204-0.129
		c1.674-0.06,3.672,0.457,4.298-1.882c0.288-1.076-0.224-2.035-1.259-2.422C34.113,242.331,33.542,244.38,32.23,246.395z"/>
	<path fill-rule="evenodd" clip-rule="evenodd" fill="#999999" d="M88.197,250.974c-1.595-1.642-0.775-3.569-1.111-5.347
		c-0.143-0.76-0.342-1.607-1.229-1.612c-0.989-0.004-1.019,0.937-1.053,1.667c-0.065,1.372-0.038,2.749-0.092,4.121
		c-0.026,0.651-0.255,1.295-1.04,1.269c-0.819-0.028-0.898-0.747-0.901-1.364c-0.015-3.249-0.012-6.498,0.021-9.746
		c0.005-0.453-0.048-1.059,0.622-1.198c0.823-0.17,1.216,0.398,1.202,1.027c-0.042,1.917,1.486,1.959,2.618,2.814
		C90.165,244.817,88.589,248.082,88.197,250.974z"/>
	<path fill-rule="evenodd" clip-rule="evenodd" fill="#7E7E7E" d="M435.368,325.747c3.57-1.257,6.495-1.208,9.87-0.419
		c-5.791,1.343-3.357,5.651-3.751,8.878c-0.15,1.229-0.014,2.49-0.046,3.736c-0.02,0.729,0.025,1.606-1.006,1.673
		c-1.277,0.082-1.286-0.905-1.294-1.787c-0.022-2.368,0.004-4.737-0.023-7.106C439.092,328.416,439.986,325.507,435.368,325.747z"/>
	<path fill-rule="evenodd" clip-rule="evenodd" fill="#7D7D7D" d="M185.286,325.406c3.224-0.793,6.161-1.004,9.434,0.048
		c-4.842,0.735-3.65,4.196-3.718,7.038c-0.044,1.869-0.007,3.741-0.034,5.611c-0.011,0.772-0.137,1.568-1.158,1.539
		c-1.003-0.027-1.122-0.829-1.13-1.6c-0.024-2.244-0.158-4.501,0.013-6.732C188.899,328.61,188.876,326.201,185.286,325.406z"/>
	<path fill-rule="evenodd" clip-rule="evenodd" fill="#989898" d="M111.857,215.913c3.171-1.009,6.04-0.715,9.229-0.092
		c-5.542,1.238-3.1,5.408-3.662,8.421c-0.364,1.949,1.058,5.596-0.961,5.518c-2.685-0.105-0.788-3.634-1.304-5.598
		c-0.184-0.701-0.085-1.496-0.02-2.239C115.372,219.307,115.489,216.773,111.857,215.913z"/>
	<path fill-rule="evenodd" clip-rule="evenodd" fill="#979797" d="M23.025,216.061c3.528-1.036,6.396-1.114,9.577-0.082
		c-4.416,0.603-3.685,3.688-3.639,6.442c0.029,1.748,0.056,3.499-0.019,5.244c-0.039,0.899,0.416,2.342-1.025,2.381
		c-1.757,0.047-1.193-1.563-1.246-2.555c-0.092-1.744,0.038-3.498-0.042-5.243C26.516,219.749,27.912,216.499,23.025,216.061z"/>
	<path fill-rule="evenodd" clip-rule="evenodd" fill="#B9B9B9" d="M188.491,445.23c0.731-0.255,1.063-0.45,1.408-0.479
		c7.119-0.604,7.099-0.55,4.595,5.953c-0.792,2.059-1.016,4.336-1.488,6.516c-0.192,0.887,0.277,2.387-1.198,2.248
		c-1.665-0.156-1.102-1.753-0.958-2.714c0.385-2.579,0.845-5.203,2.181-7.479c1.471-2.507,0.742-3.265-1.931-3.001
		C190.293,446.355,189.394,446.406,188.491,445.23z"/>
	<path fill-rule="evenodd" clip-rule="evenodd" fill="#B9B9B9" d="M67.06,446.597c-1.577-0.764-3.476,0.249-5.339-1.068
		c2.527-1.49,4.974-0.778,7.283-0.671c1.2,0.056,1.094,1.307,0.621,2.05c-2.206,3.462-3.084,7.295-3.414,11.308
		c-0.054,0.658-0.247,1.277-1.022,1.305c-1.03,0.035-1.179-0.752-1.155-1.525c0.088-2.771,0.909-5.371,1.859-7.947
		C66.31,448.914,67.342,447.979,67.06,446.597z"/>
	<path fill-rule="evenodd" clip-rule="evenodd" fill="#B8B8B8" d="M37.048,256.789c1.361,0.001,1.486,0.759,1.92,1.157
		c0.627,0.576,1.341,0.771,1.957,0.101c0.286-0.312,0.453-0.908,0.384-1.328c-0.114-0.691-0.76-0.959-1.408-0.982
		c-1.497-0.054-2.997-0.018-4.494-0.079c-0.699-0.029-1.745,0.178-1.838-0.786c-0.119-1.224,1.055-1.235,1.862-1.249
		c1.981-0.033,4.026-0.409,5.908,0.503c1.581,0.767,2.722,1.981,2.132,3.868c-0.489,1.561-1.708,2.45-3.446,2.286
		C37.984,260.086,36.963,259.016,37.048,256.789z"/>
	<path fill-rule="evenodd" clip-rule="evenodd" fill="#9F9F9F" d="M78.969,281.974c1.31-0.85,2.506-2.297,4.292-1.153
		c1.131,0.725,1.607,1.943,1.486,3.242c-0.158,1.691-0.669,3.263-2.804,3.308c-1.891,0.04-2.603-1.223-2.833-2.843
		c-0.122-0.857-0.07-1.739-0.097-2.61L78.969,281.974z"/>
	<path fill-rule="evenodd" clip-rule="evenodd" fill="#999999" d="M78.294,278.183c-2.325,1.257-4.372,1.358-5.115-1.721
		c-0.427-1.771-0.076-3.627,1.998-4.201c2.216-0.614,3.123,0.869,3.47,2.79c0.132,0.726,0.156,1.47,0.229,2.206
		C79.289,277.947,79.044,278.224,78.294,278.183z"/>
	<path fill-rule="evenodd" clip-rule="evenodd" fill="#7C7C7C" d="M336.082,412.606c-1.836-0.146-2.483-1.345-2.447-2.808
		c0.037-1.456,0.716-2.724,2.462-2.659c1.703,0.063,2.33,1.271,2.327,2.782C338.422,411.485,337.633,412.478,336.082,412.606z"/>
	<path fill-rule="evenodd" clip-rule="evenodd" fill="#7C7C7C" d="M83.406,407.104c1.587,0.144,2.286,1.233,2.3,2.747
		c0.014,1.528-0.688,2.699-2.382,2.722c-1.728,0.024-2.425-1.234-2.417-2.701C80.916,408.425,81.576,407.221,83.406,407.104z"/>
	<path fill-rule="evenodd" clip-rule="evenodd" fill="#A0A0A0" d="M78.294,278.183c0.194-0.31,0.389-0.62,0.582-0.927
		c0.739-1.093,1.479-2.186,2.817-4.166c0.254,4.061-2.591,6.077-2.725,8.884c0,0,0.044-0.056,0.044-0.057
		c-1.576,0.767-1.167,3.274-3.432,3.778C75.594,282.748,78.109,280.856,78.294,278.183z"/>
	<path fill-rule="evenodd" clip-rule="evenodd" fill="#7D7D7D" d="M464.45,409.915c-0.146,1.532-0.794,2.677-2.484,2.649
		c-1.72-0.028-2.387-1.301-2.349-2.769c0.038-1.453,0.717-2.717,2.462-2.659C463.793,407.194,464.311,408.426,464.45,409.915z"/>
	<path fill-rule="evenodd" clip-rule="evenodd" fill="#7D7D7D" d="M210.325,412.592c-1.853,0-2.619-1.086-2.674-2.586
		c-0.054-1.464,0.535-2.759,2.252-2.86c1.713-0.101,2.438,1.047,2.529,2.568C212.525,411.254,211.836,412.325,210.325,412.592z"/>
	<path fill-rule="evenodd" clip-rule="evenodd" fill="#59C3DB" d="M322.825,378.942c-0.718,2.013-1.935,3.998-3.505,5.767
		c-0.351,0.395-0.926,0.498-1.277,0.015c-0.266-0.366-0.589-1.035-0.433-1.309c1.103-1.924,2.174-3.901,3.563-5.61
		C321.932,376.873,322.709,377.509,322.825,378.942z"/>
	<path fill-rule="evenodd" clip-rule="evenodd" fill="#C6C6C6" d="M336.875,449.886c-1.798-0.065-2.462-1.309-2.563-2.698
		c-0.102-1.381,0.821-2.317,2.242-2.472c1.565-0.171,2.277,0.894,2.463,2.203C339.243,448.515,338.259,449.409,336.875,449.886z"/>
	<path fill-rule="evenodd" clip-rule="evenodd" fill="#59C3DB" d="M66.096,384.99c-0.788,0.121-1.169-0.465-1.194-1.046
		c-0.025-0.563,0.201-1.25,0.553-1.694c1.266-1.6,1.455-4.097,3.814-4.766c0.667-0.189,0.835,0.598,0.786,0.994
		c-0.305,2.45-1.964,4.21-3.296,6.129C66.632,384.789,66.338,384.855,66.096,384.99z"/>
	<path fill-rule="evenodd" clip-rule="evenodd" fill="#58C2DB" d="M59.27,385.051c-1.124-0.292-1.498-1.103-1.05-1.961
		c0.912-1.751,1.958-3.443,3.091-5.06c0.368-0.524,1.268-1.063,1.805-0.097c0.55,0.988-0.009,1.915-0.582,2.749
		C61.505,382.185,61.014,384.099,59.27,385.051z"/>
	<path fill-rule="evenodd" clip-rule="evenodd" fill="#59C3DB" d="M444.688,385.053c-1.082-0.314-1.423-1.066-0.993-1.983
		c0.525-1.118,1.193-2.181,1.895-3.201c0.705-1.026,1.208-3.151,2.765-2.123c1.354,0.894-0.014,2.492-0.725,3.597
		C446.776,382.667,446.314,384.336,444.688,385.053z"/>
	<path fill-rule="evenodd" clip-rule="evenodd" fill="#59C2DB" d="M442.117,378.832c-0.906,2.16-2.022,4.071-3.451,5.787
		c-0.293,0.354-0.87,0.647-1.289,0.199c-0.309-0.329-0.697-1.008-0.559-1.265c1.054-1.943,2.191-3.846,3.404-5.693
		c0.188-0.289,1.007-0.454,1.328-0.284C441.875,377.747,441.942,378.404,442.117,378.832z"/>
	<path fill-rule="evenodd" clip-rule="evenodd" fill="#C6C6C6" d="M210.677,444.674c1.6,0.054,2.286,1.09,2.367,2.404
		c0.096,1.557-0.822,2.713-2.375,2.747c-1.676,0.037-2.332-1.377-2.337-2.796C208.328,445.64,209.319,444.846,210.677,444.674z"/>
	<path fill-rule="evenodd" clip-rule="evenodd" fill="#59C2DB" d="M311.991,385.049c-1.119-0.293-1.499-1.098-1.05-1.96
		c0.912-1.749,1.955-3.441,3.087-5.058c0.367-0.525,1.269-1.063,1.802-0.096c0.543,0.984,0.006,1.921-0.573,2.753
		C314.219,382.181,313.739,384.104,311.991,385.049z"/>
	<path fill-rule="evenodd" clip-rule="evenodd" fill="#C7C7C7" d="M83.528,444.703c1.887-0.08,2.595,0.914,2.772,2.217
		c0.214,1.57-0.674,2.697-2.18,2.89c-1.799,0.229-2.222-1.235-2.387-2.633C81.554,445.657,82.564,445.019,83.528,444.703z"/>
	<path fill-rule="evenodd" clip-rule="evenodd" fill="#C6C6C6" d="M465.128,447.197c-0.333,1.479-0.99,2.599-2.421,2.618
		c-1.819,0.025-2.174-1.357-2.101-2.852c0.072-1.456,0.815-2.354,2.359-2.248C464.565,444.826,464.786,446.138,465.128,447.197z"/>
	<path fill-rule="evenodd" clip-rule="evenodd" fill="#BBBBBB" d="M35.409,280.527c-0.386,3.049,1.726,6.266-1.807,8.098
		c-1.597,0.829-2.979-0.241-3.405-2.321C36.949,288.377,32.322,282.039,35.409,280.527z"/>
	<path fill-rule="evenodd" clip-rule="evenodd" fill="#5DC4DC" d="M191.528,376.52c0.139,0.123,0.48,0.298,0.623,0.573
		c0.568,1.108-2.863,6.688-4.019,6.526c-0.304-0.043-0.67-0.35-0.823-0.635C186.759,381.957,190.239,376.419,191.528,376.52z"/>
	<path fill-rule="evenodd" clip-rule="evenodd" fill="#5EC4DC" d="M195.886,381.085c-1.161,1.896-1.874,4.233-3.771,5.642
		c-0.973,0.724-1.681-0.283-1.333-1.268c0.694-1.965,1.727-3.813,3.213-5.292C194.876,379.289,195.495,379.917,195.886,381.085z"/>
	<path fill-rule="evenodd" clip-rule="evenodd" fill="#5BC3DB" d="M202.527,377.758c-1.083,1.932-1.869,4.214-3.755,5.696
		c-0.833,0.655-1.483-0.163-1.301-0.977c0.493-2.203,1.777-4.063,3.25-5.696C201.422,376.004,202.309,376.432,202.527,377.758z"/>
	<path fill-rule="evenodd" clip-rule="evenodd" fill="#FEFEFE" d="M470.245,169.969c0.031-7.656,5.068-12.754,12.581-12.735
		c7.302,0.019,12.422,5.408,12.357,13.009c-0.062,7.331-5.278,12.61-12.445,12.592C475.348,182.818,470.213,177.53,470.245,169.969z
		"/>
	<path fill-rule="evenodd" clip-rule="evenodd" fill="#FDFDFD" d="M17.358,66.918c1.725-4.671,3.297-8.932,5.183-14.042
		c1.71,4.585,3.146,8.395,4.548,12.216c0.483,1.317-0.135,1.838-1.434,1.831C23.048,66.908,20.441,66.918,17.358,66.918z"/>
	<path fill-rule="evenodd" clip-rule="evenodd" fill="#FDFDFD" d="M47.425,66.771c0-6.303,1.261-8.287,5.314-8.357
		c3.846-0.067,5.972,2.814,6.031,8.172c0.059,5.344-2.029,8.345-5.831,8.381C48.937,75.005,47.425,72.76,47.425,66.771z"/>
	<path fill-rule="evenodd" clip-rule="evenodd" fill="#FBFBFB" d="M95.809,66.885c1.469,0.167,3.58-0.786,3.472,2.274
		c-0.112,3.164-2.87,5.78-6.56,5.707c-2.355-0.046-4.214-0.864-4.173-3.672C88.588,68.451,91.113,66.958,95.809,66.885z"/>
	<path fill-rule="evenodd" clip-rule="evenodd" fill="#FBFBFB" d="M172.334,66.892c1.69,0.006,3.608-0.548,3.436,2.393
		c-0.177,3.012-2.737,5.508-6.308,5.572c-2.311,0.042-4.286-0.603-4.426-3.413C164.892,68.546,167.509,66.938,172.334,66.892z"/>
	<path fill-rule="evenodd" clip-rule="evenodd" fill="#FDFDFD" d="M127.304,64.642c-0.624,0-1.266,0.098-1.865-0.021
		c-1.241-0.244-3.089,0.826-3.615-0.839c-0.522-1.652,0.798-3.04,2.007-4.144c1.771-1.618,3.913-1.661,5.944-0.781
		c1.988,0.861,3.277,2.783,2.871,4.799c-0.375,1.861-2.519,0.68-3.85,0.97C128.32,64.729,127.802,64.642,127.304,64.642z"/>
	<path fill-rule="evenodd" clip-rule="evenodd" fill="#FDFDFD" d="M502.799,47.412c5.43,0.084,10.302,5.062,10.221,10.441
		c-0.081,5.427-5.062,10.31-10.433,10.229c-5.437-0.083-10.309-5.045-10.237-10.425C492.422,52.237,497.429,47.329,502.799,47.412z"
		/>
	<path fill-rule="evenodd" clip-rule="evenodd" fill="#F5F5F5" d="M193.113,417.826c-0.082,0.82,0.056,1.923-1.097,1.937
		c-1.05,0.013-1.243-0.992-1.262-1.866c-0.021-0.927,0.3-1.768,1.375-1.727C193.111,416.208,193.033,417.118,193.113,417.826z"/>
	<path fill-rule="evenodd" clip-rule="evenodd" fill="#E7E7E7" d="M191.931,409.603c0.97,0.294,1.071,1.02,1.07,1.783
		c-0.001,0.755-0.072,1.686-0.996,1.669c-0.875-0.016-1.019-0.949-1.018-1.695C190.988,410.616,191.181,409.913,191.931,409.603z"/>
	<path fill-rule="evenodd" clip-rule="evenodd" fill="#F6F6F6" d="M318.06,416.12c1.122,0.252,1.028,1.175,1.006,2
		c-0.018,0.714-0.059,1.619-1.001,1.647c-1.118,0.033-1.271-0.938-1.33-1.798C316.672,417.04,316.984,416.305,318.06,416.12z"/>
	<path fill-rule="evenodd" clip-rule="evenodd" fill="#E7E7E7" d="M317.989,409.625c0.896,0.27,0.994,0.998,0.994,1.761
		c-0.002,0.755-0.069,1.685-0.997,1.668c-0.876-0.017-1.032-0.946-1.021-1.692C316.978,410.628,317.098,409.875,317.989,409.625z"/>
	<path fill-rule="evenodd" clip-rule="evenodd" fill="#FAFAFA" d="M76.321,414.753c-0.554,1.796,0.584,4.756-1.196,4.724
		c-2.338-0.042-1.282-2.956-1.324-4.613c-0.044-1.736-0.759-4.959,1.05-4.878C77.328,410.097,75.464,413.281,76.321,414.753z"/>
	<path fill-rule="evenodd" clip-rule="evenodd" fill="#EEEEEE" d="M200.425,416.847c0.066-1.015-0.068-2.296,1.42-2.085
		c1.45,0.206,1.387,1.6,1.368,2.667c-0.017,0.932-0.056,2.396-1.269,2.305C200.374,419.613,200.502,418.031,200.425,416.847z"/>
	<path fill-rule="evenodd" clip-rule="evenodd" fill="#EDEDED" d="M326.409,416.86c0.064-1.033-0.06-2.309,1.426-2.099
		c1.45,0.206,1.387,1.597,1.368,2.667c-0.015,0.936-0.059,2.396-1.268,2.305C326.37,419.613,326.5,418.026,326.409,416.86z"/>
	<path fill-rule="evenodd" clip-rule="evenodd" fill="#F6F6F6" d="M66.409,412.646c-0.046,1.058,0.121,2.492-1.195,2.388
		c-1.413-0.113-1.275-1.633-1.242-2.743c0.032-1.066-0.036-2.655,1.403-2.46C66.695,410.012,66.261,411.658,66.409,412.646z"/>
	<path fill-rule="evenodd" clip-rule="evenodd" fill="#FAFAFA" d="M137.371,219.501c0.057-1.203-0.24-2.66,1.718-2.584
		c1.655,0.064,2.507,1.021,2.526,2.609c0.019,1.599-0.747,2.52-2.491,2.535C137.18,222.077,137.396,220.736,137.371,219.501z"/>
	<path fill-rule="evenodd" clip-rule="evenodd" fill="#FAFAFA" d="M94.493,216.918c1.879,0.022,2.802,0.879,2.865,2.493
		c0.062,1.569-0.587,2.572-2.364,2.647c-1.89,0.081-1.925-1.134-1.858-2.437C93.197,218.465,92.75,216.963,94.493,216.918z"/>
	<path fill-rule="evenodd" clip-rule="evenodd" fill="#FCFCFC" d="M336.093,332.047c0.001-0.997-0.07-2,0.021-2.988
		c0.092-0.991-0.52-2.474,1.288-2.541c1.355-0.051,2.468,0.563,2.904,1.909c0.748,2.305,0.547,4.693,0.196,7.021
		c-0.249,1.663-1.483,2.688-3.184,2.54c-2-0.175-1.039-1.891-1.197-2.956C335.978,334.057,336.092,333.044,336.093,332.047z"/>
	<path fill-rule="evenodd" clip-rule="evenodd" fill="#FCFCFC" d="M72.138,222.79c0.001-1.116-0.042-2.234,0.015-3.348
		c0.047-0.923-0.339-2.204,1.06-2.403c1.32-0.19,2.551,0.367,2.994,1.697c0.879,2.641,0.87,5.366,0.009,8.005
		c-0.426,1.306-1.646,1.952-2.972,1.748c-1.646-0.253-0.98-1.729-1.085-2.725C72.056,224.782,72.137,223.782,72.138,222.79z"/>
	<path fill-rule="evenodd" clip-rule="evenodd" fill="#FAFAFA" d="M130.318,222.783c-0.535,2.297,0.9,5.782-2.677,5.732
		c-3.304-0.046-2.623-3.412-2.606-5.6c0.017-2.295-0.823-5.928,2.676-5.896C131.455,217.052,129.583,220.849,130.318,222.783z"/>
	<path fill-rule="evenodd" clip-rule="evenodd" fill="#F9F9F9" d="M78.571,332.144c-0.567,2.132,1.099,5.875-2.658,5.848
		c-3.584-0.027-2.522-3.676-2.574-5.943c-0.05-2.192-0.747-5.588,2.617-5.567C79.417,326.502,78.138,329.953,78.571,332.144z"/>
	<path fill-rule="evenodd" clip-rule="evenodd" fill="#F9F9F9" d="M328.429,458.097c-1.378-0.161-1.954-1.063-1.902-2.313
		c0.053-1.273,0.357-2.688,1.971-2.648c1.381,0.035,1.686,1.274,1.692,2.478C330.197,456.844,329.795,457.813,328.429,458.097z"/>
	<path fill-rule="evenodd" clip-rule="evenodd" fill="#F6F6F6" d="M330.04,448.871c-0.179,1.055-0.584,2.135-1.727,1.996
		c-1.483-0.18-1.206-1.582-1.19-2.627c0.013-0.845,0.119-1.923,1.266-1.812C329.748,446.561,329.873,447.806,330.04,448.871z"/>
	<path fill-rule="evenodd" clip-rule="evenodd" fill="#F9F9F9" d="M59.557,251.407c-0.425,1.988,0.859,5.42-2.044,5.415
		c-2.385-0.003-1.77-3.372-1.692-5.346c0.084-2.144-1.051-5.806,1.97-5.793C60.36,245.693,59.156,249.328,59.557,251.407z"/>
	<path fill-rule="evenodd" clip-rule="evenodd" fill="#FCFCFC" d="M77.549,452.363c-0.387,1.956,0.753,5.373-1.783,5.385
		c-2.915,0.015-1.938-3.443-1.955-5.493c-0.018-2.079-0.867-5.636,1.865-5.591C78.381,446.709,77.15,450.285,77.549,452.363z"/>
	<path fill-rule="evenodd" clip-rule="evenodd" fill="#F9F9F9" d="M69.246,279.469c0,0.495,0.044,0.996-0.008,1.486
		c-0.185,1.734,0.521,4.536-1.919,4.449c-2.253-0.078-1.689-2.867-1.775-4.638c-0.072-1.479-0.056-2.984,0.131-4.45
		c0.136-1.059,0.382-2.489,1.811-2.38c1.305,0.101,1.571,1.444,1.689,2.561c0.104,0.98,0.022,1.979,0.022,2.972
		C69.213,279.469,69.229,279.469,69.246,279.469z"/>
	<path fill-rule="evenodd" clip-rule="evenodd" fill="#FAFAFA" d="M320.538,454.951c-0.171,1.259,0.144,3.192-1.796,2.926
		c-1.646-0.226-1.818-2.11-1.934-3.595c-0.104-1.337,0.24-2.698,1.806-2.67C320.77,451.651,320.413,453.508,320.538,454.951z"/>
	<path fill-rule="evenodd" clip-rule="evenodd" fill="#FAFAFA" d="M446.523,454.857c-0.169,1.221,0.232,3.144-1.683,3.019
		c-1.75-0.115-1.892-2.022-2.032-3.473c-0.141-1.457,0.184-2.94,2.029-2.772C446.691,451.799,446.423,453.488,446.523,454.857z"/>
	<path fill-rule="evenodd" clip-rule="evenodd" fill="#FAFAFA" d="M456.287,454.602c-0.194,1.321,0.288,3.294-1.554,3.263
		c-2.021-0.035-2.027-2.125-2.181-3.678c-0.133-1.349,0.309-2.641,1.887-2.583C456.339,451.673,456.148,453.333,456.287,454.602z"/>
	<path fill-rule="evenodd" clip-rule="evenodd" fill="#FCFCFC" d="M79.776,246.736c-0.17,1.067,0.364,2.645-1.155,2.808
		c-1.798,0.193-1.29-1.507-1.274-2.463c0.018-1.106-0.654-2.946,1.125-3.024C79.833,243.997,79.67,245.665,79.776,246.736z"/>
	<path fill-rule="evenodd" clip-rule="evenodd" fill="#FDFDFD" d="M81.963,281.841c1.013,1.301,1.091,2.347,0.418,3.446
		c-0.083,0.137-0.759,0.144-0.852,0.005C80.79,284.182,80.948,283.145,81.963,281.841z"/>
	<path fill-rule="evenodd" clip-rule="evenodd" fill="#F0F0F0" d="M76.869,275.63c-0.105,0.693,0.078,1.672-0.964,1.668
		c-0.879-0.002-1.156-0.829-1.165-1.592c-0.01-0.871,0.098-1.895,1.264-1.828C77.025,273.936,76.747,274.951,76.869,275.63z"/>
	<path fill-rule="evenodd" clip-rule="evenodd" fill="#B2B2B2" d="M502.715,64.369c-1.238-3.48-1.052-5.985-0.089-8.509
		C503.886,58.33,503.808,60.832,502.715,64.369z"/>
	<path fill-rule="evenodd" clip-rule="evenodd" fill="#C4C4C4" d="M503.934,52.604c-0.153,0.663-0.532,1.151-1.234,1.132
		c-0.887-0.024-1.388-0.624-1.242-1.456c0.107-0.619,0.681-1.076,1.382-0.941C503.47,51.46,503.945,51.856,503.934,52.604z"/>
</g>
</svg>
