<?xml version="1.0" encoding="utf-8"?>
<!-- Generator: Adobe Illustrator 16.0.0, SVG Export Plug-In . SVG Version: 6.00 Build 0)  -->
<!DOCTYPE svg PUBLIC "-//W3C//DTD SVG 1.1//EN" "http://www.w3.org/Graphics/SVG/1.1/DTD/svg11.dtd">
<svg version="1.1" id="Layer_1" xmlns="http://www.w3.org/2000/svg" xmlns:xlink="http://www.w3.org/1999/xlink" x="0px" y="0px"
	 width="512px" height="512px" viewBox="0 0 512 512" enable-background="new 0 0 512 512" xml:space="preserve">
<g>
	<path fill-rule="evenodd" clip-rule="evenodd" fill="#FFFFFF" d="M625.003,175.214c3.063,9.196,6.154,17.751,8.713,26.462
		c1.319,4.492,3.977,5.585,7.218,3.109c4.94-3.775,9.607-8.042,13.771-12.66c4.38-4.861,9.631-6.402,15.47-4.881
		c5.129,1.336,6.605,5.929,6.808,10.883c0.113,2.804,0.881,5.719,0.313,8.361c-0.391,1.821,2.531,4.662-1.337,5.586
		c0.945,0.901,1.875,2.554,2.84,2.575c4.435,0.096,9.045,0.42,13.287-0.603c9.336-2.25,18.077-6.012,25.187-12.862
		c1.715-1.652,3.849-2.868,6.224-4.601c2.413,16.751-11.079,25.995-16.874,39.01c6.326,0.65,12.397,3.887,18.01-1.324
		c0.038,0.082,0.365,0.783,0.692,1.483c11.402-3.305,20.729-9.846,27.414-19.431c5.501-7.887,10.35-16.347,14.407-25.056
		c1.478-3.172,2.612-5.46,5.783-6.92c11.908-5.478,20.99-13.934,26.81-25.813c0.647-1.32,2.068-2.437,3.384-3.227
		c11.805-7.091,20.53-16.494,25.156-29.863c2.59-7.489,2.918-16.354,10.533-21.539c1.286-0.875,2.236-2.314,3.182-3.61
		c7.788-10.672,11.654-22.614,12.004-36.725c-10.616-1.232-20.821-2.542-31.056-3.573c-11.283-1.136-22.611-1.605-33.408-5.838
		c-13.105-5.138-26.265-10.208-39.65-14.533c-10.762-3.477-21.78-6.414-32.892-8.481c-14.192-2.641-28.568-4.37-42.916-6.065
		c-5.195-0.614-9.305-1.611-13.019-6.057c-8.236-9.86-17.217-19.112-26.108-28.405c-6.711-7.014-6.914-6.617-16.993-8.764
		c-12.304-2.619-24.517-5.667-36.746-8.628c-20.154-4.879-40.188-10.032-59.887-16.742c-13.466-4.586-27.904-6.269-41.828-9.585
		c-6.777-1.615-13.324-4.177-20.063-5.984c-5.789-1.551-11.694-2.686-17.573-3.876c-0.882-0.178-1.943,0.231-2.855,0.554
		c-9.354,3.296-18.488,7.526-28.09,9.729c-11.955,2.743-24.242,4.6-36.479,5.392c-11.642,0.754-23.403-0.619-35.111-0.576
		c-12.491,0.046-24.538-2.416-36.212-6.317c-12.36-4.129-24.893-8.278-36.407-14.239c-8.785-4.549-17.884-9.795-23.448-18.805
		c-1.806-2.927-3.247-6.079-5.345-10.06c-1.083,2.078-2.02,3.016-1.854,3.68c6.395,25.705,24.258,43.837,41.686,63.169
		c-10.003,2.301-19.909,4.827-29.897,5.199c-14.953,0.558-29.961-0.495-44.948-0.683c-14.363-0.18-28.228-3.058-41.558-8.096
		c-8.684-3.282-18.192-5.11-25.151-12.122c-0.412-0.414-1.598-0.062-2.423-0.066c0.146,0.743,0.062,1.663,0.475,2.201
		c2.248,2.925,4.611,5.761,6.948,8.617c4.67,5.706,8.844,11.936,14.147,16.979c7.581,7.208,15.991,13.545,24.083,20.285
		c-15.523,8.032-32.544,11.736-50.169,13.064c-7.265,0.548-14.62,0.274-21.815,1.251c-13.638,1.852-27.12,0.345-40.417-1.903
		c-10.733-1.814-21.14-5.533-31.718-8.299c-1.196-0.313-2.574,0.066-3.564,0.11c12.534,18.633,32.719,26.658,51.254,39.095
		c-2.32,1.175-4.019,1.901-5.582,2.85C65.997,54.968,53.498,59.187,40.81,62.979c-18.127,5.417-36.79,7.449-55.513,9.491
		c-8.799,0.958-17.384,0.693-25.655-1.696c-5.794-1.673-11.025-5.304-16.984-8.3c-1.935,1.645-1.324,3.807,0.861,5.464
		c6.15,4.664,12.117,9.712,18.782,13.509c7.316,4.167,15.303,7.171,23.051,10.558c4.805,2.099,9.69,4.021,14.581,5.915
		c2.111,0.818,4.327,1.367,6.732,2.111c-13.427,8.817-28.36,13.24-43.169,16.183c-15.806,3.142-31.473,7.959-47.851,8.118
		c-11.484,0.111-23.022,1.273-34.425,0.443c-5.681-0.413-12.445-1.252-16.382-7.243c-0.803-1.223-2.688-1.734-5.223-3.269
		c0.353,2.522,0.018,4.531,0.868,5.503c5.873,6.719,12.285,12.819,21.216,16.236c0.17,0.472,0.242,2.038,1.042,2.647
		c3.381,2.573,6.872,5.04,10.52,7.217c7.313,4.363,14.756,8.511,22.959,13.214c-12.631,4.702-24.694,9.226-36.79,13.664
		c-2.074,0.761-4.274,1.192-6.432,1.711c-9.424,2.268-18.773,4.988-28.307,6.623c-8.814,1.511-17.82,1.988-26.761,2.667
		c-9.074,0.688-18.345,2.502-26.55-3.648c-1.762-1.321-3.894-2.15-6.194-3.388c1.44,6.651,4.73,11.175,11.171,13.261
		c2.178,0.706,4.454,1.761,6.125,3.276c7.801,7.069,15.925,13.347,26.357,16.336c4.021,1.152,7.53,4.086,12.065,6.659
		c-8.004,4.978-15.3,9.387-22.433,14.044c-1.781,1.163-3.041,3.125-3.833,3.968c-1.639,0.148-2.819-0.006-3.774,0.388
		c-3.64,1.501-7.251,3.084-10.788,4.814c-3.481,1.702-6.697,4.12-10.33,5.285c-3.054,0.98-6.591,0.322-9.826,0.894
		c-12.659,2.234-25.321,3.223-38.122,1.282c-1.829-0.277-3.776,0.231-6.881,0.468c23.489,28.541,54.036,40.616,87.934,49.023
		c-4.662,4.44-9.142,8.609-13.5,12.902c-2.111,2.079-6.088,3.092-4.549,8.409c2.899-0.99,5.816-1.496,8.21-2.897
		c6.457-3.781,13.11-6.009,21.016-4.479c-1.741,5.062-4.824,9.756-3.911,14.94c-0.626,1.065-1.854,2.245-1.994,3.54
		c-0.84,7.819-2.455,15.744-1.856,23.482c0.826,10.671-5.023,18.565-8.808,28.109c-0.389-1.446-0.595-2.21-0.954-3.543
		c-0.792,1.544-1.382,2.696-1.972,3.848c0.306,0.554,0.612,1.107,0.918,1.662c5.509-1.663,11.021-3.313,16.525-4.991
		c5.884-1.794,10.708-5.788,17.62-5.731c16.381,0.133,33.11,2.534,48.888-4.509c0.494-0.221,1.395,0.472,2.173,0.763
		c-0.745,1.047-1.368,1.842-1.907,2.69c-10.159,15.991-7.831,33.402-5.681,50.77c0.091,0.737,1.608,1.444,1.524,2.032
		c-0.343,2.394-0.805,4.83-1.669,7.079c-2.943,7.663-2.929,16.358-8.139,23.244c-0.483,0.639-0.705,2.104-0.31,2.633
		c0.576,0.771,2.108,1.695,2.739,1.421c6.803-2.96,13.51-6.143,17.878-8.168c21.07-1.753,39.889-3.318,58.832-4.894
		c0,6.652,0.375,14.453-0.095,22.201c-0.585,9.638-1.569,19.277-2.931,28.837c-1.473,10.342-5.726,19.721-11.634,28.305
		c-1.683,2.444-3.171,4.691-0.337,7.863c2.366-1.534,4.786-3.106,7.209-4.675c1.764-1.142,7.079,1.34,4.411-4.324
		c0.688-0.233,1.371-0.632,2.063-0.648c0.558-0.014,1.245,0.778,1.671,0.63c12.123-4.229,24.547-3.257,37.005-2.417
		c4.481,0.302,9.2,0.725,13.476-0.303c11.524-2.769,22.868-6.287,33.691-9.341c-1.162,2.246-3.18,5.34-4.441,8.718
		c-5.767,15.457-3.847,31.4-2.461,47.248c0.587,6.711,0.481,13.016-3.53,18.895c-2.286,3.349-3.821,7.21-5.694,10.84
		c0.497,0.445,0.995,0.891,1.492,1.336c2.899-1.367,5.809-2.712,8.693-4.106c3.226-1.561,6.357-4.331,9.655-4.532
		c9.018-0.549,18.102-0.011,27.159,0.071c9.414,0.085,18.835,0.361,28.239,0.072c2.724-0.083,5.398-1.823,8.628-2.998
		c-0.626,7.201-1.48,14.425-1.788,21.672c-0.154,3.619-1.634,7.911,1.881,10.109c-0.492,1.355-1.543,2.744-1.329,3.896
		c2.616,14.05,5.389,28.07,8.203,42.082c0.371,1.845,1.2,3.598,1.817,5.393c1.144-1.208,0.586-0.263,0.769,0.508
		c0.478,2.018,1.146,4.016,1.976,5.919c2.045,4.692,4.317,9.289,6.318,13.999c1.658,3.9,2.783,8.046,4.645,11.836
		c2.64,5.373,5.245,10.89,8.796,15.652c3.126,4.192,3.862,11.261,11.876,11.289c0.179-1.691,0.422-3.27,0.502-4.857
		c0.352-6.95,0.582-13.907,0.991-20.854c1.011-17.151,5.601-33.404,12.365-49.123c0.763-1.772,0.325-4.188,1.342-5.701
		c2.943-4.383,6.185-8.594,9.606-12.621c4.551-5.357,8.824-11.121,16.036-14.35c1.747,3.713,3.323,7.062,4.998,10.621
		c0.564-0.974,0.916-1.581,0.959-1.653c0.96,2.452,1.788,5.169,3.052,7.664c2.789,5.507,7.131,10.104,9.148,16.119
		c1.091,3.254,2.837,6.348,4.685,9.263c0.747,1.179,2.551,1.688,3.874,2.503c0.59-1.599,1.642-3.188,1.672-4.797
		c0.056-2.996-0.938-6.041-0.69-8.998c0.809-9.661,2.025-19.286,3-28.934c1.241-12.29,3.214-24.381,8.732-35.631
		c0.396-0.807-0.035-2.017-0.093-3.292c0.629-0.407,2.422-0.981,3.237-2.206c2.268-3.406,3.979-7.177,6.185-10.629
		c3.815-5.972,7.695-11.914,11.853-17.648c1.399-1.931,3.723-3.192,6.014-5.081c2.275,5.494,3.723,10.39,6.201,14.69
		c5.941,10.31,12.3,20.383,18.693,30.421c0.678,1.064,3.371,2.146,3.961,1.694c1.188-0.911,2.19-2.888,2.148-4.395
		c-0.067-2.466-1.218-4.878-1.581-7.362c-1.19-8.147-3.198-16.328-3.096-24.473c0.14-11.108,1.472-22.207,0.819-33.361
		c-0.035-0.591,0.511-1.216,1.198-2.737c0.556,1.999,0.841,3.024,1.035,3.726c4.757-10.558,9.121-21.602,14.612-32.056
		c5.704-10.859,13.113-20.645,22.813-28.823c2.147,5.628,4.128,10.818,6.107,16.007c0.463-0.095,0.926-0.19,1.39-0.285
		c0.419-1.61,0.839-3.22,0.886-3.399c0.953,4.441,1.561,10.266,3.513,15.598c2.39,6.533,5.726,12.749,9.016,18.907
		c1.546,2.894,3.943,5.333,5.955,7.979c0.563-0.169,1.125-0.337,1.687-0.506c-4.75-20.282-4.793-40.376,1.597-60.159
		c6.32-19.57,13.324-38.786,29.152-53.755c6.432,14.23,12.813,27.5,22.584,39.527c0.869-1.434,1.835-2.314,1.907-3.263
		c0.384-5.06,0.584-10.137,0.769-15.21c0.13-3.589-0.596-7.388,0.349-10.729c1.971-6.975,4.749-13.725,7.28-20.535
		c2.542-6.837,4.64-13.909,7.886-20.403c11.697-23.393,29.118-41.95,50.99-55.906c22.374-14.278,45.911-17.345,69.746-2.864
		c11.335,6.887,21.268,14.787,18.45,30.368c-1.169,6.471-2.154,12.834-7.352,17.838c-2.402,2.313-3.519,5.965-5.501,9.517
		c8.294-4.3,15.055-9.315,22.613-11.307c7.945-2.093,16.654-1.291,25.221-1.765c0,1.857,0.09,2.697-0.023,3.509
		c-0.135,0.969-0.312,1.971-0.697,2.858c-5.645,13.011-2.618,26.278-1.033,39.458c0.216,1.796,2.044,3.399,3.125,5.092
		c0.552-0.248,1.103-0.495,1.653-0.743c-0.231-1.555-0.741-3.128-0.64-4.66c0.225-3.376-0.37-7.608,1.412-9.903
		c3.105-3.997,7.477-7.229,11.813-10.007c9.652-6.182,19.938-11.411,29.37-17.896c14.469-9.946,24.037-23.499,27.066-41.159
		c1.095-6.391,1.731-12.929,7.016-17.705c3.876-3.506,7.94-6.894,11.307-10.855c11.987-14.1,20.221-29.642,17.197-49.063
		c-10.8-3.043-18.62,0.216-25.861,8.872c-5.827,6.966-11.669,14.675-22.535,15.524c-2.217-10.565-9.083-17.726-17.899-23.488
		c-2.975,7.599-10.982,14.89-16.986,15.678c2.355-12.594,0.365-23.897-9.261-32.566c-10.099,8.77-21.207,14.466-35.261,15.773
		c1.947-16.636-4.334-29.329-15.697-40.686c-0.332,5.264-1.613,9.741-6.771,11.188c-4.5,1.262-9.175,1.902-14.213,2.904
		c3.868-17.963,2.098-26.119-6.092-29.624c-5.75,8.662-14.051,8.765-23.153,6.991c-9.792-1.909-14.266-8.938-16.909-15.73
		c0.452-2.909,0.713-4.365,0.899-5.831c0.393-3.084,0.131-6.417,1.235-9.213c2.854-7.223,9.52-9.859,16.484-12.592
		c2.328,10.486,8.826,18.065,15.211,25.825c5.014,6.093,9.477,5.952,13.913-0.574c2.531-3.721,5.54-7.468,9.169-10.014
		c6.395-4.489,10.955-3.145,13.333,3.806c2.771,8.101,8.951,13.168,14.838,18.554c1.456,1.333,4.304,2.977,5.525,2.398
		c4.019-1.905,8.52-4.043,11.123-7.416C611.391,183.938,617.477,179.7,625.003,175.214z"/>
	<path fill-rule="evenodd" clip-rule="evenodd" d="M625.003,175.214c-7.526,4.486-13.612,8.724-18.47,15.014
		c-2.604,3.372-7.104,5.51-11.123,7.416c-1.222,0.579-4.069-1.065-5.525-2.398c-5.887-5.386-12.066-10.454-14.838-18.554
		c-2.378-6.951-6.938-8.295-13.333-3.806c-3.629,2.546-6.638,6.293-9.169,10.014c-4.437,6.526-8.899,6.667-13.913,0.574
		c-6.385-7.76-12.883-15.339-15.211-25.825c-6.965,2.733-13.63,5.369-16.484,12.592c-1.104,2.796-0.843,6.129-1.235,9.213
		c-0.187,1.466-0.447,2.921-0.899,5.831c2.644,6.793,7.117,13.821,16.909,15.73c9.103,1.774,17.403,1.67,23.153-6.991
		c8.189,3.505,9.96,11.661,6.092,29.624c5.038-1.002,9.713-1.642,14.213-2.904c5.157-1.447,6.438-5.924,6.771-11.188
		c11.363,11.357,17.645,24.05,15.697,40.686c14.054-1.308,25.162-7.004,35.261-15.773c9.626,8.669,11.616,19.972,9.261,32.566
		c6.004-0.788,14.012-8.079,16.986-15.678c8.816,5.762,15.683,12.922,17.899,23.488c10.866-0.85,16.708-8.559,22.535-15.524
		c7.241-8.656,15.062-11.915,25.861-8.872c3.023,19.421-5.21,34.963-17.197,49.063c-3.366,3.962-7.431,7.35-11.307,10.855
		c-5.284,4.776-5.921,11.314-7.016,17.705c-3.029,17.66-12.598,31.213-27.066,41.159c-9.433,6.484-19.718,11.714-29.37,17.896
		c-4.337,2.778-8.708,6.01-11.813,10.007c-1.782,2.295-1.188,6.527-1.412,9.903c-0.102,1.532,0.408,3.105,0.64,4.66
		c-0.551,0.248-1.102,0.495-1.653,0.743c-1.081-1.692-2.909-3.296-3.125-5.092c-1.585-13.18-4.611-26.447,1.033-39.458
		c0.386-0.888,0.563-1.89,0.697-2.858c0.113-0.812,0.023-1.651,0.023-3.509c-8.566,0.474-17.275-0.328-25.221,1.765
		c-7.559,1.991-14.319,7.007-22.613,11.307c1.982-3.552,3.099-7.203,5.501-9.517c5.197-5.004,6.183-11.367,7.352-17.838
		c2.817-15.581-7.115-23.481-18.45-30.368c-23.835-14.48-47.372-11.414-69.746,2.864c-21.872,13.956-39.293,32.514-50.99,55.906
		c-3.246,6.494-5.344,13.566-7.886,20.403c-2.531,6.811-5.31,13.561-7.28,20.535c-0.944,3.341-0.219,7.14-0.349,10.729
		c-0.185,5.073-0.385,10.15-0.769,15.21c-0.072,0.948-1.038,1.829-1.907,3.263c-9.771-12.027-16.152-25.297-22.584-39.527
		c-15.828,14.969-22.832,34.185-29.152,53.755c-6.39,19.783-6.347,39.877-1.597,60.159c-0.562,0.169-1.124,0.337-1.687,0.506
		c-2.012-2.646-4.409-5.086-5.955-7.979c-3.29-6.158-6.626-12.374-9.016-18.907c-1.952-5.332-2.56-11.156-3.513-15.598
		c-0.047,0.18-0.467,1.789-0.886,3.399c-0.464,0.095-0.927,0.19-1.39,0.285c-1.979-5.188-3.96-10.379-6.107-16.007
		c-9.699,8.179-17.108,17.964-22.813,28.823c-5.491,10.454-9.855,21.498-14.612,32.056c-0.194-0.701-0.479-1.727-1.035-3.726
		c-0.688,1.521-1.233,2.146-1.198,2.737c0.652,11.154-0.68,22.253-0.819,33.361c-0.103,8.145,1.905,16.325,3.096,24.473
		c0.363,2.484,1.514,4.896,1.581,7.362c0.042,1.507-0.96,3.483-2.148,4.395c-0.59,0.451-3.283-0.63-3.961-1.694
		c-6.394-10.038-12.752-20.111-18.693-30.421c-2.479-4.301-3.926-9.196-6.201-14.69c-2.291,1.889-4.614,3.15-6.014,5.081
		c-4.157,5.734-8.038,11.677-11.853,17.648c-2.206,3.452-3.917,7.223-6.185,10.629c-0.815,1.225-2.608,1.799-3.237,2.206
		c0.058,1.275,0.488,2.485,0.093,3.292c-5.519,11.25-7.491,23.341-8.732,35.631c-0.974,9.647-2.191,19.272-3,28.934
		c-0.247,2.957,0.746,6.002,0.69,8.998c-0.03,1.609-1.082,3.198-1.672,4.797c-1.323-0.814-3.127-1.324-3.874-2.503
		c-1.847-2.915-3.593-6.009-4.685-9.263c-2.018-6.016-6.36-10.612-9.148-16.119c-1.265-2.495-2.092-5.212-3.052-7.664
		c-0.043,0.072-0.395,0.68-0.959,1.653c-1.674-3.56-3.25-6.908-4.998-10.621c-7.212,3.229-11.485,8.992-16.036,14.35
		c-3.421,4.027-6.663,8.238-9.606,12.621c-1.017,1.514-0.579,3.929-1.342,5.701c-6.764,15.719-11.354,31.972-12.365,49.123
		c-0.409,6.946-0.639,13.903-0.991,20.854c-0.08,1.588-0.323,3.166-0.502,4.857c-8.015-0.028-8.75-7.097-11.876-11.289
		c-3.551-4.763-6.156-10.279-8.796-15.652c-1.862-3.79-2.987-7.936-4.645-11.836c-2.001-4.71-4.273-9.307-6.318-13.999
		c-0.829-1.903-1.498-3.901-1.976-5.919c-0.183-0.771,0.375-1.716-0.769-0.508c-0.617-1.795-1.446-3.548-1.817-5.393
		c-2.814-14.012-5.587-28.032-8.203-42.082c-0.214-1.152,0.837-2.541,1.329-3.896c-3.515-2.198-2.035-6.49-1.881-10.109
		c0.308-7.247,1.162-14.471,1.788-21.672c-3.23,1.175-5.904,2.915-8.628,2.998c-9.403,0.289-18.825,0.013-28.239-0.072
		c-9.057-0.082-18.141-0.62-27.159-0.071c-3.297,0.201-6.429,2.972-9.655,4.532c-2.884,1.395-5.794,2.739-8.693,4.106
		c-0.497-0.445-0.995-0.891-1.492-1.336c1.873-3.63,3.408-7.491,5.694-10.84c4.011-5.879,4.117-12.184,3.53-18.895
		c-1.386-15.848-3.305-31.791,2.461-47.248c1.261-3.378,3.279-6.472,4.441-8.718c-10.823,3.054-22.167,6.572-33.691,9.341
		c-4.276,1.027-8.995,0.604-13.476,0.303c-12.458-0.84-24.882-1.812-37.005,2.417c-0.426,0.148-1.113-0.644-1.671-0.63
		c-0.692,0.017-1.375,0.415-2.063,0.648c2.668,5.664-2.646,3.183-4.411,4.324c-2.423,1.568-4.843,3.141-7.209,4.675
		c-2.834-3.172-1.346-5.419,0.337-7.863c5.908-8.584,10.162-17.963,11.634-28.305c1.362-9.56,2.346-19.199,2.931-28.837
		c0.47-7.748,0.095-15.549,0.095-22.201c-18.943,1.575-37.762,3.141-58.832,4.894c-4.368,2.025-11.075,5.208-17.878,8.168
		c-0.631,0.274-2.164-0.65-2.739-1.421c-0.395-0.529-0.174-1.994,0.31-2.633c5.21-6.886,5.196-15.581,8.139-23.244
		c0.864-2.249,1.326-4.686,1.669-7.079c0.084-0.588-1.434-1.295-1.524-2.032c-2.15-17.367-4.478-34.778,5.681-50.77
		c0.539-0.849,1.162-1.644,1.907-2.69c-0.778-0.291-1.679-0.983-2.173-0.763c-15.778,7.043-32.507,4.642-48.888,4.509
		c-6.912-0.057-11.735,3.938-17.62,5.731c-5.504,1.679-11.017,3.328-16.525,4.991c-0.306-0.555-0.612-1.108-0.918-1.662
		c0.59-1.151,1.18-2.304,1.972-3.848c0.359,1.333,0.564,2.097,0.954,3.543c3.784-9.544,9.633-17.438,8.808-28.109
		c-0.599-7.738,1.016-15.663,1.856-23.482c0.139-1.295,1.367-2.475,1.994-3.54c-0.914-5.185,2.17-9.879,3.911-14.94
		c-7.906-1.53-14.56,0.697-21.016,4.479c-2.394,1.401-5.311,1.907-8.21,2.897c-1.539-5.317,2.438-6.33,4.549-8.409
		c4.358-4.293,8.838-8.462,13.5-12.902c-33.897-8.407-64.445-20.482-87.934-49.023c3.105-0.236,5.052-0.745,6.881-0.468
		c12.801,1.941,25.463,0.952,38.122-1.282c3.234-0.571,6.771,0.087,9.826-0.894c3.633-1.166,6.849-3.583,10.33-5.285
		c3.536-1.729,7.148-3.313,10.788-4.814c0.955-0.394,2.136-0.239,3.774-0.388c0.792-0.843,2.052-2.805,3.833-3.968
		c7.133-4.657,14.429-9.066,22.433-14.044c-4.535-2.573-8.045-5.507-12.065-6.659c-10.432-2.989-18.556-9.267-26.357-16.336
		c-1.67-1.515-3.946-2.57-6.125-3.276c-6.441-2.086-9.731-6.61-11.171-13.261c2.3,1.238,4.432,2.067,6.194,3.388
		c8.206,6.15,17.476,4.336,26.55,3.648c8.941-0.68,17.947-1.156,26.761-2.667c9.534-1.635,18.883-4.355,28.307-6.623
		c2.158-0.519,4.357-0.951,6.432-1.711c12.096-4.438,24.159-8.962,36.79-13.664c-8.203-4.703-15.646-8.851-22.959-13.214
		c-3.648-2.177-7.139-4.644-10.52-7.217c-0.8-0.609-0.872-2.176-1.042-2.647c-8.932-3.417-15.343-9.517-21.216-16.236
		c-0.85-0.973-0.516-2.981-0.868-5.503c2.535,1.535,4.42,2.046,5.223,3.269c3.938,5.991,10.702,6.83,16.382,7.243
		c11.403,0.83,22.941-0.332,34.425-0.443c16.378-0.159,32.045-4.977,47.851-8.118c14.81-2.943,29.742-7.366,43.169-16.183
		c-2.406-0.744-4.622-1.293-6.732-2.111c-4.89-1.894-9.775-3.816-14.581-5.915c-7.748-3.387-15.734-6.39-23.051-10.558
		c-6.665-3.796-12.632-8.845-18.782-13.509c-2.185-1.657-2.796-3.82-0.861-5.464c5.959,2.996,11.19,6.626,16.984,8.3
		c8.271,2.389,16.855,2.655,25.655,1.696c18.723-2.042,37.385-4.074,55.513-9.491c12.688-3.792,25.187-8.011,36.595-14.935
		c1.563-0.949,3.262-1.675,5.582-2.85C64.453,32.757,44.268,24.733,31.733,6.1c0.99-0.044,2.368-0.423,3.564-0.11
		c10.579,2.766,20.985,6.484,31.718,8.299c13.297,2.248,26.779,3.754,40.417,1.903c7.195-0.977,14.551-0.703,21.815-1.251
		c17.625-1.329,34.646-5.032,50.169-13.064c-8.092-6.74-16.502-13.077-24.083-20.285c-5.303-5.042-9.477-11.273-14.147-16.979
		c-2.337-2.856-4.7-5.692-6.948-8.617c-0.413-0.538-0.329-1.458-0.475-2.201c0.825,0.005,2.011-0.348,2.423,0.066
		c6.959,7.012,16.467,8.84,25.151,12.122c13.33,5.038,27.195,7.916,41.558,8.096c14.987,0.188,29.995,1.24,44.948,0.683
		c9.988-0.372,19.895-2.897,29.897-5.199c-17.428-19.332-35.291-37.464-41.686-63.169c-0.165-0.664,0.771-1.602,1.854-3.68
		c2.098,3.981,3.539,7.133,5.345,10.06c5.564,9.01,14.663,14.256,23.448,18.805c11.515,5.961,24.047,10.11,36.407,14.239
		c11.674,3.901,23.721,6.363,36.212,6.317c11.708-0.043,23.47,1.33,35.111,0.576c12.236-0.792,24.523-2.649,36.479-5.392
		c9.602-2.202,18.736-6.432,28.09-9.729c0.912-0.322,1.974-0.732,2.855-0.554c5.879,1.19,11.784,2.325,17.573,3.876
		c6.739,1.807,13.286,4.369,20.063,5.984c13.924,3.317,28.362,5,41.828,9.585c19.698,6.71,39.732,11.863,59.887,16.742
		c12.229,2.96,24.442,6.009,36.746,8.628c10.079,2.147,10.282,1.75,16.993,8.764c8.892,9.293,17.872,18.545,26.108,28.405
		c3.714,4.446,7.823,5.443,13.019,6.057c14.348,1.696,28.724,3.424,42.916,6.065c11.111,2.067,22.13,5.004,32.892,8.481
		c13.386,4.325,26.545,9.396,39.65,14.533c10.797,4.233,22.125,4.703,33.408,5.838c10.234,1.03,20.439,2.34,31.056,3.573
		c-0.35,14.111-4.216,26.053-12.004,36.725c-0.945,1.295-1.896,2.735-3.182,3.61c-7.615,5.186-7.943,14.05-10.533,21.539
		c-4.626,13.37-13.352,22.772-25.156,29.863c-1.315,0.79-2.736,1.906-3.384,3.227c-5.819,11.879-14.901,20.335-26.81,25.813
		c-3.171,1.46-4.306,3.748-5.783,6.92c-4.058,8.709-8.906,17.169-14.407,25.056c-6.686,9.585-16.012,16.126-27.414,19.431
		c-0.327-0.7-0.654-1.401-0.692-1.483c-5.612,5.211-11.684,1.975-18.01,1.324c5.795-13.015,19.287-22.259,16.874-39.01
		c-2.375,1.733-4.509,2.949-6.224,4.601c-7.109,6.851-15.851,10.612-25.187,12.862c-4.242,1.022-8.853,0.698-13.287,0.603
		c-0.965-0.021-1.895-1.673-2.84-2.575c3.868-0.925,0.946-3.765,1.337-5.586c0.567-2.642-0.2-5.558-0.313-8.361
		c-0.202-4.954-1.679-9.547-6.808-10.883c-5.839-1.521-11.09,0.021-15.47,4.881c-4.163,4.618-8.83,8.885-13.771,12.66
		c-3.241,2.476-5.898,1.383-7.218-3.109C631.157,192.965,628.065,184.41,625.003,175.214z M501.337,219.424
		c-0.872,2.063-1.744,4.126-2.653,6.276c-11.629-7.683-10.33-20.906-15.037-32.377c-2.779,3.556-5.653,6.576-7.762,10.06
		c-5.822,9.62-7.582,20.474-9.052,31.42c-0.624,4.641-1.945,9.189-2.949,13.78c-0.499-0.028-0.997-0.057-1.495-0.085
		c-0.188-1.779-0.562-3.563-0.533-5.337c0.155-9.529,0.924-19.153-6.159-27.071c-0.562-0.627-0.706-2.416-0.229-3.038
		c1.563-2.038,3.638-3.676,5.274-5.667c5.369-6.528,10.371-13.377,16.001-19.668c7.373-8.24,15.042-16.232,22.887-24.028
		c9.71-9.65,19.137-19.729,29.783-28.251c10.416-8.336,22.952-13.346,36.027-16.47c7.981-1.907,16.033-3.527,24.067-5.21
		c4.749-0.995,9.496-2.332,14.297-2.615c2.961-0.174,6.022,1.346,9.038,2.106c-0.069,0.437-0.138,0.873-0.207,1.31
		c-6.058,1.346-12.115,2.692-18.173,4.038c5.226,2.403,10.222,3.698,15.083,5.383c8.884,3.082,17.968,5.792,26.465,9.74
		c16.117,7.489,31.813,15.879,47.812,23.631c10.284,4.983,20.779,9.53,31.213,14.2c4.939,2.212,5.045,2.538,0.992,5.704
		c0.337,0.318,0.674,0.636,1.011,0.953c1.304-1.491,2.607-2.982,3.688-4.219c1.857,0.453,4.003,1.055,6.181,1.494
		c9.84,1.982,19.697,3.942,29.757,1.551c17.494-4.158,32.101-11.68,36.377-31.273c0.156-0.716,1.313-1.314,2.114-1.772
		c8.604-4.918,15.801-11.147,19.064-20.885c1.692-5.054,3.035-10.225,4.656-15.304c0.281-0.881,1.018-1.771,1.787-2.311
		c1.723-1.207,4.228-1.771,5.294-3.352c3.226-4.786,7.533-8.862,9.147-14.763c1.529-5.588,3.752-10.986,5.907-17.146
		c-14.396-0.625-27.198-1.18-40.235-1.747c0.076,6.804,4.282,10.753,8.615,14.144c1.381,1.08,4.686-0.008,7.024-0.502
		c5.896-1.246,12.962,1.19,16.341,6.365c-2.073,0.179-3.807,0.207-5.493,0.504c-2.845,0.502-6.6,0.618-6.77,4.201
		c-0.08,1.679,2.785,3.492,4.302,5.256c0.298,0.347,0.528,0.75,0.685,0.977c-2.378,4.888-7.156,2.402-10.515,3.802
		c-3.997,1.667-5.296-0.499-7.02-2.855c-4.293-5.871-7.832-12.518-13.006-17.46c-6.774-6.472-14.638-11.692-22.782-16.708
		c-16.815-10.354-34.908-14.394-54.071-15.138c-7.474-0.291-14.998,0.461-22.488,0.915c-6.293,0.383-12.685,0.446-18.825,1.68
		c-10.033,2.014-19.925,4.762-29.824,7.396c-7.377,1.961-15.098,3.331-21.913,6.553c-14.586,6.894-28.694,14.802-42.973,22.343
		c-1.503,0.794-2.835,1.909-4.637,3.141c5.165,2.672,11.702-3.57,16.394,4.031c-4.736-0.262-8.311-0.874-11.809-0.577
		c-12.556,1.065-24.621,4.385-36.098,9.473c-18.961,8.404-37.496,17.665-54.985,28.907c-13.594,8.738-25.59,19.129-33.628,33.354
		c-3.577,6.331-7.779,12.447-8.474,20.154c-0.755,8.37-6.481,14.373-11.112,20.796c-0.777,1.077-2.682,1.341-4.777,2.311
		c0.531-1.364,0.67-1.795,0.86-2.2c5.924-12.653,13.004-24.926,17.323-38.103c2.348-7.16,4.772-13.56,9.321-19.542
		c14.42-18.961,31.888-33.778,54.608-41.8c11.379-4.017,22.812-7.885,34.169-11.958c5.553-1.99,11.396-3.69,14.2-8.222
		c-8.439-4.551-17.183-7.94-24.307-13.43c-9.878-7.612-18.319-17.057-27.787-25.24c-7.929-6.853-16.868-11.713-28.008-11.197
		c-3.873,0.181-7.808-0.966-11.714-1.507c0.014-0.607,0.028-1.215,0.043-1.823c10.04-1.185,20.052-2.827,30.127-3.456
		c20.188-1.26,40.401-2.233,60.62-2.817c16.516-0.477,33.052-0.205,49.577-0.288c4.729-0.023,6.752-2.239,6.517-6.917
		c-0.307-6.061-3.233-10.86-7.712-14.555c-7.416-6.119-16.436-7.953-25.746-8.496c-19.603-1.142-38.355,4.243-57.383,7.562
		c-7.877,1.374-15.803,2.71-23.762,3.277c-5.993,0.427-10.873-3.463-11.391-8.369c10.941,6.73,21.854,3.164,32.206-0.193
		c13.209-4.283,25.932-10.069,38.864-15.208c1.722-0.684,3.444-1.37,5.166-2.055c0.039-0.454,0.078-0.909,0.117-1.363
		c-6.081-2.56-12.004-5.629-18.273-7.582c-18.748-5.837-38.136-4.239-57.308-3.678c-12.285,0.359-24.176-0.735-35.731-4.698
		c-2.635-0.903-4.768-3.265-7.132-4.955c7.919-0.238,15.189,1.157,22.439,1.058c7.021-0.097,14.022-1.73,21.034-2.689
		c-2.467-1.752-4.582-2.672-6.792-3.075c-13.188-2.404-26.394-4.714-39.605-6.994c-3.12-0.539-6.467-1.701-9.388-1.076
		c-6.58,1.406-12.897,4.002-19.437,5.658c-10.642,2.693-21.354,5.111-32.073,7.482c-18.602,4.115-37.35,4.422-56.048,1.024
		c-9.705-1.763-19.294-4.281-28.821-6.878c-8.545-2.328-16.934-5.229-26.93-8.358c10.088,12.518,18.725,24.459,33.463,30.516
		c-44.347,4.783-88.179,9.489-133.35,4.487c10.701,9.261,27.917,16.351,40.833,18.161c1.884,0.264,3.636,1.454,5.45,2.215
		c-0.06,0.612-0.119,1.224-0.179,1.836c-4.397,0.84-8.802,1.644-13.191,2.528c-10.42,2.099-20.835,4.227-31.249,6.362
		c-7.179,1.473-14.38,2.861-21.507,4.555c-1.647,0.392-2.913,1.286-3.782-0.854c-1.65,4.226-5.464,3.014-8.609,3.378
		c-17.209,1.99-34.421,3.954-51.638,5.877c-1.642,0.184-3.323,0.024-4.984,0.024c11.203,9.136,24.155,12.927,37.303,15.885
		c13.008,2.926,26.196,5.051,38.5,7.376c3.077-3.337,5.304-5.872,7.659-8.282c4.193-4.29,8.401-8.567,12.758-12.687
		c0.762-0.721,2.282-0.64,3.452-0.929c0.081,1,0.25,2,0.229,2.998c-0.128,6.135-0.634,12.058-8.219,13.78
		c-0.322,0.073-0.518,0.732-0.758,1.127c-5.01,8.238-10.062,16.452-15.011,24.727c-2.985,4.989-5.81,10.073-8.636,14.992
		c2.187,0.795,5.129,2.125,8.21,2.93c6.442,1.684,13.134,2.567,19.406,4.712c16.287,5.571,32.682,5.742,49.04,1.253
		c6.094-1.672,11.663-5.24,17.502-7.872c1.225-0.552,2.588-0.794,5.177-1.561c-1.017,2.583-1.154,4.512-2.167,5.263
		c-11.132,8.265-18.481,18.575-17.797,33.047c0.416,8.821,0.965,17.69,2.364,26.392c0.901,5.607,1.072,10.619-2.025,15.537
		c-1.146,1.821-1.847,3.923-2.942,6.316c2.36-0.678,4.475-0.787,5.982-1.8c9.162-6.151,19.422-4.611,29.297-3.84
		c16.901,1.318,33.197,1.777,46.452-11.562c2.773-2.792,6.83-4.308,10.296-6.412c0.384,0.514,0.767,1.028,1.151,1.543
		c-1.319,1.384-2.746,2.683-3.936,4.172c-2.057,2.575-4.438,5.036-5.856,7.948c-7.86,16.129-9.168,33.011-5.903,50.569
		c0.882,4.743,0.38,9.993-0.631,14.768c-0.981,4.629-3.434,8.946-5.07,12.981c4.291-1.747,8.645-4.639,13.273-5.186
		c12.255-1.444,24.688-1.385,36.934-2.882c8.006-0.978,16.163-2.158,23.456-6.456c6.772-3.993,10.999-9.97,14.891-18.134
		c1.399,11.36,2.063,21.137-3.533,30.169c-1.372,2.212-3.349,4.07-4.588,6.341c-4.503,8.252-2.821,17.204-2.761,26.002
		c0.055,7.827,0.4,15.767-0.74,23.456c-1.16,7.825-3.978,15.404-6.022,22.921c3.145-1.545,6.162-3.586,9.492-4.553
		c8.934-2.598,18.024-4.645,27.005-7.083c7.88-2.139,15.696-4.514,23.491-6.771c0.109,0.569,0.327,1.705,0.545,2.84
		c0.154-8.228,8.159-8.579,12.232-13.164c0.288,1.771,0.488,3.003,0.465,2.854c1.372-2.307,3.304-5.262,4.937-8.372
		c1.795-3.419,3.452-6.926,4.913-10.499c1.225-2.994,2.08-6.14,3.1-9.217c1.959,1.105,2.799,1.88,2.848,2.7
		c0.634,10.672-3.269,20.078-9.33,28.387c-7.406,10.15-17.84,16.553-29.594,20.719c-4.885,1.73-9.733,2.039-10.786,9.414
		c-1.197,8.386-6.221,16.253-7.244,24.631c-1.653,13.535-1.619,27.301-1.818,40.977c-0.065,4.484,1.36,8.991,2.104,13.489
		c2.534-3.852,3.776-7.694,5.523-11.295c3.95-8.145,7.965-16.269,12.298-24.213c4.051-7.426,8.083-14.941,12.982-21.803
		c4.438-6.215,10.098-11.551,15.11-17.368c4.882-5.665,11.563-9.102,17.278-13.704c6.107-4.918,13.572-8.39,20.855-11.547
		c8.919-3.867,18.273-6.244,28.261-6.237c8.499,0.006,16.778,0.477,24.839,3.301c9.966,3.492,18.788,9.032,26.536,16.021
		c4.314,3.891,8.31,8.551,11.102,13.608c3.22,5.831,4.955,12.483,7.428,19.024c0.938-0.156,2.722-0.823,4.428-0.664
		c4.436,0.413,8.82,1.402,13.258,1.769c5.571,0.461,10.561-0.482,15.219-4.479c4.63-3.971,6.332-8.449,6.35-14.646
		c2.22,1.729,4.251,3.552,4.958,5.792c4.617,14.646-2.326,25.282-12.827,34.761c8.883-3.221,17.647-6.152,25.553-10.608
		c17.808-10.036,27.572-25.212,27.758-46.233c0.044-4.848-1.882-7.254-5.78-8.204c-8.882-2.167-16.917-5.511-23.526-12.188
		c-3.65-3.688-8.565-5.241-13.69-6.81c-6.222-1.906-11.806-6.002-17.546-9.356c-17.269-10.097-34.497-20.263-51.697-30.477
		c-3.357-1.995-7.784-3.225-7.522-8.543c-0.297,1.022-0.595,2.043-1.225,4.207c-1.308-2.149-2.084-3.424-2.859-4.699
		c-2.598-0.251-4.944-1.255-6.972-2.706c-7.827-5.607-16.887-9.586-22.861-17.654c-4.552-6.147-9.401-12.075-14.072-18.135
		c-1.782-2.313-3.432-4.726-5.608-7.739c-2.921,7.797-1.883,14.2,0.127,20.534c0.638,2.008,1.643,3.9,2.479,5.845L501.337,219.424z
		 M147.655,390.243c-3.784,0.788-8.324,1.827-12.9,2.668c-11.319,2.081-23.148,0.902-34.127,5.052
		c-13.666,5.164-25.093,13.179-31.164,27.021c-4.557,10.389-4.099,21.66-4.09,32.63c0.008,10.893,1.348,21.783,2.093,32.523
		c0.33-0.119,1.785-0.831,3.323-1.162c8.083-1.742,16.128-3.786,24.296-4.97c11.848-1.719,24.024-1.763,35.629-4.411
		c13.448-3.068,20.84-11.955,20.069-26.694c-0.25-4.771-2.404-9.419-3.419-14.181c-1.593-7.473-4.215-15.014-4.092-22.488
		C143.416,407.6,146.064,399.012,147.655,390.243z M54.224,578.718c5.69,0,11.931,0.07,18.168-0.018
		c8.664-0.121,17.455,0.502,25.958-0.761c11.423-1.696,21.546-7.383,30.436-14.592c11.38-9.228,18.375-21.083,18.11-36.278
		c-0.083-4.765-0.932-9.525-0.895-14.283c0.066-8.553,0.538-17.103,0.84-25.637c-2.106,1.298-4.517,3.367-7.31,4.401
		c-11.522,4.267-23.561,5.564-35.788,5.752c-6.702,0.102-13.936-0.849-19.985,1.316c-13.056,4.671-22.629,14.18-26.949,27.544
		c-3.928,12.152-2.728,24.749-1.082,37.319C56.358,568.289,54.817,573.379,54.224,578.718z M91.561,384.68
		c7.401-1.138,15.891-2.676,24.442-3.69c8.203-0.974,16.529-0.996,24.698-2.157c16.074-2.284,27.642-15.195,32.238-29.654
		c2.934-9.234,2.86-18.748,3.033-28.277c0.185-10.183,2.382-19.968,6.63-29.268c0.613-1.343,0.966-2.805,1.789-5.253
		c-5.477,1.777-9.689,3.438-14.049,4.476c-4.256,1.013-8.644,1.709-13.007,1.982c-10.887,0.683-21.762-0.934-32.45,3.956
		c-18.962,8.674-35.252,24.744-32.164,49.66c0.61,4.924,2.315,9.864,2.031,14.709C94.273,369.321,92.606,377.41,91.561,384.68z
		 M237.51,365.925c-9.103,0-18.045-0.028-26.986,0.007c-14.664,0.057-27.869,2.753-38.454,14.748
		c-9.998,11.328-15.083,23.995-15.896,38.699c-0.205,3.7-1.038,8.461,0.815,10.947c3.577,4.803,4.323,10.355,5.668,15.525
		c1.877,7.205,1.865,14.9,2.495,20.823c8.73-3.42,18.617-7.711,28.796-11.13c6.589-2.213,13.858-2.459,20.367-4.837
		c7.41-2.708,14.136-6.915,16.651-15.403c1.635-5.518,4.651-10.829,5.209-16.416c0.884-8.843,0.359-17.843,0.153-26.77
		c-0.081-3.491-1.505-7.007-1.269-10.438C235.437,376.247,236.697,370.876,237.51,365.925z M262.024,445.914
		c-4.569,1.001-8.5,1.896-12.446,2.719c-8.764,1.827-15.938,6.65-23.399,11.348c-11.661,7.338-25.52,9.018-38.457,13.092
		c-5.525,1.74-11.362,4.238-15.573,8.037c-8.918,8.045-11.919,19.143-10.984,30.811c0.867,10.829,2.723,21.557-0.079,32.67
		c4.277-1.296,8.181-2.784,12.218-3.641c10.219-2.167,20.656-3.466,30.707-6.207c10.96-2.989,22.295-5.738,31.154-13.579
		c5.189-4.594,10.116-9.532,14.752-14.683c2.808-3.121,4.835-6.945,7.108-10.3c0-5.665-0.353-11.3,0.098-16.868
		c0.468-5.792,1.741-11.518,2.606-17.281C260.518,456.774,261.23,451.506,262.024,445.914z M-26.063,508.868
		c5.122-0.623,10.605-1.412,16.116-1.897c2.258-0.198,4.571,0.364,6.862,0.406c6.918,0.128,14.004,1.146,20.716,0.008
		c9.339-1.587,16.635-7.952,24.071-13.496c2.674-1.993,5.16-4.4,7.233-7.015c6.292-7.927,3.263-17.673,4.586-26.556
		c0.669-4.487-0.876-9.26-0.96-13.912c-0.182-9.999,0.351-19.934,4.891-28.386c-9.892,0.167-19.737,0.277-29.581,0.521
		c-4.925,0.123-10.192-0.528-14.682,0.999c-5.993,2.039-11.624,5.489-16.957,9.019c-4.826,3.191-9.877,6.663-13.329,11.161
		c-5.041,6.569-7.106,14.678-6.911,23.088c0.136,5.852,1.17,11.724,0.839,17.531C-23.701,489.739-25.028,499.094-26.063,508.868z
		 M118.143,288.979c3.382-1.107,6.363-2.103,9.355-3.06c7.648-2.445,15.83-1.277,23.56-3.767c7.138-2.299,14.797-3.012,21.892-5.412
		c8.994-3.042,17.087-7.947,23.529-15.174c0.321,0.826,0.649,1.671,0.65,1.675c1.164-2.605,2.472-5.499,3.752-8.405
		c3.527-8.013,1.854-16.477,2.148-24.772c0.264-7.418-0.138-14.963,1.145-22.206c0.952-5.373,4.133-10.35,7.07-17.268
		c-9.169,7.851-18.913,5.174-28.073,5.163c-13.193-0.017-25.776,1.78-37.277,8.354c-4.344,2.483-8.907,5.437-11.873,9.321
		c-9.105,11.923-10.055,26.382-11.096,40.692C122.085,265.696,123.796,277.608,118.143,288.979z M54.886,313.207
		c1.415-0.162,2.387-0.203,3.329-0.4c1.111-0.229,2.185-0.632,3.292-0.894c14.889-3.531,29.331-8.083,39.417-20.597
		c4.372-5.423,8.142-11.307,8.093-18.869c-0.033-5.315,0.276-10.68,1.015-15.94c1.361-9.705,3.223-19.341,4.649-29.038
		c0.136-0.927-1.602-3.092-1.998-2.982c-3.672,1.021-7.209,2.514-10.847,3.675c-4.058,1.294-8.165,2.445-12.281,3.546
		c-3.408,0.913-6.951,0.318-10.444,0.744c-3.848,0.47-7.917-0.868-11.766-0.402c-11.665,1.412-21.409,6.235-29.013,15.781
		c-9.785,12.284-9.916,26.867-11.411,41.236c-0.683,6.559-0.871,13.196-2.013,19.669c-0.838,4.761-2.86,9.314-4.132,13.269
		c10.845-2.908,21.824-5.854,32.932-8.832c0.2,2.125,0.365,3.877,0.53,5.629c0.216-0.032,0.432-0.063,0.648-0.095
		C54.886,317.058,54.886,315.408,54.886,313.207z M370.195,241.94c-2.038,0-5.279-0.167-8.495,0.039
		c-4.891,0.313-9.786-0.487-14.529,2.514c-2.185,1.381-6.164,0.49-9.151-0.172c-1.765-0.392-3.211-0.813-5.112-0.459
		c-15.399,2.87-30.073,7.592-41.704,18.533c-4.291,4.036-8.551,8.608-8.454,15.714c0.078,5.829-1.139,11.711-2.115,17.514
		c-1.697,10.078-3.652,20.113-5.517,30.267c2.399-0.856,5.283-2.549,8.301-2.84c9.367-0.902,18.786-1.258,28.184-1.853
		c8.007-0.507,16.179-0.222,23.972-1.797c8.757-1.77,16.271-6.925,23.543-12.13c2.98-2.135,5.71-4.059,5.879-8.392
		c0.431-11.016,1.012-22.038,1.991-33.017C367.725,257.592,369.172,249.384,370.195,241.94z M273.809,263.636
		c0.131-0.036-0.431,0.151-1.006,0.27c-7.941,1.634-15.832,3.652-23.85,4.729c-4.436,0.597-9.284-1.346-13.594-0.449
		c-8.016,1.668-16.235,2.421-23.616,7.179c-17.885,11.528-23.695,29.06-24.51,48.632c-0.474,11.37,0.729,22.767-4.363,34.771
		c10.932-6.951,22.038-7.128,33.266-6.881c5.814,0.129,11.681,0.268,17.444-0.346c9.211-0.983,14.368-8.271,20.211-14.262
		c3.106-3.184,6.624-6.361,8.54-10.24c7.403-14.985,7.698-31.412,8.819-47.666C271.51,274.168,272.868,269.032,273.809,263.636z
		 M207.824,265.219c2.445-1.238,3.42-1.854,4.477-2.247c9.393-3.499,19.055-5.017,29.131-5.165
		c11.625-0.172,23.446-0.042,34.282-5.632c0.577-0.298,1.968,0.98,2.834,1.446c0.657-1.412,1.027-4.028,2.514-5.107
		c11.874-8.632,15.222-21.302,15.59-34.688c0.255-9.24-1.819-18.539-2.772-27.819c-0.302-2.934-0.346-5.894-0.518-9.028
		c-0.795,0.313-1.537,0.871-2.265,0.854c-9.62-0.24-19.238-0.639-28.86-0.821c-3.786-0.072-7.694-0.231-11.351,0.557
		c-12.389,2.67-20.95,9.856-28.462,20.449c-7.817,11.024-7.82,22.951-9.322,34.938c-0.933,7.443-0.563,15.043-1.346,22.514
		C211.457,258.33,209.578,261.025,207.824,265.219z M-5.83,412.475c13.782-5.021,28.106-4.558,42.21-5.459
		c11.669-0.743,22.555-3.436,32.003-10.446c2.773-2.058,5.011-4.977,7.1-7.791c7.329-9.881,6.775-21.425,6.491-32.84
		c-0.233-9.391-0.762-18.773-0.974-28.164c-0.055-2.431,0.587-4.877,0.938-7.536c-3.38,1.008-6.138,2.087-8.997,2.642
		c-12.626,2.45-25.38,4.329-37.89,7.256c-7.907,1.852-14.79,6.47-20.692,12.064C4.25,351.781,2.03,365.155,0.812,377.704
		C-0.337,389.562-2.29,400.969-5.83,412.475z M274.215,338.888c-0.633,0.701-1.629,2.327-3.064,3.312
		c-8.415,5.769-14.961,12.603-18.905,22.548c-4.587,11.564-4.354,23.391-4.582,35.214c-0.235,12.224,1.669,24.526-2.683,36.676
		c4.56-0.915,8.754-2.002,13.016-2.563c9.09-1.197,18.19-2.566,27.331-3.064c19.158-1.043,33.705-10.381,45.303-24.764
		c3.755-4.655,5.839-10.569,5.403-17.079c-14.613,1.886-27.139,7.25-37.447,17.474c-0.937,0.929-2.738,0.986-4.139,1.448
		c-0.464-0.393-0.928-0.785-1.393-1.178c1.267-2.808,2.464-5.65,3.818-8.415c1.262-2.578,3.06-4.947,3.977-7.629
		c3.345-9.781,3.274-19.917,3.224-30.145c-0.043-8.873,1.209-17.75,1.891-26.67c-9.937-1.423-19.314,1.034-28.498,4.791
		C276.65,339.178,275.58,338.888,274.215,338.888z M71.228,220.143c8.365-0.446,16.291-0.063,23.883-1.477
		c9.7-1.805,18.534-6.638,26.007-12.947c6.799-5.74,16.75-9.613,16.1-21.26c-0.054-0.965,1.071-1.974,1.578-2.997
		c1.514-3.05,3.849-5.557,3.397-9.622c-0.445-4.002,0.505-8.167,0.898-12.255c0.621-6.456,1.29-12.908,1.998-19.956
		c-3.025,0.8-5.166,1.519-7.365,1.92c-9.811,1.792-19.542,4.321-29.566,0.582c-6.156-2.295-11.809-0.401-16.711,3.817
		c-0.751,0.646-1.411,1.535-2.283,1.882c-15.561,6.196-21.566,20.077-27.127,34.111c-2.906,7.335-4.696,15.104-7.359,22.546
		c-1.627,4.544-3.956,8.838-5.83,12.937c6.966,0.785,13.853,1.561,20.76,2.34c0.254,1.775,0.433,3.019,0.611,4.264
		c0.156-0.005,0.313-0.009,0.468-0.013C70.862,222.761,71.038,221.505,71.228,220.143z M-96.601,436.871
		c1.232,0,2.38,0.077,3.514-0.015c3.72-0.302,7.595-0.129,11.105-1.169c2.955-0.875,5.725,1.43,8.762-0.538
		c1.429-0.926,4.243,0.138,6.393,0.507c8.157,1.401,15.594-1.817,23.258-3.542c13.187-2.967,22.425-10.504,25.45-23.963
		c2.966-13.196,5.113-26.577,7.607-39.881c0.225-1.199,0.321-2.424,0.559-3.621c0.199-1.009,0.516-1.995,0.78-2.991
		c-1-0.041-2.039-0.279-2.992-0.087c-3.505,0.706-6.948,2.015-10.475,2.267c-12.346,0.883-24.779,0.882-37.054,2.304
		c-6.626,0.768-13.399,0.741-19.919,4.277c-7.384,4.007-11.198,9.862-12.263,17.225c-1.7,11.757-2.133,23.695-3.177,35.55
		C-95.438,427.563-96.033,431.913-96.601,436.871z M14.625,286.431c-7.157,0.952-12.974,1.89-18.827,2.471
		c-12.251,1.215-23.984-2.496-35.956-3.975c-2.203-0.272-4.635-0.175-6.735,0.479c-9.121,2.846-15.599,9.131-20.835,16.843
		c-5.342,7.867-7.998,16.355-7.452,26.095c0.482,8.604-0.26,17.275-0.454,25.6c8.664,0,18.272-0.349,27.845,0.094
		c10.431,0.482,20.554-0.604,29.917-5.181c7.895-3.859,15.368-8.586,22.983-13.006c0.784-0.456,1.26-1.445,2.399-2.812
		c-3.673,0.874-6.391,1.52-9.108,2.166c-0.457-0.506-0.913-1.013-1.37-1.519c7.608-4.832,13.263-11.243,14.76-19.796
		C13.373,304.86,13.73,295.615,14.625,286.431z M215.762,178.659c0.193-0.67,0.155-2.241,0.875-2.761
		c4.42-3.194,6.664-7.964,7.369-12.805c0.968-6.642,1.573-13.725,0.288-20.214c-1.917-9.684-4.627-19.237-2.112-29
		c1.125-4.373-0.213-4.683-3.745-4.991c-8.974-0.778-17.91-1.974-26.876-2.855c-2.811-0.276-6.075-1.002-8.439,0.044
		c-14.128,6.25-22.703,17.53-26.02,32.323c-1.745,7.784-1.067,16.087-2.472,23.979c-1.584,8.895-4.279,17.592-6.262,25.468
		c9.681-0.588,20.492-1.746,31.307-1.766c12.027-0.022,23.598-0.911,33.822-8.096C213.866,177.727,214.871,178.375,215.762,178.659z
		 M187.843,552.479c-6.355,1.939-13.563,4.191-20.802,6.335c-15.264,4.517-25.429,14.896-32.792,28.473
		c-0.983,1.814-1.875,3.793-2.253,5.8c-2.557,13.575-3.365,27.147-1.17,40.945c2.37,14.904,5.34,29.557,11.922,43.254
		c1.754,3.649,3.629,7.24,5.862,11.677c0.589-4.558,0.824-8.011,1.505-11.371c3.823-18.849,12.756-35.326,23.848-50.769
		c1.74-2.422,3.496-4.9,5.633-6.946c1.406-1.348,2.415-4.957,5.056-2.613c0.907-1.364,1.575-3.12,2.839-4.14
		c4.882-3.937,8.191-8.347,6.458-15.106c-1.024-3.992-2.085-8.018-2.577-12.096C190.071,575.146,189.071,564.331,187.843,552.479z
		 M-49.609,272.687c3.802,0.707,7.489,1.206,11.081,2.093c13.693,3.379,27.246,5.024,40.845-0.754
		c7.202-3.061,15.383-4.43,15.813-14.832c0.112-2.712,1.626-5.65,3.242-7.962c5.1-7.298,10.553-14.349,16.148-21.868
		c-5.955,1.176-12.137,2.396-18.318,3.616c-0.307-0.479-0.613-0.96-0.921-1.44c2.075-2.157,3.987-4.507,6.264-6.423
		c3.206-2.699,7.788-4.405,9.809-7.732c3.921-6.459,9.627-12.362,9.182-20.981c-0.138-0.057-0.563-0.343-1.012-0.386
		c-0.648-0.063-1.393-0.132-1.961,0.114c-9.069,3.926-18.088,2.729-27.205,0.075c-3.54-1.031-7.473-2.46-10.896-1.851
		c-18.465,3.288-31.821,18.511-34.684,37.029c-1.57,10.163-2.629,20.762-9.69,29.354C-44.87,264.339-47.017,268.604-49.609,272.687z
		 M-77.872,282.425c0.005-0.493,0.011-0.988,0.017-1.482c11.85-5.947,17.943-16.608,23.842-27.991
		c-1.322-0.432-2.185-0.845-3.091-0.989c-12.997-2.057-26.009-4.023-39-6.121c-12.698-2.051-24.69-1.399-34.685,8.524
		c-1.042-7.791,3.081-13.285,8.819-19.349c-9.703,2.85-16.642,7.544-20.922,15.02c-4.586,8.011-8.331,16.535-12.024,25.016
		c-3.217,7.388-5.853,15.029-8.715,22.482c13.425,1.81,26.87,3.618,40.312,5.436c7.762,1.05,15.424,0.917,22.897-1.783
		c7.7-2.782,15.61-5.09,23.037-8.469c3.52-1.602,6.125-5.213,9.243-8.003C-72.012,283.805-74.942,283.114-77.872,282.425z
		 M-13.472,178.403c7.693,1.616,14.404,2.83,21.013,4.461c8.914,2.201,17.743,4.293,27.08,4.218
		c7.87-0.063,13.343-4.336,15.273-11.137c3.864-13.607,12.781-23.115,23.676-31.3c3.277-2.462,6.272-5.301,9.413-7.981
		c-7.772-3.154-15.261-3.466-23.015-1.46c-1.834,0.474-4.142-0.881-5.944-1.323c4.943-6.618,9.475-12.326,13.535-18.35
		c1.163-1.726,1.18-4.365,1.246-6.599c0.021-0.666-1.549-1.945-2.429-1.98c-4.929-0.198-9.873-0.19-14.808-0.084
		c-6.92,0.148-14.377-1.144-20.649,0.989c-15.68,5.332-24.312,18.466-28.635,33.399C-1.466,154.201-2.968,167.733-13.472,178.403z
		 M170.558,101.412c-14.404-3.049-27.581-6.236-40.984-0.84c-0.847,0.341-2.23-0.647-3.365-1.016
		c0.387-1.138,0.443-2.647,1.224-3.341c2.057-1.83,5.061-2.861,6.569-4.999c7.553-10.705,14.747-21.662,21.627-31.878
		c-9.262-0.687-18.371-0.166-26.788-2.335c-7.754-1.999-13.789-0.878-19.918,3.442c-6.832,4.814-12.109,11.005-15.895,18.365
		c-3.278,6.373-6.466,12.845-9.001,19.537c-3.32,8.766-0.548,19.327-8.137,26.64c8.201,1.337,16.006,2.61,23.344,3.806
		c0.523,3.974,0.962,7.306,1.401,10.638c0.605-0.05,1.211-0.1,1.816-0.148c0-2.992,0-5.984,0-9.484
		c2.443,0.624,4.811,1.423,7.244,1.816c10.821,1.75,21.554,0.674,31.762-2.884c5.362-1.87,10.643-4.689,13.59-10.567
		c1.976-3.94,5.114-7.365,8.078-10.715C164.943,105.394,167.414,103.917,170.558,101.412z M-163.265,362.507
		c8.076-0.916,15.43-2.866,22.592-2.315c12.685,0.976,24.989,0.449,36.801-4.316c7.36-2.97,14.861-6.28,15.873-15.813
		c0.988-9.323,1.936-18.652,2.852-27.982c0.034-0.346-0.453-0.743-0.341-0.572c-2.692,0-5.375-0.823-6.981,0.144
		c-6.642,4.002-14.135,1.347-20.99,3.195c-0.235,0.063-0.683-1.253-1.235-1.609c-0.606-0.39-2.029-0.704-2.105-0.553
		c-1.972,3.912-4.593,2.511-7.36,1.112c-1.205-0.609-2.584-1.043-3.924-1.187c-3.089-0.333-6.202-0.604-9.305-0.604
		c-5.61,0-11.864-2.191-15.756,4.381c-0.331,0.559-2.007,0.321-3.344,0.49C-158.715,331.866-160.969,347.046-163.265,362.507z
		 M358.727,323.075c-9.438,3.32-18.522,7.13-27.954,9.626c-6.81,1.803-11.072,3.736-11.631,10.134
		c-1.067,12.227-1.196,24.536-1.709,36.697c13.961-2.395,26.988-4.722,40.048-6.837c10.491-1.699,19.881-5.905,26.797-13.857
		c9.173-10.551,12.974-23.676,16.004-38.397c-7.764,2.519-14.758,4.181-21.216,7.048c-6.917,3.07-13.957,6.771-13.208,16.379
		c0.025,0.322-0.516,0.687-1.088,1.4C358.147,338.628,359.656,330.133,358.727,323.075z M329.095,426.079
		c-3.211,2.046-5.414,3.808-7.897,4.968c-8.556,4.001-17.069,8.16-25.886,11.505c-4.333,1.645-9.336,1.447-13.944,2.484
		c-1.313,0.296-3.084,1.843-3.332,3.079c-2.204,11.011-5.134,22.013-5.864,33.148c-1.054,16.061-0.851,32.244,3.421,48.057
		c1.534,5.678,2.505,11.507,3.746,17.328c0.376,0,1.317,0,1.566,0c1.106-6.273,1.712-12.345,3.313-18.141
		c2.168-7.848,5.046-15.503,7.739-23.198c0.792-2.265,1.605-4.73,3.14-6.452c1.032-1.16,3.348-1.178,4.897-1.648
		c-0.817-0.564-1.968-1.358-3.381-2.333c3.806-6.244,7.103-12.555,11.282-18.214c3.127-4.231,7.359-8.152,10.231-12.119
		c2.784-3.845,6.1-7.431,9.071-11.146c1.439-1.8,3.888-2.839,3.686-5.597C330.361,440.676,329.719,433.561,329.095,426.079z
		 M-41.932,190.534c7.146-3.931,20.112-19.731,21.09-25.414c-0.931,0.273-1.829,0.637-2.761,0.798
		c-7.777,1.345-15.121,3.433-21.333,8.862c-2.428,2.122-6.084,2.821-9.147,4.24c-3.536,1.638-7.921,2.531-10.385,5.188
		c-7.784,8.395-16.078,16.744-21.754,26.517c-3.902,6.718-7.926,13.063-13.091,18.714c-1.811,1.982-4.44,3.219-7.047,5.041
		c12.35,1.654,22.862,3.11,33.389,4.452c6.009,0.767,12.036,1.72,18.07,1.843c2.856,0.059,6.666,0.272,7.844-4.031
		c1.539-5.625,3.157-11.238,4.991-16.772c3.931-11.855,11.027-21.58,20.43-30.169c-4.479,0.094-9.798-0.677-13.052,1.558
		C-38.233,193.797-39.527,192.81-41.932,190.534z M-182.824,287.38c0.238-0.569,0.63-1.127,0.675-1.712
		c0.049-0.635-0.224-1.294-0.58-3.039c5.084,1.547,9.302,2.829,13.777,4.19c-0.72-1.812-1.675-2.978-1.438-3.798
		c6.778-23.415,16.422-44.941,40.198-57.226c-12.578-5.521-17.889-4.639-26.011,1.612c-6.546,5.038-13.848,9.1-20.895,13.464
		c-0.547,0.338-1.731-0.349-2.223-0.466c-3.875,4.832-10.248,5.965-15.478,8.954c-5.878,3.359-13.155,2.463-18.816,6.449
		c-0.368,0.26-1.829-1.032-2.782-1.603c0.133,0.451,0.266,0.903,0.399,1.354c-2.742,0.793-5.445,1.796-8.237,2.322
		c-3.169,0.598-6.418,0.769-10.152,1.183c3.436,2.721,6.559,5.019,9.486,7.543c10.193,8.792,22.809,12.042,35.373,15.122
		C-185.931,282.613-183.27,283-182.824,287.38z M693.6,176.126c-3.448-2.773-5.992-5.686-9.199-7.172
		c-3.719-1.725-8.346-1.53-12.009-3.328c-14.753-7.236-29.173-15.149-43.934-22.366c-11.938-5.837-23.349-12.792-36.565-15.957
		c-13.305-3.187-25.242,0.98-38.761,5.117c11.179,3.619,16.744,11.209,19.468,20.634c1.104,3.825,2.288,3.942,5.176,2.864
		c1.216-0.453,2.475-0.787,3.702-1.209c15.858-5.456,30.152-3.703,42.52,8.617c1.431,1.425,4.613,1.288,7.016,1.481
		c2.345,0.188,4.783-0.49,7.089-0.154c7.232,1.056,12.939,4.937,18.131,9.95c1.293,1.248,3.941,1.775,5.853,1.569
		c5.324-0.574,10.442-1.553,15.682,1.061c2.351,1.172,5.488,1.116,8.245,1.006C688.136,178.154,690.221,177.115,693.6,176.126z
		 M-174.763,190.601c-1.75,4.74-1.43,7.018,0.698,7.823c4.989,1.89,9.967,3.822,14.854,5.953c0.916,0.398,1.393,1.801,2.132,2.825
		c2.803-1.433,5.078,1.097,7.983,1.965c11.869,3.545,24.28,5.313,36.082,9.034c6.671,2.104,8.249-1.671,11.107-5.565
		c6.636-9.037,13.133-18.248,20.571-26.601c5.354-6.013,12.135-10.757,18.209-16.005c-0.863,0.053-2.26-0.023-3.583,0.247
		c-5.731,1.17-11.432,2.488-17.161,3.669c-10.694,2.207-21.503,3.954-32.068,6.655c-8.639,2.208-16.818,6.431-25.52,8.122
		c-10.233,1.989-20.808,2.231-31.242,3.142C-173.269,191.913-173.908,191.146-174.763,190.601z M0.857,116.019
		c-33.896,11.796-69.137,19.067-106.907,21.026c28.181,18.655,58.558,21.592,89.081,22.012
		C-10.868,144.326-5.01,130.185,0.857,116.019z M217.427,617.09c1.792-7.514,3.549-14.863,5.432-22.105
		c2.837-10.91,7.987-20.22,12.986-29.882c2.562-4.951,8.325-8.266,9.767-12.761c2.153-6.711,7.208-10.41,10.955-15.33
		c4.965-6.522,5.676-10.839,0.861-17.594c-10.728,13.638-41.722,29.537-50.159,27.408c-1.846,11.884-3.611,23.707-1.086,35.85
		C208.657,594.584,211.747,606.173,217.427,617.09z M390.519,370.267c-11.218,7.652-22.789,14.076-36.085,16.777
		c-0.656,0.134-1.183,1.561-1.528,2.477c-2.409,6.367-4.755,12.76-7.12,19.144c-0.396-0.069-0.792-0.14-1.188-0.21
		c-0.388-1.525-0.774-3.049-1.004-3.95c-0.221,10.068-1.271,20.688-0.454,31.161c0.825,10.587,3.498,21.031,5.362,31.538
		c1.893-3.051,2.894-5.969,3.37-8.972c1.88-11.838,5.499-23.057,11.668-33.361c0.726-1.211,2.884-1.597,3.534-2.815
		c1.687-3.163,2.236-7.128,4.435-9.784c5.694-6.882,12.048-13.216,18.089-19.813c0.842-0.919,2.025-2.109,1.997-3.146
		C391.422,383.178,390.938,377.053,390.519,370.267z M-4.005,83.753c25.28,11.681,51.719,12.48,78.336,10.346
		c3.938-16.561,13.367-29.082,24.159-41.06C66.231,69.652,31.861,78.811-4.005,83.753z M514.234,39.377
		c5.66,6.543,14.196,9.798,17.481,17.624c1.433,0.833,2.875,1.444,4.049,2.389c7.337,5.905,14.33,12.286,21.995,17.722
		c6.773,4.805,14.62,5.666,22.392,2.103c6.592-3.022,12.994-6.456,19.879-9.908C572.32,56.303,546.968,37.878,514.234,39.377z
		 M611.726,63.382c1.422-0.234,3.304-0.268,4.983-0.866c13.283-4.739,26.482-9.716,39.799-14.36
		c13.855-4.832,28.31-6.387,42.868-7.198c2.031-0.113,4.057-0.327,6.085-0.494c0.008-0.492,0.017-0.983,0.024-1.476
		c-7.033-0.674-14.054-1.621-21.103-1.947c-7.313-0.338-14.674-0.397-21.978,0.037c-4.97,0.295-8.053-1.586-10.445-5.669
		c-6.606-11.276-14.271-21.804-23.434-31.137c-2.052-2.09-5.057-3.246-7.623-4.833c3.264,8.128,10.899,13.152,9.206,23.31
		c-0.54,3.241,0.961,7.35-0.619,11.027c-1.556,3.617-0.449,6.835,2.6,8.637c3.403,2.014,7.384,3.041,11.075,4.585
		c1.679,0.702,3.268,1.618,6.237,3.111c-3.003,0.935-4.444,1.655-5.944,1.808c-9.392,0.953-16.819-3.857-23.091-8.045
		C617.571,47.48,614.775,55.086,611.726,63.382z M687.092,273.734c-1.148,1.663-1.706,3.404-2.847,3.968
		c-5.914,2.919-12.094,5.313-17.928,8.376c-2.173,1.142-4.196,3.346-5.23,5.56c-0.525,1.124,0.987,3.603,2.143,5.004
		c1.317,1.598,3.106,3.447,4.968,3.824c3.952,0.802,7.89,5.118,12.175,0.486c4.767-5.152,10.554-9.592,14.349-15.359
		c5.002-7.602,8.582-16.155,12.526-24.418c0.467-0.978-0.62-2.696-0.986-4.071c-1.011,0.352-2.35,0.406-2.976,1.104
		c-3.78,4.204-7.258,8.687-11.144,12.785C690.814,272.392,688.6,272.949,687.092,273.734z M544.717,175.2
		c5.774-4.935,11.188-9.864,16.95-14.342c2.47-1.919,2.411-3.547,1.589-6.163c-2.423-7.712-8.609-10.791-15.525-12.602
		c-6.494-1.7-11.084,1.469-11.805,7.556C534.731,159.736,536.821,168.722,544.717,175.2z M737.202,188.963
		c-1.579,7.1-2.443,13.966-4.707,20.335c-2.231,6.28-5.878,12.06-9.25,18.745c15.823-3.65,32.656-24.849,31.025-37.752
		C748.714,189.859,743.168,189.427,737.202,188.963z M597.365,187.33c2.685-3.1,5.149-5.963,7.631-8.811
		c2.539-2.914,5.095-5.813,7.671-8.752c-6.116-9.326-20.459-10.316-28.199-7.733c-1.342,0.447-3.449,2.253-3.279,2.985
		c1.048,4.514,1.723,9.574,4.32,13.143C588.188,181.843,592.92,184.033,597.365,187.33z M689.565,207.679
		c13.043-2.601,19.085-9.592,24.362-19.913c1.173-2.293,1.537-3.93-1.568-4.816c-8.737-2.494-17.211,0.279-25.763,1.26
		c-0.533,0.062-1.393,1.749-1.249,2.522C686.646,193.734,688.134,200.701,689.565,207.679z M561.362,40.113
		c0.001,0.523,0.002,1.047,0.004,1.57c12.474,5.207,24.948,10.416,37.774,15.77c1.7-2.095,4.15-4.134,5.242-6.742
		c1.073-2.565,1.52-5.936,0.743-8.5c-0.385-1.273-4.1-1.646-6.362-2.208c-1.733-0.431-3.557-0.754-5.33-0.719
		C582.741,39.496,572.053,39.824,561.362,40.113z M622.78,250.787c-11.085,0.672-19.962,2.32-27.112,9.166
		c5.763,6.136,13.051,8.101,20.333,9.764c1.701,0.388,5.402-1.015,5.561-2.012C622.412,262.358,622.435,256.88,622.78,250.787z
		 M577.529,245.64c1.315-7.058,1.671-13.661-2.899-18.748c-7.512,1.471-14.664,2.872-22.008,4.31
		C558.11,241.875,567.327,244.481,577.529,245.64z M656.365,274.593c-0.559-2.566-0.807-4.339-1.34-6.021
		c-1.062-3.35-3.411-3.574-5.657-1.506c-3.902,3.593-7.626,7.41-11.081,11.43c-0.651,0.758-0.238,3.447,0.619,4.274
		c1.839,1.77,4.263,2.948,6.494,4.291c3.51,2.112,6.475,1.199,8-2.386C654.843,281.291,655.519,277.579,656.365,274.593z
		 M525.412,210.233c2.206,3.207,3.518,6.573,5.979,8.296c2.706,1.897,4.99,6.932,9.572,3.713c4.842-3.4,6.361-11.162,3.806-16.683
		C538.455,207.083,532.179,208.599,525.412,210.233z M637.171,173.059c-0.415,0.467-0.83,0.935-1.246,1.401
		c0.325,1.691,0.338,3.526,1.036,5.044c1.779,3.865,3.865,7.589,5.827,11.369c3.224-2.36,6.452-4.711,9.654-7.098
		c0.213-0.158,0.229-0.581,0.797-2.169C647.993,178.815,642.582,175.937,637.171,173.059z"/>
	<path fill-rule="evenodd" clip-rule="evenodd" fill="#FFFFFF" d="M501.288,219.474c-0.836-1.945-1.841-3.837-2.479-5.845
		c-2.01-6.334-3.048-12.737-0.127-20.534c2.177,3.013,3.826,5.427,5.608,7.739c4.671,6.061,9.521,11.988,14.072,18.135
		c5.975,8.068,15.034,12.047,22.861,17.654c2.027,1.451,4.374,2.455,6.972,2.706c0.775,1.274,1.552,2.549,2.859,4.699
		c0.63-2.163,0.928-3.184,1.225-4.207c-0.262,5.318,4.165,6.548,7.522,8.543c17.2,10.214,34.429,20.38,51.697,30.477
		c5.74,3.354,11.324,7.45,17.546,9.356c5.125,1.568,10.04,3.121,13.69,6.81c6.609,6.677,14.645,10.021,23.526,12.188
		c3.898,0.95,5.824,3.356,5.78,8.204c-0.186,21.021-9.95,36.197-27.758,46.233c-7.905,4.456-16.67,7.388-25.553,10.608
		c10.501-9.479,17.444-20.115,12.827-34.761c-0.707-2.24-2.738-4.063-4.958-5.792c-0.018,6.197-1.72,10.676-6.35,14.646
		c-4.658,3.997-9.647,4.94-15.219,4.479c-4.438-0.366-8.822-1.355-13.258-1.769c-1.706-0.159-3.489,0.508-4.428,0.664
		c-2.473-6.541-4.208-13.193-7.428-19.024c-2.792-5.058-6.787-9.718-11.102-13.608c-7.748-6.988-16.57-12.528-26.536-16.021
		c-8.061-2.824-16.34-3.295-24.839-3.301c-9.987-0.007-19.342,2.37-28.261,6.237c-7.283,3.157-14.748,6.629-20.855,11.547
		c-5.716,4.603-12.396,8.039-17.278,13.704c-5.013,5.817-10.672,11.153-15.11,17.368c-4.899,6.861-8.932,14.377-12.982,21.803
		c-4.333,7.944-8.348,16.068-12.298,24.213c-1.747,3.601-2.989,7.443-5.523,11.295c-0.743-4.498-2.169-9.005-2.104-13.489
		c0.199-13.676,0.165-27.441,1.818-40.977c1.023-8.378,6.047-16.245,7.244-24.631c1.053-7.375,5.901-7.684,10.786-9.414
		c11.754-4.166,22.188-10.568,29.594-20.719c6.062-8.309,9.964-17.715,9.33-28.387c-0.049-0.82-0.889-1.595-2.848-2.7
		c-1.02,3.077-1.875,6.223-3.1,9.217c-1.461,3.573-3.118,7.08-4.913,10.499c-1.633,3.11-3.564,6.065-4.937,8.372
		c0.023,0.149-0.177-1.082-0.465-2.854c-4.073,4.585-12.078,4.937-12.232,13.164c-0.218-1.135-0.436-2.271-0.545-2.84
		c-7.795,2.257-15.611,4.632-23.491,6.771c-8.98,2.438-18.071,4.485-27.005,7.083c-3.33,0.967-6.348,3.008-9.492,4.553
		c2.045-7.517,4.862-15.096,6.022-22.921c1.141-7.689,0.795-15.629,0.74-23.456c-0.061-8.798-1.742-17.75,2.761-26.002
		c1.239-2.271,3.216-4.128,4.588-6.341c5.597-9.032,4.933-18.809,3.533-30.169c-3.892,8.164-8.118,14.142-14.891,18.134
		c-7.293,4.298-15.45,5.478-23.456,6.456c-12.245,1.497-24.679,1.438-36.934,2.882c-4.629,0.547-8.982,3.439-13.273,5.186
		c1.637-4.036,4.089-8.352,5.07-12.981c1.011-4.775,1.513-10.025,0.631-14.768c-3.265-17.558-1.957-34.44,5.903-50.569
		c1.418-2.912,3.8-5.373,5.856-7.948c1.189-1.489,2.616-2.788,3.936-4.172c-0.385-0.515-0.768-1.029-1.151-1.543
		c-3.466,2.104-7.522,3.621-10.296,6.412c-13.255,13.339-29.551,12.88-46.452,11.562c-9.875-0.771-20.135-2.311-29.297,3.84
		c-1.507,1.013-3.623,1.122-5.982,1.8c1.095-2.393,1.796-4.495,2.942-6.316c3.097-4.918,2.926-9.93,2.025-15.537
		c-1.399-8.702-1.948-17.571-2.364-26.392c-0.684-14.473,6.665-24.783,17.797-33.047c1.013-0.751,1.15-2.68,2.167-5.263
		c-2.589,0.767-3.953,1.009-5.177,1.561c-5.84,2.632-11.409,6.2-17.502,7.872c-16.358,4.489-32.753,4.318-49.04-1.253
		c-6.271-2.145-12.964-3.029-19.406-4.712c-3.081-0.806-6.023-2.135-8.21-2.93c2.826-4.919,5.651-10.003,8.636-14.992
		c4.949-8.274,10.001-16.488,15.011-24.727c0.24-0.395,0.436-1.054,0.758-1.127c7.585-1.722,8.091-7.646,8.219-13.78
		c0.021-0.997-0.147-1.998-0.229-2.998c-1.17,0.289-2.69,0.208-3.452,0.929c-4.357,4.119-8.565,8.397-12.758,12.687
		c-2.355,2.41-4.583,4.945-7.659,8.282c-12.304-2.325-25.492-4.45-38.5-7.376c-13.148-2.958-26.1-6.749-37.303-15.885
		c1.662,0,3.342,0.159,4.984-0.024c17.217-1.923,34.429-3.887,51.638-5.877c3.145-0.364,6.959,0.848,8.609-3.378
		c0.869,2.141,2.134,1.246,3.782,0.854c7.127-1.694,14.328-3.083,21.507-4.555c10.414-2.135,20.829-4.263,31.249-6.362
		c4.389-0.884,8.794-1.688,13.191-2.528c0.06-0.612,0.119-1.224,0.179-1.836c-1.813-0.762-3.566-1.952-5.45-2.215
		c-12.915-1.811-30.132-8.9-40.833-18.161c45.171,5.002,89.003,0.296,133.35-4.487c-14.738-6.057-23.375-17.998-33.463-30.516
		c9.996,3.13,18.385,6.031,26.93,8.358c9.527,2.597,19.116,5.115,28.821,6.878c18.698,3.398,37.446,3.091,56.048-1.024
		c10.719-2.371,21.432-4.79,32.073-7.482c6.539-1.655,12.856-4.251,19.437-5.658c2.921-0.625,6.268,0.537,9.388,1.076
		c13.212,2.28,26.417,4.59,39.605,6.994c2.21,0.402,4.325,1.322,6.792,3.075c-7.012,0.959-14.013,2.592-21.034,2.689
		c-7.25,0.099-14.521-1.296-22.439-1.058c2.364,1.69,4.497,4.051,7.132,4.955c11.556,3.963,23.446,5.058,35.731,4.698
		c19.172-0.561,38.56-2.159,57.308,3.678c6.27,1.952,12.192,5.022,18.273,7.582c-0.039,0.454-0.078,0.909-0.117,1.363
		c-1.722,0.686-3.444,1.371-5.166,2.055C550.632-7.801,537.909-2.015,524.7,2.268c-10.353,3.357-21.265,6.924-32.206,0.193
		c0.518,4.905,5.397,8.795,11.391,8.369c7.959-0.567,15.885-1.903,23.762-3.277c19.027-3.319,37.78-8.704,57.383-7.562
		c9.311,0.543,18.33,2.377,25.746,8.496c4.479,3.695,7.405,8.494,7.712,14.555c0.235,4.678-1.788,6.894-6.517,6.917
		c-16.525,0.083-33.062-0.188-49.577,0.288c-20.219,0.583-40.433,1.557-60.62,2.817c-10.075,0.629-20.087,2.271-30.127,3.456
		c-0.015,0.607-0.029,1.216-0.043,1.823c3.906,0.541,7.841,1.688,11.714,1.507c11.14-0.517,20.079,4.344,28.008,11.197
		c9.468,8.184,17.909,17.628,27.787,25.24c7.124,5.489,15.867,8.878,24.307,13.43c-2.804,4.532-8.647,6.232-14.2,8.222
		c-11.357,4.074-22.79,7.941-34.169,11.958c-22.721,8.022-40.188,22.839-54.608,41.8c-4.549,5.982-6.974,12.381-9.321,19.542
		c-4.319,13.177-11.399,25.45-17.323,38.103c-0.19,0.405-0.329,0.835-0.86,2.2c2.096-0.97,4-1.234,4.777-2.311
		c4.631-6.423,10.357-12.426,11.112-20.796c0.694-7.707,4.896-13.823,8.474-20.154c8.038-14.225,20.034-24.616,33.628-33.354
		c17.489-11.242,36.024-20.502,54.985-28.907c11.477-5.087,23.542-8.407,36.098-9.473c3.498-0.296,7.072,0.315,11.809,0.577
		c-4.691-7.601-11.229-1.359-16.394-4.031c1.802-1.232,3.134-2.347,4.637-3.141c14.278-7.541,28.387-15.449,42.973-22.343
		c6.815-3.222,14.536-4.591,21.913-6.553c9.899-2.635,19.791-5.382,29.824-7.396c6.141-1.233,12.532-1.297,18.825-1.68
		c7.49-0.454,15.015-1.206,22.488-0.915c19.163,0.744,37.256,4.784,54.071,15.138c8.145,5.016,16.008,10.236,22.782,16.708
		c5.174,4.942,8.713,11.589,13.006,17.46c1.724,2.356,3.022,4.521,7.02,2.855c3.358-1.4,8.137,1.085,10.515-3.802
		c-0.156-0.227-0.387-0.63-0.685-0.977c-1.517-1.765-4.382-3.578-4.302-5.256c0.17-3.583,3.925-3.699,6.77-4.201
		c1.687-0.298,3.42-0.325,5.493-0.504c-3.379-5.174-10.444-7.611-16.341-6.365c-2.339,0.494-5.644,1.582-7.024,0.502
		c-4.333-3.39-8.539-7.34-8.615-14.144c13.037,0.566,25.839,1.122,40.235,1.747c-2.155,6.16-4.378,11.557-5.907,17.146
		c-1.614,5.9-5.922,9.977-9.147,14.763c-1.066,1.581-3.571,2.145-5.294,3.352c-0.77,0.539-1.506,1.43-1.787,2.311
		c-1.621,5.079-2.964,10.25-4.656,15.304c-3.264,9.738-10.461,15.967-19.064,20.885c-0.802,0.458-1.958,1.057-2.114,1.772
		c-4.276,19.593-18.883,27.116-36.377,31.273c-10.06,2.391-19.917,0.432-29.757-1.551c-2.178-0.438-4.323-1.041-6.181-1.494
		c-1.08,1.237-2.384,2.728-3.688,4.219c-0.337-0.317-0.674-0.635-1.011-0.953c4.053-3.166,3.947-3.492-0.992-5.704
		c-10.434-4.67-20.929-9.217-31.213-14.2c-15.999-7.752-31.694-16.142-47.812-23.631c-8.497-3.949-17.581-6.658-26.465-9.74
		c-4.861-1.685-9.857-2.98-15.083-5.383c6.058-1.346,12.115-2.692,18.173-4.038c0.069-0.437,0.138-0.873,0.207-1.31
		c-3.016-0.76-6.077-2.28-9.038-2.106c-4.801,0.283-9.548,1.62-14.297,2.615c-8.034,1.684-16.086,3.303-24.067,5.21
		c-13.075,3.125-25.611,8.134-36.027,16.47c-10.646,8.522-20.073,18.602-29.783,28.251c-7.845,7.796-15.514,15.788-22.887,24.028
		c-5.63,6.292-10.632,13.14-16.001,19.668c-1.637,1.99-3.711,3.628-5.274,5.667c-0.478,0.622-0.333,2.411,0.229,3.038
		c7.083,7.918,6.314,17.542,6.159,27.071c-0.028,1.775,0.346,3.558,0.533,5.337c0.498,0.028,0.996,0.057,1.495,0.085
		c1.004-4.59,2.325-9.139,2.949-13.78c1.47-10.946,3.229-21.8,9.052-31.42c2.108-3.484,4.982-6.504,7.762-10.06
		c4.707,11.471,3.408,24.695,15.037,32.377c0.909-2.15,1.781-4.213,2.648-6.271c-1.313,9.181,0.496,12.894,6.294,12.977
		C505.516,228.102,503.401,223.788,501.288,219.474z M270.07,7.182c-5.601,2.106-10.361,4.969-15.396,5.583
		c-13.082,1.596-26.311,1.962-39.427,3.348c-4.046,0.428-8.36,1.873-11.756,4.078c-5.263,3.417-6.751,15.567-2.782,20.853
		c2.285,3.043,5.333,5.678,8.461,7.896c9.712,6.885,21.62,9.841,30.081,19.398c9.837,11.111,21.543,20.559,32.349,30.823
		c12.217,11.607,24.886,22.488,40.508,29.484c17.43,7.806,35.139,9.431,53.532,4.001c12.869-3.797,25.786-7.849,39.463-6.63
		c9.218,0.82,18.016,2.833,23.819,11.292c1.324,1.93,3.734,3.114,5.646,4.641c0.615-0.693,1.23-1.388,1.846-2.082
		c-5.454-5.627-10.729-11.443-16.415-16.826c-5.083-4.814-11.554-8.165-18.401-7.7c-14.085,0.957-28.054,3.522-42.132,4.702
		c-10.431,0.875-21.054,1.61-31.418,0.618c-15.902-1.521-28.585-10.476-39.93-21.109c-8.674-8.129-16.596-17.071-25.404-25.041
		c-7.015-6.349-14.825-11.827-22.352-17.6c-9.477-7.269-20.549-11.222-31.708-14.926c-3.876-1.286-5.104-4.171-4.614-7.658
		c0.399-2.843,0.734-5.978,5.322-5.983c6.399-0.007,12.809-0.771,19.193-1.411c4.452-0.446,8.911-1.98,13.293-1.73
		c19.242,1.098,35.982-5.94,52.38-14.809c7.271-3.933,14.756-7.862,22.614-10.244C335.737-5.578,355-6.059,374.218-1
		c11.033,2.905,21.357,7.485,29.109,16.074c5.678,6.291,10.335,13.491,15.671,20.105c2.938,3.642,6.34,6.909,9.533,10.347
		c0.561-0.475,1.121-0.949,1.682-1.423c-1.542-2.067-3.082-4.135-4.626-6.2c-0.771-1.03-2.093-1.985-2.237-3.096
		c-1.782-13.71-12.447-21.601-20.408-31.198c-5.887-7.097-14.229-11.564-20.479-18.397c-3.352-3.664-6.488-6.674-2.831-11.825
		c0.521-0.731,0.072-2.151,0.072-3.567c-11.303,2.596-11.466,11.658-12.227,20.38c-12.615-8.038-25.507-10.146-39.361-6.328
		c-13.006,3.584-25.962,7.416-39.115,10.353c-5.751,1.285-11.945,0.873-17.928,0.749c-4.54-0.094-9.065-0.951-13.597-1.468
		c-0.231,0.422-0.464,0.844-0.695,1.266C260.718-1.553,264.654,2.125,270.07,7.182z M443.108,52.858
		c2.371,0.427,4.194,0.789,6.029,1.081c19.662,3.129,26.293,9.969,29.576,28.321c1.09,6.089-0.192,12.055-6.381,15.732
		c-0.489,0.291-0.179,3.508,0.348,3.693c8.736,3.065,22.74-1.48,25.181-13.242c2.539-12.234-4.002-20.691-12.94-27.368
		c-12.073-9.018-26.057-12.464-41.047-12.139c-2.738,0.06-6.409,1.262-5.996-4.23c-2.557,7.125,2.711,11.431,5.218,17
		c-26.335-2.449-42.22-17.248-50.342-41.689c-8.18,6.922-12.299,14.505-13.482,23.992c-15.645-5.268-30.537-11.251-37.936-28.418
		c-8.521,6.958-7.992,15.895-6.539,25.612c-10.69-3.519-20.957-6.52-30.895-10.37c-3.676-1.423-6.585-4.835-9.822-7.369
		c-0.9-0.705-1.722-1.512-2.971-2.621c-0.559,5.586,0.593,9.74,3.606,13.656c1.343,1.747,1.389,4.491,2.023,6.783
		c-1.943,0.227-3.903,0.741-5.825,0.627c-8.328-0.491-16.395-2.05-23.563-7.207c-0.247,4.663,0.244,5.05,7.011,10.445
		c7.463,5.95,16.262,6.175,25.006,5.926c8.223-0.233,16.222,0.271,24.054,2.861c2.35,0.777,4.757,1.38,7.137,2.063
		c0.294-0.554,0.588-1.107,0.882-1.661c-4.859-2.975-9.719-5.951-15.477-9.475c17.243-0.02,31.396,5.448,44.498,14.774
		c-2.27-3.646-5.101-6.806-7.535-10.245c-2.458-3.471-4.524-7.219-7.251-11.641c5.033,2.862,8.845,5.312,12.9,7.255
		c4.005,1.919,8.27,3.293,12.396,4.967c7.258,2.943,14.765,5.393,19.769,12.157c1.28,1.73,3.615,2.679,6.349,4.61
		c-1.602-8.498-8.546-13.692-7.925-23.102c3.687,2.49,6.584,3.99,8.907,6.116c3.864,3.538,7.015,7.912,11.085,11.155
		c8.086,6.44,18.031,7.355,27.907,8.707c7.629,1.044,15.755,1.05,22.114,6.862c1.568,1.433,4.214,1.685,6.734,2.618
		c-0.296-5.925-4.223-7.641-8.018-9.067C450.04,67.075,445.828,61.1,443.108,52.858z M724.611,134.051
		c-0.062-0.664,0.269-2.236-0.37-3.041c-1.801-2.272-4.128-4.119-6.02-6.329c-15.13-17.677-32.72-31.488-56.459-35.209
		c-5.479-0.858-11.219-1.011-16.734-0.459c-8.475,0.85-16.919,2.312-25.259,4.071c-4.321,0.912-9.379,0.937-12.718,5.824
		c4.595,0,8.675,0.592,12.518-0.107c12.854-2.342,25.524-2.121,38.173,1.188c13.608,3.561,25.952,9.088,36.183,19.315
		c9.852,9.847,20.234,19.245,31.032,28.045c13.986,11.4,30.201,15.979,48.213,12.507c2.293-0.442,4.376-1.977,6.556-3.006
		c-0.137-0.592-0.273-1.185-0.41-1.776c-4.882,0-9.764,0.055-14.645-0.014c-7.415-0.105-15.214,1.145-21.513-4.122
		c-4.562-3.814-8.639-8.203-13.003-12.26C728.314,136.966,726.293,135.445,724.611,134.051z M302.352,84.4
		c0.27-2.306,0.354-3.705,0.607-5.072c1.016-5.471,6.331-8.508,11.297-6.249c7.782,3.542,13.49,9.45,18.487,16.282
		c8.685,11.875,5.093,12.183,22.155,7.652c5.683-1.508,11.312-3.443,17.096-4.282c6.612-0.958,13.403-1.528,20.058-1.167
		c10.935,0.593,22.048,0.832,31.128,8.864c3.378,2.988,7.984,4.589,12.029,6.823c0.465-0.68,0.93-1.359,1.395-2.039
		c-3.859-3.279-8.167-6.16-11.493-9.912c-10.156-11.456-24.111-13.263-37.752-13.938c-9.138-0.452-18.507,2.436-27.674,4.311
		c-7.827,1.602-14.618,3.131-20.389-5.403c-4.945-7.317-12.69-12.45-21.522-14.783c-5.888-1.555-12.386-2.637-17.678,1.107
		c-3.101,2.194-4.777,3.061-7.235-0.141c-0.955-1.243-2.051-2.746-3.406-3.237c-2.851-1.031-6.028-2.223-8.839-1.8
		c-1.196,0.179-2.63,4.296-2.484,6.528c0.19,2.928,0.518,6.799,5.471,6.977c0-1.409,0-2.659,0-3.923
		C288.742,71.654,288.742,71.654,302.352,84.4z M492.453,228.675c-5.853,2.966-1.904,5.729-0.896,8.392
		c1.01,2.665,5.183,4.207,3.224,7.859c-1.642,3.063-0.42,4.328,2.194,5.696c4.917,2.572,9.632,5.526,14.52,8.155
		c2.851,1.535,5.909,2.677,8.813,4.122c5.596,2.786,11.119,5.721,16.726,8.483c5.594,2.755,11.424,5.074,16.841,8.134
		c6.522,3.683,12.713,7.954,19.058,11.952c13.508,8.512,27.042,16.979,40.521,25.534c4.191,2.66,8.688,5.522,13.533,3.663
		c2.826-1.083,4.736,0.182,7.012,0.072c2.305-0.111,4.55-1.476,6.821-2.292c-2.092-0.839-4.15-1.779-6.289-2.467
		c-0.906-0.29-2.071,0.212-2.969-0.091c-6.543-2.211-13.729-3.457-19.418-7.056c-10.444-6.609-19.883-14.788-29.986-21.969
		c-3.773-2.683-8.265-4.344-12.374-6.568c-13.774-7.458-27.486-15.037-41.313-22.398c-3.854-2.053-9.34-2.464-11.746-5.485
		c-3.617-4.538-8.39-6.722-13.022-8.733c-3.399-1.477-5.112-3.513-6.654-6.297C495.497,234.583,494.055,231.724,492.453,228.675z
		 M794.706,133.133c0.365-0.24,0.73-0.479,1.096-0.72c-0.11-0.77-0.013-1.657-0.365-2.292c-3.867-6.957-7.54-14.04-11.779-20.766
		c-7.173-11.383-17.791-19.375-28.741-26.605c-13.597-8.978-28.717-13.699-45.512-12.639c0.37,1.405,0.664,2.525,1.29,4.902
		c-2.262-1.479-3.512-2.316-4.781-3.122c-1.044-0.661-2.142-1.876-3.163-1.823c-4.251,0.219-8.513,0.634-12.713,1.33
		c-8.459,1.402-16.9,2.926-25.301,4.641c-2.353,0.48-4.532,1.801-6.791,2.737c4.332,1.015,8.322,1.146,12.302,0.987
		c7.876-0.314,15.758-1.249,23.616-1.063c7.375,0.174,14.717,1.529,22.086,2.244c14.499,1.408,29.131,2.395,40.675,12.979
		c7.974,7.311,16.111,14.467,23.707,22.156C785.539,121.351,789.943,127.42,794.706,133.133z M403.095,129.745
		c-0.601-0.035-1.202-0.07-1.804-0.105c-6.836,21.27-23.051,27.783-43.641,28.229c1.854,1.869,3.682,3.505,5.807,4.132
		c13.504,3.984,26.329,2.631,37.828-5.952c3.973-2.963,7.333-7.034,6.44-12.281C406.908,138.971,404.694,134.411,403.095,129.745z"
		/>
	<path fill-rule="evenodd" clip-rule="evenodd" fill="#FFFFFF" d="M147.655,390.243c-1.591,8.769-4.24,17.356-4.382,25.987
		c-0.123,7.475,2.5,15.016,4.092,22.488c1.016,4.762,3.169,9.409,3.419,14.181c0.771,14.739-6.621,23.626-20.069,26.694
		c-11.605,2.648-23.781,2.692-35.629,4.411c-8.168,1.184-16.214,3.228-24.296,4.97c-1.538,0.331-2.993,1.043-3.323,1.162
		c-0.746-10.74-2.085-21.631-2.093-32.523c-0.009-10.97-0.467-22.241,4.09-32.63c6.071-13.842,17.499-21.856,31.164-27.021
		c10.979-4.149,22.809-2.971,34.127-5.052C139.331,392.07,143.872,391.031,147.655,390.243z"/>
	<path fill-rule="evenodd" clip-rule="evenodd" fill="#FFFFFF" d="M54.224,578.718c0.594-5.339,2.134-10.429,1.505-15.235
		c-1.646-12.57-2.846-25.167,1.082-37.319c4.32-13.364,13.893-22.873,26.949-27.544c6.049-2.165,13.283-1.215,19.985-1.316
		c12.227-0.188,24.266-1.485,35.788-5.752c2.792-1.034,5.203-3.104,7.31-4.401c-0.302,8.534-0.773,17.084-0.84,25.637
		c-0.037,4.758,0.812,9.519,0.895,14.283c0.265,15.195-6.729,27.051-18.11,36.278c-8.89,7.209-19.013,12.896-30.436,14.592
		c-8.503,1.263-17.294,0.64-25.958,0.761C66.155,578.788,59.914,578.718,54.224,578.718z"/>
	<path fill-rule="evenodd" clip-rule="evenodd" fill="#FFFFFF" d="M91.561,384.68c1.046-7.27,2.713-15.358,3.191-23.517
		c0.284-4.845-1.42-9.785-2.031-14.709c-3.088-24.916,13.202-40.986,32.164-49.66c10.688-4.89,21.563-3.273,32.45-3.956
		c4.364-0.273,8.751-0.97,13.007-1.982c4.36-1.038,8.572-2.698,14.049-4.476c-0.823,2.448-1.175,3.91-1.789,5.253
		c-4.249,9.3-6.446,19.085-6.63,29.268c-0.172,9.529-0.099,19.043-3.033,28.277c-4.596,14.459-16.164,27.37-32.238,29.654
		c-8.169,1.161-16.495,1.184-24.698,2.157C107.451,382.004,98.962,383.542,91.561,384.68z"/>
	<path fill-rule="evenodd" clip-rule="evenodd" fill="#FFFFFF" d="M237.51,365.925c-0.813,4.951-2.073,10.322-2.449,15.756
		c-0.237,3.432,1.188,6.947,1.269,10.438c0.206,8.927,0.73,17.927-0.153,26.77c-0.559,5.587-3.575,10.898-5.209,16.416
		c-2.515,8.488-9.241,12.695-16.651,15.403c-6.508,2.378-13.778,2.624-20.367,4.837c-10.18,3.419-20.066,7.71-28.796,11.13
		c-0.629-5.923-0.618-13.618-2.495-20.823c-1.346-5.17-2.092-10.723-5.668-15.525c-1.853-2.486-1.02-7.247-0.815-10.947
		c0.813-14.704,5.897-27.371,15.896-38.699c10.585-11.995,23.791-14.691,38.454-14.748
		C219.465,365.896,228.408,365.925,237.51,365.925z"/>
	<path fill-rule="evenodd" clip-rule="evenodd" fill="#FFFFFF" d="M262.024,445.914c-0.794,5.592-1.507,10.86-2.295,16.117
		c-0.865,5.764-2.139,11.489-2.606,17.281c-0.45,5.568-0.098,11.203-0.098,16.868c-2.273,3.354-4.3,7.179-7.108,10.3
		c-4.636,5.15-9.563,10.089-14.752,14.683c-8.859,7.841-20.194,10.59-31.154,13.579c-10.051,2.741-20.488,4.04-30.707,6.207
		c-4.038,0.856-7.941,2.345-12.218,3.641c2.802-11.113,0.946-21.841,0.079-32.67c-0.935-11.668,2.066-22.766,10.984-30.811
		c4.211-3.799,10.048-6.297,15.573-8.037c12.938-4.074,26.796-5.754,38.457-13.092c7.462-4.697,14.636-9.521,23.399-11.348
		C253.524,447.811,257.455,446.915,262.024,445.914z"/>
	<path fill-rule="evenodd" clip-rule="evenodd" fill="#FFFFFF" d="M-26.063,508.868c1.035-9.774,2.362-19.129,2.897-28.528
		c0.331-5.808-0.703-11.68-0.839-17.531c-0.195-8.41,1.871-16.519,6.911-23.088c3.452-4.498,8.503-7.97,13.329-11.161
		c5.333-3.529,10.963-6.979,16.957-9.019c4.49-1.527,9.757-0.876,14.682-0.999c9.844-0.244,19.689-0.354,29.581-0.521
		c-4.541,8.452-5.073,18.387-4.891,28.386c0.084,4.652,1.629,9.425,0.96,13.912c-1.323,8.883,1.705,18.629-4.586,26.556
		c-2.074,2.614-4.559,5.021-7.233,7.015c-7.437,5.544-14.732,11.909-24.071,13.496c-6.712,1.139-13.798,0.12-20.716-0.008
		c-2.292-0.042-4.604-0.604-6.862-0.406C-15.458,507.456-20.942,508.245-26.063,508.868z"/>
	<path fill-rule="evenodd" clip-rule="evenodd" fill="#FFFFFF" d="M118.143,288.979c5.653-11.37,3.942-23.282,4.784-34.858
		c1.041-14.311,1.991-28.769,11.096-40.692c2.965-3.884,7.528-6.838,11.873-9.321c11.5-6.574,24.084-8.371,37.277-8.354
		c9.16,0.012,18.904,2.688,28.073-5.163c-2.937,6.917-6.118,11.895-7.07,17.268c-1.283,7.243-0.881,14.788-1.145,22.206
		c-0.295,8.296,1.378,16.76-2.148,24.772c-1.28,2.906-2.588,5.8-3.752,8.405c-0.001-0.004-0.329-0.849-0.65-1.675
		c-6.442,7.227-14.535,12.132-23.529,15.174c-7.095,2.4-14.754,3.113-21.892,5.412c-7.729,2.489-15.911,1.321-23.56,3.767
		C124.506,286.876,121.525,287.871,118.143,288.979z"/>
	<path fill-rule="evenodd" clip-rule="evenodd" fill="#FFFFFF" d="M54.886,313.207c0,2.201,0,3.851,0,5.501
		c-0.217,0.031-0.433,0.063-0.648,0.095c-0.165-1.752-0.33-3.504-0.53-5.629c-11.108,2.979-22.087,5.924-32.932,8.832
		c1.272-3.954,3.294-8.508,4.132-13.269c1.142-6.473,1.33-13.11,2.013-19.669c1.495-14.369,1.625-28.952,11.411-41.236
		c7.604-9.546,17.348-14.37,29.013-15.781c3.849-0.466,7.918,0.872,11.766,0.402c3.494-0.426,7.037,0.169,10.444-0.744
		c4.116-1.102,8.223-2.252,12.281-3.546c3.638-1.161,7.175-2.654,10.847-3.675c0.396-0.11,2.133,2.055,1.998,2.982
		c-1.426,9.697-3.288,19.333-4.649,29.038c-0.739,5.261-1.048,10.625-1.015,15.94c0.049,7.563-3.721,13.446-8.093,18.869
		c-10.086,12.514-24.528,17.065-39.417,20.597c-1.106,0.262-2.181,0.664-3.292,0.894C57.273,313.004,56.3,313.045,54.886,313.207z"
		/>
	<path fill-rule="evenodd" clip-rule="evenodd" fill="#FFFFFF" d="M370.195,241.94c-1.023,7.444-2.471,15.652-3.209,23.921
		c-0.979,10.979-1.561,22.001-1.991,33.017c-0.169,4.333-2.898,6.257-5.879,8.392c-7.271,5.205-14.786,10.36-23.543,12.13
		c-7.793,1.575-15.965,1.29-23.972,1.797c-9.397,0.595-18.816,0.95-28.184,1.853c-3.018,0.291-5.901,1.983-8.301,2.84
		c1.864-10.153,3.819-20.188,5.517-30.267c0.977-5.803,2.193-11.685,2.115-17.514c-0.097-7.105,4.163-11.678,8.454-15.714
		c11.631-10.941,26.305-15.663,41.704-18.533c1.901-0.354,3.348,0.067,5.112,0.459c2.987,0.662,6.967,1.553,9.151,0.172
		c4.743-3.001,9.639-2.201,14.529-2.514C364.916,241.773,368.157,241.94,370.195,241.94z"/>
	<path fill-rule="evenodd" clip-rule="evenodd" fill="#FFFFFF" d="M273.809,263.636c-0.94,5.396-2.299,10.532-2.658,15.737
		c-1.121,16.254-1.416,32.681-8.819,47.666c-1.916,3.879-5.434,7.057-8.54,10.24c-5.843,5.991-11,13.278-20.211,14.262
		c-5.763,0.613-11.63,0.475-17.444,0.346c-11.228-0.247-22.334-0.07-33.266,6.881c5.092-12.005,3.889-23.401,4.363-34.771
		c0.815-19.572,6.625-37.104,24.51-48.632c7.381-4.758,15.601-5.511,23.616-7.179c4.31-0.896,9.158,1.046,13.594,0.449
		c8.018-1.077,15.908-3.096,23.85-4.729C273.378,263.787,273.939,263.6,273.809,263.636z"/>
	<path fill-rule="evenodd" clip-rule="evenodd" fill="#FFFFFF" d="M207.824,265.219c1.754-4.193,3.633-6.889,3.932-9.751
		c0.782-7.471,0.413-15.07,1.346-22.514c1.502-11.988,1.505-23.914,9.322-34.938c7.512-10.593,16.073-17.779,28.462-20.449
		c3.657-0.788,7.565-0.629,11.351-0.557c9.622,0.183,19.24,0.581,28.86,0.821c0.728,0.018,1.47-0.54,2.265-0.854
		c0.172,3.134,0.216,6.095,0.518,9.028c0.953,9.281,3.027,18.58,2.772,27.819c-0.368,13.385-3.716,26.056-15.59,34.688
		c-1.486,1.08-1.856,3.696-2.514,5.107c-0.866-0.466-2.257-1.744-2.834-1.446c-10.836,5.59-22.657,5.46-34.282,5.632
		c-10.076,0.148-19.739,1.666-29.131,5.165C211.244,263.365,210.27,263.98,207.824,265.219z"/>
	<path fill-rule="evenodd" clip-rule="evenodd" fill="#FFFFFF" d="M-5.83,412.475c3.54-11.506,5.493-22.913,6.642-34.771
		C2.03,365.155,4.25,351.781,14.359,342.2c5.902-5.595,12.785-10.213,20.692-12.064c12.51-2.927,25.263-4.806,37.89-7.256
		c2.859-0.555,5.617-1.634,8.997-2.642c-0.351,2.659-0.992,5.105-0.938,7.536c0.212,9.391,0.74,18.773,0.974,28.164
		c0.284,11.415,0.838,22.959-6.491,32.84c-2.088,2.814-4.327,5.733-7.1,7.791c-9.448,7.011-20.333,9.703-32.003,10.446
		C22.276,407.917,7.952,407.454-5.83,412.475z"/>
	<path fill-rule="evenodd" clip-rule="evenodd" fill="#FFFFFF" d="M274.215,338.888c1.365,0,2.436,0.29,3.252-0.044
		c9.184-3.757,18.562-6.214,28.498-4.791c-0.682,8.92-1.934,17.797-1.891,26.67c0.051,10.228,0.121,20.363-3.224,30.145
		c-0.917,2.682-2.715,5.051-3.977,7.629c-1.354,2.765-2.552,5.607-3.818,8.415c0.465,0.393,0.929,0.785,1.393,1.178
		c1.4-0.462,3.202-0.52,4.139-1.448c10.309-10.224,22.834-15.588,37.447-17.474c0.436,6.51-1.648,12.424-5.403,17.079
		c-11.598,14.383-26.145,23.721-45.303,24.764c-9.141,0.498-18.241,1.867-27.331,3.064c-4.262,0.561-8.456,1.647-13.016,2.563
		c4.352-12.149,2.448-24.452,2.683-36.676c0.228-11.823-0.006-23.649,4.582-35.214c3.944-9.945,10.49-16.779,18.905-22.548
		C272.586,341.215,273.582,339.589,274.215,338.888z"/>
	<path fill-rule="evenodd" clip-rule="evenodd" fill="#FFFFFF" d="M71.228,220.143c-0.19,1.362-0.366,2.618-0.542,3.875
		c-0.155,0.004-0.312,0.008-0.468,0.013c-0.179-1.245-0.357-2.489-0.611-4.264c-6.907-0.779-13.794-1.556-20.76-2.34
		c1.874-4.099,4.203-8.393,5.83-12.937c2.664-7.441,4.453-15.211,7.359-22.546c5.562-14.035,11.567-27.916,27.127-34.111
		c0.872-0.348,1.532-1.236,2.283-1.882c4.902-4.218,10.555-6.112,16.711-3.817c10.025,3.739,19.755,1.209,29.566-0.582
		c2.199-0.401,4.34-1.12,7.365-1.92c-0.708,7.047-1.376,13.5-1.998,19.956c-0.394,4.088-1.344,8.253-0.898,12.255
		c0.452,4.065-1.883,6.572-3.397,9.622c-0.507,1.023-1.632,2.032-1.578,2.997c0.649,11.647-9.301,15.52-16.1,21.26
		c-7.473,6.309-16.307,11.142-26.007,12.947C87.519,220.08,79.593,219.697,71.228,220.143z"/>
	<path fill-rule="evenodd" clip-rule="evenodd" fill="#FFFFFF" d="M-96.601,436.871c0.567-4.958,1.163-9.308,1.548-13.678
		c1.044-11.854,1.478-23.793,3.177-35.55c1.065-7.362,4.879-13.218,12.263-17.225c6.521-3.536,13.293-3.51,19.919-4.277
		c12.275-1.422,24.708-1.421,37.054-2.304c3.526-0.252,6.969-1.561,10.475-2.267c0.953-0.192,1.992,0.046,2.992,0.087
		c-0.265,0.996-0.581,1.982-0.78,2.991c-0.237,1.197-0.334,2.422-0.559,3.621c-2.495,13.304-4.642,26.685-7.607,39.881
		c-3.025,13.459-12.263,20.996-25.45,23.963c-7.664,1.725-15.101,4.943-23.258,3.542c-2.15-0.369-4.964-1.433-6.393-0.507
		c-3.038,1.968-5.808-0.337-8.762,0.538c-3.51,1.04-7.385,0.867-11.105,1.169C-94.221,436.948-95.368,436.871-96.601,436.871z"/>
	<path fill-rule="evenodd" clip-rule="evenodd" fill="#FFFFFF" d="M14.625,286.431c-0.895,9.185-1.252,18.43-2.833,27.46
		c-1.497,8.553-7.152,14.964-14.76,19.796c0.457,0.506,0.913,1.013,1.37,1.519c2.717-0.646,5.435-1.292,9.108-2.166
		c-1.14,1.366-1.615,2.355-2.399,2.812c-7.615,4.42-15.089,9.146-22.983,13.006c-9.363,4.576-19.486,5.663-29.917,5.181
		c-9.573-0.442-19.181-0.094-27.845-0.094c0.194-8.324,0.937-16.996,0.454-25.6c-0.546-9.739,2.11-18.228,7.452-26.095
		c5.237-7.712,11.714-13.997,20.835-16.843c2.1-0.654,4.532-0.752,6.735-0.479c11.971,1.479,23.704,5.189,35.956,3.975
		C1.651,288.32,7.468,287.383,14.625,286.431z"/>
	<path fill-rule="evenodd" clip-rule="evenodd" fill="#FFFFFF" d="M215.762,178.659c-0.891-0.284-1.896-0.932-2.264-0.673
		c-10.224,7.185-21.794,8.073-33.822,8.096c-10.814,0.021-21.625,1.178-31.307,1.766c1.983-7.876,4.678-16.573,6.262-25.468
		c1.405-7.893,0.728-16.195,2.472-23.979c3.317-14.793,11.891-26.073,26.02-32.323c2.364-1.046,5.628-0.32,8.439-0.044
		c8.966,0.881,17.902,2.077,26.876,2.855c3.532,0.308,4.87,0.618,3.745,4.991c-2.516,9.764,0.194,19.317,2.112,29
		c1.285,6.489,0.68,13.572-0.288,20.214c-0.705,4.841-2.949,9.611-7.369,12.805C215.917,176.418,215.955,177.988,215.762,178.659z"
		/>
	<path fill-rule="evenodd" clip-rule="evenodd" fill="#FFFFFF" d="M187.843,552.479c1.228,11.852,2.228,22.666,3.529,33.442
		c0.492,4.078,1.552,8.104,2.577,12.096c1.733,6.76-1.576,11.17-6.458,15.106c-1.264,1.02-1.932,2.775-2.839,4.14
		c-2.641-2.344-3.65,1.266-5.056,2.613c-2.138,2.046-3.893,4.524-5.633,6.946c-11.091,15.442-20.025,31.92-23.848,50.769
		c-0.682,3.36-0.916,6.813-1.505,11.371c-2.232-4.437-4.108-8.027-5.862-11.677c-6.582-13.697-9.552-28.35-11.922-43.254
		c-2.195-13.798-1.387-27.37,1.17-40.945c0.378-2.007,1.271-3.985,2.253-5.8c7.363-13.576,17.528-23.956,32.792-28.473
		C174.28,556.671,181.488,554.419,187.843,552.479z"/>
	<path fill-rule="evenodd" clip-rule="evenodd" fill="#FFFFFF" d="M-49.609,272.687c2.593-4.083,4.74-8.348,7.697-11.947
		c7.061-8.592,8.12-19.192,9.69-29.354c2.863-18.518,16.219-33.741,34.684-37.029c3.423-0.61,7.356,0.819,10.896,1.851
		c9.116,2.654,18.136,3.851,27.205-0.075c0.568-0.246,1.313-0.178,1.961-0.114c0.449,0.043,0.875,0.329,1.012,0.386
		c0.445,8.619-5.261,14.521-9.182,20.981c-2.021,3.328-6.603,5.033-9.809,7.732c-2.277,1.916-4.189,4.266-6.264,6.423
		c0.308,0.48,0.614,0.961,0.921,1.44c6.181-1.22,12.363-2.44,18.318-3.616c-5.595,7.519-11.048,14.57-16.148,21.868
		c-1.616,2.312-3.129,5.25-3.242,7.962c-0.431,10.402-8.611,11.771-15.813,14.832c-13.6,5.778-27.152,4.133-40.845,0.754
		C-42.12,273.893-45.807,273.394-49.609,272.687z"/>
	<path fill-rule="evenodd" clip-rule="evenodd" fill="#FFFFFF" d="M-77.872,282.425c2.93,0.689,5.86,1.38,9.729,2.291
		c-3.118,2.79-5.723,6.401-9.243,8.003c-7.426,3.379-15.336,5.687-23.037,8.469c-7.474,2.7-15.135,2.833-22.897,1.783
		c-13.442-1.817-26.887-3.626-40.312-5.436c2.863-7.453,5.498-15.095,8.715-22.482c3.694-8.481,7.438-17.005,12.024-25.016
		c4.28-7.476,11.219-12.169,20.922-15.02c-5.738,6.064-9.861,11.558-8.819,19.349c9.994-9.923,21.986-10.576,34.685-8.524
		c12.991,2.098,26.003,4.064,39,6.121c0.906,0.144,1.769,0.557,3.091,0.989c-5.899,11.383-11.992,22.044-23.842,27.991
		C-77.861,281.437-77.867,281.932-77.872,282.425z"/>
	<path fill-rule="evenodd" clip-rule="evenodd" fill="#FFFFFF" d="M-13.472,178.403c10.504-10.67,12.006-24.202,15.755-37.148
		c4.324-14.933,12.956-28.067,28.635-33.399c6.272-2.133,13.729-0.841,20.649-0.989c4.935-0.106,9.879-0.114,14.808,0.084
		c0.88,0.035,2.45,1.314,2.429,1.98c-0.066,2.234-0.083,4.874-1.246,6.599c-4.06,6.024-8.592,11.732-13.535,18.35
		c1.802,0.442,4.11,1.797,5.944,1.323c7.754-2.006,15.242-1.693,23.015,1.46c-3.14,2.681-6.136,5.519-9.413,7.981
		c-10.895,8.185-19.812,17.692-23.676,31.3c-1.931,6.801-7.403,11.074-15.273,11.137c-9.337,0.075-18.166-2.017-27.08-4.218
		C0.932,181.233-5.779,180.019-13.472,178.403z"/>
	<path fill-rule="evenodd" clip-rule="evenodd" fill="#FFFFFF" d="M170.558,101.412c-3.144,2.506-5.615,3.982-7.432,6.036
		c-2.964,3.35-6.102,6.775-8.078,10.715c-2.948,5.878-8.229,8.697-13.59,10.567c-10.208,3.558-20.941,4.633-31.762,2.884
		c-2.433-0.394-4.8-1.192-7.244-1.816c0,3.5,0,6.492,0,9.484c-0.605,0.049-1.21,0.099-1.816,0.148
		c-0.439-3.332-0.878-6.664-1.401-10.638c-7.338-1.196-15.143-2.469-23.344-3.806c7.589-7.313,4.817-17.875,8.137-26.64
		c2.535-6.691,5.723-13.164,9.001-19.537c3.786-7.359,9.063-13.55,15.895-18.365c6.13-4.32,12.165-5.441,19.918-3.442
		c8.417,2.169,17.526,1.649,26.788,2.335c-6.881,10.216-14.075,21.173-21.627,31.878c-1.508,2.137-4.512,3.168-6.569,4.999
		c-0.78,0.694-0.837,2.204-1.224,3.341c1.135,0.369,2.518,1.357,3.365,1.016C142.977,95.175,156.153,98.362,170.558,101.412z"/>
	<path fill-rule="evenodd" clip-rule="evenodd" fill="#FFFFFF" d="M-163.265,362.507c2.295-15.461,4.549-30.641,6.775-45.63
		c1.337-0.169,3.013,0.068,3.344-0.49c3.892-6.572,10.146-4.381,15.756-4.381c3.104,0,6.216,0.271,9.305,0.604
		c1.34,0.144,2.719,0.577,3.924,1.187c2.767,1.398,5.388,2.8,7.36-1.112c0.076-0.151,1.499,0.163,2.105,0.553
		c0.553,0.356,1,1.673,1.235,1.609c6.855-1.849,14.349,0.807,20.99-3.195c1.605-0.967,4.289-0.144,6.981-0.144
		c-0.112-0.171,0.375,0.227,0.341,0.572c-0.916,9.33-1.863,18.659-2.852,27.982c-1.012,9.532-8.513,12.843-15.873,15.813
		c-11.812,4.766-24.116,5.292-36.801,4.316C-147.834,359.641-155.189,361.591-163.265,362.507z"/>
	<path fill-rule="evenodd" clip-rule="evenodd" fill="#FFFFFF" d="M358.727,323.075c0.93,7.058-0.579,15.553,6.043,22.192
		c0.572-0.714,1.113-1.078,1.088-1.4c-0.749-9.607,6.291-13.309,13.208-16.379c6.458-2.867,13.452-4.529,21.216-7.048
		c-3.03,14.722-6.831,27.847-16.004,38.397c-6.916,7.952-16.306,12.158-26.797,13.857c-13.06,2.115-26.087,4.442-40.048,6.837
		c0.513-12.161,0.642-24.471,1.709-36.697c0.559-6.397,4.821-8.331,11.631-10.134C340.204,330.205,349.288,326.396,358.727,323.075z
		"/>
	<path fill-rule="evenodd" clip-rule="evenodd" fill="#FFFFFF" d="M329.095,426.079c0.624,7.481,1.267,14.597,1.788,21.721
		c0.202,2.758-2.246,3.797-3.686,5.597c-2.972,3.716-6.287,7.302-9.071,11.146c-2.872,3.967-7.104,7.888-10.231,12.119
		c-4.18,5.659-7.477,11.97-11.282,18.214c1.413,0.975,2.563,1.769,3.381,2.333c-1.55,0.471-3.865,0.488-4.897,1.648
		c-1.534,1.722-2.348,4.188-3.14,6.452c-2.693,7.695-5.571,15.351-7.739,23.198c-1.601,5.796-2.206,11.867-3.313,18.141
		c-0.249,0-1.19,0-1.566,0c-1.241-5.821-2.212-11.65-3.746-17.328c-4.271-15.813-4.475-31.996-3.421-48.057
		c0.73-11.136,3.66-22.138,5.864-33.148c0.248-1.236,2.019-2.783,3.332-3.079c4.608-1.037,9.611-0.84,13.944-2.484
		c8.816-3.345,17.33-7.504,25.886-11.505C323.681,429.887,325.884,428.125,329.095,426.079z"/>
	<path fill-rule="evenodd" clip-rule="evenodd" fill="#FFFFFF" d="M-41.932,190.534c2.404,2.275,3.699,3.263,7.245,0.826
		c3.253-2.235,8.573-1.464,13.052-1.558c-9.403,8.589-16.499,18.314-20.43,30.169c-1.834,5.534-3.453,11.147-4.991,16.772
		c-1.178,4.303-4.988,4.089-7.844,4.031c-6.035-0.123-12.061-1.076-18.07-1.843c-10.527-1.342-21.039-2.797-33.389-4.452
		c2.607-1.822,5.236-3.058,7.047-5.041c5.166-5.651,9.189-11.996,13.091-18.714c5.676-9.773,13.97-18.123,21.754-26.517
		c2.464-2.657,6.849-3.55,10.385-5.188c3.063-1.418,6.719-2.118,9.147-4.24c6.212-5.429,13.556-7.517,21.333-8.862
		c0.932-0.161,1.831-0.524,2.761-0.798C-21.82,170.803-34.786,186.603-41.932,190.534z"/>
	<path fill-rule="evenodd" clip-rule="evenodd" fill="#FFFFFF" d="M-182.824,287.38c-0.446-4.38-3.107-4.767-6.705-5.649
		c-12.563-3.08-25.179-6.33-35.373-15.122c-2.927-2.524-6.05-4.822-9.486-7.543c3.733-0.414,6.983-0.585,10.152-1.183
		c2.792-0.526,5.495-1.529,8.237-2.322c-0.133-0.451-0.266-0.903-0.399-1.354c0.953,0.57,2.414,1.862,2.782,1.603
		c5.662-3.986,12.938-3.09,18.816-6.449c5.23-2.989,11.603-4.122,15.478-8.954c0.492,0.117,1.676,0.804,2.223,0.466
		c7.047-4.365,14.349-8.427,20.895-13.464c8.122-6.251,13.433-7.134,26.011-1.612c-23.776,12.285-33.42,33.811-40.198,57.226
		c-0.237,0.82,0.718,1.986,1.438,3.798c-4.475-1.361-8.692-2.644-13.777-4.19c0.356,1.745,0.629,2.404,0.58,3.039
		C-182.194,286.253-182.585,286.811-182.824,287.38z"/>
	<path fill-rule="evenodd" clip-rule="evenodd" fill="#FFFFFF" d="M693.6,176.126c-3.379,0.989-5.464,2.028-7.588,2.113
		c-2.757,0.11-5.895,0.166-8.245-1.006c-5.239-2.613-10.357-1.635-15.682-1.061c-1.911,0.206-4.56-0.321-5.853-1.569
		c-5.191-5.013-10.898-8.894-18.131-9.95c-2.306-0.336-4.744,0.343-7.089,0.154c-2.402-0.193-5.585-0.057-7.016-1.481
		c-12.367-12.32-26.661-14.072-42.52-8.617c-1.228,0.422-2.486,0.756-3.702,1.209c-2.888,1.078-4.071,0.961-5.176-2.864
		c-2.724-9.425-8.289-17.016-19.468-20.634c13.519-4.137,25.456-8.304,38.761-5.117c13.217,3.165,24.627,10.12,36.565,15.957
		c14.761,7.216,29.181,15.129,43.934,22.366c3.663,1.797,8.29,1.603,12.009,3.328C687.607,170.44,690.151,173.353,693.6,176.126z"/>
	<path fill-rule="evenodd" clip-rule="evenodd" fill="#FFFFFF" d="M-174.763,190.601c0.854,0.545,1.494,1.313,2.062,1.264
		c10.434-0.911,21.009-1.153,31.242-3.142c8.702-1.691,16.881-5.914,25.52-8.122c10.565-2.702,21.375-4.449,32.068-6.655
		c5.729-1.182,11.43-2.499,17.161-3.669c1.324-0.271,2.72-0.194,3.583-0.247c-6.074,5.248-12.855,9.992-18.209,16.005
		c-7.438,8.353-13.936,17.564-20.571,26.601c-2.858,3.894-4.436,7.669-11.107,5.565c-11.802-3.72-24.212-5.488-36.082-9.034
		c-2.905-0.868-5.18-3.397-7.983-1.965c-0.74-1.023-1.217-2.426-2.132-2.825c-4.888-2.131-9.865-4.063-14.854-5.953
		C-176.192,197.619-176.512,195.34-174.763,190.601z"/>
	<path fill-rule="evenodd" clip-rule="evenodd" fill="#FFFFFF" d="M0.857,116.019c-5.867,14.166-11.725,28.308-17.827,43.038
		c-30.522-0.419-60.899-3.357-89.081-22.012C-68.28,135.085-33.039,127.814,0.857,116.019z"/>
	<path fill-rule="evenodd" clip-rule="evenodd" fill="#FFFFFF" d="M217.427,617.09c-5.68-10.917-8.77-22.506-11.246-34.414
		c-2.525-12.143-0.76-23.966,1.086-35.85c8.438,2.129,39.432-13.771,50.159-27.408c4.814,6.755,4.104,11.071-0.861,17.594
		c-3.747,4.92-8.802,8.619-10.955,15.33c-1.441,4.495-7.205,7.81-9.767,12.761c-4.999,9.662-10.149,18.972-12.986,29.882
		C220.976,602.227,219.219,609.576,217.427,617.09z"/>
	<path fill-rule="evenodd" clip-rule="evenodd" fill="#FFFFFF" d="M390.519,370.267c0.42,6.786,0.903,12.911,1.076,19.045
		c0.028,1.036-1.155,2.227-1.997,3.146c-6.041,6.598-12.395,12.932-18.089,19.813c-2.198,2.656-2.748,6.621-4.435,9.784
		c-0.65,1.219-2.809,1.604-3.534,2.815c-6.169,10.305-9.788,21.523-11.668,33.361c-0.477,3.003-1.478,5.921-3.37,8.972
		c-1.864-10.507-4.537-20.951-5.362-31.538c-0.816-10.474,0.233-21.093,0.454-31.161c0.229,0.901,0.616,2.425,1.004,3.95
		c0.396,0.07,0.792,0.141,1.188,0.21c2.365-6.384,4.711-12.776,7.12-19.144c0.346-0.916,0.872-2.343,1.528-2.477
		C367.729,384.343,379.301,377.919,390.519,370.267z"/>
	<path fill-rule="evenodd" clip-rule="evenodd" fill="#FFFFFF" d="M-4.005,83.753c35.867-4.942,70.236-14.101,102.495-30.714
		c-10.792,11.978-20.221,24.5-24.159,41.06C47.713,96.233,21.274,95.434-4.005,83.753z"/>
	<path fill-rule="evenodd" clip-rule="evenodd" fill="#FFFFFF" d="M514.234,39.377c32.733-1.5,58.086,16.926,85.796,29.93
		c-6.885,3.452-13.287,6.886-19.879,9.908c-7.771,3.563-15.618,2.703-22.392-2.103c-7.665-5.437-14.658-11.817-21.995-17.722
		c-1.174-0.945-2.616-1.557-4.049-2.389C528.431,49.175,519.895,45.92,514.234,39.377z"/>
	<path fill-rule="evenodd" clip-rule="evenodd" fill="#FFFFFF" d="M611.726,63.382c3.05-8.296,5.846-15.902,8.642-23.51
		c6.271,4.188,13.699,8.998,23.091,8.045c1.5-0.152,2.941-0.873,5.944-1.808c-2.97-1.493-4.559-2.409-6.237-3.111
		c-3.691-1.544-7.672-2.572-11.075-4.585c-3.049-1.802-4.155-5.021-2.6-8.637c1.58-3.677,0.079-7.786,0.619-11.027
		c1.693-10.158-5.942-15.182-9.206-23.31c2.566,1.587,5.571,2.742,7.623,4.833c9.163,9.333,16.827,19.861,23.434,31.137
		c2.393,4.083,5.476,5.964,10.445,5.669c7.304-0.435,14.664-0.375,21.978-0.037c7.049,0.326,14.069,1.273,21.103,1.947
		c-0.008,0.492-0.017,0.983-0.024,1.476c-2.028,0.167-4.054,0.381-6.085,0.494c-14.559,0.811-29.013,2.367-42.868,7.198
		c-13.316,4.644-26.516,9.622-39.799,14.36C615.029,63.115,613.147,63.148,611.726,63.382z"/>
	<path fill-rule="evenodd" clip-rule="evenodd" fill="#FFFFFF" d="M687.092,273.734c1.508-0.785,3.723-1.343,5.05-2.742
		c3.886-4.099,7.363-8.581,11.144-12.785c0.626-0.697,1.965-0.752,2.976-1.104c0.366,1.375,1.453,3.094,0.986,4.071
		c-3.944,8.263-7.524,16.816-12.526,24.418c-3.795,5.768-9.582,10.207-14.349,15.359c-4.285,4.632-8.223,0.315-12.175-0.486
		c-1.861-0.377-3.65-2.227-4.968-3.824c-1.155-1.401-2.668-3.88-2.143-5.004c1.034-2.214,3.058-4.418,5.23-5.56
		c5.834-3.063,12.014-5.457,17.928-8.376C685.386,277.139,685.943,275.397,687.092,273.734z"/>
	<path fill-rule="evenodd" clip-rule="evenodd" fill="#FFFFFF" d="M544.717,175.2c-7.896-6.479-9.985-15.464-8.791-25.551
		c0.721-6.086,5.311-9.256,11.805-7.556c6.916,1.811,13.103,4.89,15.525,12.602c0.822,2.616,0.881,4.244-1.589,6.163
		C555.904,165.336,550.491,170.266,544.717,175.2z"/>
	<path fill-rule="evenodd" clip-rule="evenodd" fill="#FFFFFF" d="M737.202,188.963c5.966,0.464,11.512,0.896,17.068,1.328
		c1.631,12.904-15.202,34.103-31.025,37.752c3.372-6.685,7.019-12.464,9.25-18.745C734.759,202.929,735.623,196.063,737.202,188.963
		z"/>
	<path fill-rule="evenodd" clip-rule="evenodd" fill="#FFFFFF" d="M597.365,187.33c-4.445-3.296-9.177-5.486-11.856-9.168
		c-2.598-3.569-3.272-8.629-4.32-13.143c-0.17-0.731,1.938-2.538,3.279-2.985c7.74-2.583,22.083-1.593,28.199,7.733
		c-2.576,2.939-5.132,5.838-7.671,8.752C602.515,181.367,600.05,184.229,597.365,187.33z"/>
	<path fill-rule="evenodd" clip-rule="evenodd" fill="#FFFFFF" d="M689.565,207.679c-1.432-6.978-2.92-13.944-4.218-20.947
		c-0.144-0.773,0.716-2.46,1.249-2.522c8.552-0.98,17.025-3.753,25.763-1.26c3.105,0.886,2.741,2.522,1.568,4.816
		C708.65,198.087,702.608,205.078,689.565,207.679z"/>
	<path fill-rule="evenodd" clip-rule="evenodd" fill="#FFFFFF" d="M561.362,40.113c10.69-0.289,21.379-0.617,32.071-0.828
		c1.773-0.035,3.597,0.288,5.33,0.719c2.263,0.562,5.978,0.935,6.362,2.208c0.776,2.564,0.33,5.935-0.743,8.5
		c-1.092,2.608-3.542,4.647-5.242,6.742c-12.826-5.354-25.301-10.563-37.774-15.77C561.364,41.16,561.363,40.636,561.362,40.113z"/>
	<path fill-rule="evenodd" clip-rule="evenodd" fill="#FFFFFF" d="M622.78,250.787c-0.346,6.093-0.368,11.572-1.219,16.917
		c-0.158,0.997-3.859,2.399-5.561,2.012c-7.282-1.663-14.57-3.628-20.333-9.764C602.818,253.106,611.695,251.458,622.78,250.787z"/>
	<path fill-rule="evenodd" clip-rule="evenodd" fill="#FFFFFF" d="M577.529,245.64c-10.202-1.159-19.419-3.764-24.907-14.438
		c7.344-1.438,14.496-2.839,22.008-4.31C579.2,231.979,578.845,238.582,577.529,245.64z"/>
	<path fill-rule="evenodd" clip-rule="evenodd" fill="#FFFFFF" d="M656.365,274.593c-0.847,2.986-1.522,6.698-2.965,10.083
		c-1.525,3.585-4.49,4.498-8,2.386c-2.231-1.343-4.655-2.521-6.494-4.291c-0.857-0.827-1.271-3.517-0.619-4.274
		c3.455-4.02,7.179-7.837,11.081-11.43c2.246-2.068,4.596-1.844,5.657,1.506C655.559,270.254,655.807,272.026,656.365,274.593z"/>
	<path fill-rule="evenodd" clip-rule="evenodd" fill="#FFFFFF" d="M525.412,210.233c6.767-1.634,13.043-3.15,19.356-4.674
		c2.556,5.521,1.036,13.283-3.806,16.683c-4.582,3.218-6.866-1.816-9.572-3.713C528.93,216.806,527.618,213.439,525.412,210.233z"/>
	<path fill-rule="evenodd" clip-rule="evenodd" fill="#FFFFFF" d="M637.171,173.059c5.411,2.877,10.822,5.756,16.068,8.547
		c-0.568,1.588-0.584,2.011-0.797,2.169c-3.202,2.387-6.431,4.738-9.653,7.098c-1.963-3.78-4.049-7.504-5.828-11.369
		c-0.698-1.518-0.711-3.353-1.036-5.044C636.341,173.994,636.756,173.526,637.171,173.059z"/>
	<path fill-rule="evenodd" clip-rule="evenodd" d="M270.07,7.182c-5.416-5.058-9.353-8.735-13.289-12.411
		c0.231-0.422,0.464-0.844,0.695-1.266c4.531,0.518,9.057,1.375,13.597,1.468c5.982,0.124,12.177,0.536,17.928-0.749
		c13.153-2.937,26.109-6.768,39.115-10.353c13.854-3.819,26.746-1.71,39.361,6.328c0.761-8.723,0.924-17.784,12.227-20.38
		c0,1.416,0.448,2.835-0.072,3.567c-3.657,5.151-0.521,8.161,2.831,11.825c6.25,6.833,14.592,11.3,20.479,18.397
		c7.961,9.598,18.626,17.488,20.408,31.198c0.145,1.11,1.467,2.065,2.237,3.096c1.544,2.065,3.084,4.133,4.626,6.2
		c-0.561,0.474-1.121,0.948-1.682,1.423c-3.193-3.438-6.595-6.705-9.533-10.347c-5.336-6.614-9.993-13.814-15.671-20.105
		C395.575,6.485,385.251,1.905,374.218-1C355-6.059,335.737-5.578,316.842,0.151c-7.858,2.382-15.343,6.311-22.614,10.244
		c-16.397,8.869-33.138,15.907-52.38,14.809c-4.382-0.25-8.842,1.284-13.293,1.73c-6.384,0.641-12.793,1.404-19.193,1.411
		c-4.587,0.006-4.922,3.14-5.322,5.983c-0.49,3.487,0.737,6.373,4.614,7.658c11.159,3.704,22.231,7.657,31.708,14.926
		c7.526,5.773,15.337,11.251,22.352,17.6c8.809,7.97,16.73,16.912,25.404,25.041c11.345,10.633,24.027,19.588,39.93,21.109
		c10.364,0.992,20.987,0.257,31.418-0.618c14.078-1.18,28.047-3.746,42.132-4.702c6.848-0.465,13.318,2.886,18.401,7.7
		c5.686,5.383,10.961,11.199,16.415,16.826c-0.615,0.694-1.23,1.389-1.846,2.082c-1.911-1.527-4.321-2.711-5.646-4.641
		c-5.804-8.46-14.602-10.472-23.819-11.292c-13.677-1.219-26.594,2.833-39.463,6.63c-18.394,5.429-36.103,3.804-53.532-4.001
		c-15.622-6.996-28.291-17.877-40.508-29.484c-10.806-10.265-22.512-19.712-32.349-30.823c-8.461-9.557-20.369-12.513-30.081-19.398
		c-3.128-2.219-6.176-4.853-8.461-7.896c-3.969-5.286-2.481-17.437,2.782-20.853c3.396-2.205,7.71-3.65,11.756-4.078
		c13.116-1.386,26.345-1.752,39.427-3.348C259.709,12.151,264.47,9.289,270.07,7.182z"/>
	<path fill-rule="evenodd" clip-rule="evenodd" d="M443.108,52.858c2.72,8.241,6.932,14.217,14.787,17.168
		c3.795,1.427,7.722,3.142,8.018,9.067c-2.521-0.933-5.166-1.185-6.734-2.618c-6.359-5.812-14.485-5.818-22.114-6.862
		c-9.876-1.351-19.821-2.266-27.907-8.707c-4.07-3.243-7.221-7.617-11.085-11.155c-2.323-2.126-5.221-3.626-8.907-6.116
		c-0.621,9.409,6.323,14.604,7.925,23.102c-2.733-1.931-5.068-2.879-6.349-4.61c-5.004-6.764-12.511-9.213-19.769-12.157
		c-4.127-1.673-8.392-3.047-12.396-4.967c-4.056-1.943-7.867-4.393-12.9-7.255c2.727,4.422,4.793,8.17,7.251,11.641
		c2.435,3.439,5.266,6.599,7.535,10.245c-13.103-9.326-27.255-14.794-44.498-14.774c5.758,3.524,10.617,6.5,15.477,9.475
		c-0.294,0.554-0.588,1.107-0.882,1.661c-2.38-0.684-4.787-1.286-7.137-2.063c-7.832-2.59-15.831-3.094-24.054-2.861
		c-8.744,0.249-17.543,0.024-25.006-5.926c-6.767-5.395-7.258-5.783-7.011-10.445c7.168,5.157,15.234,6.716,23.563,7.207
		c1.922,0.113,3.882-0.401,5.825-0.627c-0.635-2.292-0.681-5.036-2.023-6.783c-3.014-3.917-4.165-8.07-3.606-13.656
		c1.249,1.108,2.07,1.916,2.971,2.621c3.237,2.534,6.146,5.946,9.822,7.369c9.938,3.85,20.204,6.851,30.895,10.37
		c-1.453-9.718-1.982-18.654,6.539-25.612c7.398,17.167,22.291,23.15,37.936,28.418c1.184-9.487,5.303-17.07,13.482-23.992
		c8.122,24.441,24.007,39.24,50.342,41.689c-2.507-5.568-7.774-9.875-5.218-17c-0.413,5.492,3.258,4.29,5.996,4.23
		c14.99-0.325,28.974,3.122,41.047,12.139c8.938,6.677,15.479,15.134,12.94,27.368c-2.44,11.762-16.444,16.307-25.181,13.242
		c-0.526-0.185-0.837-3.402-0.348-3.693c6.188-3.677,7.471-9.643,6.381-15.732c-3.283-18.352-9.914-25.192-29.576-28.321
		C447.303,53.647,445.479,53.285,443.108,52.858z"/>
	<path fill-rule="evenodd" clip-rule="evenodd" d="M724.611,134.051c1.682,1.394,3.703,2.915,5.544,4.627
		c4.364,4.057,8.441,8.446,13.003,12.26c6.299,5.267,14.098,4.016,21.513,4.122c4.881,0.069,9.763,0.014,14.645,0.014
		c0.137,0.591,0.273,1.184,0.41,1.776c-2.18,1.029-4.263,2.564-6.556,3.006c-18.012,3.472-34.227-1.107-48.213-12.507
		c-10.798-8.8-21.181-18.198-31.032-28.045c-10.23-10.227-22.574-15.754-36.183-19.315c-12.648-3.31-25.318-3.53-38.173-1.188
		c-3.843,0.699-7.923,0.107-12.518,0.107c3.339-4.887,8.396-4.912,12.718-5.824c8.34-1.759,16.784-3.221,25.259-4.071
		c5.516-0.552,11.256-0.399,16.734,0.459c23.739,3.721,41.329,17.532,56.459,35.209c1.892,2.21,4.219,4.056,6.02,6.329
		C724.88,131.815,724.55,133.387,724.611,134.051z"/>
	<path fill-rule="evenodd" clip-rule="evenodd" d="M302.352,84.4c-13.609-12.747-13.609-12.747-18.75-13.4c0,1.265,0,2.514,0,3.923
		c-4.953-0.178-5.28-4.048-5.471-6.977c-0.146-2.232,1.288-6.349,2.484-6.528c2.811-0.423,5.988,0.769,8.839,1.8
		c1.355,0.491,2.451,1.994,3.406,3.237c2.458,3.202,4.135,2.335,7.235,0.141c5.292-3.745,11.79-2.663,17.678-1.107
		c8.832,2.333,16.577,7.465,21.522,14.783c5.771,8.535,12.562,7.005,20.389,5.403c9.167-1.875,18.536-4.763,27.674-4.311
		c13.641,0.675,27.596,2.482,37.752,13.938c3.326,3.751,7.634,6.633,11.493,9.912c-0.465,0.68-0.93,1.359-1.395,2.039
		c-4.045-2.234-8.651-3.835-12.029-6.823c-9.08-8.032-20.193-8.271-31.128-8.864c-6.654-0.36-13.445,0.209-20.058,1.167
		c-5.784,0.839-11.413,2.773-17.096,4.282c-17.063,4.531-13.471,4.222-22.155-7.652c-4.997-6.832-10.705-12.74-18.487-16.282
		c-4.966-2.259-10.281,0.777-11.297,6.249C302.705,80.696,302.621,82.095,302.352,84.4z"/>
	<path fill-rule="evenodd" clip-rule="evenodd" d="M492.453,228.675c1.602,3.048,3.044,5.907,4.594,8.707
		c1.542,2.784,3.255,4.821,6.654,6.297c4.633,2.011,9.405,4.195,13.022,8.733c2.406,3.021,7.892,3.433,11.746,5.485
		c13.826,7.361,27.538,14.94,41.313,22.398c4.109,2.225,8.601,3.886,12.374,6.568c10.104,7.181,19.542,15.359,29.986,21.969
		c5.688,3.599,12.875,4.845,19.418,7.056c0.897,0.303,2.063-0.199,2.969,0.091c2.139,0.688,4.197,1.628,6.289,2.467
		c-2.271,0.816-4.517,2.181-6.821,2.292c-2.275,0.109-4.186-1.155-7.012-0.072c-4.846,1.859-9.342-1.003-13.533-3.663
		c-13.479-8.555-27.013-17.022-40.521-25.534c-6.345-3.998-12.535-8.27-19.058-11.952c-5.417-3.06-11.247-5.379-16.841-8.134
		c-5.606-2.763-11.13-5.697-16.726-8.483c-2.903-1.445-5.962-2.587-8.813-4.122c-4.888-2.629-9.603-5.583-14.52-8.155
		c-2.614-1.368-3.836-2.633-2.194-5.696c1.959-3.653-2.214-5.194-3.224-7.859C490.549,234.405,486.601,231.642,492.453,228.675z"/>
	<path fill-rule="evenodd" clip-rule="evenodd" d="M794.706,133.133c-4.763-5.713-9.167-11.783-14.375-17.055
		c-7.596-7.689-15.733-14.845-23.707-22.156c-11.544-10.584-26.176-11.571-40.675-12.979c-7.369-0.714-14.711-2.07-22.086-2.244
		c-7.858-0.186-15.74,0.749-23.616,1.063c-3.979,0.159-7.97,0.027-12.302-0.987c2.259-0.936,4.438-2.256,6.791-2.737
		c8.4-1.715,16.842-3.239,25.301-4.641c4.2-0.696,8.462-1.111,12.713-1.33c1.021-0.053,2.119,1.162,3.163,1.823
		c1.27,0.806,2.52,1.642,4.781,3.122c-0.626-2.376-0.92-3.497-1.29-4.902c16.795-1.06,31.915,3.662,45.512,12.639
		c10.95,7.23,21.568,15.222,28.741,26.605c4.239,6.726,7.912,13.809,11.779,20.766c0.353,0.636,0.255,1.522,0.365,2.292
		C795.437,132.654,795.071,132.893,794.706,133.133z"/>
	<path fill-rule="evenodd" clip-rule="evenodd" d="M403.095,129.745c1.6,4.666,3.813,9.226,4.631,14.023
		c0.893,5.247-2.468,9.317-6.44,12.281c-11.499,8.583-24.324,9.936-37.828,5.952c-2.125-0.627-3.952-2.264-5.807-4.132
		c20.59-0.446,36.805-6.959,43.641-28.229C401.893,129.675,402.494,129.71,403.095,129.745z"/>
	<path fill-rule="evenodd" clip-rule="evenodd" d="M501.288,219.474c2.113,4.314,4.228,8.628,6.338,12.933
		c-5.798-0.083-7.607-3.796-6.294-12.977C501.337,219.424,501.288,219.474,501.288,219.474z"/>
</g>
</svg>
